<?xml version="1.0" encoding="UTF-8"?>
<svg width="48px" height="48px" viewBox="0 0 48 48" version="1.1" xmlns="http://www.w3.org/2000/svg" xmlns:xlink="http://www.w3.org/1999/xlink">
    <!-- Generator: Sketch 62 (91390) - https://sketch.com -->
    <title>iconografia/marca/off/advertencia</title>
    <desc>Created with Sketch.</desc>
    <defs>
        <polygon id="path-1" points="0 0.624 39.627 0.624 39.627 36.9999 0 36.9999"></polygon>
    </defs>
    <g id="iconografia/marca/off/advertencia" stroke="none" stroke-width="1" fill="none" fill-rule="evenodd">
        <g id="Page-1" transform="translate(4.000000, 5.000000)">
            <g id="Group-3" transform="translate(0.000000, 0.376000)">
                <mask id="mask-2" fill="white">
                    <use xlink:href="#path-1"></use>
                </mask>
                <g id="Clip-2"></g>
                <path d="M38.4432,25.2139 L26.4662,4.4709 C25.0972,2.0979 22.5472,0.6239 19.8092,0.6239 C17.0732,0.6239 14.5222,2.0979 13.1512,4.4699 L6.9362,15.2349 C6.7112,15.6239 6.8442,16.1209 7.2342,16.3459 C7.6232,16.5719 8.1202,16.4379 8.3452,16.0489 L14.5602,5.2829 C15.6412,3.4129 17.6522,2.2509 19.8092,2.2509 C21.9672,2.2509 23.9782,3.4129 25.0572,5.2839 L37.0522,26.0589 C37.6722,27.0299 38.0002,28.1549 38.0002,29.3139 C38.0002,32.6279 35.3052,35.3469 31.9392,35.3729 L7.6842,35.3729 C5.5262,35.3729 3.5152,34.2119 2.4362,32.3419 C1.3562,30.4739 1.3562,28.1519 2.4362,26.2829 L5.0472,21.7599 C5.2722,21.3709 5.1382,20.8739 4.7492,20.6499 C4.3592,20.4229 3.8622,20.5579 3.6382,20.9469 L1.0272,25.4699 C-0.3428,27.8409 -0.3428,30.7849 1.0272,33.1549 C2.3962,35.5269 4.9462,36.9999 7.6842,36.9999 L32.0042,36.9989 C36.2082,36.9659 39.6272,33.5189 39.6272,29.3139 C39.6272,27.8449 39.2112,26.4169 38.4432,25.2139" id="Fill-1" fill="#5C5C60" mask="url(#mask-2)"></path>
            </g>
            <path d="M18.4276,10.0362 C18.7366,9.7242 19.1486,9.5522 19.5866,9.5522 C20.4926,9.5522 21.2306,10.2892 21.2306,11.1602 L20.8056,21.0982 C20.7626,21.9952 20.0536,22.3212 19.5866,22.3212 C19.3156,22.3212 18.4266,22.2332 18.3676,21.1082 L17.9435957,11.2282 C17.9426,10.7752 18.1156,10.3512 18.4276,10.0362 M19.5866,23.9482 C20.9016,23.9482 22.3446,22.9762 22.4316,21.1722 L22.8576,11.1952 C22.8576,9.3912 21.3896,7.9252 19.5866,7.9252 C18.7106,7.9252 17.8886,8.2672 17.2716,8.8902 C16.6556,9.5142 16.3156,10.3442 16.3165978,11.2652 L16.7416,21.1862 C16.8426,23.0842 18.2866,23.9482 19.5866,23.9482" id="Fill-4" fill="#5C5C60"></path>
            <path d="M18.0927,27.5039 C18.4907,27.1089 19.0357,26.8829 19.5867,26.8829 C20.1377,26.8829 20.6797,27.1079 21.0757,27.5039 C21.4677,27.8919 21.6927,28.4329 21.6927,28.9879 C21.6927,29.5469 21.4667,30.0899 21.0697,30.4829 C20.2927,31.2589 18.8837,31.2569 18.0997,30.4829 C17.7067,30.0899 17.4817,29.5449 17.4817,28.9879 C17.4817,28.4339 17.7057,27.8919 18.0927,27.5039 M16.9517,31.6369 C17.6497,32.3249 18.6107,32.7209 19.5867,32.7209 C20.5687,32.7209 21.5277,32.3239 22.2157,31.6369 C22.9167,30.9439 23.3197,29.9799 23.3197,28.9879 C23.3197,28.0009 22.9187,27.0379 22.2227,26.3509 C21.5267,25.6539 20.5657,25.2559 19.5867,25.2559 C18.6107,25.2559 17.6487,25.6539 16.9457,26.3509 C16.2517,27.0439 15.8547,28.0049 15.8547,28.9879 C15.8547,29.9729 16.2537,30.9369 16.9517,31.6369" id="Fill-6" fill="#5C5C60"></path>
            <path d="M5.3583,19.5469 C5.5183,19.6969 5.7183,19.7869 5.9383,19.7869 C6.1483,19.7869 6.3583,19.6969 6.5083,19.5469 C6.5883,19.4669 6.6483,19.3769 6.6883,19.2769 C6.7283,19.1779 6.7483,19.0769 6.7483,18.9669 C6.7483,18.8579 6.7283,18.7569 6.6883,18.6569 C6.6483,18.5579 6.5883,18.4669 6.5083,18.3979 C6.2083,18.0869 5.6683,18.0869 5.3583,18.3979 C5.2083,18.5469 5.1183,18.7569 5.1183,18.9669 C5.1183,19.0769 5.1383,19.1779 5.1883,19.2769 C5.2283,19.3769 5.2883,19.4669 5.3583,19.5469" id="Fill-8" fill="#5C5C60"></path>
        </g>
    </g>
</svg>