<?xml version="1.0" encoding="UTF-8"?>
<svg width="48px" height="48px" viewBox="0 0 48 48" version="1.1" xmlns="http://www.w3.org/2000/svg" xmlns:xlink="http://www.w3.org/1999/xlink">
    <!-- Generator: Sketch 62 (91390) - https://sketch.com -->
    <title>iconografia/marca/on/advertencia</title>
    <desc>Created with Sketch.</desc>
    <defs>
        <polygon id="path-1" points="0 0.895 39.6272 0.895 39.6272 37.2704 0 37.2704"></polygon>
    </defs>
    <g id="iconografia/marca/on/advertencia" stroke="none" stroke-width="1" fill="none" fill-rule="evenodd">
        <g id="Page-1" transform="translate(4.000000, 5.000000)">
            <path d="M5.7079,23.2725 L3.0969,27.7955 C1.8719,29.9155 1.8719,32.5475 3.0969,34.6675 C4.3209,36.7885 6.6019,38.1055 9.0489,38.1055 L33.3039,38.1055 L33.3629,38.1055 C37.1209,38.0755 40.178902,34.9925 40.178902,31.2325 C40.1799,29.9195 39.8079,28.6435 39.1039,27.5395 L27.1269,6.7955 C25.9029,4.6745 23.6219,3.3565 21.1739,3.3565 C18.7269,3.3565 16.4459,4.6745 15.2219,6.7945 L9.0059,17.5605 L5.7079,23.2725 Z" id="Fill-1" fill="#FCD603"></path>
            <path d="M19.5863,23.1348 C20.5253,23.1348 21.5563,22.4358 21.6183,21.1368 L22.0433,11.1958 C22.0433,9.8408 20.9403,8.7388 19.5863,8.7388 C18.2313,8.7388 17.1293,9.8408 17.1293,11.2298 L17.5543,21.1438 C17.6263,22.5188 18.6273,23.1348 19.5863,23.1348" id="Fill-3" fill="#B5B5B5"></path>
            <path d="M19.5863,26.0694 C18.8243,26.0694 18.0713,26.3804 17.5203,26.9254 C16.9783,27.4674 16.6673,28.2194 16.6673,28.9884 C16.6673,29.7584 16.9783,30.5114 17.5233,31.0574 C18.0693,31.5964 18.8213,31.9074 19.5863,31.9074 C20.3543,31.9074 21.1053,31.5954 21.6453,31.0574 C22.1913,30.5174 22.5053,29.7614 22.5053,28.9884 C22.5053,28.2164 22.1913,27.4644 21.6473,26.9254 C21.1023,26.3814 20.3513,26.0694 19.5863,26.0694" id="Fill-5" fill="#B5B5B5"></path>
            <g id="Group-9" transform="translate(0.000000, 0.105500)">
                <mask id="mask-2" fill="white">
                    <use xlink:href="#path-1"></use>
                </mask>
                <g id="Clip-8"></g>
                <path d="M38.4432,25.4844 L26.4662,4.7414 C25.0972,2.3684 22.5462,0.8944 19.8082,0.8944 C17.0712,0.8944 14.5212,2.3684 13.1522,4.7394 L6.9362,15.5054 C6.7112,15.8944 6.8442,16.3914 7.2342,16.6164 C7.6232,16.8424 8.1202,16.7084 8.3452,16.3194 L14.5612,5.5524 C15.6402,3.6834 17.6512,2.5214 19.8082,2.5214 C21.9662,2.5214 23.9772,3.6834 25.0572,5.5544 L37.0522,26.3294 C37.6722,27.2994 38.0002,28.4254 38.0002,29.5844 C38.0002,32.8984 35.3042,35.6174 31.9382,35.6434 L7.6832,35.6434 C5.5252,35.6434 3.5152,34.4824 2.4362,32.6124 C1.3562,30.7444 1.3562,28.4224 2.4362,26.5534 L5.0472,22.0304 C5.2722,21.6414 5.1382,21.1444 4.7492,20.9204 C4.3592,20.6934 3.8622,20.8284 3.6382,21.2174 L1.0272,25.7404 C-0.3428,28.1114 -0.3428,31.0554 1.0272,33.4254 C2.3952,35.7974 4.9452,37.2704 7.6832,37.2704 L32.0042,37.2694 C36.2072,37.2364 39.6272,33.7894 39.6272,29.5844 C39.6272,28.1154 39.2112,26.6864 38.4432,25.4844" id="Fill-7" fill="#5C5C60" mask="url(#mask-2)"></path>
            </g>
            <path d="M19.5863,9.5518 C20.4923,9.5518 21.2303,10.2888 21.2303,11.1598 L20.8063,21.0978 C20.7633,21.9948 20.0533,22.3218 19.5863,22.3218 C19.3153,22.3218 18.4263,22.2338 18.3673,21.1088 L17.9423,11.2298 C17.9423,10.3048 18.6803,9.5518 19.5863,9.5518 M19.5863,23.9478 C20.9013,23.9478 22.3453,22.9768 22.4313,21.1718 L22.8573,11.1958 C22.8573,9.3918 21.3893,7.9248 19.5863,7.9248 C17.7833,7.9248 16.3153,9.4068 16.3162995,11.2648 L16.7423,21.1858 C16.8413,23.0838 18.2863,23.9478 19.5863,23.9478" id="Fill-10" fill="#5C5C60"></path>
            <path d="M18.0927,27.5039 C18.4907,27.1089 19.0357,26.8829 19.5867,26.8829 C20.1377,26.8829 20.6787,27.1079 21.0747,27.5039 C21.4677,27.8919 21.6917,28.4329 21.6917,28.9879 C21.6917,29.5469 21.4667,30.0909 21.0717,30.4819 C20.2907,31.2569 18.8837,31.2559 18.0987,30.4829 C17.7067,30.0889 17.4807,29.5449 17.4807,28.9879 C17.4807,28.4339 17.7047,27.8919 18.0927,27.5039 M16.9517,31.6369 C17.6507,32.3249 18.6107,32.7209 19.5867,32.7209 C20.5667,32.7209 21.5267,32.3239 22.2177,31.6359 C22.9177,30.9429 23.3187,29.9789 23.3187,28.9879 C23.3187,28.0009 22.9177,27.0379 22.2227,26.3509 C21.5267,25.6549 20.5657,25.2559 19.5867,25.2559 C18.6107,25.2559 17.6487,25.6539 16.9457,26.3509 C16.2517,27.0439 15.8537,28.0059 15.8537,28.9879 C15.8537,29.9729 16.2527,30.9359 16.9517,31.6369" id="Fill-12" fill="#5C5C60"></path>
            <path d="M5.3632,19.5469 C5.5132,19.6969 5.7232,19.7869 5.9332,19.7869 C6.1532,19.7869 6.3532,19.6969 6.5132,19.5469 C6.5832,19.4669 6.6432,19.3769 6.6832,19.2769 C6.7232,19.1779 6.7532,19.0769 6.7532,18.9669 C6.7532,18.8579 6.7232,18.7569 6.6832,18.6569 C6.6432,18.5579 6.5832,18.4669 6.5132,18.3979 C6.2832,18.1669 5.9232,18.0979 5.6232,18.2169 C5.5232,18.2569 5.4332,18.3179 5.3632,18.3979 C5.2832,18.4669 5.2232,18.5579 5.1832,18.6569 C5.1432,18.7569 5.1232,18.8579 5.1232,18.9669 C5.1232,19.0769 5.1432,19.1779 5.1832,19.2769 C5.2232,19.3769 5.2832,19.4669 5.3632,19.5469" id="Fill-14" fill="#5C5C60"></path>
        </g>
    </g>
</svg>