<?xml version="1.0" encoding="UTF-8"?>
<svg width="48px" height="48px" viewBox="0 0 48 48" version="1.1" xmlns="http://www.w3.org/2000/svg" xmlns:xlink="http://www.w3.org/1999/xlink">
    <!-- Generator: Sketch 62 (91390) - https://sketch.com -->
    <title>iconografia/marca/on/ahorro</title>
    <desc>Created with Sketch.</desc>
    <defs>
        <polygon id="path-1" points="0.433384404 0.311851167 35.575 0.311851167 35.575 32 0.433384404 32"></polygon>
        <polygon id="path-3" points="0.454202553 0.289 14.0268 0.289 14.0268 10.3338 0.454202553 10.3338"></polygon>
        <polygon id="path-5" points="0 0.91171425 40.332 0.91171425 40.332 34.2276 0 34.2276"></polygon>
    </defs>
    <g id="iconografia/marca/on/ahorro" stroke="none" stroke-width="1" fill="none" fill-rule="evenodd">
        <g id="Page-1" transform="translate(4.000000, 4.000000)">
            <g id="Group-3" transform="translate(5.000000, 7.711000)">
                <mask id="mask-2" fill="white">
                    <use xlink:href="#path-1"></use>
                </mask>
                <g id="Clip-2"></g>
                <path d="M1.1293,20.4452 C0.4063,18.4162 0.1123,15.9132 0.9093,13.0072 C3.1083,4.9922 13.6093,3.5112 19.8753,4.7102 C20.3253,4.7972 20.7783,4.6152 21.0213,4.2262 C21.6263,3.2572 22.9393,1.4412 24.7933,0.4442 C25.6263,-0.0048 26.5993,0.7592 26.3623,1.6762 L25.4703,5.1222 C25.3363,5.6382 25.5963,6.1702 26.0843,6.3862 C27.6013,7.0582 30.6433,8.8622 31.0863,12.6482 C31.1493,13.1902 31.6103,13.5982 32.1553,13.5982 L34.4903,13.5982 C35.0893,13.5982 35.5753,14.0842 35.5753,14.6832 L35.5753,19.9792 C35.5753,20.5782 35.0893,21.0632 34.4903,21.0632 L32.2373,21.0632 C31.8453,21.0632 31.4833,21.2722 31.2933,21.6152 C30.6523,22.7742 29.0093,25.4462 26.9613,26.5142 C26.5193,26.7442 26.2833,27.2342 26.3983,27.7202 L26.8413,29.6062 C26.9733,30.1642 26.6473,30.7282 26.0993,30.8932 L22.5783,31.9542 C22.0623,32.1092 21.5103,31.8622 21.2823,31.3742 L20.4393,29.5672 C20.2523,29.1672 19.8433,28.9192 19.4023,28.9422 C17.8823,29.0232 14.3123,29.1542 11.9813,28.7692 C11.4983,28.6902 11.0293,28.9462 10.8283,29.3932 L9.9763,31.2912 C9.7413,31.8152 9.1373,32.0642 8.6003,31.8602 L4.9523,30.4672 C4.3933,30.2542 4.1123,29.6282 4.3243,29.0692 L5.0763,27.0902 C5.2333,26.6772 5.1163,26.2132 4.7903,25.9142 C4.4343,25.5882 3.9413,25.0962 3.4143,24.4502" id="Fill-1" fill="#FCD603" mask="url(#mask-2)"></path>
            </g>
            <path d="M13.5658,2.9814 C11.3008,3.4144 9.4758,5.1694 8.9408,7.4134 C8.9408,7.4134 8.5728,9.0944 9.1158,10.7974 C9.2018,11.0664 9.5048,11.1954 9.7648,11.0854 C11.1318,10.5064 13.0248,9.7464 14.9428,9.4184 C17.0688,9.0544 18.9978,9.1774 19.9488,9.0844 C20.2748,9.0524 20.5238,8.7704 20.5008,8.4434 C20.2558,4.9654 17.2328,2.2804 13.5658,2.9814" id="Fill-4" fill="#B5B5B5"></path>
            <g id="Group-8" transform="translate(7.000000, 0.711000)">
                <mask id="mask-4" fill="white">
                    <use xlink:href="#path-3"></use>
                </mask>
                <g id="Clip-7"></g>
                <path d="M1.7948,10.3338 C1.9058,10.3338 2.0198,10.3108 2.1278,10.2628 C2.5378,10.0778 2.7208,9.5968 2.5368,9.1868 C2.0638,8.1348 1.9568,6.9748 2.2288,5.8338 C2.6838,3.9268 4.2748,2.3938 6.1878,2.0178 C7.7408,1.7138 9.3198,2.1038 10.5168,3.0878 C11.7128,4.0738 12.3998,5.5258 12.3978,7.1038 C12.3968,7.1188 12.3918,7.2128 12.3908,7.2288 C12.3838,7.6688 12.7298,7.9958 13.1698,8.0158 C13.6318,8.0458 13.9878,7.6628 14.0198,7.2238 L14.0268,7.0748 C14.0268,5.0388 13.1238,3.1268 11.5498,1.8318 C9.9778,0.5368 7.9078,0.0218 5.8748,0.4208 C3.3478,0.9168 1.2468,2.9398 0.6458,5.4558 C0.2908,6.9498 0.4308,8.4708 1.0518,9.8538 C1.1878,10.1558 1.4838,10.3338 1.7948,10.3338" id="Fill-6" fill="#5C5C60" mask="url(#mask-4)"></path>
            </g>
            <g id="Group-11" transform="translate(0.000000, 4.711000)">
                <mask id="mask-6" fill="white">
                    <use xlink:href="#path-5"></use>
                </mask>
                <g id="Clip-10"></g>
                <path d="M38.434,14.1996 L36.099,14.1996 C35.965,14.1996 35.853,14.1006 35.838,13.9686 C35.339,9.7016 31.839,7.7146 30.357,7.0566 C30.233,7.0026 30.168,6.8696 30.202,6.7416 L31.094,3.2946 C31.286,2.5516 31.029,1.7956 30.423,1.3216 C29.819,0.8486 29.022,0.7796 28.351,1.1426 C26.337,2.2256 24.933,4.1566 24.275,5.2106 C24.202,5.3256 24.072,5.3456 23.972,5.3276 C17.206,4.0296 6.758,5.8386 4.221,13.7756 C1.875,13.1126 1.653,11.8936 1.646,11.8596 C1.406,9.1786 3.442,8.3106 3.531,8.2746 C3.945,8.1086 4.149,7.6396 3.986,7.2226 C3.822,6.8036 3.349,6.5966 2.932,6.7616 C1.804,7.2026 -0.256,8.8666 0.026,12.0066 C0.036,12.1086 0.287,14.3626 3.807,15.3506 C3.365,17.6756 3.529,19.9516 4.307,22.1336 C4.458,22.5556 4.926,22.7776 5.346,22.6266 C5.769,22.4756 5.99,22.0106 5.839,21.5876 C5.049,19.3696 4.981,17.0316 5.638,14.6376 C7.644,7.3206 17.387,5.7256 23.666,6.9256 C24.458,7.0816 25.238,6.7416 25.655,6.0726 C26.227,5.1546 27.439,3.4806 29.123,2.5746 C29.259,2.5036 29.368,2.5616 29.42,2.6026 C29.474,2.6446 29.558,2.7376 29.518,2.8866 L28.627,6.3326 C28.392,7.2356 28.842,8.1666 29.698,8.5446 C31.221,9.2206 33.834,10.8466 34.222,14.1576 C34.332,15.1086 35.14,15.8266 36.099,15.8266 L38.434,15.8266 C38.584,15.8266 38.705,15.9486 38.705,16.0986 L38.705,21.3946 C38.705,21.5446 38.584,21.6656 38.434,21.6656 L36.181,21.6656 C35.491,21.6656 34.857,22.0376 34.525,22.6366 C33.944,23.6876 32.392,26.2366 30.529,27.2076 C29.754,27.6106 29.351,28.4806 29.55,29.3216 L29.994,31.2086 C30.026,31.3476 29.945,31.4886 29.808,31.5296 L26.288,32.5906 C26.155,32.6276 26.02,32.5686 25.963,32.4456 L25.12,30.6376 C24.79,29.9336 24.087,29.5176 23.303,29.5446 C21.88,29.6216 18.329,29.7576 16.058,29.3826 C15.212,29.2476 14.383,29.6926 14.03,30.4756 L13.178,32.3736 C13.119,32.5046 12.969,32.5646 12.834,32.5156 L9.185,31.1216 C9.046,31.0686 8.976,30.9116 9.028,30.7736 L9.781,28.7936 C10.056,28.0676 9.86,27.2576 9.284,26.7316 C8.831,26.3146 8.395,25.8506 7.989,25.3516 C7.706,25.0036 7.192,24.9506 6.844,25.2346 C6.496,25.5176 6.443,26.0306 6.727,26.3786 C7.183,26.9386 7.673,27.4606 8.185,27.9306 C8.267,28.0066 8.297,28.1186 8.26,28.2166 L7.507,30.1966 C7.137,31.1736 7.63,32.2706 8.606,32.6416 L12.254,34.0346 C13.191,34.3946 14.251,33.9566 14.662,33.0396 L15.514,31.1426 C15.564,31.0316 15.672,30.9646 15.792,30.9886 C18.222,31.3886 21.914,31.2486 23.389,31.1696 C23.497,31.1606 23.599,31.2256 23.645,31.3256 L24.489,33.1336 C24.806,33.8126 25.494,34.2276 26.216,34.2276 C26.395,34.2276 26.578,34.2016 26.756,34.1476 L30.278,33.0876 C31.236,32.7986 31.807,31.8086 31.577,30.8356 L31.133,28.9486 C31.105,28.8306 31.164,28.7106 31.281,28.6506 C33.455,27.5166 35.139,24.8886 35.948,23.4246 C35.993,23.3436 36.082,23.2926 36.181,23.2926 L38.434,23.2926 C39.481,23.2926 40.332,22.4416 40.332,21.3946 L40.332,16.0986 C40.332,15.0516 39.481,14.1996 38.434,14.1996" id="Fill-9" fill="#5C5C60" mask="url(#mask-6)"></path>
            </g>
            <path d="M31.0028,19.9691 C31.0028,19.0091 30.2248,18.2311 29.2648,18.2311 C28.3048,18.2311 27.5258,19.0091 27.5258,19.9691 C27.5258,20.9291 28.3048,21.7071 29.2648,21.7071 C30.2248,21.7071 31.0028,20.9291 31.0028,19.9691" id="Fill-12" fill="#5C5C60"></path>
            <path d="M6.2973,28.1195 C6.2273,28.0395 6.1373,27.9795 6.0373,27.9395 C5.7373,27.8195 5.3773,27.8895 5.1473,28.1195 C5.0773,28.1895 5.0173,28.2795 4.9773,28.3795 C4.9373,28.4795 4.9073,28.5895 4.9073,28.6895 C4.9073,28.9095 4.9973,29.1195 5.1473,29.2695 C5.2273,29.3395 5.3173,29.3995 5.4173,29.4395 C5.5173,29.4895 5.6173,29.5095 5.7273,29.5095 C5.8273,29.5095 5.9373,29.4895 6.0373,29.4395 C6.1373,29.3995 6.2273,29.3395 6.2973,29.2695 C6.4473,29.1195 6.5373,28.9095 6.5373,28.6895 C6.5373,28.5895 6.5173,28.4795 6.4773,28.3795 C6.4373,28.2795 6.3773,28.1895 6.2973,28.1195" id="Fill-14" fill="#5C5C60"></path>
        </g>
    </g>
</svg>