<?xml version="1.0" encoding="UTF-8"?>
<svg width="48px" height="48px" viewBox="0 0 48 48" version="1.1" xmlns="http://www.w3.org/2000/svg" xmlns:xlink="http://www.w3.org/1999/xlink">
    <!-- Generator: Sketch 62 (91390) - https://sketch.com -->
    <title>iconografia/marca/off/ahorro</title>
    <desc>Created with Sketch.</desc>
    <defs>
        <polygon id="path-1" points="0 0.68400156 40.332 0.68400156 40.332 34 0 34"></polygon>
        <polygon id="path-3" points="0.453853743 0.062 14.0268 0.062 14.0268 10.1064 0.453853743 10.1064"></polygon>
    </defs>
    <g id="iconografia/marca/off/ahorro" stroke="none" stroke-width="1" fill="none" fill-rule="evenodd">
        <g id="Page-1" transform="translate(4.000000, 5.000000)">
            <g id="Group-3" transform="translate(0.000000, 4.938400)">
                <mask id="mask-2" fill="white">
                    <use xlink:href="#path-1"></use>
                </mask>
                <g id="Clip-2"></g>
                <path d="M38.435,13.9722 L36.099,13.9722 C35.965,13.9722 35.853,13.8732 35.838,13.7412 C35.338,9.4732 31.839,7.4862 30.357,6.8292 C30.233,6.7752 30.168,6.6422 30.202,6.5142 L31.094,3.0672 C31.286,2.3252 31.029,1.5682 30.424,1.0942 C29.819,0.6202 29.024,0.5522 28.352,0.9152 C26.337,1.9982 24.933,3.9292 24.275,4.9832 C24.214,5.0792 24.1,5.1222 23.972,5.0992 C17.208,3.8052 6.758,5.6122 4.22,13.5482 C1.875,12.8852 1.653,11.6662 1.646,11.6322 C1.406,8.9512 3.442,8.0832 3.531,8.0472 C3.945,7.8812 4.149,7.4122 3.986,6.9952 C3.821,6.5762 3.348,6.3682 2.932,6.5342 C1.804,6.9752 -0.256,8.6392 0.026,11.7792 C0.036,11.8812 0.287,14.1352 3.807,15.1232 C3.365,17.4482 3.529,19.7242 4.307,21.9062 C4.456,22.3292 4.923,22.5492 5.346,22.3992 C5.769,22.2482 5.99,21.7832 5.839,21.3602 C5.049,19.1412 4.981,16.8032 5.638,14.4102 C7.643,7.0942 17.386,5.4952 23.665,6.6972 C24.456,6.8502 25.237,6.5152 25.655,5.8452 C26.227,4.9272 27.439,3.2532 29.122,2.3482 C29.258,2.2762 29.368,2.3332 29.42,2.3752 C29.474,2.4172 29.558,2.5102 29.518,2.6592 L28.627,6.1042 C28.392,7.0082 28.842,7.9392 29.698,8.3172 C31.222,8.9922 33.834,10.6182 34.222,13.9302 C34.332,14.8812 35.14,15.5992 36.099,15.5992 L38.435,15.5992 C38.584,15.5992 38.706,15.7212 38.706,15.8702 L38.706,21.1672 C38.706,21.3172 38.584,21.4382 38.435,21.4382 L36.181,21.4382 C35.491,21.4382 34.857,21.8102 34.525,22.4092 C33.944,23.4602 32.392,26.0092 30.529,26.9802 C29.755,27.3832 29.352,28.2512 29.55,29.0942 L29.994,30.9792 C30.027,31.1192 29.945,31.2612 29.808,31.3022 L26.288,32.3632 C26.162,32.4002 26.02,32.3392 25.963,32.2182 L25.12,30.4102 C24.79,29.7062 24.081,29.2862 23.303,29.3172 C21.881,29.3942 18.329,29.5302 16.058,29.1552 C15.215,29.0172 14.383,29.4652 14.03,30.2482 L13.179,32.1452 C13.12,32.2772 12.97,32.3382 12.834,32.2882 L9.185,30.8942 C9.046,30.8412 8.976,30.6842 9.028,30.5462 L9.781,28.5662 C10.056,27.8412 9.861,27.0312 9.284,26.5022 C8.974,26.2182 8.498,25.7482 7.989,25.1242 C7.705,24.7762 7.192,24.7222 6.844,25.0072 C6.496,25.2902 6.443,25.8032 6.727,26.1512 C7.185,26.7142 7.676,27.2362 8.185,27.7012 C8.268,27.7782 8.297,27.8902 8.26,27.9892 L7.507,29.9692 C7.137,30.9462 7.63,32.0432 8.606,32.4142 L12.254,33.8072 C13.192,34.1682 14.25,33.7292 14.663,32.8122 L15.514,30.9152 C15.564,30.8032 15.673,30.7372 15.792,30.7612 C18.222,31.1602 21.914,31.0212 23.389,30.9422 C23.502,30.9352 23.599,30.9982 23.645,31.0982 L24.489,32.9072 C24.807,33.5852 25.495,34.0002 26.216,34.0002 C26.396,34.0002 26.578,33.9742 26.756,33.9202 L30.279,32.8592 C31.235,32.5702 31.806,31.5802 31.578,30.6072 L31.134,28.7222 C31.106,28.6032 31.165,28.4832 31.281,28.4232 C33.456,27.2892 35.139,24.6612 35.948,23.1972 C35.993,23.1162 36.082,23.0652 36.181,23.0652 L38.435,23.0652 C39.481,23.0652 40.332,22.2142 40.332,21.1672 L40.332,15.8702 C40.332,14.8242 39.481,13.9722 38.435,13.9722" id="Fill-1" fill="#5C5C60" mask="url(#mask-2)"></path>
            </g>
            <g id="Group-6" transform="translate(7.000000, 0.938400)">
                <mask id="mask-4" fill="white">
                    <use xlink:href="#path-3"></use>
                </mask>
                <g id="Clip-5"></g>
                <path d="M1.7958,10.1064 C1.9078,10.1064 2.0208,10.0834 2.1298,10.0344 C2.5388,9.8504 2.7218,9.3684 2.5368,8.9584 C2.0638,7.9074 1.9568,6.7484 2.2288,5.6054 C2.6838,3.6994 4.2748,2.1664 6.1878,1.7904 C7.7428,1.4854 9.3208,1.8774 10.5168,2.8604 C11.7128,3.8464 12.3998,5.2984 12.3978,6.8874 C12.3968,6.8974 12.3918,6.9774 12.3918,6.9864 C12.3758,7.4304 12.7208,7.7694 13.1638,7.7924 C13.6268,7.8094 13.9888,7.4454 14.0198,7.0024 L14.0268,6.8474 C14.0268,4.8114 13.1248,2.8994 11.5508,1.6054 C9.9778,0.3104 7.9098,-0.2056 5.8748,0.1934 C3.3468,0.6894 1.2458,2.7124 0.6458,5.2284 C0.2898,6.7244 0.4308,8.2454 1.0538,9.6274 C1.1898,9.9284 1.4858,10.1064 1.7958,10.1064" id="Fill-4" fill="#5C5C60" mask="url(#mask-4)"></path>
            </g>
            <path d="M31.0033,19.9692 C31.0033,19.0092 30.2253,18.2312 29.2653,18.2312 C28.3053,18.2312 27.5263,19.0092 27.5263,19.9692 C27.5263,20.9292 28.3053,21.7072 29.2653,21.7072 C30.2253,21.7072 31.0033,20.9292 31.0033,19.9692" id="Fill-7" fill="#5C5C60"></path>
            <path d="M6.3813,28.1972 C6.0813,27.8972 5.5313,27.8872 5.2313,28.1972 C5.1513,28.2672 5.1013,28.3572 5.0513,28.4572 C5.0113,28.5572 4.9913,28.6672 4.9913,28.7672 C4.9913,28.8772 5.0113,28.9872 5.0513,29.0772 C5.1013,29.1772 5.1513,29.2672 5.2313,29.3472 C5.3813,29.4972 5.5913,29.5872 5.8113,29.5872 C5.9113,29.5872 6.0213,29.5672 6.1213,29.5172 C6.2213,29.4772 6.3113,29.4172 6.3813,29.3472 C6.5313,29.1972 6.6213,28.9872 6.6213,28.7672 C6.6213,28.5572 6.5313,28.3472 6.3813,28.1972" id="Fill-9" fill="#5C5C60"></path>
        </g>
    </g>
</svg>