<?xml version="1.0" encoding="UTF-8"?>
<svg width="48px" height="48px" viewBox="0 0 48 48" version="1.1" xmlns="http://www.w3.org/2000/svg" xmlns:xlink="http://www.w3.org/1999/xlink">
    <!-- Generator: Sketch 62 (91390) - https://sketch.com -->
    <title>iconografia/marca/off/anuncio</title>
    <desc>Created with Sketch.</desc>
    <defs>
        <polygon id="path-1" points="0.0398 0.847 41.7528 0.847 41.7528 31.4415 0.0398 31.4415"></polygon>
    </defs>
    <g id="iconografia/marca/off/anuncio" stroke="none" stroke-width="1" fill="none" fill-rule="evenodd">
        <g id="Page-1" transform="translate(3.000000, 5.000000)">
            <path d="M0.5,19.1398 C0.6,19.1798 0.7,19.2008 0.81,19.2008 C0.92,19.2008 1.02,19.1798 1.12,19.1398 C1.22,19.0998 1.31,19.0398 1.39,18.9598 C1.54,18.8098 1.62,18.6098 1.62,18.3898 C1.62,18.2808 1.6,18.1808 1.56,18.0798 C1.52,17.9798 1.46,17.8898 1.39,17.8098 C1.08,17.5108 0.54,17.5108 0.24,17.8098 C0.16,17.8898 0.1,17.9798 0.06,18.0798 C0.02,18.1808 0,18.2808 0,18.3898 C0,18.5998 0.08,18.8098 0.24,18.9598 C0.31,19.0398 0.4,19.0998 0.5,19.1398" id="Fill-1" fill="#5C5C60"></path>
            <g id="Group-5" transform="translate(0.000000, 0.153500)">
                <mask id="mask-2" fill="white">
                    <use xlink:href="#path-1"></use>
                </mask>
                <g id="Clip-4"></g>
                <path d="M39.9658,29.5215 L19.1278,22.1675 L19.1278,10.1225 L39.9658,2.7675 L39.9658,29.5215 Z M7.1498,21.9045 L17.3408,21.9045 L17.3408,10.3835 L7.1498,10.3835 L7.1498,21.9045 Z M41.1338,1.1155 C40.7458,0.8405 40.2478,0.7725 39.8018,0.9295 L17.9798,8.6315 C17.8778,8.6095 17.7728,8.5955 17.6648,8.5955 L5.6858,8.5955 L4.1128,8.5955 L1.5028,8.5955 C0.6958,8.5955 0.0398,9.2525 0.0398,10.0605 L0.0398,15.5045 C0.0398,15.9985 0.4398,16.3975 0.9328,16.3975 C1.4268,16.3975 1.8268,15.9985 1.8268,15.5045 L1.8268,10.3825 L4.1128,10.3825 L5.3618,10.3825 L5.3618,21.9045 L5.3388,21.9045 L1.8268,21.9045 L1.8268,21.0055 C1.8268,20.5125 1.4268,20.1125 0.9328,20.1125 C0.4398,20.1125 0.0398,20.5125 0.0398,21.0055 L0.0398,22.2285 C0.0398,23.0355 0.6958,23.6915 1.5028,23.6915 L5.3388,23.6915 L5.6858,23.6915 L17.6648,23.6915 C17.7718,23.6915 17.8768,23.6775 17.9778,23.6565 L39.8008,31.3585 C39.9598,31.4145 40.1238,31.4415 40.2878,31.4415 C40.5868,31.4415 40.8828,31.3495 41.1338,31.1725 C41.5218,30.8985 41.7528,30.4525 41.7528,29.9775 L41.7528,2.3105 C41.7528,1.8355 41.5218,1.3895 41.1338,1.1155 L41.1338,1.1155 Z" id="Fill-3" fill="#5C5C60" mask="url(#mask-2)"></path>
            </g>
            <path d="M22.7354,13.9138 C22.8684,14.2748 23.2104,14.4978 23.5734,14.4978 C23.6764,14.4978 23.7804,14.4798 23.8824,14.4418 L35.8444,10.0208 C36.3074,9.8508 36.5444,9.3368 36.3734,8.8738 C36.2024,8.4108 35.6884,8.1738 35.2254,8.3458 L23.2634,12.7668 C22.8004,12.9368 22.5644,13.4508 22.7354,13.9138" id="Fill-6" fill="#5C5C60"></path>
            <path d="M18.2344,27.382 L13.3474,27.382 L13.3474,32.268 C13.3474,33.977 11.9574,35.366 10.2494,35.366 C8.5404,35.366 7.1504,33.977 7.1504,32.268 L7.1504,26.945 C7.1504,26.451 6.7504,26.051 6.2564,26.051 C5.7624,26.051 5.3624,26.451 5.3624,26.945 L5.3624,32.268 C5.3624,34.962 7.5544,37.153 10.2494,37.153 C12.9424,37.153 15.1344,34.962 15.1344,32.268 L15.1344,29.169 L18.2344,29.169 C18.7284,29.169 19.1284,28.769 19.1284,28.276 C19.1284,27.782 18.7284,27.382 18.2344,27.382" id="Fill-8" fill="#5C5C60"></path>
        </g>
    </g>
</svg>