<?xml version="1.0" encoding="UTF-8"?>
<svg width="48px" height="48px" viewBox="0 0 48 48" version="1.1" xmlns="http://www.w3.org/2000/svg" xmlns:xlink="http://www.w3.org/1999/xlink">
    <!-- Generator: Sketch 62 (91390) - https://sketch.com -->
    <title>iconografia/marca/on/anuncio</title>
    <desc>Created with Sketch.</desc>
    <defs>
        <polygon id="path-1" points="0.0398 0.847 41.7528 0.847 41.7528 31.4415 0.0398 31.4415"></polygon>
    </defs>
    <g id="iconografia/marca/on/anuncio" stroke="none" stroke-width="1" fill="none" fill-rule="evenodd">
        <g id="Page-1" transform="translate(3.000000, 5.000000)">
            <path d="M7.6821,27.4969 L7.6821,33.1229 C7.6821,35.3269 9.4701,37.1149 11.6751,37.1149 C13.8791,37.1149 15.6671,35.3269 15.6671,33.1229 L15.6671,27.3849" id="Fill-1" fill="#B5B5B5"></path>
            <path d="M3.7241,24.947 L19.0901,24.947 C19.5621,24.947 19.9451,24.564 19.9451,24.093 L19.9451,12.494 C19.9451,12.021 19.5621,11.639 19.0901,11.639 L3.7241,11.639 C3.2521,11.639 2.8691,12.021 2.8691,12.494 L2.8691,24.093 C2.8691,24.564 3.2521,24.947 3.7241,24.947" id="Fill-3" fill="#B5B5B5"></path>
            <path d="M20.5156,11.4373 L41.4296,4.0563 C41.9856,3.8593 42.5696,4.2723 42.5696,4.8623 L42.5696,31.7233 C42.5696,32.3133 41.9856,32.7263 41.4296,32.5303 L20.5156,25.1483 C20.1736,25.0283 19.9446,24.7043 19.9446,24.3423 L19.9446,12.2443 C19.9446,11.8813 20.1736,11.5583 20.5156,11.4373" id="Fill-5" fill="#FCD603"></path>
            <path d="M23.5737,14.4973 C23.2107,14.4973 22.8687,14.2743 22.7357,13.9133 C22.5647,13.4503 22.8017,12.9363 23.2637,12.7663 L35.2257,8.3453 C35.6877,8.1733 36.2027,8.4103 36.3737,8.8733 C36.5447,9.3363 36.3077,9.8503 35.8447,10.0203 L23.8837,14.4413 C23.7817,14.4793 23.6767,14.4973 23.5737,14.4973" id="Fill-7" fill="#F8F9FD"></path>
            <path d="M0.5,19.1394 C0.6,19.1794 0.7,19.2004 0.81,19.2004 C1.03,19.2004 1.23,19.1194 1.39,18.9594 C1.54,18.8094 1.63,18.6094 1.63,18.3894 C1.63,18.2804 1.6,18.1804 1.56,18.0794 C1.52,17.9794 1.46,17.8894 1.39,17.8094 C1.16,17.5894 0.8,17.5104 0.5,17.6394 C0.4,17.6804 0.31,17.7404 0.24,17.8094 C0.16,17.8894 0.1,17.9794 0.06,18.0794 C0.02,18.1804 0,18.2804 0,18.3894 C0,18.6094 0.08,18.8094 0.24,18.9594 C0.31,19.0394 0.4,19.0994 0.5,19.1394" id="Fill-9" fill="#5C5C60"></path>
            <g id="Group-13" transform="translate(0.000000, 0.153100)">
                <mask id="mask-2" fill="white">
                    <use xlink:href="#path-1"></use>
                </mask>
                <g id="Clip-12"></g>
                <path d="M39.9658,29.5215 L19.1288,22.1675 L19.1288,10.1225 L39.9658,2.7675 L39.9658,29.5215 Z M7.1498,21.9045 L17.3408,21.9045 L17.3408,10.3835 L7.1498,10.3835 L7.1498,21.9045 Z M41.1348,1.1155 C40.7478,0.8415 40.2498,0.7725 39.8018,0.9295 L17.9798,8.6315 C17.8778,8.6095 17.7718,8.5955 17.6638,8.5955 L5.6858,8.5955 L4.1138,8.5955 L1.5038,8.5955 C0.6958,8.5955 0.0398,9.2525 0.0398,10.0605 L0.0398,15.5045 C0.0398,15.9985 0.4398,16.3975 0.9328,16.3975 C1.4268,16.3975 1.8268,15.9985 1.8268,15.5045 L1.8268,10.3825 L4.1138,10.3825 L5.3628,10.3825 L5.3628,21.9045 L5.3388,21.9045 L1.8268,21.9045 L1.8268,21.0055 C1.8268,20.5125 1.4268,20.1125 0.9328,20.1125 C0.4398,20.1125 0.0398,20.5125 0.0398,21.0055 L0.0398,22.2285 C0.0398,23.0355 0.6958,23.6915 1.5038,23.6915 L5.3388,23.6915 L5.6858,23.6915 L17.6638,23.6915 C17.7718,23.6915 17.8758,23.6775 17.9768,23.6555 L39.8018,31.3585 C39.9598,31.4145 40.1248,31.4415 40.2878,31.4415 C40.5878,31.4415 40.8838,31.3495 41.1348,31.1725 C41.5218,30.8985 41.7528,30.4525 41.7528,29.9775 L41.7528,2.3105 C41.7528,1.8355 41.5218,1.3895 41.1348,1.1155 L41.1348,1.1155 Z" id="Fill-11" fill="#5C5C60" mask="url(#mask-2)"></path>
            </g>
            <path d="M18.2344,27.3816 L13.3474,27.3816 L13.3474,32.2676 C13.3474,33.9766 11.9584,35.3656 10.2494,35.3656 C8.5404,35.3656 7.1504,33.9766 7.1504,32.2676 L7.1504,26.9446 C7.1504,26.4506 6.7504,26.0506 6.2564,26.0506 C5.7624,26.0506 5.3624,26.4506 5.3624,26.9446 L5.3624,32.2676 C5.3624,34.9616 7.5554,37.1526 10.2494,37.1526 C12.9434,37.1526 15.1344,34.9616 15.1344,32.2676 L15.1344,29.1686 L18.2344,29.1686 C18.7284,29.1686 19.1284,28.7686 19.1284,28.2756 C19.1284,27.7816 18.7284,27.3816 18.2344,27.3816" id="Fill-14" fill="#5C5C60"></path>
        </g>
    </g>
</svg>