<?xml version="1.0" standalone="no"?>
<!DOCTYPE svg PUBLIC "-//W3C//DTD SVG 20010904//EN"
 "http://www.w3.org/TR/2001/REC-SVG-20010904/DTD/svg10.dtd">
<svg version="1.0" xmlns="http://www.w3.org/2000/svg"
 width="2389.000000pt" height="1280.000000pt" viewBox="0 0 2389.000000 1280.000000"
 preserveAspectRatio="xMidYMid meet">
<metadata>
Created by potrace 1.16, written by Peter Selinger 2001-2019
</metadata>
<g transform="translate(0.000000,1280.000000) scale(0.100000,-0.100000)"
fill="#000000" stroke="none">
<path d="M2055 12745 c-79 -17 -177 -62 -239 -110 -73 -55 -1087 -1005 -1128
-1056 -151 -186 -162 -450 -29 -656 30 -47 1212 -1155 5392 -5059 2945 -2750
5389 -5032 5432 -5071 143 -133 277 -187 462 -187 185 0 319 54 462 187 43 39
2487 2321 5432 5071 4180 3904 5362 5012 5392 5059 74 114 105 245 89 374 -18
141 -70 239 -188 355 -231 228 -1056 987 -1105 1016 -135 81 -319 111 -477 78
-99 -21 -225 -84 -296 -149 -32 -28 -2139 -1990 -4682 -4360 -4002 -3728
-4626 -4306 -4640 -4295 -9 7 -2089 1944 -4622 4303 -2533 2360 -4634 4316
-4668 4347 -75 68 -199 132 -297 153 -85 18 -209 18 -290 0z"/>
</g>
</svg>
