<?xml version="1.0" encoding="UTF-8"?>
<svg width="48px" height="48px" viewBox="0 0 48 48" version="1.1" xmlns="http://www.w3.org/2000/svg" xmlns:xlink="http://www.w3.org/1999/xlink">
    <!-- Generator: Sketch 62 (91390) - https://sketch.com -->
    <title>iconografia/marca/on/audio</title>
    <desc>Created with Sketch.</desc>
    <defs>
        <polygon id="path-1" points="0.3721 0.967723452 14.8101 0.967723452 14.8101 32 0.3721 32"></polygon>
    </defs>
    <g id="iconografia/marca/on/audio" stroke="none" stroke-width="1" fill="none" fill-rule="evenodd">
        <g id="Page-1" transform="translate(3.000000, 7.000000)">
            <path d="M2.4814,21.7565 L2.4814,23.7475 C2.4814,23.9045 2.6094,24.0325 2.7664,24.0325 L7.4464,24.0325 C7.6034,24.0325 7.7314,23.9045 7.7314,23.7475 L7.7314,11.1935 C7.7314,11.0345 7.6034,10.9075 7.4464,10.9075 L2.7664,10.9075 C2.6094,10.9075 2.4814,11.0345 2.4814,11.1935 L2.4814,16.9005" id="Fill-1" fill="#B5B5B5"></path>
            <g id="Group-5" transform="translate(11.000000, 1.757800)">
                <mask id="mask-2" fill="white">
                    <use xlink:href="#path-1"></use>
                </mask>
                <g id="Clip-4"></g>
                <path d="M0.3721,9.9215 L14.3721,1.0125 C14.5611,0.8925 14.8101,1.0275 14.8101,1.2535 L14.8101,31.7155 C14.8101,31.9395 14.5611,32.0755 14.3721,31.9555 L0.3721,23.0465" id="Fill-3" fill="#FCD603" mask="url(#mask-2)"></path>
            </g>
            <path d="M12.8691,15.8307 C12.5931,15.8307 12.3231,15.6897 12.1711,15.4357 C11.9391,15.0507 12.0641,14.5517 12.4501,14.3197 L19.0121,10.3817 C19.3971,10.1467 19.8961,10.2747 20.1281,10.6597 C20.3591,11.0457 20.2341,11.5447 19.8481,11.7757 L13.2861,15.7147 C13.1561,15.7937 13.0111,15.8307 12.8691,15.8307" id="Fill-6" fill="#FFFFFF"></path>
            <path d="M0.8101,19.0592 C1.0301,19.0592 1.2401,18.9692 1.3901,18.8192 C1.4701,18.7392 1.5301,18.6492 1.5701,18.5492 C1.6101,18.4492 1.6301,18.3492 1.6301,18.2392 C1.6301,18.1392 1.6101,18.0292 1.5701,17.9292 C1.5301,17.8302 1.4701,17.7392 1.3901,17.6692 C1.0901,17.3592 0.5501,17.3592 0.2401,17.6692 C0.1701,17.7392 0.1101,17.8302 0.0601,17.9292 C0.0201,18.0292 0.0001,18.1392 0.0001,18.2392 C0.0001,18.3492 0.0201,18.4492 0.0601,18.5492 C0.1001,18.6492 0.1601,18.7392 0.2401,18.8192 C0.3201,18.8892 0.4101,18.9492 0.5001,18.9892 C0.6001,19.0292 0.7101,19.0592 0.8101,19.0592" id="Fill-8" fill="#5C5C60"></path>
            <path d="M24.9263,0.1364 C24.5743,-0.0566 24.1453,-0.0446 23.8053,0.1714 L9.8063,9.0804 C9.4273,9.3224 9.3153,9.8244 9.5563,10.2034 C9.7983,10.5824 10.2993,10.6944 10.6803,10.4534 L23.8673,2.0604 L23.8673,30.5984 L10.6793,22.2054 C10.3013,21.9644 9.7983,22.0754 9.5563,22.4554 C9.3153,22.8344 9.4273,23.3374 9.8063,23.5784 L23.8043,32.4864 C23.9853,32.6014 24.1903,32.6584 24.3953,32.6584 C24.5773,32.6584 24.7593,32.6144 24.9243,32.5234 C25.2763,32.3304 25.4943,31.9614 25.4943,31.5614 L25.4943,1.0984 C25.4943,0.6984 25.2773,0.3294 24.9263,0.1364" id="Fill-10" fill="#5C5C60"></path>
            <path d="M6.0205,8.9537 L1.3405,8.9537 C0.7345,8.9537 0.2425,9.4467 0.2425,10.0527 L0.2425,15.7597 C0.2425,16.2087 0.6065,16.5727 1.0555,16.5727 C1.5045,16.5727 1.8695,16.2087 1.8695,15.7597 L1.8695,10.5807 L5.4925,10.5807 L5.4925,22.0787 L1.8695,22.0787 L1.8695,20.6157 C1.8695,20.1667 1.5045,19.8027 1.0555,19.8027 C0.6065,19.8027 0.2425,20.1667 0.2425,20.6157 L0.2425,22.6067 C0.2425,23.2127 0.7345,23.7057 1.3405,23.7057 L6.0205,23.7057 C6.6265,23.7057 7.1195,23.2127 7.1195,22.6067 L7.1195,10.0527 C7.1195,9.4467 6.6265,8.9537 6.0205,8.9537" id="Fill-12" fill="#5C5C60"></path>
            <path d="M28.6182,23.7057 C32.6852,23.7057 35.9932,20.3967 35.9932,16.3297 C35.9932,12.2627 32.6852,8.9537 28.6182,8.9537 C28.1692,8.9537 27.8052,9.3177 27.8052,9.7677 C27.8052,10.2167 28.1692,10.5807 28.6182,10.5807 C31.7882,10.5807 34.3672,13.1597 34.3672,16.3297 C34.3672,19.4997 31.7882,22.0787 28.6182,22.0787 C28.1692,22.0787 27.8052,22.4427 27.8052,22.8927 C27.8052,23.3417 28.1692,23.7057 28.6182,23.7057" id="Fill-14" fill="#5C5C60"></path>
            <path d="M28.6182,3.7037 C28.1692,3.7037 27.8052,4.0677 27.8052,4.5167 C27.8052,4.9667 28.1692,5.3307 28.6182,5.3307 C34.6832,5.3307 39.6182,10.2657 39.6182,16.3297 C39.6182,22.3937 34.6832,27.3287 28.6182,27.3287 C28.1692,27.3287 27.8052,27.6927 27.8052,28.1417 C27.8052,28.5917 28.1692,28.9557 28.6182,28.9557 C35.5802,28.9557 41.2442,23.2917 41.2442,16.3297 C41.2442,9.3677 35.5802,3.7037 28.6182,3.7037" id="Fill-16" fill="#5C5C60"></path>
            <path d="M28.6182,16.8287 C28.1692,16.8287 27.8052,17.1927 27.8052,17.6417 C27.8052,18.0917 28.1692,18.4557 28.6182,18.4557 C29.7902,18.4557 30.7432,17.5017 30.7432,16.3297 C30.7432,15.1577 29.7902,14.2037 28.6182,14.2037 C28.1692,14.2037 27.8052,14.5677 27.8052,15.0167 C27.8052,15.4667 28.1692,15.8307 28.6182,15.8307 C28.8932,15.8307 29.1172,16.0547 29.1172,16.3297 C29.1172,16.6047 28.8932,16.8287 28.6182,16.8287" id="Fill-18" fill="#5C5C60"></path>
        </g>
    </g>
</svg>