<?xml version="1.0" encoding="UTF-8"?>
<svg width="48px" height="48px" viewBox="0 0 48 48" version="1.1" xmlns="http://www.w3.org/2000/svg" xmlns:xlink="http://www.w3.org/1999/xlink">
    <!-- Generator: Sketch 62 (91390) - https://sketch.com -->
    <title>iconografia/marca/off/audio</title>
    <desc>Created with Sketch.</desc>
    <g id="iconografia/marca/off/audio" stroke="none" stroke-width="1" fill="none" fill-rule="evenodd">
        <g id="Page-1" transform="translate(3.000000, 8.000000)" fill="#5C5C60">
            <path d="M1.3901,18.819 C1.4701,18.739 1.5301,18.649 1.5701,18.549 C1.6101,18.449 1.6301,18.349 1.6301,18.239 C1.6301,18.139 1.6101,18.029 1.5701,17.929 C1.5301,17.83 1.4701,17.739 1.3901,17.67 C1.0901,17.359 0.5501,17.359 0.2401,17.67 C0.1701,17.739 0.1101,17.83 0.0701,17.929 C0.0201,18.029 0.0001,18.139 0.0001,18.239 C0.0001,18.349 0.0201,18.449 0.0601,18.549 C0.1101,18.649 0.1701,18.739 0.2401,18.819 C0.4001,18.969 0.6001,19.059 0.8201,19.059 C1.0301,19.059 1.2401,18.969 1.3901,18.819" id="Fill-1"></path>
            <path d="M24.9277,0.1363 C24.5757,-0.0567 24.1487,-0.0447 23.8067,0.1713 L9.8077,9.0803 C9.4287,9.3223 9.3167,9.8243 9.5577,10.2033 C9.7997,10.5823 10.3017,10.6943 10.6817,10.4533 L23.8687,2.0603 L23.8687,30.5983 L10.6807,22.2053 C10.3017,21.9643 9.7997,22.0753 9.5577,22.4553 C9.3167,22.8343 9.4287,23.3373 9.8077,23.5783 L23.8057,32.4863 C23.9867,32.6013 24.1917,32.6583 24.3967,32.6583 C24.5787,32.6583 24.7607,32.6143 24.9257,32.5233 C25.2777,32.3303 25.4957,31.9613 25.4957,31.5613 L25.4957,1.0983 C25.4957,0.6983 25.2787,0.3293 24.9277,0.1363" id="Fill-3"></path>
            <path d="M13.2881,15.7145 L19.8501,11.7765 C20.2351,11.5445 20.3601,11.0455 20.1291,10.6595 C19.8971,10.2755 19.3971,10.1475 19.0131,10.3815 L12.4511,14.3195 C12.0661,14.5515 11.9411,15.0505 12.1721,15.4365 C12.3251,15.6905 12.5941,15.8305 12.8711,15.8305 C13.0131,15.8305 13.1571,15.7935 13.2881,15.7145" id="Fill-5"></path>
            <path d="M6.022,8.9537 L1.342,8.9537 C0.736,8.9537 0.243,9.4467 0.243,10.0527 L0.243,15.7597 C0.243,16.2087 0.607,16.5727 1.057,16.5727 C1.506,16.5727 1.87,16.2087 1.87,15.7597 L1.87,10.5807 L5.493,10.5807 L5.493,22.0787 L1.87,22.0787 L1.87,20.6157 C1.87,20.1667 1.506,19.8027 1.057,19.8027 C0.607,19.8027 0.243,20.1667 0.243,20.6157 L0.243,22.6067 C0.243,23.2127 0.736,23.7057 1.342,23.7057 L6.022,23.7057 C6.627,23.7057 7.12,23.2127 7.12,22.6067 L7.12,10.0527 C7.12,9.4467 6.627,8.9537 6.022,8.9537" id="Fill-7"></path>
            <path d="M28.6196,23.7057 C32.6866,23.7057 35.9956,20.3967 35.9956,16.3297 C35.9956,12.2627 32.6866,8.9537 28.6196,8.9537 C28.1706,8.9537 27.8066,9.3177 27.8066,9.7677 C27.8066,10.2167 28.1706,10.5807 28.6196,10.5807 C31.7896,10.5807 34.3696,13.1597 34.3696,16.3297 C34.3696,19.4997 31.7896,22.0787 28.6196,22.0787 C28.1706,22.0787 27.8066,22.4427 27.8066,22.8927 C27.8066,23.3417 28.1706,23.7057 28.6196,23.7057" id="Fill-9"></path>
            <path d="M28.6196,3.7037 C28.1706,3.7037 27.8066,4.0677 27.8066,4.5167 C27.8066,4.9667 28.1706,5.3307 28.6196,5.3307 C34.6846,5.3307 39.6196,10.2657 39.6196,16.3297 C39.6196,22.3937 34.6846,27.3287 28.6196,27.3287 C28.1706,27.3287 27.8066,27.6927 27.8066,28.1417 C27.8066,28.5917 28.1706,28.9557 28.6196,28.9557 C35.5816,28.9557 41.2456,23.2917 41.2456,16.3297 C41.2456,9.3677 35.5816,3.7037 28.6196,3.7037" id="Fill-11"></path>
            <path d="M28.6196,16.8287 C28.1706,16.8287 27.8066,17.1927 27.8066,17.6417 C27.8066,18.0917 28.1706,18.4557 28.6196,18.4557 C29.7916,18.4557 30.7446,17.5017 30.7446,16.3297 C30.7446,15.1577 29.7916,14.2037 28.6196,14.2037 C28.1706,14.2037 27.8066,14.5677 27.8066,15.0167 C27.8066,15.4667 28.1706,15.8307 28.6196,15.8307 C28.8946,15.8307 29.1186,16.0547 29.1186,16.3297 C29.1186,16.6047 28.8946,16.8287 28.6196,16.8287" id="Fill-13"></path>
        </g>
    </g>
</svg>