<?xml version="1.0" encoding="UTF-8"?>
<svg width="48px" height="48px" viewBox="0 0 48 48" version="1.1" xmlns="http://www.w3.org/2000/svg" xmlns:xlink="http://www.w3.org/1999/xlink">
    <!-- Generator: Sketch 62 (91390) - https://sketch.com -->
    <title>iconografia/marca/on/billete</title>
    <desc>Created with Sketch.</desc>
    <defs>
        <polygon id="path-1" points="0.8696 0.8321 39.0436 0.8321 39.0436 24 0.8696 24"></polygon>
        <polygon id="path-3" points="0.1203 0.188 39.9223 0.188 39.9223 24.9826 0.1203 24.9826"></polygon>
    </defs>
    <g id="iconografia/marca/on/billete" stroke="none" stroke-width="1" fill="none" fill-rule="evenodd">
        <g id="Group-31" transform="translate(3.000000, 11.000000)">
            <g id="Group-3" transform="translate(2.000000, 2.812400)">
                <mask id="mask-2" fill="white">
                    <use xlink:href="#path-1"></use>
                </mask>
                <g id="Clip-2"></g>
                <path d="M16.9346,24.0001 L18.6456,24.0001 L38.1876,24.0001 C38.6586,24.0001 39.0436,23.6151 39.0436,23.1451 L39.0436,1.6871 C39.0436,1.2171 38.6586,0.8321 38.1876,0.8321 L1.7246,0.8321 C1.2546,0.8321 0.8696,1.2171 0.8696,1.6871 L0.8696,23.1451 C0.8696,23.6151 1.2546,24.0001 1.7246,24.0001 L11.6596,24.0001 L13.3706,24.0001 L16.9346,24.0001 Z" id="Fill-1" fill="#FCD603" mask="url(#mask-2)"></path>
            </g>
            <path d="M24.2695,13.3921 C24.2695,15.8451 22.2815,17.8331 19.8285,17.8331 C17.3755,17.8331 15.3865,15.8451 15.3865,13.3921 C15.3865,10.9391 17.3755,8.9511 19.8285,8.9511 C22.2815,8.9511 24.2695,10.9391 24.2695,13.3921" id="Fill-4" fill="#B5B5B5"></path>
            <path d="M16.1997,13.3921 C16.1997,11.3921 17.8277,9.7651 19.8287,9.7651 C21.8287,9.7651 23.4557,11.3921 23.4557,13.3921 C23.4557,15.3921 21.8287,17.0201 19.8287,17.0201 C17.8277,17.0201 16.1997,15.3921 16.1997,13.3921 M25.0827,13.3921 C25.0827,10.4951 22.7257,8.1381 19.8287,8.1381 C16.9307,8.1381 14.5727,10.4951 14.5727,13.3921 C14.5727,16.2891 16.9307,18.6471 19.8287,18.6471 C22.7257,18.6471 25.0827,16.2891 25.0827,13.3921" id="Fill-6" fill="#5C5C60"></path>
            <g id="Group-10" transform="translate(0.000000, 0.812400)">
                <mask id="mask-4" fill="white">
                    <use xlink:href="#path-3"></use>
                </mask>
                <g id="Clip-9"></g>
                <path d="M33.2783,23.3556 C34.4063,19.7236 37.0673,18.7736 38.2953,18.5316 L38.2953,23.3556 L33.2783,23.3556 Z M33.2493,1.8146 L38.2953,1.8146 L38.2953,6.7336 C37.0563,6.4896 34.3593,5.5256 33.2493,1.8146 L33.2493,1.8146 Z M1.7473,6.7176 L1.7473,1.8146 L6.7143,1.8146 C5.6283,5.4466 3.0193,6.4486 1.7473,6.7176 L1.7473,6.7176 Z M6.6853,23.3556 L1.7473,23.3556 L1.7473,18.5476 C3.0083,18.8146 5.5813,19.8016 6.6853,23.3556 L6.6853,23.3556 Z M39.1083,0.1876 L0.9343,0.1876 C0.4853,0.1876 0.1203,0.5516 0.1203,1.0016 L0.1203,24.1686 C0.1203,24.6186 0.4853,24.9826 0.9343,24.9826 L12.5803,24.9826 C13.0293,24.9826 13.3933,24.6186 13.3933,24.1686 C13.3933,23.7196 13.0293,23.3556 12.5803,23.3556 L8.3853,23.3556 C7.0733,18.3536 3.2853,17.1766 1.7473,16.9036 L1.7473,8.3616 C3.2923,8.0876 7.1093,6.9056 8.4043,1.8476 C8.4073,1.8356 8.4043,1.8256 8.4063,1.8146 L31.5563,1.8146 C31.5593,1.8256 31.5553,1.8356 31.5583,1.8476 C32.8753,6.9876 36.8013,8.1266 38.2953,8.3766 L38.2953,16.8886 C36.8083,17.1366 32.9113,18.2716 31.5783,23.3556 L17.8553,23.3556 C17.4063,23.3556 17.0423,23.7196 17.0423,24.1686 C17.0423,24.6186 17.4063,24.9826 17.8553,24.9826 L39.1083,24.9826 C39.5573,24.9826 39.9223,24.6186 39.9223,24.1686 L39.9223,1.0016 C39.9223,0.5516 39.5573,0.1876 39.1083,0.1876 L39.1083,0.1876 Z" id="Fill-8" fill="#5C5C60" mask="url(#mask-4)"></path>
            </g>
            <path d="M14.5073,24.5605 C14.3573,24.7105 14.2673,24.9205 14.2673,25.1305 C14.2673,25.2405 14.2973,25.3505 14.3373,25.4405 C14.3773,25.5505 14.4373,25.6305 14.5073,25.7105 C14.6573,25.8605 14.8673,25.9505 15.0873,25.9505 C15.2973,25.9505 15.5073,25.8605 15.6573,25.7105 C15.7373,25.6305 15.7973,25.5405 15.8373,25.4405 C15.8773,25.3505 15.8973,25.2405 15.8973,25.1305 C15.8973,24.9205 15.8073,24.7105 15.6573,24.5605 C15.3573,24.2505 14.8173,24.2505 14.5073,24.5605" id="Fill-11" fill="#5C5C60"></path>
            <path d="M11.4043,12.689 L6.0223,12.689 C5.5713,12.689 5.2033,13.057 5.2033,13.508 C5.2033,13.959 5.5713,14.328 6.0223,14.328 L11.4043,14.328 C11.8553,14.328 12.2243,13.959 12.2243,13.508 C12.2243,13.057 11.8553,12.689 11.4043,12.689" id="Fill-13" fill="#FEFEFF"></path>
            <path d="M33.6084,12.689 L28.2264,12.689 C27.7754,12.689 27.4074,13.057 27.4074,13.508 C27.4074,13.959 27.7754,14.328 28.2264,14.328 L33.6084,14.328 C34.0594,14.328 34.4284,13.959 34.4284,13.508 C34.4284,13.057 34.0594,12.689 33.6084,12.689" id="Fill-15" fill="#FEFEFF"></path>
        </g>
    </g>
</svg>