<?xml version="1.0" encoding="UTF-8"?>
<svg width="48px" height="48px" viewBox="0 0 48 48" version="1.1" xmlns="http://www.w3.org/2000/svg" xmlns:xlink="http://www.w3.org/1999/xlink">
    <!-- Generator: Sketch 62 (91390) - https://sketch.com -->
    <title>iconografia/marca/on/billetera</title>
    <desc>Created with Sketch.</desc>
    <defs>
        <polygon id="path-1" points="0.5312 0.3409 38.88 0.3409 38.88 26.9999 0.5312 26.9999"></polygon>
        <polygon id="path-3" points="0 33.8049 40.88 33.8049 40.88 -0.0001 0 -0.0001"></polygon>
    </defs>
    <g id="iconografia/marca/on/billetera" stroke="none" stroke-width="1" fill="none" fill-rule="evenodd">
        <g id="Page-1" transform="translate(4.000000, 7.000000)">
            <g id="Group-3" transform="translate(2.000000, 6.804900)">
                <mask id="mask-2" fill="white">
                    <use xlink:href="#path-1"></use>
                </mask>
                <g id="Clip-2"></g>
                <path d="M0.5312,19.3479 L0.5312,20.4889 L0.5312,26.4299 C0.5312,26.7429 0.7872,26.9999 1.1012,26.9999 L38.3102,26.9999 C38.6242,26.9999 38.8802,26.7429 38.8802,26.4299 L38.8802,0.9109 C38.8802,0.5979 38.6242,0.3409 38.3102,0.3409 L1.1012,0.3409 C0.7872,0.3409 0.5312,0.5979 0.5312,0.9109 L0.5312,13.6709 L0.5312,14.8109 L0.5312,19.3479 Z" id="Fill-1" fill="#FCD603" mask="url(#mask-2)"></path>
            </g>
            <path d="M38.7998,23.0059 L29.4728,23.0059 C27.5908,23.0059 26.0508,21.4659 26.0508,19.5839 L26.0508,17.2559 C26.0508,15.3739 27.5908,13.8339 29.4728,13.8339 L38.7878,13.8339" id="Fill-4" fill="#FFFFFF"></path>
            <path d="M32.9951,18.4927 C32.9951,19.5877 32.1071,20.4757 31.0131,20.4757 C29.9171,20.4757 29.0291,19.5877 29.0291,18.4927 C29.0291,17.3977 29.9171,16.5097 31.0131,16.5097 C32.1071,16.5097 32.9951,17.3977 32.9951,18.4927" id="Fill-6" fill="#B5B5B5"></path>
            <mask id="mask-4" fill="white">
                <use xlink:href="#path-3"></use>
            </mask>
            <g id="Clip-9"></g>
            <polygon id="Fill-8" fill="#B5B5B5" mask="url(#mask-4)" points="0.818 5.1859 32.514 5.1859 32.514 0.8139 0.818 0.8139"></polygon>
            <path d="M31.0127,19.6621 C30.3667,19.6621 29.8427,19.1381 29.8427,18.4931 C29.8427,17.8481 30.3667,17.3231 31.0127,17.3231 C31.6577,17.3231 32.1817,17.8481 32.1817,18.4931 C32.1817,19.1381 31.6577,19.6621 31.0127,19.6621 M31.0127,15.6961 C29.4707,15.6961 28.2157,16.9511 28.2157,18.4931 C28.2157,20.0351 29.4707,21.2891 31.0127,21.2891 C32.5547,21.2891 33.8087,20.0351 33.8087,18.4931 C33.8087,16.9511 32.5547,15.6961 31.0127,15.6961" id="Fill-10" fill="#5C5C60" mask="url(#mask-4)"></path>
            <path d="M0.2402,22.6528 C0.3902,22.8028 0.6002,22.8928 0.8202,22.8928 C1.0302,22.8928 1.2402,22.8028 1.3902,22.6528 C1.4702,22.5828 1.5302,22.4928 1.5702,22.3928 C1.6102,22.2928 1.6302,22.1828 1.6302,22.0828 C1.6302,21.8628 1.5402,21.6528 1.3902,21.5028 C1.0902,21.2028 0.5402,21.2028 0.2402,21.5028 C0.0902,21.6528 0.0002,21.8628 0.0002,22.0828 C0.0002,22.1828 0.0202,22.2928 0.0702,22.3928 C0.1102,22.4928 0.1702,22.5828 0.2402,22.6528" id="Fill-11" fill="#5C5C60" mask="url(#mask-4)"></path>
            <path d="M29.4727,22.1924 C28.0347,22.1924 26.8647,21.0224 26.8647,19.5844 L26.8647,17.2554 C26.8647,15.8174 28.0347,14.6474 29.4727,14.6474 L38.3527,14.6474 L38.3527,22.1924 L29.4727,22.1924 Z M1.6317,4.3724 L31.6997,4.3724 L31.6997,1.6274 L1.6317,1.6274 L1.6317,4.3724 Z M38.5967,4.3724 L33.3267,4.3724 L33.3267,1.3834 L33.3267,0.0004 L31.9487,0.0004 C31.9467,0.0004 31.9457,0.0004 31.9437,0.0004 L1.3877,0.0004 C1.3857,0.0004 1.3847,0.0004 1.3827,0.0004 L0.0047,0.0004 L0.0047,1.3744 C0.0047,1.3774 0.0037,1.3804 0.0037,1.3834 L0.0037,5.1854 C0.0037,5.1874 0.0047,5.1884 0.0047,5.1904 L0.0047,5.7454 C0.0047,5.7494 0.0037,5.7524 0.0037,5.7554 L0.0037,19.0854 C0.0037,19.5344 0.3687,19.8994 0.8177,19.8994 C1.2667,19.8994 1.6307,19.5344 1.6307,19.0854 L1.6307,5.9994 L33.3267,5.9994 L38.3527,5.9994 L38.3527,13.0204 L29.4727,13.0204 C27.1377,13.0204 25.2377,14.9204 25.2377,17.2554 L25.2377,19.5844 C25.2377,21.9194 27.1377,23.8194 29.4727,23.8194 L38.3527,23.8194 L38.3527,31.0314 L1.6307,31.0314 L1.6307,24.7624 C1.6307,24.3134 1.2667,23.9494 0.8177,23.9494 C0.3687,23.9494 0.0037,24.3134 0.0037,24.7624 L0.0037,31.2744 C0.0037,32.0374 0.6247,32.6584 1.3877,32.6584 L38.5967,32.6584 C39.3597,32.6584 39.9797,32.0374 39.9797,31.2744 L39.9797,5.7554 C39.9797,4.9924 39.3597,4.3724 38.5967,4.3724 L38.5967,4.3724 Z" id="Fill-12" fill="#5C5C60" mask="url(#mask-4)"></path>
        </g>
    </g>
</svg>