<?xml version="1.0" encoding="UTF-8"?>
<svg width="48px" height="48px" viewBox="0 0 48 48" version="1.1" xmlns="http://www.w3.org/2000/svg" xmlns:xlink="http://www.w3.org/1999/xlink">
    <!-- Generator: Sketch 62 (91390) - https://sketch.com -->
    <title>iconografia/marca/off/billete</title>
    <desc>Created with Sketch.</desc>
    <defs>
        <polygon id="path-1" points="0 0.188 39.8007 0.188 39.8007 24.9826 0 24.9826"></polygon>
    </defs>
    <g id="iconografia/marca/off/billete" stroke="none" stroke-width="1" fill="none" fill-rule="evenodd">
        <g id="Group-32" transform="translate(4.000000, 11.000000)">
            <path d="M16.0791,13.3921 C16.0791,11.3921 17.7061,9.7651 19.7061,9.7651 C21.7061,9.7651 23.3341,11.3921 23.3341,13.3921 C23.3341,15.3921 21.7061,17.0201 19.7061,17.0201 C17.7061,17.0201 16.0791,15.3921 16.0791,13.3921 M24.9611,13.3921 C24.9611,10.4951 22.6041,8.1381 19.7061,8.1381 C16.8091,8.1381 14.4521,10.4951 14.4521,13.3921 C14.4521,16.2891 16.8091,18.6471 19.7061,18.6471 C22.6041,18.6471 24.9611,16.2891 24.9611,13.3921" id="Fill-17" fill="#5C5C60"></path>
            <g id="Group-21" transform="translate(0.000000, 0.812400)">
                <mask id="mask-2" fill="white">
                    <use xlink:href="#path-1"></use>
                </mask>
                <g id="Clip-20"></g>
                <path d="M33.1567,23.3556 C34.2847,19.7236 36.9467,18.7736 38.1737,18.5316 L38.1737,23.3556 L33.1567,23.3556 Z M33.1277,1.8146 L38.1737,1.8146 L38.1737,6.7336 C36.9357,6.4896 34.2377,5.5256 33.1277,1.8146 L33.1277,1.8146 Z M1.6267,6.7176 L1.6267,1.8146 L6.5927,1.8146 C5.5057,5.4456 2.8997,6.4476 1.6267,6.7176 L1.6267,6.7176 Z M6.5627,23.3556 L1.6267,23.3556 L1.6267,18.5506 C2.8857,18.8266 5.4647,19.8286 6.5627,23.3556 L6.5627,23.3556 Z M38.9877,0.1876 L0.8137,0.1876 C0.3647,0.1876 -0.0003,0.5516 -0.0003,1.0016 L-0.0003,24.1686 C-0.0003,24.6186 0.3647,24.9826 0.8137,24.9826 L12.4587,24.9826 C12.9077,24.9826 13.2717,24.6186 13.2717,24.1686 C13.2717,23.7196 12.9077,23.3556 12.4587,23.3556 L8.2627,23.3556 C6.9517,18.3546 3.1657,17.1776 1.6267,16.9036 L1.6267,8.3616 C3.1727,8.0866 6.9877,6.9046 8.2827,1.8476 C8.2857,1.8356 8.2817,1.8256 8.2837,1.8146 L31.4357,1.8146 C31.4377,1.8256 31.4337,1.8356 31.4367,1.8476 C32.7537,6.9886 36.6807,8.1276 38.1737,8.3766 L38.1737,16.8886 C36.6877,17.1366 32.7897,18.2706 31.4567,23.3556 L17.7337,23.3556 C17.2837,23.3556 16.9197,23.7196 16.9197,24.1686 C16.9197,24.6186 17.2837,24.9826 17.7337,24.9826 L38.9877,24.9826 C39.4367,24.9826 39.8007,24.6186 39.8007,24.1686 L39.8007,1.0016 C39.8007,0.5516 39.4367,0.1876 38.9877,0.1876 L38.9877,0.1876 Z" id="Fill-19" fill="#5C5C60" mask="url(#mask-2)"></path>
            </g>
            <path d="M14.3872,24.5605 C14.2372,24.7105 14.1472,24.9205 14.1472,25.1305 C14.1472,25.2405 14.1672,25.3505 14.2072,25.4405 C14.2572,25.5405 14.3072,25.6305 14.3872,25.7105 C14.5372,25.8605 14.7472,25.9505 14.9672,25.9505 C15.1772,25.9505 15.3872,25.8605 15.5372,25.7105 C15.6172,25.6305 15.6772,25.5405 15.7172,25.4405 C15.7572,25.3505 15.7772,25.2405 15.7772,25.1305 C15.7772,24.9205 15.6872,24.7105 15.5372,24.5605 C15.2372,24.2505 14.6872,24.2505 14.3872,24.5605" id="Fill-22" fill="#5C5C60"></path>
            <path d="M5.9004,12.689 C5.4494,12.689 5.0814,13.057 5.0814,13.508 C5.0814,13.959 5.4494,14.328 5.9004,14.328 L11.2824,14.328 C11.7334,14.328 12.1024,13.959 12.1024,13.508 C12.1024,13.057 11.7334,12.689 11.2824,12.689 L5.9004,12.689 Z" id="Fill-24" fill="#5C5C60"></path>
            <path d="M33.4863,14.3281 C33.9373,14.3281 34.3063,13.9591 34.3063,13.5081 C34.3063,13.0571 33.9373,12.6891 33.4863,12.6891 L28.1043,12.6891 C27.6533,12.6891 27.2853,13.0571 27.2853,13.5081 C27.2853,13.9591 27.6533,14.3281 28.1043,14.3281 L33.4863,14.3281 Z" id="Fill-26" fill="#5C5C60"></path>
        </g>
    </g>
</svg>