<?xml version="1.0" encoding="UTF-8"?>
<svg width="48px" height="48px" viewBox="0 0 48 48" version="1.1" xmlns="http://www.w3.org/2000/svg" xmlns:xlink="http://www.w3.org/1999/xlink">
    <!-- Generator: Sketch 62 (91390) - https://sketch.com -->
    <title>iconografia/marca/off/billetera</title>
    <desc>Created with Sketch.</desc>
    <defs>
        <polygon id="path-1" points="0 0.3422 39.9768 0.3422 39.9768 33 0 33"></polygon>
        <polygon id="path-3" points="0 0.60707595 1.6295 0.60707595 1.6295 2.2349 0 2.2349"></polygon>
    </defs>
    <g id="iconografia/marca/off/billetera" stroke="none" stroke-width="1" fill="none" fill-rule="evenodd">
        <g id="Page-1" transform="translate(4.000000, 9.000000)">
            <g id="Group-3" transform="translate(0.000000, 0.658200)">
                <mask id="mask-2" fill="white">
                    <use xlink:href="#path-1"></use>
                </mask>
                <g id="Clip-2"></g>
                <path d="M29.4688,22.5342 C28.0308,22.5342 26.8608,21.3642 26.8608,19.9262 L26.8608,17.5972 C26.8608,16.1592 28.0308,14.9892 29.4688,14.9892 L38.3498,14.9892 L38.3498,22.5342 L29.4688,22.5342 Z M1.6278,4.7142 L31.6968,4.7142 L31.6968,1.9692 L1.6278,1.9692 L1.6278,4.7142 Z M38.5928,4.7142 L33.3228,4.7142 L33.3228,1.7252 C33.3228,0.9622 32.7018,0.3422 31.9398,0.3422 L1.3838,0.3422 C0.6208,0.3422 -0.0002,0.9622 -0.0002,1.7252 L-0.0002,5.5272 C-0.0002,5.6092 0.0248,5.6842 0.0468,5.7592 C0.0198,5.8672 -0.0002,5.9802 -0.0002,6.0972 L-0.0002,19.4272 C-0.0002,19.8762 0.3648,20.2412 0.8138,20.2412 C1.2628,20.2412 1.6268,19.8762 1.6268,19.4272 L1.6268,6.3412 L38.3498,6.3412 L38.3498,13.3622 L29.4688,13.3622 C27.1338,13.3622 25.2338,15.2622 25.2338,17.5972 L25.2338,19.9262 C25.2338,22.2612 27.1338,24.1612 29.4688,24.1612 L38.3498,24.1612 L38.3498,31.3732 L1.6268,31.3732 L1.6268,25.1042 C1.6268,24.6552 1.2628,24.2912 0.8138,24.2912 C0.3648,24.2912 -0.0002,24.6552 -0.0002,25.1042 L-0.0002,31.6162 C-0.0002,32.3792 0.6208,33.0002 1.3838,33.0002 L38.5928,33.0002 C39.3558,33.0002 39.9768,32.3792 39.9768,31.6162 L39.9768,6.0972 C39.9768,5.3342 39.3558,4.7142 38.5928,4.7142 L38.5928,4.7142 Z" id="Fill-1" fill="#58595B" mask="url(#mask-2)"></path>
            </g>
            <path d="M31.0078,20.6621 C30.3628,20.6621 29.8388,20.1381 29.8388,19.4931 C29.8388,18.8481 30.3628,18.3231 31.0078,18.3231 C31.6538,18.3231 32.1778,18.8481 32.1778,19.4931 C32.1778,20.1381 31.6538,20.6621 31.0078,20.6621 M31.0078,16.6961 C29.4658,16.6961 28.2118,17.9511 28.2118,19.4931 C28.2118,21.0351 29.4658,22.2891 31.0078,22.2891 C32.5498,22.2891 33.8048,21.0351 33.8048,19.4931 C33.8048,17.9511 32.5498,16.6961 31.0078,16.6961" id="Fill-4" fill="#58595B"></path>
            <g id="Group-8" transform="translate(0.000000, 21.658200)">
                <mask id="mask-4" fill="white">
                    <use xlink:href="#path-3"></use>
                </mask>
                <g id="Clip-7"></g>
                <path d="M0.8105,2.2349 C0.9195,2.2349 1.0205,2.2149 1.1205,2.1749 C1.2195,2.1349 1.3105,2.0749 1.3895,1.9949 C1.5395,1.8449 1.6295,1.6349 1.6295,1.4249 C1.6295,1.3149 1.6105,1.2049 1.5605,1.1149 C1.5205,1.0149 1.4595,0.9249 1.3895,0.8449 C1.3105,0.7749 1.2195,0.7149 1.1205,0.6649 C0.8205,0.5449 0.4695,0.6149 0.2405,0.8449 C0.1605,0.9249 0.1005,1.0149 0.0605,1.1149 C0.0205,1.2049 -0.0005,1.3149 -0.0005,1.4249 C-0.0005,1.6349 0.0895,1.8449 0.2405,1.9949 C0.3895,2.1449 0.6005,2.2349 0.8105,2.2349" id="Fill-6" fill="#58595B" mask="url(#mask-4)"></path>
            </g>
        </g>
    </g>
</svg>