<?xml version="1.0" encoding="UTF-8"?>
<svg width="48px" height="48px" viewBox="0 0 48 48" version="1.1" xmlns="http://www.w3.org/2000/svg" xmlns:xlink="http://www.w3.org/1999/xlink">
    <!-- Generator: Sketch 62 (91390) - https://sketch.com -->
    <title>iconografia/marca/off/bombilla</title>
    <desc>Created with Sketch.</desc>
    <g id="iconografia/marca/off/bombilla" stroke="none" stroke-width="1" fill="none" fill-rule="evenodd">
        <g id="Group-14" transform="translate(11.000000, 3.000000)" fill="#5C5C60">
            <path d="M5.2815,21.9128 C5.2815,21.8028 5.2615,21.6928 5.2215,21.5928 C5.1815,21.4928 5.1215,21.4028 5.0425,21.3328 C4.8115,21.1028 4.4625,21.0328 4.1615,21.1528 C4.0615,21.1928 3.9715,21.2528 3.8915,21.3328 C3.8215,21.4028 3.7615,21.4928 3.7215,21.5928 C3.6815,21.6928 3.6515,21.8028 3.6515,21.9128 C3.6515,22.1228 3.7415,22.3328 3.8915,22.4828 C3.9715,22.5628 4.0615,22.6128 4.1615,22.6628 C4.2615,22.7028 4.3615,22.7228 4.4715,22.7228 C4.6815,22.7228 4.8915,22.6328 5.0425,22.4828 C5.1915,22.3328 5.2815,22.1228 5.2815,21.9128" id="Fill-10"></path>
            <path d="M7.4094,28.0393 C7.5314,28.0393 7.6564,28.0113 7.7734,27.9533 C8.1754,27.7503 8.3374,27.2623 8.1354,26.8603 L7.4014,25.4013 C7.0824,24.7653 6.7474,24.1383 6.3994,23.5173 C6.1804,23.1253 5.6834,22.9853 5.2924,23.2053 C4.9004,23.4243 4.7604,23.9203 4.9794,24.3123 C5.3154,24.9123 5.6384,25.5183 5.9484,26.1323 L6.6814,27.5913 C6.8244,27.8753 7.1114,28.0393 7.4094,28.0393" id="Fill-12"></path>
            <path d="M21.7112,3.7126 C16.7602,-1.2374 8.7022,-1.2374 3.7512,3.7126 C-0.4948,7.9596 -1.1788,14.6736 2.1252,19.6806 L2.5562,20.3356 C2.7992,20.7106 3.3032,20.8196 3.6812,20.5736 C4.0582,20.3286 4.1642,19.8246 3.9192,19.4486 L3.4822,18.7826 C0.6032,14.4196 1.1992,8.5656 4.9012,4.8626 C9.2202,0.5476 16.2442,0.5476 20.5612,4.8626 C24.2632,8.5656 24.8592,14.4196 21.9802,18.7826 C20.8122,20.5526 19.3082,22.9086 18.0282,25.4396 L17.3112,26.8586 C17.1072,27.2596 17.2682,27.7486 17.6692,27.9516 C17.7872,28.0116 17.9122,28.0396 18.0352,28.0396 C18.3332,28.0396 18.6192,27.8766 18.7622,27.5926 L19.4802,26.1736 C20.7222,23.7166 22.1932,21.4126 23.3372,19.6796 C26.6412,14.6736 25.9572,7.9596 21.7112,3.7126" id="Fill-14"></path>
            <path d="M17.9153,29.0505 L7.3523,30.3295 C6.9053,30.3835 6.5883,30.7895 6.6423,31.2355 C6.6913,31.6485 7.0433,31.9505 7.4483,31.9505 C7.4803,31.9505 7.5143,31.9485 7.5473,31.9455 L18.1103,30.6655 C18.5573,30.6115 18.8743,30.2065 18.8203,29.7605 C18.7673,29.3155 18.3683,29.0015 17.9153,29.0505" id="Fill-16"></path>
            <path d="M17.9153,33.0124 L7.3523,34.2914 C6.9053,34.3454 6.5883,34.7504 6.6423,35.1964 C6.6913,35.6094 7.0433,35.9124 7.4483,35.9124 C7.4803,35.9124 7.5143,35.9104 7.5473,35.9064 L18.1103,34.6274 C18.5573,34.5734 18.8743,34.1684 18.8203,33.7224 C18.7673,33.2764 18.3683,32.9594 17.9153,33.0124" id="Fill-18"></path>
            <path d="M15.342,36.968 C14.893,36.968 14.529,37.332 14.529,37.781 C14.529,38.789 13.708,39.609 12.7,39.609 C11.693,39.609 10.873,38.789 10.873,37.781 C10.873,37.332 10.509,36.968 10.06,36.968 C9.611,36.968 9.246,37.332 9.246,37.781 C9.246,39.686 10.796,41.236 12.7,41.236 C14.606,41.236 16.155,39.686 16.155,37.781 C16.155,37.332 15.791,36.968 15.342,36.968" id="Fill-20"></path>
            <path d="M6.9426,12.6911 C6.9426,9.4991 9.5396,6.9011 12.7316,6.9011 C13.1806,6.9011 13.5456,6.5371 13.5456,6.0881 C13.5456,5.6391 13.1806,5.2741 12.7316,5.2741 C8.6426,5.2741 5.3156,8.6021 5.3156,12.6911 C5.3156,13.1401 5.6796,13.5041 6.1296,13.5041 C6.5786,13.5041 6.9426,13.1401 6.9426,12.6911" id="Fill-22"></path>
        </g>
    </g>
</svg>