<?xml version="1.0" encoding="UTF-8"?>
<svg width="48px" height="48px" viewBox="0 0 48 48" version="1.1" xmlns="http://www.w3.org/2000/svg" xmlns:xlink="http://www.w3.org/1999/xlink">
    <!-- Generator: Sketch 62 (91390) - https://sketch.com -->
    <title>iconografia/marca/on/bombilla</title>
    <desc>Created with Sketch.</desc>
    <g id="iconografia/marca/on/bombilla" stroke="none" stroke-width="1" fill="none" fill-rule="evenodd">
        <g id="Group-20" transform="translate(11.000000, 3.000000)">
            <path d="M10.4182,37.0808 C10.0572,37.0808 9.7812,37.4098 9.8472,37.7668 C10.1512,39.4238 11.4932,41.1228 13.1062,41.1228 C14.7862,41.1228 16.1742,39.2768 16.3992,37.5558 C16.4332,37.3028 16.2292,37.0808 15.9742,37.0808 L10.4182,37.0808 Z" id="Fill-24" fill="#B5B5B5"></path>
            <path d="M19.5481,29.1745 L9.4461,30.1805 L8.1861,27.7155 C7.0481,25.4505 5.7121,23.2945 4.3151,21.1795 C1.2701,16.5665 1.7771,10.2975 5.8381,6.2365 C10.4811,1.5945 18.0051,1.5955 22.6471,6.2365 C26.7071,10.2965 27.2161,16.5655 24.1701,21.1795 C22.7641,23.3095 21.4171,25.4775 20.2651,27.7555 L19.5481,29.1745" id="Fill-26" fill="#FCD603"></path>
            <path d="M5.3117,21.9025 C5.3117,21.6925 5.2217,21.4825 5.0717,21.3325 C4.7617,21.0225 4.2217,21.0325 3.9217,21.3325 C3.7717,21.4825 3.6817,21.6925 3.6817,21.9025 C3.6817,22.1225 3.7717,22.3325 3.9217,22.4825 C4.0717,22.6325 4.2817,22.7225 4.4917,22.7225 C4.7117,22.7225 4.9217,22.6325 5.0717,22.4825 C5.2217,22.3325 5.3117,22.1225 5.3117,21.9025" id="Fill-28" fill="#5C5C60"></path>
            <path d="M7.4348,28.0393 C7.5568,28.0393 7.6818,28.0113 7.7988,27.9533 C8.2008,27.7513 8.3628,27.2623 8.1608,26.8613 L7.4278,25.4013 C7.1088,24.7663 6.7728,24.1393 6.4258,23.5183 C6.2078,23.1253 5.7098,22.9853 5.3198,23.2043 C4.9268,23.4233 4.7868,23.9193 5.0058,24.3113 C5.3408,24.9113 5.6648,25.5183 5.9748,26.1313 L6.7068,27.5903 C6.8498,27.8753 7.1368,28.0393 7.4348,28.0393" id="Fill-30" fill="#5C5C60"></path>
            <path d="M21.7375,3.7126 C16.7865,-1.2374 8.7285,-1.2374 3.7775,3.7126 C-0.4685,7.9596 -1.1525,14.6736 2.1515,19.6806 L2.5825,20.3356 C2.8255,20.7106 3.3305,20.8196 3.7075,20.5736 C4.0845,20.3286 4.1905,19.8246 3.9455,19.4486 L3.5085,18.7826 C0.6295,14.4196 1.2255,8.5656 4.9275,4.8626 C9.2465,0.5476 16.2705,0.5476 20.5875,4.8626 C24.2895,8.5656 24.8855,14.4196 22.0065,18.7826 C20.8415,20.5466 19.3405,22.8976 18.0525,25.4406 L17.3365,26.8586 C17.1335,27.2596 17.2955,27.7496 17.6955,27.9516 C17.8135,28.0116 17.9385,28.0396 18.0615,28.0396 C18.3595,28.0396 18.6455,27.8766 18.7895,27.5926 L19.5055,26.1736 C20.7545,23.7056 22.2225,21.4066 23.3635,19.6796 C26.6675,14.6736 25.9835,7.9596 21.7375,3.7126" id="Fill-32" fill="#5C5C60"></path>
            <path d="M17.9416,29.0505 L7.3786,30.3295 C6.9316,30.3835 6.6146,30.7895 6.6686,31.2355 C6.7176,31.6485 7.0696,31.9505 7.4746,31.9505 C7.5066,31.9505 7.5406,31.9485 7.5736,31.9455 L18.1366,30.6655 C18.5836,30.6115 18.9006,30.2065 18.8466,29.7605 C18.7936,29.3155 18.3916,29.0015 17.9416,29.0505" id="Fill-34" fill="#5C5C60"></path>
            <path d="M17.9416,33.0124 L7.3786,34.2914 C6.9316,34.3454 6.6146,34.7504 6.6686,35.1964 C6.7176,35.6094 7.0696,35.9124 7.4746,35.9124 C7.5066,35.9124 7.5406,35.9104 7.5736,35.9064 L18.1366,34.6274 C18.5836,34.5734 18.9006,34.1684 18.8466,33.7224 C18.7936,33.2764 18.3916,32.9594 17.9416,33.0124" id="Fill-36" fill="#5C5C60"></path>
            <path d="M15.3674,36.968 C14.9184,36.968 14.5544,37.332 14.5544,37.781 C14.5544,38.789 13.7344,39.609 12.7264,39.609 C11.7194,39.609 10.8984,38.789 10.8984,37.781 C10.8984,37.332 10.5344,36.968 10.0854,36.968 C9.6364,36.968 9.2714,37.332 9.2714,37.781 C9.2714,39.686 10.8214,41.236 12.7264,41.236 C14.6314,41.236 16.1804,39.686 16.1804,37.781 C16.1804,37.332 15.8164,36.968 15.3674,36.968" id="Fill-38" fill="#5C5C60"></path>
            <path d="M6.968,12.6911 C6.968,9.4991 9.566,6.9011 12.758,6.9011 C13.207,6.9011 13.572,6.5371 13.572,6.0881 C13.572,5.6391 13.207,5.2741 12.758,5.2741 C8.668,5.2741 5.341,8.6021 5.341,12.6911 C5.341,13.1401 5.705,13.5041 6.155,13.5041 C6.604,13.5041 6.968,13.1401 6.968,12.6911" id="Fill-40" fill="#5C5C60"></path>
            <path d="M6.1545,13.5046 C5.7055,13.5046 5.3415,13.1406 5.3415,12.6916 C5.3415,8.6016 8.6685,5.2746 12.7585,5.2746 C13.2075,5.2746 13.5715,5.6386 13.5715,6.0876 C13.5715,6.5376 13.2075,6.9016 12.7585,6.9016 C9.5655,6.9016 6.9675,9.4986 6.9675,12.6916 C6.9675,13.1406 6.6035,13.5046 6.1545,13.5046" id="Fill-42" fill="#FEFEFF"></path>
        </g>
    </g>
</svg>