<?xml version="1.0" encoding="UTF-8"?>
<svg width="48px" height="48px" viewBox="0 0 48 48" version="1.1" xmlns="http://www.w3.org/2000/svg" xmlns:xlink="http://www.w3.org/1999/xlink">
    <!-- Generator: Sketch 62 (91390) - https://sketch.com -->
    <title>iconografia/marca/on/busqueda</title>
    <desc>Created with Sketch.</desc>
    <g id="iconografia/marca/on/busqueda" stroke="none" stroke-width="1" fill="none" fill-rule="evenodd">
        <g id="Group-2" transform="translate(3.000000, 4.000000)">
            <path d="M4.0117,24.5678 C3.0867,22.5668 2.5707,20.3378 2.5707,17.9888 C2.5707,9.3178 9.5977,2.2918 18.2677,2.2918 C26.9367,2.2918 33.9637,9.3178 33.9637,17.9888 C33.9637,26.6578 26.9367,33.6848 18.2677,33.6848 C13.7707,33.6848 9.7167,31.7948 6.8547,28.7658" id="Fill-1" fill="#FCD603"></path>
            <path d="M28.2559,31.708 L36.6369,39.291 C37.6559,40.31 39.3169,40.31 40.3359,39.291 C41.3569,38.269 41.3569,36.608 40.3359,35.589 L32.1799,27.784" id="Fill-3" fill="#B5B5B5"></path>
            <path d="M3.9551,24.6367 C3.6451,24.5067 3.2951,24.5867 3.0651,24.8067 C2.9851,24.8867 2.9251,24.9767 2.8851,25.0767 C2.8451,25.1767 2.8251,25.2767 2.8251,25.3867 C2.8251,25.4967 2.8451,25.5967 2.8851,25.6967 C2.9251,25.7967 2.9851,25.8867 3.0651,25.9567 C3.2151,26.1167 3.4251,26.1967 3.6451,26.1967 C3.7451,26.1967 3.8551,26.1767 3.9551,26.1367 C4.0451,26.0967 4.1451,26.0367 4.2151,25.9567 C4.3651,25.8067 4.4551,25.5967 4.4551,25.3867 C4.4551,25.1767 4.3651,24.9667 4.2151,24.8067 C4.1451,24.7367 4.0451,24.6767 3.9551,24.6367" id="Fill-14" fill="#5C5C60"></path>
            <path d="M33.2109,16.5107 C33.2109,7.4067 25.8049,-0.0003 16.7019,-0.0003 C7.5979,-0.0003 0.1909,7.4067 0.1909,16.5107 C0.1909,18.9277 0.7019,21.2557 1.7079,23.4307 C1.8959,23.8387 2.3789,24.0157 2.7869,23.8277 C3.1949,23.6387 3.3729,23.1557 3.1839,22.7477 C2.2779,20.7877 1.8179,18.6897 1.8179,16.5107 C1.8179,8.3037 8.4949,1.6267 16.7019,1.6267 C24.9079,1.6267 31.5839,8.3037 31.5839,16.5107 C31.5839,24.7167 24.9079,31.3927 16.7019,31.3927 C12.5649,31.3927 8.7219,29.7367 5.8799,26.7287 C5.5709,26.4027 5.0569,26.3877 4.7299,26.6967 C4.4029,27.0047 4.3889,27.5197 4.6969,27.8457 C7.8499,31.1827 12.1129,33.0197 16.7019,33.0197 C25.8049,33.0197 33.2109,25.6137 33.2109,16.5107" id="Fill-16" fill="#5C5C60"></path>
            <path d="M40.0645,35.0224 L32.9815,27.7164 C32.6685,27.3934 32.1545,27.3854 31.8315,27.6984 C31.5085,28.0114 31.5005,28.5264 31.8135,28.8494 L38.9055,36.1644 C39.2455,36.5034 39.4325,36.9564 39.4325,37.4394 C39.4325,37.9214 39.2455,38.3754 38.9045,38.7154 C38.2275,39.3964 37.0445,39.4044 36.3485,38.7074 L29.0405,31.6234 C28.7175,31.3104 28.2015,31.3174 27.8895,31.6404 C27.5765,31.9634 27.5855,32.4784 27.9075,32.7914 L35.2065,39.8664 C35.8525,40.5134 36.7135,40.8694 37.6315,40.8694 C38.5485,40.8694 39.4095,40.5134 40.0565,39.8664 C40.7035,39.2184 41.0595,38.3564 41.0595,37.4394 C41.0595,36.5224 40.7035,35.6604 40.0645,35.0224" id="Fill-18" fill="#5C5C60"></path>
            <path d="M10.2324,23.7949 C10.0244,23.7949 9.8154,23.7149 9.6574,23.5569 C5.7714,19.6719 5.7704,13.3479 9.6574,9.4589 C9.9744,9.1409 10.4884,9.1399 10.8074,9.4589 C11.1254,9.7759 11.1254,10.2909 10.8074,10.6089 C7.5554,13.8629 7.5554,19.1549 10.8074,22.4059 C11.1254,22.7239 11.1254,23.2389 10.8074,23.5569 C10.6494,23.7149 10.4404,23.7949 10.2324,23.7949" id="Fill-20" fill="#FBFBFD"></path>
        </g>
    </g>
</svg>