<?xml version="1.0" encoding="UTF-8"?>
<svg width="48px" height="48px" viewBox="0 0 48 48" version="1.1" xmlns="http://www.w3.org/2000/svg" xmlns:xlink="http://www.w3.org/1999/xlink">
    <!-- Generator: Sketch 62 (91390) - https://sketch.com -->
    <title>iconografia/marca/off/busqueda</title>
    <desc>Created with Sketch.</desc>
    <defs>
        <polygon id="path-1" points="0 0.1304 33.0197 0.1304 33.0197 33.1504 0 33.1504"></polygon>
    </defs>
    <g id="iconografia/marca/off/busqueda" stroke="none" stroke-width="1" fill="none" fill-rule="evenodd">
        <g id="Group-4" transform="translate(4.000000, 3.000000)">
            <path d="M3.4453,27.1967 C3.2353,27.1967 3.0253,27.1167 2.8753,26.9667 C2.7253,26.8067 2.6353,26.5967 2.6353,26.3867 C2.6353,26.1767 2.7253,25.9667 2.8753,25.8067 C3.0953,25.5867 3.4653,25.5067 3.7653,25.6367 C3.8653,25.6767 3.9453,25.7367 4.0253,25.8067 C4.0953,25.8867 4.1553,25.9767 4.2053,26.0767 C4.2453,26.1767 4.2653,26.2767 4.2653,26.3867 C4.2653,26.6067 4.1753,26.8067 4.0253,26.9667 C3.8753,27.1167 3.6653,27.1967 3.4453,27.1967" id="Fill-5" fill="#5C5C60"></path>
            <g id="Group-9" transform="translate(0.000000, 0.869600)">
                <mask id="mask-2" fill="white">
                    <use xlink:href="#path-1"></use>
                </mask>
                <g id="Clip-8"></g>
                <path d="M16.5107,33.1504 C11.9217,33.1504 7.6587,31.3134 4.5067,27.9764 C4.1977,27.6504 4.2127,27.1354 4.5387,26.8264 C4.8657,26.5184 5.3807,26.5334 5.6887,26.8594 C8.5307,29.8674 12.3737,31.5234 16.5107,31.5234 C24.7167,31.5234 31.3927,24.8474 31.3927,16.6414 C31.3927,8.4344 24.7167,1.7574 16.5107,1.7574 C8.3037,1.7574 1.6267,8.4344 1.6267,16.6414 C1.6267,18.8194 2.0867,20.9184 2.9927,22.8784 C3.1817,23.2864 3.0037,23.7694 2.5957,23.9584 C2.1887,24.1464 1.7047,23.9684 1.5167,23.5614 C0.5107,21.3854 -0.0003,19.0564 -0.0003,16.6414 C-0.0003,7.5374 7.4067,0.1304 16.5107,0.1304 C25.6137,0.1304 33.0197,7.5374 33.0197,16.6414 C33.0197,25.7444 25.6137,33.1504 16.5107,33.1504" id="Fill-7" fill="#5C5C60" mask="url(#mask-2)"></path>
            </g>
            <path d="M37.4399,41.8696 C36.5229,41.8696 35.6609,41.5136 35.0149,40.8666 L27.7159,33.7906 C27.3939,33.4786 27.3859,32.9636 27.6989,32.6406 C28.0099,32.3176 28.5259,32.3106 28.8489,32.6226 L36.1569,39.7066 C36.8529,40.4046 38.0359,40.3956 38.7139,39.7156 C39.0539,39.3756 39.2419,38.9216 39.2419,38.4386 C39.2419,37.9566 39.0549,37.5036 38.7139,37.1646 L31.6229,29.8486 C31.3099,29.5266 31.3179,29.0116 31.6399,28.6986 C31.9629,28.3856 32.4779,28.3936 32.7909,28.7166 L39.8739,36.0226 C40.5119,36.6606 40.8689,37.5216 40.8689,38.4386 C40.8689,39.3566 40.5119,40.2186 39.8649,40.8666 C39.2189,41.5136 38.3569,41.8696 37.4399,41.8696" id="Fill-10" fill="#5C5C60"></path>
            <path d="M10.0415,24.7949 C9.8335,24.7949 9.6245,24.7149 9.4665,24.5569 C5.5805,20.6719 5.5795,14.3479 9.4665,10.4589 C9.7835,10.1409 10.2975,10.1399 10.6165,10.4589 C10.9345,10.7759 10.9345,11.2909 10.6165,11.6089 C7.3645,14.8629 7.3645,20.1549 10.6165,23.4059 C10.9345,23.7239 10.9345,24.2389 10.6165,24.5569 C10.4585,24.7149 10.2495,24.7949 10.0415,24.7949" id="Fill-12" fill="#5C5C60"></path>
        </g>
    </g>
</svg>