<?xml version="1.0" encoding="UTF-8"?>
<svg width="48px" height="48px" viewBox="0 0 48 48" version="1.1" xmlns="http://www.w3.org/2000/svg" xmlns:xlink="http://www.w3.org/1999/xlink">
    <!-- Generator: Sketch 62 (91390) - https://sketch.com -->
    <title>iconografia/marca/off/cajero</title>
    <desc>Created with Sketch.</desc>
    <g id="iconografia/marca/off/cajero" stroke="none" stroke-width="1" fill="none" fill-rule="evenodd">
        <g id="atm" transform="translate(8.000000, 4.000000)" fill="#5C5C60" fill-rule="nonzero">
            <polygon id="Rectangle-path" points="10.0392157 27.8795181 10.9803922 27.8795181 10.9803922 28.8192771 10.0392157 28.8192771"></polygon>
            <polygon id="Rectangle-path" points="10.0392157 29.7590361 10.9803922 29.7590361 10.9803922 30.6987952 10.0392157 30.6987952"></polygon>
            <polygon id="Rectangle-path" points="10.0392157 31.6385542 10.9803922 31.6385542 10.9803922 32.5783133 10.0392157 32.5783133"></polygon>
            <polygon id="Rectangle-path" points="11.9215686 27.8795181 12.8627451 27.8795181 12.8627451 28.8192771 11.9215686 28.8192771"></polygon>
            <polygon id="Rectangle-path" points="11.9215686 29.7590361 12.8627451 29.7590361 12.8627451 30.6987952 11.9215686 30.6987952"></polygon>
            <polygon id="Rectangle-path" points="11.9215686 31.6385542 12.8627451 31.6385542 12.8627451 32.5783133 11.9215686 32.5783133"></polygon>
            <polygon id="Rectangle-path" points="13.4901961 27.8795181 14.4313725 27.8795181 14.4313725 28.8192771 13.4901961 28.8192771"></polygon>
            <polygon id="Rectangle-path" points="13.4901961 29.7590361 14.4313725 29.7590361 14.4313725 30.6987952 13.4901961 30.6987952"></polygon>
            <polygon id="Rectangle-path" points="13.4901961 31.6385542 14.4313725 31.6385542 14.4313725 32.5783133 13.4901961 32.5783133"></polygon>
            <polygon id="Rectangle-path" points="15.0588235 27.8795181 16 27.8795181 16 28.8192771 15.0588235 28.8192771"></polygon>
            <polygon id="Rectangle-path" points="15.0588235 29.7590361 16 29.7590361 16 30.6987952 15.0588235 30.6987952"></polygon>
            <polygon id="Rectangle-path" points="15.0588235 31.6385542 16 31.6385542 16 32.5783133 15.0588235 32.5783133"></polygon>
            <path d="M19.0085167,16.9156627 L12.9914833,16.9156627 C12.5737692,16.9156627 12.2352941,17.2663019 12.2352941,17.6987952 C12.2352941,18.1312885 12.5737692,18.4819277 12.9914833,18.4819277 L19.0085167,18.4819277 C19.4261302,18.4819277 19.7647059,18.1312885 19.7647059,17.6987952 C19.7648064,17.2663019 19.4262308,16.9156627 19.0085167,16.9156627 Z" id="Shape"></path>
            <path d="M19.0085167,19.4216867 L12.9914833,19.4216867 C12.5737692,19.4216867 12.2352941,19.772326 12.2352941,20.2048193 C12.2352941,20.6373125 12.5737692,20.9879518 12.9914833,20.9879518 L19.0085167,20.9879518 C19.4261302,20.9879518 19.7647059,20.6373125 19.7647059,20.2048193 C19.7647059,19.772326 19.4262308,19.4216867 19.0085167,19.4216867 Z" id="Shape"></path>
            <path d="M29.9805985,15.0361446 C29.5582377,15.0361446 29.2159973,15.3790324 29.2159973,15.8019647 L29.2159973,38.4683598 L9.86264038,38.4683598 C9.44027958,38.4683598 9.09803922,38.8112476 9.09803922,39.2341799 C9.09803922,39.6571122 9.44027958,40 9.86264038,40 L29.4707966,40 C30.1734772,40 30.745098,39.427468 30.745098,38.7236671 L30.745098,15.8019647 C30.745098,15.3790324 30.4029593,15.0361446 29.9805985,15.0361446 Z" id="Shape"></path>
            <path d="M30.7165225,0 L1.28337509,0 C0.575690958,0 0,0.57098549 0,1.2728853 L0,4.46845404 C0,5.1007834 0.467761703,5.6254563 1.07785895,5.7234643 L1.07785895,38.7271147 C1.07785895,39.4290145 1.65354991,40 2.36123404,40 L4.65457711,40 C5.07994534,40 5.42462264,39.6580384 5.42462264,39.2362485 C5.42462264,38.8144586 5.07994534,38.472497 4.65457711,38.472497 L2.61795002,38.472497 L2.61795002,5.7414409 L29.38205,5.7414409 L29.38205,10.3329889 C29.38205,10.7547788 29.7267273,11.0967404 30.1520955,11.0967404 C30.5774638,11.0967404 30.922141,10.7547788 30.922141,10.3329889 L30.922141,5.7234643 C31.5322383,5.6254563 32,5.1007834 32,4.46845404 L32,1.2728853 C32,0.57098549 31.4241042,0 30.7165225,0 Z M30.4598065,4.21383636 L30.1519931,4.21383636 L1.84790449,4.21383636 L1.84790449,4.21393792 L1.54009107,4.21393792 L1.54009107,1.52750298 L30.4598065,1.52750298 L30.4598065,4.21383636 Z" id="Shape"></path>
            <path d="M24.0047556,27.253012 L19.2892584,27.253012 C18.8588428,27.253012 18.5098039,27.585551 18.5098039,27.9957186 C18.5098039,28.3928493 18.8370732,28.7162032 19.2486218,28.7364499 L19.2486218,29.4609838 C19.2486218,30.143543 19.8314244,30.6987952 20.5478508,30.6987952 L22.7462668,30.6987952 C23.4626932,30.6987952 24.0454958,30.143543 24.0454958,29.4609838 L24.0454958,28.7364499 C24.4570444,28.7161045 24.7843137,28.3927506 24.7843137,27.9957186 C24.7844174,27.585551 24.4353785,27.253012 24.0047556,27.253012 Z M22.4865869,29.2134808 L20.8078417,29.2134808 L20.8078417,28.7558077 L22.4865869,28.7558077 L22.4865869,29.2134808 Z" id="Shape"></path>
            <path d="M26.3315879,7.8313253 L5.66851397,7.8313253 C4.96469972,7.8313253 4.39215686,8.40458827 4.39215686,9.10928774 L4.39215686,25.6065561 L4.39215686,34.7461339 C4.39215686,35.4508334 4.96469972,36.0240964 5.66851397,36.0240964 L26.3313842,36.0240964 C27.0351984,36.0240964 27.6078431,35.4507314 27.6078431,34.746032 L27.6078431,25.6065561 L27.6078431,9.10928774 C27.6078431,8.40458827 27.0353003,7.8313253 26.3315879,7.8313253 Z M26.076072,9.36492101 L26.076072,24.8397583 L23.4493203,24.8397583 L23.4493203,13.0096581 C23.4493203,12.5861858 23.1065279,12.2428602 22.6834857,12.2428602 L9.31641246,12.2428602 C8.89337029,12.2428602 8.55057782,12.5861858 8.55057782,13.0096581 L8.55057782,24.8397583 L5.92382613,24.8397583 L5.92382613,9.36492101 L26.076072,9.36492101 Z M21.9177529,13.7764559 L21.9177529,24.8397583 L10.0823489,24.8397583 L10.0823489,13.7764559 L21.9177529,13.7764559 Z M5.92372429,34.4905007 L5.92372429,26.373354 L9.31631062,26.373354 L22.6833839,26.373354 L26.0759702,26.373354 L26.0759702,34.4905007 L5.92372429,34.4905007 Z" id="Shape"></path>
        </g>
    </g>
</svg>