<?xml version="1.0" encoding="UTF-8"?>
<svg width="48px" height="48px" viewBox="0 0 48 48" version="1.1" xmlns="http://www.w3.org/2000/svg" xmlns:xlink="http://www.w3.org/1999/xlink">
    <!-- Generator: Sketch 62 (91390) - https://sketch.com -->
    <title>iconografia/marca/off/calculadora</title>
    <desc>Created with Sketch.</desc>
    <defs>
        <polygon id="path-1" points="0.0037 0.4233 32.3047 0.4233 32.3047 40 0.0037 40"></polygon>
        <polygon id="path-3" points="0 40.5767 32.305 40.5767 32.305 0.9997 0 0.9997"></polygon>
    </defs>
    <g id="iconografia/marca/off/calculadora" stroke="none" stroke-width="1" fill="none" fill-rule="evenodd">
        <g id="Page-1" transform="translate(8.000000, 4.000000)">
            <g id="Group-3" transform="translate(0.000000, 0.576700)">
                <mask id="mask-2" fill="white">
                    <use xlink:href="#path-1"></use>
                </mask>
                <g id="Clip-2"></g>
                <path d="M29.8647,0.4233 L2.4437,0.4233 C1.0977,0.4233 0.0037,1.5183 0.0037,2.8633 L0.0037,24.6643 C0.0037,25.1133 0.3677,25.4783 0.8167,25.4783 C1.2657,25.4783 1.6307,25.1133 1.6307,24.6643 L1.6307,2.8633 C1.6307,2.4153 1.9947,2.0503 2.4437,2.0503 L29.8647,2.0503 C30.3137,2.0503 30.6777,2.4153 30.6777,2.8633 L30.6777,37.5593 C30.6777,38.0083 30.3137,38.3733 29.8647,38.3733 L2.4437,38.3733 C1.9947,38.3733 1.6307,38.0083 1.6307,37.5593 L1.6307,30.1153 C1.6307,29.6663 1.2657,29.3023 0.8167,29.3023 C0.3677,29.3023 0.0037,29.6663 0.0037,30.1153 L0.0037,37.5593 C0.0037,38.9053 1.0977,40.0003 2.4437,40.0003 L29.8647,40.0003 C31.2107,40.0003 32.3047,38.9053 32.3047,37.5593 L32.3047,2.8633 C32.3047,1.5183 31.2107,0.4233 29.8647,0.4233" id="Fill-1" fill="#5C5C60" mask="url(#mask-2)"></path>
            </g>
            <mask id="mask-4" fill="white">
                <use xlink:href="#path-3"></use>
            </mask>
            <g id="Clip-5"></g>
            <path d="M6.084,13.2037 L25.817,13.2037 L25.817,6.2387 L6.084,6.2387 L6.084,13.2037 Z M26.346,4.6117 L5.556,4.6117 C4.95,4.6117 4.457,5.1047 4.457,5.7107 L4.457,13.7327 C4.457,14.3377 4.95,14.8307 5.556,14.8307 L26.346,14.8307 C26.951,14.8307 27.444,14.3377 27.444,13.7327 L27.444,5.7107 C27.444,5.1047 26.951,4.6117 26.346,4.6117 L26.346,4.6117 Z" id="Fill-4" fill="#5C5C60" mask="url(#mask-4)"></path>
            <path d="M6.085,19.8257 L7.935,19.8257 L7.935,17.9227 L6.085,17.9227 L6.085,19.8257 Z M9.562,17.2527 C9.562,16.7247 9.132,16.2957 8.605,16.2957 L5.413,16.2957 C4.886,16.2957 4.458,16.7247 4.458,17.2527 L4.458,20.4957 C4.458,21.0237 4.886,21.4527 5.413,21.4527 L8.605,21.4527 C9.132,21.4527 9.562,21.0237 9.562,20.4957 L9.562,17.2527 Z" id="Fill-6" fill="#5C5C60" mask="url(#mask-4)"></path>
            <path d="M15.026,19.8257 L16.876,19.8257 L16.876,17.9227 L15.026,17.9227 L15.026,19.8257 Z M14.355,21.4527 L17.546,21.4527 C18.074,21.4527 18.503,21.0237 18.503,20.4957 L18.503,17.2527 C18.503,16.7247 18.074,16.2957 17.546,16.2957 L14.355,16.2957 C13.828,16.2957 13.399,16.7247 13.399,17.2527 L13.399,20.4957 C13.399,21.0237 13.828,21.4527 14.355,21.4527 L14.355,21.4527 Z" id="Fill-7" fill="#5C5C60" mask="url(#mask-4)"></path>
            <path d="M15.026,27.4907 L16.876,27.4907 L16.876,25.5877 L15.026,25.5877 L15.026,27.4907 Z M13.399,28.1607 C13.399,28.6887 13.828,29.1177 14.355,29.1177 L17.546,29.1177 C18.074,29.1177 18.503,28.6887 18.503,28.1607 L18.503,24.9167 C18.503,24.3897 18.074,23.9607 17.546,23.9607 L14.355,23.9607 C13.828,23.9607 13.399,24.3897 13.399,24.9167 L13.399,28.1607 Z" id="Fill-8" fill="#5C5C60" mask="url(#mask-4)"></path>
            <path d="M23.971,27.4907 L25.821,27.4907 L25.821,25.5877 L23.971,25.5877 L23.971,27.4907 Z M27.448,24.9167 C27.448,24.3897 27.019,23.9607 26.492,23.9607 L23.301,23.9607 C22.773,23.9607 22.344,24.3897 22.344,24.9167 L22.344,28.1607 C22.344,28.6887 22.773,29.1177 23.301,29.1177 L26.492,29.1177 C27.019,29.1177 27.448,28.6887 27.448,28.1607 L27.448,24.9167 Z" id="Fill-9" fill="#5C5C60" mask="url(#mask-4)"></path>
            <path d="M23.971,19.8177 L25.821,19.8177 L25.821,17.9147 L23.971,17.9147 L23.971,19.8177 Z M27.448,17.2447 C27.448,16.7177 27.019,16.2877 26.492,16.2877 L23.301,16.2877 C22.773,16.2877 22.344,16.7177 22.344,17.2447 L22.344,20.4887 C22.344,21.0157 22.773,21.4447 23.301,21.4447 L26.492,21.4447 C27.019,21.4447 27.448,21.0157 27.448,20.4887 L27.448,17.2447 Z" id="Fill-10" fill="#5C5C60" mask="url(#mask-4)"></path>
            <path d="M6.085,27.4907 L7.935,27.4907 L7.935,25.5877 L6.085,25.5877 L6.085,27.4907 Z M9.562,24.9167 C9.562,24.3897 9.132,23.9607 8.605,23.9607 L5.413,23.9607 C4.886,23.9607 4.458,24.3897 4.458,24.9167 L4.458,28.1607 C4.458,28.6887 4.886,29.1177 5.413,29.1177 L8.605,29.1177 C9.132,29.1177 9.562,28.6887 9.562,28.1607 L9.562,24.9167 Z" id="Fill-11" fill="#5C5C60" mask="url(#mask-4)"></path>
            <path d="M6.085,35.1557 L7.935,35.1557 L7.935,33.2527 L6.085,33.2527 L6.085,35.1557 Z M8.605,31.6257 L5.413,31.6257 C4.886,31.6257 4.458,32.0547 4.458,32.5817 L4.458,35.8257 C4.458,36.3527 4.886,36.7827 5.413,36.7827 L8.605,36.7827 C9.132,36.7827 9.562,36.3527 9.562,35.8257 L9.562,32.5817 C9.562,32.0547 9.132,31.6257 8.605,31.6257 L8.605,31.6257 Z" id="Fill-12" fill="#5C5C60" mask="url(#mask-4)"></path>
            <path d="M15.026,35.3587 L25.821,35.3587 L25.821,32.9457 L15.026,32.9457 L15.026,35.3587 Z M14.354,36.9847 L26.492,36.9847 C27.019,36.9847 27.448,36.5557 27.448,36.0287 L27.448,32.2747 C27.448,31.7467 27.019,31.3187 26.492,31.3187 L14.354,31.3187 C13.828,31.3187 13.399,31.7467 13.399,32.2747 L13.399,36.0287 C13.399,36.5557 13.828,36.9847 14.354,36.9847 L14.354,36.9847 Z" id="Fill-13" fill="#5C5C60" mask="url(#mask-4)"></path>
            <path d="M0.8198,28.8321 C0.9198,28.8321 1.0298,28.8121 1.1298,28.7721 C1.2298,28.7321 1.3198,28.6721 1.3898,28.5921 C1.4698,28.5221 1.5298,28.4321 1.5698,28.3321 C1.6098,28.2321 1.6298,28.1221 1.6298,28.0221 C1.6298,27.9121 1.6098,27.8121 1.5698,27.7121 C1.5298,27.6121 1.4698,27.5221 1.3898,27.4421 C1.1598,27.2121 0.8098,27.1421 0.5098,27.2621 C0.4098,27.3121 0.3198,27.3721 0.2398,27.4421 C0.1698,27.5221 0.1098,27.6121 0.0598,27.7121 C0.0198,27.8121 -0.0002,27.9121 -0.0002,28.0221 C-0.0002,28.2321 0.0898,28.4421 0.2398,28.5921 C0.3898,28.7421 0.5998,28.8321 0.8198,28.8321" id="Fill-14" fill="#5C5C60" mask="url(#mask-4)"></path>
        </g>
    </g>
</svg>