<?xml version="1.0" encoding="UTF-8"?>
<svg width="48px" height="48px" viewBox="0 0 48 48" version="1.1" xmlns="http://www.w3.org/2000/svg" xmlns:xlink="http://www.w3.org/1999/xlink">
    <!-- Generator: Sketch 62 (91390) - https://sketch.com -->
    <title>iconografia/marca/on/calculadora</title>
    <desc>Created with Sketch.</desc>
    <defs>
        <polygon id="path-1" points="0.4644 0.0498 31.139 0.0498 31.139 37.9998 0.4644 37.9998"></polygon>
        <polygon id="path-3" points="0 0.5861 32.3008 0.5861 32.3008 40.1631 0 40.1631"></polygon>
        <polygon id="path-5" points="0 41.4139 33.139 41.4139 33.139 0.9999 0 0.9999"></polygon>
    </defs>
    <g id="iconografia/marca/on/calculadora" stroke="none" stroke-width="1" fill="none" fill-rule="evenodd">
        <g id="Page-1" transform="translate(7.000000, 3.000000)">
            <g id="Group-3" transform="translate(2.000000, 3.413900)">
                <mask id="mask-2" fill="white">
                    <use xlink:href="#path-1"></use>
                </mask>
                <g id="Clip-2"></g>
                <path d="M0.4644,28.9288 L0.4644,36.3728 C0.4644,37.2708 1.1924,37.9998 2.0914,37.9998 L29.5124,37.9998 C30.4104,37.9998 31.1394,37.2708 31.1394,36.3728 L31.1394,1.6768 C31.1394,0.7788 30.4104,0.0498 29.5124,0.0498 L2.0914,0.0498 C1.1924,0.0498 0.4644,0.7788 0.4644,1.6768 L0.4644,23.4778 L0.4644,28.9288 Z" id="Fill-1" fill="#FCD603" mask="url(#mask-2)"></path>
            </g>
            <path d="M26.6274,13.7324 C26.6274,13.8894 26.4994,14.0174 26.3424,14.0174 L5.5524,14.0174 C5.3954,14.0174 5.2674,13.8894 5.2674,13.7324 L5.2674,5.7104 C5.2674,5.5534 5.3954,5.4254 5.5524,5.4254 L26.3424,5.4254 C26.4994,5.4254 26.6274,5.5534 26.6274,5.7104 L26.6274,13.7324 Z" id="Fill-4" fill="#B5B5B5"></path>
            <path d="M26.6318,36.0288 C26.6318,36.1068 26.5678,36.1718 26.4888,36.1718 L14.3518,36.1718 C14.2738,36.1718 14.2088,36.1068 14.2088,36.0288 L14.2088,32.2748 C14.2088,32.1958 14.2738,32.1318 14.3518,32.1318 L26.4888,32.1318 C26.5678,32.1318 26.6318,32.1958 26.6318,32.2748 L26.6318,36.0288 Z" id="Fill-6" fill="#FFFFFF"></path>
            <g id="Group-10" transform="translate(0.000000, 0.413900)">
                <mask id="mask-4" fill="white">
                    <use xlink:href="#path-3"></use>
                </mask>
                <g id="Clip-9"></g>
                <path d="M29.8618,0.5861 L2.4408,0.5861 C1.0948,0.5861 -0.0002,1.6811 -0.0002,3.0261 L-0.0002,24.8271 C-0.0002,25.2761 0.3638,25.6411 0.8138,25.6411 C1.2628,25.6411 1.6268,25.2761 1.6268,24.8271 L1.6268,3.0261 C1.6268,2.5781 1.9918,2.2131 2.4408,2.2131 L29.8618,2.2131 C30.3098,2.2131 30.6738,2.5781 30.6738,3.0261 L30.6738,37.7221 C30.6738,38.1711 30.3098,38.5361 29.8618,38.5361 L2.4408,38.5361 C1.9918,38.5361 1.6268,38.1711 1.6268,37.7221 L1.6268,30.2781 C1.6268,29.8291 1.2628,29.4651 0.8138,29.4651 C0.3638,29.4651 -0.0002,29.8291 -0.0002,30.2781 L-0.0002,37.7221 C-0.0002,39.0681 1.0948,40.1631 2.4408,40.1631 L29.8618,40.1631 C31.2068,40.1631 32.3008,39.0681 32.3008,37.7221 L32.3008,3.0261 C32.3008,1.6811 31.2068,0.5861 29.8618,0.5861" id="Fill-8" fill="#5C5C60" mask="url(#mask-4)"></path>
            </g>
            <mask id="mask-6" fill="white">
                <use xlink:href="#path-5"></use>
            </mask>
            <g id="Clip-12"></g>
            <path d="M6.081,13.2039 L25.814,13.2039 L25.814,6.2389 L6.081,6.2389 L6.081,13.2039 Z M26.343,4.6119 L5.553,4.6119 C4.947,4.6119 4.454,5.1049 4.454,5.7109 L4.454,13.7319 C4.454,14.3379 4.947,14.8309 5.553,14.8309 L26.343,14.8309 C26.948,14.8309 27.441,14.3379 27.441,13.7319 L27.441,5.7109 C27.441,5.1049 26.948,4.6119 26.343,4.6119 L26.343,4.6119 Z" id="Fill-11" fill="#5C5C60" mask="url(#mask-6)"></path>
            <path d="M6.081,19.8259 L7.931,19.8259 L7.931,17.9229 L6.081,17.9229 L6.081,19.8259 Z M4.454,20.4959 C4.454,21.0229 4.883,21.4529 5.411,21.4529 L8.602,21.4529 C9.129,21.4529 9.558,21.0229 9.558,20.4959 L9.558,17.2529 C9.558,16.7249 9.129,16.2959 8.602,16.2959 L5.411,16.2959 C4.883,16.2959 4.454,16.7249 4.454,17.2529 L4.454,20.4959 Z" id="Fill-13" fill="#5C5C60" mask="url(#mask-6)"></path>
            <path d="M15.022,19.8259 L16.872,19.8259 L16.872,17.9229 L15.022,17.9229 L15.022,19.8259 Z M14.351,21.4529 L17.543,21.4529 C18.07,21.4529 18.5,21.0229 18.5,20.4959 L18.5,17.2529 C18.5,16.7249 18.07,16.2959 17.543,16.2959 L14.351,16.2959 C13.824,16.2959 13.396,16.7249 13.396,17.2529 L13.396,20.4959 C13.396,21.0229 13.824,21.4529 14.351,21.4529 L14.351,21.4529 Z" id="Fill-14" fill="#5C5C60" mask="url(#mask-6)"></path>
            <path d="M15.022,27.4899 L16.872,27.4899 L16.872,25.5869 L15.022,25.5869 L15.022,27.4899 Z M13.396,28.1609 C13.396,28.6889 13.824,29.1179 14.351,29.1179 L17.543,29.1179 C18.07,29.1179 18.5,28.6889 18.5,28.1609 L18.5,24.9169 C18.5,24.3899 18.07,23.9609 17.543,23.9609 L14.351,23.9609 C13.824,23.9609 13.396,24.3899 13.396,24.9169 L13.396,28.1609 Z" id="Fill-15" fill="#5C5C60" mask="url(#mask-6)"></path>
            <path d="M23.968,27.4909 L25.818,27.4909 L25.818,25.5879 L23.968,25.5879 L23.968,27.4909 Z M27.445,24.9169 C27.445,24.3899 27.016,23.9609 26.489,23.9609 L23.297,23.9609 C22.77,23.9609 22.341,24.3899 22.341,24.9169 L22.341,28.1609 C22.341,28.6889 22.77,29.1179 23.297,29.1179 L26.489,29.1179 C27.016,29.1179 27.445,28.6889 27.445,28.1609 L27.445,24.9169 Z" id="Fill-16" fill="#5C5C60" mask="url(#mask-6)"></path>
            <path d="M23.968,19.8179 L25.818,19.8179 L25.818,17.9149 L23.968,17.9149 L23.968,19.8179 Z M27.445,17.2449 C27.445,16.7169 27.016,16.2879 26.489,16.2879 L23.297,16.2879 C22.77,16.2879 22.341,16.7169 22.341,17.2449 L22.341,20.4879 C22.341,21.0159 22.77,21.4449 23.297,21.4449 L26.489,21.4449 C27.016,21.4449 27.445,21.0159 27.445,20.4879 L27.445,17.2449 Z" id="Fill-17" fill="#5C5C60" mask="url(#mask-6)"></path>
            <path d="M6.081,27.4899 L7.931,27.4899 L7.931,25.5869 L6.081,25.5869 L6.081,27.4899 Z M4.454,28.1609 C4.454,28.6889 4.883,29.1179 5.411,29.1179 L8.602,29.1179 C9.129,29.1179 9.558,28.6889 9.558,28.1609 L9.558,24.9169 C9.558,24.3899 9.129,23.9609 8.602,23.9609 L5.411,23.9609 C4.883,23.9609 4.454,24.3899 4.454,24.9169 L4.454,28.1609 Z" id="Fill-18" fill="#5C5C60" mask="url(#mask-6)"></path>
            <path d="M6.081,35.1559 L7.931,35.1559 L7.931,33.2529 L6.081,33.2529 L6.081,35.1559 Z M4.454,35.8259 C4.454,36.3529 4.883,36.7819 5.411,36.7819 L8.602,36.7819 C9.129,36.7819 9.558,36.3529 9.558,35.8259 L9.558,32.5819 C9.558,32.0539 9.129,31.6259 8.602,31.6259 L5.411,31.6259 C4.883,31.6259 4.454,32.0539 4.454,32.5819 L4.454,35.8259 Z" id="Fill-19" fill="#5C5C60" mask="url(#mask-6)"></path>
            <path d="M15.022,35.3579 L25.818,35.3579 L25.818,32.9449 L15.022,32.9449 L15.022,35.3579 Z M13.396,36.0289 C13.396,36.5559 13.824,36.9849 14.352,36.9849 L26.489,36.9849 C27.016,36.9849 27.445,36.5559 27.445,36.0289 L27.445,32.2739 C27.445,31.7469 27.016,31.3179 26.489,31.3179 L14.352,31.3179 C13.824,31.3179 13.396,31.7469 13.396,32.2739 L13.396,36.0289 Z" id="Fill-20" fill="#5C5C60" mask="url(#mask-6)"></path>
            <path d="M0.8105,28.832 C0.9205,28.832 1.0305,28.812 1.1205,28.772 C1.2205,28.732 1.3105,28.672 1.3905,28.592 C1.4605,28.522 1.5205,28.432 1.5605,28.332 C1.6005,28.232 1.6305,28.122 1.6305,28.022 C1.6305,27.912 1.6005,27.802 1.5605,27.712 C1.5205,27.612 1.4605,27.522 1.3905,27.442 C1.3105,27.372 1.2205,27.312 1.1205,27.272 C0.8205,27.142 0.4605,27.222 0.2405,27.442 C0.1605,27.522 0.1005,27.612 0.0605,27.712 C0.0205,27.802 0.0005,27.912 0.0005,28.022 C0.0005,28.122 0.0205,28.232 0.0605,28.332 C0.1005,28.432 0.1605,28.522 0.2405,28.592 C0.3905,28.742 0.6005,28.832 0.8105,28.832" id="Fill-21" fill="#5C5C60" mask="url(#mask-6)"></path>
        </g>
    </g>
</svg>