<?xml version="1.0" encoding="UTF-8"?>
<svg width="48px" height="48px" viewBox="0 0 48 48" version="1.1" xmlns="http://www.w3.org/2000/svg" xmlns:xlink="http://www.w3.org/1999/xlink">
    <!-- Generator: Sketch 62 (91390) - https://sketch.com -->
    <title>iconografia/marca/off/calendario</title>
    <desc>Created with Sketch.</desc>
    <defs>
        <polygon id="path-1" points="0.0002 0.451 39.7862 0.451 39.7862 40 0.0002 40"></polygon>
        <polygon id="path-3" points="0 40.5493 39.787 40.5493 39.787 1.0003 0 1.0003"></polygon>
    </defs>
    <g id="iconografia/marca/off/calendario" stroke="none" stroke-width="1" fill="none" fill-rule="evenodd">
        <g id="Page-1" transform="translate(4.000000, 4.000000)">
            <g id="Group-3" transform="translate(0.000000, 0.549300)">
                <mask id="mask-2" fill="white">
                    <use xlink:href="#path-1"></use>
                </mask>
                <g id="Clip-2"></g>
                <path d="M34.5322,38.373 L5.2542,38.373 C3.2542,38.373 1.6272,36.664 1.6272,34.563 L1.6272,14.563 L38.1592,14.563 L38.1592,34.563 C38.1592,36.664 36.5322,38.373 34.5322,38.373 L34.5322,38.373 Z M5.2542,5.657 L6.2332,5.657 L6.2362,8.501 C6.2362,9.312 6.9292,9.972 7.7822,9.972 L11.9242,9.972 C12.7762,9.972 13.4692,9.312 13.4692,8.501 L13.4692,5.662 L26.4582,5.662 L26.4612,8.501 C26.4612,9.312 27.1542,9.972 28.0062,9.972 L32.1482,9.972 C33.0002,9.972 33.6942,9.312 33.6942,8.501 L33.6942,5.662 L34.5322,5.662 C36.5322,5.662 38.1592,7.371 38.1592,9.471 L38.1592,12.936 L1.6272,12.936 L1.6272,9.466 C1.6272,7.366 3.2542,5.657 5.2542,5.657 L5.2542,5.657 Z M11.8422,2.078 L11.8422,8.345 L7.8632,8.345 L7.8562,2.078 L11.8422,2.078 Z M32.0672,2.078 L32.0672,8.345 L28.0882,8.345 L28.0802,2.078 L32.0672,2.078 Z M34.5322,4.035 L33.6942,4.035 L33.6942,1.922 C33.6942,1.111 33.0002,0.451 32.1482,0.451 L27.9992,0.451 C27.1472,0.451 26.4532,1.111 26.4532,1.922 L26.4562,4.035 L13.4692,4.035 L13.4692,1.922 C13.4692,1.111 12.7762,0.451 11.9242,0.451 L7.7752,0.451 C6.9232,0.451 6.2292,1.111 6.2292,1.922 L6.2312,4.03 L5.2542,4.03 C2.3572,4.03 0.0002,6.469 0.0002,9.466 L0.0002,34.563 C0.0002,37.561 2.3572,40 5.2542,40 L34.5322,40 C37.4292,40 39.7862,37.561 39.7862,34.563 L39.7862,9.471 C39.7862,6.474 37.4292,4.035 34.5322,4.035 L34.5322,4.035 Z" id="Fill-1" fill="#5C5C60" mask="url(#mask-2)"></path>
            </g>
            <mask id="mask-4" fill="white">
                <use xlink:href="#path-3"></use>
            </mask>
            <g id="Clip-5"></g>
            <path d="M24.531,32.0883 L30.399,32.0883 L30.399,27.3013 L24.531,27.3013 L24.531,32.0883 Z M9.388,32.0883 L15.318,32.0883 L15.318,27.3013 L9.388,27.3013 L9.388,32.0883 Z M9.388,25.6743 L15.318,25.6743 L15.318,20.8863 L9.388,20.8863 L9.388,25.6743 Z M16.945,32.0883 L22.904,32.0883 L22.904,27.3013 L16.945,27.3013 L16.945,32.0883 Z M16.945,25.6743 L22.904,25.6743 L22.904,20.8863 L16.945,20.8863 L16.945,25.6743 Z M24.53,25.6743 L30.398,25.6743 L30.398,20.8863 L24.53,20.8863 L24.53,25.6743 Z M30.642,19.2593 L9.145,19.2593 C8.382,19.2593 7.761,19.8803 7.761,20.6433 L7.761,32.3313 C7.761,33.0943 8.382,33.7153 9.145,33.7153 L30.642,33.7153 C31.405,33.7153 32.025,33.0943 32.025,32.3313 L32.025,20.6433 C32.025,19.8803 31.405,19.2593 30.642,19.2593 L30.642,19.2593 Z" id="Fill-4" fill="#5C5C60" mask="url(#mask-4)"></path>
        </g>
    </g>
</svg>