<?xml version="1.0" encoding="UTF-8"?>
<svg width="48px" height="48px" viewBox="0 0 48 48" version="1.1" xmlns="http://www.w3.org/2000/svg" xmlns:xlink="http://www.w3.org/1999/xlink">
    <!-- Generator: Sketch 62 (91390) - https://sketch.com -->
    <title>iconografia/marca/on/calendario</title>
    <desc>Created with Sketch.</desc>
    <defs>
        <polygon id="path-1" points="0.5396 0.5641 38.6986 0.5641 38.6986 26 0.5396 26"></polygon>
        <polygon id="path-3" points="0 40.2411 40.699 40.2411 40.699 0.0001 0 0.0001"></polygon>
    </defs>
    <g id="iconografia/marca/on/calendario" stroke="none" stroke-width="1" fill="none" fill-rule="evenodd">
        <g id="Page-1" transform="translate(4.000000, 4.000000)">
            <g id="Group-3" transform="translate(2.000000, 14.241100)">
                <mask id="mask-2" fill="white">
                    <use xlink:href="#path-1"></use>
                </mask>
                <g id="Clip-2"></g>
                <path d="M0.5396,0.5641 L0.5396,21.3771 C0.5396,23.9301 2.5276,26.0001 4.9806,26.0001 L34.2586,26.0001 C36.7106,26.0001 38.6986,23.9301 38.6986,21.3771 L38.6986,0.5641" id="Fill-1" fill="#FCD603" mask="url(#mask-2)"></path>
            </g>
            <path d="M8.3389,2.9253 C8.3389,2.5623 8.6659,2.2673 9.0709,2.2673 L13.2189,2.2673 C13.6239,2.2673 13.9509,2.5623 13.9509,2.9253 L13.9509,9.5043 C13.9509,9.8673 13.6239,10.1613 13.2189,10.1613 L9.0779,10.1613 C8.6739,10.1613 8.3459,9.8673 8.3459,9.5043 L8.3389,2.9253 Z" id="Fill-4" fill="#B5B5B5"></path>
            <mask id="mask-4" fill="white">
                <use xlink:href="#path-3"></use>
            </mask>
            <g id="Clip-7"></g>
            <polygon id="Fill-6" fill="#FFFFFF" mask="url(#mask-4)" points="8.575 25.4691 16.131 25.4691 16.131 19.0741 8.575 19.0741"></polygon>
            <path d="M28.5669,2.5743 C28.5669,2.2113 28.8949,1.9163 29.2989,1.9163 L33.4479,1.9163 C33.8519,1.9163 34.1799,2.2113 34.1799,2.5743 L34.1799,9.1533 C34.1799,9.5163 33.8519,9.8103 33.4479,9.8103 L29.3059,9.8103 C28.9019,9.8103 28.5739,9.5163 28.5739,9.1533 L28.5669,2.5743 Z" id="Fill-8" fill="#B5B5B5" mask="url(#mask-4)"></path>
            <path d="M34.5327,37.9224 L5.2547,37.9224 C3.2547,37.9224 1.6267,36.2134 1.6267,34.1124 L1.6267,14.1124 L38.1597,14.1124 L38.1597,34.1124 C38.1597,36.2134 36.5327,37.9224 34.5327,37.9224 L34.5327,37.9224 Z M5.2547,5.2064 L6.2337,5.2064 L6.2367,8.0504 C6.2367,8.8614 6.9297,9.5214 7.7827,9.5214 L11.9237,9.5214 C12.7757,9.5214 13.4687,8.8614 13.4687,8.0504 L13.4687,5.2114 L26.4577,5.2114 L26.4607,8.0504 C26.4607,8.8614 27.1547,9.5214 28.0067,9.5214 L32.1487,9.5214 C33.0007,9.5214 33.6937,8.8614 33.6937,8.0504 L33.6937,5.2114 L34.5327,5.2114 C36.5327,5.2114 38.1597,6.9204 38.1597,9.0204 L38.1597,12.4854 L1.6267,12.4854 L1.6267,9.0154 C1.6267,6.9154 3.2547,5.2064 5.2547,5.2064 L5.2547,5.2064 Z M11.8417,1.6274 L11.8417,7.8944 L7.8637,7.8944 L7.8567,1.6274 L11.8417,1.6274 Z M32.0667,1.6274 L32.0667,7.8944 L28.0877,7.8944 L28.0807,1.6274 L32.0667,1.6274 Z M34.5327,3.5844 L33.6937,3.5844 L33.6937,1.4714 C33.6937,0.6604 33.0007,0.0004 32.1487,0.0004 L27.9997,0.0004 C27.1467,0.0004 26.4537,0.6604 26.4537,1.4714 L26.4557,3.5844 L13.4687,3.5844 L13.4687,1.4714 C13.4687,0.6604 12.7757,0.0004 11.9237,0.0004 L7.7757,0.0004 C6.9227,0.0004 6.2297,0.6604 6.2297,1.4714 L6.2317,3.5794 L5.2547,3.5794 C2.3567,3.5794 -0.0003,6.0184 -0.0003,9.0154 L-0.0003,34.1124 C-0.0003,37.1104 2.3567,39.5494 5.2547,39.5494 L34.5327,39.5494 C37.4297,39.5494 39.7867,37.1104 39.7867,34.1124 L39.7867,9.0204 C39.7867,6.0234 37.4297,3.5844 34.5327,3.5844 L34.5327,3.5844 Z" id="Fill-9" fill="#5C5C60" mask="url(#mask-4)"></path>
            <path d="M24.531,31.0881 L30.399,31.0881 L30.399,26.3011 L24.531,26.3011 L24.531,31.0881 Z M9.389,31.0881 L15.318,31.0881 L15.318,26.3011 L9.389,26.3011 L9.389,31.0881 Z M9.389,24.6741 L15.318,24.6741 L15.318,19.8861 L9.389,19.8861 L9.389,24.6741 Z M16.945,31.0881 L22.904,31.0881 L22.904,26.3011 L16.945,26.3011 L16.945,31.0881 Z M16.945,24.6751 L22.904,24.6751 L22.904,19.8871 L16.945,19.8871 L16.945,24.6751 Z M24.53,24.6741 L30.398,24.6741 L30.398,19.8861 L24.53,19.8861 L24.53,24.6741 Z M32.025,25.4851 L32.025,19.6431 C32.025,18.8801 31.405,18.2601 30.642,18.2601 L9.145,18.2601 C8.382,18.2601 7.762,18.8801 7.762,19.6431 L7.762,31.3311 C7.762,32.0941 8.382,32.7151 9.145,32.7151 L30.642,32.7151 C31.405,32.7151 32.025,32.0941 32.025,31.3311 L32.025,25.4901 C32.025,25.4891 32.026,25.4891 32.026,25.4881 C32.026,25.4871 32.025,25.4861 32.025,25.4851 L32.025,25.4851 Z" id="Fill-10" fill="#5C5C60" mask="url(#mask-4)"></path>
        </g>
    </g>
</svg>