<?xml version="1.0" encoding="UTF-8"?>
<svg width="48px" height="48px" viewBox="0 0 48 48" version="1.1" xmlns="http://www.w3.org/2000/svg" xmlns:xlink="http://www.w3.org/1999/xlink">
    <!-- Generator: Sketch 62 (91390) - https://sketch.com -->
    <title>iconografia/marca/on/carrito-compra</title>
    <desc>Created with Sketch.</desc>
    <defs>
        <polygon id="path-1" points="0 0.951 11.5623615 0.951 11.5623615 19.4947 0 19.4947"></polygon>
    </defs>
    <g id="iconografia/marca/on/carrito-compra" stroke="none" stroke-width="1" fill="none" fill-rule="evenodd">
        <g id="Page-1" transform="translate(3.000000, 5.000000)">
            <path d="M18.9678,33.417 C21.0378,36.281 17.8678,39.457 14.9958,37.382 C14.9458,37.345 14.8978,37.297 14.8608,37.245 C12.7728,34.368 15.9718,31.188 18.8318,33.282 C18.8838,33.319 18.9308,33.366 18.9678,33.417" id="Fill-1" fill="#B5B5B5"></path>
            <path d="M36.6436,33.4009 C38.7496,36.2759 35.5386,39.4779 32.6696,37.3659 C32.6206,37.3279 32.5736,37.2809 32.5366,37.2289 C30.4836,34.3639 33.6416,31.2079 36.5066,33.2649 C36.5586,33.3029 36.6056,33.3499 36.6436,33.4009" id="Fill-3" fill="#B5B5B5"></path>
            <path d="M18.5,13.0498 L40.608,13.0498 C41.142,13.0498 41.545,13.5328 41.449,14.0588 L39.039,27.3158 C38.966,27.7228 38.611,28.0188 38.197,28.0188 L15.062,28.0188 C14.681,28.0188 14.346,27.7658 14.239,27.4008 L10.073,12.9878" id="Fill-5" fill="#FCD603"></path>
            <path d="M11.8936,21.6157 C12.0436,21.4657 12.1336,21.2557 12.1336,21.0357 C12.1336,20.9357 12.1146,20.8257 12.0746,20.7257 C12.0346,20.6257 11.9736,20.5457 11.8936,20.4657 C11.8246,20.3857 11.7346,20.3257 11.6336,20.2857 C11.4336,20.2057 11.2136,20.2057 11.0136,20.2857 C10.9146,20.3257 10.8246,20.3857 10.7446,20.4657 C10.6736,20.5457 10.6146,20.6257 10.5746,20.7257 C10.5246,20.8257 10.5036,20.9357 10.5036,21.0357 C10.5036,21.2557 10.5936,21.4657 10.7446,21.6157 C10.8246,21.6957 10.9146,21.7457 11.0136,21.7957 C11.1146,21.8357 11.2136,21.8557 11.3246,21.8557 C11.4336,21.8557 11.5346,21.8357 11.6336,21.7957 C11.7346,21.7457 11.8246,21.6957 11.8936,21.6157" id="Fill-7" fill="#5C5C60"></path>
            <g id="Group-11" transform="translate(0.000000, 0.048900)">
                <mask id="mask-2" fill="white">
                    <use xlink:href="#path-1"></use>
                </mask>
                <g id="Clip-10"></g>
                <path d="M10.958,19.4677 C11.392,19.3527 11.65,18.9067 11.535,18.4727 L7.156,1.9657 C6.99,1.3677 6.442,0.9507 5.823,0.9507 L0.813,0.9507 C0.364,0.9507 0,1.3157 0,1.7647 C0,2.2137 0.364,2.5777 0.813,2.5777 L5.636,2.5777 L9.963,18.8897 C10.06,19.2547 10.389,19.4947 10.748,19.4947 C10.817,19.4947 10.888,19.4867 10.958,19.4677" id="Fill-9" fill="#5C5C60" mask="url(#mask-2)"></path>
            </g>
            <path d="M40.6523,11.021 C40.3883,10.706 40.0023,10.525 39.5913,10.525 L17.1423,10.525 C16.6933,10.525 16.3293,10.89 16.3293,11.339 C16.3293,11.788 16.6933,12.152 17.1423,12.152 L39.3003,12.152 L36.8733,25.495 L13.6783,25.495 L12.9893,23.012 C12.8693,22.581 12.4263,22.323 11.9873,22.446 C11.5543,22.566 11.3003,23.015 11.4213,23.448 L12.1603,26.108 C12.3263,26.705 12.8743,27.122 13.4933,27.122 L37.0773,27.122 C37.7473,27.122 38.3193,26.643 38.4383,25.984 L40.9543,12.154 C41.0263,11.749 40.9163,11.336 40.6523,11.021" id="Fill-12" fill="#5C5C60"></path>
            <path d="M15.7812,36.3804 C14.7292,36.3804 13.8732,35.5244 13.8732,34.4724 C13.8732,33.4204 14.7292,32.5634 15.7812,32.5634 C16.8332,32.5634 17.6892,33.4204 17.6892,34.4724 C17.6892,35.5244 16.8332,36.3804 15.7812,36.3804 M15.7812,30.9364 C13.8322,30.9364 12.2462,32.5224 12.2462,34.4724 C12.2462,36.4214 13.8322,38.0074 15.7812,38.0074 C17.7302,38.0074 19.3162,36.4214 19.3162,34.4724 C19.3162,32.5224 17.7302,30.9364 15.7812,30.9364" id="Fill-14" fill="#5C5C60"></path>
            <path d="M33.4707,36.3804 C32.4187,36.3804 31.5637,35.5244 31.5637,34.4724 C31.5637,33.4204 32.4187,32.5634 33.4707,32.5634 C34.5237,32.5634 35.3797,33.4204 35.3797,34.4724 C35.3797,35.5244 34.5237,36.3804 33.4707,36.3804 M33.4707,30.9364 C31.5217,30.9364 29.9367,32.5224 29.9367,34.4724 C29.9367,36.4214 31.5217,38.0074 33.4707,38.0074 C35.4207,38.0074 37.0067,36.4214 37.0067,34.4724 C37.0067,32.5224 35.4207,30.9364 33.4707,30.9364" id="Fill-16" fill="#5C5C60"></path>
            <path d="M21.2246,23.039 C20.7756,23.039 20.4116,22.675 20.4116,22.226 L20.4116,15.421 C20.4116,14.972 20.7756,14.608 21.2246,14.608 C21.6736,14.608 22.0376,14.972 22.0376,15.421 L22.0376,22.226 C22.0376,22.675 21.6736,23.039 21.2246,23.039" id="Fill-18" fill="#FFFFFF"></path>
            <path d="M29.3896,23.039 C28.9406,23.039 28.5766,22.675 28.5766,22.226 L28.5766,15.421 C28.5766,14.972 28.9406,14.608 29.3896,14.608 C29.8386,14.608 30.2026,14.972 30.2026,15.421 L30.2026,22.226 C30.2026,22.675 29.8386,23.039 29.3896,23.039" id="Fill-20" fill="#FFFFFF"></path>
        </g>
    </g>
</svg>