<?xml version="1.0" encoding="UTF-8"?>
<svg width="48px" height="48px" viewBox="0 0 48 48" version="1.1" xmlns="http://www.w3.org/2000/svg" xmlns:xlink="http://www.w3.org/1999/xlink">
    <!-- Generator: Sketch 62 (91390) - https://sketch.com -->
    <title>iconografia/marca/off/carrito-compra</title>
    <desc>Created with Sketch.</desc>
    <defs>
        <polygon id="path-1" points="0 0.993 11.5633615 0.993 11.5633615 19.5366 0 19.5366"></polygon>
        <polygon id="path-3" points="0.392062653 0.518 29.976 0.518 29.976 17.114 0.392062653 17.114"></polygon>
        <polygon id="path-5" points="0.2472 0.9292 7.3172 0.9292 7.3172 8 0.2472 8"></polygon>
        <polygon id="path-7" points="0.9367 0.9292 8.0067 0.9292 8.0067 8 0.9367 8"></polygon>
    </defs>
    <g id="iconografia/marca/off/carrito-compra" stroke="none" stroke-width="1" fill="none" fill-rule="evenodd">
        <g id="Page-1" transform="translate(4.000000, 5.000000)">
            <path d="M11.3203,21.8554 C11.1103,21.8554 10.9003,21.7654 10.7503,21.6154 C10.5993,21.4654 10.5093,21.2554 10.5093,21.0354 C10.5093,20.9354 10.5303,20.8254 10.5703,20.7254 C10.6103,20.6254 10.6703,20.5454 10.7503,20.4654 C10.8203,20.3854 10.9103,20.3254 11.0093,20.2854 C11.3093,20.1654 11.6703,20.2354 11.9003,20.4654 C11.9693,20.5454 12.0303,20.6254 12.0703,20.7254 C12.1103,20.8254 12.1393,20.9354 12.1393,21.0354 C12.1393,21.2554 12.0493,21.4654 11.9003,21.6154 C11.7503,21.7654 11.5403,21.8554 11.3203,21.8554" id="Fill-1" fill="#5C5C60"></path>
            <g id="Group-5" transform="translate(0.000000, 0.007300)">
                <mask id="mask-2" fill="white">
                    <use xlink:href="#path-1"></use>
                </mask>
                <g id="Clip-4"></g>
                <path d="M10.749,19.5366 C10.39,19.5366 10.061,19.2956 9.964,18.9316 L5.637,2.6196 L0.813,2.6196 C0.364,2.6196 0,2.2556 0,1.8066 C0,1.3566 0.364,0.9926 0.813,0.9926 L5.823,0.9926 C6.44,0.9926 6.988,1.4086 7.156,2.0036 L11.536,18.5146 C11.651,18.9486 11.393,19.3936 10.959,19.5096 C10.889,19.5276 10.818,19.5366 10.749,19.5366" id="Fill-3" fill="#5C5C60" mask="url(#mask-2)"></path>
            </g>
            <g id="Group-8" transform="translate(11.000000, 10.007300)">
                <mask id="mask-4" fill="white">
                    <use xlink:href="#path-3"></use>
                </mask>
                <g id="Clip-7"></g>
                <path d="M28.5928,2.145 L28.6028,2.145 L28.5928,2.145 Z M26.0778,17.114 L2.4938,17.114 C1.8768,17.114 1.3288,16.699 1.1608,16.103 L0.4218,13.44 C0.3018,13.007 0.5558,12.559 0.9888,12.439 C1.4278,12.315 1.8698,12.573 1.9898,13.005 L2.6788,15.487 L25.8738,15.487 L28.3008,2.145 L6.1428,2.145 C5.6938,2.145 5.3288,1.781 5.3288,1.332 C5.3288,0.882 5.6938,0.518 6.1428,0.518 L28.5928,0.518 C29.0038,0.518 29.3908,0.699 29.6548,1.015 C29.9178,1.331 30.0278,1.744 29.9538,2.149 L27.4398,15.977 C27.3208,16.635 26.7478,17.114 26.0778,17.114 L26.0778,17.114 Z" id="Fill-6" fill="#5C5C60" mask="url(#mask-4)"></path>
            </g>
            <g id="Group-11" transform="translate(12.000000, 30.007300)">
                <mask id="mask-6" fill="white">
                    <use xlink:href="#path-5"></use>
                </mask>
                <g id="Clip-10"></g>
                <path d="M3.7812,2.5562 C2.7292,2.5562 1.8742,3.4122 1.8742,4.4652 C1.8742,5.5172 2.7292,6.3732 3.7812,6.3732 C4.8342,6.3732 5.6902,5.5172 5.6902,4.4652 C5.6902,3.4122 4.8342,2.5562 3.7812,2.5562 M3.7812,8.0002 C1.8322,8.0002 0.2472,6.4142 0.2472,4.4652 C0.2472,2.5152 1.8322,0.9292 3.7812,0.9292 C5.7312,0.9292 7.3172,2.5152 7.3172,4.4652 C7.3172,6.4142 5.7312,8.0002 3.7812,8.0002" id="Fill-9" fill="#5C5C60" mask="url(#mask-6)"></path>
            </g>
            <g id="Group-14" transform="translate(29.000000, 30.007300)">
                <mask id="mask-8" fill="white">
                    <use xlink:href="#path-7"></use>
                </mask>
                <g id="Clip-13"></g>
                <path d="M4.4717,2.5562 C3.4197,2.5562 2.5637,3.4122 2.5637,4.4652 C2.5637,5.5172 3.4197,6.3732 4.4717,6.3732 C5.5237,6.3732 6.3797,5.5172 6.3797,4.4652 C6.3797,3.4122 5.5237,2.5562 4.4717,2.5562 M4.4717,8.0002 C2.5227,8.0002 0.9367,6.4142 0.9367,4.4652 C0.9367,2.5152 2.5227,0.9292 4.4717,0.9292 C6.4207,0.9292 8.0067,2.5152 8.0067,4.4652 C8.0067,6.4142 6.4207,8.0002 4.4717,8.0002" id="Fill-12" fill="#5C5C60" mask="url(#mask-8)"></path>
            </g>
            <path d="M21.2246,23.039 C20.7756,23.039 20.4116,22.675 20.4116,22.226 L20.4116,15.421 C20.4116,14.972 20.7756,14.608 21.2246,14.608 C21.6736,14.608 22.0376,14.972 22.0376,15.421 L22.0376,22.226 C22.0376,22.675 21.6736,23.039 21.2246,23.039" id="Fill-15" fill="#5C5C60"></path>
            <path d="M29.3896,23.039 C28.9406,23.039 28.5766,22.675 28.5766,22.226 L28.5766,15.421 C28.5766,14.972 28.9406,14.608 29.3896,14.608 C29.8386,14.608 30.2026,14.972 30.2026,15.421 L30.2026,22.226 C30.2026,22.675 29.8386,23.039 29.3896,23.039" id="Fill-17" fill="#5C5C60"></path>
        </g>
    </g>
</svg>