<?xml version="1.0" encoding="UTF-8"?>
<svg width="48px" height="48px" viewBox="0 0 48 48" version="1.1" xmlns="http://www.w3.org/2000/svg" xmlns:xlink="http://www.w3.org/1999/xlink">
    <!-- Generator: Sketch 62 (91390) - https://sketch.com -->
    <title>iconografia/marca/off/casa</title>
    <desc>Created with Sketch.</desc>
    <defs>
        <polygon id="path-1" points="0 0.244 39.756 0.244 39.756 39.9996 0 39.9996"></polygon>
    </defs>
    <g id="iconografia/marca/off/casa" stroke="none" stroke-width="1" fill="none" fill-rule="evenodd">
        <g id="Page-1" transform="translate(4.000000, 4.000000)">
            <g id="Group-3" transform="translate(0.000000, 0.756300)">
                <mask id="mask-2" fill="white">
                    <use xlink:href="#path-1"></use>
                </mask>
                <g id="Clip-2"></g>
                <path d="M15.8154,25.4966 L24.1334,25.4966 L24.1334,38.3786 L15.8154,38.3856 L15.8154,25.4966 Z M39.2034,16.5256 L31.8124,10.0996 L31.8124,1.8506 C31.8124,0.9646 31.0904,0.2436 30.2044,0.2436 L25.4374,0.2436 C24.5504,0.2436 23.8304,0.9646 23.8304,1.8506 L23.8304,3.1566 L20.9354,0.6406 C20.3354,0.1126 19.4254,0.1116 18.8214,0.6376 L0.5514,16.5246 C0.0504,16.9606 -0.1316,17.6726 0.0984,18.3006 C0.3324,18.9266 0.9374,19.3466 1.6064,19.3466 L6.3544,19.3466 L6.3544,24.4966 C6.3544,24.9466 6.7184,25.3106 7.1684,25.3106 C7.6174,25.3106 7.9814,24.9466 7.9814,24.4966 L7.9814,17.7196 L1.6204,17.7516 L19.8654,1.8656 L25.4574,6.7266 L25.4374,1.8706 L30.1854,1.8506 L30.1854,10.8406 L38.1474,17.7206 L31.7734,17.7206 L31.7934,38.3726 L25.7604,38.3776 L25.7604,24.9686 C25.7604,24.3626 25.2674,23.8696 24.6624,23.8696 L15.2874,23.8696 C14.6814,23.8696 14.1884,24.3626 14.1884,24.9686 L14.1884,38.3876 L7.9814,38.3926 L7.9814,29.1666 C7.9814,28.7176 7.6174,28.3526 7.1684,28.3526 C6.7184,28.3526 6.3544,28.7176 6.3544,29.1666 L6.3544,38.3926 C6.3544,39.2786 7.0754,39.9996 7.9614,39.9996 L31.7934,39.9996 C32.6794,39.9996 33.4004,39.2796 33.4004,38.3936 L33.4004,19.3476 L38.1474,19.3476 C38.8204,19.3476 39.4264,18.9256 39.6554,18.3016 C39.8874,17.6726 39.7124,16.9776 39.2034,16.5256 L39.2034,16.5256 Z" id="Fill-1" fill="#5C5C60" mask="url(#mask-2)"></path>
            </g>
            <path d="M6.5752,28.288 C6.6552,28.368 6.7452,28.418 6.8452,28.458 C6.9452,28.508 7.0452,28.528 7.1552,28.528 C7.2552,28.528 7.3652,28.508 7.4652,28.458 C7.5652,28.418 7.6552,28.358 7.7242,28.288 C7.8042,28.208 7.8652,28.118 7.9052,28.028 C7.9452,27.928 7.9652,27.818 7.9652,27.708 C7.9652,27.608 7.9452,27.498 7.9052,27.398 C7.8652,27.298 7.8042,27.208 7.7242,27.138 C7.6552,27.058 7.5652,26.998 7.4652,26.958 C7.2642,26.878 7.0352,26.878 6.8452,26.958 C6.7452,26.998 6.6552,27.058 6.5752,27.138 C6.5052,27.208 6.4452,27.298 6.4052,27.398 C6.3652,27.498 6.3352,27.608 6.3352,27.708 C6.3352,27.818 6.3652,27.928 6.4052,28.028 C6.4452,28.118 6.5052,28.208 6.5752,28.288" id="Fill-4" fill="#5C5C60"></path>
        </g>
    </g>
</svg>