<?xml version="1.0" encoding="UTF-8"?>
<svg width="48px" height="48px" viewBox="0 0 48 48" version="1.1" xmlns="http://www.w3.org/2000/svg" xmlns:xlink="http://www.w3.org/1999/xlink">
    <!-- Generator: Sketch 62 (91390) - https://sketch.com -->
    <title>iconografia/marca/on/casa</title>
    <desc>Created with Sketch.</desc>
    <defs>
        <polygon id="path-1" points="0.74734786 0.86925 38.877 0.86925 38.877 39 0.74734786 39"></polygon>
        <polygon id="path-3" points="0 0.3890742 39.7557427 0.3890742 39.7557427 40.1457 0 40.1457"></polygon>
    </defs>
    <g id="iconografia/marca/on/casa" stroke="none" stroke-width="1" fill="none" fill-rule="evenodd">
        <g id="Page-1" transform="translate(4.000000, 3.000000)">
            <g id="Group-3" transform="translate(2.000000, 2.611100)">
                <mask id="mask-2" fill="white">
                    <use xlink:href="#path-1"></use>
                </mask>
                <g id="Clip-2"></g>
                <path d="M7.1029,28.98 L7.1029,38.206 C7.1029,38.644 7.4599,39 7.8969,39 L31.7279,39 C32.1649,39 32.5219,38.644 32.5219,38.208 L32.5219,18.348 L38.0829,18.348 C38.4149,18.348 38.7139,18.142 38.8279,17.832 C38.9429,17.521 38.8519,17.173 38.6039,16.953 L30.9339,10.284 L30.9339,1.665 C30.9339,1.227 30.5759,0.871 30.1389,0.871 L25.3729,0.871 C24.9359,0.871 24.5789,1.227 24.5789,1.665 L24.5789,4.756 L20.3329,1.065 C20.0369,0.804 19.5899,0.804 19.2909,1.065 L1.0209,16.952 C0.7689,17.171 0.6829,17.521 0.7969,17.83 C0.9129,18.142 1.2089,18.347 1.5409,18.347 L7.1029,18.347 L7.1029,24.311 L7.1029,28.98 Z" id="Fill-1" fill="#FCD603" mask="url(#mask-2)"></path>
            </g>
            <path d="M15.0013,39.5291 L15.0013,25.7251 C15.0013,25.5691 15.1293,25.4401 15.2863,25.4401 L24.6613,25.4401 C24.8183,25.4401 24.9463,25.5691 24.9463,25.7251 L24.9463,39.5291" id="Fill-4" fill="#B5B5B5"></path>
            <g id="Group-8" transform="translate(0.000000, 0.611100)">
                <mask id="mask-4" fill="white">
                    <use xlink:href="#path-3"></use>
                </mask>
                <g id="Clip-7"></g>
                <path d="M31.7728,17.8667 L31.7928,38.5187 L25.7598,38.5237 L25.7598,25.1147 C25.7598,24.5087 25.2668,24.0157 24.6618,24.0157 L15.2868,24.0157 C14.6808,24.0157 14.1878,24.5087 14.1878,25.1147 L14.1878,38.5337 L7.9808,38.5377 L7.9808,17.8657 L7.1678,17.8657 L1.6198,17.8977 L19.8638,2.0107 L25.4568,6.8727 L25.4368,2.0167 L30.1848,1.9967 L30.1848,10.9867 L38.1468,17.8667 L31.7728,17.8667 Z M24.1328,38.5247 L15.8148,38.5317 L15.8148,25.6427 L24.1328,25.6427 L24.1328,38.5247 Z M39.2028,16.6717 L31.8118,10.2457 L31.8118,1.9967 C31.8118,1.1107 31.0898,0.3897 30.2028,0.3897 L25.4368,0.3897 C24.5498,0.3897 23.8298,1.1107 23.8298,1.9967 L23.8298,3.3027 L20.9348,0.7857 C20.3338,0.2577 19.4258,0.2567 18.8208,0.7837 L0.5508,16.6707 C0.0508,17.1057 -0.1312,17.8177 0.0978,18.4467 C0.3318,19.0727 0.9368,19.4927 1.6058,19.4927 L6.3538,19.4927 L6.3538,38.5377 C6.3538,39.4247 7.0748,40.1457 7.9608,40.1457 L31.7928,40.1457 C32.6788,40.1457 33.3998,39.4257 33.3998,38.5397 L33.3998,19.4937 L38.1468,19.4937 C38.8178,19.4937 39.4238,19.0727 39.6548,18.4467 C39.8868,17.8187 39.7118,17.1237 39.2028,16.6717 L39.2028,16.6717 Z" id="Fill-6" fill="#5C5C60" mask="url(#mask-4)"></path>
            </g>
            <path d="M22.348,37.9187 C21.954,37.9187 21.635,37.5997 21.635,37.2057 L21.635,28.2717 C21.635,27.8777 21.954,27.5587 22.348,27.5587 C22.742,27.5587 23.061,27.8777 23.061,28.2717 L23.061,37.2057 C23.061,37.5997 22.742,37.9187 22.348,37.9187" id="Fill-9" fill="#FFFFFF"></path>
        </g>
    </g>
</svg>