<?xml version="1.0" encoding="UTF-8"?>
<svg width="48px" height="48px" viewBox="0 0 48 48" version="1.1" xmlns="http://www.w3.org/2000/svg" xmlns:xlink="http://www.w3.org/1999/xlink">
    <!-- Generator: Sketch 62 (91390) - https://sketch.com -->
    <title>iconografia/marca/off/chat</title>
    <desc>Created with Sketch.</desc>
    <g id="iconografia/marca/off/chat" stroke="none" stroke-width="1" fill="none" fill-rule="evenodd">
        <g id="Page-1" transform="translate(3.000000, 6.000000)" fill="#5C5C60">
            <path d="M10.9717,25.8262 C10.6717,25.6962 10.3127,25.7762 10.0917,25.9962 C9.9427,26.1462 9.8527,26.3562 9.8527,26.5762 C9.8527,26.7862 9.9317,26.9962 10.0917,27.1462 C10.2427,27.2962 10.4427,27.3862 10.6617,27.3862 C10.8817,27.3862 11.0917,27.2962 11.2427,27.1462 C11.3927,26.9962 11.4827,26.7862 11.4827,26.5762 C11.4827,26.3562 11.3927,26.1462 11.2427,25.9962 C11.1617,25.9262 11.0727,25.8662 10.9717,25.8262" id="Fill-1"></path>
            <g id="Group-5" transform="translate(0.000000, 0.580100)">
                <path d="M37.4727,0.4199 L3.6647,0.4199 C1.6447,0.4199 -0.0003,2.0639 -0.0003,4.0849 L-0.0003,33.8599 C-0.0003,34.3499 0.3117,34.7829 0.7747,34.9399 C0.8947,34.9809 1.0177,34.9999 1.1397,34.9999 C1.4877,34.9999 1.8237,34.8399 2.0407,34.5549 L8.0427,26.7529 C8.3177,26.3969 8.2507,25.8859 7.8947,25.6119 C7.5387,25.3369 7.0277,25.4059 6.7537,25.7609 L1.6267,32.4249 L1.6267,4.0849 C1.6267,2.9609 2.5407,2.0469 3.6647,2.0469 L37.4727,2.0469 C38.5957,2.0469 39.5097,2.9609 39.5097,4.0849 L39.5097,23.4049 C39.5097,24.5289 38.5957,25.4429 37.4727,25.4429 L13.9847,25.4429 C13.5357,25.4429 13.1707,25.8079 13.1707,26.2569 C13.1707,26.7059 13.5357,27.0699 13.9847,27.0699 L37.4727,27.0699 C39.4937,27.0699 41.1367,25.4259 41.1367,23.4049 L41.1367,4.0849 C41.1367,2.0639 39.4937,0.4199 37.4727,0.4199" id="Fill-3"></path>
            </g>
            <path d="M7.3984,11.8462 L33.7384,11.8462 C34.1874,11.8462 34.5514,11.4822 34.5514,11.0332 C34.5514,10.5832 34.1874,10.2192 33.7384,10.2192 L7.3984,10.2192 C6.9494,10.2192 6.5854,10.5832 6.5854,11.0332 C6.5854,11.4822 6.9494,11.8462 7.3984,11.8462" id="Fill-6"></path>
            <path d="M7.3984,18.4727 L25.8364,18.4727 C26.2864,18.4727 26.6504,18.1087 26.6504,17.6587 C26.6504,17.2097 26.2864,16.8457 25.8364,16.8457 L7.3984,16.8457 C6.9494,16.8457 6.5854,17.2097 6.5854,17.6587 C6.5854,18.1087 6.9494,18.4727 7.3984,18.4727" id="Fill-8"></path>
        </g>
    </g>
</svg>