<?xml version="1.0" encoding="UTF-8"?>
<svg width="48px" height="48px" viewBox="0 0 48 48" version="1.1" xmlns="http://www.w3.org/2000/svg" xmlns:xlink="http://www.w3.org/1999/xlink">
    <!-- Generator: Sketch 62 (91390) - https://sketch.com -->
    <title>iconografia/marca/on/chat</title>
    <desc>Created with Sketch.</desc>
    <g id="iconografia/marca/on/chat" stroke="none" stroke-width="1" fill="none" fill-rule="evenodd">
        <g id="Page-1" transform="translate(3.000000, 6.000000)">
            <g id="Group-3" transform="translate(2.000000, 3.118400)" fill="#FCD603">
                <path d="M7.416,25.6844 L1.982,32.7474 C1.608,33.2344 0.831,32.9704 0.831,32.3564 L0.831,3.8294 C0.831,2.0804 2.249,0.6614 3.999,0.6614 L37.172,0.6614 C38.922,0.6614 40.342,2.0804 40.342,3.8294 L40.342,22.5164 C40.342,24.2654 38.922,25.6844 37.172,25.6844 L14.002,25.6844" id="Fill-1"></path>
            </g>
            <path d="M10.9727,25.8262 C10.7727,25.7362 10.5527,25.7362 10.3527,25.8262 C10.2527,25.8662 10.1627,25.9262 10.0927,25.9962 C9.9327,26.1462 9.8527,26.3562 9.8527,26.5762 C9.8527,26.7862 9.9327,26.9962 10.0927,27.1462 C10.1627,27.2262 10.2527,27.2862 10.3527,27.3262 C10.4517,27.3662 10.5527,27.3862 10.6627,27.3862 C10.8827,27.3862 11.0827,27.2962 11.2427,27.1462 C11.3927,26.9962 11.4827,26.7862 11.4827,26.5762 C11.4827,26.3562 11.3927,26.1462 11.2427,25.9962 C11.1627,25.9262 11.0727,25.8662 10.9727,25.8262" id="Fill-4" fill="#5C5C60"></path>
            <g id="Group-8" transform="translate(0.000000, 0.118400)" fill="#5C5C60">
                <path d="M37.4727,0.8816 L3.6647,0.8816 C1.6447,0.8816 -0.0003,2.5256 -0.0003,4.5466 L-0.0003,34.3216 C-0.0003,34.8116 0.3117,35.2446 0.7747,35.4016 C0.8947,35.4426 1.0177,35.4616 1.1397,35.4616 C1.4877,35.4616 1.8237,35.3016 2.0407,35.0166 L8.0427,27.2146 C8.3177,26.8586 8.2507,26.3476 7.8947,26.0736 C7.5377,25.7986 7.0277,25.8676 6.7537,26.2226 L1.6267,32.8866 L1.6267,4.5466 C1.6267,3.4226 2.5407,2.5086 3.6647,2.5086 L37.4727,2.5086 C38.5957,2.5086 39.5097,3.4226 39.5097,4.5466 L39.5097,23.8666 C39.5097,24.9906 38.5957,25.9046 37.4727,25.9046 L13.9847,25.9046 C13.5357,25.9046 13.1707,26.2696 13.1707,26.7186 C13.1707,27.1676 13.5357,27.5316 13.9847,27.5316 L37.4727,27.5316 C39.4937,27.5316 41.1367,25.8876 41.1367,23.8666 L41.1367,4.5466 C41.1367,2.5256 39.4937,0.8816 37.4727,0.8816" id="Fill-6"></path>
            </g>
            <path d="M33.7383,11.8462 L7.3983,11.8462 C6.9493,11.8462 6.5853,11.4822 6.5853,11.0332 C6.5853,10.5832 6.9493,10.2192 7.3983,10.2192 L33.7383,10.2192 C34.1873,10.2192 34.5513,10.5832 34.5513,11.0332 C34.5513,11.4822 34.1873,11.8462 33.7383,11.8462" id="Fill-9" fill="#F8F9FD"></path>
            <path d="M25.8369,18.4727 L7.3989,18.4727 C6.9489,18.4727 6.5849,18.1087 6.5849,17.6587 C6.5849,17.2097 6.9489,16.8457 7.3989,16.8457 L25.8369,16.8457 C26.2859,16.8457 26.6499,17.2097 26.6499,17.6587 C26.6499,18.1087 26.2859,18.4727 25.8369,18.4727" id="Fill-11" fill="#F8F9FD"></path>
        </g>
    </g>
</svg>