<?xml version="1.0" encoding="UTF-8"?>
<svg width="48px" height="48px" viewBox="0 0 48 48" version="1.1" xmlns="http://www.w3.org/2000/svg" xmlns:xlink="http://www.w3.org/1999/xlink">
    <!-- Generator: Sketch 62 (91390) - https://sketch.com -->
    <title>iconografia/marca/off/check</title>
    <desc>Created with Sketch.</desc>
    <g id="iconografia/marca/off/check" stroke="none" stroke-width="1" fill="none" fill-rule="evenodd">
        <path d="M21.5300304,13.3141585 C21.5318445,13.8636569 21.0863568,14.2724734 20.5350057,14.2272757 C19.9836546,14.1820781 19.5352256,13.6999816 19.5334115,13.1504833 L19.4962889,1.9060165 C19.4945751,1.38690267 19.8935996,0.987856603 20.4127113,0.989544526 L31.6577368,1.0261084 C32.2072329,1.02789512 32.6893496,1.47630197 32.7345746,2.02765314 C32.7797996,2.57900432 32.371007,3.02451433 31.8215109,3.02272761 L21.4959433,2.98915341 L21.5300304,13.3141585 Z M21.5644026,25.8639912 C21.5644026,26.4383673 21.0987787,26.9039912 20.5244026,26.9039912 C19.9500264,26.9039912 19.4844026,26.4383673 19.4844026,25.8639912 L19.4844026,1.94794244 C19.4844026,1.3735663 19.9500264,0.907942437 20.5244026,0.907942437 C21.0987787,0.907942437 21.5644026,1.3735663 21.5644026,1.94794244 L21.5644026,25.8639912 Z" id="Stroke-57" fill="#58595B" fill-rule="nonzero" transform="translate(26.111198, 13.905967) rotate(-136.000000) translate(-26.111198, -13.905967) "></path>
        <path d="M8,29.9516635 L8,9 C8,8.44771525 8.44771525,8 9,8 C13.4666667,8 17.9333333,8 22.4,8 C27.9333333,8 33.4666667,8 39,8 C39.5522847,8 40,8.44771525 40,9 L40,25.6 L40,39 C40,39.5522847 39.5522847,40 39,40 L18.7736189,40 L18.7736189,40" id="Rectangle-2" stroke="#58595B" stroke-width="1.7" stroke-linecap="round" stroke-linejoin="round" transform="translate(24.000000, 24.000000) rotate(-180.000000) translate(-24.000000, -24.000000) "></path>
    </g>
</svg>