<?xml version="1.0" encoding="UTF-8"?>
<svg width="48px" height="48px" viewBox="0 0 48 48" version="1.1" xmlns="http://www.w3.org/2000/svg" xmlns:xlink="http://www.w3.org/1999/xlink">
    <!-- Generator: Sketch 62 (91390) - https://sketch.com -->
    <title>iconografia/marca/off/cheque</title>
    <desc>Created with Sketch.</desc>
    <defs>
        <polygon id="path-1" points="0.0012 0.0112 40.115 0.0112 40.115 23 0.0012 23"></polygon>
    </defs>
    <g id="iconografia/marca/off/cheque" stroke="none" stroke-width="1" fill="none" fill-rule="evenodd">
        <g id="Page-1" transform="translate(4.000000, 12.000000)">
            <polygon id="Fill-1" fill="#FFFFFF" points="5.278 8.2068 16.755 8.2068 16.755 4.4978 5.278 4.4978"></polygon>
            <polygon id="Fill-2" fill="#FFFFFF" points="23.431 18.6988 34.907 18.6988 34.907 14.9908 23.431 14.9908"></polygon>
            <polygon id="Fill-3" fill="#5D5D61" points="4.4229 12.1284 28.4769 12.1284 32.6869 12.1284 35.6939 12.1284 35.6939 10.9254 32.6869 10.9254 28.4769 10.9254 4.4229 10.9254"></polygon>
            <polygon id="Fill-4" fill="#5D5D61" points="4.423 17.1608 12.842 17.1608 12.842 15.9578 4.423 15.9578"></polygon>
            <polygon id="Fill-5" fill="#5D5D61" points="29.394 21.3398 35.408 21.3398 35.408 20.1368 29.394 20.1368"></polygon>
            <path d="M6.091,7.3938 L15.941,7.3938 L15.941,5.3118 L6.091,5.3118 L6.091,7.3938 Z M4.465,9.0208 L17.569,9.0208 L17.569,3.6848 L4.465,3.6848 L4.465,9.0208 Z" id="Fill-6" fill="#5D5D61"></path>
            <path d="M24.245,17.8858 L34.094,17.8858 L34.094,15.8048 L24.245,15.8048 L24.245,17.8858 Z M22.618,19.5128 L35.721,19.5128 L35.721,14.1778 L22.618,14.1778 L22.618,19.5128 Z" id="Fill-7" fill="#5D5D61"></path>
            <g id="Group-13" transform="translate(0.000000, 0.988800)">
                <g id="Group-10">
                    <mask id="mask-2" fill="white">
                        <use xlink:href="#path-1"></use>
                    </mask>
                    <g id="Clip-9"></g>
                    <path d="M38.7002,0.0112 L1.4162,0.0112 C0.6362,0.0112 0.0012,0.6572 0.0012,1.4522 L0.0012,6.3202 L0.0012,6.3212 L0.0012,6.3212 L0.0012,10.6612 C0.0012,11.1102 0.3652,11.4742 0.8142,11.4742 C1.2632,11.4742 1.6282,11.1102 1.6282,10.6612 L1.6282,6.3212 L1.6282,6.3212 L1.6282,6.3202 L1.6282,1.6382 L38.4882,1.6382 L38.4882,21.3732 L1.6282,21.3732 L1.6282,16.6482 C1.6282,16.1992 1.2632,15.8352 0.8142,15.8352 C0.3652,15.8352 0.0012,16.1992 0.0012,16.6482 L0.0012,21.5582 C0.0012,22.3532 0.6362,23.0002 1.4162,23.0002 L38.7002,23.0002 C39.4802,23.0002 40.1152,22.3532 40.1152,21.5582 L40.1152,1.4522 C40.1152,0.6572 39.4802,0.0112 38.7002,0.0112" id="Fill-8" fill="#5D5D61" mask="url(#mask-2)"></path>
                </g>
                <path d="M0.2402,13.9009 C0.3902,14.0509 0.6002,14.1309 0.8102,14.1309 C1.0302,14.1309 1.2402,14.0509 1.3902,13.9009 C1.4602,13.8209 1.5202,13.7309 1.5602,13.6309 C1.6002,13.5309 1.6202,13.4309 1.6202,13.3209 C1.6202,13.1109 1.5402,12.9009 1.3902,12.7509 C1.0902,12.4409 0.5402,12.4409 0.2402,12.7509 C0.0902,12.9009 0.0002,13.1009 0.0002,13.3209 C0.0002,13.4309 0.0202,13.5309 0.0602,13.6309 C0.1002,13.7309 0.1602,13.8209 0.2402,13.9009" id="Fill-11" fill="#5D5D61"></path>
            </g>
        </g>
    </g>
</svg>