<?xml version="1.0" encoding="UTF-8"?>
<svg width="48px" height="48px" viewBox="0 0 48 48" version="1.1" xmlns="http://www.w3.org/2000/svg" xmlns:xlink="http://www.w3.org/1999/xlink">
    <!-- Generator: Sketch 62 (91390) - https://sketch.com -->
    <title>iconografia/marca/on/cheque</title>
    <desc>Created with Sketch.</desc>
    <defs>
        <polygon id="path-1" points="0.8228 0.6379 39.31 0.6379 39.31 21.9999 0.8228 21.9999"></polygon>
        <polygon id="path-3" points="0 24.5926 41.31 24.5926 41.31 -0.0004 0 -0.0004"></polygon>
    </defs>
    <g id="iconografia/marca/on/cheque" stroke="none" stroke-width="1" fill="none" fill-rule="evenodd">
        <g id="Page-1" transform="translate(3.000000, 12.000000)">
            <g id="Group-3" transform="translate(2.000000, 2.592600)">
                <mask id="mask-2" fill="white">
                    <use xlink:href="#path-1"></use>
                </mask>
                <g id="Clip-2"></g>
                <path d="M1.4248,0.6379 C1.0928,0.6379 0.8228,0.9189 0.8228,1.2659 L0.8228,21.3719 C0.8228,21.7189 1.0928,21.9999 1.4248,21.9999 L28.3618,21.9999 L33.6518,21.9999 L38.7078,21.9999 C39.0408,21.9999 39.3098,21.7189 39.3108,21.3719 L39.3108,1.2659 C39.3098,0.9189 39.0408,0.6379 38.7078,0.6379 L1.4248,0.6379 Z" id="Fill-1" fill="#FCD600" mask="url(#mask-2)"></path>
            </g>
            <mask id="mask-4" fill="white">
                <use xlink:href="#path-3"></use>
            </mask>
            <g id="Clip-5"></g>
            <polygon id="Fill-4" fill="#FFFFFF" mask="url(#mask-4)" points="4.868 7.2066 16.345 7.2066 16.345 3.4976 4.868 3.4976"></polygon>
            <polygon id="Fill-6" fill="#FFFFFF" mask="url(#mask-4)" points="23.021 17.6996 34.497 17.6996 34.497 13.9916 23.021 13.9916"></polygon>
            <polygon id="Fill-7" fill="#5D5D61" mask="url(#mask-4)" points="4.0137 11.1285 28.0677 11.1285 32.2777 11.1285 35.2847 11.1285 35.2847 9.9255 32.2777 9.9255 28.0677 9.9255 4.0137 9.9255"></polygon>
            <polygon id="Fill-8" fill="#5D5D61" mask="url(#mask-4)" points="4.014 16.1616 12.433 16.1616 12.433 14.9586 4.014 14.9586"></polygon>
            <polygon id="Fill-9" fill="#5D5D61" mask="url(#mask-4)" points="28.985 20.3406 34.999 20.3406 34.999 19.1376 28.985 19.1376"></polygon>
            <path d="M5.681,6.3936 L15.531,6.3936 L15.531,4.3116 L5.681,4.3116 L5.681,6.3936 Z M4.055,8.0206 L17.159,8.0206 L17.159,2.6846 L4.055,2.6846 L4.055,8.0206 Z" id="Fill-10" fill="#5D5D61" mask="url(#mask-4)"></path>
            <path d="M23.835,16.8866 L33.685,16.8866 L33.685,14.8056 L23.835,14.8056 L23.835,16.8866 Z M22.208,18.5136 L35.312,18.5136 L35.312,13.1786 L22.208,13.1786 L22.208,18.5136 Z" id="Fill-11" fill="#5D5D61" mask="url(#mask-4)"></path>
            <path d="M38.6982,0 L1.4152,0 C0.6352,0 0.0002,0.646 0.0002,1.441 L0.0002,6.309 L0.0002,6.31 L0.0002,6.31 L0.0002,10.65 C0.0002,11.099 0.3642,11.463 0.8132,11.463 C1.2622,11.463 1.6272,11.099 1.6272,10.65 L1.6272,6.31 L1.6272,6.31 L1.6272,6.309 L1.6272,1.627 L38.4872,1.627 L38.4872,21.362 L1.6272,21.362 L1.6272,16.637 C1.6272,16.188 1.2622,15.824 0.8132,15.824 C0.3642,15.824 0.0002,16.188 0.0002,16.637 L0.0002,21.547 C0.0002,22.342 0.6352,22.989 1.4152,22.989 L38.6982,22.989 C39.4792,22.989 40.1142,22.342 40.1142,21.547 L40.1142,1.441 C40.1142,0.646 39.4792,0 38.6982,0" id="Fill-12" fill="#5D5D61" mask="url(#mask-4)"></path>
            <path d="M0.501,14.0601 C0.602,14.1001 0.711,14.1201 0.812,14.1201 C1.031,14.1201 1.241,14.0401 1.392,13.8901 C1.541,13.7301 1.631,13.5201 1.631,13.3101 C1.631,13.2001 1.602,13.1001 1.562,13.0001 C1.522,12.9001 1.461,12.8101 1.392,12.7301 C1.161,12.5101 0.801,12.4401 0.501,12.5601 C0.401,12.6001 0.312,12.6601 0.241,12.7301 C0.161,12.8101 0.102,12.9001 0.062,13.0001 C0.022,13.1001 0.001,13.2001 0.001,13.3101 C0.001,13.5301 0.081,13.7301 0.241,13.8901 C0.312,13.9601 0.401,14.0201 0.501,14.0601" id="Fill-13" fill="#5D5D61" mask="url(#mask-4)"></path>
        </g>
    </g>
</svg>