<?xml version="1.0" encoding="utf-8"?>
<svg width="1920px" height="402px" viewBox="0 0 1920 402" version="1.1" xmlns:xlink="http://www.w3.org/1999/xlink" xmlns="http://www.w3.org/2000/svg">
  <desc>Created with Lunacy</desc>
  <defs>
    <linearGradient x1="0.5" y1="0" x2="0.5" y2="1" id="gradient_1">
      <stop offset="0" stop-color="#EEEEEE" />
      <stop offset="1" stop-color="#FFFFFF" />
    </linearGradient>
  </defs>
  <path d="M1879.93 141.884L1826.75 141.884L1826.75 94.3328L1779.71 77.2213L1779.71 156.2L1742.75 156.2L1742.75 107.72L1729.91 107.72L1729.91 68.3561L1722.64 68.3561L1722.64 17.9002L1719.18 17.9002L1719.18 68.3561L1711.92 68.3561L1711.92 107.72L1699.08 107.72L1699.08 147.484L1686.31 147.484L1686.31 131.141L1664.81 131.141L1664.81 45.2745L1612.39 67.9567L1612.39 111.534L1561.32 111.534L1561.32 173.631L1545.19 173.631L1545.19 132.779L1513.61 132.779L1513.61 112.622L1479.41 94.8419L1445.07 112.622L1445.07 154.562L1387.28 154.562L1387.28 89.2013L1341.59 89.2013L1341.59 199.757L1266 199.757L1266 139.597L1225.93 139.597L1225.93 123.983L1172.75 123.983L1172.75 76.4326L1125.71 59.3111L1125.71 138.299L1088.76 138.299L1088.76 89.8203L1075.91 89.8203L1075.91 50.4559L1068.65 50.4559L1068.65 0L1065.19 0L1065.19 50.4559L1057.92 50.4559L1057.92 89.8203L1045.08 89.8203L1045.08 129.574L1032.31 129.574L1032.31 113.241L1010.81 113.241L1010.81 27.3744L958.395 50.0566L958.395 93.624L907.325 93.624L907.325 155.73L891.205 155.73L891.205 114.869L859.626 114.869L859.626 94.7221L825.416 76.9418L791.076 94.7221L791.076 136.662L733.286 136.662L733.286 71.3012L687.596 71.3012L687.596 121.957L613.997 121.957L613.997 239.691L578.407 239.691L578.407 89.2013L532.707 89.2013L532.707 154.562L474.918 154.562L474.918 112.622L440.588 94.8419L406.378 112.622L406.378 132.779L374.798 132.779L374.798 173.631L358.668 173.631L358.668 111.534L307.598 111.534L307.598 67.9567L255.189 45.2745L255.189 131.141L233.689 131.141L233.689 147.484L220.919 147.484L220.919 107.72L208.079 107.72L208.079 68.3561L200.809 68.3561L200.809 17.9002L197.349 17.9002L197.349 68.3561L190.089 68.3561L190.089 107.72L177.239 107.72L177.239 156.2L140.279 156.2L140.279 77.2213L93.2495 94.3328L93.2495 141.884L40.0598 141.884L40.0598 157.498L0 157.498L0 402L1920 402L1920 157.498L1879.93 157.498L1879.93 141.884Z" id="city" fill="url(#gradient_1)" fill-opacity="0.7" stroke="none" />
</svg>