<?xml version="1.0" encoding="UTF-8"?>
<svg width="48px" height="48px" viewBox="0 0 48 48" version="1.1" xmlns="http://www.w3.org/2000/svg" xmlns:xlink="http://www.w3.org/1999/xlink">
    <!-- Generator: Sketch 62 (91390) - https://sketch.com -->
    <title>iconografia/marca/off/compra</title>
    <desc>Created with Sketch.</desc>
    <defs>
        <polygon id="path-1" points="0.6191 0.283 17.5771 0.283 17.5771 9.5747 0.6191 9.5747"></polygon>
    </defs>
    <g id="iconografia/marca/off/compra" stroke="none" stroke-width="1" fill="none" fill-rule="evenodd">
        <g id="Group-30" transform="translate(9.000000, 4.000000)">
            <path d="M0.23,33.0264 C0.31,33.1064 0.4,33.1664 0.5,33.2064 C0.6,33.2464 0.7,33.2664 0.81,33.2664 C0.92,33.2664 1.02,33.2464 1.12,33.2064 C1.22,33.1664 1.31,33.1064 1.38,33.0264 C1.46,32.9564 1.52,32.8664 1.56,32.7664 C1.6,32.6664 1.62,32.5664 1.62,32.4564 C1.62,32.3464 1.6,32.2464 1.56,32.1464 C1.52,32.0464 1.46,31.9564 1.38,31.8764 C1.31,31.8064 1.22,31.7464 1.12,31.7064 C0.92,31.6264 0.7,31.6264 0.5,31.7064 C0.4,31.7464 0.31,31.8064 0.23,31.8764 C0.16,31.9564 0.1,32.0464 0.06,32.1464 C0.02,32.2464 0,32.3464 0,32.4564 C0,32.5664 0.02,32.6664 0.06,32.7664 C0.1,32.8664 0.16,32.9564 0.23,33.0264" id="Fill-5" fill="#5C5C60"></path>
            <path d="M28.7368,12.2989 L1.4588,12.2989 C0.6548,12.2989 0.0008,12.9519 0.0008,13.7549 L0.0008,29.3299 C0.0008,29.7789 0.3648,30.1439 0.8148,30.1439 C1.2638,30.1439 1.6278,29.7789 1.6278,29.3299 L1.6278,13.9259 L28.5668,13.9259 L28.5668,39.2159 L1.6278,39.2159 L1.6278,35.6239 C1.6278,35.1749 1.2638,34.8109 0.8148,34.8109 C0.3648,34.8109 0.0008,35.1749 0.0008,35.6239 L0.0008,39.3849 C0.0008,40.1889 0.6548,40.8429 1.4588,40.8429 L28.7368,40.8429 C29.5398,40.8429 30.1938,40.1889 30.1938,39.3849 L30.1938,13.7549 C30.1938,12.9519 29.5398,12.2989 28.7368,12.2989" id="Fill-7" fill="#5C5C60"></path>
            <g id="Group-11" transform="translate(6.000000, 0.717300)">
                <mask id="mask-2" fill="white">
                    <use xlink:href="#path-1"></use>
                </mask>
                <g id="Clip-10"></g>
                <path d="M1.4321,9.5747 C1.8811,9.5747 2.2451,9.2107 2.2451,8.7617 C2.2451,4.9837 5.3191,1.9097 9.0971,1.9097 C12.8751,1.9097 15.9501,4.9837 15.9501,8.7617 C15.9501,9.2107 16.3141,9.5747 16.7631,9.5747 C17.2121,9.5747 17.5771,9.2107 17.5771,8.7617 C17.5771,4.0857 13.7731,0.2827 9.0971,0.2827 C4.4221,0.2827 0.6191,4.0857 0.6191,8.7617 C0.6191,9.2107 0.9831,9.5747 1.4321,9.5747" id="Fill-9" fill="#5C5C60" mask="url(#mask-2)"></path>
            </g>
            <path d="M7.9004,16.5376 C7.9004,16.1006 7.5464,15.7466 7.1104,15.7466 C6.6734,15.7466 6.3194,16.1006 6.3194,16.5376 C6.3194,16.9746 6.6734,17.3286 7.1104,17.3286 C7.5464,17.3286 7.9004,16.9746 7.9004,16.5376" id="Fill-12" fill="#5C5C60"></path>
            <path d="M23.8535,16.5376 C23.8535,16.1006 23.4995,15.7466 23.0635,15.7466 C22.6265,15.7466 22.2725,16.1006 22.2725,16.5376 C22.2725,16.9746 22.6265,17.3286 23.0635,17.3286 C23.4995,17.3286 23.8535,16.9746 23.8535,16.5376" id="Fill-14" fill="#5C5C60"></path>
        </g>
    </g>
</svg>