<?xml version="1.0" encoding="UTF-8"?>
<svg width="48px" height="48px" viewBox="0 0 48 48" version="1.1" xmlns="http://www.w3.org/2000/svg" xmlns:xlink="http://www.w3.org/1999/xlink">
    <!-- Generator: Sketch 62 (91390) - https://sketch.com -->
    <title>iconografia/marca/on/compra</title>
    <desc>Created with Sketch.</desc>
    <defs>
        <polygon id="path-1" points="0.269 0.283 17.227 0.283 17.227 9.5747 0.269 9.5747"></polygon>
    </defs>
    <g id="iconografia/marca/on/compra" stroke="none" stroke-width="1" fill="none" fill-rule="evenodd">
        <g id="Group-29" transform="translate(8.000000, 3.000000)">
            <path d="M8.8789,10.8267 C8.8789,6.6107 12.3279,3.1617 16.5439,3.1617 C20.7599,3.1617 24.2099,6.6107 24.2099,10.8267 L8.8789,10.8267 Z" id="Fill-1" fill="#B5B5B5"></path>
            <path d="M31.3315,41.7173 L4.0535,41.7173 C3.6975,41.7173 3.4095,41.4293 3.4095,41.0733 L3.4095,15.4433 C3.4095,15.0873 3.6975,14.7993 4.0535,14.7993 L31.3315,14.7993 C31.6875,14.7993 31.9755,15.0873 31.9755,15.4433 L31.9755,41.0733 C31.9755,41.4293 31.6875,41.7173 31.3315,41.7173" id="Fill-3" fill="#FCD603"></path>
            <path d="M0.8799,33.0264 C1.0399,33.1864 1.2499,33.2664 1.4599,33.2664 C1.6699,33.2664 1.8799,33.1864 2.0299,33.0264 C2.1099,32.9564 2.1699,32.8664 2.2099,32.7664 C2.2499,32.6664 2.2699,32.5664 2.2699,32.4564 C2.2699,32.3464 2.2499,32.2464 2.2099,32.1464 C2.1699,32.0464 2.1099,31.9564 2.0299,31.8764 C1.9599,31.8064 1.8699,31.7464 1.7699,31.7064 C1.4699,31.5764 1.1099,31.6564 0.8799,31.8764 C0.8099,31.9564 0.7499,32.0464 0.7099,32.1464 C0.6699,32.2464 0.6499,32.3464 0.6499,32.4564 C0.6499,32.5564 0.6699,32.6664 0.7099,32.7664 C0.7499,32.8664 0.8099,32.9564 0.8799,33.0264" id="Fill-16" fill="#5C5C60"></path>
            <path d="M29.3867,12.2989 L2.1087,12.2989 C1.3047,12.2989 0.6507,12.9519 0.6507,13.7549 L0.6507,29.3299 C0.6507,29.7789 1.0147,30.1439 1.4647,30.1439 C1.9137,30.1439 2.2777,29.7789 2.2777,29.3299 L2.2777,13.9259 L29.2167,13.9259 L29.2167,39.2159 L2.2777,39.2159 L2.2777,35.6239 C2.2777,35.1749 1.9137,34.8109 1.4647,34.8109 C1.0147,34.8109 0.6507,35.1749 0.6507,35.6239 L0.6507,39.3849 C0.6507,40.1889 1.3047,40.8429 2.1087,40.8429 L29.3867,40.8429 C30.1897,40.8429 30.8437,40.1889 30.8437,39.3849 L30.8437,13.7549 C30.8437,12.9519 30.1897,12.2989 29.3867,12.2989" id="Fill-18" fill="#5C5C60"></path>
            <g id="Group-22" transform="translate(7.000000, 0.717300)">
                <mask id="mask-2" fill="white">
                    <use xlink:href="#path-1"></use>
                </mask>
                <g id="Clip-21"></g>
                <path d="M1.082,9.5747 C1.531,9.5747 1.895,9.2107 1.895,8.7617 C1.895,4.9837 4.969,1.9097 8.747,1.9097 C12.525,1.9097 15.6,4.9837 15.6,8.7617 C15.6,9.2107 15.964,9.5747 16.413,9.5747 C16.862,9.5747 17.227,9.2107 17.227,8.7617 C17.227,4.0857 13.423,0.2827 8.747,0.2827 C4.072,0.2827 0.269,4.0857 0.269,8.7617 C0.269,9.2107 0.633,9.5747 1.082,9.5747" id="Fill-20" fill="#5C5C60" mask="url(#mask-2)"></path>
            </g>
            <path d="M8.5503,16.5376 C8.5503,16.1006 8.1963,15.7466 7.7593,15.7466 C7.3233,15.7466 6.9693,16.1006 6.9693,16.5376 C6.9693,16.9746 7.3233,17.3286 7.7593,17.3286 C8.1963,17.3286 8.5503,16.9746 8.5503,16.5376" id="Fill-23" fill="#5C5C60"></path>
            <path d="M24.5034,16.5376 C24.5034,16.1006 24.1494,15.7466 23.7134,15.7466 C23.2764,15.7466 22.9224,16.1006 22.9224,16.5376 C22.9224,16.9746 23.2764,17.3286 23.7134,17.3286 C24.1494,17.3286 24.5034,16.9746 24.5034,16.5376" id="Fill-25" fill="#5C5C60"></path>
        </g>
    </g>
</svg>