<?xml version="1.0" encoding="UTF-8"?>
<svg width="48px" height="48px" viewBox="0 0 48 48" version="1.1" xmlns="http://www.w3.org/2000/svg" xmlns:xlink="http://www.w3.org/1999/xlink">
    <!-- Generator: Sketch 62 (91390) - https://sketch.com -->
    <title>iconografia/marca/off/configuracion</title>
    <desc>Created with Sketch.</desc>
    <defs>
        <polygon id="path-1" points="5.58669152e-05 0.733 39.9817964 0.733 39.9817964 42.3526 5.58669152e-05 42.3526"></polygon>
    </defs>
    <g id="iconografia/marca/off/configuracion" stroke="none" stroke-width="1" fill="none" fill-rule="evenodd">
        <g id="Group-21" transform="translate(4.000000, 2.000000)">
            <path d="M15.7861,5.0205 C15.8961,5.0205 15.9961,4.9995 16.0961,4.9595 C16.1961,4.9195 16.2861,4.8605 16.3561,4.7805 C16.5161,4.6295 16.5961,4.4295 16.5961,4.2095 C16.5961,3.9995 16.5161,3.7905 16.3661,3.6295 C16.2861,3.5605 16.1961,3.4995 16.0961,3.4595 C15.8961,3.3795 15.6761,3.3795 15.4761,3.4595 C15.3761,3.4995 15.2861,3.5605 15.2161,3.6295 C15.1361,3.7095 15.0761,3.7995 15.0361,3.9005 C14.9961,3.9995 14.9761,4.0995 14.9761,4.2095 C14.9761,4.4295 15.0561,4.6295 15.2161,4.7805 C15.3661,4.9405 15.5661,5.0205 15.7861,5.0205" id="Fill-6" fill="#00448C"></path>
            <path d="M23.2314,18.5713 C25.0464,21.0673 24.4644,23.5673 23.0704,24.9473 C21.6774,26.3243 19.1774,26.8823 16.6934,25.0413 C14.8844,22.5473 15.4664,20.0503 16.8574,18.6723 C18.2484,17.2973 20.7464,16.7373 23.2314,18.5713 M15.3064,26.1713 L15.5474,26.4153 C17.0404,27.5503 18.5564,28.0183 19.9514,28.0183 C21.6904,28.0183 23.2424,27.2913 24.3274,26.2173 C26.2834,24.2823 27.1314,20.8173 24.6164,17.4383 L24.3754,17.1953 C21.0244,14.6563 17.5524,15.4683 15.6004,17.4023 C13.6484,19.3363 12.8014,22.7973 15.3064,26.1713" id="Fill-8" fill="#58595B"></path>
            <g id="Group-12" transform="translate(0.000000, 0.267500)">
                <mask id="mask-2" fill="white">
                    <use xlink:href="#path-1"></use>
                </mask>
                <g id="Clip-11"></g>
                <path d="M39.8262,13.8116 L36.8662,8.6406 C36.6002,8.1786 36.0572,7.9546 35.5422,8.0876 L29.5552,9.6706 C28.4542,8.7486 27.2522,7.9906 25.9822,7.4176 L24.4582,1.6316 C24.3212,1.1166 23.8532,0.7556 23.3232,0.7556 L15.8152,0.7326 L15.8122,0.7326 C15.3202,0.7326 14.9202,1.1306 14.9192,1.6236 C14.9172,2.1166 15.3162,2.5176 15.8092,2.5196 L22.8502,2.5406 L24.3292,8.1586 C24.4212,8.5066 24.6632,8.7906 25.0042,8.9396 C26.3062,9.4966 27.5262,10.2666 28.6312,11.2326 C28.9282,11.4896 29.3302,11.5816 29.7022,11.4816 L35.5472,9.9356 L38.0422,14.2926 L33.5342,18.7256 C33.2652,18.9886 33.1382,19.3666 33.1912,19.7276 C33.2852,20.4106 33.3302,21.0196 33.3292,21.5886 C33.3252,22.3766 33.2492,23.1656 33.0992,23.9946 C33.0272,24.3806 33.1502,24.7746 33.4212,25.0396 L37.3082,28.9516 L34.7812,33.2926 L29.4762,31.8226 C29.1012,31.7156 28.6992,31.8016 28.4022,32.0516 C27.3422,32.9366 26.1712,33.6516 24.9202,34.1776 C24.5872,34.3206 24.3342,34.6126 24.2442,34.9566 L22.7492,40.5636 L17.7272,40.5456 L16.3872,35.4666 C16.2872,35.0686 15.9932,34.7566 15.5942,34.6316 C13.8662,34.0996 12.2882,33.2496 10.9022,32.1066 C10.6132,31.8676 10.2202,31.7816 9.8532,31.8766 L5.0272,33.1546 L2.5302,28.7966 L5.9072,25.4766 C6.1912,25.1946 6.3122,24.7916 6.2292,24.3976 C6.0212,23.4106 5.9172,22.4316 5.9212,21.4906 C5.9242,20.7076 6.0012,19.8986 6.1492,19.0886 C6.2212,18.7116 6.1022,18.3236 5.8282,18.0426 L1.9382,14.1296 L4.4682,9.7906 L9.7732,11.2596 C10.1422,11.3636 10.5392,11.2816 10.8462,11.0306 C12.2722,9.8386 13.8892,8.9646 15.6502,8.4326 C16.0952,8.2986 16.4202,7.9156 16.4792,7.4556 L16.5912,6.5716 C16.6532,6.0826 16.3062,5.6346 15.8172,5.5726 C15.3242,5.5096 14.8802,5.8586 14.8182,6.3466 L14.7552,6.8416 C13.0072,7.4186 11.3912,8.2976 9.9502,9.4556 L4.4892,7.9416 C3.9722,7.8056 3.4262,8.0256 3.1592,8.4856 L0.1582,13.6356 C-0.1078,14.0956 -0.0328,14.6796 0.3422,15.0586 L4.3382,19.0786 C4.2052,19.8896 4.1372,20.6976 4.1342,21.4836 C4.1302,22.4466 4.2252,23.4386 4.4152,24.4376 L0.9502,27.8446 C0.5622,28.2176 0.4782,28.8066 0.7462,29.2776 L3.7132,34.4576 C3.9792,34.9096 4.5212,35.1386 5.0332,35.0006 L10.0102,33.6836 C11.4302,34.8066 13.0192,35.6646 14.7422,36.2356 L16.1192,41.4576 C16.2572,41.9716 16.7252,42.3316 17.2542,42.3316 L23.2162,42.3526 C23.7492,42.3526 24.2182,41.9926 24.3552,41.4776 L25.8942,35.7046 C27.1042,35.1656 28.2462,34.4696 29.2972,33.6266 L34.7602,35.1416 C35.2772,35.2786 35.8232,35.0586 36.0892,34.5966 L39.0862,29.4506 C39.3572,28.9886 39.2822,28.4016 38.9052,28.0226 L34.9102,24.0026 C35.0432,23.1866 35.1122,22.3786 35.1162,21.5966 C35.1182,21.0306 35.0802,20.4386 35.0012,19.7896 L39.6262,15.2416 C40.0102,14.8676 40.0932,14.2806 39.8262,13.8116" id="Fill-10" fill="#58595B" mask="url(#mask-2)"></path>
            </g>
        </g>
    </g>
</svg>