<?xml version="1.0" encoding="UTF-8"?>
<svg width="48px" height="48px" viewBox="0 0 48 48" version="1.1" xmlns="http://www.w3.org/2000/svg" xmlns:xlink="http://www.w3.org/1999/xlink">
    <!-- Generator: Sketch 62 (91390) - https://sketch.com -->
    <title>iconografia/marca/on/configuracion</title>
    <desc>Created with Sketch.</desc>
    <defs>
        <polygon id="path-1" points="0.63129924 0.169996339 38.6834846 0.169996339 38.6834846 40 0.63129924 40"></polygon>
        <polygon id="path-3" points="0.0703599077 0.733 40.0514043 0.733 40.0514043 42.3526 0.0703599077 42.3526"></polygon>
    </defs>
    <g id="iconografia/marca/on/configuracion" stroke="none" stroke-width="1" fill="none" fill-rule="evenodd">
        <g id="Group-23" transform="translate(4.000000, 2.000000)">
            <g id="Group-3" transform="translate(2.000000, 3.267500)">
                <mask id="mask-2" fill="white">
                    <use xlink:href="#path-1"></use>
                </mask>
                <g id="Clip-2"></g>
                <path d="M15.9399,0.169996339 L22.7679,0.191 C23.0259,0.191 23.2519,0.366 23.3179,0.615 L24.8259,6.34 C24.8699,6.508 24.9899,6.645 25.1489,6.715 C26.4729,7.296 27.6859,8.073 28.7699,9.001 C28.9129,9.123 29.1049,9.169 29.2859,9.122 L35.2259,7.55 C35.4759,7.484 35.7389,7.594 35.8669,7.818 L38.6079,12.607 C38.7369,12.832 38.6979,13.115 38.5129,13.297 L33.9269,17.806 C33.7989,17.933 33.7389,18.111 33.7619,18.289 C33.8419,18.894 33.8909,19.508 33.8889,20.136 C33.8849,20.962 33.8059,21.768 33.6699,22.556 C33.6389,22.739 33.6949,22.925 33.8259,23.057 L37.7849,27.039 C37.9659,27.223 38.0029,27.505 37.8729,27.728 L35.0959,32.5 C34.9649,32.724 34.6999,32.832 34.4499,32.762 L29.0409,31.263 C28.8619,31.213 28.6709,31.256 28.5269,31.374 C27.4829,32.229 26.3209,32.945 25.0649,33.488 C24.9049,33.557 24.7839,33.694 24.7389,33.862 L23.2159,39.577 C23.1489,39.827 22.9219,40.001 22.6619,40.0000043 L17.1429,39.98 C16.8849,39.979 16.6599,39.805 16.5939,39.555 L15.2279,34.377 C15.1779,34.188 15.0339,34.04 14.8469,33.981 C13.1049,33.424 11.5039,32.554 10.1129,31.43 C9.9709,31.316 9.7849,31.273 9.6089,31.32 L4.6829,32.624 C4.4329,32.69 4.1709,32.58 4.0419,32.356 L1.2979,27.566 C1.1689,27.341 1.2079,27.058 1.3929,26.876 L4.8339,23.494 C4.9719,23.357 5.0289,23.162 4.9909,22.972 C4.7999,22.021 4.6899,21.039 4.6949,20.03 C4.6979,19.204 4.7759,18.398 4.9129,17.613 C4.9439,17.429 4.8879,17.243 4.7569,17.111 L0.7969,13.126 C0.6149,12.943 0.5789,12.66 0.7089,12.437 L3.4879,7.667 C3.6179,7.443 3.8829,7.335 4.1329,7.404 L9.5409,8.903 C9.7199,8.952 9.9109,8.909 10.0539,8.792 C11.4679,7.635 13.0999,6.738 14.8839,6.174 C15.0969,6.106 15.2539,5.925 15.2819,5.703 L15.3709,5.002 L15.4699,0.628 C15.4749,0.373 15.6849,0.169 15.9399,0.169996339" id="Fill-1" fill="#FCD603" mask="url(#mask-2)"></path>
            </g>
            <path d="M26.459,22.7178 C26.775,26.0798 23.962,28.8638 20.604,28.5128 C18.121,28.2528 16.123,26.2338 15.891,23.7478 C15.578,20.3898 18.385,17.6098 21.741,17.9558 C24.225,18.2128 26.225,20.2318 26.459,22.7178" id="Fill-4" fill="#B5B5B5"></path>
            <path d="M15.5464,4.96 C15.6464,5 15.7464,5.021 15.8564,5.021 C16.0764,5.021 16.2764,4.94 16.4364,4.78 C16.5864,4.63 16.6664,4.43 16.6664,4.21 C16.6664,4 16.5864,3.79 16.4364,3.63 C16.3564,3.561 16.2664,3.5 16.1664,3.46 C15.9664,3.38 15.7464,3.38 15.5464,3.46 C15.4464,3.5 15.3564,3.561 15.2764,3.63 C15.1264,3.79 15.0464,4 15.0464,4.21 C15.0464,4.43 15.1264,4.63 15.2764,4.78 C15.3564,4.86 15.4464,4.92 15.5464,4.96" id="Fill-13" fill="#5C5C60"></path>
            <path d="M20.0435,17.3955 C20.1975,17.3955 20.3535,17.4035 20.5085,17.4185 C22.5845,17.6335 24.2335,19.2975 24.4285,21.3755 C24.5545,22.7105 24.0845,24.0135 23.1395,24.9485 C22.1945,25.8825 20.8935,26.3375 19.5565,26.1985 C17.4805,25.9815 15.8345,24.3165 15.6405,22.2395 C15.5165,20.9065 15.9855,19.6065 16.9275,18.6725 C17.7605,17.8475 18.8765,17.3955 20.0435,17.3955 M13.8605,22.4055 C14.1335,25.3275 16.4505,27.6695 19.3705,27.9755 C19.5915,27.9995 19.8125,28.0105 20.0325,28.0105 C21.6645,28.0095 23.2265,27.3755 24.3965,26.2185 C25.7235,24.9055 26.3835,23.0795 26.2085,21.2085 C25.9335,18.2855 23.6135,15.9435 20.6925,15.6415 C18.8235,15.4455 16.9945,16.0905 15.6705,17.4035 C14.3465,18.7135 13.6875,20.5375 13.8605,22.4055" id="Fill-15" fill="#5C5C60"></path>
            <g id="Group-19" transform="translate(0.000000, 0.267500)">
                <mask id="mask-4" fill="white">
                    <use xlink:href="#path-3"></use>
                </mask>
                <g id="Clip-18"></g>
                <path d="M39.896,13.8116 L36.936,8.6406 C36.67,8.1786 36.125,7.9506 35.612,8.0876 L29.625,9.6716 C28.523,8.7476 27.322,7.9906 26.052,7.4166 L24.529,1.6316 C24.392,1.1166 23.923,0.7556 23.393,0.7556 L15.886,0.7326 L15.883,0.7326 C15.391,0.7326 14.991,1.1306 14.989,1.6236 C14.988,2.1166 15.387,2.5176 15.88,2.5196 L22.92,2.5406 L24.399,8.1586 C24.49,8.5066 24.734,8.7906 25.075,8.9396 C26.376,9.4966 27.595,10.2666 28.704,11.2346 C29,11.4906 29.4,11.5816 29.772,11.4816 L35.617,9.9356 L38.112,14.2926 L33.599,18.7306 C33.334,18.9926 33.209,19.3696 33.262,19.7266 C33.357,20.4276 33.401,21.0196 33.398,21.5886 C33.395,22.3776 33.319,23.1666 33.17,23.9946 C33.097,24.3816 33.221,24.7776 33.491,25.0396 L37.379,28.9516 L34.852,33.2926 L29.546,31.8226 C29.171,31.7156 28.77,31.8016 28.472,32.0516 C27.412,32.9366 26.242,33.6516 24.99,34.1776 C24.657,34.3206 24.404,34.6126 24.314,34.9566 L22.819,40.5636 L17.797,40.5456 L16.458,35.4666 C16.358,35.0696 16.064,34.7576 15.664,34.6316 C13.937,34.0996 12.358,33.2496 10.973,32.1066 C10.683,31.8676 10.291,31.7816 9.923,31.8766 L5.097,33.1546 L2.601,28.7966 L5.975,25.4796 C6.261,25.1976 6.383,24.7926 6.3,24.3976 C6.092,23.4106 5.988,22.4326 5.991,21.4906 C5.994,20.7086 6.071,19.8996 6.222,19.0806 C6.288,18.7056 6.169,18.3196 5.898,18.0426 L2.009,14.1296 L4.538,9.7906 L9.844,11.2596 C10.214,11.3636 10.61,11.2806 10.917,11.0306 C12.342,9.8386 13.959,8.9646 15.721,8.4326 C16.163,8.2996 16.488,7.9176 16.549,7.4556 L16.661,6.5716 C16.724,6.0826 16.377,5.6346 15.888,5.5726 C15.393,5.5046 14.951,5.8576 14.889,6.3466 L14.826,6.8416 C13.076,7.4186 11.461,8.2976 10.02,9.4556 L4.56,7.9416 C4.043,7.8056 3.497,8.0256 3.23,8.4856 L0.229,13.6356 C-0.038,14.0966 0.038,14.6816 0.412,15.0586 L4.408,19.0786 C4.275,19.8906 4.207,20.6996 4.204,21.4846 C4.201,22.4466 4.295,23.4396 4.485,24.4376 L1.018,27.8466 C0.632,28.2196 0.549,28.8076 0.816,29.2776 L3.779,34.4496 C4.042,34.9076 4.587,35.1396 5.104,35.0006 L10.081,33.6836 C11.5,34.8066 13.09,35.6646 14.813,36.2356 L16.189,41.4576 C16.328,41.9716 16.795,42.3316 17.324,42.3316 L23.285,42.3526 C23.819,42.3526 24.289,41.9926 24.425,41.4776 L25.964,35.7046 C27.174,35.1656 28.316,34.4696 29.368,33.6266 L34.829,35.1406 C35.347,35.2836 35.894,35.0586 36.16,34.5966 L39.158,29.4476 C39.426,28.9876 39.352,28.4026 38.976,28.0226 L34.981,24.0026 C35.113,23.1866 35.182,22.3786 35.186,21.5976 C35.188,21.0386 35.151,20.4466 35.071,19.7886 L39.7,15.2386 C40.08,14.8636 40.162,14.2786 39.896,13.8116" id="Fill-17" fill="#5C5C60" mask="url(#mask-4)"></path>
            </g>
        </g>
    </g>
</svg>