<?xml version="1.0" encoding="UTF-8"?>
<svg width="48px" height="48px" viewBox="0 0 48 48" version="1.1" xmlns="http://www.w3.org/2000/svg" xmlns:xlink="http://www.w3.org/1999/xlink">
    <!-- Generator: Sketch 62 (91390) - https://sketch.com -->
    <title>iconografia/marca/off/correo</title>
    <desc>Created with Sketch.</desc>
    <defs>
        <polygon id="path-1" points="0 0.872849408 1.6298 0.872849408 1.6298 2.498 0 2.498"></polygon>
        <polygon id="path-3" points="0.0026 0.809 41.0856 0.809 41.0856 33.9996 0.0026 33.9996"></polygon>
    </defs>
    <g id="iconografia/marca/off/correo" stroke="none" stroke-width="1" fill="none" fill-rule="evenodd">
        <g id="Page-1" transform="translate(3.000000, 7.000000)">
            <g id="Group-3" transform="translate(0.000000, 24.191400)">
                <mask id="mask-2" fill="white">
                    <use xlink:href="#path-1"></use>
                </mask>
                <g id="Clip-2"></g>
                <path d="M0.8198,2.498 C1.0298,2.498 1.2398,2.418 1.3898,2.258 C1.5498,2.107 1.6298,1.897 1.6298,1.687 C1.6298,1.578 1.6098,1.477 1.5698,1.368 C1.5298,1.277 1.4698,1.187 1.3898,1.107 C1.3198,1.038 1.2298,0.977 1.1298,0.937 C0.8298,0.808 0.4698,0.878 0.2398,1.107 C0.1698,1.187 0.1098,1.277 0.0698,1.368 C0.0198,1.468 -0.0002,1.578 -0.0002,1.687 C-0.0002,1.897 0.0898,2.107 0.2398,2.258 C0.3898,2.418 0.5998,2.498 0.8198,2.498" id="Fill-1" fill="#5C5C60" mask="url(#mask-2)"></path>
            </g>
            <g id="Group-6" transform="translate(0.000000, 0.191400)">
                <mask id="mask-4" fill="white">
                    <use xlink:href="#path-3"></use>
                </mask>
                <g id="Clip-5"></g>
                <path d="M36.3276,0.8086 L4.7626,0.8086 C2.1386,0.8086 0.0026,2.9436 0.0026,5.5676 L0.0026,23.2146 C0.0026,23.6636 0.3676,24.0286 0.8166,24.0286 C1.2656,24.0286 1.6296,23.6636 1.6296,23.2146 L1.6296,5.5676 C1.6296,3.8406 3.0356,2.4356 4.7626,2.4356 L36.3276,2.4356 C38.0546,2.4356 39.4586,3.8406 39.4586,5.5676 L39.4586,29.2426 C39.4586,30.9686 38.0546,32.3726 36.3276,32.3726 L4.7626,32.3726 C3.0356,32.3726 1.6296,30.9686 1.6296,29.2426 L1.6296,28.1006 C1.6296,27.6516 1.2656,27.2876 0.8166,27.2876 C0.3676,27.2876 0.0026,27.6516 0.0026,28.1006 L0.0026,29.2426 C0.0026,31.8656 2.1386,33.9996 4.7626,33.9996 L36.3276,33.9996 C38.9516,33.9996 41.0856,31.8656 41.0856,29.2426 L41.0856,5.5676 C41.0856,2.9436 38.9516,0.8086 36.3276,0.8086" id="Fill-4" fill="#5C5C60" mask="url(#mask-4)"></path>
            </g>
            <path d="M37.0547,9.3408 C36.8527,8.9388 36.3647,8.7768 35.9637,8.9768 L20.5447,16.6868 L5.1257,8.9768 C4.7247,8.7768 4.2357,8.9388 4.0347,9.3408 C3.8337,9.7428 3.9967,10.2318 4.3987,10.4318 L11.5037,13.9848 L4.0647,26.3838 C3.8337,26.7698 3.9587,27.2698 4.3437,27.4998 C4.4747,27.5788 4.6187,27.6158 4.7617,27.6158 C5.0377,27.6158 5.3067,27.4758 5.4597,27.2218 L12.9637,14.7148 L20.5447,18.5048 L28.1257,14.7148 L35.6297,27.2218 C35.7827,27.4758 36.0517,27.6158 36.3277,27.6158 C36.4707,27.6158 36.6147,27.5788 36.7457,27.4998 C37.1307,27.2698 37.2557,26.7698 37.0247,26.3838 L29.5857,13.9848 L36.6907,10.4318 C37.0927,10.2318 37.2557,9.7428 37.0547,9.3408" id="Fill-7" fill="#5C5C60"></path>
        </g>
    </g>
</svg>