<?xml version="1.0" encoding="UTF-8"?>
<svg width="48px" height="48px" viewBox="0 0 48 48" version="1.1" xmlns="http://www.w3.org/2000/svg" xmlns:xlink="http://www.w3.org/1999/xlink">
    <!-- Generator: Sketch 62 (91390) - https://sketch.com -->
    <title>iconografia/marca/on/correo</title>
    <desc>Created with Sketch.</desc>
    <defs>
        <polygon id="path-1" points="0.9233 0.4347 40.379 0.4347 40.379 31.9997 0.9233 31.9997"></polygon>
        <polygon id="path-3" points="0.0002 0.706 41.0832 0.706 41.0832 33.8967 0.0002 33.8967"></polygon>
    </defs>
    <g id="iconografia/marca/on/correo" stroke="none" stroke-width="1" fill="none" fill-rule="evenodd">
        <g id="Group" transform="translate(3.000000, 6.000000)">
            <g id="Page-1">
                <g id="Group-3" transform="translate(2.000000, 3.294300)">
                    <mask id="mask-2" fill="white">
                        <use xlink:href="#path-1"></use>
                    </mask>
                    <g id="Clip-2"></g>
                    <path d="M0.9233,26.9137 L0.9233,28.0557 C0.9233,30.2337 2.6903,31.9997 4.8693,31.9997 L36.4343,31.9997 C38.6133,31.9997 40.3793,30.2337 40.3793,28.0557 L40.3793,4.3807 C40.3793,2.2017 38.6133,0.4347 36.4343,0.4347 L4.8693,0.4347 C2.6903,0.4347 0.9233,2.2017 0.9233,4.3807 L0.9233,22.0277" id="Fill-1" fill="#FCD603" mask="url(#mask-2)"></path>
                </g>
                <path d="M0.501,26.6289 C0.601,26.6689 0.701,26.6899 0.811,26.6899 C1.031,26.6899 1.231,26.6089 1.391,26.4489 C1.541,26.2989 1.631,26.0889 1.631,25.8789 C1.631,25.7699 1.611,25.6689 1.561,25.5599 C1.521,25.4689 1.461,25.3789 1.391,25.2989 C1.311,25.2299 1.221,25.1689 1.121,25.1289 C0.921,25.0389 0.701,25.0389 0.501,25.1289 C0.401,25.1689 0.311,25.2299 0.241,25.2989 C0.161,25.3789 0.101,25.4689 0.061,25.5599 C0.021,25.6689 0.001,25.7699 0.001,25.8789 C0.001,26.0889 0.081,26.2989 0.241,26.4489 C0.311,26.5289 0.401,26.5889 0.501,26.6289" id="Fill-4" fill="#5C5C60"></path>
                <g id="Group-8" transform="translate(0.000000, 0.294300)">
                    <mask id="mask-4" fill="white">
                        <use xlink:href="#path-3"></use>
                    </mask>
                    <g id="Clip-7"></g>
                    <path d="M36.3242,0.7057 L4.7592,0.7057 C2.1352,0.7057 0.0002,2.8407 0.0002,5.4647 L0.0002,23.1117 C0.0002,23.5607 0.3642,23.9257 0.8132,23.9257 C1.2622,23.9257 1.6272,23.5607 1.6272,23.1117 L1.6272,5.4647 C1.6272,3.7377 3.0322,2.3327 4.7592,2.3327 L36.3242,2.3327 C38.0512,2.3327 39.4562,3.7377 39.4562,5.4647 L39.4562,29.1397 C39.4562,30.8657 38.0512,32.2697 36.3242,32.2697 L4.7592,32.2697 C3.0322,32.2697 1.6272,30.8657 1.6272,29.1397 L1.6272,27.9977 C1.6272,27.5487 1.2622,27.1847 0.8132,27.1847 C0.3642,27.1847 0.0002,27.5487 0.0002,27.9977 L0.0002,29.1397 C0.0002,31.7627 2.1352,33.8967 4.7592,33.8967 L36.3242,33.8967 C38.9482,33.8967 41.0832,31.7627 41.0832,29.1397 L41.0832,5.4647 C41.0832,2.8407 38.9482,0.7057 36.3242,0.7057" id="Fill-6" fill="#5C5C60" mask="url(#mask-4)"></path>
                </g>
                <path d="M35.9604,8.977 L20.5414,16.686 L5.1224,8.977 C4.7214,8.776 4.2324,8.938 4.0314,9.341 C3.8304,9.743 3.9934,10.231 4.3954,10.432 L11.5004,13.985 L4.0614,26.384 C3.8304,26.769 3.9554,27.269 4.3404,27.5 C4.4714,27.579 4.6154,27.616 4.7574,27.616 C5.0344,27.616 5.3034,27.476 5.4564,27.222 L12.9604,14.715 L20.5414,18.505 L28.1224,14.714 L35.6264,27.222 C35.7794,27.476 36.0484,27.616 36.3254,27.616 C36.4674,27.616 36.6114,27.579 36.7424,27.5 C37.1274,27.269 37.2524,26.769 37.0224,26.384 L29.5824,13.984 L36.6884,10.432 C37.0894,10.231 37.2524,9.743 37.0514,9.341 C36.8504,8.938 36.3614,8.776 35.9604,8.977" id="Fill-9" fill="#5C5C60"></path>
            </g>
        </g>
    </g>
</svg>