<?xml version="1.0" encoding="UTF-8"?>
<svg width="48px" height="48px" viewBox="0 0 48 48" version="1.1" xmlns="http://www.w3.org/2000/svg" xmlns:xlink="http://www.w3.org/1999/xlink">
    <!-- Generator: Sketch 62 (91390) - https://sketch.com -->
    <title>iconografia/marca/on/corresponsal</title>
    <desc>Created with Sketch.</desc>
    <g id="iconografia/marca/on/corresponsal" stroke="none" stroke-width="1" fill="none" fill-rule="evenodd">
        <circle id="Oval-4" fill="#FCD603" fill-rule="nonzero" cx="25" cy="8" r="4"></circle>
        <rect id="Rectangle" fill="#B5B5B5" fill-rule="nonzero" x="21" y="14" width="7" height="9" rx="1"></rect>
        <path d="M5.67382547,15.9999649 L14.2075195,15.9999649 C14.7598043,15.9999649 15.2075195,16.4476802 15.2075195,16.9999649 C15.2075195,17.3389252 15.2075195,17.6778855 15.2075195,18.0168457 C15.2075195,18.2495931 14,18.1988932 14,18.4316406 C14,19.1483187 14,20.3377571 14,21.9999558 C14.0000442,22.552265 13.5523092,23 13,23 L7,23 C6.44771525,23 6,22.5522847 6,22 L6,18.4316406 L6,18.4316406 L4.67382547,18.0168457 L4.67382547,16.9999649 C4.67382547,16.4476802 5.12154072,15.9999649 5.67382547,15.9999649 Z" id="Rectangle" fill="#B5B5B5" fill-rule="nonzero"></path>
        <rect id="Rectangle-2" fill="#FCD603" fill-rule="nonzero" x="7" y="24" width="38" height="4" rx="1"></rect>
        <path d="M8,27 L43,27 C43.5522847,27 44,27.4477153 44,28 L44,41 C44,42.6568542 42.6568542,44 41,44 L10,44 C8.34314575,44 7,42.6568542 7,41 L7,28 C7,27.4477153 7.44771525,27 8,27 Z" id="Rectangle-2" fill="#FCD603" fill-rule="nonzero"></path>
        <g id="clerk" transform="translate(4.000000, 2.000000)" fill="#5C5C60" fill-rule="nonzero">
            <path d="M39.6774194,19.8387097 L27.7741935,19.8387097 L27.7741935,12.5645161 C27.7741935,10.1984194 25.9880484,8.24364516 23.6940323,7.97119355 C24.5761935,7.12804839 25.1290323,5.94301613 25.1290323,4.62903226 C25.1290323,2.07645161 23.0519194,0 20.5,0 C17.9480806,0 15.8709677,2.07645161 15.8709677,4.62903226 C15.8709677,5.94301613 16.4238065,7.12804839 17.3059677,7.97119355 C15.0119516,8.24364516 13.2258065,10.1984194 13.2258065,12.5645161 L13.2258065,19.8387097 L10.5806452,19.8387097 L10.5806452,17.1935484 L10.9032258,17.1935484 C11.4555106,17.1935484 11.9032258,16.7458331 11.9032258,16.1935484 L11.9032258,14.2258065 C11.9032258,13.6735217 11.4555106,13.2258065 10.9032258,13.2258065 L1.32258065,13.2258065 L1.32258065,13.2258065 L1.32258065,9.91935484 L3.96774194,9.91935484 L3.96774194,10.9032258 C3.96774194,11.4555106 4.41545719,11.9032258 4.96774194,11.9032258 L10.9032258,11.9032258 C11.4555106,11.9032258 11.9032258,11.4555106 11.9032258,10.9032258 L11.9032258,7.61290323 C11.9032258,7.06061848 11.4555106,6.61290323 10.9032258,6.61290323 L4.96774194,6.61290323 C4.41545719,6.61290323 3.96774194,7.06061848 3.96774194,7.61290323 L3.96774194,8.59677419 L3.96774194,8.59677419 L1,8.59677419 C0.44771525,8.59677419 -6.22746887e-16,9.04448944 0,9.59677419 L0,13.2258065 L0,13.2258065 L0,13.8870968 L0,16.1935484 C-1.89447421e-15,16.7458331 0.44771525,17.1935484 1,17.1935484 L1.32258065,17.1935484 L1.32258065,17.1935484 L1.32258065,19.8387097 C0.593177419,19.8387097 0,20.4318871 0,21.1612903 L0,23.8064516 C0,24.5358548 0.593177419,25.1290323 1.32258065,25.1290323 L1.32258065,37.6935484 C1.32258065,39.5167258 2.80585484,41 4.62903226,41 L36.3709677,41 C38.1941452,41 39.6774194,39.5167258 39.6774194,37.6935484 L39.6774194,25.1290323 C40.4068226,25.1290323 41,24.5358548 41,23.8064516 L41,21.1612903 C41,20.4318871 40.4068226,19.8387097 39.6774194,19.8387097 Z M5.29032258,7.93548387 L10.5806452,7.93548387 L10.5806452,10.5806452 L5.29032258,10.5806452 L5.29032258,7.93548387 Z M23.8064516,9.32485484 C25.3135323,9.63235484 26.4516129,10.9681613 26.4516129,12.5645161 L26.4516129,19.8387097 L25.1290323,19.8387097 L25.1290323,12.9520323 L23.8064516,11.6294516 L23.8064516,9.32485484 Z M17.1935484,4.62903226 C17.1935484,2.80585484 18.6768226,1.32258065 20.5,1.32258065 C22.3231774,1.32258065 23.8064516,2.80585484 23.8064516,4.62903226 C23.8064516,6.45220968 22.3231774,7.93548387 20.5,7.93548387 C18.6768226,7.93548387 17.1935484,6.45220968 17.1935484,4.62903226 Z M22.483871,9.25806452 L22.483871,11.2419355 L18.516129,11.2419355 L18.516129,9.25806452 L22.483871,9.25806452 Z M18.1286129,12.5645161 L22.8713871,12.5645161 L23.8064516,13.4995806 L23.8064516,19.8387097 L17.1935484,19.8387097 L17.1935484,13.4995806 L18.1286129,12.5645161 Z M14.5483871,12.5645161 C14.5483871,10.9681613 15.6864677,9.63235484 17.1935484,9.32485484 L17.1935484,11.6294516 L15.8709677,12.9520323 L15.8709677,19.8387097 L14.5483871,19.8387097 L14.5483871,12.5645161 Z M1.32258065,14.5483871 L10.5806452,14.5483871 L10.5806452,15.8709677 L1.32258065,15.8709677 L1.32258065,14.5483871 Z M9.25806452,17.1935484 L9.25806452,19.8387097 L2.64516129,19.8387097 L2.64516129,17.1935484 L9.25806452,17.1935484 Z M38.3548387,37.6935484 C38.3548387,38.7873226 37.4647419,39.6774194 36.3709677,39.6774194 L4.62903226,39.6774194 C3.53525806,39.6774194 2.64516129,38.7873226 2.64516129,37.6935484 L2.64516129,35.7096774 L38.3548387,35.7096774 L38.3548387,37.6935484 Z M2.64516129,34.3870968 L2.64516129,25.1290323 L6.61290323,25.1290323 L6.61290323,34.3870968 L2.64516129,34.3870968 Z M13.2258065,25.7903226 L13.2258065,25.1290323 L13.2258065,25.1290323 L17.1935484,25.1290323 L17.1935484,34.3870968 L13.2258065,34.3870968 L13.2258065,28.4354839 C13.2258065,28.0702633 12.9297367,27.7741935 12.5645161,27.7741935 C12.1992956,27.7741935 11.9032258,28.0702633 11.9032258,28.4354839 L11.9032258,34.3870968 L11.9032258,34.3870968 L7.93548387,34.3870968 L7.93548387,25.1290323 L11.9032258,25.1290323 L11.9032258,25.7903226 C11.9032258,26.1555431 12.1992956,26.4516129 12.5645161,26.4516129 C12.9297367,26.4516129 13.2258065,26.1555431 13.2258065,25.7903226 Z M18.516129,34.3870968 L18.516129,25.1290323 L22.483871,25.1290323 L22.483871,34.3870968 L18.516129,34.3870968 Z M23.8064516,34.3870968 L23.8064516,25.1290323 L27.7741935,25.1290323 L27.7741935,34.3870968 L23.8064516,34.3870968 Z M38.3548387,34.3870968 L34.3870968,34.3870968 L34.3870968,33.7258065 C34.3870968,33.3605859 34.091027,33.0645161 33.7258065,33.0645161 C33.3605859,33.0645161 33.0645161,33.3605859 33.0645161,33.7258065 L33.0645161,34.3870968 L33.0645161,34.3870968 L29.0967742,34.3870968 L29.0967742,25.1290323 L33.0645161,25.1290323 L33.0645161,31.0806452 C33.0645161,31.4458657 33.3605859,31.7419355 33.7258065,31.7419355 C34.091027,31.7419355 34.3870968,31.4458657 34.3870968,31.0806452 L34.3870968,25.1290323 L34.3870968,25.1290323 L38.3548387,25.1290323 L38.3548387,34.3870968 Z M39.6774194,23.8064516 L1.32258065,23.8064516 L1.32258065,21.1612903 L10.5806452,21.1612903 L13.2258065,21.1612903 L27.7741935,21.1612903 L39.6774194,21.1612903 L39.6774194,23.8064516 Z" id="Shape"></path>
        </g>
    </g>
</svg>