<?xml version="1.0" encoding="UTF-8"?>
<svg width="48px" height="48px" viewBox="0 0 48 48" version="1.1" xmlns="http://www.w3.org/2000/svg" xmlns:xlink="http://www.w3.org/1999/xlink">
    <!-- Generator: Sketch 62 (91390) - https://sketch.com -->
    <title>iconografia/marca/on/disponibilidad-dinero</title>
    <desc>Created with Sketch.</desc>
    <defs>
        <polygon id="path-1" points="0.7073 0.5851 19.9063 0.5851 19.9063 39 0.7073 39"></polygon>
        <polygon id="path-3" points="0 0.855 34.1148 0.855 34.1148 40.3627 0 40.3627"></polygon>
    </defs>
    <g id="iconografia/marca/on/disponibilidad-dinero" stroke="none" stroke-width="1" fill="none" fill-rule="evenodd">
        <g id="Page-1" transform="translate(7.000000, 3.000000)">
            <g id="Group-3" transform="translate(11.000000, 3.145400)">
                <mask id="mask-2" fill="white">
                    <use xlink:href="#path-1"></use>
                </mask>
                <g id="Clip-2"></g>
                <path d="M16.8893,39.0001 L3.7233,39.0001 C2.0573,39.0001 0.7073,37.6501 0.7073,35.9841 L0.7073,3.6011 C0.7073,1.9351 2.0573,0.5851 3.7233,0.5851 L16.8893,0.5851 C18.5553,0.5851 19.9063,1.9351 19.9063,3.6011 L19.9063,35.9841 C19.9063,37.6501 18.5553,39.0001 16.8893,39.0001" id="Fill-1" fill="#FCD600" mask="url(#mask-2)"></path>
            </g>
            <path d="M5.9831,15.3662 L11.0291,10.3202 L11.0291,10.3192 L14.7521,6.5982 C15.9201,5.4312 18.4851,5.4312 19.6531,6.5982 C20.1981,7.1442 20.5241,8.0612 20.5241,9.0492 C20.5241,10.0372 20.1981,10.9542 19.6531,11.5002 L9.9781,21.1752 C9.9101,21.2442 9.8541,21.3252 9.8161,21.4172 C9.7791,21.5082 9.7591,21.6052 9.7591,21.7022 L9.7591,38.5122 L2.7911,31.5422 C1.5241,30.2762 0.8291,28.5952 0.8291,26.8052 L0.8291,23.2962 C0.8291,22.1092 1.1341,20.9702 1.7111,19.9682" id="Fill-4" fill="#FFFFFF"></path>
            <path d="M24.2233,17.1264 C23.0363,16.0514 21.2433,15.3664 19.2353,15.3664 C15.6633,15.3664 12.7693,17.5334 12.7693,20.2074 C12.7693,22.8814 15.6633,25.0484 19.2353,25.0484 C20.5553,25.0484 21.7843,24.7524 22.8073,24.2434 C22.8073,24.2434 23.5513,23.8804 24.2233,23.5614" id="Fill-6" fill="#B4B4B4"></path>
            <path d="M30.2614,29.6606 L25.6094,29.6606 C23.9224,29.6606 22.5544,28.2926 22.5544,26.6056 L22.5544,26.5716 C22.5544,24.8846 23.9224,23.5166 25.6094,23.5166 L30.2614,23.5166 C31.9484,23.5166 33.3174,24.8846 33.3174,26.5716 L33.3174,26.6056 C33.3174,28.2926 31.9484,29.6606 30.2614,29.6606" id="Fill-8" fill="#FFFFFF"></path>
            <path d="M30.2614,23.5503 L25.6094,23.5503 C23.9224,23.5503 22.5544,22.1823 22.5544,20.4953 L22.5544,20.4613 C22.5544,18.7743 23.9224,17.4063 25.6094,17.4063 L30.2614,17.4063 C31.9484,17.4063 33.3174,18.7743 33.3174,20.4613 L33.3174,20.4953 C33.3174,22.1823 31.9484,23.5503 30.2614,23.5503" id="Fill-10" fill="#FFFFFF"></path>
            <path d="M30.2614,17.3716 L25.6094,17.3716 C23.9224,17.3716 22.5544,16.0036 22.5544,14.3166 L22.5544,14.2826 C22.5544,12.5956 23.9224,11.2276 25.6094,11.2276 L30.2614,11.2276 C31.9484,11.2276 33.3174,12.5956 33.3174,14.2826 L33.3174,14.3166 C33.3174,16.0036 31.9484,17.3716 30.2614,17.3716" id="Fill-12" fill="#FFFFFF"></path>
            <path d="M30.2614,35.7597 L25.6094,35.7597 C23.9224,35.7597 22.5544,34.3917 22.5544,32.7047 L22.5544,32.6707 C22.5544,30.9837 23.9224,29.6157 25.6094,29.6157 L30.2614,29.6157 C31.9484,29.6157 33.3174,30.9837 33.3174,32.6707 L33.3174,32.7047 C33.3174,34.3917 31.9484,35.7597 30.2614,35.7597" id="Fill-14" fill="#FFFFFF"></path>
            <g id="Group-18" transform="translate(0.000000, 0.145400)">
                <mask id="mask-4" fill="white">
                    <use xlink:href="#path-3"></use>
                </mask>
                <g id="Clip-17"></g>
                <path d="M30.2458,22.5577 L25.5948,22.5577 C25.5188,22.5577 25.4478,22.5757 25.3728,22.5797 C24.2418,22.4667 23.3518,21.5187 23.3518,20.3277 C23.3518,19.0917 24.3578,18.0857 25.5948,18.0857 L30.2458,18.0857 C31.4818,18.0857 32.4878,19.0917 32.4878,20.3607 C32.4878,21.5207 31.5998,22.4667 30.4688,22.5797 C30.3928,22.5757 30.3218,22.5577 30.2458,22.5577 L30.2458,22.5577 Z M32.4878,26.4597 C32.4878,27.6197 31.5998,28.5657 30.4688,28.6797 C30.3928,28.6747 30.3218,28.6567 30.2458,28.6567 L25.5948,28.6567 C25.5188,28.6567 25.4478,28.6747 25.3728,28.6797 C24.2418,28.5657 23.3518,27.6177 23.3518,26.4267 C23.3518,25.2667 24.2418,24.3207 25.3728,24.2067 C25.4478,24.2117 25.5178,24.2297 25.5948,24.2297 L30.2458,24.2297 C30.3218,24.2297 30.3928,24.2117 30.4688,24.2067 C31.5998,24.3207 32.4878,25.2687 32.4878,26.4597 L32.4878,26.4597 Z M32.4878,32.5597 C32.4878,33.7957 31.4818,34.8007 30.2458,34.8007 L25.5948,34.8007 C24.3578,34.8007 23.3518,33.7957 23.3518,32.5257 C23.3518,31.3657 24.2418,30.4197 25.3728,30.3067 C25.4478,30.3107 25.5178,30.3287 25.5948,30.3287 L30.2458,30.3287 C30.3218,30.3287 30.3928,30.3107 30.4688,30.3067 C31.5998,30.4197 32.4878,31.3677 32.4878,32.5597 L32.4878,32.5597 Z M27.8088,37.9427 C27.8088,38.3797 27.4528,38.7357 27.0158,38.7357 L25.3828,38.7357 C25.3798,38.6927 25.3618,38.6527 25.3618,38.6097 C25.3618,37.6147 26.0418,36.7457 27.0528,36.4467 L27.0478,36.4277 L27.8088,36.4277 L27.8088,37.9427 Z M10.5558,38.2407 L10.5538,35.8287 C10.6028,35.8317 10.6528,35.8187 10.7038,35.8247 C11.2978,35.8967 11.8278,36.2097 12.1978,36.7057 C12.5768,37.2137 12.7418,37.8517 12.6628,38.5017 C12.6528,38.5827 12.6238,38.6567 12.6068,38.7357 L11.2888,38.7357 C10.9568,38.7357 10.6738,38.5297 10.5558,38.2407 L10.5558,38.2407 Z M11.9488,20.1937 C12.0408,23.2497 15.2638,25.7167 19.2198,25.7167 C20.1548,25.7167 21.0648,25.5677 21.9168,25.3057 C21.8038,25.6717 21.7248,26.0547 21.7248,26.4597 C21.7248,27.6957 22.3178,28.7857 23.2238,29.4947 C22.3178,30.2057 21.7248,31.3047 21.7248,32.5597 C21.7248,34.3277 22.9248,35.8057 24.5468,36.2657 C24.0328,36.9227 23.7348,37.7367 23.7348,38.6097 C23.7348,38.6517 23.7438,38.6937 23.7448,38.7357 L14.2708,38.7357 C14.2728,38.7227 14.2768,38.7097 14.2778,38.6967 C14.4078,37.6307 14.1328,36.5787 13.5028,35.7337 C12.8638,34.8767 11.9398,34.3357 10.8988,34.2087 C10.7828,34.1947 10.6678,34.1977 10.5518,34.1937 L10.5378,21.6047 L11.9488,20.1937 Z M20.2128,11.9297 C20.9068,11.2347 21.3218,10.1037 21.3218,8.9037 C21.3218,7.7037 20.9068,6.5727 20.2128,5.8767 C18.7118,4.3787 15.6578,4.3797 14.1608,5.8777 L10.6788,9.3607 L10.4948,9.3607 L10.4948,6.3887 C12.7148,6.3747 14.5158,4.6347 14.5158,2.4957 C14.5158,2.4907 14.5148,2.4867 14.5148,2.4817 L23.7358,2.4817 C23.7358,2.4867 23.7348,2.4907 23.7348,2.4957 C23.7348,4.6437 25.5508,6.3907 27.7828,6.3907 C27.7918,6.3907 27.8008,6.3897 27.8078,6.3897 L27.8078,10.2687 L25.5948,10.2687 C23.4608,10.2687 21.7248,12.0037 21.7248,14.1707 C21.7248,14.3777 21.7558,14.5767 21.7868,14.7747 C20.9748,14.5387 20.1088,14.4077 19.2198,14.4077 C18.6578,14.4077 18.1128,14.4617 17.5868,14.5567 L20.2128,11.9297 Z M11.2878,2.4817 L12.8868,2.4817 C12.8868,2.4867 12.8888,2.4907 12.8888,2.4957 C12.8888,3.7387 11.8168,4.7477 10.4948,4.7617 L10.4948,3.2737 C10.4948,2.8367 10.8498,2.4817 11.2878,2.4817 L11.2878,2.4817 Z M27.8078,3.2737 L27.8078,4.7617 C27.8008,4.7617 27.7918,4.7647 27.7828,4.7647 C26.4478,4.7647 25.3618,3.7467 25.3618,2.4957 C25.3618,2.4907 25.3648,2.4867 25.3648,2.4817 L27.0168,2.4817 C27.4528,2.4817 27.8078,2.8367 27.8078,3.2737 L27.8078,3.2737 Z M32.4878,14.1707 C32.4878,15.4067 31.4818,16.4127 30.2458,16.4127 L25.5948,16.4127 C24.3578,16.4127 23.3518,15.4067 23.3518,14.1377 C23.3518,12.9017 24.3578,11.8957 25.5948,11.8957 L30.2458,11.8957 C31.4818,11.8957 32.4878,12.9017 32.4878,14.1707 L32.4878,14.1707 Z M22.9098,23.1367 C22.6298,23.2717 22.4328,23.3677 22.4298,23.3697 C21.4828,23.8407 20.3728,24.0897 19.2198,24.0897 C16.1028,24.0897 13.5668,22.2827 13.5668,20.0617 C13.5668,17.8417 16.1028,16.0347 19.2198,16.0347 C20.7558,16.0347 22.1778,16.4967 23.2418,17.2797 C22.3268,17.9917 21.7248,19.0967 21.7248,20.3607 C21.7248,21.4507 22.1828,22.4327 22.9098,23.1367 L22.9098,23.1367 Z M34.1148,20.3277 C34.1148,19.0657 33.4998,17.9547 32.5628,17.2477 C33.4998,16.5377 34.1148,15.4187 34.1148,14.1377 C34.1148,12.0037 32.3798,10.2687 30.2458,10.2687 L29.4348,10.2687 L29.4348,3.2737 C29.4348,1.9397 28.3498,0.8547 27.0168,0.8547 L11.2878,0.8547 C9.9538,0.8547 8.8678,1.9397 8.8678,3.2737 L8.8678,11.1697 L5.3918,14.6457 C5.0748,14.9637 5.0748,15.4787 5.3918,15.7957 C5.7108,16.1137 6.2248,16.1137 6.5428,15.7957 L15.3108,7.0287 C16.1698,6.1707 18.2018,6.1697 19.0618,7.0277 C19.4528,7.4177 19.6948,8.1367 19.6948,8.9037 C19.6948,9.6697 19.4528,10.3897 19.0618,10.7797 L9.3838,20.4577 C9.2388,20.6047 9.1268,20.7737 9.0478,20.9637 C8.9698,21.1537 8.9308,21.3537 8.9308,21.5567 L8.9308,36.4027 L3.3498,30.8217 C2.2388,29.7097 1.6268,28.2317 1.6268,26.6597 L1.6268,23.1507 C1.6268,22.1187 1.8938,21.1087 2.3998,20.2277 C2.6238,19.8377 2.4898,19.3407 2.0998,19.1177 C1.7098,18.8927 1.2138,19.0277 0.9898,19.4167 C0.3428,20.5437 -0.0002,21.8347 -0.0002,23.1507 L-0.0002,26.6597 C-0.0002,28.6657 0.7808,30.5527 2.1998,31.9717 L9.0348,38.8087 C9.2808,39.4447 9.7848,39.9487 10.4218,40.1947 L10.5578,40.3307 L10.5578,40.2377 C10.7898,40.3117 11.0328,40.3627 11.2888,40.3627 L27.0158,40.3627 C28.3498,40.3627 29.4358,39.2767 29.4358,37.9427 L29.4358,36.4277 L30.2458,36.4277 C32.3798,36.4277 34.1148,34.6927 34.1148,32.5257 C34.1148,31.2897 33.5218,30.2007 32.6178,29.4917 C33.5218,28.7797 34.1148,27.6817 34.1148,26.4267 C34.1148,25.1907 33.5218,24.1007 32.6178,23.3917 C33.5218,22.6807 34.1148,21.5827 34.1148,20.3277 L34.1148,20.3277 Z" id="Fill-16" fill="#5D5D61" mask="url(#mask-4)"></path>
            </g>
            <path d="M3.028,17.9263 C3.098,17.9963 3.188,18.0563 3.288,18.1063 C3.388,18.1463 3.498,18.1663 3.598,18.1663 C3.818,18.1663 4.028,18.0763 4.178,17.9263 C4.248,17.8463 4.308,17.7563 4.348,17.6663 C4.398,17.5563 4.418,17.4563 4.418,17.3463 C4.418,17.2463 4.398,17.1363 4.348,17.0363 C4.308,16.9363 4.248,16.8463 4.178,16.7763 C3.948,16.5463 3.588,16.4763 3.288,16.5963 C3.188,16.6363 3.098,16.6963 3.028,16.7763 C2.948,16.8463 2.888,16.9363 2.848,17.0363 C2.808,17.1363 2.788,17.2463 2.788,17.3463 C2.788,17.4563 2.808,17.5563 2.848,17.6663 C2.888,17.7663 2.948,17.8463 3.028,17.9263" id="Fill-19" fill="#5D5D61"></path>
        </g>
    </g>
</svg>