<?xml version="1.0" encoding="UTF-8"?>
<svg width="48px" height="48px" viewBox="0 0 48 48" version="1.1" xmlns="http://www.w3.org/2000/svg" xmlns:xlink="http://www.w3.org/1999/xlink">
    <!-- Generator: Sketch 62 (91390) - https://sketch.com -->
    <title>iconografia/marca/off/disponibilidad-dinero</title>
    <desc>Created with Sketch.</desc>
    <defs>
        <polygon id="path-1" points="0.0001 0.4923 34.115 0.4923 34.115 40 0.0001 40"></polygon>
    </defs>
    <g id="iconografia/marca/off/disponibilidad-dinero" stroke="none" stroke-width="1" fill="none" fill-rule="evenodd">
        <g id="Page-1" transform="translate(7.000000, 4.000000)">
            <g id="Group-3" transform="translate(0.000000, 0.507800)">
                <mask id="mask-2" fill="white">
                    <use xlink:href="#path-1"></use>
                </mask>
                <g id="Clip-2"></g>
                <path d="M30.2461,22.1953 L25.5951,22.1953 C25.5181,22.1953 25.4471,22.2133 25.3731,22.2173 C24.2421,22.1043 23.3521,21.1563 23.3521,19.9653 C23.3521,18.7293 24.3581,17.7233 25.5951,17.7233 L30.2461,17.7233 C31.4821,17.7233 32.4881,18.7293 32.4881,19.9983 C32.4881,21.1583 31.5991,22.1043 30.4681,22.2173 C30.3931,22.2133 30.3221,22.1953 30.2461,22.1953 L30.2461,22.1953 Z M32.4881,26.0973 C32.4881,27.2573 31.5991,28.2033 30.4681,28.3173 C30.3931,28.3123 30.3221,28.2943 30.2461,28.2943 L25.5951,28.2943 C25.5181,28.2943 25.4471,28.3123 25.3731,28.3173 C24.2421,28.2033 23.3521,27.2553 23.3521,26.0643 C23.3521,24.9043 24.2421,23.9583 25.3731,23.8443 C25.4471,23.8493 25.5181,23.8673 25.5951,23.8673 L30.2461,23.8673 C30.3221,23.8673 30.3921,23.8493 30.4681,23.8443 C31.5991,23.9583 32.4881,24.9063 32.4881,26.0973 L32.4881,26.0973 Z M32.4881,32.1973 C32.4881,33.4333 31.4821,34.4383 30.2461,34.4383 L25.5951,34.4383 C24.3581,34.4383 23.3521,33.4333 23.3521,32.1633 C23.3521,31.0033 24.2421,30.0573 25.3731,29.9443 C25.4471,29.9483 25.5181,29.9663 25.5951,29.9663 L30.2461,29.9663 C30.3221,29.9663 30.3921,29.9483 30.4681,29.9443 C31.5991,30.0573 32.4881,31.0053 32.4881,32.1973 L32.4881,32.1973 Z M27.8091,37.5803 C27.8091,38.0173 27.4531,38.3733 27.0161,38.3733 L25.3821,38.3733 C25.3801,38.3303 25.3621,38.2903 25.3621,38.2473 C25.3621,37.2523 26.0421,36.3833 27.0531,36.0843 L27.0471,36.0653 L27.8091,36.0653 L27.8091,37.5803 Z M10.5561,37.8783 L10.5531,35.4663 C10.6031,35.4693 10.6531,35.4563 10.7041,35.4623 C11.2981,35.5343 11.8281,35.8473 12.1981,36.3433 C12.5771,36.8513 12.7421,37.4893 12.6631,38.1393 C12.6531,38.2203 12.6241,38.2943 12.6061,38.3733 L11.2891,38.3733 C10.9571,38.3733 10.6741,38.1673 10.5561,37.8783 L10.5561,37.8783 Z M11.9491,19.8313 C12.0401,22.8873 15.2641,25.3543 19.2201,25.3543 C20.1541,25.3543 21.0641,25.2053 21.9161,24.9433 C21.8041,25.3093 21.7251,25.6923 21.7251,26.0973 C21.7251,27.3333 22.3181,28.4233 23.2241,29.1323 C22.3181,29.8433 21.7251,30.9423 21.7251,32.1973 C21.7251,33.9653 22.9241,35.4433 24.5471,35.9033 C24.0321,36.5603 23.7351,37.3743 23.7351,38.2473 C23.7351,38.2893 23.7441,38.3313 23.7451,38.3733 L14.2711,38.3733 C14.2731,38.3603 14.2761,38.3473 14.2781,38.3343 C14.4081,37.2683 14.1331,36.2163 13.5031,35.3713 C12.8641,34.5143 11.9401,33.9733 10.8991,33.8463 C10.7831,33.8323 10.6671,33.8353 10.5511,33.8313 L10.5381,21.2423 L11.9491,19.8313 Z M20.2131,11.5673 C20.9071,10.8723 21.3221,9.7413 21.3221,8.5413 C21.3221,7.3413 20.9071,6.2103 20.2131,5.5143 C18.7121,4.0163 15.6581,4.0173 14.1611,5.5153 L10.6791,8.9983 L10.4951,8.9983 L10.4951,6.0263 C12.7141,6.0123 14.5161,4.2723 14.5161,2.1333 C14.5161,2.1283 14.5151,2.1243 14.5151,2.1193 L23.7361,2.1193 C23.7361,2.1243 23.7351,2.1283 23.7351,2.1333 C23.7351,4.2813 25.5511,6.0283 27.7831,6.0283 C27.7921,6.0283 27.8001,6.0273 27.8081,6.0273 L27.8081,9.9063 L25.5951,9.9063 C23.4611,9.9063 21.7251,11.6413 21.7251,13.8083 C21.7251,14.0153 21.7551,14.2143 21.7871,14.4123 C20.9751,14.1763 20.1091,14.0453 19.2201,14.0453 C18.6571,14.0453 18.1121,14.0993 17.5871,14.1943 L20.2131,11.5673 Z M11.2881,2.1193 L12.8871,2.1193 C12.8871,2.1243 12.8891,2.1283 12.8891,2.1333 C12.8891,3.3763 11.8161,4.3853 10.4951,4.3993 L10.4951,2.9113 C10.4951,2.4743 10.8501,2.1193 11.2881,2.1193 L11.2881,2.1193 Z M27.8081,2.9113 L27.8081,4.3993 C27.8001,4.3993 27.7921,4.4023 27.7831,4.4023 C26.4481,4.4023 25.3621,3.3843 25.3621,2.1333 C25.3621,2.1283 25.3641,2.1243 25.3641,2.1193 L27.0171,2.1193 C27.4531,2.1193 27.8081,2.4743 27.8081,2.9113 L27.8081,2.9113 Z M32.4881,13.8083 C32.4881,15.0443 31.4821,16.0503 30.2461,16.0503 L25.5951,16.0503 C24.3581,16.0503 23.3521,15.0443 23.3521,13.7753 C23.3521,12.5393 24.3581,11.5333 25.5951,11.5333 L30.2461,11.5333 C31.4821,11.5333 32.4881,12.5393 32.4881,13.8083 L32.4881,13.8083 Z M22.9101,22.7743 C22.6291,22.9093 22.4331,23.0053 22.4301,23.0073 C21.4831,23.4783 20.3731,23.7273 19.2201,23.7273 C16.1031,23.7273 13.5671,21.9203 13.5671,19.6993 C13.5671,17.4793 16.1031,15.6723 19.2201,15.6723 C20.7561,15.6723 22.1771,16.1343 23.2421,16.9173 C22.3261,17.6293 21.7251,18.7343 21.7251,19.9983 C21.7251,21.0883 22.1831,22.0703 22.9101,22.7743 L22.9101,22.7743 Z M34.1151,19.9653 C34.1151,18.7033 33.5001,17.5923 32.5621,16.8853 C33.5001,16.1753 34.1151,15.0563 34.1151,13.7753 C34.1151,11.6413 32.3801,9.9063 30.2461,9.9063 L29.4351,9.9063 L29.4351,2.9113 C29.4351,1.5773 28.3501,0.4923 27.0171,0.4923 L11.2881,0.4923 C9.9541,0.4923 8.8681,1.5773 8.8681,2.9113 L8.8681,10.8073 L5.3921,14.2833 C5.0751,14.6013 5.0751,15.1163 5.3921,15.4333 C5.7111,15.7513 6.2251,15.7513 6.5431,15.4333 L15.3111,6.6663 C16.1701,5.8083 18.2021,5.8073 19.0621,6.6653 C19.4531,7.0553 19.6951,7.7743 19.6951,8.5413 C19.6951,9.3073 19.4531,10.0273 19.0621,10.4173 L9.3841,20.0953 C9.2391,20.2423 9.1271,20.4113 9.0481,20.6013 C8.9701,20.7913 8.9311,20.9913 8.9311,21.1943 L8.9311,36.0403 L3.3501,30.4593 C2.2391,29.3473 1.6271,27.8693 1.6271,26.2973 L1.6271,22.7883 C1.6271,21.7563 1.8941,20.7463 2.4001,19.8653 C2.6241,19.4753 2.4901,18.9783 2.1001,18.7553 C1.7101,18.5303 1.2141,18.6653 0.9901,19.0543 C0.3431,20.1813 0.0001,21.4723 0.0001,22.7883 L0.0001,26.2973 C0.0001,28.3033 0.7811,30.1903 2.2001,31.6093 L9.0351,38.4463 C9.2811,39.0823 9.7851,39.5863 10.4221,39.8323 L10.5581,39.9683 L10.5581,39.8753 C10.7901,39.9493 11.0321,40.0003 11.2891,40.0003 L27.0161,40.0003 C28.3501,40.0003 29.4361,38.9143 29.4361,37.5803 L29.4361,36.0653 L30.2461,36.0653 C32.3801,36.0653 34.1151,34.3303 34.1151,32.1633 C34.1151,30.9273 33.5221,29.8383 32.6171,29.1293 C33.5221,28.4173 34.1151,27.3193 34.1151,26.0643 C34.1151,24.8283 33.5221,23.7383 32.6171,23.0293 C33.5221,22.3183 34.1151,21.2203 34.1151,19.9653 L34.1151,19.9653 Z" id="Fill-1" fill="#5D5D61" mask="url(#mask-2)"></path>
            </g>
            <path d="M3.0283,17.9263 C3.0983,17.9963 3.1883,18.0563 3.2883,18.1063 C3.3883,18.1463 3.4983,18.1663 3.5983,18.1663 C3.8183,18.1663 4.0283,18.0763 4.1783,17.9263 C4.2483,17.8463 4.3083,17.7563 4.3483,17.6663 C4.3983,17.5563 4.4183,17.4563 4.4183,17.3463 C4.4183,17.2463 4.3983,17.1363 4.3483,17.0363 C4.3083,16.9363 4.2483,16.8463 4.1783,16.7763 C3.9483,16.5463 3.5883,16.4763 3.2883,16.5963 C3.1883,16.6363 3.0983,16.6963 3.0283,16.7763 C2.9483,16.8463 2.8883,16.9363 2.8483,17.0363 C2.8083,17.1363 2.7883,17.2463 2.7883,17.3463 C2.7883,17.4563 2.8083,17.5563 2.8483,17.6663 C2.8883,17.7663 2.9483,17.8463 3.0283,17.9263" id="Fill-4" fill="#5D5D61"></path>
        </g>
    </g>
</svg>