<?xml version="1.0" encoding="UTF-8"?>
<svg width="48px" height="48px" viewBox="0 0 48 48" version="1.1" xmlns="http://www.w3.org/2000/svg" xmlns:xlink="http://www.w3.org/1999/xlink">
    <!-- Generator: Sketch 62 (91390) - https://sketch.com -->
    <title>iconografia/marca/off/documento</title>
    <desc>Created with Sketch.</desc>
    <defs>
        <polygon id="path-1" points="0.0048 0.048 31.1788 0.048 31.1788 39.9999 0.0048 39.9999"></polygon>
    </defs>
    <g id="iconografia/marca/off/documento" stroke="none" stroke-width="1" fill="none" fill-rule="evenodd">
        <g id="Page-1" transform="translate(8.000000, 4.000000)">
            <g id="Group-3" transform="translate(0.000000, 0.951700)">
                <mask id="mask-2" fill="white">
                    <use xlink:href="#path-1"></use>
                </mask>
                <g id="Clip-2"></g>
                <path d="M20.5508,2.3779 L28.7618,10.7639 L20.5508,10.7639 L20.5508,2.3779 Z M30.4878,10.2009 L21.2588,0.7749 C20.8068,0.3139 20.1748,0.0479 19.5268,0.0479 L5.2428,0.0479 C2.3548,0.0479 0.0048,2.3989 0.0048,5.2869 L0.0048,22.5079 C0.0048,22.9569 0.3688,23.3209 0.8188,23.3209 C1.2678,23.3209 1.6318,22.9569 1.6318,22.5079 L1.6318,5.2869 C1.6318,3.2949 3.2518,1.6749 5.2428,1.6749 L18.9238,1.6749 L18.9238,12.3909 L29.5518,12.3909 L29.5518,34.7619 C29.5518,36.7529 27.9318,38.3729 25.9398,38.3729 L5.2428,38.3729 C3.2518,38.3729 1.6318,36.7529 1.6318,34.7619 L1.6318,27.8299 C1.6318,27.3799 1.2678,27.0159 0.8188,27.0159 C0.3688,27.0159 0.0048,27.3799 0.0048,27.8299 L0.0048,34.7619 C0.0048,37.6499 2.3548,39.9999 5.2428,39.9999 L25.9398,39.9999 C28.8278,39.9999 31.1788,37.6499 31.1788,34.7619 L31.1788,11.8919 C31.1778,11.2549 30.9318,10.6549 30.4878,10.2009 L30.4878,10.2009 Z" id="Fill-1" fill="#5C5C60" mask="url(#mask-2)"></path>
            </g>
            <path d="M0.8193,27.0796 C1.0293,27.0796 1.2403,26.9996 1.3893,26.8396 C1.5493,26.6896 1.6303,26.4796 1.6303,26.2696 C1.6303,26.0496 1.5493,25.8396 1.3893,25.6896 C1.0903,25.3896 0.5493,25.3896 0.2403,25.6896 C0.0903,25.8396 0.0003,26.0496 0.0003,26.2696 C0.0003,26.4796 0.0903,26.6896 0.2403,26.8396 C0.3993,26.9996 0.6093,27.0796 0.8193,27.0796" id="Fill-4" fill="#5C5C60"></path>
            <path d="M6.835,21.0176 L23.849,21.0176 C24.298,21.0176 24.662,20.6536 24.662,20.2046 C24.662,19.7546 24.298,19.3906 23.849,19.3906 L6.835,19.3906 C6.386,19.3906 6.022,19.7546 6.022,20.2046 C6.022,20.6536 6.386,21.0176 6.835,21.0176" id="Fill-6" fill="#5C5C60"></path>
            <path d="M6.835,26.5552 L20.455,26.5552 C20.904,26.5552 21.269,26.1912 21.269,25.7422 C21.269,25.2922 20.904,24.9282 20.455,24.9282 L6.835,24.9282 C6.386,24.9282 6.022,25.2922 6.022,25.7422 C6.022,26.1912 6.386,26.5552 6.835,26.5552" id="Fill-8" fill="#5C5C60"></path>
            <path d="M6.835,31.8072 L18.411,31.8072 C18.86,31.8072 19.225,31.4432 19.225,30.9942 C19.225,30.5442 18.86,30.1802 18.411,30.1802 L6.835,30.1802 C6.386,30.1802 6.022,30.5442 6.022,30.9942 C6.022,31.4432 6.386,31.8072 6.835,31.8072" id="Fill-10" fill="#5C5C60"></path>
        </g>
    </g>
</svg>