<?xml version="1.0" encoding="UTF-8"?>
<svg width="48px" height="48px" viewBox="0 0 48 48" version="1.1" xmlns="http://www.w3.org/2000/svg" xmlns:xlink="http://www.w3.org/1999/xlink">
    <!-- Generator: Sketch 62 (91390) - https://sketch.com -->
    <title>iconografia/marca/on/documento</title>
    <desc>Created with Sketch.</desc>
    <defs>
        <polygon id="path-1" points="0 0.382 31.1739 0.382 31.1739 40.3338 0 40.3338"></polygon>
    </defs>
    <g id="iconografia/marca/on/documento" stroke="none" stroke-width="1" fill="none" fill-rule="evenodd">
        <g id="Page-1" transform="translate(8.000000, 4.000000)">
            <path d="M2.4492,30.2607 L2.4492,37.1927 C2.4492,39.6367 4.4302,41.6177 6.8742,41.6177 L27.5702,41.6177 C30.0152,41.6177 31.9962,39.6367 31.9962,37.1927 L31.9962,14.3247 C31.9952,13.9047 31.8312,13.5017 31.5372,13.2017 L22.3082,3.7757 C22.0062,3.4657 21.5912,3.2917 21.1572,3.29269571 L6.8742,3.29269571 C4.4302,3.29269571 2.4492,5.2737 2.4492,7.7177 L2.4492,24.9387 L2.4492,30.2607 Z" id="Fill-1" fill="#FCD603"></path>
            <path d="M23.8438,19.3906 L6.8298,19.3906 C6.3808,19.3906 6.0168,19.7546 6.0168,20.2036 C6.0168,20.6536 6.3808,21.0176 6.8298,21.0176 L23.8438,21.0176 C24.2928,21.0176 24.6568,20.6536 24.6568,20.2036 C24.6568,19.7546 24.2928,19.3906 23.8438,19.3906" id="Fill-3" fill="#FFFFFF"></path>
            <path d="M20.4502,24.9282 L6.8302,24.9282 C6.3812,24.9282 6.0162,25.2922 6.0162,25.7412 C6.0162,26.1912 6.3812,26.5552 6.8302,26.5552 L20.4502,26.5552 C20.8992,26.5552 21.2632,26.1912 21.2632,25.7412 C21.2632,25.2922 20.8992,24.9282 20.4502,24.9282" id="Fill-5" fill="#FFFFFF"></path>
            <path d="M18.4063,30.1801 L6.8303,30.1801 C6.3813,30.1801 6.0163,30.5441 6.0163,30.9931 C6.0163,31.4431 6.3813,31.8071 6.8303,31.8071 L18.4063,31.8071 C18.8553,31.8071 19.2193,31.4431 19.2193,30.9931 C19.2193,30.5441 18.8553,30.1801 18.4063,30.1801" id="Fill-7" fill="#FFFFFF"></path>
            <polygon id="Fill-9" fill="#B5B5B5" points="19.8369 1.8134 20.0489 12.5294 30.6769 12.3634"></polygon>
            <path d="M0.5029,27.0195 C0.6029,27.0595 0.7019,27.0795 0.8129,27.0795 C1.0229,27.0795 1.2319,26.9895 1.3929,26.8395 C1.4629,26.7695 1.5229,26.6795 1.5629,26.5795 C1.6029,26.4795 1.6219,26.3695 1.6219,26.2695 C1.6219,26.0495 1.5429,25.8495 1.3929,25.6895 C1.1619,25.4595 0.8029,25.3895 0.5029,25.5195 C0.4019,25.5595 0.3129,25.6195 0.2419,25.6895 C0.0819,25.8495 0.0029,26.0595 0.0029,26.2695 C0.0029,26.4795 0.0819,26.6895 0.2419,26.8395 C0.3129,26.9195 0.4019,26.9795 0.5029,27.0195" id="Fill-11" fill="#5C5C60"></path>
            <g id="Group-15" transform="translate(0.000000, 0.617800)">
                <mask id="mask-2" fill="white">
                    <use xlink:href="#path-1"></use>
                </mask>
                <g id="Clip-14"></g>
                <path d="M20.5459,2.7118 L28.7569,11.0978 L20.5459,11.0978 L20.5459,2.7118 Z M30.4829,10.5348 L21.2529,1.1078 C20.7999,0.6468 20.1679,0.3818 19.5219,0.3818 L5.2379,0.3818 C2.3499,0.3818 -0.0001,2.7328 -0.0001,5.6208 L-0.0001,22.8418 C-0.0001,23.2908 0.3639,23.6548 0.8139,23.6548 C1.2629,23.6548 1.6269,23.2908 1.6269,22.8418 L1.6269,5.6208 C1.6269,3.6288 3.2469,2.0088 5.2379,2.0088 L18.9189,2.0088 L18.9189,12.7248 L29.5469,12.7248 L29.5469,35.0958 C29.5469,37.0868 27.9269,38.7068 25.9349,38.7068 L5.2379,38.7068 C3.2469,38.7068 1.6269,37.0868 1.6269,35.0958 L1.6269,28.1638 C1.6269,27.7138 1.2629,27.3498 0.8139,27.3498 C0.3639,27.3498 -0.0001,27.7138 -0.0001,28.1638 L-0.0001,35.0958 C-0.0001,37.9838 2.3499,40.3338 5.2379,40.3338 L25.9349,40.3338 C28.8229,40.3338 31.1739,37.9838 31.1739,35.0958 L31.1739,12.2258 C31.1729,11.5888 30.9269,10.9888 30.4829,10.5348 L30.4829,10.5348 Z" id="Fill-13" fill="#5C5C60" mask="url(#mask-2)"></path>
            </g>
        </g>
    </g>
</svg>