<?xml version="1.0" encoding="UTF-8"?>
<svg width="48px" height="48px" viewBox="0 0 48 48" version="1.1" xmlns="http://www.w3.org/2000/svg" xmlns:xlink="http://www.w3.org/1999/xlink">
    <!-- Generator: Sketch 62 (91390) - https://sketch.com -->
    <title>iconografia/marca/on/DragAndDrop</title>
    <desc>Created with Sketch.</desc>
    <defs>
        <polygon id="path-1" points="0.0933333333 0.880852632 24.6430556 0.880852632 24.6430556 25.0690632 0.0933333333 25.0690632"></polygon>
    </defs>
    <g id="iconografia/marca/on/DragAndDrop" stroke="none" stroke-width="1" fill="none" fill-rule="evenodd">
        <g id="Page-1" transform="translate(5.000000, 6.000000)">
            <path d="M25.2503067,35 L23.7496933,35 C23.3349693,35 23,34.6650307 23,34.2503067 C23,33.8355828 23.3349693,33.4993865 23.7496933,33.4993865 L24.5006135,33.4993865 L24.5006135,32.7496933 C24.5006135,32.3349693 24.8355828,32 25.2503067,32 C25.6650307,32 26,32.3349693 26,32.7496933 L26,34.2503067 C26,34.6650307 25.6650307,35 25.2503067,35" id="Fill-1" fill="#5C5C60"></path>
            <path d="M11.0711253,36 L7.8418259,36 C7.37123142,36 7,35.5561016 7,35.000819 C7,34.4602785 7.37123142,34 7.8418259,34 L11.0711253,34 C11.5403397,34 11.9115711,34.4602785 11.9115711,35.000819 C11.9115711,35.5561016 11.5403397,36 11.0711253,36 M19.1567941,36 L15.9288747,36 C15.4596603,36 15.0870488,35.5561016 15.0870488,35.000819 C15.0870488,34.4602785 15.4596603,34 15.9288747,34 L19.1567941,34 C19.6273885,34 20,34.4602785 20,35.000819 C20,35.5561016 19.6273885,36 19.1567941,36" id="Fill-3" fill="#5C5C60"></path>
            <path d="M2.25030675,35 L0.749693252,35 C0.334969325,35 0,34.6650307 0,34.2503067 L0,32.7496933 C0,32.3349693 0.334969325,32 0.749693252,32 C1.16441718,32 1.5006135,32.3349693 1.5006135,32.7496933 L1.5006135,33.4993865 L2.25030675,33.4993865 C2.66503067,33.4993865 3,33.8355828 3,34.2503067 C3,34.6650307 2.66503067,35 2.25030675,35" id="Fill-5" fill="#5C5C60"></path>
            <path d="M1.00082034,20.921527 C0.442986054,20.921527 0,20.5369035 0,20.0819724 L0,16.8423118 C0,16.3860021 0.442986054,16 1.00082034,16 C1.55865463,16 2,16.3860021 2,16.8423118 L2,20.0819724 C2,20.5369035 1.55865463,20.921527 1.00082034,20.921527 M1.00082034,29 C0.442986054,29 0,28.6139979 0,28.1590668 L0,24.9194062 C0,24.4644751 0.442986054,24.078473 1.00082034,24.078473 C1.55865463,24.078473 2,24.4644751 2,24.9194062 L2,28.1590668 C2,28.6139979 1.55865463,29 1.00082034,29" id="Fill-7" fill="#5C5C60"></path>
            <path d="M0.749693252,12 C0.334969325,12 0,11.6638037 0,11.2503067 L0,9.74969325 C0,9.33619632 0.334969325,9 0.749693252,9 L2.25030675,9 C2.66503067,9 3,9.33619632 3,9.74969325 C3,10.1631902 2.66503067,10.4993865 2.25030675,10.4993865 L1.4993865,10.4993865 L1.4993865,11.2503067 C1.4993865,11.6638037 1.16441718,12 0.749693252,12" id="Fill-9" fill="#5C5C60"></path>
            <path d="M11.0711253,11 L7.8418259,11 C7.37123142,11 7,10.5447154 7,10.0081301 C7,9.45528455 7.37123142,9 7.8418259,9 L11.0711253,9 C11.5403397,9 11.9115711,9.45528455 11.9115711,10.0081301 C11.9115711,10.5447154 11.5403397,11 11.0711253,11 M19.1567941,11 L15.9288747,11 C15.4596603,11 15.0870488,10.5447154 15.0870488,10.0081301 C15.0870488,9.45528455 15.4596603,9 15.9288747,9 L19.1567941,9 C19.6273885,9 20,9.45528455 20,10.0081301 C20,10.5447154 19.6273885,11 19.1567941,11" id="Fill-11" fill="#5C5C60"></path>
            <path d="M25.2503067,12 C24.8355828,12 24.5006135,11.6638037 24.5006135,11.2503067 L24.5006135,10.4993865 L23.7496933,10.4993865 C23.3349693,10.4993865 23,10.1631902 23,9.74969325 C23,9.33619632 23.3349693,9 23.7496933,9 L25.2503067,9 C25.6650307,9 26,9.33619632 26,9.74969325 L26,11.2503067 C26,11.6638037 25.6650307,12 25.2503067,12" id="Fill-13" fill="#5C5C60"></path>
            <path d="M25.9991797,20.921527 C25.4413454,20.921527 25,20.5369035 25,20.0819724 L25,16.8423118 C25,16.3860021 25.4413454,16 25.9991797,16 C26.5570139,16 27,16.3860021 27,16.8423118 L27,20.0819724 C27,20.5369035 26.5570139,20.921527 25.9991797,20.921527 M25.9991797,29 C25.4413454,29 25,28.6139979 25,28.1590668 L25,24.9194062 C25,24.4520679 25.4413454,24.078473 25.9991797,24.078473 C26.5570139,24.078473 27,24.4520679 27,24.9194062 L27,28.1590668 C27,28.6139979 26.5570139,29 25.9991797,29" id="Fill-15" fill="#5C5C60"></path>
            <g id="Group-19" transform="translate(14.000000, 2.000000)">
                <mask id="mask-2" fill="white">
                    <use xlink:href="#path-1"></use>
                </mask>
                <g id="Clip-18"></g>
                <path d="M24.6433333,23.3954842 C24.6433333,24.3164316 23.8794444,25.0690632 22.9447222,25.0690632 L1.79194444,25.0690632 C0.857222222,25.0690632 0.0933333333,24.3164316 0.0933333333,23.3954842 L0.0933333333,2.55443158 C0.0933333333,1.63348421 0.857222222,0.880852632 1.79194444,0.880852632 L22.9447222,0.880852632 C23.8794444,0.880852632 24.6433333,1.63348421 24.6433333,2.55443158 L24.6433333,23.3954842 Z" id="Fill-17" fill="#FCD603" mask="url(#mask-2)"></path>
            </g>
            <path d="M13.5365183,1.71079753 C13.0817038,1.71079753 12.7120812,2.08043972 12.7120812,2.53527826 L12.7120812,23.4647217 C12.7120812,23.9181861 13.0817038,24.2878283 13.5365183,24.2878283 L34.4634817,24.2878283 C34.9196702,24.2878283 35.2879188,23.9181861 35.2879188,23.4647217 L35.2879188,2.53527826 C35.2879188,2.08043972 34.9196702,1.71079753 34.4634817,1.71079753 L13.5365183,1.71079753 Z M34.4634817,26 L13.5365183,26 C12.1377233,26 11,24.8622166 11,23.4647217 L11,2.53527826 C11,1.13778342 12.1377233,0 13.5365183,0 L34.4634817,0 C35.8622767,0 37,1.13778342 37,2.53527826 L37,23.4647217 C37,24.8622166 35.8622767,26 34.4634817,26 L34.4634817,26 Z" id="Fill-20" fill="#5C5C60"></path>
            <path d="M17,9 C16.4468085,9 16,8.61592572 16,8.14040518 L16,4.86100169 C16,4.38548115 16.4468085,4 17,4 C17.5531915,4 18,4.38548115 18,4.86100169 L18,8.14040518 C18,8.61592572 17.5531915,9 17,9" id="Fill-22" fill="#FFFFFF"></path>
        </g>
    </g>
</svg>