<?xml version="1.0" encoding="UTF-8"?>
<svg width="48px" height="48px" viewBox="0 0 48 48" version="1.1" xmlns="http://www.w3.org/2000/svg" xmlns:xlink="http://www.w3.org/1999/xlink">
    <!-- Generator: Sketch 62 (91390) - https://sketch.com -->
    <title>iconografia/marca/off/DragAndDrop</title>
    <desc>Created with Sketch.</desc>
    <defs>
        <polygon id="path-1" points="0 0.489991667 1.73040833 0.489991667 1.73040833 13.8669917 0 13.8669917"></polygon>
    </defs>
    <g id="iconografia/marca/off/DragAndDrop" stroke="none" stroke-width="1" fill="none" fill-rule="evenodd">
        <g id="Page-1" transform="translate(5.000000, 6.000000)">
            <path d="M25.94345,36.2532083 L24.2090333,36.2532083 C23.7302,36.2532083 23.3423667,35.8664583 23.3423667,35.3854583 C23.3423667,34.906625 23.7302,34.5187917 24.2090333,34.5187917 L25.0757,34.5187917 L25.0757,33.652125 C25.0757,33.1722083 25.4646167,32.784375 25.94345,32.784375 C26.4222833,32.784375 26.8112,33.1722083 26.8112,33.652125 L26.8112,35.3854583 C26.8112,35.8664583 26.4222833,36.2532083 25.94345,36.2532083" id="Fill-1" fill="#5C5C60"></path>
            <path d="M10.9100333,36.2479 L7.5907,36.2479 C7.10645,36.2479 6.72511667,35.8644 6.72511667,35.3823167 C6.72511667,34.9143167 7.10645,34.51565 7.5907,34.51565 L10.9100333,34.51565 C11.3910333,34.51565 11.7745333,34.9143167 11.7745333,35.3823167 C11.7745333,35.8644 11.3910333,36.2479 10.9100333,36.2479 M19.22245,36.2479 L15.9020333,36.2479 C15.41995,36.2479 15.0386167,35.8644 15.0386167,35.3823167 C15.0386167,34.9143167 15.41995,34.51565 15.9020333,34.51565 L19.22245,34.51565 C19.7056167,34.51565 20.0880333,34.9143167 20.0880333,35.3823167 C20.0880333,35.8644 19.7056167,36.2479 19.22245,36.2479" id="Fill-3" fill="#5C5C60"></path>
            <path d="M2.60303333,36.2532083 L0.868616667,36.2532083 C0.3887,36.2532083 0.00195,35.8664583 0.00195,35.3854583 L0.00195,33.652125 C0.00195,33.1722083 0.3887,32.784375 0.868616667,32.784375 C1.34853333,32.784375 1.73528333,33.1722083 1.73528333,33.652125 L1.73528333,34.5187917 L2.60303333,34.5187917 C3.08186667,34.5187917 3.47078333,34.906625 3.47078333,35.3854583 C3.47078333,35.8664583 3.08186667,36.2532083 2.60303333,36.2532083" id="Fill-5" fill="#5C5C60"></path>
            <g id="Group-9" transform="translate(0.000000, 15.670092)">
                <mask id="mask-2" fill="white">
                    <use xlink:href="#path-1"></use>
                </mask>
                <g id="Clip-8"></g>
                <path d="M0.865908333,5.55349167 C0.383825,5.55349167 -0.000758333333,5.15699167 -0.000758333333,4.68899167 L-0.000758333333,1.355575 C-0.000758333333,0.886491667 0.383825,0.489991667 0.865908333,0.489991667 C1.34799167,0.489991667 1.73040833,0.886491667 1.73040833,1.355575 L1.73040833,4.68899167 C1.73040833,5.15699167 1.34799167,5.55349167 0.865908333,5.55349167 M0.865908333,13.8669917 C0.383825,13.8669917 -0.000758333333,13.4694083 -0.000758333333,13.0014083 L-0.000758333333,9.66799167 C-0.000758333333,9.19999167 0.383825,8.80240833 0.865908333,8.80240833 C1.34799167,8.80240833 1.73040833,9.19999167 1.73040833,9.66799167 L1.73040833,13.0014083 C1.73040833,13.4694083 1.34799167,13.8669917 0.865908333,13.8669917" id="Fill-7" fill="#5C5C60" mask="url(#mask-2)"></path>
            </g>
            <path d="M0.869158333,12.9129 C0.389241667,12.9129 0.00140833333,12.5239833 0.00140833333,12.0462333 L0.00140833333,10.3118167 C0.00140833333,9.83298333 0.389241667,9.44406667 0.869158333,9.44406667 L2.603575,9.44406667 C3.08240833,9.44406667 3.47024167,9.83298333 3.47024167,10.3118167 C3.47024167,10.7895667 3.08240833,11.1784833 2.603575,11.1784833 L1.735825,11.1784833 L1.735825,12.0462333 C1.735825,12.5239833 1.34799167,12.9129 0.869158333,12.9129" id="Fill-10" fill="#5C5C60"></path>
            <path d="M10.9100333,11.1805417 L7.5907,11.1805417 C7.10645,11.1805417 6.72511667,10.7829583 6.72511667,10.3149583 C6.72511667,9.832875 7.10645,9.449375 7.5907,9.449375 L10.9100333,9.449375 C11.3910333,9.449375 11.7745333,9.832875 11.7745333,10.3149583 C11.7745333,10.7829583 11.3910333,11.1805417 10.9100333,11.1805417" id="Fill-12" fill="#5C5C60"></path>
            <path d="M25.9465917,30.1467833 C25.4645083,30.1467833 25.0820917,29.7643667 25.0820917,29.2822833 L25.0820917,25.96295 C25.0820917,25.4787 25.4645083,25.0832833 25.9465917,25.0832833 C26.428675,25.0832833 26.812175,25.4787 26.812175,25.96295 L26.812175,29.2822833 C26.812175,29.7643667 26.428675,30.1467833 25.9465917,30.1467833" id="Fill-14" fill="#5C5C60"></path>
            <path d="M35.370725,26.84175 L13.7658083,26.84175 C12.321725,26.84175 11.1473917,25.6663333 11.1473917,24.2244167 L11.1473917,2.61733333 C11.1473917,1.17433333 12.321725,0 13.7658083,0 L26.8026417,0 C27.2901417,0 27.6866417,0.395416667 27.6866417,0.882916667 C27.6866417,1.37041667 27.2901417,1.76691667 26.8026417,1.76691667 L13.7658083,1.76691667 C13.2956417,1.76691667 12.913225,2.14825 12.913225,2.61733333 L12.913225,24.2244167 C12.913225,24.6935 13.2956417,25.07375 13.7658083,25.07375 L35.370725,25.07375 C35.8408917,25.07375 36.2211417,24.6935 36.2211417,24.2244167 L36.2211417,2.61733333 C36.2211417,2.14825 35.8408917,1.76691667 35.370725,1.76691667 L32.6201417,1.76691667 C32.1326417,1.76691667 31.7361417,1.37041667 31.7361417,0.882916667 C31.7361417,0.395416667 32.1326417,0 32.6201417,0 L35.370725,0 C36.8148083,0 37.9891417,1.17433333 37.9891417,2.61733333 L37.9891417,24.2244167 C37.9891417,25.6663333 36.8148083,26.84175 35.370725,26.84175" id="Fill-16" fill="#5C5C60"></path>
            <path d="M30.118075,0.155675 C30.5199917,0.387508333 30.657575,0.901008333 30.4246583,1.30400833 C30.192825,1.705925 29.679325,1.84350833 29.2774083,1.611675 C28.8754917,1.37875833 28.7379083,0.865258333 28.9686583,0.463341667 C29.201575,0.061425 29.7161583,-0.0761583333 30.118075,0.155675" id="Fill-18" fill="#5C5C60"></path>
        </g>
    </g>
</svg>