<?xml version="1.0" encoding="UTF-8"?>
<svg width="48px" height="48px" viewBox="0 0 48 48" version="1.1" xmlns="http://www.w3.org/2000/svg" xmlns:xlink="http://www.w3.org/1999/xlink">
    <!-- Generator: Sketch 62 (91390) - https://sketch.com -->
    <title>iconografia/marca/off/efectivo-tarjeta</title>
    <desc>Created with Sketch.</desc>
    <defs>
        <polygon id="path-1" points="0.1514 0.079 24.9464 0.079 24.9464 39.8809 0.1514 39.8809"></polygon>
        <polygon id="path-3" points="0 0.239006376 1.6206 0.239006376 1.6206 1.8574 0 1.8574"></polygon>
        <polygon id="path-5" points="0 40.9209 37.729 40.9209 37.729 0.9999 0 0.9999"></polygon>
    </defs>
    <g id="iconografia/marca/off/efectivo-tarjeta" stroke="none" stroke-width="1" fill="none" fill-rule="evenodd">
        <g id="Page-1" transform="translate(5.000000, 4.000000)">
            <path d="M12.5537,17.0801 C14.5537,17.0801 16.1807,18.7071 16.1807,20.7071 C16.1807,22.7071 14.5537,24.3351 12.5537,24.3351 C10.5537,24.3351 8.9257,22.7071 8.9257,20.7071 C8.9257,18.7071 10.5537,17.0801 12.5537,17.0801 M7.2987,20.7071 C7.2987,23.6041 9.6567,25.9621 12.5537,25.9621 C15.4507,25.9621 17.8077,23.6041 17.8077,20.7071 C17.8077,17.8091 15.4507,15.4531 12.5537,15.4531 C9.6567,15.4531 7.2987,17.8091 7.2987,20.7071" id="Fill-1" fill="#5C5C60"></path>
            <g id="Group-5" transform="translate(0.000000, 0.920900)">
                <mask id="mask-2" fill="white">
                    <use xlink:href="#path-1"></use>
                </mask>
                <g id="Clip-4"></g>
                <path d="M18.3994,38.2539 C18.6434,37.0169 19.6054,34.3179 23.3194,33.2069 L23.3194,38.2539 L18.3994,38.2539 Z M1.7784,33.2359 C5.4114,34.3649 6.3604,37.0269 6.6014,38.2539 L1.7784,38.2539 L1.7784,33.2359 Z M18.4164,1.7059 L23.3194,1.7059 L23.3194,6.6719 C19.6864,5.5849 18.6844,2.9779 18.4164,1.7059 L18.4164,1.7059 Z M1.7784,6.6429 L1.7784,1.7059 L6.5854,1.7059 C6.3184,2.9669 5.3324,5.5379 1.7784,6.6429 L1.7784,6.6429 Z M24.1324,0.0789 L0.9644,0.0789 C0.5154,0.0789 0.1514,0.4429 0.1514,0.8929 L0.1514,12.5379 C0.1514,12.9869 0.5154,13.3519 0.9644,13.3519 C1.4144,13.3519 1.7784,12.9869 1.7784,12.5379 L1.7784,8.3429 C6.7804,7.0309 7.9564,3.2439 8.2294,1.7059 L16.7714,1.7059 C17.0454,3.2509 18.2274,7.0669 23.2864,8.3619 C23.2964,8.3649 23.3084,8.3639 23.3194,8.3659 L23.3194,31.5149 C23.3084,31.5179 23.2964,31.5139 23.2864,31.5169 C18.1434,32.8339 17.0044,36.7619 16.7554,38.2539 L8.2454,38.2539 C7.9974,36.7679 6.8644,32.8699 1.7784,31.5359 L1.7784,17.8139 C1.7784,17.3639 1.4144,16.9999 0.9644,16.9999 C0.5154,16.9999 0.1514,17.3639 0.1514,17.8139 L0.1514,39.0669 C0.1514,39.5169 0.5154,39.8809 0.9644,39.8809 L24.1324,39.8809 C24.5824,39.8809 24.9464,39.5169 24.9464,39.0669 L24.9464,0.8929 C24.9464,0.4429 24.5824,0.0789 24.1324,0.0789 L24.1324,0.0789 Z" id="Fill-3" fill="#5C5C60" mask="url(#mask-2)"></path>
            </g>
            <g id="Group-8" transform="translate(0.000000, 14.920900)">
                <mask id="mask-4" fill="white">
                    <use xlink:href="#path-3"></use>
                </mask>
                <g id="Clip-7"></g>
                <path d="M0.8096,1.8574 C0.9196,1.8574 1.0196,1.8374 1.1206,1.7974 C1.2196,1.7574 1.3096,1.6974 1.3896,1.6184 C1.5396,1.4674 1.6206,1.2574 1.6206,1.0474 C1.6206,0.8284 1.5396,0.6184 1.3896,0.4674 C1.0806,0.1574 0.5296,0.1684 0.2406,0.4674 C0.1606,0.5384 0.0996,0.6284 0.0596,0.7274 C0.0196,0.8284 -0.0004,0.9374 -0.0004,1.0474 C-0.0004,1.2574 0.0806,1.4674 0.2406,1.6184 C0.3896,1.7674 0.5896,1.8574 0.8096,1.8574" id="Fill-6" fill="#5C5C60" mask="url(#mask-4)"></path>
            </g>
            <path d="M13.2568,12.2832 L13.2568,6.9012 C13.2568,6.4502 12.8888,6.0822 12.4378,6.0822 C11.9858,6.0822 11.6178,6.4502 11.6178,6.9012 L11.6178,12.2832 C11.6178,12.7332 11.9858,13.1022 12.4378,13.1022 C12.8888,13.1022 13.2568,12.7332 13.2568,12.2832" id="Fill-9" fill="#5C5C60"></path>
            <path d="M11.6182,29.1045 L11.6182,34.4875 C11.6182,34.9385 11.9862,35.3065 12.4372,35.3065 C12.8892,35.3065 13.2572,34.9385 13.2572,34.4875 L13.2572,29.1045 C13.2572,28.6545 12.8892,28.2865 12.4372,28.2865 C11.9862,28.2865 11.6182,28.6545 11.6182,29.1045" id="Fill-11" fill="#5C5C60"></path>
            <path d="M33.8145,21.499 L15.2085,21.499 C13.5025,21.499 12.1055,22.895 12.1055,24.601 L12.1055,37.005 C12.1055,38.71 13.5025,40.107 15.2085,40.107 L33.8145,40.107 C35.5195,40.107 36.9165,38.71 36.9165,37.005 L36.9165,24.6 C36.9165,22.895 35.5195,21.499 33.8145,21.499" id="Fill-13" fill="#FFFFFF"></path>
            <mask id="mask-6" fill="white">
                <use xlink:href="#path-5"></use>
            </mask>
            <g id="Clip-16"></g>
            <polygon id="Fill-15" fill="#5C5C60" mask="url(#mask-6)" points="20.781 34.4799 30.084 34.4799 30.084 32.9289 20.781 32.9289"></polygon>
            <polygon id="Fill-17" fill="#5C5C60" mask="url(#mask-6)" points="20.781 36.8609 23.882 36.8609 23.882 35.3109 20.781 35.3109"></polygon>
            <path d="M15.5586,37.209 L18.8826,37.209 C19.1736,37.209 19.4086,36.974 19.4086,36.683 L19.4086,33.359 C19.4086,33.068 19.1736,32.831 18.8826,32.831 L15.5586,32.831 C15.2676,32.831 15.0325968,33.068 15.0325968,33.359 L15.0325968,36.683 C15.0316,36.974 15.2676,37.209 15.5586,37.209" id="Fill-18" fill="#5C5C60" mask="url(#mask-6)"></path>
            <path d="M33.8145,39.2939 L15.2085,39.2939 C13.9465,39.2939 12.9185,38.2669 12.9185,37.0049 L12.9185,29.2519 L36.1025,29.2519 L36.1025,37.0049 C36.1025,38.2669 35.0765,39.2939 33.8145,39.2939 M15.2085,22.3129 L33.8145,22.3129 C35.0765,22.3129 36.1025,23.3389 36.1025,24.5999 L36.1025,26.1489 L12.9185,26.1489 L12.9185,24.6009 C12.9185,23.3389 13.9465,22.3129 15.2085,22.3129 M33.8145,20.6859 L15.2085,20.6859 C13.0485,20.6859 11.2925,22.4409 11.2925,24.6009 L11.2925,37.0049 C11.2925,39.1639 13.0485,40.9209 15.2085,40.9209 L33.8145,40.9209 C35.9735,40.9209 37.7295,39.1639 37.7295,37.0049 L37.7295,24.5999 C37.7295,22.4409 35.9735,20.6859 33.8145,20.6859" id="Fill-19" fill="#5C5C60" mask="url(#mask-6)"></path>
        </g>
    </g>
</svg>