<?xml version="1.0" encoding="UTF-8"?>
<svg width="48px" height="48px" viewBox="0 0 48 48" version="1.1" xmlns="http://www.w3.org/2000/svg" xmlns:xlink="http://www.w3.org/1999/xlink">
    <!-- Generator: Sketch 62 (91390) - https://sketch.com -->
    <title>iconografia/marca/on/efectivo-tarjeta </title>
    <desc>Created with Sketch.</desc>
    <defs>
        <polygon id="path-1" points="0.1572 0.322 24.9522 0.322 24.9522 40.1234 0.1572 40.1234"></polygon>
        <polygon id="path-3" points="0 0.47377595 1.6298 0.47377595 1.6298 2.0916 0 2.0916"></polygon>
        <polygon id="path-5" points="0 41.6784 37.59 41.6784 37.59 1.0004 0 1.0004"></polygon>
    </defs>
    <g id="iconografia/marca/on/efectivo-tarjeta-" stroke="none" stroke-width="1" fill="none" fill-rule="evenodd">
        <g id="Page-1" transform="translate(5.000000, 3.000000)">
            <path d="M3.3086,19.5693 L3.3086,21.2803 L3.3086,40.8223 C3.3086,41.2933 3.6946,41.6783 4.1636,41.6783 L25.6216,41.6783 C26.0916,41.6783 26.4766,41.2933 26.4766,40.8223 L26.4766,4.3593 C26.4766,3.8893 26.0916,3.5053 25.6216,3.5053 L4.1636,3.5053 C3.6946,3.5053 3.3086,3.8893 3.3086,4.3593 L3.3086,14.2943 L3.3086,16.0063 L3.3086,19.5693 Z" id="Fill-1" fill="#FCD603"></path>
            <path d="M12.5596,25.1484 C10.1066,25.1484 8.1196,23.1604 8.1196,20.7074 C8.1196,18.2534 10.1066,16.2664 12.5596,16.2664 C15.0126,16.2664 17.0006,18.2534 17.0006,20.7074 C17.0006,23.1604 15.0126,25.1484 12.5596,25.1484" id="Fill-3" fill="#B5B5B5"></path>
            <path d="M8.9326,20.707 C8.9326,18.707 10.5596,17.08 12.5596,17.08 C14.5596,17.08 16.1876,18.707 16.1876,20.707 C16.1876,22.707 14.5596,24.335 12.5596,24.335 C10.5596,24.335 8.9326,22.707 8.9326,20.707 M17.8146,20.707 C17.8146,17.81 15.4566,15.453 12.5596,15.453 C9.6616,15.453 7.3056,17.81 7.3056,20.707 C7.3056,23.604 9.6616,25.962 12.5596,25.962 C15.4566,25.962 17.8146,23.604 17.8146,20.707" id="Fill-5" fill="#5C5C60"></path>
            <g id="Group-9" transform="translate(0.000000, 0.678400)">
                <mask id="mask-2" fill="white">
                    <use xlink:href="#path-1"></use>
                </mask>
                <g id="Clip-8"></g>
                <path d="M18.4092,38.4964 C18.6602,37.2634 19.6372,34.5564 23.3252,33.4504 L23.3252,38.4964 L18.4092,38.4964 Z M1.7842,33.4784 C5.4172,34.6074 6.3662,37.2684 6.6072,38.4964 L1.7842,38.4964 L1.7842,33.4784 Z M18.4222,1.9484 L23.3252,1.9484 L23.3252,6.9154 C19.6932,5.8284 18.6912,3.2204 18.4222,1.9484 L18.4222,1.9484 Z M1.7842,6.8854 L1.7842,1.9484 L6.5892,1.9484 C6.3132,3.2064 5.3122,5.7864 1.7842,6.8854 L1.7842,6.8854 Z M24.1382,0.3214 L0.9712,0.3214 C0.5212,0.3214 0.1572,0.6854 0.1572,1.1354 L0.1572,12.7804 C0.1572,13.2294 0.5212,13.5944 0.9712,13.5944 C1.4202,13.5944 1.7842,13.2294 1.7842,12.7804 L1.7842,8.5864 C6.7872,7.2744 7.9632,3.4874 8.2362,1.9484 L16.7772,1.9484 C17.0532,3.4934 18.2342,7.3094 23.2922,8.6054 C23.3032,8.6084 23.3142,8.6074 23.3252,8.6094 L23.3252,31.7574 C23.3142,31.7604 23.3032,31.7564 23.2922,31.7594 C18.1512,33.0764 17.0122,37.0044 16.7632,38.4964 L8.2522,38.4964 C8.0032,37.0104 6.8702,33.1124 1.7842,31.7784 L1.7842,18.0564 C1.7842,17.6064 1.4202,17.2424 0.9712,17.2424 C0.5212,17.2424 0.1572,17.6064 0.1572,18.0564 L0.1572,39.3094 C0.1572,39.7594 0.5212,40.1234 0.9712,40.1234 L24.1382,40.1234 C24.5882,40.1234 24.9522,39.7594 24.9522,39.3094 L24.9522,1.1354 C24.9522,0.6854 24.5882,0.3214 24.1382,0.3214 L24.1382,0.3214 Z" id="Fill-7" fill="#5C5C60" mask="url(#mask-2)"></path>
            </g>
            <g id="Group-12" transform="translate(0.000000, 14.678400)">
                <mask id="mask-4" fill="white">
                    <use xlink:href="#path-3"></use>
                </mask>
                <g id="Clip-11"></g>
                <path d="M0.5098,2.0316 C0.5998,2.0816 0.7098,2.0916 0.8208,2.0916 C1.0398,2.0916 1.2398,2.0106 1.3898,1.8616 C1.4698,1.7816 1.5308,1.6916 1.5708,1.5916 C1.6108,1.5016 1.6298,1.3906 1.6298,1.2816 C1.6298,1.0716 1.5398,0.8616 1.3898,0.7116 C1.1598,0.4816 0.8098,0.4116 0.5098,0.5316 C0.4098,0.5716 0.3208,0.6316 0.2398,0.7116 C0.0898,0.8616 -0.0002,1.0716 -0.0002,1.2816 C-0.0002,1.3906 0.0208,1.5016 0.0708,1.5916 C0.1108,1.6916 0.1698,1.7816 0.2398,1.8616 C0.3208,1.9306 0.4098,1.9916 0.5098,2.0316" id="Fill-10" fill="#5C5C60" mask="url(#mask-4)"></path>
            </g>
            <path d="M11.624,12.2832 L11.624,6.9002 C11.624,6.4502 11.993,6.0822 12.444,6.0822 C12.895,6.0822 13.263,6.4502 13.263,6.9002 L13.263,12.2832 C13.263,12.7332 12.895,13.1022 12.444,13.1022 C11.993,13.1022 11.624,12.7332 11.624,12.2832" id="Fill-13" fill="#FEFEFF"></path>
            <path d="M11.624,35.3428 L11.624,29.9598 C11.624,29.5098 11.993,29.1418 12.444,29.1418 C12.895,29.1418 13.263,29.5098 13.263,29.9598 L13.263,35.3428 C13.263,35.7928 12.895,36.1618 12.444,36.1618 C11.993,36.1618 11.624,35.7928 11.624,35.3428" id="Fill-15" fill="#FEFEFF"></path>
            <path d="M33.6758,21.3496 L15.0688,21.3496 C13.3638,21.3496 11.9668,22.7456 11.9668,24.4516 L11.9668,36.8566 C11.9668,38.5606 13.3628,39.9576 15.0688,39.9576 L33.6758,39.9576 C35.3808,39.9576 36.7768,38.5606 36.7768,36.8566 L36.7768,24.4506 C36.7768,22.7456 35.3808,21.3496 33.6758,21.3496" id="Fill-17" fill="#FFFFFF"></path>
            <mask id="mask-6" fill="white">
                <use xlink:href="#path-5"></use>
            </mask>
            <g id="Clip-20"></g>
            <polygon id="Fill-19" fill="#5C5C60" mask="url(#mask-6)" points="20.642 34.3314 29.946 34.3314 29.946 32.7804 20.642 32.7804"></polygon>
            <polygon id="Fill-21" fill="#5C5C60" mask="url(#mask-6)" points="20.642 36.7124 23.743 36.7124 23.743 35.1624 20.642 35.1624"></polygon>
            <path d="M15.4189,37.0605 L18.7429,37.0605 C19.0339,37.0605 19.2699,36.8245 19.2699,36.5335 L19.2699,33.2095 C19.2699,32.9185 19.0339,32.6815 18.7429,32.6815 L15.4189,32.6815 C15.1279,32.6815 14.8938968,32.9185 14.8938968,33.2095 L14.8938968,36.5335 C14.8929,36.8245 15.1279,37.0605 15.4189,37.0605" id="Fill-22" fill="#B5B5B5" mask="url(#mask-6)"></path>
            <path d="M15.707,36.2474 L18.456,36.2474 L18.456,33.4954 L15.707,33.4954 L15.707,36.2474 Z M15.707,36.5314 L15.707,36.5334 L15.707,36.5314 Z M18.743,37.8744 L15.419,37.8744 C15.061,37.8744 14.724,37.7344 14.471,37.4804 C14.218,37.2264 14.079,36.8884 14.0799946,36.5304 L14.0799946,33.2104 C14.0799946,32.4694 14.681,31.8684 15.419,31.8684 L18.743,31.8684 C19.482,31.8684 20.083,32.4694 20.083,33.2104 L20.083,36.5334 C20.083,37.2724 19.482,37.8744 18.743,37.8744 L18.743,37.8744 Z" id="Fill-23" fill="#5C5C60" mask="url(#mask-6)"></path>
            <polygon id="Fill-24" fill="#B5B5B5" mask="url(#mask-6)" points="11.965 29.1024 36.776 29.1024 36.776 26.0004 11.965 26.0004"></polygon>
            <path d="M12.7803,25.1875 L12.7803,24.4515 C12.7803,23.1895 13.8063,22.1635 15.0683,22.1635 L33.6763,22.1635 C34.9363,22.1635 35.9633,23.1895 35.9633,24.4505 L35.9633,25.1875 L12.7803,25.1875 Z M35.9633,36.8565 C35.9633,38.1185 34.9363,39.1445 33.6763,39.1445 L15.0683,39.1445 C13.8063,39.1445 12.7803,38.1185 12.7803,36.8565 L12.7803,29.9165 L35.9633,29.9165 L35.9633,36.8565 Z M12.7803,28.2895 L35.9633,28.2895 L35.9633,26.8145 L12.7803,26.8145 L12.7803,28.2895 Z M33.6763,20.5365 L15.0683,20.5365 C12.9093,20.5365 11.1533,22.2915 11.1533,24.4515 L11.1533,25.1875 L11.1533,29.9165 L11.1533,36.8565 C11.1533,39.0155 12.9093,40.7715 15.0683,40.7715 L33.6763,40.7715 C35.8343,40.7715 37.5903,39.0155 37.5903,36.8565 L37.5903,29.9165 L37.5903,25.1875 L37.5903,24.4505 C37.5903,22.2915 35.8343,20.5365 33.6763,20.5365 L33.6763,20.5365 Z" id="Fill-25" fill="#5C5C60" mask="url(#mask-6)"></path>
        </g>
    </g>
</svg>