<?xml version="1.0" encoding="UTF-8"?>
<svg width="48px" height="48px" viewBox="0 0 48 48" version="1.1" xmlns="http://www.w3.org/2000/svg" xmlns:xlink="http://www.w3.org/1999/xlink">
    <!-- Generator: Sketch 62 (91390) - https://sketch.com -->
    <title>iconografia/marca/off/eliminar</title>
    <desc>Created with Sketch.</desc>
    <defs>
        <polygon id="path-1" points="0 41.4551 33.52 41.4551 33.52 0.0001 0 0.0001"></polygon>
    </defs>
    <g id="iconografia/marca/off/eliminar" stroke="none" stroke-width="1" fill="none" fill-rule="evenodd">
        <g id="Page-1" transform="translate(7.000000, 3.000000)">
            <path d="M4.2842,34.2744 C4.2042,34.3544 4.1432,34.4454 4.1032,34.5354 C4.0642,34.6444 4.0442,34.7454 4.0442,34.8544 C4.0442,35.0644 4.1242,35.2744 4.2842,35.4244 C4.4332,35.5754 4.6342,35.6654 4.8532,35.6654 C4.9642,35.6654 5.0642,35.6444 5.1642,35.6044 C5.2632,35.5644 5.3532,35.5044 5.4332,35.4244 C5.5842,35.2744 5.6742,35.0644 5.6742,34.8544 C5.6742,34.7454 5.6432,34.6444 5.6032,34.5354 C5.5642,34.4454 5.5042,34.3544 5.4332,34.2744 C5.1242,33.9744 4.5842,33.9744 4.2842,34.2744" id="Fill-1" fill="#5C5C60"></path>
            <path d="M5.7441,11.4688 C5.7441,10.9788 5.3471,10.5808 4.8561,10.5808 C4.3661,10.5808 3.9691,10.9788 3.9691,11.4688 L3.9691,32.2498 C3.9691,32.7398 4.3661,33.1378 4.8561,33.1378 C5.3471,33.1378 5.7441,32.7398 5.7441,32.2498 L5.7441,11.4688 Z" id="Fill-3" fill="#5C5C60"></path>
            <path d="M28.6641,10.5801 C28.1741,10.5801 27.7761,10.9771 27.7761,11.4681 L27.7761,39.6801 L5.7431,39.6801 L5.7431,37.3561 C5.7431,36.8661 5.3461,36.4691 4.8551,36.4691 C4.3651,36.4691 3.9681,36.8661 3.9681,37.3561 L3.9681,40.2821 C3.9681,40.9291 4.4941,41.4551 5.1411,41.4551 L28.3791,41.4551 C29.0251,41.4551 29.5521,40.9291 29.5521,40.2821 L29.5521,11.4681 C29.5521,10.9771 29.1541,10.5801 28.6641,10.5801" id="Fill-5" fill="#5C5C60"></path>
            <mask id="mask-2" fill="white">
                <use xlink:href="#path-1"></use>
            </mask>
            <g id="Clip-8"></g>
            <path d="M12.357,6.6121 L21.163,6.6121 L21.163,1.7751 L12.357,1.7751 L12.357,6.6121 Z M32.632,6.6121 L22.938,6.6121 L22.938,1.1731 C22.938,0.5261 22.412,0.0001 21.766,0.0001 L11.755,0.0001 C11.108,0.0001 10.582,0.5261 10.582,1.1731 L10.582,6.6121 L0.888,6.6121 C0.397,6.6121 0,7.0101 0,7.5001 C0,7.9901 0.397,8.3881 0.888,8.3881 L10.582,8.3881 L22.938,8.3881 L32.632,8.3881 C33.122,8.3881 33.52,7.9901 33.52,7.5001 C33.52,7.0101 33.122,6.6121 32.632,6.6121 L32.632,6.6121 Z" id="Fill-7" fill="#5C5C60" mask="url(#mask-2)"></path>
            <path d="M13.6797,33.9531 L13.6797,15.4361 C13.6797,14.9461 13.2827,14.5491 12.7917,14.5491 C12.3017,14.5491 11.9047,14.9461 11.9047,15.4361 L11.9047,33.9531 C11.9047,34.4431 12.3017,34.8411 12.7917,34.8411 C13.2827,34.8411 13.6797,34.4431 13.6797,33.9531" id="Fill-9" fill="#5C5C60" mask="url(#mask-2)"></path>
            <path d="M21.6152,33.9531 L21.6152,15.4361 C21.6152,14.9461 21.2182,14.5491 20.7272,14.5491 C20.2372,14.5491 19.8402,14.9461 19.8402,15.4361 L19.8402,33.9531 C19.8402,34.4431 20.2372,34.8411 20.7272,34.8411 C21.2182,34.8411 21.6152,34.4431 21.6152,33.9531" id="Fill-10" fill="#5C5C60" mask="url(#mask-2)"></path>
        </g>
    </g>
</svg>