<?xml version="1.0" encoding="UTF-8"?>
<svg width="48px" height="48px" viewBox="0 0 48 48" version="1.1" xmlns="http://www.w3.org/2000/svg" xmlns:xlink="http://www.w3.org/1999/xlink">
    <!-- Generator: Sketch 62 (91390) - https://sketch.com -->
    <title>iconografia/marca/on/eliminar</title>
    <desc>Created with Sketch.</desc>
    <defs>
        <polygon id="path-1" points="0.0713 0.1905 23.8803 0.1905 23.8803 31 0.0713 31"></polygon>
        <polygon id="path-3" points="0 42.2773 33.519 42.2773 33.519 0.0003 0 0.0003"></polygon>
    </defs>
    <g id="iconografia/marca/on/eliminar" stroke="none" stroke-width="1" fill="none" fill-rule="evenodd">
        <g id="Page-1" transform="translate(7.000000, 3.000000)">
            <path d="M23.1152,9.1456 L13.6102,9.1456 C13.3132,9.1456 13.0722,8.9046 13.0722,8.6076 L13.0722,2.8176 C13.0722,2.6606 13.2002,2.5336 13.3572,2.5336 L23.3682,2.5336 C23.5262,2.5336 23.6532,2.6606 23.6532,2.8176 L23.6532,8.6076 C23.6532,8.9046 23.4122,9.1456 23.1152,9.1456" id="Fill-1" fill="#B5B5B5"></path>
            <g id="Group-5" transform="translate(7.000000, 11.277300)">
                <mask id="mask-2" fill="white">
                    <use xlink:href="#path-1"></use>
                </mask>
                <g id="Clip-4"></g>
                <path d="M23.3193,0.1905 C23.6293,0.1905 23.8803,0.4425 23.8803,0.7515 L23.8803,30.6985 C23.8803,30.8655 23.7533,31.0005 23.5943,31.0005 L0.3563,31.0005 C0.1993,31.0005 0.0713,30.8655 0.0713,30.6985 L0.0713,0.7515 C0.0713,0.4425 0.3223,0.1905 0.6323,0.1905 L23.3193,0.1905 Z" id="Fill-3" fill="#FCD603" mask="url(#mask-2)"></path>
            </g>
            <path d="M4.5439,34.0948 C4.4439,34.1448 4.3549,34.1958 4.2839,34.2748 C4.1239,34.4248 4.0439,34.6348 4.0439,34.8548 C4.0439,34.9548 4.0649,35.0648 4.1049,35.1648 C4.1449,35.2648 4.2039,35.3548 4.2839,35.4248 C4.4349,35.5748 4.6349,35.6648 4.8549,35.6648 C5.0739,35.6648 5.2739,35.5748 5.4349,35.4248 C5.5049,35.3448 5.5649,35.2648 5.6049,35.1648 C5.6449,35.0648 5.6639,34.9548 5.6639,34.8548 C5.6639,34.6348 5.5839,34.4248 5.4349,34.2748 C5.2039,34.0448 4.8339,33.9748 4.5439,34.0948" id="Fill-6" fill="#5C5C60"></path>
            <path d="M5.7432,11.4688 C5.7432,10.9788 5.3462,10.5808 4.8552,10.5808 C4.3652,10.5808 3.9682,10.9788 3.9682,11.4688 L3.9682,32.2498 C3.9682,32.7398 4.3652,33.1378 4.8552,33.1378 C5.3462,33.1378 5.7432,32.7398 5.7432,32.2498 L5.7432,11.4688 Z" id="Fill-8" fill="#5C5C60"></path>
            <path d="M28.6631,10.5801 C28.1731,10.5801 27.7751,10.9771 27.7751,11.4681 L27.7751,39.6801 L5.7431,39.6801 L5.7431,37.3561 C5.7431,36.8661 5.3461,36.4691 4.8551,36.4691 C4.3651,36.4691 3.9681,36.8661 3.9681,37.3561 L3.9681,40.2821 C3.9681,40.9291 4.4931,41.4551 5.1401,41.4551 L28.3781,41.4551 C29.0241,41.4551 29.5511,40.9291 29.5511,40.2821 L29.5511,11.4681 C29.5511,10.9771 29.1531,10.5801 28.6631,10.5801" id="Fill-10" fill="#5C5C60"></path>
            <mask id="mask-4" fill="white">
                <use xlink:href="#path-3"></use>
            </mask>
            <g id="Clip-13"></g>
            <path d="M12.356,6.6123 L21.162,6.6123 L21.162,1.7753 L12.356,1.7753 L12.356,6.6123 Z M32.631,6.6123 L22.937,6.6123 L22.937,1.1733 C22.937,0.5263 22.411,0.0003 21.765,0.0003 L11.754,0.0003 C11.107,0.0003 10.581,0.5263 10.581,1.1733 L10.581,6.6123 L0.888,6.6123 C0.397,6.6123 0,7.0103 0,7.5003 C0,7.9903 0.397,8.3873 0.888,8.3873 L10.581,8.3873 L22.937,8.3873 L32.631,8.3873 C33.121,8.3873 33.519,7.9903 33.519,7.5003 C33.519,7.0103 33.121,6.6123 32.631,6.6123 L32.631,6.6123 Z" id="Fill-12" fill="#5C5C60" mask="url(#mask-4)"></path>
            <path d="M13.6787,33.9532 L13.6787,15.4362 C13.6787,14.9462 13.2817,14.5492 12.7907,14.5492 C12.3007,14.5492 11.9037,14.9462 11.9037,15.4362 L11.9037,33.9532 C11.9037,34.4432 12.3007,34.8412 12.7907,34.8412 C13.2817,34.8412 13.6787,34.4432 13.6787,33.9532" id="Fill-14" fill="#5C5C60" mask="url(#mask-4)"></path>
            <path d="M21.6152,33.9532 L21.6152,15.4362 C21.6152,14.9462 21.2182,14.5492 20.7272,14.5492 C20.2372,14.5492 19.8402,14.9462 19.8402,15.4362 L19.8402,33.9532 C19.8402,34.4432 20.2372,34.8412 20.7272,34.8412 C21.2182,34.8412 21.6152,34.4432 21.6152,33.9532" id="Fill-15" fill="#5C5C60" mask="url(#mask-4)"></path>
        </g>
    </g>
</svg>