<?xml version="1.0" encoding="utf-8"?>
<svg width="34px" height="28px" viewBox="0 0 34 28" version="1.1" xmlns:xlink="http://www.w3.org/1999/xlink" xmlns="http://www.w3.org/2000/svg">
  <desc>Created with Lunacy</desc>
  <defs>
    <path d="M3.19795 0C1.43202 0 0 1.42169 0 3.17489L0 3.17489L0 17.3733L0 21.3046L0 22.2234C0 23.9758 1.43202 25.3966 3.19795 25.3966L3.19795 25.3966L28.7791 25.3966C30.5342 25.3966 31.9587 23.9932 31.976 22.2556L31.976 22.2556L31.976 3.14272C31.9587 1.4043 30.5342 0 28.7791 0L28.7791 0L3.19795 0Z" transform="translate(0.04819383 0.04721555)" id="path_1" />
    <path d="M0.389256 0.0525692C0.311318 0.0836051 0.241226 0.131031 0.186826 0.184821L0.186826 0.184821C0.124579 0.247067 0.0778513 0.317072 0.046641 0.388036L0.046641 0.388036C0.0156051 0.472862 0 0.551497 0 0.636323L0 0.636323C0 0.799872 0.0622462 0.963333 0.186826 1.08007L0.186826 1.08007C0.241226 1.14231 0.311318 1.18895 0.389256 1.22016L0.389256 1.22016C0.467021 1.25137 0.544872 1.26768 0.630482 1.26768L0.630482 1.26768C0.801877 1.26768 0.957405 1.20456 1.08198 1.08007L1.08198 1.08007C1.19881 0.963333 1.2689 0.799872 1.2689 0.636323L1.2689 0.636323C1.2689 0.551497 1.25329 0.472862 1.21441 0.388036L1.21441 0.388036C1.18329 0.317072 1.13647 0.247067 1.08198 0.184821L1.08198 0.184821C1.01974 0.131031 0.949646 0.0836051 0.871882 0.0525692L0.871882 0.0525692C0.794031 0.0175231 0.712256 0 0.630569 0L0.630569 0C0.548795 0 0.467021 0.0175231 0.389256 0.0525692L0.389256 0.0525692Z" transform="translate(0.03809744 0.0006974359)" id="path_2" />
    <path d="M3.72568 0C1.66686 0.02633 0 1.69489 0 3.74176L0 3.74176L0 17.6178C0 17.9709 0.288723 18.2579 0.644874 18.2579L0.644874 18.2579C1.00102 18.2579 1.29055 17.9709 1.29055 17.6178L1.29055 17.6178L1.29055 3.74176C1.29055 2.38379 2.40511 1.27898 3.77507 1.27898L3.77507 1.27898L28.8143 1.27898C30.1842 1.27898 31.2988 2.38379 31.2988 3.74176L31.2988 3.74176L31.2988 22.3577C31.2988 23.7149 30.1842 24.8189 28.8143 24.8189L28.8143 24.8189L3.77507 24.8189C2.40511 24.8189 1.29055 23.7149 1.29055 22.3577L1.29055 22.3577L1.29055 21.4597C1.29055 21.1067 1.00102 20.8205 0.644874 20.8205L0.644874 20.8205C0.288723 20.8205 0 21.1067 0 21.4597L0 21.4597L0 22.3577C0 24.4202 1.69351 26.0983 3.77507 26.0983L3.77507 26.0983L28.8143 26.0983C30.8958 26.0983 32.5893 24.4202 32.5893 22.3577L32.5893 22.3577L32.5893 3.74176C32.5893 1.69489 30.9225 0.02633 28.8637 0L28.8637 0L3.72568 0Z" transform="translate(0.03820025 0.01408961)" id="path_3" />
    <path d="M0.0691344 0.359849C-0.0923414 0.681206 0.0387284 1.07122 0.3615 1.2319L0.3615 1.2319L6.06884 4.07184L0.0932434 13.9824C-0.0923414 14.2901 0.00805247 14.6897 0.31733 14.8744L0.31733 14.8744C0.422582 14.9376 0.538359 14.9671 0.652337 14.9671L0.652337 14.9671C0.874804 14.9671 1.09098 14.8552 1.21386 14.6522L1.21386 14.6522L7.24154 4.6553L13.3311 7.68465L19.4206 4.65458L25.4484 14.6522C25.5713 14.8552 25.7873 14.9671 26.0099 14.9671L26.0099 14.9671C26.1239 14.9671 26.2396 14.9376 26.3448 14.8744L26.3448 14.8744C26.6541 14.6897 26.7545 14.2901 26.5697 13.9824L26.5697 13.9824L20.5935 4.07104L26.3015 1.2319C26.6236 1.07122 26.7545 0.681206 26.5931 0.359849L26.5931 0.359849C26.4786 0.131587 26.2478 0 26.0085 0L26.0085 0C25.9102 0 25.8105 0.0221996 25.7167 0.0689263L25.7167 0.0689263L13.3311 6.23076L0.945602 0.0689263C0.851775 0.0221996 0.752011 0 0.653686 0L0.653686 0C0.414306 0 0.183652 0.131587 0.0691344 0.359849L0.0691344 0.359849Z" transform="translate(0.05905672 0.05505151)" id="path_4" />
    <clipPath id="mask_1">
      <use xlink:href="#path_1" />
    </clipPath>
    <clipPath id="mask_2">
      <use xlink:href="#path_2" />
    </clipPath>
    <clipPath id="mask_3">
      <use xlink:href="#path_3" />
    </clipPath>
    <clipPath id="mask_4">
      <use xlink:href="#path_4" />
    </clipPath>
  </defs>
  <g id="Group-9-Copy">
    <g id="Group-5" transform="translate(1.961538 1.961538)">
      <path d="M3.19795 0C1.43202 0 0 1.42169 0 3.17489L0 3.17489L0 17.3733L0 21.3046L0 22.2234C0 23.9758 1.43202 25.3966 3.19795 25.3966L3.19795 25.3966L28.7791 25.3966C30.5342 25.3966 31.9587 23.9932 31.976 22.2556L31.976 22.2556L31.976 3.14272C31.9587 1.4043 30.5342 0 28.7791 0L28.7791 0L3.19795 0Z" transform="translate(0.04819383 0.04721555)" id="Clip-4" fill="none" stroke="none" />
      <g clip-path="url(#mask_1)">
        <path d="M0 36.7554L43.4175 36.7554L43.4175 0L0 0L0 36.7554Z" transform="translate(-5.672441 -5.632166)" id="Fill-3" fill="#FCD505" stroke="none" />
      </g>
    </g>
    <g id="Group-8" transform="translate(0 18.96154)">
      <path d="M0.389256 0.0525692C0.311318 0.0836051 0.241226 0.131031 0.186826 0.184821L0.186826 0.184821C0.124579 0.247067 0.0778513 0.317072 0.046641 0.388036L0.046641 0.388036C0.0156051 0.472862 0 0.551497 0 0.636323L0 0.636323C0 0.799872 0.0622462 0.963333 0.186826 1.08007L0.186826 1.08007C0.241226 1.14231 0.311318 1.18895 0.389256 1.22016L0.389256 1.22016C0.467021 1.25137 0.544872 1.26768 0.630482 1.26768L0.630482 1.26768C0.801877 1.26768 0.957405 1.20456 1.08198 1.08007L1.08198 1.08007C1.19881 0.963333 1.2689 0.799872 1.2689 0.636323L1.2689 0.636323C1.2689 0.551497 1.25329 0.472862 1.21441 0.388036L1.21441 0.388036C1.18329 0.317072 1.13647 0.247067 1.08198 0.184821L1.08198 0.184821C1.01974 0.131031 0.949646 0.0836051 0.871882 0.0525692L0.871882 0.0525692C0.794031 0.0175231 0.712256 0 0.630569 0L0.630569 0C0.548795 0 0.467021 0.0175231 0.389256 0.0525692L0.389256 0.0525692Z" transform="translate(0.03809744 0.0006974359)" id="Clip-7" fill="none" stroke="none" />
      <g clip-path="url(#mask_2)">
        <path d="M0 12.2576L12.2587 12.2576L12.2587 0L0 0L0 12.2576Z" transform="translate(-5.456826 -5.494313)" id="Fill-6" fill="#5C5C60" stroke="none" />
      </g>
    </g>
    <g id="Group-11">
      <path d="M3.72568 0C1.66686 0.02633 0 1.69489 0 3.74176L0 3.74176L0 17.6178C0 17.9709 0.288723 18.2579 0.644874 18.2579L0.644874 18.2579C1.00102 18.2579 1.29055 17.9709 1.29055 17.6178L1.29055 17.6178L1.29055 3.74176C1.29055 2.38379 2.40511 1.27898 3.77507 1.27898L3.77507 1.27898L28.8143 1.27898C30.1842 1.27898 31.2988 2.38379 31.2988 3.74176L31.2988 3.74176L31.2988 22.3577C31.2988 23.7149 30.1842 24.8189 28.8143 24.8189L28.8143 24.8189L3.77507 24.8189C2.40511 24.8189 1.29055 23.7149 1.29055 22.3577L1.29055 22.3577L1.29055 21.4597C1.29055 21.1067 1.00102 20.8205 0.644874 20.8205L0.644874 20.8205C0.288723 20.8205 0 21.1067 0 21.4597L0 21.4597L0 22.3577C0 24.4202 1.69351 26.0983 3.77507 26.0983L3.77507 26.0983L28.8143 26.0983C30.8958 26.0983 32.5893 24.4202 32.5893 22.3577L32.5893 22.3577L32.5893 3.74176C32.5893 1.69489 30.9225 0.02633 28.8637 0L28.8637 0L3.72568 0Z" transform="translate(0.03820025 0.01408961)" id="Clip-10" fill="none" stroke="none" />
      <g clip-path="url(#mask_3)">
        <path d="M0 37.1995L43.7882 37.1995L43.7882 0L0 0L0 37.1995Z" transform="translate(-5.561246 -5.53669)" id="Fill-9" fill="#5C5C60" stroke="none" />
      </g>
    </g>
    <g id="Group-14" transform="translate(3.269231 6.538462)">
      <path d="M0.0691344 0.359849C-0.0923414 0.681206 0.0387284 1.07122 0.3615 1.2319L0.3615 1.2319L6.06884 4.07184L0.0932434 13.9824C-0.0923414 14.2901 0.00805247 14.6897 0.31733 14.8744L0.31733 14.8744C0.422582 14.9376 0.538359 14.9671 0.652337 14.9671L0.652337 14.9671C0.874804 14.9671 1.09098 14.8552 1.21386 14.6522L1.21386 14.6522L7.24154 4.6553L13.3311 7.68465L19.4206 4.65458L25.4484 14.6522C25.5713 14.8552 25.7873 14.9671 26.0099 14.9671L26.0099 14.9671C26.1239 14.9671 26.2396 14.9376 26.3448 14.8744L26.3448 14.8744C26.6541 14.6897 26.7545 14.2901 26.5697 13.9824L26.5697 13.9824L20.5935 4.07104L26.3015 1.2319C26.6236 1.07122 26.7545 0.681206 26.5931 0.359849L26.5931 0.359849C26.4786 0.131587 26.2478 0 26.0085 0L26.0085 0C25.9102 0 25.8105 0.0221996 25.7167 0.0689263L25.7167 0.0689263L13.3311 6.23076L0.945602 0.0689263C0.851775 0.0221996 0.752011 0 0.653686 0L0.653686 0C0.414306 0 0.183652 0.131587 0.0691344 0.359849L0.0691344 0.359849Z" transform="translate(0.05905672 0.05505151)" id="Clip-13" fill="none" stroke="none" />
      <g clip-path="url(#mask_4)">
        <path d="M0 26.2514L38.0024 26.2514L38.0024 0L0 0L0 26.2514Z" transform="translate(-5.610994 -5.587057)" id="Fill-12" fill="#5C5C60" stroke="none" />
      </g>
    </g>
  </g>
</svg>