<?xml version="1.0" encoding="UTF-8"?>
<svg width="48px" height="48px" viewBox="0 0 48 48" version="1.1" xmlns="http://www.w3.org/2000/svg" xmlns:xlink="http://www.w3.org/1999/xlink">
    <!-- Generator: Sketch 62 (91390) - https://sketch.com -->
    <title>iconografia/marca/on/envios</title>
    <desc>Created with Sketch.</desc>
    <defs>
        <polygon id="path-1" points="0 35.917 41.443 35.917 41.443 0 0 0"></polygon>
    </defs>
    <g id="iconografia/marca/on/envios" stroke="none" stroke-width="1" fill="none" fill-rule="evenodd">
        <g id="Page-1" transform="translate(3.000000, 6.000000)">
            <path d="M2.9502,26.6377 L2.9502,12.3517 L2.9502,11.2117 L2.9502,3.5787 C2.9502,3.2647 3.2072,3.0087 3.5202,3.0087 L28.2502,3.0087 C28.5632,3.0087 28.8202,3.2647 28.8202,3.5787 L28.8202,4.7857 C28.8202,5.0997 29.0762,5.3557 29.3902,5.3557 L34.5102,5.3557 C34.8222,5.3557 35.2152,5.5737 35.3812,5.8397 L41.1402,15.0947 C41.3062,15.3607 41.4422,15.8347 41.4422,16.1487 L41.4422,26.6377" id="Fill-1" fill="#FCD600"></path>
            <path d="M13.4053,30.856 C13.4053,33.16 11.5373,35.029 9.2323,35.029 C6.9273,35.029 5.0593,33.16 5.0593,30.856 C5.0593,28.552 6.9273,26.683 9.2323,26.683 C11.5373,26.683 13.4053,28.552 13.4053,30.856" id="Fill-3" fill="#B4B4B4"></path>
            <path d="M35.9365,30.856 C35.9365,33.16 34.0685,35.029 31.7635,35.029 C29.4595,35.029 27.5915,33.16 27.5915,30.856 C27.5915,28.552 29.4595,26.683 31.7635,26.683 C34.0685,26.683 35.9365,28.552 35.9365,30.856" id="Fill-5" fill="#B4B4B4"></path>
            <polygon id="Fill-7" fill="#FFFFFF" points="17.6982 4.6567 16.5172 5.8367 18.4302 7.7497 10.4312 7.7497 10.4312 9.4187 18.4312 9.4187 16.5172 11.3327 17.6982 12.5127 21.6262 8.5847"></polygon>
            <polygon id="Fill-9" fill="#FFFFFF" points="17.1084 16.0947 9.1094 16.0947 11.0214 14.1817 9.8414 13.0017 5.9144 16.9297 9.8414 20.8577 11.0214 19.6777 9.1084 17.7637 17.1084 17.7637"></polygon>
            <path d="M0.5723,14.1118 C0.6723,14.1518 0.7823,14.1718 0.8913,14.1718 C0.9923,14.1718 1.1013,14.1518 1.2023,14.1118 C1.3013,14.0718 1.3913,14.0118 1.4623,13.9318 C1.6123,13.7818 1.7023,13.5718 1.7023,13.3618 C1.7023,13.1418 1.6123,12.9318 1.4623,12.7818 C1.3913,12.7118 1.3013,12.6518 1.2023,12.6118 C1.0023,12.5218 0.7713,12.5218 0.5723,12.6118 C0.4713,12.6518 0.3913,12.7118 0.3113,12.7818 C0.2313,12.8618 0.1813,12.9518 0.1323,13.0518 C0.0923,13.1518 0.0723,13.2518 0.0723,13.3618 C0.0723,13.5718 0.1623,13.7818 0.3113,13.9318 C0.3913,14.0118 0.4713,14.0718 0.5723,14.1118" id="Fill-11" fill="#5C5C60"></path>
            <mask id="mask-2" fill="white">
                <use xlink:href="#path-1"></use>
            </mask>
            <g id="Clip-14"></g>
            <polygon id="Fill-13" fill="#5C5C60" mask="url(#mask-2)" points="28.667 19.433 31.171 19.433 31.171 17.764 28.667 17.764"></polygon>
            <path d="M38.5654,23.3662 L27.5704,23.3662 L27.5704,3.9732 L32.5644,3.9732 L38.5654,13.6152 L38.5654,23.3662 Z M38.5654,30.0422 L36.7424,30.0422 C36.3494,27.6392 34.2764,25.7942 31.7634,25.7942 C29.2774,25.7942 27.2154,27.6002 26.7944,29.9682 L14.2034,29.9682 C13.7814,27.6002 11.7194,25.7942 9.2324,25.7942 C6.7454,25.7942 4.6834,27.6002 4.2614,29.9682 L1.7754,29.9682 L1.7754,24.9932 L38.5654,24.9932 L38.5654,30.0422 Z M31.7634,34.1402 C29.9534,34.1402 28.4794,32.6672 28.4794,30.8562 C28.4794,29.0442 29.9534,27.5712 31.7634,27.5712 C33.5754,27.5712 35.0484,29.0442 35.0484,30.8562 C35.0484,32.6672 33.5754,34.1402 31.7634,34.1402 L31.7634,34.1402 Z M9.2324,34.1402 C7.4204,34.1402 5.9474,32.6672 5.9474,30.8562 C5.9474,29.0442 7.4204,27.5712 9.2324,27.5712 C11.0444,27.5712 12.5174,29.0442 12.5174,30.8562 C12.5174,32.6672 11.0444,34.1402 9.2324,34.1402 L9.2324,34.1402 Z M40.0694,12.9522 L33.7074,2.7302 C33.5584,2.4912 33.2974,2.3462 33.0164,2.3462 L27.5704,2.3462 L27.5704,0.8132 C27.5704,0.3642 27.2064,0.0002 26.7564,0.0002 L0.8874,0.0002 C0.4384,0.0002 0.0744,0.3642 0.0744,0.8132 L0.0744,9.5862 C0.0744,10.0352 0.4384,10.4002 0.8874,10.4002 C1.3364,10.4002 1.7014,10.0352 1.7014,9.5862 L1.7014,1.6272 L25.9434,1.6272 L25.9434,3.1602 L25.9434,23.3662 L1.7754,23.3662 L1.7754,16.9292 C1.7754,16.4392 1.3774,16.0412 0.8874,16.0412 C0.3974,16.0412 0.0004,16.4392 0.0004,16.9292 L0.0004,30.8562 C0.0004,31.3462 0.3974,31.7442 0.8874,31.7442 L4.2614,31.7442 C4.6834,34.1112 6.7464,35.9172 9.2324,35.9172 C11.7184,35.9172 13.7814,34.1112 14.2034,31.7442 L26.7944,31.7442 C27.2154,34.1112 29.2774,35.9172 31.7634,35.9172 C34.2764,35.9172 36.3494,34.0722 36.7424,31.6692 L39.3784,31.6692 C39.8284,31.6692 40.1924,31.3042 40.1924,30.8552 L40.1924,13.3822 C40.1924,13.2302 40.1494,13.0812 40.0694,12.9522 L40.0694,12.9522 Z" id="Fill-15" fill="#5C5C60" mask="url(#mask-2)"></path>
            <polygon id="Fill-16" fill="#5C5C60" mask="url(#mask-2)" points="8.398 31.951 10.067 31.951 10.067 30.282 8.398 30.282"></polygon>
            <polygon id="Fill-17" fill="#5C5C60" mask="url(#mask-2)" points="30.93 31.951 32.6 31.951 32.6 30.282 30.93 30.282"></polygon>
        </g>
    </g>
</svg>