<?xml version="1.0" encoding="UTF-8"?>
<svg width="48px" height="48px" viewBox="0 0 48 48" version="1.1" xmlns="http://www.w3.org/2000/svg" xmlns:xlink="http://www.w3.org/1999/xlink">
    <!-- Generator: Sketch 62 (91390) - https://sketch.com -->
    <title>iconografia/marca/off/envios</title>
    <desc>Created with Sketch.</desc>
    <defs>
        <polygon id="path-1" points="0 35.917 40.193 35.917 40.193 0 0 0"></polygon>
    </defs>
    <g id="iconografia/marca/off/envios" stroke="none" stroke-width="1" fill="none" fill-rule="evenodd">
        <g id="Page-1" transform="translate(4.000000, 6.000000)">
            <path d="M0.8916,14.1719 C1.1016,14.1719 1.3116,14.0819 1.4616,13.9319 C1.5316,13.8619 1.6016,13.7719 1.6416,13.6719 C1.6816,13.5719 1.7026,13.4619 1.7026,13.3619 C1.7026,13.1419 1.6116,12.9319 1.4616,12.7819 C1.1626,12.4819 0.6116,12.4819 0.3116,12.7819 C0.1626,12.9319 0.0716,13.1419 0.0716,13.3619 C0.0716,13.4619 0.0916,13.5719 0.1316,13.6719 C0.1816,13.7719 0.2316,13.8619 0.3116,13.9319 C0.4616,14.0819 0.6716,14.1719 0.8916,14.1719" id="Fill-1" fill="#5C5C60"></path>
            <mask id="mask-2" fill="white">
                <use xlink:href="#path-1"></use>
            </mask>
            <g id="Clip-4"></g>
            <polygon id="Fill-3" fill="#5C5C60" mask="url(#mask-2)" points="28.668 19.433 31.171 19.433 31.171 17.764 28.668 17.764"></polygon>
            <path d="M36.7432,30.042 C36.3502,27.639 34.2772,25.794 31.7642,25.794 C29.2782,25.794 27.2172,27.601 26.7952,29.968 L14.2032,29.968 C13.7812,27.601 11.7202,25.794 9.2322,25.794 C6.7462,25.794 4.6842,27.601 4.2632,29.968 L1.7752,29.968 L1.7752,24.993 L38.5662,24.993 L38.5662,30.042 L36.7432,30.042 Z M31.7642,34.141 C29.9542,34.141 28.4802,32.667 28.4802,30.856 C28.4802,29.044 29.9542,27.571 31.7642,27.571 C33.5762,27.571 35.0502,29.044 35.0502,30.856 C35.0502,32.667 33.5762,34.141 31.7642,34.141 L31.7642,34.141 Z M9.2322,34.141 C7.4222,34.141 5.9482,32.667 5.9482,30.856 C5.9482,29.044 7.4222,27.571 9.2322,27.571 C11.0442,27.571 12.5172,29.044 12.5172,30.856 C12.5172,32.667 11.0442,34.141 9.2322,34.141 L9.2322,34.141 Z M27.5712,3.974 L32.5642,3.974 L38.5662,13.615 L38.5662,23.366 L27.5712,23.366 L27.5712,3.974 Z M40.0702,12.953 L33.7072,2.73 C33.5582,2.492 33.2982,2.347 33.0162,2.347 L27.5712,2.347 L27.5712,0.813 C27.5712,0.364 27.2072,0 26.7582,0 L0.8882,0 C0.4382,0 0.0742,0.364 0.0742,0.813 L0.0742,9.586 C0.0742,10.036 0.4382,10.4 0.8882,10.4 C1.3372,10.4 1.7012,10.036 1.7012,9.586 L1.7012,1.627 L25.9442,1.627 L25.9442,3.16 L25.9442,23.366 L1.7752,23.366 L1.7752,16.93 C1.7752,16.439 1.3782,16.042 0.8882,16.042 C0.3972,16.042 0.0002,16.439 0.0002,16.93 L0.0002,30.856 C0.0002,31.346 0.3972,31.744 0.8882,31.744 L4.2632,31.744 C4.6842,34.111 6.7462,35.917 9.2322,35.917 C11.7202,35.917 13.7812,34.111 14.2032,31.744 L26.7952,31.744 C27.2172,34.111 29.2782,35.917 31.7642,35.917 C34.2772,35.917 36.3502,34.072 36.7432,31.669 L39.3802,31.669 C39.8292,31.669 40.1932,31.305 40.1932,30.855 L40.1932,13.382 C40.1932,13.23 40.1502,13.082 40.0702,12.953 L40.0702,12.953 Z" id="Fill-5" fill="#5C5C60" mask="url(#mask-2)"></path>
            <polygon id="Fill-6" fill="#5C5C60" mask="url(#mask-2)" points="10.4316 9.419 18.4326 9.419 16.5186 11.333 17.6986 12.513 21.6256 8.585 17.6986 4.657 16.5186 5.837 18.4316 7.75 10.4316 7.75"></polygon>
            <polygon id="Fill-7" fill="#5C5C60" mask="url(#mask-2)" points="5.9141 16.9297 9.8421 20.8577 11.0221 19.6777 9.1081 17.7637 17.1091 17.7637 17.1091 16.0947 9.1091 16.0947 11.0221 14.1817 9.8421 13.0017"></polygon>
            <polygon id="Fill-8" fill="#5C5C60" mask="url(#mask-2)" points="8.397 31.951 10.067 31.951 10.067 30.282 8.397 30.282"></polygon>
            <polygon id="Fill-9" fill="#5C5C60" mask="url(#mask-2)" points="30.93 31.951 32.599 31.951 32.599 30.282 30.93 30.282"></polygon>
        </g>
    </g>
</svg>