<?xml version="1.0" encoding="UTF-8"?>
<svg width="32px" height="31px" viewBox="0 0 32 31" version="1.1" xmlns="http://www.w3.org/2000/svg" xmlns:xlink="http://www.w3.org/1999/xlink">
    <!-- Generator: Sketch 62 (91390) - https://sketch.com -->
    <title>Group 12 Copy</title>
    <desc>Created with Sketch.</desc>
    <g id="MARKETPLACE-DESK" stroke="none" stroke-width="1" fill="none" fill-rule="evenodd">
        <g id="22---Compartir" transform="translate(-791.000000, -466.000000)">
            <g id="Group-10" transform="translate(605.000000, 134.000000)">
                <g id="Group-4" transform="translate(72.000000, 332.000000)">
                    <g id="Group-12-Copy" transform="translate(114.000000, 0.000000)">
                        <path d="M3.40425532,15.659611 C3.40425532,8.13911008 9.80561632,2.04255319 17.7021277,2.04255319 C25.5985646,2.04255319 32,8.13911008 32,15.659611 C32,23.1800389 25.5985646,29.2765957 17.7021277,29.2765957 C9.80561632,29.2765957 3.40425532,23.1800389 3.40425532,15.659611" id="Fill-25" fill="#FCD505"></path>
                        <path d="M4.41290329,20.4255319 L2.06164989,26.8133859 C1.97014899,27.0622746 2.22304407,27.3012203 2.4884981,27.2167055 L8.17021277,25.4078039 L4.41290329,20.4255319 Z" id="Fill-27" fill="#FCD505"></path>
                        <path d="M31.1260072,12.765497 C30.6396345,9.3912131 29.1326053,6.51705937 26.627827,4.15718698 C24.0109068,1.69158409 20.8806639,0.319947219 17.2574605,0.0479954803 C14.3327862,-0.171530943 11.5441346,0.355655091 8.98979825,1.76065353 C3.94677881,4.5345026 1.24354372,8.77919338 0.977038128,14.4545453 C0.858757556,16.971987 1.46423431,19.3537093 2.61043293,21.6070447 C2.65856863,21.7018502 2.67017211,21.8608859 2.63468794,21.9608972 C2.46602583,22.4376377 2.29654025,22.9140848 2.12690495,23.3905319 C1.98362076,23.7928504 2.28853011,24.2133527 2.72362295,24.2133527 C2.99222465,24.2133527 3.23125621,24.0469848 3.31989178,23.7987895 C3.50996417,23.2665442 3.70063544,22.7345922 3.89302853,22.2032268 C4.02126563,21.8489344 3.99888215,21.5190582 3.82161102,21.1875689 C2.74331142,19.1722371 2.20146663,17.0242656 2.22856635,14.7506201 C2.27056344,11.235851 3.50419986,8.16893339 5.94295061,5.58828809 C8.04168215,3.36750776 10.6223696,1.94894473 13.6711636,1.4579065 C18.2658398,0.717793035 22.3168745,1.88830734 25.7241036,5.02231466 C27.8976214,7.02151555 29.3431896,9.67621618 29.8124191,12.5602684 C30.5261451,16.9458843 29.3634021,20.835476 26.2708892,24.1368778 C24.2202185,26.3259829 21.6713471,27.689701 18.6854364,28.228032 C15.5458358,28.7940788 12.5458512,28.3512865 9.70412307,26.9229716 C9.32540066,26.7325541 8.96494436,26.7026387 8.56458708,26.8412175 C6.24628787,27.6435814 3.92491936,28.4370001 1.6042246,29.2329117 C1.53684959,29.2560081 1.46715389,29.2729455 1.35471248,29.3053539 C1.53101043,28.8119694 1.70438878,28.3265769 1.87619506,27.8457305 C2.01992841,27.4432654 1.71486934,27.0223964 1.27962678,27.0223964 C1.01109994,27.0223964 0.771843794,27.1885443 0.683133365,27.4367397 C0.484002782,27.9934012 0.2848722,28.5499894 0.085142728,29.106431 C-0.0797014611,29.5655008 -0.010529785,29.9779377 0.339520818,30.3179324 C0.690320033,30.6585869 1.11171328,30.7121121 1.57854724,30.55139 C3.98817701,29.7218969 6.40102581,28.9009824 8.80975725,28.0690697 C8.98485742,28.0086522 9.11893368,28.0195772 9.28085829,28.099865 C11.2990393,29.1006386 13.441864,29.6353768 15.7019961,29.6938145 C18.4028356,29.7636172 20.9751386,29.2224999 23.3263019,27.9105472 C28.482137,25.0334606 31.0785453,20.6312006 31.3191489,14.8463054 C31.2563405,14.1506985 31.2251982,13.4533318 31.1260072,12.765497" id="Fill-29" fill="#5C5C60"></path>
                        <path d="M2.04255319,25.8723404 C2.04255319,26.2483704 2.34737433,26.5531915 2.72340426,26.5531915 C3.09943418,26.5531915 3.40425532,26.2483704 3.40425532,25.8723404 C3.40425532,25.4963105 3.09943418,25.1914894 2.72340426,25.1914894 C2.34737433,25.1914894 2.04255319,25.4963105 2.04255319,25.8723404" id="Fill-31" fill="#5C5C60"></path>
                        <path d="M8.98920271,18.381822 C9.08744007,18.3328954 9.19490332,18.2828816 9.29911906,18.2270691 C10.8947565,17.3732824 12.4897297,16.518046 14.0855148,15.6645493 C14.6147123,15.3815 14.9527492,15.4193366 15.4136013,15.8072699 C16.1984669,16.4679597 16.9826682,17.1294469 17.767829,17.7896293 C18.0783358,18.0507885 18.3910568,18.3094831 18.645544,18.5217157 C20.8104563,16.3955484 22.9447385,14.2995344 25.0790208,12.2035203 C25.0297914,12.2591154 24.9570914,12.2955747 24.8854246,12.3339187 C23.253474,13.2069135 21.6215972,14.0801259 19.9897942,14.9533382 C19.4286382,15.2535661 19.1029271,15.218194 18.6113713,14.8038041 C17.7171234,14.0500451 16.8229494,13.2960686 15.9280373,12.5430344 C15.7418218,12.3863244 15.5527278,12.2330212 15.3879164,12.0971141 C13.2410131,14.2057403 11.1163257,16.2925489 8.98920271,18.381822 M14.6310237,16.6835265 C12.831826,17.6459664 11.038902,18.6086963 9.2419185,19.5642502 C8.45631485,19.9820468 7.61447013,19.5743979 7.49888808,18.7215535 C7.44582072,18.3303585 7.6193414,18.017011 7.89788971,17.7444719 C9.28221722,16.3896772 10.6627806,15.0311133 12.0446724,13.6739992 C12.8490231,12.8840707 13.6521191,12.093055 14.4580935,11.3047937 C15.0011667,10.7734874 15.6057952,10.7582658 16.1909385,11.2522429 C17.1943472,12.0991436 18.2020366,12.9411155 19.1999097,13.7942498 C19.3481146,13.9209515 19.4507065,13.9362455 19.6266629,13.8410743 C21.3353729,12.9166884 23.04984,12.0023053 24.7636427,11.0867624 C25.2849429,10.8082072 25.7611468,10.8364758 26.149594,11.1616382 C26.6191553,11.5547178 26.6894936,12.2441112 26.3052534,12.7226493 C26.2352103,12.8099198 26.1525463,12.8878399 26.0721703,12.9667022 C23.937519,15.063876 21.8024986,17.1606874 19.6672568,19.2572088 C19.0291937,19.8836138 18.4898846,19.9058663 17.7974257,19.3265758 C16.7667822,18.464381 15.7401243,17.5976197 14.7114736,16.7331055 C14.6960478,16.7201309 14.6769318,16.7115778 14.6310237,16.6835265" id="Fill-33" fill="#5C5C60"></path>
                    </g>
                </g>
            </g>
        </g>
    </g>
</svg>