<?xml version="1.0" encoding="UTF-8"?>
<svg width="48px" height="48px" viewBox="0 0 48 48" version="1.1" xmlns="http://www.w3.org/2000/svg" xmlns:xlink="http://www.w3.org/1999/xlink">
    <!-- Generator: Sketch 62 (91390) - https://sketch.com -->
    <title>iconografia/marca/on/favorito</title>
    <desc>Created with Sketch.</desc>
    <g id="iconografia/marca/on/favorito" stroke="none" stroke-width="1" fill="none" fill-rule="evenodd">
        <path d="M24.7104849,7.73981632 L30.2634786,18.9493689 L42.6803723,20.7473183 L39.3984187,23.9338138 L39.0788163,24.0488163 L33.7900125,28.8482931 L35.9118374,41.1693054 L24.8050688,35.3512658 L13.6990816,41.1693054 L15.3278163,32.6768163 L15.1630546,32.737539 L15.72476,29.4739885 L6.73981632,20.7473183 L19.1567101,18.9493689 L24.7104849,7.73981632 Z" id="Stroke-2-Copy" fill="#FFD200"></path>
        <path d="M35.7752876,24.0238585 L31.9550655,27.7341722 L34.0768903,40.0551844 L22.9701218,34.2371448 L11.8641345,40.0551844 L13.0203571,33.3366135 M13.4232382,30.9977227 L13.9849437,27.7341722 L5,19.007502 L17.4168938,17.2095526 L22.9706686,6 L28.5236623,17.2095526 L40.940556,19.007502 L37.6586024,22.1939975" id="Stroke-2" stroke="#58595B" stroke-width="1.5" stroke-linecap="round" stroke-linejoin="round"></path>
    </g>
</svg>