<?xml version="1.0" encoding="UTF-8"?>
<svg width="48px" height="48px" viewBox="0 0 48 48" version="1.1" xmlns="http://www.w3.org/2000/svg" xmlns:xlink="http://www.w3.org/1999/xlink">
    <!-- Generator: Sketch 62 (91390) - https://sketch.com -->
    <title>iconografia/marca/off/filtro</title>
    <desc>Created with Sketch.</desc>
    <defs>
        <path d="M1.125,0.075 C0.62,0.262 0.362,0.822 0.549,1.326 L0.549,1.326 L5.37,14.367 C5.554,14.872 6.115,15.13 6.62,14.943 L6.62,14.943 C7.013,14.798 7.257,14.425 7.257,14.03 L7.257,14.03 C7.257,13.917 7.236,13.804 7.196,13.692 L7.196,13.692 L2.376,0.651 C2.231,0.258 1.859,0.015 1.463,0.015 L1.463,0.015 C1.351,0.015 1.237,0.034 1.125,0.075 L1.125,0.075 Z" id="path-1"></path>
    </defs>
    <g id="iconografia/marca/off/filtro" stroke="none" stroke-width="1" fill="none" fill-rule="evenodd">
        <g id="Page-1" transform="translate(8.000000, 5.000000)">
            <g id="Group-3" transform="translate(5.000000, 5.329700)">
                <mask id="mask-2" fill="white">
                    <use xlink:href="#path-1"></use>
                </mask>
                <g id="Clip-2"></g>
                <polygon id="Fill-1" fill="#5C5C60" mask="url(#mask-2)" points="-8.233 23.726 15.978 23.726 15.978 -8.707 -8.233 -8.707"></polygon>
            </g>
            <polyline id="Stroke-4" stroke="#5C5C60" stroke-width="1.744" stroke-linecap="round" stroke-linejoin="round" points="30.1239 5.0379 31.5729 0.9779 0.2499 0.9779 8.8659 25.6099 14.2279 25.6099 14.2279 38.4409 17.5949 35.2689 17.5949 25.4079 22.8549 25.4079 28.1779 10.4909"></polyline>
            <path d="M29.6351,6.9852 C30.0291,7.2132 30.1641,7.7162 29.9371,8.1102 C29.7091,8.5052 29.2051,8.6392 28.8111,8.4122 C28.4171,8.1842 28.2821,7.6802 28.5101,7.2862 C28.7371,6.8922 29.2411,6.7562 29.6351,6.9852" id="Fill-5" fill="#5C5C60"></path>
        </g>
    </g>
</svg>