<?xml version="1.0" encoding="UTF-8"?>
<svg width="48px" height="48px" viewBox="0 0 48 48" version="1.1" xmlns="http://www.w3.org/2000/svg" xmlns:xlink="http://www.w3.org/1999/xlink">
    <!-- Generator: Sketch 62 (91390) - https://sketch.com -->
    <title>iconografia/marca/on/filtro</title>
    <desc>Created with Sketch.</desc>
    <defs>
        <path d="M0.974,0.503 C0.475,0.688 0.219,1.243 0.404,1.742 L0.404,1.742 L5.176,14.654 C5.359,15.153 5.914,15.408 6.414,15.223 L6.414,15.223 C6.803,15.08 7.045,14.711 7.045,14.319 L7.045,14.319 C7.045,14.208 7.025,14.096 6.984,13.985 L6.984,13.985 L2.213,1.074 C2.069,0.685 1.701,0.443 1.308,0.443 L1.308,0.443 C1.197,0.443 1.084,0.462 0.974,0.503 L0.974,0.503 Z" id="path-1"></path>
        <path d="M0.974,0.503 C0.475,0.688 0.219,1.243 0.404,1.742 L0.404,1.742 L5.176,14.654 C5.359,15.153 5.914,15.408 6.414,15.223 L6.414,15.223 C6.803,15.08 7.045,14.711 7.045,14.319 L7.045,14.319 C7.045,14.208 7.025,14.096 6.984,13.985 L6.984,13.985 L2.213,1.074 C2.07,0.685 1.701,0.443 1.308,0.443 L1.308,0.443 C1.197,0.443 1.084,0.462 0.974,0.503 L0.974,0.503 Z" id="path-3"></path>
    </defs>
    <g id="iconografia/marca/on/filtro" stroke="none" stroke-width="1" fill="none" fill-rule="evenodd">
        <g id="Page-1" transform="translate(8.000000, 5.000000)">
            <polygon id="Fill-1" fill="#FCD603" points="17.3067 33.2174 17.3067 26.7744 22.5147 26.7744 31.1457 2.5884 0.1357 2.5884 8.6657 26.9744 13.9737 26.9744 13.9737 36.3574"></polygon>
            <path d="M14.4141,20.0309 C14.8041,19.8869 15.0441,19.5179 15.0441,19.1269 C15.0441,19.0149 15.0251,18.9029 14.9841,18.7929 L10.2121,5.8819 C10.0291,5.3819 9.4741,5.1259 8.9741,5.3109 C8.4751,5.4949 8.2191,6.0499 8.4041,6.5499 L13.1761,19.4609 C13.3591,19.9609 13.9141,20.2159 14.4141,20.0309" id="Fill-2" fill="#FFFFFF"></path>
            <g id="Group-6" transform="translate(8.000000, 4.807400)">
                <mask id="mask-2" fill="white">
                    <use xlink:href="#path-1"></use>
                </mask>
                <g id="Clip-5"></g>
                <polygon id="Fill-4" fill="#FFFFFF" mask="url(#mask-2)" points="-14 43 37.807 43 37.807 -8.807 -14 -8.807"></polygon>
            </g>
            <g id="Group-9" transform="translate(8.000000, 4.807400)">
                <mask id="mask-4" fill="white">
                    <use xlink:href="#path-3"></use>
                </mask>
                <g id="Clip-8"></g>
                <polygon id="Fill-7" fill="#FFFFFF" mask="url(#mask-4)" points="-8.29 23.918 15.679 23.918 15.679 -8.191 -8.29 -8.191"></polygon>
            </g>
            <g id="Group-14" transform="translate(0.000000, 0.807400)">
                <polyline id="Stroke-10" stroke="#5C5C60" stroke-width="1.727" stroke-linecap="round" stroke-linejoin="round" points="30.4073 4.14 31.8423 0.121 0.8313 0.121 9.3623 24.508 14.6703 24.508 14.6703 37.21 18.0033 34.07 18.0033 24.307 23.2113 24.307 28.4813 9.538"></polyline>
                <path d="M29.9234,6.0677 C30.3144,6.2927 30.4474,6.7917 30.2224,7.1817 C29.9974,7.5717 29.4984,7.7057 29.1084,7.4807 C28.7174,7.2547 28.5844,6.7567 28.8094,6.3657 C29.0344,5.9757 29.5334,5.8417 29.9234,6.0677" id="Fill-12" fill="#5C5C60"></path>
            </g>
        </g>
    </g>
</svg>