<?xml version="1.0" encoding="UTF-8"?>
<svg width="48px" height="48px" viewBox="0 0 48 48" version="1.1" xmlns="http://www.w3.org/2000/svg" xmlns:xlink="http://www.w3.org/1999/xlink">
    <!-- Generator: Sketch 62 (91390) - https://sketch.com -->
    <title>iconografia/marca/on/guardar</title>
    <desc>Created with Sketch.</desc>
    <defs>
        <polygon id="path-1" points="0.753209459 0.691944976 32.9816953 0.691944976 32.9816953 33.1578947 0.753209459 33.1578947"></polygon>
    </defs>
    <g id="iconografia/marca/on/guardar" stroke="none" stroke-width="1" fill="none" fill-rule="evenodd">
        <g id="Group" transform="translate(7.000000, 7.000000)">
            <g id="Page-1">
                <g id="Group-3" transform="translate(1.891892, 1.842105)">
                    <mask id="mask-2" fill="white">
                        <use xlink:href="#path-1"></use>
                    </mask>
                    <g id="Clip-2"></g>
                    <path d="M28.1230805,1.1893134 C27.8040387,0.871299043 27.3736333,0.691944976 26.923664,0.691944976 L2.44774263,0.691944976 C1.51168612,0.691944976 0.753209459,1.45306938 0.753209459,2.39053349 L0.753209459,31.4594569 C0.753209459,32.3969211 1.51168612,33.1580455 2.44774263,33.1580455 L31.2864097,33.1580455 C32.2224662,33.1580455 32.9824478,32.3969211 32.9824478,31.4594569 L32.9824478,6.75983971 C32.9824478,6.30919378 32.8018581,5.87663397 32.4843213,5.55861962 L31.1554822,4.22627512" id="Fill-1" fill="#FCD603" mask="url(#mask-2)"></path>
                </g>
                <path d="M31.5823398,34.0789474 L2.47171422,34.0789474 C1.10748597,34.0789474 0,32.9767978 0,31.6191431 L0,2.45980424 C0,1.1036614 1.10748597,0 2.47171422,0 L27.1797413,0 C27.8375485,0 28.457376,0.255505173 28.9268042,0.719647706 C29.2230453,1.01446137 29.2230453,1.49372255 28.9268042,1.78853621 C28.6305631,2.08486174 28.1489814,2.08334987 27.8527403,1.79004808 C27.6734765,1.61013615 27.4334452,1.51186493 27.1797413,1.51186493 L2.47171422,1.51186493 C1.94607616,1.51186493 1.51918514,1.93669897 1.51918514,2.45980424 L1.51918514,31.6191431 C1.51918514,32.1422484 1.94607616,32.5670824 2.47171422,32.5670824 L31.5823398,32.5670824 C32.1079779,32.5670824 32.5348689,32.1422484 32.5348689,31.6191431 L32.5348689,6.84270067 C32.5348689,6.59324296 32.4330835,6.34832084 32.2553389,6.17143264 L30.9138984,4.83645591 C30.6161381,4.54013038 30.6161381,4.06238106 30.9138984,3.7675674 C31.2101395,3.47124188 31.690202,3.47124188 31.9879623,3.7675674 L33.3294027,5.10254414 C33.7973118,5.5697104 34.0540541,6.18655129 34.0540541,6.84270067 L34.0540541,31.6191431 C34.0540541,32.9767978 32.9450489,34.0789474 31.5823398,34.0789474" id="Fill-4" fill="#5C5C60"></path>
                <path d="M30.6293231,1.95551804 C31.0455393,2.18946541 31.1874312,2.70709698 30.9471609,3.11236014 C30.7068907,3.5176233 30.175269,3.65578119 29.7590528,3.42183383 C29.3428366,3.18788646 29.2009447,2.67025488 29.441215,2.26499172 C29.6814853,1.86157067 30.2131069,1.72157067 30.6293231,1.95551804" id="Fill-6" fill="#5C5C60"></path>
                <path d="M24.5945946,12.8947368 L9.45945946,12.8947368 L9.45945946,5.34526259 C9.45945946,4.93678291 9.80914192,4.60526316 10.2435009,4.60526316 C10.6762917,4.60526316 11.0275423,4.93678291 11.0275423,5.34526259 L11.0275423,11.414738 L23.0265118,11.414738 L23.0265118,5.34526259 C23.0265118,4.93678291 23.3777623,4.60526316 23.8105532,4.60526316 C24.243344,4.60526316 24.5945946,4.93678291 24.5945946,5.34526259 L24.5945946,12.8947368 Z" id="Fill-8" fill="#5C5C60"></path>
                <path d="M26.6753453,30.3947368 C26.2574332,30.3947368 25.9182582,30.0699153 25.9182582,29.6696889 L25.9182582,20.7922012 L8.13579587,20.7922012 L8.13579587,29.6696889 C8.13579587,30.0699153 7.79662084,30.3947368 7.37870874,30.3947368 C6.95928248,30.3947368 6.62162162,30.0699153 6.62162162,29.6696889 L6.62162162,19.3421053 L27.4324324,19.3421053 L27.4324324,29.6696889 C27.4324324,30.0699153 27.0932574,30.3947368 26.6753453,30.3947368" id="Fill-10" fill="#5C5C60"></path>
                <path d="M20.8108108,9.21052632 C20.2886486,9.21052632 19.8648649,8.855666 19.8648649,8.41842739 L19.8648649,5.39736208 C19.8648649,4.95853928 20.2886486,4.60526316 20.8108108,4.60526316 C21.332973,4.60526316 21.7567568,4.95853928 21.7567568,5.39736208 L21.7567568,8.41842739 C21.7567568,8.855666 21.332973,9.21052632 20.8108108,9.21052632" id="Fill-12" fill="#FFFFFF"></path>
            </g>
        </g>
    </g>
</svg>