<?xml version="1.0" encoding="UTF-8"?>
<svg width="164px" height="135px" viewBox="0 0 164 135" version="1.1" xmlns="http://www.w3.org/2000/svg" xmlns:xlink="http://www.w3.org/1999/xlink">
    <!-- Generator: Sketch 62 (91390) - https://sketch.com -->
    <title>Page 1</title>
    <desc>Created with Sketch.</desc>
    <defs>
        <polygon id="path-1" points="0 0.339 163.988 0.339 163.988 134.999817 0 134.999817"></polygon>
    </defs>
    <g id="Symbols" stroke="none" stroke-width="1" fill="none" fill-rule="evenodd">
        <g id="logos/Bancolombia/isotipo" transform="translate(-8.000000, -24.000000)">
            <g id="Page-1" transform="translate(8.000000, 23.000000)">
                <g id="Group-3" transform="translate(0.000000, 0.661000)">
                    <mask id="mask-2" fill="white">
                        <use xlink:href="#path-1"></use>
                    </mask>
                    <g id="Clip-2"></g>
                    <path d="M163.3228,90.3276 L163.2638,90.1706 C163.2638,90.1706 155.9158,69.9316 155.8918,69.8796 C155.4528,68.8126 154.9348,67.9006 154.3738,67.0896 C157.1968,66.3516 159.4368,64.7816 160.7148,62.4906 C161.2978,61.4056 161.8468,59.9026 161.8468,58.0056 C161.8468,56.6806 161.5978,55.1686 160.8918,53.4826 L154.3708,36.8506 C152.5498,33.2376 150.2198,30.2216 145.1268,29.1756 C146.1118,26.5896 145.8228,23.6606 144.1778,21.0466 L144.6458,21.9346 L138.7258,8.2646 L138.5398,7.9376 C135.2938,2.3736 131.1428,1.7286 128.3968,1.2796 C119.3028,-0.1614 99.3678,0.0816 82.9048,1.8116 C75.2418,2.4626 66.9118,3.6526 56.7498,5.5306 C49.1888,7.0516 39.2078,9.1816 28.4638,12.3386 C24.7008,13.5376 22.1498,15.4906 20.7698,18.2206 C20.2018,19.3206 19.6958,20.8726 19.6958,22.8296 C19.6958,24.0366 19.8868,25.3956 20.4078,26.9136 L25.6268,42.0086 C26.0058,43.0996 27.0118,45.2216 28.9298,46.9546 C24.2098,48.6286 9.8028,53.6876 9.8028,53.6876 C3.7918,56.0546 -0.0002,61.2666 -0.0002,66.6406 C-0.0002,67.4556 0.0878,68.2506 0.2568,69.0526 C0.2948,69.2076 5.8958,91.7006 5.8958,91.7006 C6.8888,95.1206 9.0768,97.7306 12.1118,99.2256 C15.4968,100.9346 19.7028,101.0496 23.6188,99.5446 C32.5408,96.1606 42.2708,92.8926 52.2638,89.8476 C51.5968,92.3756 51.7218,95.1206 52.6868,97.8596 C52.6868,97.8596 62.3658,125.2686 62.4198,125.4416 C64.9568,132.8616 72.6038,136.7496 79.9528,134.2366 L126.3018,116.8566 L149.4238,107.9566 L156.6958,105.1116 C162.8198,102.6136 165.2958,97.0956 163.3228,90.3276" id="Fill-1" fill="#FFFFFF" mask="url(#mask-2)"></path>
                </g>
                <path d="M157.2945,92.7484 C158.1765,95.7814 157.8925,98.5054 154.3095,99.9744 C150.0175,101.7194 146.8315,102.8594 141.5455,104.9424 C138.8375,105.9654 136.2325,106.9804 133.2425,108.1374 C130.3355,109.2284 127.3395,110.4154 124.0655,111.6444 C111.0415,116.6324 96.2525,122.1944 77.7825,129.0154 C73.8225,130.3594 69.8005,128.2934 68.3475,124.0574 C65.3245,114.3764 61.8955,105.0014 58.5525,96.2814 C57.1325,92.2754 59.2175,88.6484 63.0755,87.4684 C72.4555,84.8334 80.8385,82.7484 88.9865,80.7564 C97.0795,78.7634 104.2175,77.0684 111.0305,75.5704 C124.6855,72.4674 133.4495,70.5934 142.7845,68.9654 C147.2915,68.1634 148.9065,70.1074 150.1175,72.9914 C152.7765,79.4374 155.1065,85.9424 157.2945,92.7484" id="Fill-4" fill="#E30520"></path>
                <path d="M148.5191,39.8167 C147.2281,37.2707 146.0881,35.7847 141.3861,35.6987 C128.3271,35.4227 113.1181,36.4107 90.1941,39.7977 C78.6991,41.4837 66.3001,43.8677 52.7911,47.2197 C46.0061,49.0137 39.2901,50.7107 32.4601,53.0257 C25.2991,55.2377 18.7391,57.6027 12.0551,60.1957 C8.0961,61.7777 5.7331,65.3327 6.3851,68.3817 C8.1051,75.4697 9.8801,82.6017 11.9781,90.8137 C13.0071,94.3677 17.0831,95.9877 21.3861,94.3467 C36.3351,88.6677 51.9561,83.7797 66.5681,79.8237 C81.2551,75.9657 93.7891,73.0747 105.3041,70.5417 C128.1111,65.5837 140.0651,63.9887 152.3181,61.8417 C155.0941,61.3457 156.3221,59.5427 155.0871,56.5147 L148.5191,39.8167 Z" id="Fill-6" fill="#FFD300"></path>
                <path d="M133.1168,11.744 C131.3608,8.747 129.6448,8.476 127.3648,8.126 C119.0958,6.812 99.7208,6.998 83.5048,8.719 C75.3358,9.41 67.0158,10.662 57.8998,12.355 C48.8528,14.166 39.7558,16.227 30.2328,19.039 C27.0398,20.036 25.0998,21.879 26.3468,25.562 C28.0318,30.532 29.5288,34.747 31.5508,40.612 C32.9028,44.496 36.2598,44.526 39.8048,43.447 C50.4428,40.304 60.5538,37.89 70.4368,35.95 C80.3708,33.957 89.1778,32.728 97.6048,31.583 C114.5008,29.549 128.9998,29.117 137.1468,29.009 C139.0198,28.969 140.2748,27.285 138.8878,25.095 L133.1168,11.744 Z" id="Fill-8" fill="#063E85"></path>
            </g>
        </g>
    </g>
</svg>