<?xml version="1.0" encoding="utf-8"?>
<svg width="54px" height="20px" viewBox="0 0 54 20" version="1.1" xmlns:xlink="http://www.w3.org/1999/xlink" xmlns="http://www.w3.org/2000/svg">
  <desc>Created with Lunacy</desc>
  <g id="icon-sedan">
    <path d="M3.73031 15.7225L5.71204 15.7225C5.63043 15.422 5.59546 15.1214 5.59546 14.7977C5.59546 12.7514 7.26244 11.0983 9.32577 11.0983C11.3891 11.0983 13.0561 12.7514 13.0561 14.7977C13.0561 15.1214 13.0211 15.422 12.9395 15.7225L21.4493 15.7225L34.5054 15.7225L38.3522 15.7225C38.2706 15.422 38.2357 15.1214 38.2357 14.7977C38.2357 12.7514 39.9026 11.0983 41.966 11.0983C44.0293 11.0983 45.6963 12.7514 45.6963 14.7977C45.6963 15.1214 45.6613 15.422 45.5797 15.7225L50.3592 15.7225C51.385 15.7225 52.2243 14.8902 52.2243 13.8728C52.2243 12.8902 51.9795 11.9422 51.5365 11.0983C51.4666 10.9827 51.3967 10.8439 51.3267 10.7283C50.7439 9.80347 49.9162 9.0289 48.8904 8.52023L46.2442 7.20231C44.041 6.11561 41.6163 5.54913 39.1682 5.54913L34.5054 2.77457L33.0365 1.90751C30.9499 0.65896 28.5602 0 26.1122 0L19.5841 0L17.6607 0C15.8538 0 14.0586 0.369942 12.4149 1.09827L8.97606 2.60116C8.67297 2.73988 8.34657 2.85549 8.03182 2.9711C6.64461 3.45665 5.19912 3.69942 3.73031 3.69942C3.21739 3.69942 2.7511 3.90751 2.41304 4.24277C2.06333 4.57803 1.86515 5.04046 1.86515 5.54913L1.86515 8.3237L0 10.1734L0 12.0231C0 14.0694 1.66698 15.7225 3.73031 15.7225Z" transform="translate(1.165721 2.080925)" id="Path" fill="#FCD603" stroke="none" />
    <path d="M13.4175 6.25433L28.3387 7.39884L31.1364 5.54913L26.4735 2.77457L25.0047 1.90751C22.9181 0.65896 20.5284 0 18.0803 0L11.5523 0L9.62886 0C7.82199 0 6.02678 0.369942 4.38311 1.09827L0.944234 2.60116C0.641147 2.73988 0.314745 2.85549 0 2.9711L1.29395 5.54913L13.4175 6.25433Z" transform="translate(8.731254 0.6936416)" id="Path" fill="#FFFFFF" stroke="none" />
    <path d="M7.40233 19.0173C7.41399 19.0289 8.41651 19.896 10.0135 19.896C11.5989 19.896 12.6481 19.0289 12.6597 19.0173L12.6714 19.0058C13.3125 18.5434 13.8021 17.9306 14.0936 17.2486L14.1519 17.1098L38.5621 17.1098L38.6203 17.2486C38.9118 17.9306 39.4014 18.5434 40.0309 19.0058C40.0425 19.0058 41.2083 19.8266 42.6537 19.8266C44.0992 19.8266 45.3116 19.0058 45.3116 19.0058C45.9527 18.5434 46.4423 17.9306 46.7338 17.2486L46.7921 17.1098L51.0703 17.1098C52.4808 17.1098 53.6348 15.9653 53.6348 14.5665C53.6348 13.5029 53.3667 12.4277 52.8538 11.4566C52.7839 11.3295 52.6906 11.1792 52.6207 11.0636C51.9562 10 51.0236 9.14451 49.9045 8.5896L47.2583 7.27168C45.0901 6.18497 42.6188 5.59538 40.1474 5.54913L40.0892 5.54913L34.1323 2C31.9408 0.693642 29.4111 0 26.8349 0L18.3834 0C16.4483 0 14.5832 0.381503 12.8462 1.15607L9.39571 2.65896C9.08097 2.79769 8.78954 2.91329 8.50977 3.00578C7.1925 3.46821 5.81695 3.69942 4.42974 3.69942C3.74197 3.69942 3.10082 3.95376 2.62287 4.43931C2.13327 4.91329 1.86515 5.56069 1.86515 6.24277L1.86515 8.71676L0 10.5665L0 12.7052C0 15.1329 1.98173 17.0983 4.42974 17.0983L5.89855 17.0983L5.95684 17.237C6.25992 17.9191 6.74953 18.5318 7.37902 18.9942L7.39067 19.0058L7.40233 19.0173ZM9.862 3.98844C9.88532 3.96532 9.92029 3.9422 9.97857 3.91908L13.4058 2.42775C14.9679 1.7341 16.6348 1.38728 18.3601 1.38728L19.759 1.38728L21.1928 6.19653L14.2568 5.79191L10.4682 5.57225L10.27 5.16763L9.74543 4.10405L9.862 3.98844ZM22.8365 6.31214L36.8718 7.38728L37.9209 6.69364L38.5504 6.2659L33.3746 3.19075C31.4045 2.01156 29.1314 1.38728 26.8116 1.38728L21.2161 1.38728L22.6733 6.28902L22.8365 6.31214ZM1.39887 11.1792L1.39887 12.7399C1.39887 14.3931 2.76276 15.7457 4.42974 15.7457L5.59546 15.7457L5.59546 15.5145C5.59546 15.2486 5.61878 14.9827 5.68872 14.6821L5.68872 14.6705C5.68872 14.6243 5.71204 14.578 5.72369 14.5202C5.73535 14.4855 5.74701 14.4509 5.74701 14.4162C5.79364 14.2312 5.85192 14.0578 5.91021 13.896C5.95684 13.8035 5.99181 13.6994 6.03844 13.6185L6.03844 13.6069C6.09672 13.4682 6.16667 13.3295 6.25992 13.1792C6.2949 13.1329 6.32987 13.0867 6.35318 13.0405C6.38815 12.9942 6.41147 12.948 6.44644 12.9133C6.55135 12.7746 6.65627 12.659 6.76118 12.5318C6.79616 12.4971 6.83113 12.4509 6.87776 12.4162C6.91273 12.3815 6.9477 12.3353 6.99433 12.3006C7.09924 12.1965 7.23913 12.0925 7.36736 12C7.40233 11.9769 7.42565 11.9538 7.44896 11.9306C7.50725 11.8844 7.56553 11.8497 7.61216 11.815C7.77536 11.711 7.93856 11.6301 8.09011 11.5607L8.11342 11.5607C8.19502 11.5145 8.26497 11.4798 8.33491 11.4451C8.59137 11.341 8.82451 11.2717 9.06931 11.2139C9.08097 11.2139 9.09263 11.2139 9.10428 11.2023L9.30246 11.2023L9.30246 6.41618L8.36988 4.50867L8.18336 4.56647C6.98267 4.91329 5.72369 5.08671 4.42974 5.08671C4.10334 5.08671 3.81191 5.20231 3.60208 5.42197C3.38059 5.64162 3.26402 5.93064 3.26402 6.24277L3.26402 8.09249L3.21739 9.34104L1.39887 11.1792ZM47.0951 15.5029C47.0951 13.0751 45.1134 11.1098 42.6654 11.1098C40.2174 11.1098 38.2357 13.0751 38.2357 15.5029L38.2357 15.7341L36.2306 15.7341L37.7694 11.9306L37.7694 8.46243L39.1449 7.54913L40.0775 6.93642L40.1474 6.93642C42.4089 6.98266 44.6471 7.52601 46.6289 8.52023L49.275 9.83815C49.7413 10.0578 50.161 10.3584 50.5224 10.7052C50.5573 10.7399 51.5599 11.6879 51.8513 12.6474C51.9912 13.052 52.2243 13.9075 52.2243 14.578C52.2243 15.2139 51.6997 15.7341 51.0586 15.7341L47.0951 15.7341L47.0951 15.5029ZM14.2917 14.3931C14.2451 14.2197 14.1985 14.0462 14.1285 13.8728C14.1169 13.815 14.0936 13.7688 14.0703 13.7225L13.9537 13.4913C13.8954 13.3642 13.8371 13.2486 13.7672 13.1445C13.7205 13.052 13.6506 12.9711 13.5807 12.8786C13.4757 12.7399 13.3825 12.6243 13.2776 12.5087C13.2309 12.4624 13.1843 12.4277 13.1493 12.3815L13.0444 12.2775C12.9162 12.1618 12.7996 12.0694 12.6597 11.9653L12.5198 11.8613C12.4732 11.8266 12.4382 11.8035 12.3916 11.7688C12.2401 11.6763 12.0769 11.5954 11.9253 11.526L11.902 11.526C11.8204 11.4798 11.7505 11.4451 11.6689 11.4104C11.459 11.3179 11.2142 11.237 10.9461 11.1792C10.9345 11.1792 10.9228 11.1676 10.9112 11.1676L10.713 11.1676L10.713 6.95954L13.1843 7.09827L21.4376 7.59538L21.4376 15.7225L14.4433 15.7225L14.4433 15.4913C14.4433 15.2254 14.42 14.9595 14.3617 14.6705L14.2917 14.3931ZM22.8481 15.7225L34.7385 15.7225L36.3705 11.6647L36.3705 8.73988L22.8481 7.69942L22.8481 15.7225ZM6.99433 15.4913C6.99433 13.8382 8.35822 12.4855 10.0252 12.4855C11.6922 12.4855 13.0561 13.8382 13.0561 15.4913C13.0561 15.7688 13.0328 16 12.9745 16.1965C12.9745 16.2197 12.9628 16.2543 12.9512 16.2775C12.5898 17.5838 11.4008 18.4971 10.0252 18.4971C8.64965 18.4971 7.4373 17.5607 7.08759 16.2197C7.0293 16.0116 6.99433 15.7688 6.99433 15.4913ZM42.6654 12.4855C40.9984 12.4855 39.6345 13.8382 39.6345 15.4913C39.6345 15.7688 39.6695 16.0116 39.7278 16.2197C40.0775 17.5607 41.2899 18.4971 42.6654 18.4971C44.041 18.4971 45.2416 17.5838 45.5914 16.2775L45.6147 16.2312L45.6147 16.185C45.673 15.9884 45.6963 15.7572 45.6963 15.4913C45.6963 13.8382 44.3324 12.4855 42.6654 12.4855Z" transform="translate(0.01165721 0)" id="Shape" fill="#5C5C60" fill-rule="evenodd" stroke="none" />
    <path d="M3.14745 6.24277C4.88573 6.24277 6.2949 4.84528 6.2949 3.12139C6.2949 1.39749 4.88573 0 3.14745 0C1.40916 0 0 1.39749 0 3.12139C0 4.84528 1.40916 6.24277 3.14745 6.24277Z" transform="translate(6.889414 12.3815)" id="Oval" fill="#B5B5B5" stroke="none" />
    <path d="M3.14745 6.24277C4.88573 6.24277 6.2949 4.84528 6.2949 3.12139C6.2949 1.39749 4.88573 0 3.14745 0C1.40916 0 0 1.39749 0 3.12139C0 4.84528 1.40916 6.24277 3.14745 6.24277Z" transform="translate(39.52961 12.3815)" id="Oval" fill="#B5B5B5" stroke="none" />
    <path d="M0.349716 3.00578C0.151544 3.00578 0 2.85549 0 2.65896C0 1.19075 1.20069 0 2.68116 0C2.87933 0 3.03088 0.150289 3.03088 0.346821C3.03088 0.543353 2.87933 0.693642 2.68116 0.693642C1.58538 0.693642 0.699433 1.57225 0.699433 2.65896C0.699433 2.85549 0.547889 3.00578 0.349716 3.00578Z" transform="translate(7.332388 12.83237)" id="Path" fill="#FFFFFF" stroke="none" />
    <path d="M0.349716 3.00578C0.151544 3.00578 0 2.85549 0 2.65896C0 1.19075 1.20069 0 2.68116 0C2.87933 0 3.03088 0.150289 3.03088 0.346821C3.03088 0.543353 2.87933 0.693642 2.68116 0.693642C1.58538 0.693642 0.699433 1.57225 0.699433 2.65896C0.699433 2.85549 0.547889 3.00578 0.349716 3.00578Z" transform="translate(40.03087 12.83237)" id="Path" fill="#FFFFFF" stroke="none" />
  </g>
</svg>