<?xml version="1.0" encoding="utf-8"?>
<svg width="32px" height="32px" viewBox="0 0 32 32" version="1.1" xmlns:xlink="http://www.w3.org/1999/xlink" xmlns="http://www.w3.org/2000/svg">
  <desc>Created with Lunacy</desc>
  <defs>
    <path d="M0 27.112L24.3733 27.112L24.3733 0L0 0L0 27.112Z" id="path_1" />
    <clipPath id="mask_1">
      <use xlink:href="#path_1" />
    </clipPath>
  </defs>
  <g id="iconografia/marca/off/pagos">
    <g id="Page-1" transform="translate(4 2)">
      <path d="M0 19.2787L0 24.4427C0 24.9347 0.398667 25.3333 0.890667 25.3333L15.5333 25.3333C16.0253 25.3333 16.4247 24.9347 16.4247 24.4427L16.4247 0.891333C16.4247 0.399333 16.0253 0 15.5333 0L0.890667 0C0.398667 0 0 0.399333 0 0.891333L0 15.064L0 19.2787Z" transform="translate(1.886067 1.778667)" id="Fill-1" fill="#FCD603" stroke="none" />
      <path d="M0 27.112L24.3733 27.112L24.3733 0L0 0L0 27.112Z" id="Clip-4" fill="none" stroke="none" />
      <g clip-path="url(#mask_1)">
        <path d="M0 16.024L10.9113 16.024L10.9113 0L0 0L0 16.024Z" transform="translate(3.298667 3.932)" id="Fill-3" fill="#FFFFFF" stroke="none" />
        <path d="M2.63733 1.31867C2.63733 2.048 2.04667 2.638 1.31867 2.638C0.59 2.638 0 2.048 0 1.31867C0 0.590667 0.59 0 1.31867 0C2.04667 0 2.63733 0.590667 2.63733 1.31867" transform="translate(7.435934 21.64687)" id="Fill-5" fill="#B5B5B5" stroke="none" />
        <path d="M0 1.86067C0 2.88667 0.835333 3.722 1.86133 3.722C2.88733 3.722 3.72267 2.88667 3.72267 1.86067C3.72267 0.834667 2.88733 0 1.86133 0C0.835333 0 0 0.834667 0 1.86067ZM1.08467 1.86067C1.08467 1.43267 1.43333 1.08467 1.86133 1.08467C2.28933 1.08467 2.638 1.43267 2.638 1.86067C2.638 2.28933 2.28933 2.63733 1.86133 2.63733C1.43333 2.63733 1.08467 2.28933 1.08467 1.86067Z" transform="translate(6.8932 21.1048)" id="Fill-6" fill="#5C5C60" fill-rule="evenodd" stroke="none" />
        <path d="M0 0.865334L0.864666 0.865334L0.864666 0L0 0L0 0.865334Z" transform="translate(6.161333 16.04933)" id="Fill-7" fill="#5C5C60" stroke="none" />
        <path d="M0 0.865334L0.864667 0.865334L0.864667 0L0 0L0 0.865334Z" transform="translate(8.322001 16.04933)" id="Fill-8" fill="#5C5C60" stroke="none" />
        <path d="M0 0.865334L0.864667 0.865334L0.864667 0L0 0L0 0.865334Z" transform="translate(10.48333 16.04933)" id="Fill-9" fill="#5C5C60" stroke="none" />
        <path d="M16.0753 0L1.43267 0C0.642667 0 0 0.642667 0 1.43267L0 15.6067C0 15.906 0.242667 16.1493 0.542 16.1493C0.841333 16.1493 1.08467 15.906 1.08467 15.6067L1.08467 1.43267C1.08467 1.24067 1.24067 1.08467 1.43267 1.08467L16.0753 1.08467C16.268 1.08467 16.424 1.24067 16.424 1.43267L16.424 24.9847C16.424 25.1773 16.268 25.3333 16.0753 25.3333L1.43267 25.3333C1.24067 25.3333 1.08467 25.1773 1.08467 24.9847L1.08467 19.8207C1.08467 19.5213 0.841333 19.2787 0.542 19.2787C0.242667 19.2787 0 19.5213 0 19.8207L0 24.9847C0 25.7747 0.642667 26.418 1.43267 26.418L16.0753 26.418C16.866 26.418 17.5087 25.7747 17.5087 24.9847L17.5087 1.43267C17.5087 0.642667 16.866 0 16.0753 0" transform="translate(0.0002 0)" id="Fill-10" fill="#5C5C60" stroke="none" />
        <path d="M11.996 17.1087L0 17.1087L0 0L11.996 0L11.996 17.1087ZM10.9113 16.024L1.08467 16.024L1.08467 1.08467L10.9113 1.08467L10.9113 16.024Z" transform="translate(2.756667 3.389333)" id="Fill-11" fill="#5C5C60" fill-rule="evenodd" stroke="none" />
        <path d="M0 0.864667L3.45733 0.864667L3.45733 0L0 0L0 0.864667Z" transform="translate(7.026 1.786667)" id="Fill-12" fill="#5C5C60" stroke="none" />
        <path d="M0.34 1.04C0.406667 1.06667 0.473333 1.086 0.546667 1.086C0.62 1.086 0.686667 1.06667 0.753333 1.04C0.82 1.01333 0.88 0.972667 0.926667 0.926667C0.98 0.873334 1.02 0.813334 1.04667 0.746667C1.07333 0.68 1.08667 0.612667 1.08667 0.54C1.08667 0.466667 1.07333 0.4 1.04667 0.332667C1.02 0.266667 0.98 0.206667 0.926667 0.16C0.88 0.106667 0.82 0.0666667 0.753333 0.04C0.62 -0.0133333 0.473333 -0.0133333 0.34 0.04C0.273333 0.0666667 0.213333 0.106667 0.16 0.16C0.06 0.26 0 0.4 0 0.54C0 0.686667 0.06 0.82 0.16 0.926667C0.213333 0.972667 0.273333 1.01333 0.34 1.04" transform="translate(0.02913333 16.7452)" id="Fill-13" fill="#5C5C60" stroke="none" />
        <path d="M6.256 12.446L0 12.446L0 0L20.5073 0L20.5073 12.446L9.09 12.446" transform="translate(3.3234 5.5)" id="Fill-14" fill="#FFFFFF" stroke="none" />
        <path d="M4.772 2.386C4.772 3.704 3.704 4.772 2.386 4.772C1.06867 4.772 0 3.704 0 2.386C0 1.068 1.06867 0 2.386 0C3.704 0 4.772 1.068 4.772 2.386" transform="translate(11.08707 9.334066)" id="Fill-15" fill="#B5B5B5" stroke="none" />
        <path d="M5.85667 2.92867C5.85667 4.54267 4.54333 5.85667 2.92867 5.85667C1.314 5.85667 0 4.54267 0 2.92867C0 1.314 1.314 0 2.92867 0C4.54333 0 5.85667 1.314 5.85667 2.92867ZM4.772 2.92867C4.772 1.91133 3.94533 1.08467 2.92867 1.08467C1.912 1.08467 1.08467 1.91133 1.08467 2.92867C1.08467 3.94533 1.912 4.772 2.92867 4.772C3.94533 4.772 4.772 3.94533 4.772 2.92867Z" transform="translate(10.54467 8.791667)" id="Fill-16" fill="#5C5C60" fill-rule="evenodd" stroke="none" />
        <path d="M0.542 0L21.0493 0C21.3493 0 21.592 0.242667 21.592 0.542L21.592 12.988C21.592 13.2873 21.3493 13.5307 21.0493 13.5307L9.632 13.5307C9.33267 13.5307 9.09 13.2873 9.09 12.988C9.09 12.6887 9.33267 12.446 9.632 12.446L16.926 12.446C17.586 10.0593 19.3647 9.17267 20.5073 8.978L20.5073 4.60333C19.356 4.40667 17.5587 3.51067 16.91 1.08467L4.63867 1.08467C3.99867 3.48 2.23667 4.38533 1.08467 4.59667L1.08467 8.98467C2.228 9.19533 3.97133 10.0893 4.62333 12.446L6.798 12.446C7.09733 12.446 7.34067 12.6887 7.34067 12.988C7.34067 13.2873 7.09733 13.5307 6.798 13.5307L0.542 13.5307C0.242667 13.5307 0 13.2873 0 12.988L0 0.542C0 0.242667 0.242667 0 0.542 0ZM1.08467 1.08467L1.08467 3.47933C1.76133 3.306 2.95 2.762 3.50467 1.08467L1.08467 1.08467ZM18.0447 1.08467C18.6107 2.79733 19.8387 3.32933 20.5073 3.49067L20.5073 1.08467L18.0447 1.08467ZM20.5073 12.446L18.0607 12.446C18.6333 10.7727 19.8453 10.2513 20.5073 10.0907L20.5073 12.446ZM3.48867 12.446L1.08467 12.446L1.08467 10.102C1.75467 10.274 2.92667 10.8073 3.48867 12.446Z" transform="translate(2.7814 4.957933)" id="Fill-17" fill="#5C5C60" fill-rule="evenodd" stroke="none" />
        <path d="M0.926666 0.15301C0.726666 -0.0476564 0.366666 -0.0543231 0.16 0.15301C0.06 0.252343 0 0.392343 0 0.532343C0 0.679676 0.0533333 0.812343 0.16 0.919009C0.213333 0.972342 0.266667 1.00568 0.333333 1.03968C0.4 1.06634 0.473333 1.07968 0.54 1.07968C0.686666 1.07968 0.826666 1.01968 0.926666 0.919009C1.02667 0.812343 1.08667 0.679676 1.08667 0.532343C1.08667 0.466343 1.07333 0.392343 1.04667 0.326343C1.01333 0.259677 0.98 0.19901 0.926666 0.15301" transform="translate(10.3826 17.49219)" id="Fill-18" fill="#5C5C60" stroke="none" />
        <path d="M3.33133 0.88L0.44 0.88C0.198 0.88 0 0.682 0 0.44C0 0.198 0.198 0 0.44 0L3.33133 0C3.57333 0 3.77133 0.198 3.77133 0.44C3.77133 0.682 3.57333 0.88 3.33133 0.88" transform="translate(5.6166 11.34267)" id="Fill-19" fill="#FEFEFF" stroke="none" />
        <path d="M3.33133 0.88L0.44 0.88C0.198 0.88 0 0.682 0 0.44C0 0.198 0.198 0 0.44 0L3.33133 0C3.57333 0 3.77133 0.198 3.77133 0.44C3.77133 0.682 3.57333 0.88 3.33133 0.88" transform="translate(17.54467 11.34267)" id="Fill-20" fill="#FEFEFF" stroke="none" />
      </g>
    </g>
  </g>
</svg>