<?xml version="1.0" encoding="utf-8"?>
<svg width="86px" height="35px" viewBox="0 0 86 35" version="1.1" xmlns:xlink="http://www.w3.org/1999/xlink" xmlns="http://www.w3.org/2000/svg">
  <desc>Created with Lunacy</desc>
  <g id="icon-pickup">
    <path d="M79.9658 17.5737C79.9658 13.1342 76.6316 10.3158 73.5921 10.3158C72.0447 10.3158 69.4474 10.3158 67.7895 10.3158C65.1921 8.28947 54.5263 0 54.5263 0L53.0526 0L39.7895 0L39.7895 10.3158L8.84211 10.3158L0 10.3158L0 16.2105L0 23.5789L0 29.4737L14.0553 29.4737C13.5579 28.6079 13.2632 27.5947 13.2632 26.5263C13.2632 25.4579 13.5579 24.4447 14.0553 23.5789C15.0684 21.8105 16.9658 20.6316 19.1579 20.6316C21.35 20.6316 23.2474 21.8105 24.2605 23.5789C24.7579 24.4447 25.0526 25.4579 25.0526 26.5263C25.0526 27.5947 24.7579 28.6079 24.2605 29.4737L39.7895 29.4737L54.7105 29.4737L65.6526 29.4737L65.6526 29.4553C65.1368 28.5895 64.8605 27.5763 64.8605 26.5263C64.8605 26.2684 64.879 25.9921 64.9158 25.7342C64.9526 25.5132 64.9895 25.2921 65.0447 25.0895C65.0447 25.0342 65.0632 24.9789 65.0816 24.9053C65.1184 24.7579 65.1737 24.6105 65.229 24.4816C65.2658 24.3342 65.3211 24.2053 65.3947 24.0763C65.4684 23.9105 65.5605 23.7447 65.6526 23.5974L65.6526 23.5789L65.6711 23.5605C65.7816 23.3395 65.9289 23.1368 66.0763 22.9342C66.2053 22.75 66.3711 22.5658 66.5368 22.3816C66.8684 22.05 67.2184 21.7553 67.6053 21.5342C67.6974 21.4789 67.7895 21.4237 67.8632 21.3684C68.2316 21.1658 68.6368 20.9816 69.0421 20.8711C69.1526 20.8342 69.2632 20.8158 69.3737 20.7789C69.5395 20.7421 69.7053 20.7053 69.8711 20.6868C69.9079 20.6684 69.9263 20.6684 69.9632 20.6684C70.2211 20.6316 70.479 20.6132 70.7368 20.6132C70.9947 20.6132 71.2526 20.6316 71.5105 20.6684C71.5474 20.6684 71.5658 20.6684 71.6026 20.6868C71.7684 20.7053 71.9342 20.7237 72.1 20.7789C72.2105 20.8158 72.3211 20.8342 72.4316 20.8711C72.8368 20.9816 73.2421 21.1658 73.6105 21.3684C73.7026 21.4053 73.7947 21.4789 73.8684 21.5342C74.2737 21.7737 74.6237 22.0684 74.9368 22.3816C75.1026 22.5658 75.2684 22.7316 75.3974 22.9342C75.5632 23.1184 75.6921 23.3395 75.8026 23.5605L75.8211 23.5789L75.8211 23.5974C75.9132 23.7447 76.0053 23.9105 76.0789 24.0763C76.1526 24.2053 76.1895 24.3342 76.2447 24.4816C76.3 24.6105 76.3553 24.7579 76.3921 24.9053C76.4289 24.9605 76.4289 25.0158 76.4289 25.0895C76.4842 25.2921 76.5395 25.5132 76.5579 25.7342C76.5947 25.9921 76.6132 26.2684 76.6132 26.5263C76.6132 27.5947 76.3368 28.5895 75.8211 29.4553L75.8211 29.4737L79.5789 29.4737C79.5789 29.4737 82.5263 29.1237 82.5263 25.0526C82.5263 20.9816 82.5816 20.1342 82.5263 19.6368C82.5447 18.2368 81.2553 17.5737 79.9658 17.5737Z" transform="translate(2.578947 3.315789)" id="Path" fill="#FCD603" stroke="none" />
    <g id="Group" transform="translate(14.55263 21.92105)">
      <path d="M0 5.89474C0 6.96316 0.294737 7.97632 0.792105 8.8421C1.80526 10.6105 3.70263 11.7895 5.89474 11.7895C8.08684 11.7895 9.98421 10.6105 10.9974 8.8421C11.4947 7.97632 11.7895 6.96316 11.7895 5.89474C11.7895 4.82632 11.4947 3.81316 10.9974 2.94737C9.98421 1.17895 8.08684 0 5.89474 0C3.70263 0 1.80526 1.17895 0.792105 2.94737C0.294737 3.81316 0 4.82632 0 5.89474Z" id="Path" fill="#B5B5B5" stroke="none" />
      <path d="M5.89474 11.7895C9.15031 11.7895 11.7895 9.15031 11.7895 5.89474C11.7895 2.63916 9.15031 0 5.89474 0C2.63916 0 0 2.63916 0 5.89474C0 9.15031 2.63916 11.7895 5.89474 11.7895Z" transform="translate(51.57895 0)" id="Oval" fill="#B5B5B5" stroke="none" />
    </g>
    <path d="M28 10.3158L14.7368 0L13.2632 0L0 0L0 10.3158L14.7368 10.3158L28 10.3158Z" transform="translate(41.07895 1.289474)" id="Path" fill="#FFFFFF" stroke="none" />
    <path d="M82.1763 17.6105L82.3974 17.7026C84.0368 18.2921 85.1421 19.8947 85.1421 21.7L85.1421 27.8342C85.1421 30.1368 83.3553 32.0158 81.1632 32.0526L77.7921 32.0526L77.7368 32.1263C77.3316 32.6605 76.8526 33.1395 76.2816 33.5632C76.2632 33.5816 74.2553 35 72.0079 35C69.7421 35 67.7895 33.5816 67.771 33.5632C67.2 33.1395 66.7211 32.6605 66.3158 32.1263L66.2605 32.0526L26.2316 32.0526L26.1763 32.1263C25.7895 32.6605 25.2921 33.1395 24.7211 33.5632C24.7026 33.5816 22.8053 35 20.4289 35C18.0526 35 16.1921 33.5816 16.1737 33.5632C15.6026 33.1395 15.1053 32.6605 14.7184 32.1263L14.6632 32.0526L0 32.0526L0 10.3158L39.7895 10.3158L39.7895 0L56.2579 0L69.6132 10.3895L70.0921 10.4816L75.2868 10.4816C78.4553 10.7026 81.5132 13.6132 82.1026 16.8921C82.1211 17.0026 82.1395 17.1868 82.1579 17.3526L82.1763 17.6105ZM42.3684 2.57895L53.2184 2.57895L54.3237 10.3158L42.3684 10.3158L42.3684 2.57895ZM65.3211 10.3158L55.8895 2.98421L56.9395 10.3158L65.3211 10.3158ZM66.9421 22.75L66.979 22.7132C67.2737 22.4184 67.5684 22.1789 67.9368 21.9947L68.1579 21.8289C68.1763 21.8289 68.2132 21.8105 68.2316 21.7921C68.25 21.7737 68.2684 21.7737 68.2868 21.7553C68.3605 21.7184 68.4895 21.6263 68.6368 21.5526C68.8395 21.4421 69.0421 21.35 69.2816 21.2395L69.3 21.2395L69.3184 21.2211C69.5579 21.1289 69.7974 21.0368 70.0553 20.9632L70.3868 20.8711C70.4237 20.8526 70.479 20.8342 70.5158 20.8342C70.5526 20.8342 70.5711 20.8158 70.6079 20.8158L70.7553 20.7789C70.7921 20.7605 70.8105 20.7605 70.8289 20.7605L70.8474 20.7605L70.9211 20.7237L71.1974 20.7237C71.4921 20.6684 71.7868 20.65 72.0816 20.65C72.3579 20.65 72.6526 20.6684 72.9474 20.7053L73.2974 20.7605C73.3158 20.7605 73.3526 20.7789 73.3711 20.7789C73.3895 20.7789 73.4263 20.7974 73.4447 20.7974C73.4816 20.7974 73.5184 20.8158 73.5553 20.8158L73.5737 20.8158C73.6105 20.8158 73.629 20.8342 73.6658 20.8342C73.7026 20.8342 73.7395 20.8342 73.7763 20.8526L74.1079 20.9447C74.3474 21 74.5868 21.0921 74.8447 21.2026C74.8632 21.2026 74.8632 21.2211 74.8816 21.2211C75.1395 21.3316 75.3605 21.4421 75.5632 21.5526C75.6368 21.5895 75.7474 21.6632 75.9132 21.7737C75.9316 21.7737 75.95 21.7921 75.95 21.7921C75.95 21.8105 75.9684 21.8289 75.9868 21.8289C76.0053 21.8474 76.0421 21.8842 76.0789 21.9026L76.1526 21.9579C76.5211 22.2158 76.8526 22.4921 77.1658 22.8053C77.4421 23.1 77.6263 23.3026 77.7737 23.5237L77.8289 23.5974L82.9316 23.5974L82.9316 21.7553C82.9316 20.7053 82.1026 19.8395 81.0895 19.8395L79.9658 19.8395L79.8553 17.0947L79.8553 17.0579C79.3395 14.9579 77.1658 12.9684 75.1026 12.8395L57.3447 12.9132L58.5974 20.4474L58.1921 23.5974L66.2421 23.5974L66.2974 23.5237C66.3158 23.4868 66.3895 23.4132 66.3895 23.4132L66.3895 23.3947C66.4632 23.2658 66.6842 23.0263 66.85 22.8421L66.8868 22.8053L66.9421 22.75ZM26.25 23.5789L39.7895 23.5789L39.7895 12.8947L2.57895 12.8947L2.57895 23.5789L14.6079 23.5789L14.6632 23.5053C14.6816 23.4868 14.7 23.4868 14.7 23.4684C14.7368 23.4132 14.7737 23.3763 14.8105 23.3395C14.8474 23.3211 14.8842 23.2842 14.9026 23.2474C15.0316 23.0816 15.1605 22.9342 15.3079 22.7868C15.3632 22.7132 15.4184 22.6579 15.4921 22.6026L15.5474 22.5474C15.6579 22.4368 15.8053 22.3079 15.9526 22.1974C16.0447 22.1237 16.1553 22.05 16.2474 21.9763C16.4132 21.8658 16.5605 21.7737 16.6895 21.6816C16.7816 21.6263 16.8921 21.5526 17.0026 21.4974C17.1316 21.4053 17.2974 21.3316 17.4632 21.2579C17.5737 21.2026 17.6842 21.1474 17.7947 21.1105C17.9789 21.0368 18.1632 20.9632 18.3105 20.9263L18.4026 20.8895C18.4763 20.8526 18.5684 20.8342 18.6421 20.8158C18.8447 20.7789 19.0474 20.7421 19.2316 20.7053C19.2684 20.7053 19.3237 20.6868 19.3605 20.6868C19.4158 20.6684 19.4711 20.65 19.5263 20.65C19.8579 20.6132 20.1526 20.5947 20.4289 20.5947C20.7053 20.5947 21 20.6132 21.3316 20.65C21.3868 20.6684 21.4421 20.6684 21.4974 20.6868C21.5342 20.6868 21.5895 20.7053 21.6263 20.7053C21.8105 20.7237 22.0132 20.7605 22.2158 20.8158C22.3079 20.8342 22.3816 20.8711 22.4553 20.8895L22.5474 20.9263C22.7132 20.9816 22.8789 21.0368 23.0632 21.1105C23.1737 21.1658 23.2842 21.2026 23.3947 21.2579L23.8737 21.4974C23.9842 21.5526 24.0763 21.6263 24.1868 21.6816C24.3342 21.7737 24.4816 21.8658 24.6289 21.9763L24.6474 21.9947C24.7395 22.0684 24.8316 22.1237 24.9237 22.1974C25.0711 22.3079 25.2 22.4184 25.3474 22.5658L25.4211 22.6395C25.4763 22.6763 25.5316 22.7316 25.5868 22.7868C25.7526 22.9526 25.8816 23.1184 26.0105 23.2658C26.0289 23.3026 26.0658 23.3395 26.0842 23.3579C26.1211 23.3947 26.1395 23.4316 26.1763 23.4684C26.1763 23.4868 26.1947 23.4868 26.1947 23.5053L26.25 23.5789ZM55.5947 23.5789L42.3684 23.5789L42.3684 12.8947L54.7289 12.8947L56 20.4658L55.5947 23.5789ZM68.2132 30.3947C69.0974 31.6658 70.5158 32.4211 72.0263 32.4211C73.7026 32.4211 75.2316 31.5 75.95 29.9526C76.0974 29.7132 76.2079 29.4368 76.3184 29.1053L76.3368 29.0316L76.3921 28.8658C76.5026 28.4789 76.5395 28.1105 76.5395 27.7789C76.5395 27.5579 76.5211 27.3184 76.4658 27.0053C76.4474 26.9132 76.4289 26.8026 76.4105 26.7105C76.3737 26.5447 76.3184 26.3605 76.2447 26.1763L76.1342 25.9184C76.0421 25.7342 75.95 25.5684 75.8395 25.3842L75.8026 25.3105C75.7474 25.2368 75.7105 25.1816 75.6737 25.1263C75.379 24.7026 75.0105 24.3342 74.5868 24.0395L74.55 24.0026C74.5132 23.9842 74.4763 23.9474 74.4395 23.9289C74.2184 23.7816 73.9974 23.6526 73.7579 23.5605C73.7395 23.5605 73.7211 23.5421 73.7026 23.5421C73.4447 23.4316 73.1684 23.3395 72.8921 23.2842C72.8737 23.2658 72.8553 23.2658 72.8184 23.2658C72.5974 23.2105 72.3763 23.2105 72.1737 23.1921L71.7132 23.1921C71.4921 23.2105 71.2895 23.2289 71.0684 23.2658C71.0316 23.2658 71.0132 23.2842 70.9763 23.2842C70.7 23.3395 70.4421 23.4132 70.1842 23.5237C70.1658 23.5421 70.1289 23.5421 70.1105 23.5605C70.0921 23.5605 70.0921 23.5789 70.0737 23.5789C69.8526 23.6895 69.65 23.8 69.4474 23.9289C69.4289 23.9474 69.3921 23.9842 69.3553 24.0026L69.3184 24.0395C68.8579 24.3711 68.4526 24.7763 68.1579 25.2184C68.1579 25.2368 68.1395 25.2368 68.1395 25.2553C68.0105 25.4579 67.9 25.6789 67.7895 25.9184L67.6789 26.1947C67.6053 26.3974 67.55 26.5816 67.5132 26.7474L67.4579 27.0237C67.4211 27.2632 67.3842 27.5395 67.3842 27.8158C67.3842 28.1474 67.4395 28.5158 67.5316 28.9026C67.55 28.9579 67.5684 29.0316 67.5868 29.0868L67.6053 29.1605C67.7158 29.4737 67.8263 29.7684 67.9737 30.0079C67.9921 30.0447 68.0105 30.0632 68.0289 30.1C68.0658 30.1553 68.1026 30.2289 68.1395 30.2842L68.2132 30.3947ZM20.4474 32.4211C22.0868 32.4211 23.6158 31.5368 24.4263 30.1184C24.85 29.4 25.0526 28.6263 25.0526 27.8158C25.0526 27.0053 24.8316 26.2316 24.4263 25.5132C24.2237 25.1632 23.9842 24.85 23.6895 24.5553C22.8421 23.7079 21.6632 23.2105 20.4474 23.2105C18.8079 23.2105 17.2789 24.0947 16.4684 25.5132C16.0447 26.2316 15.8421 27.0053 15.8421 27.8158C15.8421 28.6263 16.0632 29.4 16.4684 30.1184C17.2789 31.5368 18.8079 32.4211 20.4474 32.4211ZM80.5553 29.4553L79.0294 29.4553L79.0632 29.2526C79.1553 28.7737 79.2105 28.2947 79.2105 27.8158C79.2105 27.4658 79.1921 27.1342 79.1368 26.8211C79.1184 26.6921 79.1 26.5816 79.0816 26.4526L79.0816 26.3605L79.0263 26.1395L82.5263 26.1395L82.5263 28.4789L80.5553 29.4553ZM79.0294 29.4553L79.0263 29.4553L79.0263 29.4737L79.0294 29.4553ZM13.3921 29.0868C13.3921 29.1237 13.3921 29.1605 13.4105 29.1974L13.4105 29.2526L13.4658 29.4737L2.57895 29.4737L2.57895 26.1579L13.4658 26.1579L13.4105 26.3789L13.4105 26.4342C13.4105 26.4711 13.4105 26.5079 13.3921 26.5447C13.3 27.0237 13.2632 27.4289 13.2632 27.8158C13.2632 28.2026 13.3 28.6079 13.3921 29.0868ZM39.7895 29.4737L27.4289 29.4737L27.4842 29.2526L27.4842 29.1974C27.4842 29.1605 27.4842 29.1237 27.5026 29.0868C27.5947 28.6079 27.6316 28.2026 27.6316 27.8158C27.6316 27.4289 27.5947 27.0237 27.5026 26.5447C27.5026 26.5079 27.5026 26.4711 27.4842 26.4342L27.4842 26.3789L27.4289 26.1579L39.7895 26.1579L39.7895 29.4737ZM42.3684 29.4737L54.8579 29.4737L55.2632 26.1579L42.3684 26.1579L42.3684 29.4737ZM57.8605 26.1579L64.8053 26.1579L65.0263 26.1763L64.9895 26.3974L64.9895 26.4526C64.9711 26.5816 64.9342 26.6921 64.9342 26.8026C64.879 27.1158 64.8605 27.4474 64.8605 27.8158C64.8605 28.2947 64.9158 28.7737 65.0079 29.2526L65.0447 29.4737L57.4553 29.4737L57.8605 26.1579Z" transform="translate(0.01842105 0)" id="Shape" fill="#5C5C60" fill-rule="evenodd" stroke="none" />
    <path d="M0.552631 4.78947C0.239474 4.78947 0 4.55 0 4.23684C0 1.89737 1.89737 0 4.23684 0C4.55 0 4.78947 0.239474 4.78947 0.552632C4.78947 0.86579 4.55 1.10526 4.23684 1.10526C2.50526 1.10526 1.10526 2.50526 1.10526 4.23684C1.10526 4.55 0.865789 4.78947 0.552631 4.78947Z" transform="translate(16.59737 23.96579)" id="Path" fill="#FFFFFF" stroke="none" />
    <path d="M0.552632 4.78947C0.239474 4.78947 0 4.55 0 4.23684C0 1.89737 1.89737 0 4.23684 0C4.55 0 4.78947 0.239474 4.78947 0.552632C4.78947 0.86579 4.55 1.10526 4.23684 1.10526C2.50526 1.10526 1.10526 2.50526 1.10526 4.23684C1.10526 4.55 0.86579 4.78947 0.552632 4.78947Z" transform="translate(68.10263 23.96579)" id="Path" fill="#FFFFFF" stroke="none" />
  </g>
</svg>