<?xml version="1.0" encoding="UTF-8"?>
<svg width="22px" height="22px" viewBox="0 0 22 22" version="1.1" xmlns="http://www.w3.org/2000/svg" xmlns:xlink="http://www.w3.org/1999/xlink">
    <!-- Generator: Sketch 62 (91390) - https://sketch.com -->
    <title>icon-call-01</title>
    <desc>Created with Sketch.</desc>
    <g id="MARKETPLACE-MOB" stroke="none" stroke-width="1" fill="none" fill-rule="evenodd">
        <g id="12----Agendamiento" transform="translate(-63.000000, -443.000000)" fill-rule="nonzero">
            <g id="Group-6" transform="translate(61.000000, 419.000000)">
                <g id="icon-call-01" transform="translate(2.000000, 24.000000)">
                    <path d="M16.61,21.12 L16.39,21.12 C15.07,21.01 13.805,20.625 12.65,20.02 C9.955,18.7 7.59,16.885 5.72,14.575 C4.29,12.87 3.135,11 2.31,8.91 C1.925,7.975 1.705,6.93 1.76,5.885 C1.815,5.28 2.035,4.73 2.475,4.345 L4.07,2.75 C4.29,2.53 4.62,2.365 4.95,2.31 C5.28,2.31 5.61,2.475 5.83,2.75 C6.105,3.025 6.38,3.3 6.71,3.63 L7.15,4.07 L8.415,5.335 C8.91,5.72 9.02,6.435 8.635,6.93 C8.58,6.985 8.525,7.095 8.415,7.15 L8.25,7.26 C8.14,7.37 8.085,7.425 7.975,7.535 C7.645,7.92 7.205,8.305 6.82,8.69 L6.82,8.69 C6.6,8.91 6.545,9.185 6.655,9.46 C7.04,10.34 7.535,11.11 8.14,11.88 C9.295,13.31 10.67,14.575 12.21,15.565 C12.375,15.675 12.595,15.785 12.76,15.84 C12.925,15.95 13.09,16.005 13.255,16.115 C13.53,16.28 13.915,16.225 14.135,16.005 L15.73,14.41 C15.95,14.135 16.28,14.025 16.61,13.97 C16.94,13.97 17.27,14.135 17.49,14.41 L20.075,16.995 C20.57,17.38 20.68,18.15 20.24,18.645 C20.185,18.7 20.13,18.755 20.075,18.81 C19.91,18.975 19.8,19.14 19.635,19.25 L19.525,19.36 C19.195,19.635 18.92,19.965 18.645,20.295 C18.04,20.79 17.325,21.12 16.61,21.12 Z" id="Path" fill="#FCD603"></path>
                    <path d="M17.38,10.395 C17.16,10.395 16.995,10.23 16.995,10.065 C16.775,8.8 16.17,7.645 15.29,6.765 C14.41,5.885 13.255,5.28 11.99,5.06 C11.88,5.06 11.77,5.005 11.715,4.895 C11.66,4.785 11.605,4.675 11.66,4.565 C11.715,4.345 11.88,4.235 12.045,4.235 L12.1,4.235 C15.015,4.73 17.27,7.04 17.765,9.955 C17.765,10.065 17.765,10.175 17.71,10.285 C17.655,10.395 17.545,10.45 17.435,10.45 L17.38,10.395 Z" id="Path" fill="#606060"></path>
                    <path d="M21.34,10.23 C21.175,10.23 21.01,10.12 20.955,9.9 C20.185,5.39 16.61,1.815 12.1,1.045 C11.88,0.99 11.715,0.77 11.77,0.55 C11.825,0.385 11.99,0.22 12.155,0.22 L12.21,0.22 C17.05,1.045 20.9,4.895 21.725,9.735 C21.725,9.845 21.725,9.955 21.67,10.01 C21.615,10.12 21.505,10.175 21.395,10.175 L21.34,10.23 Z" id="Path" fill="#606060"></path>
                    <path d="M19.8,16.335 L17.215,13.75 C16.885,13.365 16.335,13.09 15.785,13.09 C15.235,13.09 14.74,13.365 14.355,13.75 L12.76,15.345 L12.265,15.07 C12.1,14.96 11.935,14.905 11.77,14.795 C10.285,13.86 9.02,12.65 7.92,11.275 C7.425,10.67 6.985,9.955 6.655,9.24 L6.6,9.13 L6.71,9.02 C7.04,8.69 7.37,8.36 7.7,8.085 L8.195,7.59 C8.25,7.535 8.36,7.48 8.415,7.37 C9.13,6.545 9.02,5.335 8.195,4.675 L6.93,3.41 C6.765,3.245 6.655,3.135 6.49,2.97 C6.215,2.64 5.94,2.365 5.61,2.09 C5.225,1.705 4.73,1.485 4.235,1.485 C3.685,1.485 3.19,1.705 2.805,2.09 L1.21,3.685 C0.66,4.235 0.33,4.95 0.275,5.72 C0.22,6.875 0.44,8.03 0.88,9.075 C1.65,11.22 2.86,13.2 4.345,14.96 C4.675,15.345 5.06,15.785 5.39,16.17 C5.39,16.17 5.72,16.555 6.05,16.225 C6.38,15.895 5.94,15.565 5.94,15.565 C5.61,15.235 5.28,14.85 4.95,14.465 C3.52,12.815 2.365,10.89 1.54,8.855 C1.155,7.92 0.935,6.875 0.99,5.83 C1.045,5.28 1.265,4.73 1.705,4.29 L3.3,2.695 C3.52,2.475 3.85,2.31 4.18,2.31 C4.51,2.31 4.84,2.475 5.005,2.75 C5.28,3.025 5.555,3.3 5.83,3.575 L6.27,4.015 L7.535,5.28 C7.59,5.335 7.7,5.39 7.755,5.5 C8.14,5.995 8.03,6.655 7.535,7.04 L7.48,7.15 C7.37,7.26 7.315,7.315 7.205,7.425 C6.875,7.81 6.49,8.195 6.05,8.58 C5.775,8.8 5.72,9.13 5.83,9.46 C6.215,10.34 6.71,11.11 7.315,11.88 C8.47,13.31 9.845,14.575 11.385,15.565 C11.55,15.675 11.77,15.785 11.935,15.84 C12.1,15.95 12.265,16.005 12.375,16.06 L12.43,16.115 C12.54,16.17 12.65,16.225 12.815,16.225 C13.035,16.225 13.2,16.115 13.365,15.95 L14.96,14.355 C15.18,14.135 15.51,13.97 15.84,13.915 C16.17,13.915 16.445,14.08 16.665,14.355 L19.195,16.94 C19.25,16.995 19.305,17.05 19.36,17.105 C19.745,17.6 19.69,18.315 19.195,18.7 C19.03,18.865 18.865,19.03 18.755,19.14 L18.645,19.25 C18.315,19.525 18.04,19.855 17.765,20.13 C17.27,20.68 16.555,20.955 15.84,20.955 L15.62,20.955 C14.3,20.845 13.09,20.46 11.935,19.855 C10.505,19.14 9.185,18.315 7.975,17.325 C7.975,17.325 7.645,17.16 7.425,17.435 C7.205,17.71 7.48,17.985 7.48,17.985 C8.745,18.975 10.12,19.855 11.605,20.57 C12.87,21.23 14.19,21.615 15.62,21.78 L15.895,21.78 C16.885,21.835 17.765,21.395 18.425,20.68 C18.645,20.405 18.92,20.13 19.195,19.91 L19.25,19.855 C19.47,19.635 19.635,19.47 19.855,19.25 C20.24,18.865 20.515,18.315 20.515,17.765 C20.46,17.215 20.185,16.72 19.8,16.335 Z" id="Path" fill="#5C5C60"></path>
                    <circle id="Oval" fill="#5C5C60" cx="6.71" cy="16.83" r="1"></circle>
                </g>
            </g>
        </g>
    </g>
</svg>