<?xml version="1.0" encoding="utf-8"?>
<svg width="81px" height="30px" viewBox="0 0 81 30" version="1.1" xmlns:xlink="http://www.w3.org/1999/xlink" xmlns="http://www.w3.org/2000/svg">
  <desc>Created with Lunacy</desc>
  <g id="icon-coupe">
    <path d="M68.0581 5.49419L58.6047 4.63953L54.4186 7.43023L34.8837 5.70349L19.5349 4.97093L12.5581 4.63953L9.76744 0L4.18605 1.84884L0 1.84884L2.7907 8.82558L0 11.6163L0 14.407C0 17.4942 2.49419 19.9884 5.5814 19.9884L8.54651 19.9884C8.42442 19.5349 8.37209 19.0814 8.37209 18.593C8.37209 15.5058 10.8663 13.0116 13.9535 13.0116C17.0407 13.0116 19.5349 15.5058 19.5349 18.593C19.5349 19.0814 19.4826 19.5349 19.3605 19.9884L19.5349 19.9884L34.8837 19.9884L51.6279 19.9884L57.3837 19.9884C57.2616 19.5523 57.2093 19.0988 57.2093 18.6105C57.2093 16.2907 58.6221 14.093 60.8198 13.343C64.7267 12 68.3721 14.8605 68.3721 18.593C68.3721 19.0814 68.3198 19.5349 68.1977 19.9884L75.3488 19.9884C76.8837 19.9884 78.1395 18.7326 78.1395 17.1977L78.1395 10.2209C75.436 7.51744 71.8779 5.84302 68.0581 5.49419Z" transform="translate(2.459302 6.627907)" id="Path" fill="#FCD603" stroke="none" />
    <g id="Group" transform="translate(9.94186 17.7907)">
      <path d="M0 5.5814C0 6.06977 0.0523256 6.52326 0.174419 6.97674C0.784884 9.38372 2.98256 11.1628 5.5814 11.1628C8.18023 11.1628 10.3605 9.38372 10.9884 6.97674C11.1105 6.52326 11.1628 6.06977 11.1628 5.5814C11.1628 2.49419 8.66861 0 5.5814 0C2.49419 0 0 2.49419 0 5.5814Z" transform="translate(48.83721 0)" id="Path" fill="#B5B5B5" stroke="none" />
      <path d="M0 5.5814C0 6.06977 0.0523256 6.52326 0.174419 6.97674C0.784884 9.38372 2.98256 11.1628 5.5814 11.1628C8.18023 11.1628 10.3605 9.38372 10.9884 6.97674C11.1105 6.52326 11.1628 6.06977 11.1628 5.5814C11.1628 2.49419 8.6686 0 5.5814 0C2.49419 0 0 2.49419 0 5.5814Z" id="Path" fill="#B5B5B5" stroke="none" />
    </g>
    <path d="M9.76744 8.70349L25.1163 9.43605L44.6512 11.1628L48.8372 8.37209L41.8605 4.18605L39.6628 2.87791C36.5407 0.994186 32.9651 0 29.3023 0L22.3256 0C17.1977 0 12.0872 0.575581 7.09884 1.7093C4.90116 2.19767 2.72093 2.80814 0.575581 3.52326L0 3.71512L2.7907 8.35465L9.76744 8.70349Z" transform="translate(11.33721 1.046512)" id="Path" fill="#FFFFFF" stroke="none" />
    <path d="M0.523256 4.53488C0.226744 4.53488 0 4.30814 0 4.01163C0 1.79651 1.79651 0 4.01163 0C4.30814 0 4.53488 0.226744 4.53488 0.523256C4.53488 0.819767 4.30814 1.04651 4.01163 1.04651C2.37209 1.04651 1.04651 2.37209 1.04651 4.01163C1.04651 4.30814 0.819768 4.53488 0.523256 4.53488Z" transform="translate(11.82558 19.60465)" id="Path" fill="#FFFFFF" stroke="none" />
    <path d="M0.523256 4.53488C0.226744 4.53488 0 4.30814 0 4.01163C0 1.79651 1.79651 0 4.01163 0C4.30814 0 4.53489 0.226744 4.53489 0.523256C4.53489 0.819767 4.30814 1.04651 4.01163 1.04651C2.37209 1.04651 1.04651 2.37209 1.04651 4.01163C1.04651 4.30814 0.819768 4.53488 0.523256 4.53488Z" transform="translate(60.69767 19.60465)" id="Path" fill="#FFFFFF" stroke="none" />
    <path d="M15.4884 29.9302C13.2907 29.9302 11.5814 28.6744 11.564 28.657C10.6221 27.9593 9.88953 27.0349 9.45349 26.0058L9.36628 25.7965L7.13372 25.7965C3.47093 25.7965 0.505814 22.8314 0.505814 19.1686L0.505814 15.9419L3.12209 13.3256L0 5.56395L5.56395 5.56395L10.9884 3.76744L11.564 3.57558C11.5814 3.57558 11.6163 3.55814 11.6337 3.55814C11.6686 3.5407 11.7035 3.5407 11.7384 3.52326L11.843 3.48837L12.0523 3.4186C13.5349 2.94767 15.0349 2.51163 16.6395 2.11047L17.0233 2.02326L17.0233 2.00581L18.157 1.74419L19.0814 1.53488L19.0814 1.55233L19.3605 1.5C23.407 0.645349 27.593 0.156977 31.7791 0.0523256L32.2326 0.0348837L32.2151 0L40.5872 0C44.4419 0 48.2093 1.04651 51.4884 3.01744L60.4535 8.38953L69.6628 9.22674C73.5872 9.88953 75.5407 10.9186 77.3023 12.0174C78.436 12.8372 80.686 15.6802 80.686 15.6802L80.686 21.9593C80.686 24.0698 78.9593 25.7965 76.8488 25.7965L70.4477 25.7965L70.3605 26.0058C69.907 27.0349 69.1744 27.9593 68.25 28.657C68.2326 28.6744 66.5756 29.8953 64.2733 29.8953C61.9884 29.8953 60.3663 28.6744 60.3488 28.657C59.407 27.9593 58.6744 27.0349 58.2209 26.0058L58.1337 25.7965L21.6628 25.7965L21.5756 26.0058C21.1221 27.0349 20.3895 27.9593 19.4651 28.657C19.4477 28.6744 17.686 29.9302 15.4884 29.9302ZM32.5988 2.07558C28.4302 2.14535 24.2791 2.59884 20.2326 3.4186L19.8314 3.50581L21.8198 8.72093L35.0058 9.34884L32.8605 2.07558L32.5988 2.07558ZM55.6919 11.1105L37.4826 9.50581L37.4651 9.50581L37.4651 9.47093L37.2209 9.45349L35.0407 2.07558L40.6221 2.07558C44.093 2.07558 47.4942 3.01744 50.4593 4.79651L58.2035 9.43605L55.6919 11.1105ZM13.3256 5.21512C14.7209 4.76163 16.1163 4.37791 17.4767 4.04651L17.7733 3.99419L19.5523 8.63372L14.7384 8.40698L12.907 5.35465L13.3256 5.21512ZM2.59884 16.8314L2.59884 19.1686C2.59884 21.6628 4.63953 23.7035 7.13372 23.7035L8.87791 23.7035L8.87791 23.3547C8.87791 19.6919 11.843 16.7267 15.5058 16.7267C15.8895 16.7267 16.2907 16.7616 16.7267 16.8488C16.814 16.8663 16.8837 16.8837 16.9709 16.9012C17.0233 16.9186 17.0581 16.9186 17.1105 16.936C17.407 17.0058 17.6686 17.093 17.8953 17.1802C18.0174 17.2326 18.157 17.2849 18.2965 17.3547C18.5233 17.4593 18.75 17.5814 18.9942 17.7384L19.0814 17.7907C19.1686 17.843 19.2558 17.8953 19.3256 17.9477C19.3605 17.9651 19.3953 18 19.4302 18.0174C19.4477 18.0349 19.4651 18.0349 19.4826 18.0523L20.0407 18.4884L20.0407 10.7442L13.5 10.4302L10.8488 6.01744L5.91279 7.65698L3.10465 7.65698L5.31977 13.5174L2.59884 16.8314ZM64.3954 16.7267L64.343 16.7267C64.3307 16.7267 64.3183 16.7289 64.3067 16.731C64.2856 16.7347 64.2671 16.738 64.2558 16.7267C63.8547 16.7267 63.4709 16.7791 63.0698 16.8488C63.0523 16.8488 62.9826 16.8663 62.9826 16.8663C62.6337 16.936 62.3198 17.0058 62.0407 17.1105C60.4186 17.6686 59.0581 18.9593 58.3081 20.6512C58.2733 20.7384 58.2384 20.8081 58.2035 20.8953L58.186 20.9477C58.0814 21.2093 57.9942 21.4884 57.9244 21.7849L57.907 21.8721C57.8721 21.9767 57.8547 22.064 57.8372 22.1512C57.75 22.5872 57.7151 22.9884 57.7151 23.3547L57.7151 23.7035L54.7326 23.7035L57.0523 17.9826L57.0523 12.7674L60.4709 10.5L69.5581 11.3198C71.7209 11.5291 73.8663 12.2093 75.7849 13.3081L75.8198 13.3256L78.6802 16.2558L78.6802 21.9767C78.6802 22.936 77.8954 23.7209 76.9361 23.7209L71.0058 23.7209L71.0058 23.3721C71.0058 23.0233 70.9709 22.6395 70.8837 22.186C70.8837 22.1512 70.8663 22.1163 70.8663 22.0814C70.8663 22.0291 70.8663 21.9942 70.8488 21.9419C70.7616 21.593 70.657 21.2442 70.5174 20.8953C70.5 20.843 70.4651 20.7907 70.4477 20.7384L70.4128 20.6512C70.0988 19.936 69.6628 19.3081 69.1221 18.75L69.0872 18.7151L69 18.6279C68.7035 18.3488 68.4593 18.1395 68.2151 17.9651C68.1977 17.9651 68.1977 17.9477 68.1802 17.9477C68.1628 17.9302 68.1279 17.9128 68.1105 17.8953C68.0756 17.8779 67.9884 17.8256 67.9884 17.8256C67.6744 17.6163 67.3605 17.4419 67.0116 17.2849C67.0116 17.2849 66.9244 17.2326 66.907 17.2326C66.5581 17.093 66.1919 16.9709 65.7907 16.8837C65.7209 16.8837 65.6512 16.8663 65.5814 16.8488C65.1628 16.7616 64.7616 16.7267 64.3954 16.7267ZM35.3895 23.7035L22.1337 23.7035L22.1337 10.8314L22.7965 10.8663L35.3895 11.4593L35.3895 23.7035ZM37.4826 23.7035L52.4651 23.7035L54.9244 17.564L54.9244 13.1337L53.407 12.9942L37.4826 11.5814L37.4826 23.7035ZM15.5058 18.8198C13.0116 18.8198 10.9709 20.8605 10.9709 23.3547C10.9709 23.7558 11.0233 24.1221 11.1105 24.4709C11.6163 26.4767 13.4302 27.8895 15.5058 27.8895C17.5814 27.8895 19.3779 26.4942 19.8837 24.5058C19.8837 24.4884 19.9012 24.4535 19.9012 24.436C19.9884 24.1047 20.0407 23.7558 20.0407 23.3547C20.0407 20.8605 18 18.8198 15.5058 18.8198ZM59.8081 23.3721L59.8081 23.3023C59.8256 23.0407 59.843 22.7791 59.8953 22.5174C59.9128 22.4651 59.9128 22.4302 59.9302 22.3779L59.9477 22.3081C60.0174 22.0291 60.0872 21.8023 60.1744 21.593L60.1919 21.5581C60.7326 20.3023 61.7965 19.3779 63.1395 18.9942L63.1744 18.9942C63.3314 18.9593 63.5058 18.907 63.6802 18.8895C63.8023 18.8721 63.9419 18.8547 64.0465 18.8547C64.1512 18.8372 64.2558 18.8372 64.3605 18.8372C64.5 18.8372 64.6395 18.8372 64.7791 18.8547L64.8314 18.8547C64.9186 18.8721 64.9884 18.8721 65.0756 18.8895C65.3023 18.9244 65.5465 18.9942 65.8256 19.0814C65.843 19.0814 65.8779 19.0988 65.8953 19.0988L66.0523 19.1512C66.3488 19.2733 66.6453 19.4302 66.9244 19.6221C66.9767 19.6744 67.0291 19.7093 67.0814 19.7616C67.0988 19.7965 67.1337 19.814 67.1512 19.8314C67.3605 20.0058 67.5174 20.1453 67.657 20.3023C67.7442 20.3895 67.8139 20.4767 67.8837 20.564L67.9012 20.5814C68.0407 20.7733 68.1628 20.9477 68.2674 21.1221C68.3198 21.2093 68.3721 21.314 68.4244 21.4186C68.5116 21.6105 68.5988 21.8198 68.6686 22.0814C68.6861 22.1163 68.6861 22.1337 68.7035 22.1686C68.7209 22.2384 68.7384 22.2907 68.7558 22.3605C68.843 22.7093 68.8779 23.0407 68.8779 23.3721C68.8779 23.7558 68.8256 24.1047 68.7384 24.436C68.7384 24.4535 68.7209 24.4884 68.7209 24.5058C68.2151 26.4942 66.4186 27.8895 64.343 27.8895C62.2674 27.8895 60.4535 26.4767 59.9477 24.4709C59.8605 24.1395 59.8081 23.7733 59.8081 23.3721Z" transform="translate(0.03488372 0.01744186)" id="Shape" fill="#5C5C60" fill-rule="evenodd" stroke="none" />
  </g>
</svg>