<?xml version="1.0" encoding="utf-8"?>
<svg width="32px" height="32px" viewBox="0 0 32 32" version="1.1" xmlns:xlink="http://www.w3.org/1999/xlink" xmlns="http://www.w3.org/2000/svg">
  <desc>Created with Lunacy</desc>
  <defs>
    <path d="M0 23.9447L27.6287 23.9447L27.6287 0L0 0L0 23.9447Z" id="path_1" />
    <clipPath id="mask_1">
      <use xlink:href="#path_1" />
    </clipPath>
  </defs>
  <g id="iconografia/marca/on/envios">
    <g id="Page-1" transform="translate(2 4)">
      <path d="M0 15.7527L0 6.22867L0 5.46867L0 0.38C0 0.170667 0.171333 0 0.38 0L16.8667 0C17.0753 0 17.2467 0.170667 17.2467 0.38L17.2467 1.18467C17.2467 1.394 17.4173 1.56467 17.6267 1.56467L21.04 1.56467C21.248 1.56467 21.51 1.71 21.6207 1.88733L25.46 8.05733C25.5707 8.23467 25.6613 8.55067 25.6613 8.76L25.6613 15.7527" transform="translate(1.9668 2.0058)" id="Fill-1" fill="#FCD600" stroke="none" />
      <path d="M5.564 2.782C5.564 4.318 4.31867 5.564 2.782 5.564C1.24533 5.564 0 4.318 0 2.782C0 1.246 1.24533 0 2.782 0C4.31867 0 5.564 1.246 5.564 2.782" transform="translate(3.372867 17.78867)" id="Fill-3" fill="#B4B4B4" stroke="none" />
      <path d="M5.56334 2.782C5.56334 4.318 4.318 5.564 2.78133 5.564C1.24533 5.564 0 4.318 0 2.782C0 1.246 1.24533 0 2.78133 0C4.318 0 5.56334 1.246 5.56334 2.782" transform="translate(18.39433 17.78867)" id="Fill-5" fill="#B4B4B4" stroke="none" />
      <path d="M4.84467 0L4.05733 0.786667L5.33267 2.062L0 2.062L0 3.17467L5.33333 3.17467L4.05733 4.45067L4.84467 5.23733L7.46333 2.61867L4.84467 0Z" transform="translate(6.954134 3.104467)" id="Fill-7" fill="#FFFFFF" stroke="none" />
      <path d="M7.46267 2.062L2.13 2.062L3.40467 0.786667L2.618 0L0 2.61867L2.618 5.23733L3.40467 4.45067L2.12933 3.17467L7.46267 3.17467L7.46267 2.062Z" transform="translate(3.942934 8.667801)" id="Fill-9" fill="#FFFFFF" stroke="none" />
      <path d="M0.333333 1.045C0.4 1.07167 0.473333 1.085 0.546 1.085C0.613333 1.085 0.686 1.07167 0.753333 1.045C0.819333 1.01833 0.879333 0.978333 0.926667 0.925C1.02667 0.825 1.08667 0.685 1.08667 0.545C1.08667 0.398333 1.02667 0.258333 0.926667 0.158333C0.879333 0.111667 0.819333 0.0716667 0.753333 0.045C0.62 -0.015 0.466 -0.015 0.333333 0.045C0.266 0.0716667 0.212667 0.111667 0.159333 0.158333C0.106 0.211667 0.0726667 0.271667 0.04 0.338333C0.0133333 0.405 0 0.471667 0 0.545C0 0.685 0.06 0.825 0.159333 0.925C0.212667 0.978333 0.266 1.01833 0.333333 1.045" transform="translate(0.0482 8.362867)" id="Fill-11" fill="#5C5C60" stroke="none" />
      <path d="M0 23.9447L27.6287 23.9447L27.6287 0L0 0L0 23.9447Z" id="Clip-14" fill="none" stroke="none" />
      <g clip-path="url(#mask_1)">
        <path d="M0 1.11267L1.66933 1.11267L1.66933 0L0 0L0 1.11267Z" transform="translate(19.11133 11.84267)" id="Fill-13" fill="#5C5C60" stroke="none" />
        <path d="M22.4713 1.82L26.7127 8.63467C26.766 8.72067 26.7947 8.82 26.7947 8.92133L26.7947 20.57C26.7947 20.8693 26.552 21.1127 26.252 21.1127L24.4947 21.1127C24.2327 22.7147 22.8507 23.9447 21.1753 23.9447C19.518 23.9447 18.1433 22.7407 17.8627 21.1627L9.46867 21.1627C9.18733 22.7407 7.812 23.9447 6.15467 23.9447C4.49733 23.9447 3.122 22.7407 2.84067 21.1627L0.591333 21.1627C0.264667 21.1627 0 20.8973 0 20.5707L0 11.286C0 10.9593 0.264667 10.694 0.591333 10.694C0.918 10.694 1.18333 10.9593 1.18333 11.286L1.18333 15.5773L17.2953 15.5773L17.2953 1.08467L1.134 1.08467L1.134 6.39067C1.134 6.69 0.890667 6.93333 0.591333 6.93333C0.292 6.93333 0.0493333 6.69 0.0493333 6.39067L0.0493333 0.542C0.0493333 0.242667 0.292 0 0.591333 0L17.8373 0C18.1373 0 18.38 0.242667 18.38 0.542L18.38 1.564L22.0107 1.564C22.198 1.564 22.372 1.66067 22.4713 1.82ZM18.38 15.5773L25.71 15.5773L25.71 9.07667L21.7093 2.64867L18.38 2.64867L18.38 15.5773ZM25.71 20.028L24.4947 20.028C24.2327 18.426 22.8507 17.196 21.1753 17.196C19.518 17.196 18.1433 18.4 17.8627 19.9787L9.46867 19.9787C9.18733 18.4 7.81267 17.196 6.15467 17.196C4.49667 17.196 3.122 18.4 2.84067 19.9787L1.18333 19.9787L1.18333 16.662L25.71 16.662L25.71 20.028ZM6.15467 22.76C4.94667 22.76 3.96467 21.778 3.96467 20.5707C3.96467 19.3627 4.94667 18.3807 6.15467 18.3807C7.36267 18.3807 8.34467 19.3627 8.34467 20.5707C8.34467 21.778 7.36267 22.76 6.15467 22.76ZM18.986 20.5707C18.986 21.778 19.9687 22.76 21.1753 22.76C22.3833 22.76 23.3653 21.778 23.3653 20.5707C23.3653 19.3627 22.3833 18.3807 21.1753 18.3807C19.9687 18.3807 18.986 19.3627 18.986 20.5707Z" transform="translate(0.0002666667 0.0001333333)" id="Fill-15" fill="#5C5C60" fill-rule="evenodd" stroke="none" />
        <path d="M0 1.11267L1.11267 1.11267L1.11267 0L0 0L0 1.11267Z" transform="translate(5.598667 20.188)" id="Fill-16" fill="#5C5C60" stroke="none" />
        <path d="M0 1.11267L1.11333 1.11267L1.11333 0L0 0L0 1.11267Z" transform="translate(20.62 20.188)" id="Fill-17" fill="#5C5C60" stroke="none" />
      </g>
    </g>
  </g>
</svg>