<?xml version="1.0" encoding="UTF-8"?>
<svg width="65px" height="39px" viewBox="0 0 65 39" version="1.1" xmlns="http://www.w3.org/2000/svg" xmlns:xlink="http://www.w3.org/1999/xlink">
    <!-- Generator: Sketch 62 (91390) - https://sketch.com -->
    <title>Group 3</title>
    <desc>Created with Sketch.</desc>
    <defs>
        <polygon id="path-1" points="0 0.18404878 64.8841241 0.18404878 64.8841241 38.2105057 0 38.2105057"></polygon>
    </defs>
    <g id="MARKETPLACE-DESK" stroke="none" stroke-width="1" fill="none" fill-rule="evenodd">
        <g id="Page-1" transform="translate(-29.000000, -71.000000)">
            <g id="Group-3" transform="translate(29.000000, 71.000000)">
                <mask id="mask-2" fill="white">
                    <use xlink:href="#path-1"></use>
                </mask>
                <g id="Clip-2"></g>
                <path d="M60.3218056,3.00501463 C59.5827315,1.12269756 58.5752315,-0.156082927 55.6273611,0.263404878 C49.51375,1.17050244 43.7793056,2.21503902 34.811713,3.9886 C30.3423611,4.84072195 25.65875,5.81355122 20.3564352,6.95728293 C15.0119907,8.09623415 9.5074537,9.29733171 3.3625463,10.8450146 C0.808287037,11.5262341 -0.608472222,13.8399902 0.252175926,16.4489415 C2.27439815,22.1628195 4.32912037,28.2926 6.13467593,34.5992585 C7.00736111,37.3791122 9.6025463,38.7869659 12.2025463,37.9886244 C24.3515278,33.9025024 34.0943056,30.5621366 42.6670833,27.5623805 C44.4124537,26.9588439 46.0350463,26.3768195 47.6191204,25.8306488 L47.6191204,15.3135756 L45.8063426,15.3135756 L45.8063426,11.8776 L47.6191204,11.8776 L47.6191204,11.3003561 C47.6191204,9.48018537 48.1174537,7.49628293 49.3127315,6.27725854 C50.3960648,5.15503902 51.8381019,4.76303902 53.0959722,4.76303902 C54.0071759,4.76303902 54.7330093,4.91481951 55.3071759,5.06540488 L55.156713,8.65794146 C54.790787,8.53006341 54.3406019,8.44520976 53.791713,8.44520976 C52.3869907,8.44520976 51.8140278,9.64272195 51.8140278,11.1151122 L51.8140278,11.8776 L54.539213,11.8776 L54.539213,15.3135756 L51.8381019,15.3135756 L51.8381019,24.3403317 C52.6205093,24.069039 53.3908796,23.7989415 54.173287,23.5192829 C54.9954167,23.2348439 55.7381019,22.9755024 56.4314352,22.7245268 L56.4314352,12.1393317 C58.2839352,11.9003073 58.2622685,11.9875512 60.4361574,12.0473073 L60.4361574,21.315478 C61.1246759,21.0692829 61.8348611,20.8230878 62.5823611,20.5458195 C64.939213,19.6554537 65.1727315,17.9010146 64.6575463,15.9206976 C63.3418981,11.4808195 61.9528241,7.24291707 60.3218056,3.00501463 L60.3218056,3.00501463 Z M23.3043056,27.2169902 C21.5180093,27.2169902 19.9339352,26.7556732 18.9083796,26.1413805 L19.6522685,22.8308927 C20.4370833,23.353161 22.0404167,23.9316 23.3043056,23.9316 C24.5850463,23.9316 25.10625,23.4643073 25.10625,22.7042098 C25.10625,21.9106488 24.6705093,21.540161 23.1249537,20.9509659 C20.2998611,19.9446732 19.2105093,18.2272829 19.2345833,16.4836 C19.2345833,13.6643073 21.4084722,11.5369902 24.760787,11.5369902 C26.361713,11.5369902 27.7459722,11.9672341 28.5765278,12.4237707 L27.8627315,15.6195268 C27.2500463,15.2836976 26.0547685,14.7936976 24.9124537,14.7936976 C23.8844907,14.7936976 23.3043056,15.2466488 23.3043056,15.9816488 C23.3043056,16.7238195 23.8339352,17.0859415 25.4926389,17.738478 C28.0854167,18.6826244 29.1338426,20.1538195 29.1591204,22.3325268 C29.1591204,25.1589902 27.1946759,27.2169902 23.3043056,27.2169902 L23.3043056,27.2169902 Z M40.5810648,26.8823561 L40.3944907,24.7622098 L40.2981944,24.7622098 C39.7866204,25.6800634 38.5034722,27.2169902 36.0539352,27.2169902 C33.2673611,27.2169902 31.2776389,25.3107707 31.2776389,20.6748927 L31.2776389,11.8776 L35.5002315,11.8776 L35.5002315,19.9446732 C35.5002315,22.1209902 36.1345833,23.4404049 37.6319907,23.4404049 C38.8080093,23.4404049 39.4965278,22.5512341 39.7577315,21.8198195 C39.8564352,21.540161 39.9106019,21.2150878 39.9106019,20.8015756 L39.9106019,11.8776 L44.1476389,11.8776 L44.1476389,22.0707951 C44.1476389,24.0224293 44.2102315,25.6226976 44.2535648,26.8823561 L40.5810648,26.8823561 Z M58.5631944,10.1626 C57.2896759,10.1626 56.2219907,9.11328293 56.2219907,7.83091707 C56.2219907,6.57842927 57.2896759,5.52672195 58.5631944,5.52672195 C59.860787,5.52672195 60.909213,6.54974634 60.909213,7.83091707 C60.909213,9.11328293 59.860787,10.1626 58.5631944,10.1626 L58.5631944,10.1626 Z" id="Fill-1" fill="#DE0715" mask="url(#mask-2)"></path>
            </g>
        </g>
    </g>
</svg>