<?xml version="1.0" encoding="UTF-8"?>
<svg width="85px" height="36px" viewBox="0 0 85 36" version="1.1" xmlns="http://www.w3.org/2000/svg" xmlns:xlink="http://www.w3.org/1999/xlink">
    <title>icon-suv</title>
    <g id="MARKETPLACE-DESK-1parte" stroke="none" stroke-width="1" fill="none" fill-rule="evenodd">
        <g id="icon-suv" fill-rule="nonzero">
            <path d="M81.0186878,22.0952381 C81.0186878,21.7142857 80.9805882,20.9142857 80.9234389,20.5714286 C80.4281448,17.8857143 78.1612217,15.7904762 75.3418552,15.5809524 L62.730905,12.5714286 L58.1589593,15.6190476 L37.7757014,15.6190476 L19.4879186,15.6190476 L10.2487783,15.6190476 L2.72411765,15.6190476 L4.81959276,26.2857143 C4.81959276,29.6571429 6.97221719,32.3809524 10.3440271,32.3809524 L12.0585068,32.3809524 C11.9251584,31.8857143 11.868009,31.3904762 11.868009,30.8571429 C11.868009,27.4857143 14.5921267,24.7619048 17.9639367,24.7619048 C18.4973303,24.7619048 18.9926244,24.8190476 19.4879186,24.952381 C22.1167873,25.6190476 24.0598643,28.0190476 24.0598643,30.8571429 C24.0598643,31.3904762 24.0027149,31.8857143 23.8693665,32.3809524 L37.7757014,32.3809524 L55.1109955,32.3809524 L61.3974208,32.3809524 C61.2640724,31.8857143 61.2069231,31.3904762 61.2069231,30.8571429 C61.2069231,30.647619 61.2259729,30.4380952 61.2450226,30.2285714 C61.2640724,30.0380952 61.2831222,29.8285714 61.3402715,29.6380952 C61.378371,29.447619 61.4355204,29.2380952 61.4926697,29.047619 C61.6069683,28.6666667 61.7593665,28.3238095 61.9498643,27.9619048 C62.0641629,27.752381 62.1975113,27.5428571 62.3499095,27.3333333 C62.388009,27.2571429 62.4642081,27.1809524 62.5213575,27.1047619 C62.6547059,26.9142857 62.8261538,26.7238095 63.0166516,26.5333333 C63.2071493,26.3428571 63.3785973,26.1904762 63.5881448,26.0380952 C63.6643439,25.9809524 63.740543,25.9238095 63.8167421,25.8666667 C64.0072398,25.7142857 64.2358371,25.6 64.4453846,25.4666667 C64.7882805,25.2761905 65.1502262,25.1238095 65.5312217,25.0095238 C65.7217195,24.952381 65.931267,24.8952381 66.1217647,24.8571429 C66.3122624,24.8190476 66.52181,24.7809524 66.7123077,24.7619048 C66.9028054,24.7428571 67.0933032,24.7238095 67.2838009,24.7238095 C67.4742986,24.7238095 67.6647964,24.7428571 67.8552941,24.7619048 C67.9695928,24.7619048 68.121991,24.7809524 68.2362896,24.8 C68.2553394,24.8 68.2553394,24.8 68.2743891,24.8 C68.5601357,24.8380952 68.8649321,24.9142857 69.1506787,24.9904762 C69.2649774,25.0095238 69.379276,25.047619 69.4935747,25.0857143 C70.73181,25.5047619 71.741448,26.3428571 72.40819,27.4095238 C72.5224887,27.5809524 72.6177376,27.752381 72.7129864,27.9047619 C72.9034842,28.247619 73.0558824,28.5714286 73.1511312,28.9333333 C73.170181,28.952381 73.170181,28.9714286 73.170181,28.9904762 C73.2082805,29.1047619 73.2463801,29.2380952 73.2654299,29.352381 C73.2844796,29.3714286 73.2844796,29.3904762 73.2844796,29.3904762 C73.3225792,29.5047619 73.341629,29.6380952 73.3606787,29.752381 C73.3987783,29.9238095 73.4178281,30.0952381 73.4178281,30.2857143 C73.4559276,30.4571429 73.4559276,30.6285714 73.4559276,30.8 C73.4559276,31.3142857 73.3987783,31.8095238 73.2654299,32.2857143 L81.0758371,32.2857143 C82.7522172,32.2857143 84.1238009,30.9142857 84.1238009,29.2380952 L84.1238009,25.047619 C84.0666516,23.4666667 82.6950679,22.0952381 81.0186878,22.0952381 Z" id="Path" fill="#FCD603"></path>
            <path d="M59.6829412,28.5714286 C59.6829412,29.1047619 59.7400905,29.6 59.8734389,30.0952381 C60.540181,32.7238095 62.9404525,34.6666667 65.7788688,34.6666667 C68.6172851,34.6666667 70.9985068,32.7238095 71.6842986,30.0952381 C71.8176471,29.6 71.8747964,29.1238095 71.8747964,28.6095238 C71.8747964,28.4190476 71.8747964,28.2666667 71.8366968,28.0952381 C71.8366968,27.9047619 71.7985973,27.7333333 71.7795475,27.5619048 C71.7604977,27.447619 71.741448,27.3142857 71.7033484,27.2 C71.7033484,27.1809524 71.7033484,27.1619048 71.6842986,27.1619048 C71.6652489,27.047619 71.6461991,26.9142857 71.5890498,26.8 C71.5890498,26.7809524 71.5890498,26.7619048 71.57,26.7428571 C71.4557014,26.3809524 71.3033032,26.0380952 71.1318552,25.7142857 C71.0366063,25.5428571 70.9413575,25.3714286 70.8270588,25.2190476 C70.0460181,24.0761905 68.9220814,23.2 67.5885973,22.8 C67.3028507,22.7047619 66.9980543,22.6285714 66.7123077,22.6095238 C66.6932579,22.6095238 66.6932579,22.6095238 66.6742081,22.6095238 C66.5599095,22.5714286 66.4075113,22.5714286 66.2932127,22.5714286 C66.1027149,22.552381 65.9122172,22.5333333 65.7217195,22.5333333 C65.5312217,22.5333333 65.340724,22.552381 65.1502262,22.5714286 C64.9597285,22.5904762 64.750181,22.6095238 64.5596833,22.6666667 C64.3691855,22.7238095 64.159638,22.7619048 63.9691403,22.8190476 C63.5881448,22.9333333 63.2452489,23.0857143 62.8833032,23.2761905 C62.6737557,23.3904762 62.4642081,23.5238095 62.2546606,23.6761905 C62.1784615,23.7142857 62.1022624,23.7904762 62.0260633,23.847619 C61.8355656,23.9809524 61.6450679,24.152381 61.4545701,24.3428571 C61.2640724,24.5333333 61.1116742,24.7047619 60.959276,24.9142857 C60.9021267,24.9904762 60.8449774,25.0666667 60.7878281,25.1428571 C60.6354299,25.3333333 60.5211312,25.5619048 60.3877828,25.7714286 C60.1972851,26.1142857 60.0448869,26.4761905 59.9305882,26.8571429 C59.8734389,27.047619 59.8162896,27.2571429 59.77819,27.447619 C59.7400905,27.6380952 59.701991,27.847619 59.6829412,28.0380952 C59.701991,28.152381 59.6829412,28.3619048 59.6829412,28.5714286 Z" id="Path" fill="#B5B5B5"></path>
            <path d="M10.3440271,28.5714286 C10.3440271,29.1047619 10.4011765,29.6 10.5345249,30.0952381 C11.201267,32.7238095 13.6015385,34.6666667 16.4399548,34.6666667 C19.278371,34.6666667 21.6595928,32.7238095 22.3453846,30.0952381 C22.478733,29.6 22.5358824,29.1047619 22.5358824,28.5714286 C22.5358824,25.7333333 20.5928054,23.352381 17.9639367,22.6666667 C17.4686425,22.5333333 16.9733484,22.4761905 16.4399548,22.4761905 C13.0681448,22.4761905 10.3440271,25.2 10.3440271,28.5714286 Z" id="Path" fill="#B5B5B5"></path>
            <path d="M17.9639367,13.3333333 L36.2517195,13.3333333 L56.6349774,13.3333333 L61.2069231,10.2857143 L53.5870136,5.71428571 L51.1867421,4.28571429 C47.7768326,2.22857143 47.8720814,1.14285714 43.871629,1.14285714 L34.7277376,1.14285714 L21.0119005,1.14285714 L10.7059729,1.14285714 C9.54393665,1.14285714 8.4961991,1.79047619 7.9818552,2.81904762 L1.20013575,10.2857143 L1.20013575,11.8095238 L1.20013575,13.3333333 L8.72479638,13.3333333 L17.9639367,13.3333333 Z" id="Path" fill="#FFFFFF"></path>
            <path d="M12.8776471,29.3333333 C12.5538009,29.3333333 12.3061538,29.0857143 12.3061538,28.7619048 C12.3061538,26.3428571 14.2682805,24.3809524 16.6876018,24.3809524 C17.011448,24.3809524 17.259095,24.6285714 17.259095,24.952381 C17.259095,25.2761905 17.011448,25.5238095 16.6876018,25.5238095 C14.8969231,25.5238095 13.4491403,26.9714286 13.4491403,28.7619048 C13.4491403,29.0857143 13.2014932,29.3333333 12.8776471,29.3333333 Z" id="Path" fill="#FFFFFF"></path>
            <path d="M62.2927602,29.3333333 C61.968914,29.3333333 61.721267,29.0857143 61.721267,28.7619048 C61.721267,26.3428571 63.6833937,24.3809524 66.1027149,24.3809524 C66.4265611,24.3809524 66.6742081,24.6285714 66.6742081,24.952381 C66.6742081,25.2761905 66.4265611,25.5238095 66.1027149,25.5238095 C64.3120362,25.5238095 62.8642534,26.9714286 62.8642534,28.7619048 C62.8642534,29.0857143 62.6166063,29.3333333 62.2927602,29.3333333 Z" id="Path" fill="#FFFFFF"></path>
            <path d="M65.7979186,35.8285714 C63.0928507,35.8285714 61.5688688,34.4 61.549819,34.4 L61.5307692,34.3809524 L61.5117195,34.3619048 C60.4830317,33.6 59.6829412,32.5904762 59.1876471,31.4666667 L59.0923982,31.2380952 L23.2026244,31.2380952 L23.1073756,31.4666667 C22.6311312,32.5904762 21.8310407,33.6 20.7833032,34.3619048 C20.7642534,34.3809524 18.9354751,35.6761905 16.4399548,35.6761905 C13.9253846,35.6761905 12.1728054,34.3809524 12.1537557,34.3619048 C11.1250679,33.6 10.3249774,32.5904762 9.82968326,31.4666667 L9.73443439,31.2380952 L9.41058824,31.2380952 C5.41013575,31.2380952 2.17167421,28 2.17167421,24 L0.076199095,10.0190476 L6.97221719,2.32380952 C7.67705882,0.895238095 9.12484163,0 10.7250226,0 L43.9097285,0 C48.1197285,0 48.2530769,1.14285714 51.8344344,3.2952381 L61.6260181,9.16190476 L73.9893213,11.7714286 C77.2658824,12 79.9709502,14.8190476 80.580543,18.0761905 C80.5995928,18.1904762 80.6186425,18.3619048 80.6376923,18.5333333 L80.6567421,18.7809524 L80.8853394,18.8761905 C82.5807692,19.447619 83.7237557,21.047619 83.7237557,22.8380952 L83.7237557,27.0285714 C83.7237557,29.3333333 81.8378281,31.2190476 79.5328054,31.2190476 L72.5415385,31.2190476 L72.4462896,31.447619 C71.9700452,32.5714286 71.1699548,33.5809524 70.1222172,34.3428571 L70.1031674,34.3619048 L70.0841176,34.3809524 C70.0841176,34.4 68.5029864,35.8285714 65.7979186,35.8285714 Z M62.6928054,24.6857143 C62.5213575,24.7809524 62.388009,24.8952381 62.2546606,25.0666667 C62.2165611,25.1047619 62.1975113,25.1428571 62.1594118,25.1809524 C62.0832127,25.2571429 62.0070136,25.352381 61.9308145,25.4666667 L61.7974661,25.6190476 C61.6450679,25.8285714 61.549819,25.9809524 61.4926697,26.0952381 C61.4736199,26.1333333 61.4355204,26.1714286 61.4164706,26.2285714 L61.4164706,26.247619 L61.4164706,26.2666667 C61.2831222,26.552381 61.1688235,26.8380952 61.0735747,27.1238095 L61.0735747,27.1428571 C61.0545249,27.2190476 61.0354751,27.2952381 61.0164253,27.3904762 C60.9973756,27.4666667 60.9783258,27.5428571 60.959276,27.6190476 L60.959276,27.6380952 L60.959276,27.6571429 C60.959276,27.6952381 60.9402262,27.7142857 60.9402262,27.752381 C60.9211765,27.847619 60.9021267,27.9619048 60.9021267,28.0761905 C60.9021267,28.1904762 60.9021267,28.2666667 60.8830769,28.3619048 C60.8830769,28.4380952 60.8830769,28.5142857 60.8830769,28.5904762 C60.8830769,29.047619 60.9402262,29.447619 61.0354751,29.7904762 C61.6069683,32 63.5881448,33.5428571 65.8360181,33.5428571 C68.1029412,33.5428571 70.0650679,32.0380952 70.6175113,29.8666667 C70.6365611,29.8285714 70.6365611,29.7904762 70.6556109,29.752381 C70.7699095,29.352381 70.7889593,28.9904762 70.73181,28.5904762 C70.73181,28.5714286 70.73181,28.552381 70.73181,28.552381 C70.73181,28.4952381 70.7508597,28.4190476 70.73181,28.3238095 L70.7127602,28.0952381 C70.7127602,28.0571429 70.7127602,28 70.6937104,27.9619048 C70.6937104,27.9428571 70.6937104,27.9428571 70.6937104,27.9238095 L70.6937104,27.8857143 L70.6937104,27.847619 L70.560362,27.2190476 L70.4651131,26.8952381 C70.388914,26.6857143 70.2936652,26.4952381 70.1793665,26.247619 C70.1222172,26.1142857 70.0460181,26 69.969819,25.8666667 C69.2840271,24.8761905 68.369638,24.1714286 67.3028507,23.847619 L67.2266516,23.8285714 C67.0552036,23.7714286 66.8837557,23.7333333 66.6932579,23.6952381 L66.3884615,23.6571429 L66.3694118,23.6571429 C65.9884163,23.6380952 65.7979186,23.6380952 65.6455204,23.6380952 C65.588371,23.6380952 65.5312217,23.6380952 65.4740724,23.6571429 C65.4359729,23.6571429 65.3978733,23.6571429 65.340724,23.6571429 L65.3216742,23.6571429 L65.3026244,23.6571429 C65.2645249,23.6571429 65.2264253,23.6571429 65.1883258,23.6761905 C65.0930769,23.6761905 64.9787783,23.6952381 64.8644796,23.7333333 C64.6930317,23.7714286 64.5215837,23.8095238 64.3501357,23.8666667 C64.0262896,23.9619048 63.7595928,24.0952381 63.4738462,24.2285714 C63.4738462,24.2285714 63.3976471,24.2666667 63.3785973,24.2857143 C63.2833484,24.3428571 63.15,24.4190476 63.0166516,24.5142857 L62.6928054,24.6857143 Z M16.4590045,23.6190476 C13.7348869,23.6190476 11.5060633,25.847619 11.5060633,28.5714286 C11.5060633,29.0285714 11.5632127,29.4285714 11.6584615,29.7714286 C12.2299548,31.9809524 14.2111312,33.5238095 16.4590045,33.5238095 C18.7068778,33.5238095 20.6499548,32.0190476 21.2404977,29.8666667 C21.2595475,29.8285714 21.2785973,29.7714286 21.2785973,29.7142857 C21.3547964,29.4095238 21.4119457,29.0285714 21.4119457,28.5714286 C21.4119457,26.3047619 19.8879638,24.3428571 17.7353394,23.7904762 C17.6972398,23.7714286 17.6591403,23.7714286 17.6210407,23.752381 C17.2781448,23.6571429 16.8971493,23.6190476 16.4590045,23.6190476 Z M72.8463348,27.0285714 C72.8653846,27.1428571 72.8844344,27.2380952 72.9034842,27.3142857 C72.9034842,27.3714286 72.9225339,27.4095238 72.9225339,27.447619 C72.9606335,27.5809524 72.998733,27.7714286 72.998733,27.9619048 L72.998733,28 L72.998733,28.0380952 C73.0368326,28.2095238 73.0368326,28.4 73.0368326,28.5904762 L73.0368326,28.9714286 L79.5137557,28.9714286 C80.5614932,28.9714286 81.418733,28.1142857 81.418733,27.0666667 L81.418733,22.8761905 C81.418733,21.8285714 80.5614932,20.9714286 79.5137557,20.9714286 L78.3517195,20.9714286 L78.2374208,18.247619 L78.2374208,18.2095238 C77.7040271,16.1142857 75.9133484,14.2095238 73.7797738,14.0761905 L61.4736199,11.447619 L57.7398643,13.9428571 L57.7398643,22.7047619 L55.2252941,28.9714286 L58.5018552,28.9714286 L58.5018552,28.5904762 C58.5018552,28.4 58.520905,28.2095238 58.5399548,28 L58.5399548,27.9428571 C58.5590045,27.6190476 58.6161538,27.352381 58.6733032,27.1047619 L58.6923529,27.0095238 C58.7304525,26.8190476 58.7876018,26.6285714 58.8447511,26.4571429 C58.9780995,26.0380952 59.1685973,25.6190476 59.3971946,25.1809524 C59.5686425,24.8952381 59.701991,24.647619 59.8543891,24.4380952 L59.8734389,24.4190476 L59.8924887,24.4 C59.9305882,24.3428571 59.9877376,24.247619 60.0639367,24.1714286 L60.121086,24.1142857 L60.1401357,24.0952381 C60.2544344,23.9047619 60.5782805,23.5809524 60.6735294,23.4857143 C60.9021267,23.2571429 61.1688235,23.0285714 61.3974208,22.8571429 L61.4164706,22.8380952 L61.4355204,22.8190476 C61.4355204,22.8190476 61.4545701,22.8 61.4926697,22.7809524 C61.5307692,22.7428571 61.5879186,22.7047619 61.6450679,22.6666667 C61.8165158,22.5333333 61.9879638,22.4380952 62.1594118,22.3238095 C62.2165611,22.2857143 62.2737104,22.247619 62.3308597,22.2095238 C62.8071041,21.9619048 63.2261991,21.7714286 63.6262443,21.6571429 C63.8167421,21.6 64.0072398,21.5428571 64.1977376,21.5047619 L64.3691855,21.4666667 L64.4263348,21.4666667 L64.4834842,21.447619 C64.5596833,21.4285714 64.750181,21.3714286 65.0740271,21.352381 C65.3216742,21.3333333 65.5312217,21.3333333 65.759819,21.3333333 C65.9693665,21.3333333 66.1979638,21.3333333 66.4075113,21.352381 L66.4265611,21.352381 L66.4456109,21.352381 C66.5027602,21.352381 66.6551584,21.3714286 66.8266063,21.4095238 L66.8647059,21.4095238 C67.1504525,21.447619 67.4742986,21.5047619 67.8743439,21.6190476 C67.9314932,21.6380952 67.9886425,21.6571429 68.0457919,21.6761905 C68.0838914,21.6952381 68.1410407,21.6952381 68.1791403,21.7142857 C69.6650226,22.2285714 70.8651584,23.1428571 71.741448,24.4380952 L71.7604977,24.4761905 L71.7795475,24.4952381 C71.8176471,24.552381 71.8557466,24.6095238 71.8747964,24.6285714 L71.8747964,24.6285714 C71.9509955,24.7238095 72.0652941,24.9142857 72.1795928,25.1238095 C72.3510407,25.4666667 72.5034389,25.7714286 72.5986878,26.0380952 L72.7701357,26.4952381 L72.8463348,27.0285714 Z M37.4137557,28.952381 L52.8440724,28.952381 L55.5110407,22.2666667 L55.5110407,14.4761905 L37.4137557,14.4761905 L37.4137557,28.952381 L37.4137557,28.952381 Z M22.650181,24.8761905 C22.6882805,24.952381 22.7263801,25.0285714 22.7835294,25.1047619 C22.821629,25.1809524 22.8597285,25.2380952 22.8978281,25.3142857 C23.0121267,25.5238095 23.0883258,25.7142857 23.1645249,25.9047619 L23.1645249,25.9238095 C23.2216742,26.0571429 23.2788235,26.1904762 23.3359729,26.3428571 C23.3931222,26.552381 23.4502715,26.7809524 23.5074208,27.047619 L23.5074208,27.0666667 L23.5074208,27.0857143 C23.5455204,27.2 23.5836199,27.3142857 23.5836199,27.4095238 C23.6407692,27.847619 23.6788688,28.2095238 23.6788688,28.5714286 L23.6788688,28.952381 L35.108733,28.952381 L35.108733,14.4761905 L19.1069231,14.4761905 L19.1259729,21.6 C19.1259729,21.7714286 19.2402715,21.9238095 19.3926697,21.9809524 C19.4879186,22.0190476 19.5831674,22.0761905 19.6974661,22.152381 C19.7355656,22.1714286 19.7927149,22.2095238 19.8308145,22.2285714 C20.0213122,22.3238095 20.21181,22.4190476 20.3451584,22.4952381 C20.459457,22.5714286 20.5928054,22.6666667 20.7261538,22.7619048 L20.7833032,22.8 C20.878552,22.8952381 20.9547511,22.952381 21.05,23.0285714 C21.1071493,23.0666667 21.1642986,23.1238095 21.221448,23.1619048 L21.2404977,23.1809524 C21.3357466,23.2571429 21.4119457,23.3333333 21.5071946,23.447619 C21.5452941,23.4857143 21.5833937,23.5238095 21.6024434,23.5619048 C21.7357919,23.6952381 21.8500905,23.8285714 21.9834389,23.9809524 L22.0024887,24 C22.0786878,24.0761905 22.1358371,24.1714286 22.2120362,24.2666667 C22.2501357,24.3047619 22.2691855,24.3428571 22.3072851,24.3809524 C22.4406335,24.5333333 22.5549321,24.6857143 22.650181,24.8761905 Z M4.45764706,24 C4.45764706,26.7238095 6.68647059,28.952381 9.41058824,28.952381 L9.2200905,28.952381 L9.2200905,28.5714286 C9.2200905,24.5714286 12.458552,21.3333333 16.4590045,21.3333333 L16.84,21.3333333 L16.84,14.4761905 L2.93366516,14.4761905 L4.45764706,24 Z M19.4307692,12.1904762 L34.9563348,12.1904762 L33.7180995,2.28571429 L21.9262896,2.28571429 L19.4307692,12.1904762 Z M10.7250226,2.28571429 C10.0011312,2.28571429 9.35343891,2.68571429 9.01054299,3.33333333 L2.36217195,10.552381 L2.74316742,12.1904762 L17.1066968,12.1904762 L19.5831674,2.28571429 L10.7250226,2.28571429 Z M37.2804072,12.1714286 L56.2920814,12.1714286 L59.0923982,10.3238095 L50.6342986,5.25714286 C47.3958371,3.31428571 47.6815837,2.28571429 43.8906787,2.28571429 L36.0421719,2.26666667 L37.2804072,12.1714286 Z" id="Shape" fill="#5C5C60"></path>
        </g>
    </g>
</svg>