<?xml version="1.0" encoding="utf-8"?>
<svg width="48px" height="48px" viewBox="0 0 48 48" version="1.1" xmlns:xlink="http://www.w3.org/1999/xlink" xmlns="http://www.w3.org/2000/svg">
  <desc>Created with Lunacy</desc>
  <defs>
    <path d="M0 0L11.5624 0L11.5624 18.5437L0 18.5437L0 0Z" transform="translate(0 0.951)" id="path_1" />
    <clipPath id="mask_1">
      <use xlink:href="#path_1" />
    </clipPath>
  </defs>
  <g id="iconografia/marca/on/carrito-compra">
    <g id="Page-1" transform="translate(3 5)">
      <path d="M4.77753 0.810988C6.84753 3.67499 3.67753 6.85099 0.805528 4.77599C0.755528 4.73899 0.707528 4.69099 0.670528 4.63899C-1.41747 1.76199 1.78153 -1.41801 4.64153 0.675988C4.69353 0.712988 4.74053 0.759988 4.77753 0.810988" transform="translate(14.19027 32.60601)" id="Fill-1" fill="#B5B5B5" stroke="none" />
      <path d="M4.76408 0.795465C6.87008 3.67047 3.65908 6.87247 0.790082 4.76047C0.741082 4.72247 0.694082 4.67547 0.657082 4.62347C-1.39592 1.75846 1.76208 -1.39754 4.62708 0.659464C4.67908 0.697465 4.72608 0.744464 4.76408 0.795465" transform="translate(31.87952 32.60543)" id="Fill-3" fill="#B5B5B5" stroke="none" />
      <path d="M8.427 0.062L30.535 0.062C31.069 0.062 31.472 0.545 31.376 1.071L28.966 14.328C28.893 14.735 28.538 15.031 28.124 15.031L4.989 15.031C4.608 15.031 4.273 14.778 4.166 14.413L0 0" transform="translate(10.073 12.9878)" id="Fill-5" fill="#FCD603" stroke="none" />
      <path d="M1.39 1.39C1.54 1.24 1.63 1.03 1.63 0.81C1.63 0.71 1.611 0.6 1.571 0.5C1.531 0.4 1.47 0.32 1.39 0.24C1.321 0.16 1.231 0.0999999 1.13 0.06C0.93 -0.02 0.71 -0.02 0.51 0.06C0.411 0.0999999 0.321 0.16 0.241 0.24C0.17 0.32 0.111 0.4 0.071 0.5C0.021 0.6 0 0.71 0 0.81C0 1.03 0.09 1.24 0.241 1.39C0.321 1.47 0.411 1.52 0.51 1.57C0.611 1.61 0.71 1.63 0.821 1.63C0.93 1.63 1.031 1.61 1.13 1.57C1.231 1.52 1.321 1.47 1.39 1.39" transform="translate(10.5036 20.2257)" id="Fill-7" fill="#5C5C60" stroke="none" />
      <g id="Group-11" transform="translate(0 0.0489)">
        <path d="M0 0L11.5624 0L11.5624 18.5437L0 18.5437L0 0Z" transform="translate(0 0.951)" id="Clip-10" fill="none" stroke="none" />
        <g clip-path="url(#mask_1)">
          <path d="M10.958 18.517C11.392 18.402 11.65 17.956 11.535 17.522L7.156 1.015C6.99 0.417 6.442 0 5.823 0L0.813 0C0.364 0 0 0.365 0 0.814C0 1.263 0.364 1.627 0.813 1.627L5.636 1.627L9.963 17.939C10.06 18.304 10.389 18.544 10.748 18.544C10.817 18.544 10.888 18.536 10.958 18.517" transform="translate(0 0.9507)" id="Fill-9" fill="#5C5C60" stroke="none" />
        </g>
      </g>
      <path d="M29.2612 0.496C28.9972 0.181 28.6112 0 28.2002 0L5.75116 0C5.30216 0 4.93816 0.365 4.93816 0.814C4.93816 1.263 5.30216 1.627 5.75116 1.627L27.9092 1.627L25.4822 14.97L2.28716 14.97L1.59816 12.487C1.47816 12.056 1.03516 11.798 0.596162 11.921C0.163162 12.041 -0.090838 12.49 0.030162 12.923L0.769162 15.583C0.935162 16.18 1.48316 16.597 2.10216 16.597L25.6862 16.597C26.3562 16.597 26.9282 16.118 27.0472 15.459L29.5632 1.629C29.6352 1.224 29.5252 0.811 29.2612 0.496" transform="translate(11.39114 10.525)" id="Fill-12" fill="#5C5C60" stroke="none" />
      <path d="M0 3.536C0 1.586 1.586 0 3.535 0C5.484 0 7.07 1.586 7.07 3.536C7.07 5.485 5.484 7.071 3.535 7.071C1.586 7.071 0 5.485 0 3.536ZM1.627 3.536C1.627 4.588 2.483 5.444 3.535 5.444C4.587 5.444 5.443 4.588 5.443 3.536C5.443 2.484 4.587 1.627 3.535 1.627C2.483 1.627 1.627 2.484 1.627 3.536Z" transform="translate(12.2462 30.9364)" id="Fill-14" fill="#5C5C60" fill-rule="evenodd" stroke="none" />
      <path d="M0 3.536C0 1.586 1.585 0 3.534 0C5.484 0 7.07 1.586 7.07 3.536C7.07 5.485 5.484 7.071 3.534 7.071C1.585 7.071 0 5.485 0 3.536ZM1.627 3.536C1.627 4.588 2.482 5.444 3.534 5.444C4.587 5.444 5.443 4.588 5.443 3.536C5.443 2.484 4.587 1.627 3.534 1.627C2.482 1.627 1.627 2.484 1.627 3.536Z" transform="translate(29.9367 30.9364)" id="Fill-16" fill="#5C5C60" fill-rule="evenodd" stroke="none" />
      <path d="M0.813 8.431C0.364 8.431 0 8.067 0 7.618L0 0.813C0 0.364 0.364 0 0.813 0C1.262 0 1.626 0.364 1.626 0.813L1.626 7.618C1.626 8.067 1.262 8.431 0.813 8.431" transform="translate(20.4116 14.608)" id="Fill-18" fill="#FFFFFF" stroke="none" />
      <path d="M0.813 8.431C0.364 8.431 0 8.067 0 7.618L0 0.813C0 0.364 0.364 0 0.813 0C1.262 0 1.626 0.364 1.626 0.813L1.626 7.618C1.626 8.067 1.262 8.431 0.813 8.431" transform="translate(28.5766 14.608)" id="Fill-20" fill="#FFFFFF" stroke="none" />
    </g>
  </g>
</svg>