<?xml version="1.0" encoding="utf-8"?>
<svg width="87px" height="32px" viewBox="0 0 87 32" version="1.1" xmlns:xlink="http://www.w3.org/1999/xlink" xmlns="http://www.w3.org/2000/svg">
  <desc>Created with Lunacy</desc>
  <g id="icon-hatchback">
    <path d="M5.9883 25.4503L9.16959 25.4503C9.0386 24.9637 8.98246 24.4772 8.98246 23.9532C8.98246 20.6409 11.6585 17.9649 14.9708 17.9649C18.283 17.9649 20.9591 20.6409 20.9591 23.9532C20.9591 24.4772 20.9029 24.9637 20.7719 25.4503L32.9357 25.4503L55.3918 25.4503L61.5673 25.4503C61.4363 24.9637 61.3801 24.4772 61.3801 23.9532C61.3801 20.6409 64.0561 17.9649 67.3684 17.9649C70.6807 17.9649 73.3567 20.6409 73.3567 23.9532C73.3567 24.4772 73.3006 24.9637 73.1696 25.4503L80.8421 25.4503C82.4889 25.4503 83.8363 24.1029 83.8363 22.4561C83.8363 20.8655 83.4433 19.331 82.7322 17.9649C82.6199 17.7778 82.5076 17.5532 82.3953 17.3661C81.4596 15.869 80.131 14.6152 78.4842 13.7918L74.2363 11.6585C70.6994 9.89942 66.8257 8.98246 62.8959 8.98246L55.4105 4.49123L53.0526 3.08772C49.7029 1.06667 45.848 0 41.9368 0L31.4573 0L20.9778 0L11.9953 0L5.37076 6.62456L2.99415 8.98246L2.99415 13.4737L0 16.4678L0 19.462C0 22.7743 2.67602 25.4503 5.9883 25.4503Z" transform="translate(2.245614 3.518129)" id="Path" fill="#FCD603" stroke="none" />
    <g id="Group" transform="translate(10.10526 19.08772)">
      <path d="M0 5.9883C0 6.51228 0.0561404 6.99883 0.187135 7.48538C0.842105 10.0678 3.2 11.9766 5.9883 11.9766C8.77661 11.9766 11.1158 10.0678 11.7895 7.48538C11.9205 6.99883 11.9766 6.51228 11.9766 5.9883C11.9766 2.67602 9.30058 0 5.9883 0C2.67602 0 0 2.67602 0 5.9883Z" transform="translate(52.39766 0)" id="Path" fill="#B5B5B5" stroke="none" />
      <path d="M0 5.9883C0 6.51228 0.0561404 6.99883 0.187135 7.48538C0.842105 10.0678 3.2 11.9766 5.9883 11.9766C8.77661 11.9766 11.1158 10.0678 11.7895 7.48538C11.9205 6.99883 11.9766 6.51228 11.9766 5.9883C11.9766 2.67602 9.30058 0 5.9883 0C2.67602 0 0 2.67602 0 5.9883Z" id="Path" fill="#B5B5B5" stroke="none" />
    </g>
    <path d="M15.1205 9.80585L19.3497 10.124L43.4152 11.9766L47.9064 8.98246L40.4211 4.49123L38.0632 3.08772C34.7135 1.06667 30.8772 0 26.9474 0L16.4678 0L5.9883 0L0 5.9883L4.49123 8.98246L15.1205 9.80585Z" transform="translate(16.09357 1.122807)" id="Path" fill="#FFFFFF" stroke="none" />
    <path d="M0 2.35789L0 6.84912L4.49123 6.84912L7.48538 3.85497L2.35789 0L0 2.35789Z" transform="translate(4.116959 9.244445)" id="Path" fill="#FEF7E7" stroke="none" />
    <path d="M0.561403 4.8655C0.243275 4.8655 0 4.62222 0 4.30409C0 1.92749 1.92748 0 4.30409 0C4.62222 0 4.86549 0.243275 4.86549 0.561404C4.86549 0.879532 4.62222 1.12281 4.30409 1.12281C2.54503 1.12281 1.12281 2.54503 1.12281 4.30409C1.12281 4.62222 0.879532 4.8655 0.561403 4.8655Z" transform="translate(64.72983 21.31462)" id="Path" fill="#FFFFFF" stroke="none" />
    <path d="M0.561403 4.8655C0.243275 4.8655 0 4.62222 0 4.30409C0 1.92749 1.92749 0 4.30409 0C4.62222 0 4.8655 0.243275 4.8655 0.561404C4.8655 0.879532 4.62222 1.12281 4.30409 1.12281C2.54503 1.12281 1.12281 2.54503 1.12281 4.30409C1.12281 4.62222 0.879532 4.8655 0.561403 4.8655Z" transform="translate(12.40702 21.31462)" id="Path" fill="#FFFFFF" stroke="none" />
    <path d="M64.262 30.7649C64.3368 30.8211 66.0585 31.9626 68.4912 31.9626C69.483 31.9626 70.9988 31.7567 72.7018 30.8211C72.7392 30.7836 72.7766 30.7836 72.7953 30.7649C73.8058 30.0164 74.5731 29.0433 75.0596 27.9205L75.1719 27.6959L82.021 27.6959C84.2854 27.6959 86.138 25.8433 86.138 23.5789C86.138 21.8386 85.7076 20.0982 84.9029 18.5637C84.7719 18.3392 84.6409 18.1146 84.5099 17.9088C83.4433 16.2058 81.9275 14.8211 80.1497 13.9228L75.9017 11.7895C72.421 10.0491 68.4538 9.07602 64.4678 9.00117L64.3556 9.00117L54.7743 3.25614C51.2561 1.12281 47.214 0 43.0596 0L12.6503 0L2.99415 9.65614L2.99415 14.1474L0 17.1415L0 20.6035C0 22.5123 0.729825 24.2901 2.07719 25.6374C3.44327 26.9848 5.22105 27.7146 7.11111 27.7146L9.45029 27.7146L9.56257 27.9392C10.0491 29.062 10.8351 30.0351 11.8269 30.7836C11.8456 30.7836 11.8456 30.8023 11.8643 30.8023C12.3883 31.1579 13.8292 31.9626 16.0561 31.9626C18.7509 31.9626 20.3041 30.7836 20.3041 30.7836L20.3228 30.7649L20.3415 30.7649C21.352 30.0351 22.138 29.0433 22.6246 27.9205L22.7368 27.6959L61.8854 27.6959L61.9977 27.9205C62.4842 29.0246 63.2515 30.0164 64.262 30.7649ZM20.9778 9.00117L17.8713 6.94269L22.5684 2.24561L31.738 2.24561L33.9462 9.99298L20.9778 9.00117ZM36.3228 10.1801L59.2094 11.9579L61.9041 10.1614L53.5953 5.16491C50.414 3.25614 46.7649 2.24561 43.0597 2.24561L34.0772 2.24561L36.3228 10.1801ZM16.1123 17.9649C20.0421 17.9649 23.2234 21.1462 23.2234 25.076L23.2234 25.4503L32.7298 25.4503L30.2784 11.9953L20.2292 11.2281L14.3532 7.29825L19.3871 2.26433L13.586 2.26433L8.19649 7.6538L13.324 11.5088L9.09474 15.7193L4.60351 15.7193L2.26433 18.0585L2.26433 20.5848C2.26433 23.2608 4.4538 25.4503 7.12982 25.4503L9.00117 25.4503L9.00117 25.076C9.00117 21.1462 12.1825 17.9649 16.1123 17.9649ZM5.25848 13.4737L5.25848 10.5731L6.58713 9.24444L9.89942 11.7333L8.15907 13.4737L5.25848 13.4737ZM68.5099 17.9649C72.4398 17.9649 75.6211 21.1462 75.6211 25.076L75.6211 25.4503L81.9836 25.4503C83.0129 25.4503 83.855 24.6082 83.855 23.5789C83.855 22.531 83.6491 21.483 83.2561 20.4351C83.2561 20.4164 82.2269 17.0854 79.083 15.8877L74.8538 13.7918C71.6538 12.1825 68.0608 11.3029 64.4678 11.2281L64.3556 11.2281L60.6503 13.6982L60.6503 19.2936L58.1988 25.4503L61.4175 25.4503L61.4175 25.076C61.4175 23.186 62.1474 21.4082 63.476 20.0608C64.8234 18.7135 66.6012 17.9649 68.5099 17.9649ZM35.0316 25.4503L33.3474 16.3368L32.5988 12.1637L58.4047 14.1474L58.4047 18.8819L55.7848 25.4503L35.0316 25.4503ZM11.2468 25.076C11.2468 22.4 13.4363 20.2105 16.1123 20.2105C17.4222 20.2105 18.6386 20.7158 19.5556 21.6515C20.4725 22.5684 20.9778 23.7848 20.9591 25.076C20.9591 25.4503 20.9029 25.8246 20.8094 26.2175L20.8094 26.3111C20.248 28.4444 18.3205 29.9415 16.1123 29.9415C13.8854 29.9415 11.9392 28.4257 11.3965 26.2737C11.3029 25.8807 11.2468 25.5064 11.2468 25.076ZM68.5099 20.2105C65.8339 20.2105 63.6444 22.4 63.6444 25.076C63.6444 25.5064 63.7006 25.8807 63.7942 26.2737C64.3368 28.4257 66.283 29.9415 68.5099 29.9415C70.7181 29.9415 72.6456 28.4444 73.207 26.3111L73.207 26.2175C73.3006 25.8246 73.3567 25.4503 73.3567 25.076C73.3567 23.7848 72.8702 22.5684 71.9532 21.6515C71.0363 20.7158 69.8199 20.2105 68.5099 20.2105Z" id="Shape" fill="#5C5C60" fill-rule="evenodd" stroke="none" />
  </g>
</svg>