<?xml version="1.0" encoding="utf-8"?>
<svg width="32px" height="32px" viewBox="0 0 32 32" version="1.1" xmlns:xlink="http://www.w3.org/1999/xlink" xmlns="http://www.w3.org/2000/svg">
  <desc>Created with Lunacy</desc>
  <defs>
    <path d="M0 0L20.9967 0L20.9967 26.4137L0 26.4137L0 0Z" transform="translate(0.3399344 0.1479853)" id="path_1" />
    <clipPath id="mask_1">
      <use xlink:href="#path_1" />
    </clipPath>
  </defs>
  <g id="iconografia/marca/on/persona">
    <g id="Group-18" transform="translate(4 2)">
      <g id="Group-9" transform="translate(2 1.547333)">
        <path d="M0 0L20.9967 0L20.9967 26.4137L0 26.4137L0 0Z" transform="translate(0.3399344 0.1479853)" id="Clip-8" fill="none" stroke="none" />
        <g clip-path="url(#mask_1)">
          <path d="M20.9935 25.7804L20.2209 18.8291C20.1975 18.6204 20.0615 18.4411 19.8662 18.3631L17.5769 17.4471C16.4369 16.9911 15.5522 16.0604 15.1535 14.8984L14.4209 12.7564C16.1922 11.4771 17.3455 9.39641 17.3455 7.04375C17.3455 2.98441 13.9142 -0.270252 9.79487 0.017748C6.34953 0.259748 3.5522 3.03308 3.2822 6.47641C3.0882 8.94908 4.17353 11.1771 5.94487 12.5751L5.38487 15.7651C5.2802 16.3637 4.87153 16.8664 4.30753 17.0917L1.13087 18.3631C0.934866 18.4411 0.799532 18.6204 0.776199 18.8291L0.498199 21.3311L0.0701989 24.7437L0.00353227 25.7804C-0.0338011 26.1184 0.229532 26.4137 0.569532 26.4137L20.4262 26.4137C20.7662 26.4137 21.0309 26.1184 20.9935 25.7804" transform="translate(0.3399344 0.1479853)" id="Fill-7" fill="#FCD603" stroke="none" />
        </g>
      </g>
      <path d="M0.16 0.928408C0.259333 1.02841 0.406667 1.08174 0.546667 1.08174C0.686667 1.08174 0.826667 1.02841 0.926 0.928408C1.02667 0.821741 1.08667 0.681741 1.08667 0.541741C1.08667 0.401742 1.02667 0.261742 0.926 0.155075C0.773333 0.00840828 0.539333 -0.044925 0.34 0.0417416C0.273333 0.0684083 0.213333 0.108408 0.16 0.155075C0.06 0.261742 0 0.401742 0 0.541741C0 0.615075 0.0126667 0.681741 0.0393333 0.748408C0.0733333 0.815075 0.113333 0.875075 0.16 0.928408" transform="translate(0.9547334 23.00659)" id="Fill-53" fill="#5C5C60" stroke="none" />
      <path d="M15.1707 7.58533C15.1707 11.768 11.768 15.1713 7.586 15.1713C3.40333 15.1713 0 11.768 0 7.58533C0 3.40333 3.40333 0 7.586 0C11.768 0 15.1707 3.40333 15.1707 7.58533ZM14.086 7.58533C14.086 4.00133 11.17 1.08467 7.586 1.08467C4.00133 1.08467 1.08467 4.00133 1.08467 7.58533C1.08467 11.17 4.00133 14.0867 7.586 14.0867C11.17 14.0867 14.086 11.17 14.086 7.58533Z" transform="translate(3.916734 0.01313333)" id="Fill-55" fill="#5C5C60" fill-rule="evenodd" stroke="none" />
      <path d="M0.482737 5.68431C0.502737 5.68631 0.523403 5.68764 0.543403 5.68764C0.81607 5.68764 1.05074 5.48231 1.0814 5.20498L1.37674 2.68031L5.46207 1.04564C5.74074 0.934311 5.8754 0.618978 5.76407 0.340978C5.65274 0.0629776 5.3354 -0.0723557 5.0594 0.0389776L0.973403 1.67298C0.591403 1.82631 0.326737 2.17564 0.28207 2.58364L0.00340316 5.08564C-0.0299302 5.38298 0.185403 5.65098 0.482737 5.68431" transform="translate(1.15413 16.74096)" id="Fill-57" fill="#5C5C60" stroke="none" />
      <path d="M22.0747 9.53431L21.3034 2.58298C21.2574 2.17364 20.9921 1.82564 20.61 1.67298L16.5254 0.0389776C16.2487 -0.0723557 15.932 0.0629776 15.8207 0.340978C15.7094 0.618978 15.844 0.934978 16.1227 1.04631L20.2254 2.70298L20.9694 9.68498L1.08738 9.62965L1.15472 8.59298C1.17405 8.29431 0.948049 8.03565 0.648716 8.01698C0.360716 7.99231 0.0920491 8.22365 0.0727158 8.52231L0.00671576 9.53431C-0.0279509 9.84765 0.0727158 10.163 0.282716 10.3983C0.494049 10.6343 0.796716 10.7696 1.11338 10.7696L20.9694 10.7696C21.286 10.7696 21.5887 10.6336 21.7994 10.3976C22.01 10.1616 22.1107 9.84698 22.0747 9.53431" transform="translate(0.6565509 16.74122)" id="Fill-59" fill="#5C5C60" stroke="none" />
    </g>
  </g>
</svg>