<?xml version="1.0" encoding="utf-8"?>
<svg width="83px" height="34px" viewBox="0 0 83 34" version="1.1" xmlns:xlink="http://www.w3.org/1999/xlink" xmlns="http://www.w3.org/2000/svg">
  <desc>Created with Lunacy</desc>
  <g id="Camioneta">
    <path d="M77.4428 7.19577C77.4428 6.83598 77.4069 6.08042 77.3531 5.75661C76.887 3.22011 74.7538 1.24127 72.1006 1.04339L60.2333 0L55.9309 2.87831L32.9849 2.87831L15.7754 2.87831L7.08099 2.87831L0 2.87831L0 12.9524C0 16.1365 2.5635 18.709 5.7365 18.709L8.78402 18.709C8.65853 18.2413 8.60475 17.7735 8.60475 17.2698C8.60475 14.0857 11.1683 11.5132 14.3413 11.5132C14.8432 11.5132 15.3093 11.5672 15.7754 11.6931C18.2492 12.3228 20.0778 14.5894 20.0778 17.2698C20.0778 17.7735 20.024 18.2413 19.8985 18.709L32.9849 18.709L53.0626 18.709L58.9784 18.709C58.8529 18.2413 58.7991 17.7735 58.7991 17.2698C58.7991 17.072 58.8171 16.8741 58.835 16.6762C58.8529 16.4963 58.8708 16.2984 58.9246 16.1185C58.9605 15.9386 59.0143 15.7407 59.068 15.5608C59.1756 15.2011 59.319 14.8772 59.4983 14.5354C59.6058 14.3376 59.7313 14.1397 59.8747 13.9418C59.9106 13.8698 59.9823 13.7979 60.0361 13.7259C60.1616 13.546 60.3229 13.3661 60.5022 13.1862C60.6814 13.0063 60.8428 12.8624 61.04 12.7185C61.1117 12.6645 61.1834 12.6106 61.2551 12.5566C61.4343 12.4127 61.6495 12.3048 61.8466 12.1788C62.1693 11.9989 62.5099 11.855 62.8685 11.7471C63.0477 11.6931 63.2449 11.6392 63.4242 11.6032C63.6035 11.5672 63.8006 11.5312 63.9799 11.5132C64.1592 11.4952 64.3384 11.4772 64.5177 11.4772C64.697 11.4772 64.8762 11.4952 65.0555 11.5132C65.1631 11.5132 65.3065 11.5312 65.414 11.5492C65.432 11.5492 65.432 11.5492 65.4499 11.5492C65.7188 11.5852 66.0056 11.6571 66.2745 11.7291C66.3821 11.7471 66.4896 11.7831 66.5972 11.819C67.7624 12.2148 68.7125 13.0063 69.34 14.0138C69.4475 14.1757 69.5371 14.3376 69.6268 14.4815C69.806 14.8053 69.9495 15.1111 70.0391 15.4529C70.057 15.4709 70.057 15.4889 70.057 15.5069C70.0929 15.6148 70.1287 15.7407 70.1466 15.8487C70.1646 15.8667 70.1646 15.8847 70.1646 15.8847C70.2004 15.9926 70.2184 16.1185 70.2363 16.2265C70.2721 16.3884 70.2901 16.5503 70.2901 16.7302C70.3259 16.8921 70.3259 17.054 70.3259 17.2159C70.3259 17.7016 70.2721 18.1693 70.1466 18.619L77.4965 18.619C79.0741 18.619 80.3648 17.3238 80.3648 15.7407L80.3648 9.98413C80.311 8.491 79.0203 7.19577 77.4428 7.19577Z" transform="translate(2.509719 11.87302)" id="Path" fill="#FCD603" stroke="none" />
    <path d="M2.03801e-14 5.70264C2.03801e-14 6.20635 0.0537797 6.67407 0.179266 7.1418C0.806696 9.62434 3.06544 11.4593 5.7365 11.4593C8.40756 11.4593 10.6484 9.62434 11.2937 7.1418C11.4192 6.67407 11.473 6.22434 11.473 5.73862C11.473 5.55873 11.473 5.41481 11.4372 5.25291C11.4372 5.07301 11.4013 4.91111 11.3834 4.74921C11.3654 4.64127 11.3475 4.51534 11.3117 4.40741C11.3117 4.38942 11.3117 4.37143 11.2937 4.37143C11.2758 4.26349 11.2579 4.13757 11.2041 4.02963C11.2041 4.01164 11.2041 3.99365 11.1862 3.97566C11.0786 3.63386 10.9352 3.31005 10.7739 3.00423C10.6842 2.84233 10.5946 2.68042 10.487 2.53651C9.75205 1.45714 8.69439 0.629629 7.43953 0.251852C7.17063 0.161905 6.8838 0.0899471 6.6149 0.0719577C6.59698 0.0719577 6.59698 0.0719577 6.57905 0.0719577C6.47149 0.0359788 6.32808 0.0359788 6.22052 0.0359788C6.04125 0.0179894 5.86199 0 5.68272 0C5.50346 0 5.32419 0.0179894 5.14493 0.0359788C4.96566 0.0539682 4.76847 0.0719577 4.5892 0.125926C4.40994 0.179894 4.21274 0.215873 4.03348 0.269841C3.67495 0.377778 3.35227 0.521693 3.01166 0.701587C2.81447 0.809524 2.61728 0.93545 2.42009 1.07936C2.34838 1.11534 2.27667 1.1873 2.20497 1.24127C2.0257 1.3672 1.84644 1.5291 1.66717 1.70899C1.48791 1.88889 1.34449 2.05079 1.20108 2.24868C1.1473 2.32063 1.09352 2.39259 1.03974 2.46455C0.896328 2.64444 0.788769 2.86032 0.663283 3.0582C0.484017 3.38201 0.340605 3.72381 0.233045 4.0836C0.179266 4.26349 0.125486 4.46137 0.0896328 4.64127C0.0537797 4.82116 0.0179266 5.01905 0 5.19894C0.0179266 5.30688 2.03801e-14 5.50476 2.03801e-14 5.70264Z" transform="translate(59.87473 21.28148)" id="Path" fill="#B5B5B5" stroke="none" />
    <path d="M0 5.75661C0 6.26032 0.0537797 6.72804 0.179266 7.19577C0.806695 9.6783 3.06544 11.5132 5.7365 11.5132C8.40756 11.5132 10.6484 9.6783 11.2937 7.19577C11.4192 6.72804 11.473 6.26032 11.473 5.75661C11.473 3.07619 9.64449 0.827513 7.17063 0.179894C6.70454 0.0539682 6.23844 0 5.7365 0C2.5635 0 0 2.57249 0 5.75661Z" transform="translate(9.680346 21.22751)" id="Path" fill="#B5B5B5" stroke="none" />
    <path d="M15.7754 11.5132L32.9849 11.5132L55.9309 11.5132L60.2333 8.63492L53.0626 4.31746L50.8039 2.96825C47.595 1.0254 43.9201 0 40.1555 0L31.5508 0L18.6436 0L6.07711 0C4.98359 0 3.99762 0.61164 3.51361 1.58307L0 8.63492L0 10.0741L0 11.5132L7.08099 11.5132L15.7754 11.5132Z" transform="translate(1.075594 1.079365)" id="Path" fill="#FFFFFF" stroke="none" />
    <path d="M0.537797 4.67725C0.233045 4.67725 0 4.44339 0 4.13757C0 1.85291 1.84644 0 4.12311 0C4.42786 0 4.66091 0.233862 4.66091 0.539682C4.66091 0.845503 4.42786 1.07936 4.12311 1.07936C2.43801 1.07936 1.07559 2.44656 1.07559 4.13757C1.07559 4.44339 0.842549 4.67725 0.537797 4.67725Z" transform="translate(11.52678 23.02645)" id="Path" fill="#FFFFFF" stroke="none" />
    <path d="M0.537797 4.67725C0.233045 4.67725 0 4.44339 0 4.13757C0 1.85291 1.84644 0 4.12311 0C4.42786 0 4.66091 0.233862 4.66091 0.539682C4.66091 0.845503 4.42786 1.07936 4.12311 1.07936C2.43801 1.07936 1.07559 2.44656 1.07559 4.13757C1.07559 4.44339 0.842549 4.67725 0.537797 4.67725Z" transform="translate(61.79287 23.02645)" id="Path" fill="#FFFFFF" stroke="none" />
    <path d="M65.6112 33.8381C63.0657 33.8381 61.6315 32.4889 61.6136 32.4889L61.5957 32.4709L61.5778 32.4529C60.6097 31.7333 59.8568 30.7799 59.3907 29.7185L59.3011 29.5026L21.7629 29.5026L21.6732 29.7185C21.2251 30.7799 20.4721 31.7333 19.4862 32.4529C19.4683 32.4709 17.7473 33.6942 15.3989 33.6942C13.0326 33.6942 11.3834 32.4709 11.3654 32.4529C10.3974 31.7333 9.64449 30.7799 9.1784 29.7185L9.08877 29.5026L6.8121 29.5026C3.04752 29.5026 0 26.4444 0 22.6667L0 9.46243L3.62117 2.19471C4.28445 0.845503 5.64687 0 7.1527 0L41.249 0C45.2108 0 49.1009 1.07937 52.4711 3.11217L61.6853 8.65291L73.3197 9.67831C76.403 9.89418 78.9486 12.1968 79.5222 15.273C79.5402 15.381 79.5581 15.5429 79.576 15.7048L79.594 15.9386L79.8091 16.0286C81.4045 16.5683 82.4801 18.0794 82.4801 19.7704L82.4801 25.527C82.4801 27.7037 80.7054 29.4847 78.5363 29.4847L71.9572 29.4847L71.8676 29.7005C71.4194 30.7619 70.6665 31.7153 69.6806 32.4349L69.6447 32.4709C69.6447 32.4889 68.1568 33.8381 65.6112 33.8381ZM56.6659 11.4952L35.0106 11.4952L33.8454 2.14074L41.2311 2.15873C44.7985 2.15873 48.2942 3.13016 51.3417 4.96508L59.3011 9.75026L56.6659 11.4952ZM7.1527 2.15873C6.47149 2.15873 5.86199 2.53651 5.53931 3.14815L2.15119 9.96614L2.15119 11.5132L16.0264 11.5132L18.3568 2.15873L7.1527 2.15873ZM32.8235 11.5132L18.2134 11.5132L20.5618 2.15873L31.6583 2.15873L32.8235 11.5132ZM72.2978 25.7968C72.2799 25.7249 72.262 25.6349 72.2441 25.527L72.1724 25.0233L72.011 24.5915C71.9214 24.3397 71.778 24.0519 71.6166 23.728C71.5091 23.5302 71.4015 23.3503 71.3298 23.2603C71.3119 23.2423 71.276 23.1884 71.2402 23.1344L71.2223 23.1164L71.2043 23.0804C70.3797 21.8571 69.2503 20.9937 67.8521 20.5079C67.8162 20.4899 67.7624 20.4899 67.7266 20.472L67.5652 20.418C67.1888 20.3101 66.884 20.2561 66.6151 20.2201L66.5793 20.2201C66.4179 20.1841 66.2745 20.1661 66.2207 20.1661L66.1849 20.1661C65.9877 20.1481 65.7726 20.1481 65.5754 20.1481C65.3603 20.1481 65.1631 20.1481 64.93 20.1661C64.6253 20.1841 64.446 20.2381 64.3743 20.2561L64.3205 20.2741L64.2667 20.2741L64.1054 20.3101C63.9261 20.346 63.7469 20.4 63.5676 20.454C63.1911 20.5619 62.7968 20.7418 62.3486 20.9757L62.1873 21.0836C62.0259 21.1915 61.8646 21.2815 61.7032 21.4074C61.6495 21.4434 61.5957 21.4794 61.5598 21.5153C61.524 21.5333 61.5061 21.5513 61.5061 21.5513L61.4881 21.5693L61.4702 21.5873C61.2551 21.7492 61.0041 21.9651 60.789 22.181C60.6994 22.2709 60.3946 22.5767 60.287 22.7566L60.2691 22.7746L60.2153 22.8286C60.1436 22.9005 60.0899 22.9905 60.054 23.0444L60.0361 23.0624L60.0181 23.0804C59.8747 23.2783 59.7492 23.5122 59.5879 23.782C59.3728 24.1958 59.1935 24.5915 59.068 24.9873C59.0143 25.1492 58.9605 25.3291 58.9246 25.509L58.9067 25.5989C58.8529 25.8328 58.7991 26.0847 58.7812 26.3905L58.7812 26.4444C58.7633 26.6423 58.7454 26.8222 58.7454 27.0021L58.7454 27.3619L55.662 27.3619L58.0283 21.4434L58.0283 13.1683L61.5419 10.8116L73.1225 11.855C75.1302 11.981 76.8153 13.4201 77.3173 15.3989L77.3173 15.4349L77.4248 18.0074L78.5184 18.0074C79.5043 18.0074 80.311 18.8169 80.311 19.8063L80.311 25.563C80.311 26.5524 79.5043 27.3619 78.5184 27.3619L72.4233 27.3619L72.4233 27.0021C72.4233 26.8222 72.4233 26.6423 72.3875 26.4804L72.3875 26.4085C72.3875 26.2286 72.3516 26.0487 72.3158 25.9228C72.3158 25.8868 72.2978 25.8508 72.2978 25.7968ZM2.15119 22.6667C2.15119 25.2392 4.2486 27.3439 6.8121 27.3439L8.60475 27.3439L8.60475 26.9841C8.60475 23.2064 11.6523 20.1481 15.4168 20.1481L15.7754 20.1481L15.7754 13.672L2.15119 13.672L2.15119 22.6667ZM21.3685 23.7101C21.3147 23.6381 21.2788 23.5661 21.243 23.4942C21.1533 23.3143 21.0458 23.1704 20.9203 23.0265C20.8845 22.9905 20.8665 22.9545 20.8307 22.9185C20.759 22.8286 20.7052 22.7386 20.6335 22.6667L20.6156 22.6487C20.4901 22.5048 20.3825 22.3788 20.257 22.2529C20.2391 22.2169 20.2032 22.181 20.1674 22.145C20.0778 22.037 20.006 21.9651 19.9164 21.8931L19.8985 21.8751C19.8447 21.8392 19.7909 21.7852 19.7372 21.7492C19.6475 21.6772 19.5758 21.6233 19.4862 21.5333L19.4324 21.4974C19.3069 21.4074 19.1814 21.3175 19.0739 21.2455C18.9484 21.1735 18.7691 21.0836 18.5898 20.9937C18.554 20.9757 18.5002 20.9397 18.4644 20.9217C18.3568 20.8497 18.2672 20.7958 18.1775 20.7598C18.0341 20.7058 17.9266 20.5619 17.9266 20.4L17.9086 13.672L32.967 13.672L32.967 27.3439L22.211 27.3439L22.211 26.9841C22.211 26.6423 22.1752 26.3005 22.1214 25.8868C22.1214 25.7968 22.0855 25.6889 22.0497 25.581L22.0497 25.545C21.9959 25.2931 21.9421 25.0772 21.8883 24.8794C21.8346 24.7355 21.7808 24.6095 21.727 24.4836L21.727 24.4656C21.6553 24.2857 21.5836 24.1058 21.476 23.9079C21.4402 23.836 21.4043 23.782 21.3685 23.7101ZM35.1361 27.3439L53.4212 27.3439L55.9309 21.0296L55.9309 13.672L35.1361 13.672L35.1361 27.3439ZM15.4168 22.3069C12.8533 22.3069 10.7559 24.4116 10.7559 26.9841C10.7559 27.4159 10.8097 27.7937 10.8994 28.1175C11.4371 30.2042 13.3015 31.6614 15.4168 31.6614C17.5322 31.6614 19.3607 30.2402 19.9164 28.2074C19.9343 28.1714 19.9523 28.1175 19.9523 28.0635C20.024 27.7757 20.0778 27.4159 20.0778 26.9841C20.0778 24.8434 18.6436 22.9905 16.6179 22.4688C16.5821 22.4508 16.5462 22.4508 16.5104 22.4328C16.1877 22.3429 15.8292 22.3069 15.4168 22.3069ZM62.2769 23.6741C62.4024 23.5122 62.5279 23.4042 62.6892 23.3143L62.9939 23.1524C63.1194 23.0624 63.2449 22.9905 63.3346 22.9365C63.3525 22.9185 63.4242 22.8825 63.4242 22.8825C63.6931 22.7566 63.9441 22.6307 64.2488 22.5407C64.4101 22.4868 64.5715 22.4508 64.7328 22.4148C64.8404 22.3788 64.9479 22.3608 65.0376 22.3608C65.0734 22.3429 65.1093 22.3429 65.1451 22.3429L65.3065 22.3429C65.3603 22.3249 65.414 22.3249 65.4678 22.3249C65.6112 22.3249 65.7905 22.3249 66.149 22.3429L66.167 22.3429L66.4538 22.3788C66.633 22.4148 66.7944 22.4508 66.9557 22.5048L67.0274 22.5228C68.0313 22.8286 68.8918 23.4942 69.5371 24.4296C69.6089 24.5556 69.6806 24.6635 69.7343 24.7894C69.8419 25.0233 69.9315 25.2032 70.0032 25.4011L70.0929 25.7069L70.2184 26.3005L70.2184 26.4085C70.2363 26.4444 70.2363 26.4984 70.2363 26.5344L70.2542 26.7503C70.2667 26.8129 70.2618 26.8668 70.2577 26.9122C70.2559 26.9318 70.2542 26.9498 70.2542 26.9661L70.2542 27.0021C70.308 27.3799 70.2901 27.7217 70.1825 28.0995C70.1646 28.1354 70.1646 28.1714 70.1467 28.2074C69.6268 30.2582 67.7803 31.6794 65.6471 31.6794C63.5317 31.6794 61.6674 30.2222 61.1296 28.1354C61.04 27.8116 60.9862 27.4339 60.9862 27.0021L60.9862 26.7862C61.0041 26.6963 61.0041 26.6243 61.0041 26.5164C61.0041 26.4085 61.022 26.3005 61.04 26.2106C61.04 26.1746 61.0579 26.1566 61.0579 26.1206L61.0579 26.0847L61.1117 25.8688C61.1296 25.7788 61.1475 25.7069 61.1654 25.6349L61.1654 25.6169C61.2551 25.3471 61.3626 25.0772 61.4881 24.8074L61.4881 24.7714C61.506 24.7175 61.5419 24.6815 61.5598 24.6455C61.6136 24.5376 61.7032 24.3937 61.8466 24.1958L61.9721 24.0519C62.0438 23.9439 62.1156 23.854 62.1873 23.782C62.2231 23.746 62.241 23.7101 62.2769 23.6741Z" transform="translate(0.01792657 0)" id="Shape" fill="#5C5C60" fill-rule="evenodd" stroke="none" />
  </g>
</svg>