<?xml version="1.0" encoding="UTF-8"?>
<svg width="40px" height="40px" viewBox="0 0 40 40" version="1.1" xmlns="http://www.w3.org/2000/svg" xmlns:xlink="http://www.w3.org/1999/xlink">
    <!-- Generator: Sketch 62 (91390) - https://sketch.com -->
    <title>icon-drive-01</title>
    <desc>Created with Sketch.</desc>
    <g id="MARKETPLACE-DESK" stroke="none" stroke-width="1" fill="none" fill-rule="evenodd">
        <g id="17---Agendamiento-1" transform="translate(-1047.000000, -530.000000)" fill-rule="nonzero">
            <g id="Group-2" transform="translate(679.000000, 335.000000)">
                <g id="Group-4" transform="translate(64.000000, 143.000000)">
                    <g id="B" transform="translate(213.000000, 0.000000)">
                        <g id="icon-drive-01" transform="translate(91.000000, 52.000000)">
                            <path d="M20,0 C9.5,0 1,8.29268293 1,18.5365854 C1,28.7804878 9.5,37.0731707 20,37.0731707 C30.5,37.0731707 39,28.7804878 39,18.5365854 C39,8.29268293 30.5,0 20,0 Z M20,33.1707317 C11.7,33.1707317 5,26.6341463 5,18.5365854 C5,10.4390244 11.7,3.90243902 20,3.90243902 C28.3,3.90243902 35,10.4390244 35,18.5365854 C35,26.6341463 28.3,33.1707317 20,33.1707317 Z" id="Shape" fill="#FCD603"></path>
                            <path d="M34.3,17.9512195 C33.4,17.8536585 28.6,16.5853659 20,16.5853659 C11.4,16.5853659 6.6,17.8536585 5.7,17.9512195 C5.2,19.3170732 5,20.6829268 5,22.1463415 C5,22.5365854 5,22.8292683 5,23.2195122 C5.8,23.2195122 7.4,23.4146341 9.2,24.097561 C12.9,25.4634146 15.7,28.3902439 16.9,32 C17.2,33.1707317 17.4,34.8292683 17.4,35.4146341 C17.4,35.6097561 17.4,35.804878 17.4,36 C18.2,36.097561 19.1,36.195122 20,36.195122 C20.9,36.195122 21.8,36.097561 22.6,36 C22.6,35.804878 22.6,35.6097561 22.6,35.4146341 C22.6,34.8292683 22.7,33.4634146 23.1,32 C24.2,28.3902439 27.1,25.5609756 30.8,24.097561 C32.4,23.5121951 34.1,23.3170732 35,23.2195122 C35,22.8292683 35,22.5365854 35,22.1463415 C35,20.6829268 34.8,19.3170732 34.3,17.9512195 Z M20.7,24.097561 C19.4,24.097561 18.3,23.1219512 18.3,21.8536585 C18.3,20.5853659 19.4,19.6097561 20.7,19.6097561 C22,19.6097561 23.1,20.5853659 23.1,21.8536585 C23.1,23.0243902 22,24.097561 20.7,24.097561 Z" id="Shape" fill="#FCD603"></path>
                            <path d="M34.1,6.73170732 C30.4,3.02439024 25.3,0.975609756 20,0.975609756 C15.9,0.975609756 12,2.14634146 8.7,4.3902439 C8.3,4.58536585 8.3,5.07317073 8.5,5.46341463 C8.7,5.85365854 9.2,5.85365854 9.6,5.65853659 C12.7,3.6097561 16.3,2.53658537 20,2.53658537 C30.2,2.53658537 38.4,10.6341463 38.4,20.4878049 C38.4,30.3414634 30.2,38.4390244 20,38.4390244 C9.8,38.4390244 1.6,30.4390244 1.6,20.4878049 C1.6,16.8780488 2.7,13.2682927 4.8,10.3414634 C5,9.95121951 5,9.46341463 4.6,9.26829268 C4.2,9.07317073 3.8,9.07317073 3.5,9.46341463 C1.2,12.6829268 0,16.4878049 0,20.4878049 C0,25.6585366 2.1,30.6341463 5.9,34.2439024 C9.6,37.9512195 14.7,40 20,40 C25.3,40 30.4,37.9512195 34.1,34.2439024 C37.9,30.6341463 40,25.6585366 40,20.4878049 C40,15.3170732 37.9,10.3414634 34.1,6.73170732 L34.1,6.73170732 Z" id="Path" fill="#5C5C60"></path>
                            <path d="M20,36.195122 C28.9,36.195122 36.1,29.1707317 36.1,20.4878049 C36.1,18.7317073 35.8,16.9756098 35.2,15.3170732 C35.2,15.3170732 35.2,15.3170732 35.2,15.3170732 C33,9.17073171 27,4.7804878 20,4.7804878 C11.1,4.7804878 3.9,11.804878 3.9,20.4878049 C3.9,29.1707317 11.1,36.195122 20,36.195122 Z M34.5,20.4878049 C34.5,20.8780488 34.5,21.1707317 34.5,21.5609756 C33.7,21.5609756 32.9,21.7560976 32.1,21.9512195 C32.4,19.902439 32,17.7560976 31.2,15.804878 C32.1,16 33,16.097561 33.9,16.2926829 C34.3,17.5609756 34.5,19.0243902 34.5,20.4878049 L34.5,20.4878049 Z M29.3,15.5121951 C30.5,17.6585366 30.9,20.097561 30.4,22.4390244 C26.8,23.804878 24.1,26.8292683 23,30.4390244 C21,31.0243902 18.9,31.0243902 17,30.4390244 C15.9,26.8292683 13.1,23.902439 9.6,22.4390244 C9.1,20.097561 9.5,17.5609756 10.7,15.5121951 C13.8,15.1219512 16.9,14.8292683 20,14.8292683 C23.1,14.8292683 26.2,15.0243902 29.3,15.5121951 Z M7.9,21.9512195 C7.1,21.7560976 6.3,21.6585366 5.5,21.5609756 C5.5,21.1707317 5.5,20.8780488 5.5,20.4878049 C5.5,19.0243902 5.7,17.5609756 6.2,16.2926829 C7.1,16.097561 8,15.902439 8.9,15.804878 C8,17.6585366 7.6,19.804878 7.9,21.9512195 Z M5.7,23.1219512 C11.4,23.5121951 15.9,28.195122 15.9,33.9512195 C15.9,34.0487805 15.9,34.0487805 15.9,34.1463415 C10.7,32.5853659 6.7,28.3902439 5.7,23.1219512 Z M17.5,34.4390244 C17.5,34.2439024 17.5,34.0487805 17.5,33.8536585 C17.5,33.2682927 17.5,32.6829268 17.4,32.097561 C18.3,32.2926829 19.2,32.3902439 20,32.3902439 C20.9,32.3902439 21.8,32.2926829 22.6,32.097561 C22.5,32.6829268 22.5,33.2682927 22.5,33.8536585 C22.5,34.0487805 22.5,34.2439024 22.5,34.4390244 C21.7,34.5365854 20.8,34.6341463 20,34.6341463 C19.1,34.6341463 18.3,34.6341463 17.5,34.4390244 L17.5,34.4390244 Z M24.1,34.1463415 C24.1,34.0487805 24.1,34.0487805 24.1,33.9512195 C24.1,28.2926829 28.6,23.6097561 34.3,23.1219512 C33.3,28.3902439 29.3,32.5853659 24.1,34.1463415 L24.1,34.1463415 Z M20,6.34146341 C25.9,6.34146341 30.9,9.75609756 33.2,14.6341463 C28.9,13.7560976 24.4,13.3658537 20,13.3658537 C15.6,13.3658537 11.1,13.7560976 6.8,14.6341463 C9.1,9.65853659 14.1,6.34146341 20,6.34146341 Z" id="Shape" fill="#5C5C60"></path>
                            <path d="M6.4,8 C6.6,8 6.8,7.90243902 7,7.80487805 C7.3,7.51219512 7.3,7.02439024 7,6.73170732 C6.7,6.43902439 6.2,6.43902439 5.9,6.73170732 L5.9,6.73170732 C5.6,7.02439024 5.6,7.51219512 5.9,7.80487805 C6,7.90243902 6.2,8 6.4,8 Z" id="Path" fill="#5C5C60"></path>
                            <path d="M16.1,20.4878049 C16.1,22.6341463 17.9,24.2926829 20,24.2926829 C22.1,24.2926829 23.9,22.5365854 23.9,20.4878049 C23.9,18.4390244 22.1,16.6829268 20,16.6829268 C17.9,16.6829268 16.1,18.3414634 16.1,20.4878049 Z M20,18.2439024 C21.3,18.2439024 22.3,19.3170732 22.3,20.4878049 C22.3,21.6585366 21.2,22.7317073 20,22.7317073 C18.8,22.7317073 17.7,21.6585366 17.7,20.4878049 C17.7,19.3170732 18.7,18.2439024 20,18.2439024 Z" id="Shape" fill="#5C5C60"></path>
                            <ellipse id="Oval" fill="#B5B5B5" cx="20" cy="20.4878049" rx="2.4" ry="2.24390244"></ellipse>
                        </g>
                    </g>
                </g>
            </g>
        </g>
    </g>
</svg>