<?xml version="1.0" encoding="utf-8"?>
<svg width="32px" height="32px" viewBox="0 0 32 32" version="1.1" xmlns:xlink="http://www.w3.org/1999/xlink" xmlns="http://www.w3.org/2000/svg">
  <desc>Created with Lunacy</desc>
  <defs>
    <path d="M0 0L20.3197 0L20.3197 25.6936L0 25.6936L0 0Z" transform="translate(0.6122666 0.3064)" id="path_1" />
    <path d="M0 0L22.3939 0L22.3939 27.6807L0 27.6807L0 0Z" transform="translate(0 0.5526667)" id="path_2" />
    <clipPath id="mask_1">
      <use xlink:href="#path_1" />
    </clipPath>
    <clipPath id="mask_2">
      <use xlink:href="#path_2" />
    </clipPath>
  </defs>
  <g id="iconografia/marca/Perfil-y-configuraciones/Seguridad/on">
    <g id="Group-15" transform="translate(4.666667 1.333333)">
      <g id="Group-3" transform="translate(2 2.780867)">
        <path d="M0 0L20.3197 0L20.3197 25.6936L0 25.6936L0 0Z" transform="translate(0.6122666 0.3064)" id="Clip-2" fill="none" stroke="none" />
        <g clip-path="url(#mask_1)">
          <path d="M20.32 10.7473C20.32 14.0127 19.348 17.1573 17.51 19.84C15.7133 22.46 13.2147 24.4767 10.2833 25.6693C10.204 25.702 10.116 25.702 10.0367 25.6693C7.10533 24.4767 4.60667 22.46 2.81067 19.84C0.972 17.1573 0 14.0127 0 10.7473L0 3.12733C0 2.986 0.0953333 2.85933 0.230667 2.81867L9.432 0.105333C9.67 0.0353333 9.91533 0 10.16 0C10.4047 0 10.65 0.0353333 10.888 0.105333L20.0893 2.81867C20.2247 2.85933 20.32 2.986 20.32 3.12733L20.32 10.7473Z" transform="translate(0.6122666 0.3064)" id="Fill-1" fill="#FCD603" stroke="none" />
        </g>
      </g>
      <g id="Group-6" transform="translate(0 0.1142)">
        <path d="M0 0L22.3939 0L22.3939 27.6807L0 27.6807L0 0Z" transform="translate(0 0.5526667)" id="Clip-5" fill="none" stroke="none" />
        <g clip-path="url(#mask_2)">
          <path d="M22.394 11.77C22.394 15.228 21.3653 18.5587 19.418 21.4007C17.512 24.1747 14.864 26.31 11.762 27.5727C11.5827 27.6453 11.3967 27.6807 11.1933 27.6807C10.9953 27.6807 10.7993 27.644 10.626 27.5727C7.52933 26.312 4.884 24.1773 2.976 21.4C2.84133 21.2047 2.71133 21.0067 2.58533 20.806C2.46867 20.6193 2.30533 20.422 2.30533 20.192C2.30533 19.8833 2.556 19.6327 2.86467 19.6327C3.12533 19.6327 3.262 19.7867 3.38533 19.9913C3.53733 20.248 3.70533 20.5007 3.868 20.7447L3.888 20.774C5.67067 23.3767 8.144 25.3733 11.0373 26.5487C11.1387 26.5933 11.2493 26.5933 11.346 26.55C14.2467 25.3753 16.7227 23.378 18.506 20.774C20.3273 18.1207 21.2907 15.0073 21.2907 11.77L21.2907 4.26133C21.2907 4.08533 21.168 3.92467 21.002 3.882L11.9387 1.206C11.4547 1.058 10.9467 1.05667 10.4567 1.20533L1.39467 3.88133C1.226 3.92467 1.104 4.08533 1.104 4.26133L1.104 11.77C1.104 13.0793 1.268 14.3993 1.59533 15.7047C1.60733 15.7353 1.61333 15.766 1.61867 15.7967C1.62533 15.8347 1.632 15.8713 1.632 15.9093C1.632 16.218 1.38133 16.4687 1.07333 16.4687C0.854 16.4687 0.654 16.3393 0.559333 16.13C0.546 16.0693 0.532667 16.0153 0.518667 15.96C0.174667 14.6127 0 13.2027 0 11.77L0 4.26133C0 3.602 0.442 3.00933 1.07467 2.82133L10.1467 0.152C10.83 -0.0506667 11.5573 -0.0506667 12.248 0.152L21.3113 2.82133C21.9493 3.01067 22.394 3.60333 22.394 4.26133L22.394 11.77Z" transform="translate(-0.0001333333 0.5526667)" id="Fill-4" fill="#5C5C60" stroke="none" />
        </g>
      </g>
      <path d="M0 3.92533C0 1.75867 1.75867 0 3.92533 0C6.092 0 7.85067 1.75867 7.85067 3.92533C7.85067 6.092 6.092 7.85133 3.92533 7.85133C1.75867 7.85133 0 6.092 0 3.92533ZM0.980667 3.92533C0.980667 5.55 2.3 6.86933 3.92533 6.86933C5.55067 6.86933 6.86933 5.55 6.86933 3.92533C6.86933 2.3 5.55067 0.981333 3.92533 0.981333C2.3 0.981333 0.980667 2.3 0.980667 3.92533Z" transform="translate(7.410933 10.5812)" id="Fill-7" fill="#5C5C60" fill-rule="evenodd" stroke="none" />
      <path d="M5.88867 2.944C5.88867 1.31867 4.57067 0 2.94467 0C1.31867 0 0 1.31867 0 2.944C0 4.57 1.31867 5.888 2.94467 5.888C4.57067 5.888 5.88867 4.57 5.88867 2.944" transform="translate(8.3916 11.56253)" id="Fill-9" fill="#B5B5B5" stroke="none" />
      <path d="M1.17767 3.14083C1.077 3.14083 0.977 3.10217 0.899667 3.0255L0.115 2.24017C-0.0383333 2.0875 -0.0383333 1.83883 0.115 1.6855C0.268333 1.53217 0.517 1.53217 0.670333 1.6855L1.17767 2.19283L3.25567 0.1155C3.409 -0.0385 3.657 -0.0385 3.81033 0.1155C3.96367 0.268167 3.96367 0.516833 3.81033 0.670833L1.45567 3.0255C1.37833 3.10217 1.27767 3.14083 1.17767 3.14083" transform="translate(9.373466 12.93597)" id="Fill-11" fill="#5C5C60" stroke="none" />
      <path d="M1.27733 0.638667C1.27733 0.286 0.991333 0 0.638667 0C0.286 0 0 0.286 0 0.638667C0 0.990667 0.286 1.27667 0.638667 1.27667C0.991333 1.27667 1.27733 0.990667 1.27733 0.638667" transform="translate(1.151067 18.07553)" id="Fill-13" fill="#5C5C60" stroke="none" />
    </g>
  </g>
</svg>