<?xml version="1.0" encoding="utf-8"?>
<svg width="80px" height="34px" viewBox="0 0 80 34" version="1.1" xmlns:xlink="http://www.w3.org/1999/xlink" xmlns="http://www.w3.org/2000/svg">
  <desc>Created with Lunacy</desc>
  <g id="icon.minivan">
    <path d="M74.5106 15.8968C74.4564 15.7883 74.384 15.716 74.3117 15.6255C72.3043 13.184 69.4649 11.3936 66.1734 10.7426L63.0447 10.1277L50.0234 0L4.59362 0L0 9.20532C0 9.20532 0 21.0872 0 22.733C0 25.9883 3.14681 28.9362 5.31702 28.9362C6.81809 28.9362 10.2904 28.9362 10.2904 28.9362C9.80213 28.0862 9.51277 27.0915 9.51277 26.0426C9.51277 24.9936 9.80213 23.9989 10.2904 23.1489C11.2851 21.4128 13.1479 20.2553 15.3 20.2553C16.4213 20.2553 17.4521 20.5809 18.3383 21.1234C18.7362 21.3766 19.116 21.666 19.4596 22.0277C19.6223 22.1904 19.7851 22.3713 19.9298 22.5702C20.0745 22.7692 20.2011 22.9681 20.3277 23.167C20.3277 23.1851 20.3277 23.2032 20.3457 23.2032C20.4543 23.4202 20.5809 23.6372 20.6713 23.8723C20.7798 24.1255 20.8702 24.4149 20.9245 24.7043C21.033 25.1383 21.1053 25.6085 21.1053 26.0606C21.1053 27.1096 20.816 28.1043 20.3277 28.9543L35.5734 28.9543L50.2223 28.9543L60.9649 28.9543L60.9649 28.9362C60.4585 28.0862 60.1872 27.0915 60.1872 26.0606C60.1872 25.0117 60.4766 24.017 60.9649 23.167C61.9596 21.4309 63.8223 20.2734 65.9745 20.2734C68.1266 20.2734 69.9894 21.4309 70.984 23.167C71.4723 24.017 71.7617 25.0117 71.7617 26.0606C71.7617 27.1096 71.4904 28.0862 70.984 28.9362L70.984 28.9543L74.6553 28.9543L77.5489 27.5074L77.5489 24.6138C77.5489 24.1255 77.5128 23.6372 77.4585 23.167C77.1691 20.4362 76.1202 17.9585 74.5106 15.8968Z" transform="translate(2.115957 2.911702)" id="Path" fill="#FCD603" stroke="none" />
    <g id="Group" transform="translate(10.85106 21.34043)">
      <path d="M0 5.80532C0 6.85426 0.289362 7.84894 0.77766 8.69894C1.77234 10.4351 3.63511 11.5926 5.78723 11.5926C7.93936 11.5926 9.80213 10.4351 10.7968 8.69894C11.2851 7.84894 11.5745 6.85426 11.5745 5.80532C11.5745 5.33511 11.5202 4.88298 11.3936 4.44894C11.3394 4.15957 11.2489 3.87021 11.1404 3.61702C11.0319 3.38191 10.9415 3.16489 10.8149 2.94787C10.7968 2.94787 10.7968 2.92979 10.7968 2.9117C10.6702 2.71277 10.5436 2.51383 10.3989 2.31489C10.2543 2.11596 10.0915 1.95319 9.92872 1.77234C9.60319 1.42872 9.2234 1.12128 8.80745 0.868085C7.92128 0.325532 6.89043 0 5.76915 0C3.63511 0 1.75426 1.15745 0.759574 2.89362C0.289362 3.7617 0 4.75638 0 5.80532Z" transform="translate(0 0.162766)" id="Path" fill="#B5B5B5" stroke="none" />
      <path d="M0 5.78723C0 6.83617 0.271277 7.81277 0.77766 8.66277L0.77766 8.68085C1.77234 10.417 3.63511 11.5745 5.78723 11.5745C7.93936 11.5745 9.80213 10.417 10.7968 8.68085L10.7968 8.66277C11.3032 7.81277 11.5745 6.81809 11.5745 5.78723C11.5745 4.7383 11.2851 3.74362 10.7968 2.89362C9.80213 1.15745 7.93936 0 5.78723 0C3.63511 0 1.77234 1.15745 0.77766 2.89362C0.289362 3.74362 0 4.7383 0 5.78723Z" transform="translate(50.6383 0.1808511)" id="Path" fill="#B5B5B5" stroke="none" />
    </g>
    <path d="M49.7521 0L36.7309 0L22.2628 0L5.06383 0L0 10.1277L22.2628 10.1277L36.7309 10.1277L51.1989 10.1277L64.2202 10.1277L51.1989 0L49.7521 0Z" transform="translate(0.162766 1.265957)" id="Path" fill="#FFFFFF" stroke="none" />
    <path d="M0.542553 4.70213C0.235106 4.70213 0 4.46702 0 4.15957C0 1.86277 1.86277 0 4.15957 0C4.46702 0 4.70213 0.235106 4.70213 0.542553C4.70213 0.85 4.46702 1.08511 4.15957 1.08511C2.45957 1.08511 1.08511 2.45957 1.08511 4.15957C1.08511 4.46702 0.85 4.70213 0.542553 4.70213Z" transform="translate(63.3883 23.27553)" id="Path" fill="#FFFFFF" stroke="none" />
    <path d="M0.542553 4.70213C0.235106 4.70213 0 4.46702 0 4.15957C0 1.86277 1.86277 0 4.15957 0C4.46702 0 4.70213 0.235106 4.70213 0.542553C4.70213 0.85 4.46702 1.08511 4.15957 1.08511C2.45957 1.08511 1.08511 2.45957 1.08511 4.15957C1.08511 4.46702 0.85 4.70213 0.542553 4.70213Z" transform="translate(12.75 23.27553)" id="Path" fill="#FFFFFF" stroke="none" />
    <path d="M67.0596 33.8372C64.9979 33.8372 63.4787 32.933 63.0447 32.6436L62.9904 32.6074C62.5021 32.2457 62.0319 31.7755 61.5979 31.233L61.4894 31.0883L22.0457 31.0883L21.9372 31.233C21.5574 31.7213 21.1053 32.1734 20.5447 32.6074C20.5266 32.6255 18.8266 33.8372 16.4213 33.8372C14.3596 33.8372 12.8404 32.933 12.4064 32.6436L12.3521 32.6074C11.7734 32.1734 11.3213 31.7032 10.9596 31.233L10.8511 31.0883L6.87234 31.0883C3.07447 31.0883 0 27.8149 0 23.8L0 9.94681L3.65319 2.31489C4.32234 0.88617 5.67872 0 7.21596 0L45.7011 0C49.716 0 53.4957 0 57.0404 3.14681L64.6723 10.2L69.0128 11.1404C71.834 11.9904 74.3479 13.6904 76.3191 16.0234L76.3372 16.0415L76.3553 16.0777C76.4277 16.1681 76.5 16.2585 76.5543 16.367C77.983 18.2117 78.9777 20.4362 79.4117 22.8053L79.6287 24.0713L79.6287 24.0894L79.7191 25.6266L79.7191 29.2074L75.9755 31.0702L72.6479 31.0702L72.5394 31.2149C72.1234 31.7574 71.6713 32.1915 71.1468 32.5894L70.5681 32.9872L70.5681 32.8968C69.1574 33.6745 67.8915 33.8372 67.0596 33.8372ZM18.917 2.13404L18.917 10.0915L2.33298 10.0915L5.5883 3.2734C5.93192 2.58617 6.58298 2.13404 7.21596 2.13404L18.917 2.13404ZM34.0181 10.0915L34.0181 2.13404L21.0691 2.13404L21.0691 10.0915L34.0181 10.0915ZM48.7755 2.20638L49.8968 10.0915L36.1883 10.0915L36.1883 2.13404C38.9011 2.13404 47.7989 2.13404 48.7755 2.20638ZM52.1213 10.0915L61.0553 10.0915L55.9553 5.02766L55.9372 5.00957L55.8649 4.9734C54.4181 3.72553 52.8809 2.94787 51.0181 2.53191L52.1213 10.0915ZM72.8287 23.1128L72.6479 23.1489L72.5755 23.1309C72.5394 23.0585 72.4851 23.0043 72.4489 22.9681L72.4489 22.95L72.3947 22.8957C72.2862 22.733 72.1596 22.5883 72.0149 22.4436L71.9968 22.4255L71.9787 22.4074C71.9606 22.3894 71.9426 22.3532 71.9064 22.3351C71.8883 22.2989 71.8521 22.2628 71.816 22.2447L71.7617 22.1904L71.3638 21.8649L71.3096 21.8106C71.2553 21.7383 71.2011 21.7021 71.1106 21.6479L71.0745 21.6298C70.9298 21.5032 70.7851 21.4128 70.6585 21.3404C70.6404 21.3223 70.6043 21.3043 70.5681 21.2862C70.55 21.2862 70.55 21.2681 70.5319 21.2681C70.4957 21.2319 70.4596 21.2138 70.4234 21.1957C70.4053 21.1777 70.3872 21.1777 70.3691 21.1596L69.9713 20.9426L69.917 20.8883L69.8989 20.8702C69.8266 20.834 69.7362 20.7979 69.6277 20.7617C69.483 20.7074 69.3021 20.6532 69.1213 20.5989L69.0128 20.5628C68.9766 20.5628 68.9585 20.5447 68.9404 20.5447L68.9223 20.5447L68.8862 20.5266L68.8681 20.5266C68.8681 20.5085 68.85 20.5085 68.8319 20.5085C68.6872 20.4543 68.5606 20.4362 68.434 20.4181C68.3979 20.4181 68.3798 20.4 68.3436 20.4C68.3255 20.3819 68.3074 20.3819 68.2894 20.3819L68.2532 20.3638L68.217 20.3638C68.217 20.3457 68.1989 20.3457 68.1808 20.3457C68.1628 20.3457 68.1628 20.3277 68.1447 20.3277L68.0904 20.3096L68.0543 20.3096C68.0181 20.2915 67.9819 20.2915 67.9457 20.2915C67.6564 20.2553 67.367 20.2372 67.0957 20.2372C66.8245 20.2372 66.5351 20.2553 66.2457 20.2915C66.1915 20.2915 66.1191 20.2915 66.0468 20.3096L65.9202 20.3277C65.8479 20.3457 65.7574 20.3638 65.667 20.3819L65.4138 20.4362L65.3777 20.4362L65.2872 20.4723L65.2691 20.4723C65.2511 20.4723 65.2149 20.4904 65.1425 20.5085L65.0521 20.5266L64.5638 20.6894L64.4915 20.7255C64.383 20.7798 64.3106 20.816 64.2202 20.8521C64.2021 20.8702 64.166 20.8702 64.1479 20.8883C64.1117 20.8883 64.0936 20.9064 64.0574 20.9245C63.9851 20.9426 63.9128 20.9787 63.8585 21.0149C63.8223 21.033 63.8043 21.033 63.7862 21.0511L63.6234 21.1596C63.5691 21.1777 63.533 21.2138 63.4787 21.2319L63.4426 21.2319C63.316 21.3223 63.1894 21.4128 63.0447 21.5032L62.9904 21.5394L62.7734 21.7021C62.6649 21.7926 62.5383 21.9011 62.3936 22.0277L62.3394 22.0819C62.2489 22.1362 62.1766 22.2085 62.1404 22.2447C61.9777 22.3894 61.8511 22.5521 61.7426 22.6968L61.634 22.8053C61.616 22.8234 61.5798 22.8596 61.5617 22.8957C61.5436 22.9138 61.5255 22.9319 61.5074 22.9681L61.417 23.0766L53.2245 23.0766L53.6404 19.8032L52.3926 12.2255L64.0213 12.2255L67.0415 12.8404C69.0489 13.2383 70.2787 13.5277 72.3223 15.2096C74.2032 16.7468 76.4638 19.4957 77.2053 22.6606L77.3138 23.1128L72.8287 23.1128ZM34.0181 12.2617L34.0181 23.1309L22.0096 23.1309L21.9011 22.9681L21.883 22.95C21.7383 22.7511 21.5574 22.5521 21.3766 22.3532C21.25 22.2085 21.1415 22.1 20.9968 21.9734C20.9787 21.8649 20.9787 21.4128 20.9968 20.4181C21.0149 19.5138 21.033 18.3021 21.0511 17.0904C21.0872 15.1553 21.1234 13.166 21.1415 12.5149L21.1415 12.2617L34.0181 12.2617ZM51.0904 23.1309L51.1447 22.7872L51.5245 19.8936L50.2585 12.2798L36.1883 12.2798L36.1883 23.1309L51.0904 23.1309ZM10.7968 23.167L10.9234 23.0043C10.9415 22.9681 10.9596 22.95 10.9777 22.9319C10.9957 22.8777 11.0319 22.8596 11.05 22.8415L11.1404 22.7511C11.2489 22.6064 11.3755 22.4436 11.5383 22.2989C11.5745 22.2628 11.6468 22.1904 11.7372 22.1362L11.7915 22.1C11.9362 21.9553 12.0447 21.8649 12.1532 21.7745L12.3702 21.6117L12.4245 21.5755C12.5691 21.4851 12.6957 21.3947 12.8223 21.3043C12.9489 21.2138 13.0394 21.1596 13.1479 21.1053C13.166 21.0872 13.184 21.0872 13.2202 21.0691C13.2745 21.033 13.3468 20.9968 13.4191 20.9787C13.4553 20.9606 13.4734 20.9426 13.5096 20.9426C13.5277 20.9245 13.5638 20.9245 13.5819 20.9064C13.6723 20.8702 13.7447 20.834 13.8351 20.7798L13.9074 20.7436C14.0521 20.6894 14.2149 20.6351 14.3957 20.5809L14.4681 20.5628L14.4862 20.5628C14.5223 20.5447 14.5766 20.5266 14.6309 20.5266C14.6489 20.5085 14.6851 20.5085 14.7213 20.5085L14.7574 20.5085L14.9021 20.4723C15.0106 20.4543 15.1191 20.4181 15.2277 20.4L15.3723 20.3819C15.3904 20.3819 15.4266 20.3638 15.4628 20.3638L15.4989 20.3457L15.5532 20.3457C15.8426 20.3096 16.1319 20.2915 16.4032 20.2915C16.8011 20.2915 17.1085 20.3096 17.3617 20.3638C17.3979 20.3638 17.434 20.3638 17.4702 20.3819L17.5606 20.4L17.633 20.4L17.7415 20.4181C17.9404 20.4543 18.1032 20.4904 18.2479 20.5447L18.3202 20.5447L18.3926 20.5989L18.6638 20.6713L18.7362 20.3277L18.8085 12.334L2.17021 12.334L2.17021 23.1851L10.7968 23.1851L10.7968 23.167ZM67.0777 31.8117C65.5404 31.8117 64.1117 31.0702 63.2436 29.8043L63.0628 29.3702C62.6468 28.683 62.4117 27.8511 62.4117 27.0372C62.4117 26.2415 62.6287 25.4457 63.0628 24.6862C63.8766 23.2394 65.4319 22.3351 67.1138 22.3351C67.5479 22.3351 67.9277 22.4074 68.3074 22.5521C69.0851 22.7691 69.8085 23.1851 70.4053 23.7638C70.6947 24.0532 70.9479 24.3968 71.1468 24.7404C71.5809 25.4819 71.7979 26.2596 71.7979 27.0915C71.7979 27.9053 71.5809 28.7011 71.1649 29.4245L71.0745 29.6234L71.0383 29.6596L71.0202 29.6777C70.134 31.016 68.6692 31.8117 67.0777 31.8117ZM15.3181 31.667C15.7702 31.7755 16.0957 31.8117 16.4394 31.8117C16.783 31.8117 17.1447 31.7574 17.5787 31.6489C17.5968 31.6489 17.6149 31.6309 17.6149 31.6309L17.633 31.6309C17.6691 31.6128 17.7234 31.5947 17.8138 31.5766L17.85 31.5766C18.1394 31.4862 18.3926 31.3777 18.6277 31.2511L18.6819 31.2149C18.7181 31.1787 18.7723 31.1606 18.8085 31.1426L18.8628 31.1064C18.8809 31.1064 18.8809 31.0883 18.8989 31.0883C19.5138 30.7085 20.0564 30.184 20.4181 29.5872C20.4362 29.533 20.4723 29.4968 20.5085 29.4787C20.5085 29.4606 20.5266 29.4606 20.5266 29.4426C20.5266 29.4245 20.5447 29.3883 20.5628 29.3702C20.5628 29.3521 20.5809 29.316 20.5989 29.2979C20.7617 29.0085 20.8521 28.7372 20.9245 28.5021L20.9426 28.4117L20.9426 28.3755C20.9426 28.3574 20.9426 28.3394 20.9606 28.3213C20.9606 28.3032 20.9787 28.2851 20.9787 28.267L20.9787 28.2309C21.0872 27.833 21.1415 27.4532 21.1415 27.1096C21.1415 26.766 21.0872 26.4223 20.9787 25.9883C20.9426 25.8255 20.9064 25.6809 20.8702 25.5362C20.7617 25.1926 20.5447 24.7766 20.2553 24.3787L20.2192 24.3245L20.2192 24.2883C20.2011 24.2702 20.183 24.234 20.1649 24.216C20.0564 24.0713 19.966 23.9809 19.8936 23.9085L19.8574 23.8723C19.6223 23.6192 19.3149 23.366 18.9894 23.1309L18.9713 23.1309L18.917 23.0766C18.8989 23.0585 18.8809 23.0585 18.8628 23.0404C18.6638 22.9138 18.483 22.8234 18.3202 22.7511L18.284 22.7511C18.266 22.733 18.2298 22.733 18.2117 22.733C18.1755 22.733 18.1394 22.7149 18.1213 22.7149L18.1032 22.7149L18.0309 22.6787C17.9043 22.6426 17.7596 22.5883 17.5787 22.5521L17.4883 22.534L17.2351 22.4798C16.9096 22.4255 16.6745 22.3894 16.4213 22.3894C16.0777 22.3894 15.716 22.4436 15.2819 22.5521L15.1191 22.6064L15.0649 22.6426L15.0287 22.6426C15.0106 22.6426 14.9926 22.6606 14.9745 22.6606C14.7574 22.7149 14.5223 22.8234 14.2149 22.9862L14.1606 23.0223C14.1245 23.0585 14.0702 23.0766 14.034 23.0947L13.9798 23.1309C13.9617 23.1309 13.9617 23.1489 13.9436 23.1489C13.3106 23.5287 12.7862 24.0713 12.4064 24.6681L12.3883 24.6862L12.334 24.7404L12.316 24.7766L12.2798 24.8128C12.2798 24.8309 12.2617 24.8489 12.2617 24.867L12.2617 24.8851L12.2436 24.9574C12.0809 25.2649 11.9904 25.5362 11.9181 25.7713L11.9 25.8617L11.9 25.8979C11.9 25.916 11.9 25.934 11.8819 25.9521C11.8819 25.9702 11.8638 25.9883 11.8638 26.0064L11.8638 26.0426C11.7553 26.4404 11.7011 26.8202 11.7011 27.1638Q11.7011 27.6793 11.8638 28.2489C11.8819 28.3213 11.9 28.3755 11.9181 28.4117L11.9362 28.4479L11.9362 28.484L11.9543 28.5564C12.0266 28.7915 12.1351 29.0447 12.2798 29.3521L12.2979 29.3883L12.2979 29.4245C12.316 29.4606 12.316 29.4787 12.334 29.4968L12.3521 29.533L12.3883 29.5691L12.4064 29.5872C12.7862 30.2202 13.3287 30.7628 13.9798 31.1426C14.0521 31.1787 14.1245 31.2149 14.1787 31.2511L14.2149 31.2872C14.4319 31.3957 14.6851 31.5043 14.9926 31.6128L15.0468 31.6309L15.083 31.6309C15.1191 31.6309 15.1553 31.6489 15.1915 31.667L15.2096 31.667C15.2819 31.6489 15.3 31.6489 15.3181 31.667ZM2.40532 25.283C3.05638 27.417 4.88298 28.9 6.87234 28.9L9.80213 28.9L9.7117 28.466L9.7117 28.2851C9.63936 27.8149 9.58511 27.4351 9.58511 27.0915C9.58511 26.6755 9.62128 26.2957 9.7117 25.8979L9.69362 25.8979L9.72979 25.7351L9.72979 25.5904L9.76596 25.5904L9.8383 25.2649L2.38723 25.2649L2.40532 25.283ZM34.0181 25.283L34.0181 28.8819L23.0223 28.8819L23.0766 28.5926L23.1128 28.5926L23.1128 28.4479L23.1489 28.2851L23.1309 28.2851C23.2213 27.8872 23.2574 27.5074 23.2574 27.0915C23.2574 26.8564 23.2574 26.5851 23.2213 26.3138C23.2213 26.2777 23.2032 26.2415 23.2032 26.2234C23.2032 26.1872 23.2032 26.133 23.1851 26.0787C23.1851 26.0064 23.1851 25.934 23.167 25.8798L23.167 25.8617C23.167 25.8074 23.167 25.7532 23.1489 25.6989L23.0585 25.283L34.0181 25.283ZM36.1702 25.283L50.8191 25.283L50.367 28.9L36.1702 28.9L36.1702 25.283ZM73.733 28.9181L73.8234 28.466L73.8053 25.283L77.5309 25.283L77.5309 27.8691L75.4872 28.9L74.1489 28.9L73.733 28.9181ZM60.4223 28.9L60.3319 28.466L60.3319 28.4479L60.3138 28.4298L60.3138 28.3574C60.2234 27.9415 60.1872 27.5255 60.1872 27.1096C60.1872 26.6936 60.2234 26.2777 60.3138 25.8798L60.3138 25.7351L60.4043 25.3011L53.0075 25.3011L52.5553 28.9L60.4223 28.9Z" transform="translate(0.162766 0.162766)" id="Shape" fill="#5C5C60" fill-rule="evenodd" stroke="none" />
  </g>
</svg>