<?xml version="1.0" encoding="UTF-8"?>
<svg width="48px" height="48px" viewBox="0 0 48 48" version="1.1" xmlns="http://www.w3.org/2000/svg" xmlns:xlink="http://www.w3.org/1999/xlink">
    <!-- Generator: Sketch 62 (91390) - https://sketch.com -->
    <title>iconografia/marca/off/internet</title>
    <desc>Created with Sketch.</desc>
    <defs>
        <polygon id="path-1" points="0 0.209 39.7896 0.209 39.7896 39.9999 0 39.9999"></polygon>
    </defs>
    <g id="iconografia/marca/off/internet" stroke="none" stroke-width="1" fill="none" fill-rule="evenodd">
        <g id="Page-1" transform="translate(4.000000, 4.000000)">
            <g id="Group-3" transform="translate(0.000000, 0.791000)">
                <mask id="mask-2" fill="white">
                    <use xlink:href="#path-1"></use>
                </mask>
                <g id="Clip-2"></g>
                <path d="M22.1846,38.2139 C25.0976,35.4619 27.2786,32.1059 28.5816,28.4019 C30.7266,28.9219 32.8216,29.6419 34.8566,30.5559 C31.9656,34.6819 27.4186,37.5549 22.1846,38.2139 L22.1846,38.2139 Z M13.0606,28.0359 C15.0326,27.6579 17.0406,27.4439 19.0806,27.3969 L19.0806,37.1319 C16.3516,34.5849 14.3026,31.4729 13.0606,28.0359 L13.0606,28.0359 Z M4.0806,29.2269 C2.4916,26.4799 1.6266,23.3609 1.6266,20.1049 C1.6266,16.7539 2.5486,13.6209 4.1306,10.9189 C6.3486,11.9309 8.6336,12.7229 10.9766,13.2849 C10.3646,15.4659 10.0416,17.7449 10.0416,20.0739 C10.0416,22.3909 10.3626,24.6559 10.9666,26.8249 C8.6106,27.3979 6.3116,28.1979 4.0806,29.2269 L4.0806,29.2269 Z M17.8266,1.9629 C14.9326,4.7059 12.7646,8.0469 11.4646,11.7319 C9.2606,11.2089 7.1116,10.4729 5.0226,9.5359 C7.9586,5.4159 12.5496,2.5609 17.8266,1.9629 L17.8266,1.9629 Z M34.7686,9.5359 C32.7506,10.4409 30.6766,11.1539 28.5526,11.6719 C27.2566,8.0319 25.1166,4.7289 22.2626,2.0079 C27.4126,2.6789 31.8876,5.4949 34.7686,9.5359 L34.7686,9.5359 Z M20.7076,25.7649 L20.7076,14.3189 C22.9986,14.2729 25.2516,14.0259 27.4586,13.5809 C28.0586,15.6629 28.3716,17.8449 28.3716,20.0739 C28.3716,22.2779 28.0636,24.4349 27.4786,26.4949 C25.2646,26.0529 23.0046,25.8079 20.7076,25.7649 L20.7076,25.7649 Z M20.7076,37.3689 L20.7076,27.3919 C22.8326,27.4339 24.9226,27.6549 26.9736,28.0539 C25.6926,31.5889 23.5606,34.7839 20.7076,37.3689 L20.7076,37.3689 Z M19.0806,3.0159 L19.0806,12.6929 C17.0456,12.6489 15.0426,12.4409 13.0786,12.0689 C14.3216,8.6509 16.3636,5.5529 19.0806,3.0159 L19.0806,3.0159 Z M20.7076,2.7779 C23.5406,5.3469 25.6616,8.5169 26.9446,12.0239 C24.9046,12.4229 22.8236,12.6479 20.7076,12.6929 L20.7076,2.7779 Z M11.6686,20.0739 C11.6686,17.8609 11.9786,15.6949 12.5686,13.6269 C14.6996,14.0419 16.8726,14.2749 19.0806,14.3189 L19.0806,25.7699 C16.8686,25.8189 14.6916,26.0569 12.5576,26.4779 C11.9756,24.4229 11.6686,22.2729 11.6686,20.0739 L11.6686,20.0739 Z M35.7356,29.1659 C33.5746,28.1799 31.3476,27.4069 29.0676,26.8479 C29.6766,24.6719 29.9976,22.3989 29.9976,20.0739 C29.9976,17.7239 29.6706,15.4229 29.0476,13.2249 C31.3086,12.6659 33.5166,11.8989 35.6606,10.9189 C37.2416,13.6219 38.1636,16.7539 38.1636,20.1049 C38.1636,23.4029 37.2716,26.4919 35.7356,29.1659 L35.7356,29.1659 Z M19.9006,0.2099 C19.8986,0.2099 19.8966,0.2089 19.8946,0.2089 C19.8926,0.2089 19.8896,0.2099 19.8876,0.2099 C8.9206,0.2149 -0.0004,9.1379 -0.0004,20.1049 C-0.0004,25.4089 2.0636,30.3999 5.8106,34.1559 C6.1266,34.4739 6.6426,34.4759 6.9606,34.1579 C7.2796,33.8409 7.2806,33.3249 6.9626,33.0079 C6.2186,32.2619 5.5626,31.4549 4.9666,30.6119 C7.0686,29.6589 9.2326,28.9119 11.4506,28.3799 C12.7616,32.1149 14.9646,35.4979 17.9116,38.2649 C15.7946,38.0389 13.7576,37.4509 11.8356,36.5039 C11.4316,36.3019 10.9446,36.4709 10.7466,36.8739 C10.5476,37.2769 10.7136,37.7649 11.1176,37.9629 C13.8596,39.3149 16.8126,39.9999 19.8956,39.9999 C30.8656,39.9999 39.7896,31.0749 39.7896,20.1049 C39.7896,9.1369 30.8686,0.2129 19.9006,0.2099 L19.9006,0.2099 Z" id="Fill-1" fill="#5C5C60" mask="url(#mask-2)"></path>
            </g>
            <path d="M8.3418,35.625 C8.2518,35.665 8.1518,35.726 8.0818,35.795 C7.9318,35.945 7.8418,36.155 7.8418,36.375 C7.8418,36.476 7.8618,36.585 7.9018,36.686 C7.9418,36.785 8.0018,36.865 8.0818,36.945 C8.1618,37.025 8.2518,37.085 8.3418,37.125 C8.4418,37.165 8.5518,37.186 8.6618,37.186 C8.7618,37.186 8.8718,37.165 8.9718,37.125 C9.0708,37.085 9.1518,37.025 9.2318,36.945 C9.3118,36.875 9.3718,36.785 9.4118,36.686 C9.4518,36.585 9.4718,36.476 9.4718,36.375 C9.4718,36.155 9.3818,35.945 9.2318,35.795 C9.0018,35.565 8.6518,35.495 8.3418,35.625" id="Fill-4" fill="#5C5C60"></path>
        </g>
    </g>
</svg>