<?xml version="1.0" encoding="UTF-8"?>
<svg width="48px" height="48px" viewBox="0 0 48 48" version="1.1" xmlns="http://www.w3.org/2000/svg" xmlns:xlink="http://www.w3.org/1999/xlink">
    <!-- Generator: Sketch 62 (91390) - https://sketch.com -->
    <title>iconografia/marca/on/internet</title>
    <desc>Created with Sketch.</desc>
    <defs>
        <polygon id="path-1" points="0.7127 0.2406 38.472 0.2406 38.472 38 0.7127 38"></polygon>
        <polygon id="path-3" points="0 0.1283 39.7896 0.1283 39.7896 39.9193 0 39.9193"></polygon>
    </defs>
    <g id="iconografia/marca/on/internet" stroke="none" stroke-width="1" fill="none" fill-rule="evenodd">
        <g id="Page-1" transform="translate(4.000000, 3.000000)">
            <g id="Group-3" transform="translate(2.000000, 3.871600)">
                <mask id="mask-2" fill="white">
                    <use xlink:href="#path-1"></use>
                </mask>
                <g id="Clip-2"></g>
                <path d="M38.4727,19.1196 C38.4727,29.5476 30.0197,38.0006 19.5927,38.0006 C9.1657,38.0006 0.7127,29.5476 0.7127,19.1196 C0.7127,8.6936 9.1657,0.2406 19.5927,0.2406 C30.0197,0.2406 38.4727,8.6936 38.4727,19.1196" id="Fill-1" fill="#FCD603" mask="url(#mask-2)"></path>
            </g>
            <g id="Group-6" transform="translate(0.000000, 0.871600)">
                <mask id="mask-4" fill="white">
                    <use xlink:href="#path-3"></use>
                </mask>
                <g id="Clip-5"></g>
                <path d="M22.1846,38.1333 C25.0976,35.3813 27.2786,32.0253 28.5816,28.3213 C30.7266,28.8413 32.8216,29.5613 34.8566,30.4753 C31.9656,34.6013 27.4186,37.4743 22.1846,38.1333 L22.1846,38.1333 Z M13.0606,27.9553 C15.0326,27.5773 17.0406,27.3633 19.0816,27.3163 L19.0816,37.0523 C16.3516,34.5043 14.3026,31.3923 13.0606,27.9553 L13.0606,27.9553 Z M4.0816,29.1463 C2.4926,26.3993 1.6266,23.2803 1.6266,20.0243 C1.6266,16.6733 2.5496,13.5403 4.1306,10.8373 C6.3486,11.8503 8.6336,12.6413 10.9766,13.2043 C10.3646,15.3853 10.0416,17.6643 10.0416,19.9933 C10.0416,22.3103 10.3626,24.5753 10.9666,26.7443 C8.6106,27.3173 6.3116,28.1173 4.0816,29.1463 L4.0816,29.1463 Z M17.8276,1.8823 C14.9336,4.6253 12.7656,7.9663 11.4646,11.6513 C9.2606,11.1283 7.1116,10.3923 5.0226,9.4543 C7.9586,5.3353 12.5506,2.4803 17.8276,1.8823 L17.8276,1.8823 Z M34.7686,9.4553 C32.7516,10.3603 30.6766,11.0733 28.5526,11.5913 C27.2576,7.9513 25.1166,4.6483 22.2636,1.9283 C27.4136,2.5993 31.8886,5.4143 34.7686,9.4553 L34.7686,9.4553 Z M20.7086,25.6843 L20.7086,14.2383 C22.9986,14.1923 25.2526,13.9453 27.4586,13.5003 C28.0586,15.5823 28.3716,17.7643 28.3716,19.9933 C28.3716,22.1973 28.0636,24.3543 27.4786,26.4143 C25.2656,25.9723 23.0056,25.7273 20.7086,25.6843 L20.7086,25.6843 Z M20.7086,37.2873 L20.7086,27.3113 C22.8326,27.3533 24.9236,27.5743 26.9736,27.9733 C25.6926,31.5083 23.5616,34.7023 20.7086,37.2873 L20.7086,37.2873 Z M19.0816,2.9353 L19.0816,12.6123 C17.0466,12.5683 15.0436,12.3603 13.0786,11.9883 C14.3216,8.5703 16.3636,5.4723 19.0816,2.9353 L19.0816,2.9353 Z M20.7086,2.6973 C23.5416,5.2663 25.6616,8.4373 26.9456,11.9433 C24.9046,12.3423 22.8236,12.5673 20.7086,12.6123 L20.7086,2.6973 Z M11.6686,19.9933 C11.6686,17.7803 11.9786,15.6143 12.5696,13.5463 C14.7006,13.9613 16.8726,14.1943 19.0816,14.2383 L19.0816,25.6893 C16.8696,25.7383 14.6916,25.9763 12.5576,26.3973 C11.9756,24.3423 11.6686,22.1923 11.6686,19.9933 L11.6686,19.9933 Z M35.7356,29.0853 C33.5746,28.0993 31.3476,27.3263 29.0676,26.7673 C29.6766,24.5913 29.9976,22.3183 29.9976,19.9933 C29.9976,17.6433 29.6706,15.3423 29.0476,13.1443 C31.3086,12.5853 33.5166,11.8183 35.6606,10.8393 C37.2416,13.5413 38.1636,16.6733 38.1636,20.0243 C38.1636,23.3223 37.2716,26.4113 35.7356,29.0853 L35.7356,29.0853 Z M19.9026,0.1293 C19.8996,0.1293 19.8976,0.1283 19.8956,0.1283 C19.8936,0.1283 19.8916,0.1293 19.8886,0.1293 C8.9206,0.1333 -0.0004,9.0563 -0.0004,20.0243 C-0.0004,25.3293 2.0646,30.3203 5.8116,34.0753 C6.1286,34.3933 6.6446,34.3953 6.9616,34.0773 C7.2806,33.7603 7.2816,33.2443 6.9636,32.9273 C6.2196,32.1823 5.5636,31.3743 4.9676,30.5313 C7.0686,29.5783 9.2326,28.8313 11.4506,28.2993 C12.7616,32.0343 14.9646,35.4173 17.9116,38.1843 C15.7946,37.9583 13.7586,37.3703 11.8356,36.4233 C11.4316,36.2213 10.9456,36.3913 10.7466,36.7933 C10.5476,37.1963 10.7136,37.6843 11.1176,37.8823 C13.8606,39.2343 16.8136,39.9193 19.8956,39.9193 C30.8656,39.9193 39.7896,30.9943 39.7896,20.0243 C39.7896,9.0563 30.8686,0.1333 19.9026,0.1293 L19.9026,0.1293 Z" id="Fill-4" fill="#5C5C60" mask="url(#mask-4)"></path>
            </g>
            <path d="M8.9727,35.625 C8.7727,35.535 8.5427,35.535 8.3427,35.625 C8.2437,35.665 8.1627,35.726 8.0827,35.795 C7.9327,35.945 7.8427,36.155 7.8427,36.375 C7.8427,36.585 7.9327,36.795 8.0827,36.945 C8.1627,37.025 8.2437,37.085 8.3427,37.125 C8.4437,37.165 8.5527,37.186 8.6627,37.186 C8.8727,37.186 9.0827,37.096 9.2327,36.945 C9.3827,36.795 9.4727,36.585 9.4727,36.375 C9.4727,36.155 9.3827,35.945 9.2327,35.795 C9.1537,35.726 9.0627,35.665 8.9727,35.625" id="Fill-7" fill="#5C5C60"></path>
        </g>
    </g>
</svg>