<?xml version="1.0" encoding="UTF-8"?>
<svg width="48px" height="48px" viewBox="0 0 48 48" version="1.1" xmlns="http://www.w3.org/2000/svg" xmlns:xlink="http://www.w3.org/1999/xlink">
    <!-- Generator: Sketch 62 (91390) - https://sketch.com -->
    <title>iconografia/marca/on/localizacion</title>
    <desc>Created with Sketch.</desc>
    <g id="iconografia/marca/on/localizacion" stroke="none" stroke-width="1" fill="none" fill-rule="evenodd">
        <g id="Group-28" transform="translate(9.000000, 3.000000)">
            <path d="M9.7805,31.3906 L16.3485,41.8986 C16.4595,42.0776 16.7195,42.0776 16.8315,41.8986 L23.3995,31.3906 L27.9375,24.1836 C29.8605,21.1306 30.6395,17.4576 29.9355,13.9186 C29.4225,11.3326 28.1835,8.8676 26.2195,6.8636 C20.9015,1.4346 12.2805,1.4336 6.9595,6.8636 C1.6415,12.2916 1.6415,21.0946 6.9595,26.5236" id="Fill-1" fill="#FCD603"></path>
            <path d="M22.5437,16.125 C22.5437,19.888 19.4957,22.934 15.7347,22.934 C11.9737,22.934 8.9247,19.888 8.9247,16.125 C8.9247,12.363 11.9737,9.316 15.7347,9.316 C19.4957,9.316 22.5437,12.363 22.5437,16.125" id="Fill-3" fill="#B5B5B5"></path>
            <path d="M28.8162,12.0342 C28.2512,9.1862 26.8832,6.5902 24.8612,4.5282 C22.1202,1.7292 18.4742,0.1872 14.5942,0.1872 L14.5932,0.1872 C10.7142,0.1872 7.0672,1.7292 4.3252,4.5282 C-1.3228,10.2922 -1.3228,19.6732 4.3252,25.4382 C4.6702,25.7902 5.2352,25.7962 5.5892,25.4512 C5.9412,25.1062 5.9472,24.5402 5.6022,24.1872 C0.6292,19.1122 0.6292,10.8532 5.6022,5.7792 C8.0052,3.3252 11.1982,1.9742 14.5932,1.9742 L14.5942,1.9742 C17.9892,1.9742 21.1822,3.3252 23.5852,5.7792 C25.3632,7.5932 26.5662,9.8762 27.0632,12.3822 C27.7102,15.6332 27.0432,19.0482 25.1862,21.9972 L14.5942,38.8892 L8.5422,29.2062 C8.2812,28.7882 7.7302,28.6612 7.3112,28.9222 C6.8922,29.1842 6.7652,29.7352 7.0262,30.1542 L13.5932,40.6592 C13.8092,41.0072 14.1822,41.2152 14.5912,41.2162 L14.5932,41.2162 C15.0022,41.2162 15.3762,41.0092 15.5932,40.6612 L26.6972,22.9492 C28.7992,19.6112 29.5522,15.7352 28.8162,12.0342" id="Fill-11" fill="#5C5C60"></path>
            <path d="M14.594,8.7842 C17.856,8.7842 20.51,11.4382 20.51,14.7002 C20.51,17.9612 17.856,20.6152 14.594,20.6152 C11.332,20.6152 8.677,17.9612 8.677,14.7002 C8.677,11.4382 11.332,8.7842 14.594,8.7842 M14.594,22.4022 C18.841,22.4022 22.297,18.9472 22.297,14.7002 C22.297,10.4522 18.841,6.9972 14.594,6.9972 C10.346,6.9972 6.89,10.4522 6.89,14.7002 C6.89,18.9472 10.346,22.4022 14.594,22.4022" id="Fill-13" fill="#5C5C60"></path>
            <path d="M7.3494,27.2036 C7.3494,27.1036 7.3294,26.9936 7.2794,26.8936 C7.2394,26.7936 7.1794,26.7136 7.1094,26.6336 C7.0294,26.5536 6.9394,26.4936 6.8394,26.4536 C6.5394,26.3336 6.1794,26.4036 5.9594,26.6336 C5.8794,26.7136 5.8194,26.7936 5.7794,26.8936 C5.7394,26.9936 5.7194,27.1036 5.7194,27.2036 C5.7194,27.4236 5.8094,27.6336 5.9594,27.7836 C6.1094,27.9336 6.3194,28.0236 6.5294,28.0236 C6.6394,28.0236 6.7494,28.0036 6.8394,27.9636 C6.9394,27.9136 7.0294,27.8536 7.1094,27.7836 C7.2594,27.6336 7.3494,27.4236 7.3494,27.2036" id="Fill-15" fill="#5C5C60"></path>
        </g>
    </g>
</svg>