<?xml version="1.0" encoding="UTF-8"?>
<svg width="48px" height="48px" viewBox="0 0 48 48" version="1.1" xmlns="http://www.w3.org/2000/svg" xmlns:xlink="http://www.w3.org/1999/xlink">
    <!-- Generator: Sketch 62 (91390) - https://sketch.com -->
    <title>iconografia/marca/off/localizacion</title>
    <desc>Created with Sketch.</desc>
    <g id="iconografia/marca/off/localizacion" stroke="none" stroke-width="1" fill="none" fill-rule="evenodd">
        <g id="Group-27" transform="translate(9.000000, 3.000000)" fill="#5C5C60">
            <path d="M15.0183,39.5244 L15.0203,39.5274 C15.0193,39.5264 15.0193,39.5254 15.0183,39.5244 M14.5043,41.0284 L14.5013,41.0284 C14.0923,41.0284 13.7193,40.8204 13.5033,40.4724 L6.9373,29.9664 C6.6763,29.5484 6.8033,28.9974 7.2213,28.7354 C7.6413,28.4744 8.1913,28.6014 8.4533,29.0194 L14.5043,38.7024 L25.0963,21.8104 C26.9533,18.8614 27.6203,15.4464 26.9733,12.1954 C26.4763,9.6894 25.2733,7.4054 23.4963,5.5904 C21.0933,3.1384 17.9003,1.7874 14.5053,1.7874 L14.5043,1.7874 C11.1093,1.7874 7.9153,3.1374 5.5123,5.5904 C0.5403,10.6664 0.5403,18.9254 5.5123,24.0014 C5.8573,24.3544 5.8513,24.9194 5.4983,25.2644 C5.1463,25.6104 4.5803,25.6034 4.2353,25.2514 C-1.4117,19.4864 -1.4117,10.1054 4.2353,4.3404 C6.9783,1.5414 10.6253,0.0004 14.5043,0.0004 L14.5053,0.0004 C18.3843,0.0004 22.0303,1.5414 24.7723,4.3394 C26.7933,6.4034 28.1613,9.0004 28.7263,11.8474 C29.4623,15.5484 28.7103,19.4254 26.6073,22.7624 L15.5033,40.4754 C15.2863,40.8224 14.9133,41.0284 14.5043,41.0284" id="Fill-5"></path>
            <path d="M14.5046,8.5972 C11.2426,8.5972 8.5876,11.2512 8.5876,14.5132 C8.5876,17.7742 11.2426,20.4282 14.5046,20.4282 C17.7666,20.4282 20.4206,17.7742 20.4206,14.5132 C20.4206,11.2512 17.7666,8.5972 14.5046,8.5972 M14.5046,22.2152 C10.2566,22.2152 6.8006,18.7602 6.8006,14.5132 C6.8006,10.2652 10.2566,6.8102 14.5046,6.8102 C18.7516,6.8102 22.2076,10.2652 22.2076,14.5132 C22.2076,18.7602 18.7516,22.2152 14.5046,22.2152" id="Fill-7"></path>
            <path d="M6.4392,27.8335 C6.3392,27.8335 6.2292,27.8135 6.1292,27.7735 C6.0292,27.7335 5.9392,27.6735 5.8692,27.5935 C5.7192,27.4435 5.6292,27.2335 5.6292,27.0235 C5.6292,26.9135 5.6492,26.8135 5.6892,26.7135 C5.7292,26.6135 5.7892,26.5235 5.8692,26.4435 C5.9392,26.3735 6.0292,26.3135 6.1292,26.2735 C6.4292,26.1435 6.7892,26.2235 7.0192,26.4435 C7.0892,26.5235 7.1492,26.6135 7.1992,26.7135 C7.2392,26.8135 7.2592,26.9135 7.2592,27.0235 C7.2592,27.2335 7.1692,27.4435 7.0192,27.5935 C6.8692,27.7435 6.6592,27.8335 6.4392,27.8335" id="Fill-9"></path>
        </g>
    </g>
</svg>