<?xml version="1.0" encoding="UTF-8"?>
<svg width="48px" height="48px" viewBox="0 0 48 48" version="1.1" xmlns="http://www.w3.org/2000/svg" xmlns:xlink="http://www.w3.org/1999/xlink">
    <!-- Generator: Sketch 62 (91390) - https://sketch.com -->
    <title>iconografia/marca/on/logro</title>
    <desc>Created with Sketch.</desc>
    <defs>
        <polygon id="path-1" points="0.319230806 0.7053 25.761 0.7053 25.761 16.0223 0.319230806 16.0223"></polygon>
        <polygon id="path-3" points="0.1049 0.1273 17.9759 0.1273 17.9759 18 0.1049 18"></polygon>
        <polygon id="path-5" points="0 0.1004 27.2284469 0.1004 27.2284469 17.2054 0 17.2054"></polygon>
    </defs>
    <g id="iconografia/marca/on/logro" stroke="none" stroke-width="1" fill="none" fill-rule="evenodd">
        <g id="Page-1" transform="translate(10.000000, 3.000000)">
            <g id="Group-3" transform="translate(2.000000, 2.899600)">
                <mask id="mask-2" fill="white">
                    <use xlink:href="#path-1"></use>
                </mask>
                <g id="Clip-2"></g>
                <path d="M14.3167,16.0223 L25.5667,12.2723 C25.7027,12.2273 25.7837,12.0873 25.7557,11.9463 L24.5287,5.8103 L24.5287,0.9893 C24.5287,0.8333 24.4007,0.7053 24.2437,0.7053 L1.8377,0.7053 C1.6797,0.7053 1.5517,0.8333 1.5517,0.9893 L1.5517,5.8103 L0.3247,11.9463 C0.2967,12.0873 0.3787,12.2273 0.5137,12.2723 L11.7637,16.0223" id="Fill-1" fill="#B5B5B5" mask="url(#mask-2)"></path>
            </g>
            <g id="Group-6" transform="translate(6.000000, 23.899600)">
                <mask id="mask-4" fill="white">
                    <use xlink:href="#path-3"></use>
                </mask>
                <g id="Clip-5"></g>
                <path d="M17.9759,9.0643 C17.9759,13.9983 13.9749,18.0003 9.0389,18.0003 C4.1049,18.0003 0.1049,13.9983 0.1049,9.0643 C0.1049,4.1293 4.1049,0.1273 9.0389,0.1273 C13.9749,0.1273 17.9759,4.1293 17.9759,9.0643" id="Fill-4" fill="#FCD603" mask="url(#mask-4)"></path>
            </g>
            <path d="M10.9261,32.6788 C10.9261,30.5668 12.6441,28.8488 14.7541,28.8488" id="Fill-7" fill="#FCD603"></path>
            <path d="M9.7855,32.1465 C9.2925,32.1465 8.8915,31.7465 8.8915,31.2525 C8.8915,28.6485 11.0105,26.5295 13.6145,26.5295 C14.1075,26.5295 14.5085,26.9295 14.5085,27.4225 C14.5085,27.9165 14.1075,28.3165 13.6145,28.3165 C11.9955,28.3165 10.6795,29.6335 10.6795,31.2525 C10.6795,31.7465 10.2785,32.1465 9.7855,32.1465" id="Fill-9" fill="#FFFFFF"></path>
            <path d="M13.6136,39.295 C9.1796,39.295 5.5726,35.688 5.5726,31.253 C5.5726,26.818 9.1796,23.21 13.6136,23.21 C18.0486,23.21 21.6566,26.818 21.6566,31.253 C21.6566,35.688 18.0486,39.295 13.6136,39.295 M13.6136,21.423 C8.1946,21.423 3.7856,25.833 3.7856,31.253 C3.7856,36.673 8.1946,41.082 13.6136,41.082 C19.0336,41.082 23.4436,36.673 23.4436,31.253 C23.4436,25.833 19.0336,21.423 13.6136,21.423" id="Fill-11" fill="#5C5C60"></path>
            <g id="Group-15" transform="translate(0.000000, 0.899600)">
                <mask id="mask-6" fill="white">
                    <use xlink:href="#path-5"></use>
                </mask>
                <g id="Clip-14"></g>
                <path d="M27.2064,12.0614 L25.9964,6.0104 L25.9964,1.2794 C25.9964,0.6284 25.4684,0.1004 24.8174,0.1004 L2.4114,0.1004 C1.7614,0.1004 1.2324,0.6284 1.2324,1.2794 L1.2324,6.0104 L0.0214,12.0654 C-0.0916,12.6464 0.2464,13.2244 0.8064,13.4094 L12.0564,17.1594 C12.5234,17.3144 13.0294,17.0624 13.1854,16.5934 C13.3424,16.1254 13.0894,15.6204 12.6204,15.4634 L1.8804,11.8834 L3.0024,6.2744 L3.0194,1.8874 L24.2094,1.8874 L24.2094,6.0994 L25.3494,11.8834 L14.6084,15.4634 C14.1404,15.6204 13.8874,16.1254 14.0434,16.5934 C14.1684,16.9684 14.5174,17.2054 14.8914,17.2054 C14.9844,17.2054 15.0794,17.1904 15.1734,17.1594 L26.4214,13.4104 C26.9824,13.2244 27.3204,12.6464 27.2064,12.0614" id="Fill-13" fill="#5C5C60" mask="url(#mask-6)"></path>
            </g>
            <path d="M8.8919,5.7227 L8.8919,10.8287 C8.8919,11.3227 9.2919,11.7227 9.7859,11.7227 C10.2789,11.7227 10.6789,11.3227 10.6789,10.8287 L10.6789,5.7227 C10.6789,5.2297 10.2789,4.8287 9.7859,4.8287 C9.2919,4.8287 8.8919,5.2297 8.8919,5.7227" id="Fill-16" fill="#5C5C60"></path>
            <path d="M18.3372,10.8292 L18.3372,5.7232 C18.3372,5.2292 17.9372,4.8292 17.4432,4.8292 C16.9502,4.8292 16.5502,5.2292 16.5502,5.7232 L16.5502,10.8292 C16.5502,11.3222 16.9502,11.7232 17.4432,11.7232 C17.9372,11.7232 18.3372,11.3222 18.3372,10.8292" id="Fill-18" fill="#5C5C60"></path>
            <path d="M13.6116,19.9952 C13.5116,19.9952 13.4016,19.9752 13.3016,19.9352 C13.2016,19.8852 13.1226,19.8252 13.0426,19.7552 C12.8916,19.6052 12.8016,19.3952 12.8016,19.1752 C12.8016,19.0752 12.8216,18.9652 12.8616,18.8652 C12.9016,18.7662 12.9626,18.6752 13.0426,18.6052 C13.2716,18.3752 13.6226,18.3052 13.9316,18.4252 C14.0316,18.4652 14.1226,18.5252 14.1916,18.6052 C14.2716,18.6752 14.3216,18.7662 14.3726,18.8652 C14.4126,18.9652 14.4316,19.0752 14.4316,19.1752 C14.4316,19.2852 14.4126,19.3952 14.3726,19.4952 C14.3326,19.5852 14.2716,19.6752 14.1916,19.7552 C14.0426,19.9052 13.8326,19.9952 13.6116,19.9952" id="Fill-20" fill="#5C5C60"></path>
        </g>
    </g>
</svg>