<?xml version="1.0" encoding="UTF-8"?>
<svg width="48px" height="48px" viewBox="0 0 48 48" version="1.1" xmlns="http://www.w3.org/2000/svg" xmlns:xlink="http://www.w3.org/1999/xlink">
    <!-- Generator: Sketch 62 (91390) - https://sketch.com -->
    <title>iconografia/marca/off/logro</title>
    <desc>Created with Sketch.</desc>
    <defs>
        <polygon id="path-1" points="0 0.9183 27.2289739 0.9183 27.2289739 18.0224684 0 18.0224684"></polygon>
    </defs>
    <g id="iconografia/marca/off/logro" stroke="none" stroke-width="1" fill="none" fill-rule="evenodd">
        <g id="Page-1" transform="translate(10.000000, 3.000000)">
            <path d="M13.614,23.2099 C9.179,23.2099 5.572,26.8179 5.572,31.2529 C5.572,35.6879 9.179,39.2949 13.614,39.2949 C18.049,39.2949 21.656,35.6879 21.656,31.2529 C21.656,26.8179 18.049,23.2099 13.614,23.2099 M13.614,41.0819 C8.194,41.0819 3.785,36.6729 3.785,31.2529 C3.785,25.8329 8.194,21.4229 13.614,21.4229 C19.034,21.4229 23.443,25.8329 23.443,31.2529 C23.443,36.6729 19.034,41.0819 13.614,41.0819" id="Fill-1" fill="#5C5C60"></path>
            <path d="M9.7849,32.1465 C9.2919,32.1465 8.8909,31.7465 8.8909,31.2525 C8.8909,28.6485 11.0109,26.5295 13.6149,26.5295 C14.1079,26.5295 14.5089,26.9295 14.5089,27.4225 C14.5089,27.9165 14.1079,28.3165 13.6149,28.3165 C11.9959,28.3165 10.6789,29.6335 10.6789,31.2525 C10.6789,31.7465 10.2779,32.1465 9.7849,32.1465" id="Fill-3" fill="#5C5C60"></path>
            <g id="Group-7" transform="translate(0.000000, 0.082000)">
                <mask id="mask-2" fill="white">
                    <use xlink:href="#path-1"></use>
                </mask>
                <g id="Clip-6"></g>
                <path d="M1.3679,12.5303 L1.3709,12.5313 C1.3699,12.5313 1.3689,12.5313 1.3679,12.5303 L1.3679,12.5303 Z M25.8579,12.5313 C25.8559,12.5323 25.8539,12.5323 25.8529,12.5333 L25.8579,12.5313 Z M1.7759,13.2273 L1.7749,13.2283 C1.7749,13.2283 1.7749,13.2273 1.7759,13.2273 L1.7759,13.2273 Z M14.8899,18.0224684 C14.5159,18.0224684 14.1679,17.7863 14.0429,17.4113 C13.8869,16.9433 14.1389,16.4373 14.6079,16.2813 L25.3479,12.7013 L24.2089,6.9173 L24.2089,2.7053 L3.0189,2.7053 L3.0019,7.0923 L1.8809,12.7013 L12.6199,16.2813 C13.0889,16.4373 13.3419,16.9433 13.1849,17.4113 C13.0289,17.8803 12.5229,18.1323 12.0559,17.9763 L0.8059,14.2263 C0.2429,14.0403 -0.0941,13.4603 0.0229,12.8773 L1.2319,6.8283 L1.2319,2.0963 C1.2319,1.4463 1.7609,0.9183 2.4109,0.9183 L24.8179,0.9183 C25.4679,0.9183 25.9959,1.4463 25.9959,2.0963 L25.9959,6.8283 L27.2059,12.8793 C27.3229,13.4613 26.9849,14.0423 26.4199,14.2273 L15.1729,17.9763 C15.0789,18.0083 14.9839,18.0224684 14.8899,18.0224684 L14.8899,18.0224684 Z" id="Fill-5" fill="#5C5C60" mask="url(#mask-2)"></path>
            </g>
            <path d="M9.7849,11.7226 C9.2919,11.7226 8.8909,11.3226 8.8909,10.8286 L8.8909,5.7226 C8.8909,5.2296 9.2919,4.8286 9.7849,4.8286 C10.2779,4.8286 10.6789,5.2296 10.6789,5.7226 L10.6789,10.8286 C10.6789,11.3226 10.2779,11.7226 9.7849,11.7226" id="Fill-8" fill="#5C5C60"></path>
            <path d="M17.4441,11.7226 C16.9511,11.7226 16.5501,11.3226 16.5501,10.8286 L16.5501,5.7226 C16.5501,5.2296 16.9511,4.8286 17.4441,4.8286 C17.9371,4.8286 18.3381,5.2296 18.3381,5.7226 L18.3381,10.8286 C18.3381,11.3226 17.9371,11.7226 17.4441,11.7226" id="Fill-10" fill="#5C5C60"></path>
            <path d="M13.6179,19.9951 C13.5079,19.9951 13.4079,19.9751 13.3069,19.9351 C13.2079,19.8851 13.1179,19.8351 13.0379,19.7551 C12.9679,19.6751 12.9079,19.5851 12.8679,19.4951 C12.8279,19.3951 12.8069,19.2851 12.8069,19.1751 C12.8069,18.9651 12.8879,18.7551 13.0379,18.6051 C13.3469,18.2951 13.8879,18.2951 14.1879,18.6051 C14.3469,18.7551 14.4279,18.9651 14.4279,19.1751 C14.4279,19.2851 14.4079,19.3951 14.3679,19.4951 C14.3279,19.5851 14.2669,19.6751 14.1879,19.7551 C14.1179,19.8351 14.0279,19.8851 13.9279,19.9351 C13.8279,19.9751 13.7269,19.9951 13.6179,19.9951" id="Fill-12" fill="#5C5C60"></path>
        </g>
    </g>
</svg>