<?xml version="1.0" encoding="UTF-8"?>
<svg width="48px" height="48px" viewBox="0 0 48 48" version="1.1" xmlns="http://www.w3.org/2000/svg" xmlns:xlink="http://www.w3.org/1999/xlink">
    <!-- Generator: Sketch 62 (91390) - https://sketch.com -->
    <title>iconografia/marca/off/mas</title>
    <desc>Created with Sketch.</desc>
    <defs>
        <polygon id="path-1" points="0 0.583 37.691 0.583 37.691 15 0 15"></polygon>
        <polygon id="path-3" points="0.9157 0.8052 2.691 0.8052 2.691 7.3672 0.9157 7.3672"></polygon>
        <polygon id="path-5" points="0.8697 0.7601 5.691 0.7601 5.691 5.5811 0.8697 5.5811"></polygon>
        <polygon id="path-7" points="0 0.7601 27.8587 0.7601 27.8587 17.5791 0 17.5791"></polygon>
    </defs>
    <g id="iconografia/marca/off/mas" stroke="none" stroke-width="1" fill="none" fill-rule="evenodd">
        <g id="Page-1" transform="translate(5.000000, 7.000000)">
            <g id="Group-3" transform="translate(0.000000, 17.240200)">
                <mask id="mask-2" fill="white">
                    <use xlink:href="#path-1"></use>
                </mask>
                <g id="Clip-2"></g>
                <path d="M33.7578,15 L3.9338,15 C1.7648,15 -0.0002,13.235 -0.0002,11.066 L-0.0002,5.43 C-0.0002,4.939 0.3978,4.542 0.8878,4.542 C1.3778,4.542 1.7758,4.939 1.7758,5.43 L1.7758,11.066 C1.7758,12.256 2.7438,13.225 3.9338,13.225 L33.7578,13.225 C34.9468,13.225 35.9158,12.256 35.9158,11.066 L35.9158,1.471 C35.9158,0.98 36.3138,0.583 36.8038,0.583 C37.2938,0.583 37.6918,0.98 37.6918,1.471 L37.6918,11.066 C37.6918,13.235 35.9268,15 33.7578,15" id="Fill-1" fill="#5C5C60" mask="url(#mask-2)"></path>
            </g>
            <g id="Group-6" transform="translate(35.000000, 3.240200)">
                <mask id="mask-4" fill="white">
                    <use xlink:href="#path-3"></use>
                </mask>
                <g id="Clip-5"></g>
                <path d="M1.8037,7.3672 C1.3137,7.3672 0.9157,6.9702 0.9157,6.4792 L0.9157,1.6932 C0.9157,1.2032 1.3137,0.8052 1.8037,0.8052 C2.2937,0.8052 2.6917,1.2032 2.6917,1.6932 L2.6917,6.4792 C2.6917,6.9702 2.2937,7.3672 1.8037,7.3672" id="Fill-4" fill="#5C5C60" mask="url(#mask-4)"></path>
            </g>
            <g id="Group-9" transform="translate(32.000000, 0.240200)">
                <mask id="mask-6" fill="white">
                    <use xlink:href="#path-5"></use>
                </mask>
                <g id="Clip-8"></g>
                <path d="M4.8037,5.5811 C4.3137,5.5811 3.9157,5.1841 3.9157,4.6931 C3.9157,3.5041 2.9477,2.5351 1.7577,2.5351 C1.2677,2.5351 0.8697,2.1381 0.8697,1.6471 C0.8697,1.1571 1.2677,0.7601 1.7577,0.7601 C3.9267,0.7601 5.6917,2.5241 5.6917,4.6931 C5.6917,5.1841 5.2937,5.5811 4.8037,5.5811" id="Fill-7" fill="#5C5C60" mask="url(#mask-6)"></path>
            </g>
            <g id="Group-12" transform="translate(0.000000, 0.240200)">
                <mask id="mask-8" fill="white">
                    <use xlink:href="#path-7"></use>
                </mask>
                <g id="Clip-11"></g>
                <path d="M0.8877,17.5791 C0.3977,17.5791 -0.0003,17.1821 -0.0003,16.6911 L-0.0003,4.6931 C-0.0003,2.5241 1.7647,0.7601 3.9337,0.7601 L26.9707,0.7601 C27.4607,0.7601 27.8587,1.1571 27.8587,1.6471 C27.8587,2.1381 27.4607,2.5351 26.9707,2.5351 L3.9337,2.5351 C2.7437,2.5351 1.7757,3.5041 1.7757,4.6931 L1.7757,16.6911 C1.7757,17.1821 1.3777,17.5791 0.8877,17.5791" id="Fill-10" fill="#5C5C60" mask="url(#mask-8)"></path>
            </g>
            <path d="M30.8457,2.7754 L29.8457,2.7754 C29.3557,2.7754 28.9577,2.3784 28.9577,1.8874 C28.9577,1.3974 29.3557,1.0004 29.8457,1.0004 L30.8457,1.0004 C31.3357,1.0004 31.7337,1.3974 31.7337,1.8874 C31.7337,2.3784 31.3357,2.7754 30.8457,2.7754" id="Fill-13" fill="#5C5C60"></path>
            <path d="M18.8457,16.0127 C18.1287,16.0127 17.5457,16.5957 17.5457,17.3127 C17.5457,18.0297 18.1287,18.6127 18.8457,18.6127 C19.5627,18.6127 20.1457,18.0297 20.1457,17.3127 C20.1457,16.5957 19.5627,16.0127 18.8457,16.0127 M18.8457,20.0127 C17.3567,20.0127 16.1457,18.8017 16.1457,17.3127 C16.1457,15.8237 17.3567,14.6127 18.8457,14.6127 C20.3347,14.6127 21.5457,15.8237 21.5457,17.3127 C21.5457,18.8017 20.3347,20.0127 18.8457,20.0127" id="Fill-15" fill="#58595B"></path>
            <path d="M29.8457,16.0127 C29.1287,16.0127 28.5457,16.5957 28.5457,17.3127 C28.5457,18.0297 29.1287,18.6127 29.8457,18.6127 C30.5627,18.6127 31.1457,18.0297 31.1457,17.3127 C31.1457,16.5957 30.5627,16.0127 29.8457,16.0127 M29.8457,20.0127 C28.3567,20.0127 27.1457,18.8017 27.1457,17.3127 C27.1457,15.8237 28.3567,14.6127 29.8457,14.6127 C31.3347,14.6127 32.5457,15.8237 32.5457,17.3127 C32.5457,18.8017 31.3347,20.0127 29.8457,20.0127" id="Fill-17" fill="#58595B"></path>
            <path d="M7.8457,16.0127 C7.1287,16.0127 6.5457,16.5957 6.5457,17.3127 C6.5457,18.0297 7.1287,18.6127 7.8457,18.6127 C8.5627,18.6127 9.1457,18.0297 9.1457,17.3127 C9.1457,16.5957 8.5627,16.0127 7.8457,16.0127 M7.8457,20.0127 C6.3567,20.0127 5.1457,18.8017 5.1457,17.3127 C5.1457,15.8237 6.3567,14.6127 7.8457,14.6127 C9.3347,14.6127 10.5457,15.8237 10.5457,17.3127 C10.5457,18.8017 9.3347,20.0127 7.8457,20.0127" id="Fill-19" fill="#58595B"></path>
        </g>
    </g>
</svg>