<?xml version="1.0" encoding="UTF-8"?>
<svg width="48px" height="48px" viewBox="0 0 48 48" version="1.1" xmlns="http://www.w3.org/2000/svg" xmlns:xlink="http://www.w3.org/1999/xlink">
    <!-- Generator: Sketch 62 (91390) - https://sketch.com -->
    <title>iconografia/marca/on/mas</title>
    <desc>Created with Sketch.</desc>
    <g id="iconografia/marca/on/mas" stroke="none" stroke-width="1" fill="none" fill-rule="evenodd">
        <g id="Page-1" transform="translate(5.000000, 7.000000)">
            <g id="Group-3" transform="translate(2.000000, 3.677300)" fill="#FCD603">
                <path d="M34.3633,30.0004 L3.3283,30.0004 C2.0403,30.0004 0.9963,28.9554 0.9963,27.6684 L0.9963,3.0774 C0.9963,1.7894 2.0403,0.7454 3.3283,0.7454 L34.3633,0.7454 C35.6513,0.7454 36.6953,1.7894 36.6953,3.0774 L36.6953,27.6684 C36.6953,28.9554 35.6513,30.0004 34.3633,30.0004" id="Fill-1"></path>
            </g>
            <g id="Group-6" transform="translate(0.000000, 17.677300)" fill="#5C5C60">
                <path d="M33.7578,14.5629 L3.9338,14.5629 C1.7648,14.5629 -0.0002,12.7979 -0.0002,10.6289 L-0.0002,4.9929 C-0.0002,4.5019 0.3978,4.1049 0.8878,4.1049 C1.3778,4.1049 1.7758,4.5019 1.7758,4.9929 L1.7758,10.6289 C1.7758,11.8189 2.7438,12.7879 3.9338,12.7879 L33.7578,12.7879 C34.9468,12.7879 35.9158,11.8189 35.9158,10.6289 L35.9158,1.0339 C35.9158,0.5429 36.3138,0.1459 36.8038,0.1459 C37.2938,0.1459 37.6918,0.5429 37.6918,1.0339 L37.6918,10.6289 C37.6918,12.7979 35.9268,14.5629 33.7578,14.5629" id="Fill-4"></path>
            </g>
            <path d="M36.8037,10.6074 C36.3137,10.6074 35.9157,10.2104 35.9157,9.7194 L35.9157,4.9334 C35.9157,4.4434 36.3137,4.0454 36.8037,4.0454 C37.2937,4.0454 37.6917,4.4434 37.6917,4.9334 L37.6917,9.7194 C37.6917,10.2104 37.2937,10.6074 36.8037,10.6074" id="Fill-7" fill="#5C5C60"></path>
            <path d="M36.8037,5.8213 C36.3137,5.8213 35.9157,5.4243 35.9157,4.9333 C35.9157,3.7443 34.9477,2.7753 33.7577,2.7753 C33.2677,2.7753 32.8697,2.3783 32.8697,1.8873 C32.8697,1.3973 33.2677,1.0003 33.7577,1.0003 C35.9267,1.0003 37.6917,2.7643 37.6917,4.9333 C37.6917,5.4243 37.2937,5.8213 36.8037,5.8213" id="Fill-9" fill="#5C5C60"></path>
            <g id="Group-13" transform="translate(0.000000, 0.677300)" fill="#5C5C60">
                <path d="M0.8877,17.142 C0.3977,17.142 -0.0003,16.745 -0.0003,16.254 L-0.0003,4.256 C-0.0003,2.087 1.7647,0.323 3.9337,0.323 L26.9707,0.323 C27.4607,0.323 27.8587,0.72 27.8587,1.21 C27.8587,1.701 27.4607,2.098 26.9707,2.098 L3.9337,2.098 C2.7437,2.098 1.7757,3.067 1.7757,4.256 L1.7757,16.254 C1.7757,16.745 1.3777,17.142 0.8877,17.142" id="Fill-11"></path>
            </g>
            <path d="M19.5127,17.4863 C18.9607,17.4863 18.5127,17.9343 18.5127,18.4863 C18.5127,19.0383 18.9607,19.4863 19.5127,19.4863 C20.0647,19.4863 20.5127,19.0383 20.5127,18.4863 C20.5127,17.9343 20.0647,17.4863 19.5127,17.4863 M19.5127,21.4863 C17.8587,21.4863 16.5127,20.1403 16.5127,18.4863 C16.5127,16.8323 17.8587,15.4863 19.5127,15.4863 C21.1667,15.4863 22.5127,16.8323 22.5127,18.4863 C22.5127,20.1403 21.1667,21.4863 19.5127,21.4863" id="Fill-14" fill="#FFFFFF"></path>
            <path d="M30.5127,17.4863 C29.9607,17.4863 29.5127,17.9343 29.5127,18.4863 C29.5127,19.0383 29.9607,19.4863 30.5127,19.4863 C31.0647,19.4863 31.5127,19.0383 31.5127,18.4863 C31.5127,17.9343 31.0647,17.4863 30.5127,17.4863 M30.5127,21.4863 C28.8587,21.4863 27.5127,20.1403 27.5127,18.4863 C27.5127,16.8323 28.8587,15.4863 30.5127,15.4863 C32.1667,15.4863 33.5127,16.8323 33.5127,18.4863 C33.5127,20.1403 32.1667,21.4863 30.5127,21.4863" id="Fill-16" fill="#FFFFFF"></path>
            <path d="M8.5127,17.4863 C7.9607,17.4863 7.5127,17.9343 7.5127,18.4863 C7.5127,19.0383 7.9607,19.4863 8.5127,19.4863 C9.0647,19.4863 9.5127,19.0383 9.5127,18.4863 C9.5127,17.9343 9.0647,17.4863 8.5127,17.4863 M8.5127,21.4863 C6.8587,21.4863 5.5127,20.1403 5.5127,18.4863 C5.5127,16.8323 6.8587,15.4863 8.5127,15.4863 C10.1667,15.4863 11.5127,16.8323 11.5127,18.4863 C11.5127,20.1403 10.1667,21.4863 8.5127,21.4863" id="Fill-18" fill="#FFFFFF"></path>
            <path d="M30.8457,2.7754 L29.8457,2.7754 C29.3557,2.7754 28.9577,2.3784 28.9577,1.8874 C28.9577,1.3974 29.3557,1.0004 29.8457,1.0004 L30.8457,1.0004 C31.3357,1.0004 31.7337,1.3974 31.7337,1.8874 C31.7337,2.3784 31.3357,2.7754 30.8457,2.7754" id="Fill-20" fill="#5C5C60"></path>
            <circle id="Oval-7" fill="#D8D8D8" cx="8" cy="17" r="2"></circle>
            <circle id="Oval-7" fill="#D8D8D8" cx="19" cy="17" r="2"></circle>
            <circle id="Oval-7" fill="#D8D8D8" cx="30" cy="18" r="2"></circle>
            <path d="M18.8457,16.0127 C18.1287,16.0127 17.5457,16.5957 17.5457,17.3127 C17.5457,18.0297 18.1287,18.6127 18.8457,18.6127 C19.5627,18.6127 20.1457,18.0297 20.1457,17.3127 C20.1457,16.5957 19.5627,16.0127 18.8457,16.0127 M18.8457,20.0127 C17.3567,20.0127 16.1457,18.8017 16.1457,17.3127 C16.1457,15.8237 17.3567,14.6127 18.8457,14.6127 C20.3347,14.6127 21.5457,15.8237 21.5457,17.3127 C21.5457,18.8017 20.3347,20.0127 18.8457,20.0127" id="Fill-22" fill="#58595B"></path>
            <path d="M29.8457,16.0127 C29.1287,16.0127 28.5457,16.5957 28.5457,17.3127 C28.5457,18.0297 29.1287,18.6127 29.8457,18.6127 C30.5627,18.6127 31.1457,18.0297 31.1457,17.3127 C31.1457,16.5957 30.5627,16.0127 29.8457,16.0127 M29.8457,20.0127 C28.3567,20.0127 27.1457,18.8017 27.1457,17.3127 C27.1457,15.8237 28.3567,14.6127 29.8457,14.6127 C31.3347,14.6127 32.5457,15.8237 32.5457,17.3127 C32.5457,18.8017 31.3347,20.0127 29.8457,20.0127" id="Fill-24" fill="#58595B"></path>
            <path d="M7.8457,16.0127 C7.1287,16.0127 6.5457,16.5957 6.5457,17.3127 C6.5457,18.0297 7.1287,18.6127 7.8457,18.6127 C8.5627,18.6127 9.1457,18.0297 9.1457,17.3127 C9.1457,16.5957 8.5627,16.0127 7.8457,16.0127 M7.8457,20.0127 C6.3567,20.0127 5.1457,18.8017 5.1457,17.3127 C5.1457,15.8237 6.3567,14.6127 7.8457,14.6127 C9.3347,14.6127 10.5457,15.8237 10.5457,17.3127 C10.5457,18.8017 9.3347,20.0127 7.8457,20.0127" id="Fill-26" fill="#58595B"></path>
        </g>
    </g>
</svg>