<?xml version="1.0" encoding="UTF-8"?>
<svg width="48px" height="48px" viewBox="0 0 48 48" version="1.1" xmlns="http://www.w3.org/2000/svg" xmlns:xlink="http://www.w3.org/1999/xlink">
    <!-- Generator: Sketch 62 (91390) - https://sketch.com -->
    <title>iconografia/marca/on/monedas</title>
    <desc>Created with Sketch.</desc>
    <defs>
        <polygon id="path-1" points="0.601773795 0.17128844 26.894 0.17128844 26.894 15.9996 0.601773795 15.9996"></polygon>
        <polygon id="path-3" points="0 0.646 29.5334047 0.646 29.5334047 22.6148 0 22.6148"></polygon>
    </defs>
    <g id="iconografia/marca/on/monedas" stroke="none" stroke-width="1" fill="none" fill-rule="evenodd">
        <g id="Page-1" transform="translate(4.000000, 12.000000)">
            <path d="M28.4676,7.8893 C35.0296,8.2073 40.0626,10.0753 40.0626,12.3323 C40.0626,14.8083 33.9796,16.8183 26.4696,16.8183 C25.4436,16.8183 24.4416,16.7833 23.4796,16.7073" id="Fill-1" fill="#FCD600"></path>
            <path d="M1.7019,15.8072 C1.7019,15.8072 2.5579,16.4822 5.4559,16.8182 C8.3549,17.1542 12.9169,16.8022 14.4379,16.3132 C15.9589,15.8242 21.8969,13.2372 23.2289,11.8932 C24.5619,10.5492 26.1819,8.8962 26.5189,7.8892 C26.8569,6.8822 27.1669,6.6052 27.1669,6.6052 L28.8179,11.4042 C28.8179,11.4042 27.9779,15.4162 26.2219,16.8172 C24.4659,18.2192 19.1109,20.9122 17.2629,21.2892 C15.4159,21.6642 8.8829,22.5132 7.3589,22.1552 C5.8369,21.7972 3.3649,20.5732 3.0329,20.1462 C2.6999,19.7202 1.7019,15.8072 1.7019,15.8072" id="Fill-3" fill="#B4B4B4"></path>
            <path d="M13.0164,4.3038 C19.5194,2.1598 25.6204,2.9488 26.6414,6.0668 C27.6634,9.1848 23.2194,13.4508 16.7154,15.5958 C10.2124,17.7398 4.1134,16.9508 3.0904,13.8328 C2.0694,10.7148 6.5124,6.4478 13.0164,4.3038" id="Fill-5" fill="#FCD600"></path>
            <path d="M24.0926,18.1988 C24.0926,18.1988 26.9056,18.2878 28.6876,18.2668 C30.4676,18.2468 35.7056,17.2908 37.0716,16.8188 C38.4366,16.3468 40.0636,15.1948 40.0636,15.1948 C40.0636,15.1948 40.7056,17.5858 40.3726,18.4958 C40.0386,19.4068 40.1866,20.0298 38.8596,20.9138 C37.5326,21.7978 33.5776,22.9778 31.8496,23.1778 C30.1186,23.3778 25.2256,23.8448 22.5166,23.5408 C19.8086,23.2368 16.4336,22.1558 16.4336,22.1558 L16.0106,21.5058 L24.0926,18.1988 Z" id="Fill-7" fill="#FFFFFF"></path>
            <g id="Group-11" transform="translate(14.000000, 8.354100)">
                <mask id="mask-2" fill="white">
                    <use xlink:href="#path-1"></use>
                </mask>
                <g id="Clip-10"></g>
                <path d="M26.8387,5.1206 C26.4517,2.1026 20.4627,0.4606 14.5067,0.1716 C14.1007,0.1596 13.6777,0.4956 13.6547,0.9446 C13.6337,1.3926 13.9797,1.7746 14.4287,1.7966 C21.4877,2.1396 25.2487,4.1246 25.2487,5.4276 C25.2487,6.9606 20.3877,9.0996 12.4697,9.0996 C11.4447,9.0996 10.4597,9.0636 9.5427,8.9926 C9.1007,8.9616 8.7027,9.2926 8.6677,9.7406 C8.6337,10.1876 8.9687,10.5796 9.4157,10.6146 C10.3757,10.6886 11.4027,10.7266 12.4697,10.7266 C17.5907,10.7266 22.7407,9.7906 25.2677,7.9866 L25.2677,10.6996 C25.2677,12.2336 20.4047,14.3726 12.4857,14.3726 C8.2377,14.3726 4.2257,13.6996 1.7537,12.5706 C1.3427,12.3826 0.8607,12.5646 0.6757,12.9726 C0.4887,13.3816 0.6687,13.8636 1.0777,14.0506 C3.7907,15.2896 7.9487,15.9996 12.4857,15.9996 C19.6467,15.9996 26.8947,14.1796 26.8947,10.6996 L26.8947,5.3976 C26.8947,5.2996 26.8697,5.2076 26.8387,5.1206" id="Fill-9" fill="#5C5C60" mask="url(#mask-2)"></path>
            </g>
            <path d="M3.1199,8.1754 C3.2799,8.3354 3.4899,8.4154 3.6999,8.4154 C3.9099,8.4154 4.1199,8.3354 4.2699,8.1754 C4.4299,8.0254 4.5099,7.8154 4.5099,7.6054 C4.5099,7.3954 4.4299,7.1854 4.2699,7.0254 C4.1999,6.9554 4.1099,6.8954 4.0099,6.8554 C3.8099,6.7654 3.5899,6.7754 3.3899,6.8554 C3.2899,6.8954 3.1999,6.9554 3.1199,7.0254 C2.9699,7.1854 2.8799,7.3954 2.8799,7.6054 C2.8799,7.7054 2.8999,7.8154 2.9499,7.9154 C2.9899,8.0154 3.0499,8.1054 3.1199,8.1754" id="Fill-12" fill="#5C5C60"></path>
            <g id="Group-16" transform="translate(0.000000, 0.354100)">
                <mask id="mask-4" fill="white">
                    <use xlink:href="#path-3"></use>
                </mask>
                <g id="Clip-15"></g>
                <path d="M17.4148,19.7158 C15.5098,20.3468 13.6158,20.7528 11.7988,20.9228 C9.0608,21.1368 7.1498,20.7468 7.1288,20.7418 C5.1638,20.3318 3.8738,19.4768 3.4978,18.3378 L2.8078,16.2198 C3.7148,16.6668 4.8118,16.9868 6.0978,17.1498 C6.7768,17.2368 7.4918,17.2788 8.2318,17.2788 C10.6928,17.2788 13.4418,16.8078 16.1798,15.9018 C21.5278,14.1318 25.5698,11.1458 27.0948,8.1808 L27.7878,10.3068 C28.7508,13.2258 24.0008,17.5348 17.4148,19.7158 M29.3338,9.7998 L27.5858,4.4398 C27.5628,4.3698 27.5198,4.3148 27.4808,4.2558 C26.0338,0.5168 19.1328,-0.4742 11.5858,2.0208 C9.1838,2.8168 6.9288,3.9068 5.0628,5.1758 C4.6918,5.4288 4.5958,5.9348 4.8488,6.3058 C5.1018,6.6768 5.6038,6.7748 5.9788,6.5208 C7.7208,5.3358 9.8358,4.3138 12.0978,3.5658 C19.3558,1.1648 25.1528,2.3418 26.0158,4.9458 C26.8778,7.5518 22.9258,11.9548 15.6678,14.3568 C12.3338,15.4608 9.0068,15.8808 6.3028,15.5358 C3.8498,15.2248 2.1928,14.2958 1.7528,12.9868 L1.7498,12.9768 C1.7498,12.9748 1.7478,12.9748 1.7478,12.9728 C1.3448,11.7428 2.0388,10.4258 2.6938,9.5368 C2.9608,9.1748 2.8838,8.6658 2.5208,8.3998 C2.1588,8.1328 1.6508,8.2118 1.3838,8.5718 C0.1178,10.2908 -0.2902,11.9908 0.2038,13.4878 C0.2048,13.4918 0.2078,13.4958 0.2098,13.4998 L1.9518,18.8438 C2.5188,20.5608 4.2388,21.7998 6.7938,22.3348 C6.8608,22.3488 8.1408,22.6148 10.1378,22.6148 C10.6858,22.6148 11.2898,22.5938 11.9368,22.5438 C13.8898,22.3618 15.9038,21.9298 17.9268,21.2608 C25.6038,18.7178 30.6148,13.6828 29.3338,9.7998" id="Fill-14" fill="#5C5C60" mask="url(#mask-4)"></path>
            </g>
            <path d="M16.7849,9.3873 C16.9159,9.6603 16.9109,9.8693 16.7669,10.1083 C16.5029,10.5483 15.8659,10.9503 15.0939,11.2933 L14.6059,9.6823 C15.4519,9.4493 16.5439,9.1893 16.7849,9.3873 M10.7279,8.7413 C10.6399,8.5133 10.6519,8.3303 10.7669,8.1273 C10.9849,7.7453 11.4919,7.3943 12.1199,7.0823 L12.5669,8.5623 C11.7849,8.7633 10.9319,8.9323 10.7279,8.7413 M16.7859,4.9203 C16.7119,4.4773 16.2939,4.1743 15.8499,4.2503 C15.5939,4.2933 14.3769,4.5103 13.0439,4.9553 C12.8389,4.7683 12.5519,4.6803 12.2679,4.7653 C11.9359,4.8663 11.7219,5.1583 11.6969,5.4843 C10.6999,5.9453 9.7959,6.5473 9.3539,7.3223 C8.9949,7.9503 8.9459,8.6453 9.2129,9.3303 C9.7729,10.7663 11.3939,10.5543 13.0399,10.1203 L13.5639,11.8523 C12.4539,12.1873 11.3469,12.3953 10.7369,12.4183 C10.2879,12.4363 9.9379,12.8143 9.9559,13.2633 C9.9729,13.7013 10.3329,14.0453 10.7669,14.0453 C10.7779,14.0453 10.7889,14.0453 10.7999,14.0443 C11.3519,14.0233 12.6979,13.8163 14.1099,13.3893 C14.2639,13.5663 14.4819,13.6763 14.7199,13.6763 C14.7979,13.6763 14.8769,13.6653 14.9549,13.6413 C15.2999,13.5373 15.5139,13.2253 15.5219,12.8853 C16.6519,12.4073 17.6659,11.7703 18.1609,10.9483 C18.5899,10.2363 18.6209,9.4533 18.2519,8.6833 C17.5899,7.3013 15.8299,7.6483 14.1349,8.1233 L13.6359,6.4753 C14.5089,6.1893 15.4149,5.9733 16.1169,5.8563 C16.5589,5.7823 16.8589,5.3633 16.7859,4.9203" id="Fill-17" fill="#5C5C60"></path>
        </g>
    </g>
</svg>