<?xml version="1.0" encoding="UTF-8"?>
<svg width="48px" height="48px" viewBox="0 0 48 48" version="1.1" xmlns="http://www.w3.org/2000/svg" xmlns:xlink="http://www.w3.org/1999/xlink">
    <!-- Generator: Sketch 62 (91390) - https://sketch.com -->
    <title>iconografia/marca/off/monedas</title>
    <desc>Created with Sketch.</desc>
    <defs>
        <polygon id="path-1" points="0 0.646 40.8946 0.646 40.8946 24 0 24"></polygon>
    </defs>
    <g id="iconografia/marca/off/monedas" stroke="none" stroke-width="1" fill="none" fill-rule="evenodd">
        <g id="Page-1" transform="translate(4.000000, 12.000000)">
            <path d="M8.834,21.5658 C8.685,21.7158 8.605,21.9258 8.605,22.1458 C8.605,22.3558 8.685,22.5658 8.834,22.7158 C8.984,22.8658 9.194,22.9558 9.414,22.9558 C9.624,22.9558 9.834,22.8658 9.984,22.7158 C10.145,22.5658 10.225,22.3558 10.225,22.1458 C10.225,21.9258 10.145,21.7158 9.984,21.5658 C9.685,21.2658 9.135,21.2658 8.834,21.5658" id="Fill-1" fill="#5C5C60"></path>
            <g id="Group-5" transform="translate(0.000000, 0.354400)">
                <mask id="mask-2" fill="white">
                    <use xlink:href="#path-1"></use>
                </mask>
                <g id="Clip-4"></g>
                <path d="M39.2676,18.6992 C39.2676,20.2332 34.4056,22.3732 26.4876,22.3732 C23.2606,22.3732 20.1746,21.9832 17.7916,21.3012 C17.8356,21.2862 17.8806,21.2752 17.9256,21.2612 C20.0676,20.5522 21.9906,19.6442 23.6376,18.6272 C24.5366,18.6912 25.4836,18.7262 26.4696,18.7262 C31.5906,18.7262 36.7416,17.7902 39.2676,15.9872 L39.2676,18.6992 Z M29.3476,9.8552 C35.8086,10.3182 39.2486,12.1832 39.2486,13.4272 C39.2486,14.9602 34.3876,17.0992 26.4696,17.0992 C26.2456,17.0992 26.0306,17.0912 25.8096,17.0882 C28.6366,14.7702 30.0596,12.1222 29.3476,9.8552 L29.3476,9.8552 Z M15.6676,14.3572 C12.3336,15.4612 9.0116,15.8812 6.3026,15.5352 C3.8496,15.2242 2.1916,14.2942 1.7526,12.9842 L1.7506,12.9762 C1.7506,12.9752 1.7496,12.9742 1.7486,12.9732 C1.3156,11.6592 2.0906,9.9222 3.8766,8.2062 C5.8436,6.3172 8.7626,4.6692 12.0976,3.5662 C19.3556,1.1662 25.1546,2.3422 26.0166,4.9462 C26.8786,7.5522 22.9256,11.9552 15.6676,14.3572 L15.6676,14.3572 Z M40.8386,13.1202 C40.4586,10.1542 34.6636,8.5192 28.8096,8.1902 L27.5866,4.4402 C27.5646,4.3702 27.5216,4.3142 27.4826,4.2562 C26.0356,0.5172 19.1346,-0.4748 11.5856,2.0212 C8.0256,3.1992 4.8876,4.9792 2.7496,7.0332 C0.4596,9.2342 -0.4444,11.5262 0.2046,13.4882 C0.2056,13.4922 0.2086,13.4952 0.2106,13.5002 L1.9526,18.8442 C2.5186,20.5602 4.2386,21.8002 6.7966,22.3352 C6.8526,22.3462 6.9086,22.3522 6.9636,22.3522 C7.3406,22.3522 7.6786,22.0892 7.7586,21.7052 C7.8516,21.2652 7.5696,20.8342 7.1286,20.7422 C5.1636,20.3312 3.8736,19.4762 3.4976,18.3372 L2.8076,16.2202 C3.7146,16.6662 4.8136,16.9872 6.0986,17.1502 C6.7786,17.2362 7.4936,17.2792 8.2336,17.2792 C10.6946,17.2792 13.4436,16.8072 16.1796,15.9022 C21.5286,14.1322 25.5716,11.1452 27.0956,8.1802 L27.7886,10.3072 C28.7516,13.2262 24.0006,17.5352 17.4136,19.7162 C15.5096,20.3472 13.6166,20.7532 11.7886,20.9232 C11.3406,20.9652 11.0116,21.3612 11.0536,21.8082 C11.0926,22.2302 11.4476,22.5472 11.8626,22.5472 C11.8876,22.5472 11.9136,22.5462 11.9386,22.5432 C12.9676,22.4482 14.0146,22.2782 15.0706,22.0452 C15.0736,22.0462 15.0756,22.0492 15.0786,22.0512 C17.7926,23.2892 21.9516,24.0002 26.4876,24.0002 C33.6466,24.0002 40.8946,22.1792 40.8946,18.6992 L40.8946,13.3972 C40.8946,13.2992 40.8706,13.2082 40.8386,13.1202 L40.8386,13.1202 Z" id="Fill-3" fill="#5C5C60" mask="url(#mask-2)"></path>
            </g>
            <path d="M17.2784,10.3007 C16.9414,10.8607 16.1484,11.3487 15.2084,11.7527 L14.5804,9.6787 C15.6514,9.3787 17.1324,9.0147 17.3044,9.3717 C17.4704,9.7177 17.4634,9.9957 17.2784,10.3007 M10.2014,8.7247 C10.0894,8.4357 10.1044,8.1907 10.2524,7.9307 C10.5244,7.4527 11.1634,7.0147 11.9594,6.6347 L12.5424,8.5617 C11.5174,8.8317 10.3394,9.0717 10.2014,8.7247 M18.7714,8.6677 C18.0394,7.1417 16.0974,7.5567 14.1084,8.1207 L13.4754,6.0317 C14.5094,5.6857 15.5914,5.4277 16.4234,5.2897 C16.8664,5.2167 17.1664,4.7977 17.0924,4.3537 C17.0184,3.9107 16.6014,3.6097 16.1574,3.6847 C15.8634,3.7337 14.4514,3.9847 12.9214,4.5007 C12.7164,4.2797 12.3994,4.1767 12.0924,4.2677 C11.7424,4.3737 11.5284,4.6967 11.5264,5.0447 C10.3824,5.5627 9.3404,6.2457 8.8394,7.1257 C8.4484,7.8107 8.3944,8.5687 8.6854,9.3157 C9.3004,10.8947 11.1534,10.6227 13.0144,10.1217 L13.6754,12.3047 C12.3154,12.7177 10.9594,12.9607 10.3214,12.9857 C9.8724,13.0027 9.5224,13.3807 9.5404,13.8297 C9.5564,14.2677 9.9174,14.6117 10.3514,14.6117 C10.3624,14.6117 10.3734,14.6117 10.3834,14.6117 C11.0164,14.5867 12.5714,14.3477 14.1894,13.8537 C14.3404,14.0657 14.5884,14.1937 14.8504,14.1937 C14.9284,14.1937 15.0074,14.1817 15.0864,14.1587 C15.4534,14.0477 15.6684,13.6997 15.6474,13.3337 C16.9424,12.7957 18.1084,12.0747 18.6724,11.1407 C19.1404,10.3637 19.1744,9.5087 18.7714,8.6677" id="Fill-6" fill="#5C5C60"></path>
        </g>
    </g>
</svg>