<?xml version="1.0" encoding="UTF-8"?>
<svg width="48px" height="48px" viewBox="0 0 48 48" version="1.1" xmlns="http://www.w3.org/2000/svg" xmlns:xlink="http://www.w3.org/1999/xlink">
    <!-- Generator: Sketch 62 (91390) - https://sketch.com -->
    <title>iconografia/marca/off/monto-minimo</title>
    <desc>Created with Sketch.</desc>
    <g id="iconografia/marca/off/monto-minimo" stroke="none" stroke-width="1" fill="none" fill-rule="evenodd">
        <g id="Page-1" transform="translate(4.000000, 8.000000)" fill="#5D5D61">
            <path d="M23.7021,30.1285 C15.8441,30.1285 9.4511,23.7355 9.4511,15.8785 C9.4511,8.0205 15.8441,1.6275 23.7021,1.6275 C31.5601,1.6275 37.9521,8.0205 37.9521,15.8785 C37.9521,23.7355 31.5601,30.1285 23.7021,30.1285 M23.7021,0.0005 C22.3621,0.0005 21.0671,0.1855 19.8231,0.4995 C18.5381,0.1715 17.2131,0.0005 15.8771,0.0005 C7.1221,0.0005 0.0001,7.1225 0.0001,15.8775 C0.0001,18.0205 0.4201,20.1005 1.2481,22.0585 C1.3791,22.3685 1.6811,22.5545 1.9981,22.5545 C2.1031,22.5545 2.2111,22.5345 2.3141,22.4905 C2.7281,22.3155 2.9221,21.8375 2.7461,21.4245 C2.0041,19.6685 1.6271,17.8015 1.6271,15.8775 C1.6271,8.0195 8.0191,1.6275 15.8771,1.6275 C16.1491,1.6275 16.4211,1.6385 16.6911,1.6535 C11.4471,4.2495 7.8241,9.6415 7.8241,15.8785 C7.8241,22.1145 11.4471,27.5075 16.6921,30.1025 C16.4211,30.1175 16.1491,30.1285 15.8771,30.1285 C11.9271,30.1285 8.2531,28.5485 5.5331,25.6795 C5.2231,25.3535 4.7081,25.3405 4.3831,25.6495 C4.0561,25.9585 4.0431,26.4735 4.3521,26.7985 C7.3831,29.9955 11.4761,31.7555 15.8771,31.7555 C17.2151,31.7555 18.5411,31.5845 19.8231,31.2565 C21.0671,31.5705 22.3621,31.7555 23.7021,31.7555 C32.4571,31.7555 39.5791,24.6325 39.5791,15.8785 C39.5791,7.1235 32.4571,0.0005 23.7021,0.0005" id="Fill-1"></path>
            <path d="M24.6382,20.6582 L24.6382,17.1662 C26.1152,17.6272 26.5372,18.1452 26.5372,18.9892 C26.5372,19.9092 25.8662,20.5232 24.6382,20.6582 L24.6382,20.6582 Z M23.1222,14.4992 C21.6452,14.0192 21.2802,13.5212 21.2802,12.7152 C21.2802,11.8712 21.8942,11.2182 23.1222,11.1032 L23.1222,14.4992 Z M24.6382,14.9022 L24.6382,11.2182 C25.2902,11.3722 25.9422,11.6602 26.6142,12.0632 C26.8062,12.1772 26.9982,12.2352 27.1902,12.2352 C27.7842,12.2352 28.2642,11.7752 28.2642,11.1802 C28.2642,10.7192 27.9952,10.4322 27.6892,10.2592 C26.8062,9.7022 25.8472,9.3382 24.7152,9.2042 L24.7152,8.7822 C24.7152,8.3212 24.3502,7.9562 23.8902,7.9562 C23.4292,7.9562 23.0452,8.3212 23.0452,8.7822 L23.0452,9.1852 C20.6472,9.3762 19.0162,10.7962 19.0162,12.8492 C19.0162,15.0172 20.3212,16.0722 23.1222,16.8022 L23.1222,20.5812 C22.0672,20.3892 21.1842,19.9482 20.2832,19.2962 C20.1102,19.1612 19.8802,19.0852 19.6492,19.0852 C19.0552,19.0852 18.5942,19.5452 18.5942,20.1402 C18.5942,20.5432 18.7862,20.8502 19.1122,21.0612 C20.2832,21.8862 21.6062,22.4042 23.0452,22.5572 L23.0452,23.7472 C23.0452,24.2072 23.4292,24.5722 23.8902,24.5722 C24.3502,24.5722 24.7152,24.2072 24.7152,23.7472 L24.7152,22.5962 C27.1512,22.3652 28.8012,20.9652 28.8012,18.8552 C28.8012,16.8022 27.5542,15.6312 24.6382,14.9022 L24.6382,14.9022 Z" id="Fill-3"></path>
            <path d="M3.3145,23.4668 C3.1245,23.3868 2.8945,23.3868 2.6945,23.4668 C2.5945,23.5068 2.5045,23.5668 2.4345,23.6468 C2.2845,23.7968 2.1945,24.0068 2.1945,24.2168 C2.1945,24.3268 2.2145,24.4268 2.2545,24.5268 C2.2945,24.6268 2.3545,24.7168 2.4345,24.7968 C2.5045,24.8668 2.5945,24.9268 2.6945,24.9668 C2.7945,25.0068 2.9045,25.0368 3.0045,25.0368 C3.1145,25.0368 3.2145,25.0168 3.3145,24.9668 C3.4145,24.9268 3.5045,24.8668 3.5845,24.7968 C3.6545,24.7168 3.7145,24.6268 3.7545,24.5268 C3.7945,24.4368 3.8245,24.3268 3.8245,24.2168 C3.8245,24.0068 3.7345,23.7968 3.5845,23.6468 C3.5045,23.5668 3.4145,23.5068 3.3145,23.4668" id="Fill-5"></path>
        </g>
    </g>
</svg>