<?xml version="1.0" encoding="UTF-8"?>
<svg width="48px" height="48px" viewBox="0 0 48 48" version="1.1" xmlns="http://www.w3.org/2000/svg" xmlns:xlink="http://www.w3.org/1999/xlink">
    <!-- Generator: Sketch 62 (91390) - https://sketch.com -->
    <title>iconografia/marca/on/monto-minimo</title>
    <desc>Created with Sketch.</desc>
    <defs>
        <polygon id="path-1" points="0.3102 0.872 38.262 0.872 38.262 31 0.3102 31"></polygon>
        <polygon id="path-3" points="0 0.0072 39.4488 0.0072 39.4488 31.7622 0 31.7622"></polygon>
    </defs>
    <g id="iconografia/marca/on/monto-minimo" stroke="none" stroke-width="1" fill="none" fill-rule="evenodd">
        <g id="Page-1" transform="translate(4.000000, 7.000000)">
            <g id="Group-3" transform="translate(2.000000, 2.993300)">
                <mask id="mask-2" fill="white">
                    <use xlink:href="#path-1"></use>
                </mask>
                <g id="Clip-2"></g>
                <path d="M23.1982,0.872 C21.8452,0.872 20.5342,1.053 19.2862,1.388 L19.2862,1.385 C18.0392,1.05 16.7272,0.872 15.3742,0.872 C7.0542,0.872 0.3102,7.616 0.3102,15.936 C0.3102,24.256 7.0542,31 15.3742,31 C16.7272,31 18.0382,30.822 19.2862,30.487 L19.2862,30.484 C20.5342,30.819 21.8452,31 23.1982,31 C31.5182,31 38.2622,24.256 38.2622,15.936 C38.2622,7.616 31.5182,0.872 23.1982,0.872" id="Fill-1" fill="#FCD600" mask="url(#mask-2)"></path>
            </g>
            <path d="M24.5083,18.1665 L24.5083,21.6585 C25.7363,21.5235 26.4073,20.9095 26.4073,19.9895 C26.4073,19.1455 25.9853,18.6275 24.5083,18.1665 M22.9923,15.4995 L22.9923,12.1035 C21.7643,12.2185 21.1503,12.8715 21.1503,13.7155 C21.1503,14.5215 21.5153,15.0195 22.9923,15.4995 M23.7603,8.9565 C24.2203,8.9565 24.5853,9.3215 24.5853,9.7825 L24.5853,10.2045 C25.7173,10.3385 26.6763,10.7025 27.5593,11.2595 C27.8653,11.4325 28.1343,11.7195 28.1343,12.1805 C28.1343,12.7755 27.6543,13.2355 27.0603,13.2355 C26.8683,13.2355 26.6763,13.1775 26.4843,13.0635 C25.8123,12.6605 25.1603,12.3725 24.5083,12.2185 L24.5083,15.9025 C27.4243,16.6315 28.6713,17.8025 28.6713,19.8555 C28.6713,21.9655 27.0213,23.3655 24.5853,23.5965 L24.5853,24.7475 C24.5853,25.2075 24.2203,25.5725 23.7603,25.5725 C23.2993,25.5725 22.9153,25.2075 22.9153,24.7475 L22.9153,23.5575 C21.4763,23.4045 20.1533,22.8865 18.9823,22.0615 C18.6563,21.8505 18.4643,21.5435 18.4643,21.1405 C18.4643,20.5455 18.9253,20.0855 19.5193,20.0855 C19.7503,20.0855 19.9803,20.1615 20.1533,20.2965 C21.0543,20.9485 21.9373,21.3895 22.9923,21.5815 L22.9923,17.8025 C20.1913,17.0725 18.8863,16.0175 18.8863,13.8495 C18.8863,11.7965 20.5173,10.3765 22.9153,10.1855 L22.9153,9.7825 C22.9153,9.3215 23.2993,8.9565 23.7603,8.9565" id="Fill-4" fill="#FFFFFF"></path>
            <g id="Group-8" transform="translate(0.000000, 0.993300)">
                <mask id="mask-4" fill="white">
                    <use xlink:href="#path-3"></use>
                </mask>
                <g id="Clip-7"></g>
                <path d="M23.5718,30.1352 C22.3388,30.1352 21.1488,29.9612 20.0068,29.6662 C19.9628,29.6532 19.9208,29.6362 19.8738,29.6312 C13.8058,27.9972 9.3208,22.4622 9.3208,15.8852 C9.3208,9.3072 13.8058,3.7722 19.8738,2.1382 C19.9208,2.1332 19.9618,2.1162 20.0058,2.1042 C21.1478,1.8082 22.3388,1.6342 23.5718,1.6342 C31.4298,1.6342 37.8218,8.0272 37.8218,15.8852 C37.8218,23.7422 31.4298,30.1352 23.5718,30.1352 M23.5718,0.0072 C22.2538,0.0072 20.9798,0.1862 19.7548,0.4902 C18.4918,0.1742 17.1898,0.0072 15.8778,0.0072 C7.1228,0.0072 -0.0002,7.1292 -0.0002,15.8842 C-0.0002,18.0272 0.4198,20.1072 1.2488,22.0652 C1.3798,22.3752 1.6808,22.5612 1.9978,22.5612 C2.1038,22.5612 2.2108,22.5412 2.3148,22.4972 C2.7288,22.3222 2.9218,21.8442 2.7468,21.4312 C2.0038,19.6752 1.6268,17.8082 1.6268,15.8842 C1.6268,8.0262 8.0198,1.6342 15.8778,1.6342 C16.1088,1.6342 16.3388,1.6452 16.5698,1.6562 C11.3208,4.2502 7.6938,9.6452 7.6938,15.8852 C7.6938,22.1242 11.3208,27.5192 16.5698,30.1132 C16.3398,30.1242 16.1088,30.1352 15.8778,30.1352 C11.9258,30.1352 8.2528,28.5552 5.5328,25.6862 C5.2248,25.3602 4.7088,25.3462 4.3838,25.6562 C4.0568,25.9652 4.0438,26.4792 4.3528,26.8052 C7.3818,30.0022 11.4748,31.7622 15.8778,31.7622 C17.1918,31.7622 18.4938,31.5952 19.7548,31.2792 C20.9798,31.5832 22.2538,31.7622 23.5718,31.7622 C32.3268,31.7622 39.4488,24.6392 39.4488,15.8852 C39.4488,7.1302 32.3268,0.0072 23.5718,0.0072" id="Fill-6" fill="#5D5D61" mask="url(#mask-4)"></path>
            </g>
            <path d="M3.5854,24.6465 C3.3554,24.4165 2.9954,24.3465 2.6954,24.4665 C2.5954,24.5065 2.5054,24.5665 2.4354,24.6465 C2.3554,24.7165 2.2954,24.8065 2.2554,24.9065 C2.2154,25.0065 2.1954,25.1165 2.1954,25.2165 C2.1954,25.3265 2.2154,25.4265 2.2554,25.5265 C2.2954,25.6265 2.3554,25.7165 2.4354,25.7965 C2.5854,25.9465 2.7954,26.0365 3.0054,26.0365 C3.2254,26.0365 3.4354,25.9465 3.5854,25.7965 C3.6554,25.7165 3.7154,25.6265 3.7554,25.5265 C3.7954,25.4265 3.8254,25.3265 3.8254,25.2165 C3.8254,25.1165 3.7954,25.0065 3.7554,24.9065 C3.7154,24.8065 3.6554,24.7165 3.5854,24.6465" id="Fill-9" fill="#5D5D61"></path>
        </g>
    </g>
</svg>