<?xml version="1.0" encoding="UTF-8"?>
<svg width="48px" height="48px" viewBox="0 0 48 48" version="1.1" xmlns="http://www.w3.org/2000/svg" xmlns:xlink="http://www.w3.org/1999/xlink">
    <!-- Generator: Sketch 62 (91390) - https://sketch.com -->
    <title>iconografia/marca/on/mouse</title>
    <desc>Created with Sketch.</desc>
    <defs>
        <polygon id="path-1" points="0.1752 0.6938 17.394 0.6938 17.394 28.4698 0.1752 28.4698"></polygon>
        <polygon id="path-3" points="0.0001 0.958092202 30.7901 0.958092202 30.7901 41 0.0001 41"></polygon>
    </defs>
    <g id="iconografia/marca/on/mouse" stroke="none" stroke-width="1" fill="none" fill-rule="evenodd">
        <g id="Page-1" transform="translate(8.000000, 3.000000)">
            <g id="Group-3" transform="translate(14.000000, 12.041600)">
                <mask id="mask-2" fill="white">
                    <use xlink:href="#path-1"></use>
                </mask>
                <g id="Clip-2"></g>
                <path d="M8.7852,0.6938 C2.4302,0.6938 0.1752,4.8338 0.1752,8.3788 L0.1752,20.7838 C0.1752,24.3298 2.4302,28.4698 8.7852,28.4698 C15.1402,28.4698 17.3942,24.3298 17.3942,20.7838 L17.3942,8.3798 C17.3942,4.8338 15.1402,0.6938 8.7852,0.6938" id="Fill-1" fill="#FCD600" mask="url(#mask-2)"></path>
            </g>
            <path d="M21.2964,17.296 C20.4664,17.296 19.7934,17.96 19.7934,18.78 L19.7934,21.515 C19.7934,22.334 20.4664,22.999 21.2964,22.999 C22.1264,22.999 22.7994,22.334 22.7994,21.515 L22.7994,18.78 C22.7994,17.96 22.1264,17.296 21.2964,17.296" id="Fill-4" fill="#FFFFFF"></path>
            <path d="M14.833,36.9244 C14.763,36.8444 14.673,36.7844 14.573,36.7444 C14.373,36.6644 14.153,36.6644 13.953,36.7444 C13.853,36.7844 13.763,36.8444 13.683,36.9244 C13.613,36.9944 13.553,37.0844 13.513,37.1854 C13.473,37.2844 13.443,37.3844 13.443,37.4944 C13.443,37.7144 13.533,37.9144 13.683,38.0654 C13.763,38.1454 13.853,38.2044 13.953,38.2444 C14.053,38.2844 14.153,38.3044 14.263,38.3044 C14.483,38.3044 14.683,38.2254 14.833,38.0654 C14.993,37.9144 15.073,37.7144 15.073,37.4944 C15.073,37.3844 15.053,37.2844 15.013,37.1854 C14.973,37.0844 14.913,36.9944 14.833,36.9244" id="Fill-6" fill="#5C5C60"></path>
            <g id="Group-10" transform="translate(0.000000, 0.041600)">
                <mask id="mask-4" fill="white">
                    <use xlink:href="#path-3"></use>
                </mask>
                <g id="Clip-9"></g>
                <path d="M22.7441,11.3872 L22.7441,7.7832 C22.7441,4.0562 19.7511,0.9952 16.0721,0.958092202 C14.2511,0.9482 12.5481,1.6342 11.2581,2.9112 C9.9731,4.1842 9.2651,5.8772 9.2651,7.6792 L9.2651,23.9382 C9.2651,24.9392 8.8701,25.8792 8.1531,26.5852 C7.4311,27.2962 6.4721,27.6722 5.4621,27.6632 C3.4301,27.6322 1.7761,25.9172 1.7761,23.8402 L1.7761,21.8142 C1.7761,21.3242 1.3781,20.9272 0.8881,20.9272 C0.3981,20.9272 0.0001,21.3242 0.0001,21.8142 L0.0001,23.8402 C0.0001,26.8812 2.4381,29.3922 5.4341,29.4382 C5.4641,29.4392 5.4931,29.4392 5.5221,29.4392 C6.9831,29.4392 8.3561,28.8772 9.3991,27.8502 C10.4581,26.8082 11.0411,25.4192 11.0411,23.9382 L11.0411,7.6792 C11.0411,6.3552 11.5611,5.1102 12.5081,4.1742 C13.4581,3.2322 14.6981,2.6982 16.0541,2.7352 C18.7641,2.7612 20.9681,5.0262 20.9681,7.7832 L20.9681,11.3092 C14.5751,11.4332 11.7021,15.6872 11.7021,19.9132 L11.7021,32.3852 C11.7021,33.4442 11.8781,34.4722 12.2241,35.4412 C12.3891,35.9032 12.8971,36.1432 13.3591,35.9782 C13.8211,35.8132 14.0621,35.3052 13.8961,34.8442 C13.6231,34.0782 13.4781,33.2272 13.4781,32.3852 L13.4781,19.9132 C13.4781,16.6072 15.5191,13.0742 21.2461,13.0742 C26.9731,13.0742 29.0141,16.6072 29.0141,19.9132 L29.0141,32.3852 C29.0141,35.6912 26.9731,39.2242 21.2461,39.2242 C19.5021,39.2242 18.0041,38.8922 16.7961,38.2382 C16.3631,38.0062 15.8261,38.1652 15.5931,38.5962 C15.3591,39.0282 15.5191,39.5672 15.9511,39.8012 C17.4221,40.5962 19.2031,41.0002 21.2461,41.0002 C27.8391,41.0002 30.7901,36.6732 30.7901,32.3852 L30.7901,19.9132 C30.7901,15.9662 28.2821,11.9962 22.7441,11.3872" id="Fill-8" fill="#5C5C60" mask="url(#mask-4)"></path>
            </g>
            <path d="M20.6816,18.7799 C20.6816,18.4509 20.9576,18.1839 21.2966,18.1839 C21.6356,18.1839 21.9106,18.4509 21.9106,18.7799 L21.9106,21.5149 C21.9106,21.8429 21.6356,22.1109 21.2966,22.1109 C20.9576,22.1109 20.6816,21.8429 20.6816,21.5149 L20.6816,18.7799 Z M15.5496,25.3029 C15.0586,25.3029 14.6606,25.7009 14.6606,26.1909 C14.6606,26.6809 15.0586,27.0789 15.5496,27.0789 L26.9436,27.0789 C27.4336,27.0789 27.8316,26.6809 27.8316,26.1909 C27.8316,25.7009 27.4336,25.3029 26.9436,25.3029 L22.1346,25.3029 L22.1346,23.7279 C23.0386,23.3889 23.6876,22.5289 23.6876,21.5149 L23.6876,18.7799 C23.6876,17.7569 23.0276,16.8909 22.1106,16.5589 C22.1166,16.5179 22.1346,16.4819 22.1346,16.4399 L22.1346,14.6709 C22.1346,14.1799 21.7366,13.7819 21.2466,13.7819 C20.7566,13.7819 20.3586,14.1799 20.3586,14.6709 L20.3586,16.4399 C20.3586,16.4919 20.3796,16.5379 20.3886,16.5879 C19.5186,16.9439 18.9056,17.7909 18.9056,18.7799 L18.9056,21.5149 C18.9056,22.4929 19.5046,23.3329 20.3586,23.6949 L20.3586,25.3029 L15.5496,25.3029 Z" id="Fill-11" fill="#5C5C60"></path>
        </g>
    </g>
</svg>