<?xml version="1.0" encoding="UTF-8"?>
<svg width="48px" height="48px" viewBox="0 0 48 48" version="1.1" xmlns="http://www.w3.org/2000/svg" xmlns:xlink="http://www.w3.org/1999/xlink">
    <!-- Generator: Sketch 62 (91390) - https://sketch.com -->
    <title>iconografia/marca/off/mouse</title>
    <desc>Created with Sketch.</desc>
    <defs>
        <polygon id="path-1" points="0.0001 0.958092202 30.791 0.958092202 30.791 41 0.0001 41"></polygon>
    </defs>
    <g id="iconografia/marca/off/mouse" stroke="none" stroke-width="1" fill="none" fill-rule="evenodd">
        <g id="Page-1" transform="translate(9.000000, 3.000000)">
            <path d="M14.8379,36.9244 C14.7579,36.8444 14.6679,36.7844 14.5679,36.7444 C14.3779,36.6644 14.1479,36.6644 13.9479,36.7444 C13.8479,36.7844 13.7579,36.8444 13.6879,36.9244 C13.6079,36.9944 13.5479,37.0844 13.5079,37.1854 C13.4679,37.2844 13.4479,37.3844 13.4479,37.4944 C13.4479,37.7144 13.5379,37.9144 13.6879,38.0654 C13.8379,38.2254 14.0479,38.3044 14.2579,38.3044 C14.4779,38.3044 14.6879,38.2254 14.8379,38.0654 C14.9879,37.9144 15.0779,37.7144 15.0779,37.4944 C15.0779,37.3844 15.0579,37.2844 15.0079,37.1854 C14.9679,37.0844 14.9079,36.9944 14.8379,36.9244" id="Fill-1" fill="#5C5C60"></path>
            <g id="Group-5" transform="translate(0.000000, 0.041600)">
                <mask id="mask-2" fill="white">
                    <use xlink:href="#path-1"></use>
                </mask>
                <g id="Clip-4"></g>
                <path d="M22.7441,11.3872 L22.7441,7.7832 C22.7441,4.0562 19.7511,0.9952 16.0731,0.958092202 L16.0721,0.958092202 C14.2681,0.9482 12.5491,1.6342 11.2591,2.9112 C9.9731,4.1842 9.2651,5.8772 9.2651,7.6792 L9.2651,23.9382 C9.2651,24.9392 8.8701,25.8792 8.1531,26.5852 C7.4311,27.2972 6.4731,27.6832 5.4621,27.6632 C3.4301,27.6322 1.7761,25.9172 1.7761,23.8402 L1.7761,21.8142 C1.7761,21.3242 1.3781,20.9272 0.8881,20.9272 C0.3981,20.9272 0.0001,21.3242 0.0001,21.8142 L0.0001,23.8402 C0.0001,26.8812 2.4381,29.3922 5.4341,29.4382 C5.4641,29.4392 5.4931,29.4392 5.5221,29.4392 C6.9831,29.4392 8.3571,28.8772 9.3991,27.8502 C10.4581,26.8072 11.0411,25.4192 11.0411,23.9382 L11.0411,7.6792 C11.0411,6.3552 11.5621,5.1102 12.5081,4.1742 C13.4591,3.2322 14.7031,2.6982 16.0551,2.7352 L16.0551,2.7352 C18.7641,2.7612 20.9681,5.0262 20.9681,7.7832 L20.9681,11.3092 C14.5761,11.4332 11.7021,15.6872 11.7021,19.9132 L11.7021,32.3852 C11.7021,33.4422 11.8781,34.4702 12.2241,35.4402 C12.3881,35.9022 12.8961,36.1382 13.3591,35.9792 C13.8211,35.8142 14.0611,35.3062 13.8971,34.8452 C13.6231,34.0772 13.4791,33.2262 13.4791,32.3852 L13.4791,19.9132 C13.4791,16.6072 15.5191,13.0742 21.2461,13.0742 C26.9741,13.0742 29.0151,16.6072 29.0151,19.9132 L29.0151,32.3852 C29.0151,35.6912 26.9741,39.2242 21.2461,39.2242 C19.5021,39.2242 18.0051,38.8922 16.7971,38.2382 C16.3671,38.0062 15.8271,38.1652 15.5941,38.5962 C15.3601,39.0282 15.5201,39.5662 15.9521,39.8012 C17.4221,40.5962 19.2031,41.0002 21.2461,41.0002 C27.8401,41.0002 30.7911,36.6732 30.7911,32.3852 L30.7911,19.9132 C30.7911,15.9662 28.2831,11.9952 22.7441,11.3872" id="Fill-3" fill="#5C5C60" mask="url(#mask-2)"></path>
            </g>
            <path d="M20.6821,18.7799 C20.6821,18.4509 20.9581,18.1839 21.2971,18.1839 C21.6361,18.1839 21.9111,18.4509 21.9111,18.7799 L21.9111,21.5149 C21.9111,21.8429 21.6361,22.1109 21.2971,22.1109 C20.9581,22.1109 20.6821,21.8429 20.6821,21.5149 L20.6821,18.7799 Z M15.5501,25.3029 C15.0591,25.3029 14.6611,25.7009 14.6611,26.1909 C14.6611,26.6809 15.0591,27.0789 15.5501,27.0789 L26.9441,27.0789 C27.4341,27.0789 27.8321,26.6809 27.8321,26.1909 C27.8321,25.7009 27.4341,25.3029 26.9441,25.3029 L22.1351,25.3029 L22.1351,23.7279 C23.0391,23.3899 23.6881,22.5299 23.6881,21.5149 L23.6881,18.7799 C23.6881,17.7569 23.0281,16.8909 22.1111,16.5589 C22.1171,16.5179 22.1351,16.4819 22.1351,16.4399 L22.1351,14.6709 C22.1351,14.1799 21.7371,13.7819 21.2461,13.7819 C20.7561,13.7819 20.3581,14.1799 20.3581,14.6709 L20.3581,16.4399 C20.3581,16.4929 20.3791,16.5379 20.3881,16.5879 C19.5191,16.9439 18.9061,17.7909 18.9061,18.7799 L18.9061,21.5149 C18.9061,22.4929 19.5051,23.3329 20.3581,23.6949 L20.3581,25.3029 L15.5501,25.3029 Z" id="Fill-6" fill="#5C5C60"></path>
        </g>
    </g>
</svg>