<?xml version="1.0" encoding="UTF-8"?>
<svg width="48px" height="48px" viewBox="0 0 48 48" version="1.1" xmlns="http://www.w3.org/2000/svg" xmlns:xlink="http://www.w3.org/1999/xlink">
    <!-- Generator: Sketch 62 (91390) - https://sketch.com -->
    <title>iconografia/marca/on/movil</title>
    <desc>Created with Sketch.</desc>
    <defs>
        <polygon id="path-1" points="0.8291 0.0002 25.466 0.0002 25.466 38 0.8291 38"></polygon>
        <polygon id="path-3" points="0 40.6677 27.466 40.6677 27.466 -0.0003 0 -0.0003"></polygon>
    </defs>
    <g id="iconografia/marca/on/movil" stroke="none" stroke-width="1" fill="none" fill-rule="evenodd">
        <g id="Page-1" transform="translate(10.000000, 4.000000)">
            <g id="Group-3" transform="translate(2.000000, 2.667700)">
                <mask id="mask-2" fill="white">
                    <use xlink:href="#path-1"></use>
                </mask>
                <g id="Clip-2"></g>
                <path d="M0.8291,28.9182 L0.8291,36.6642 C0.8291,37.4012 1.4291,38.0002 2.1651,38.0002 L24.1301,38.0002 C24.8681,38.0002 25.4671,37.4012 25.4671,36.6642 L25.4671,1.3372 C25.4671,0.5992 24.8681,0.0002 24.1301,0.0002 L2.1651,0.0002 C1.4291,0.0002 0.8291,0.5992 0.8291,1.3372 L0.8291,22.5962 L0.8291,28.9182 Z" id="Fill-1" fill="#FCD603" mask="url(#mask-2)"></path>
            </g>
            <mask id="mask-4" fill="white">
                <use xlink:href="#path-3"></use>
            </mask>
            <g id="Clip-5"></g>
            <polygon id="Fill-4" fill="#FFFFFF" mask="url(#mask-4)" points="4.948 29.9337 21.315 29.9337 21.315 5.8977 4.948 5.8977"></polygon>
            <path d="M15.1104,34.4482 C15.1104,35.5412 14.2244,36.4272 13.1324,36.4272 C12.0394,36.4272 11.1544,35.5412 11.1544,34.4482 C11.1544,33.3562 12.0394,32.4702 13.1324,32.4702 C14.2244,32.4702 15.1104,33.3562 15.1104,34.4482" id="Fill-6" fill="#B5B5B5" mask="url(#mask-4)"></path>
            <path d="M24.1143,0 L2.1493,0 C0.9643,0 0.0003,0.964 0.0003,2.149 L0.0003,23.409 C0.0003,23.858 0.3643,24.223 0.8133,24.223 C1.2623,24.223 1.6273,23.858 1.6273,23.409 L1.6273,2.149 C1.6273,1.861 1.8613,1.627 2.1493,1.627 L24.1143,1.627 C24.4033,1.627 24.6373,1.861 24.6373,2.149 L24.6373,37.478 C24.6373,37.766 24.4033,38 24.1143,38 L2.1493,38 C1.8613,38 1.6273,37.766 1.6273,37.478 L1.6273,29.731 C1.6273,29.282 1.2623,28.918 0.8133,28.918 C0.3643,28.918 0.0003,29.282 0.0003,29.731 L0.0003,37.478 C0.0003,38.663 0.9643,39.627 2.1493,39.627 L24.1143,39.627 C25.3003,39.627 26.2643,38.663 26.2643,37.478 L26.2643,2.149 C26.2643,0.964 25.3003,0 24.1143,0" id="Fill-7" fill="#5C5C60" mask="url(#mask-4)"></path>
            <path d="M5.763,29.1197 L20.503,29.1197 L20.503,6.7107 L5.763,6.7107 L5.763,29.1197 Z M4.136,30.7467 L22.13,30.7467 L22.13,5.0837 L4.136,5.0837 L4.136,30.7467 Z" id="Fill-8" fill="#5C5C60" mask="url(#mask-4)"></path>
            <polygon id="Fill-9" fill="#5C5C60" mask="url(#mask-4)" points="10.54 3.9767 15.726 3.9767 15.726 2.6807 10.54 2.6807"></polygon>
            <path d="M14.2969,34.4482 C14.2969,35.0912 13.7749,35.6132 13.1329,35.6132 C12.4899,35.6132 11.9679,35.0912 11.9679,34.4482 C11.9679,33.8062 12.4899,33.2842 13.1329,33.2842 C13.7749,33.2842 14.2969,33.8062 14.2969,34.4482 M10.3409,34.4482 C10.3409,35.9872 11.5939,37.2402 13.1329,37.2402 C14.6719,37.2402 15.9239,35.9872 15.9239,34.4482 C15.9239,32.9092 14.6719,31.6572 13.1329,31.6572 C11.5939,31.6572 10.3409,32.9092 10.3409,34.4482" id="Fill-10" fill="#5C5C60" mask="url(#mask-4)"></path>
            <polygon id="Fill-11" fill="#5C5C60" mask="url(#mask-4)" points="9.241 25.3717 10.539 25.3717 10.539 24.0747 9.241 24.0747"></polygon>
            <polygon id="Fill-12" fill="#5C5C60" mask="url(#mask-4)" points="12.483 25.3717 13.78 25.3717 13.78 24.0747 12.483 24.0747"></polygon>
            <polygon id="Fill-13" fill="#5C5C60" mask="url(#mask-4)" points="15.726 25.3717 17.023 25.3717 17.023 24.0747 15.726 24.0747"></polygon>
            <path d="M0.5479,26.6787 C0.6479,26.7187 0.7579,26.7387 0.8669,26.7387 C1.0769,26.7387 1.2869,26.6577 1.4379,26.4987 C1.5179,26.4287 1.5769,26.3387 1.6169,26.2387 C1.6569,26.1387 1.6779,26.0387 1.6779,25.9287 C1.6779,25.7087 1.5879,25.5087 1.4379,25.3487 C1.3669,25.2787 1.2769,25.2187 1.1779,25.1787 C0.9779,25.0987 0.7469,25.0987 0.5479,25.1787 C0.4469,25.2187 0.3669,25.2787 0.2869,25.3487 C0.1379,25.4987 0.0479,25.7087 0.0479,25.9287 C0.0479,26.0387 0.0679,26.1387 0.1079,26.2387 C0.1479,26.3387 0.2069,26.4287 0.2869,26.4987 C0.3669,26.5787 0.4469,26.6387 0.5479,26.6787" id="Fill-14" fill="#5C5C60" mask="url(#mask-4)"></path>
        </g>
    </g>
</svg>