<?xml version="1.0" encoding="UTF-8"?>
<svg width="48px" height="48px" viewBox="0 0 48 48" version="1.1" xmlns="http://www.w3.org/2000/svg" xmlns:xlink="http://www.w3.org/1999/xlink">
    <!-- Generator: Sketch 62 (91390) - https://sketch.com -->
    <title>iconografia/marca/off/movil</title>
    <desc>Created with Sketch.</desc>
    <defs>
        <polygon id="path-1" points="0 39.627 26.264 39.627 26.264 0 0 0"></polygon>
    </defs>
    <g id="iconografia/marca/off/movil" stroke="none" stroke-width="1" fill="none" fill-rule="evenodd">
        <g id="Page-1" transform="translate(11.000000, 4.000000)">
            <path d="M24.1133,0 L2.1493,0 C0.9643,0 0.0003,0.964 0.0003,2.149 L0.0003,23.409 C0.0003,23.858 0.3643,24.223 0.8133,24.223 C1.2623,24.223 1.6273,23.858 1.6273,23.409 L1.6273,2.149 C1.6273,1.861 1.8613,1.627 2.1493,1.627 L24.1133,1.627 C24.4023,1.627 24.6363,1.861 24.6363,2.149 L24.6363,37.478 C24.6363,37.766 24.4023,38 24.1133,38 L2.1493,38 C1.8613,38 1.6273,37.766 1.6273,37.478 L1.6273,29.731 C1.6273,29.282 1.2623,28.918 0.8133,28.918 C0.3643,28.918 0.0003,29.282 0.0003,29.731 L0.0003,37.478 C0.0003,38.663 0.9643,39.627 2.1493,39.627 L24.1133,39.627 C25.2993,39.627 26.2633,38.663 26.2633,37.478 L26.2633,2.149 C26.2633,0.964 25.2993,0 24.1133,0" id="Fill-1" fill="#5C5C60"></path>
            <mask id="mask-2" fill="white">
                <use xlink:href="#path-1"></use>
            </mask>
            <g id="Clip-4"></g>
            <path d="M5.762,29.12 L20.502,29.12 L20.502,6.711 L5.762,6.711 L5.762,29.12 Z M4.135,30.747 L22.129,30.747 L22.129,5.084 L4.135,5.084 L4.135,30.747 Z" id="Fill-3" fill="#5C5C60" mask="url(#mask-2)"></path>
            <polygon id="Fill-5" fill="#5C5C60" mask="url(#mask-2)" points="10.54 3.977 15.726 3.977 15.726 2.681 10.54 2.681"></polygon>
            <path d="M14.2969,34.4483 C14.2969,35.0913 13.7749,35.6133 13.1319,35.6133 C12.4899,35.6133 11.9679,35.0913 11.9679,34.4483 C11.9679,33.8063 12.4899,33.2843 13.1319,33.2843 C13.7749,33.2843 14.2969,33.8063 14.2969,34.4483 M10.3409,34.4483 C10.3409,35.9873 11.5929,37.2403 13.1319,37.2403 C14.6709,37.2403 15.9239,35.9873 15.9239,34.4483 C15.9239,32.9093 14.6709,31.6573 13.1319,31.6573 C11.5929,31.6573 10.3409,32.9093 10.3409,34.4483" id="Fill-6" fill="#5C5C60" mask="url(#mask-2)"></path>
            <polygon id="Fill-7" fill="#5C5C60" mask="url(#mask-2)" points="9.241 25.372 10.539 25.372 10.539 24.075 9.241 24.075"></polygon>
            <polygon id="Fill-8" fill="#5C5C60" mask="url(#mask-2)" points="12.483 25.372 13.78 25.372 13.78 24.075 12.483 24.075"></polygon>
            <polygon id="Fill-9" fill="#5C5C60" mask="url(#mask-2)" points="15.725 25.372 17.022 25.372 17.022 24.075 15.725 24.075"></polygon>
            <path d="M0.8633,26.7383 C0.9733,26.7383 1.0733,26.7183 1.1743,26.6783 C1.2733,26.6383 1.3633,26.5793 1.4333,26.4993 C1.5133,26.4283 1.5733,26.3393 1.6133,26.2383 C1.6533,26.1383 1.6743,26.0393 1.6743,25.9283 C1.6743,25.7093 1.5933,25.4993 1.4333,25.3483 C1.3633,25.2783 1.2733,25.2183 1.1743,25.1783 C0.8733,25.0493 0.5133,25.1293 0.2833,25.3483 C0.2143,25.4283 0.1533,25.5183 0.1133,25.6183 C0.0733,25.7183 0.0443,25.8183 0.0443,25.9283 C0.0443,26.1383 0.1343,26.3483 0.2833,26.4993 C0.4433,26.6583 0.6433,26.7383 0.8633,26.7383" id="Fill-10" fill="#5C5C60" mask="url(#mask-2)"></path>
        </g>
    </g>
</svg>