<svg width="512" height="512" xmlns="http://www.w3.org/2000/svg">

 <g>
  <title>background</title>
  <rect fill="none" id="canvas_background" height="602" width="802" y="-1" x="-1"/>
 </g>
 <g>
  <title>Layer 1</title>
  <path fill="#fdda24" id="svg_1" d="m123.83203,475.46484c39.5586,23.80469 84.78906,36.35157 131.26172,36.35157c140.82422,0 256.90625,-114.91407 256.90625,-255.91016c0,-140.83203 -115.91797,-255.90625 -256.90625,-255.90625c-140.55859,0 -254.91016,114.80078 -254.91016,255.90625c0,47.09375 12.55079,92.66797 36.35157,132.25781l-36.53516,123.83594l123.83203,-36.53516zm-93.65625,-219.55859c0,-124.57031 100.89844,-225.91797 224.91797,-225.91797c125.12109,0 226.91797,101.34766 226.91797,225.91797c0,124.57422 -101.79688,225.91797 -226.91797,225.91797c-43.05469,0 -84.89453,-12.19531 -120.98438,-35.27344l-5.76562,-3.68359l-83.98828,24.78125l24.77734,-83.99219l-3.68359,-5.76172c-23.07813,-36.09765 -35.27344,-78.27734 -35.27344,-121.98828zm0,0"/>
  <path fill="#fdda24" id="svg_2" d="m124.62891,208.75391c4.95312,26.01172 19.65625,76.04297 62.46484,118.85156c42.80859,42.80859 92.83984,57.51562 118.85547,62.46875c29.78906,5.67187 73.50391,6.52734 94.86719,-14.83594l11.91015,-11.91015c6.01172,-6.01172 9.32422,-14.00782 9.32422,-22.51172s-3.3125,-16.4961 -9.32422,-22.50782l-47.6289,-47.6289c-6.01563,-6.01563 -14.00782,-9.32422 -22.51172,-9.32422c-8.50391,0 -16.4961,3.30859 -22.51172,9.32422l-11.90625,11.90625c-7.27344,7.27344 -21.00391,7.30469 -28.33203,0.08984l-47.50782,-49.5c-0.07031,-0.07422 -0.14062,-0.14844 -0.21484,-0.21875c-7.28516,-7.28515 -7.28516,-19.14062 0,-26.42578l11.90625,-11.90625c12.44531,-12.44531 12.44531,-32.58203 0,-45.02344l-47.62891,-47.6289c-12.41015,-12.41016 -32.60546,-12.41016 -45.01953,0l-11.90625,11.91015l0,-0.0039c-17.05078,17.05468 -22.73437,53.40625 -14.83593,94.875zm36.04297,-73.66407c12.5,-12.21484 11.83203,-12.44921 13.21093,-12.44921c0.47266,0 0.94532,0.17968 1.30469,0.53906c50.1875,50.45703 48.17188,47.49219 48.17188,48.9375c0,0.5039 -0.1836,0.94531 -0.53907,1.30469l-11.91015,11.90625c-18.96485,18.96484 -19.03907,49.66406 -0.1211,68.71484l47.53516,49.53125c0.07422,0.07031 0.14453,0.14453 0.21875,0.21875c18.96094,18.96094 51.80859,19.02344 70.83203,0l11.90625,-11.90625c0.71875,-0.71875 1.89063,-0.71875 2.60938,0c50.1875,50.45312 48.17187,47.48828 48.17187,48.93359c0,0.50781 -0.18359,0.94531 -0.53906,1.30469l-11.91016,11.90625c-8.16015,8.16016 -34.15234,13.04297 -68.05469,6.58594c-22.625,-4.3125 -66.1289,-17.08594 -103.25781,-54.21485c-37.12891,-37.1289 -49.90234,-80.63281 -54.21094,-103.25781c-6.46093,-33.90234 -1.57812,-59.89844 6.58203,-68.05469l0.00001,0zm0,0"/>
 </g>
</svg>