<svg width="57" height="35" viewBox="0 0 57 35" fill="none" xmlns="http://www.w3.org/2000/svg">
<path d="M52.5733 2.65357C51.9253 1.00019 51.0613 -0.165435 48.5172 0.214841C43.2371 1.04153 38.285 1.96742 30.5568 3.52159C26.6927 4.27387 22.6526 5.13362 18.0605 6.15871C13.4684 7.1838 8.71628 8.26676 3.40415 9.6556C2.45658 9.86023 1.62656 10.4456 1.09688 11.2829C0.567202 12.1202 0.38129 13.1407 0.580085 14.1197C0.618647 14.2887 0.669459 14.4545 0.732089 14.6157C2.51613 19.7329 4.30017 25.1973 5.81221 30.8188C6.37793 33.0947 8.61278 34.4744 10.8203 33.9106L11.0523 33.8444C21.5326 30.1822 29.9488 27.2309 37.341 24.5442C38.853 24.0151 40.253 23.4943 41.6131 22.9983V13.6237H40.013V10.5649H41.6131V10.0524C41.5407 8.42208 42.0631 6.82308 43.0771 5.57177C43.9399 4.6786 45.1203 4.19134 46.3412 4.22427C46.9876 4.22385 47.631 4.31565 48.2532 4.49708L48.1172 7.69635C47.727 7.55489 47.3145 7.49039 46.9012 7.50621C45.6932 7.50621 45.2051 8.56437 45.2051 9.88707V10.5649H47.5412V13.6237H45.2451V21.6673L47.2612 20.9481L49.2052 20.2702V10.7964C50.3531 10.6325 51.5153 10.6048 52.6693 10.7138V18.9806L54.5174 18.2945C56.5494 17.4678 56.7574 15.9301 56.3014 14.161C55.1734 10.2012 53.9733 6.43152 52.5733 2.65357ZM20.6126 24.2301C19.2937 24.2711 17.9871 23.9578 16.8205 23.3207L17.4605 20.3364C18.4108 20.9267 19.4888 21.262 20.5966 21.3119C21.7006 21.3119 22.1566 20.8903 22.1566 20.2124C22.1566 19.5345 21.7806 19.179 20.4446 18.6499C18.0445 17.7323 17.0685 16.2278 17.0925 14.6736C17.0925 12.1935 18.9645 10.2591 21.8926 10.2591C23.0393 10.2595 24.1694 10.5429 25.1887 11.0858L24.6287 13.8965C23.848 13.4489 22.9766 13.1969 22.0846 13.1607C21.1886 13.1607 20.6926 13.5658 20.6926 14.2189C20.6926 14.872 21.1566 15.2109 22.5806 15.7813C24.8207 16.608 25.7247 17.9473 25.7807 19.9148C25.6767 22.4031 23.9806 24.2301 20.6126 24.2301ZM35.5329 23.9325L35.3729 22.0972H35.3009C34.5642 23.469 33.1548 24.3085 31.6368 24.2797C29.2368 24.2797 27.5087 22.6263 27.5087 18.4929V10.5649H31.1568V17.7571C31.1568 19.6916 31.7008 20.8737 32.9968 20.8737C33.843 20.8428 34.5778 20.2626 34.8289 19.427C34.9271 19.1351 34.9706 18.8264 34.9569 18.5177V10.5567H38.621V19.6502C38.621 21.3863 38.669 22.8082 38.709 23.9325H35.5329ZM51.0533 9.05212C50.3387 9.10085 49.6533 8.75196 49.2552 8.13689C48.8571 7.52181 48.8068 6.73398 49.1232 6.07017C49.4396 5.40636 50.0747 4.96742 50.7893 4.91868C50.8771 4.91042 50.9655 4.91042 51.0533 4.91868C51.5809 4.90985 52.0901 5.11855 52.4685 5.49863C52.8468 5.87871 53.063 6.39886 53.0693 6.94407C53.0715 7.49801 52.86 8.03002 52.4817 8.42249C52.1034 8.81497 51.5894 9.03558 51.0533 9.03558V9.05212Z" fill="#FA0A3C"/>
</svg>
