<svg width="512" height="512.00003" xmlns="http://www.w3.org/2000/svg">

 <g>
  <title>background</title>
  <rect fill="none" id="canvas_background" height="602" width="802" y="-1" x="-1"/>
 </g>
 <g>
  <title>Layer 1</title>
  <path fill="#fdda24" id="svg_1" d="m511.94531,245.64063c-1.53125,-66.98047 -29.01172,-129.39844 -77.38281,-175.75391c-48.30078,-46.28906 -111.74609,-71.08203 -178.58984,-69.83984c-66.8711,-1.25391 -130.28516,23.55468 -178.58594,69.83984c-48.37109,46.35547 -75.85156,108.77344 -77.38281,175.75l-0.00391,0.21094l0,0.21093c0.35156,68.26172 29.58203,133.15625 80.32031,178.64063l0,61.88672c0,12.01172 8.38672,22.47656 19.94141,24.88281c1.71094,0.35547 3.43359,0.53125 5.14844,0.53125c4.64843,0 9.21875,-1.29688 13.24218,-3.8125l49.73829,-31.07031c28.05078,9.82031 57.32031,14.79687 87.07812,14.79687l0.375,0c1.64453,0.03125 3.27734,0.04688 4.91797,0.04688c65.10547,-0.00391 126.65625,-24.70703 173.80078,-69.88672c48.37109,-46.35547 75.85156,-108.76953 77.38281,-175.75l0.00782,-0.34375l-0.00782,-0.33984zm-98.16015,154.7539c-41.51563,39.78516 -95.70703,61.53906 -153.03907,61.53906c-1.48828,0 -2.98046,-0.01562 -4.47656,-0.04296l-0.16406,-0.00391l-0.16016,0c-27.66797,0.05469 -54.91797,-4.75391 -80.91797,-14.28906c-6.43359,-2.35938 -13.4414,-1.63672 -19.22265,1.97656l-45.45703,28.39453l0,-56.92578c0,-6.34766 -2.76172,-12.39063 -7.57422,-16.57813c-45.86719,-39.87109 -72.3711,-97.57812 -72.74219,-158.35156c1.39453,-58.89844 25.58594,-113.77344 68.13281,-154.54687c42.59375,-40.81641 98.5586,-62.64454 157.51172,-61.49219l0.29688,0.0039l0.29687,-0.0039c58.99219,-1.16406 114.92188,20.67578 157.51563,61.49219c42.50781,40.73828 66.69531,95.57031 68.1289,154.41406c-1.42968,58.84766 -25.61718,113.67578 -68.1289,154.41406zm0,0"/>
  <path fill="#fdda24" id="svg_2" d="m394.56641,163.72266l-95.31641,51.96875l-57.09766,-48.96094c-9.8789,-8.46875 -24.82421,-7.89453 -34.01953,1.30469l-120.51172,120.51172c-4.71875,4.75 -7.30859,11.04687 -7.28515,17.73828c0.01953,6.69531 2.64453,12.98047 7.39062,17.69531c4.83985,4.80859 11.17188,7.31641 17.60938,7.31641c4.08594,0 8.21094,-1.00782 12.02734,-3.07813l95.32031,-51.96875l57.15625,48.98047c9.87891,8.46875 24.82422,7.89453 34.01954,-1.30469l120.53125,-120.53125c8.6875,-8.76953 9.64453,-22.80469 2.23828,-32.67187c-7.41016,-9.91407 -21.19141,-12.92188 -32.0625,-7zm-108.6836,135.71093l-57.89453,-49.61328c-4.04687,-3.46875 -9.16406,-5.25781 -14.3125,-5.25781c-3.59375,0 -7.20312,0.87109 -10.46875,2.65234l-69.89453,38.10547l92.79297,-92.79297l57.82812,49.58985c6.875,5.89453 16.83594,6.94531 24.79297,2.60937l70.06641,-38.20312l-92.91016,92.91015zm0,0"/>
 </g>
</svg>