<svg width="363" height="423" viewBox="0 0 363 423" fill="none" xmlns="http://www.w3.org/2000/svg">
<path d="M59.2752 262.127C59.2102 264.441 59.6077 266.74 60.4391 268.858C61.2706 270.976 62.5154 272.861 64.0841 274.377C65.6528 275.893 67.5065 277.002 69.5122 277.626C71.5178 278.249 73.6255 278.371 75.6841 277.983L129.629 267.708L185.11 264.749C186.975 264.671 188.809 264.183 190.507 263.314C192.205 262.445 193.733 261.212 195.002 259.686C196.272 258.16 197.258 256.372 197.903 254.425C198.548 252.478 198.84 250.41 198.762 248.342C198.683 246.273 198.236 244.245 197.445 242.375C196.655 240.504 195.538 238.828 194.158 237.444C192.778 236.059 191.163 234.994 189.406 234.309C187.649 233.624 185.785 233.334 183.922 233.454L127.589 236.46C127.015 236.49 126.443 236.559 125.876 236.667L71.0768 247.104C67.8562 247.718 64.9201 249.55 62.7684 252.289C60.6166 255.028 59.3822 258.505 59.2752 262.127Z" fill="#2C2A29"/>
<path d="M231.181 225.088C231.933 226.813 232.747 228.486 233.624 230.106C234.081 231 234.693 231.801 235.425 232.46C236.157 233.119 236.994 233.624 237.886 233.945C238.778 234.266 239.707 234.396 240.619 234.327C241.53 234.259 242.406 233.993 243.194 233.547C243.982 233.1 244.666 232.481 245.206 231.726C245.746 230.971 246.131 230.096 246.339 229.152C246.546 228.208 246.572 227.215 246.413 226.23C246.255 225.245 245.917 224.289 245.418 223.419C238.757 211.114 236.682 193.746 240.135 179.174C240.548 177.318 240.25 175.306 239.305 173.572C238.359 171.839 236.843 170.523 235.083 169.91C233.324 169.297 231.462 169.436 229.902 170.297C228.342 171.157 227.208 172.671 226.746 174.51C222.833 191.037 224.558 209.905 231.181 225.088Z" fill="#F5B6CD"/>
<path d="M224.725 217.865C225.167 218.878 225.938 219.704 226.882 220.177C227.826 220.65 228.875 220.736 229.819 220.417C230.764 220.098 231.533 219.398 231.974 218.457C232.416 217.516 232.496 216.403 232.2 215.341C229.647 206.051 228.238 196.531 228.01 187.033C228.001 186.462 227.886 185.891 227.672 185.351C227.458 184.811 227.15 184.314 226.765 183.889C226.38 183.464 225.925 183.119 225.428 182.873C224.931 182.628 224.401 182.488 223.869 182.46C223.336 182.433 222.812 182.519 222.327 182.714C221.842 182.909 221.405 183.208 221.041 183.595C220.678 183.982 220.395 184.448 220.21 184.967C220.024 185.486 219.94 186.048 219.961 186.619C220.208 196.886 221.733 207.177 224.496 217.218C224.556 217.438 224.633 217.655 224.725 217.865Z" fill="#FF7F41"/>
<path d="M275.431 256.156L212.589 293.576L187.233 231.253C202.593 223.479 227.785 214.255 246.317 219.021C273.575 226.03 275.431 256.156 275.431 256.156Z" fill="#E6DCCB"/>
<path d="M272.871 213.766C275.862 204.109 287.277 200.129 298.368 204.877C309.458 209.624 316.025 221.302 313.035 230.959C310.044 240.616 298.629 244.597 287.539 239.849C276.448 235.101 269.881 223.424 272.871 213.766Z" fill="#E4AC7B"/>
<path d="M166.199 262.881C160.81 262.881 156.441 257.866 156.441 255.174V190.647C156.441 180.968 160.81 175.953 166.199 175.953C171.587 175.953 175.956 180.968 175.956 190.647V255.174C175.956 257.866 171.588 262.881 166.199 262.881Z" fill="#9063CD"/>
<path d="M174.531 10.7042C132.196 17.467 106.553 61.5195 88.7518 94.3864C72.2625 124.832 60.7487 162.85 60.7598 186.822C60.7614 190.534 64.3196 193.533 68.6774 193.533L195.76 190.388C193.085 8.4546 203.68 6.04789 174.531 10.7042Z" fill="#00C389"/>
<path d="M183.596 118.324C181.434 114.807 179.049 111.399 176.325 108.239C175.986 107.843 175.677 107.425 175.314 107.047L174.256 105.891C173.545 105.126 172.866 104.333 172.103 103.611L169.867 101.401L167.518 99.2967C166.754 98.5764 165.904 97.9434 165.093 97.271L163.865 96.2738C163.462 95.9337 163.018 95.642 162.596 95.3233C161.74 94.7017 160.894 94.0663 160.03 93.454L157.372 91.7017L156.707 91.2634C156.486 91.1179 156.251 90.9904 156.023 90.8527L154.648 90.0407C153.73 89.5009 152.826 88.9405 151.868 88.4627L149.033 86.9694L146.122 85.6118C142.209 83.8712 138.195 82.3061 134.041 81.149C133.524 81 133.014 80.8249 132.49 80.6977L130.92 80.3069L129.35 79.9154C129.088 79.8514 128.828 79.7816 128.565 79.7223L127.77 79.564L124.594 78.929C123.527 78.7551 122.456 78.6026 121.388 78.4373C120.322 78.2524 119.243 78.1646 118.167 78.0484C117.091 77.9384 116.017 77.8035 114.934 77.7633C113.853 77.7052 112.773 77.628 111.691 77.5831L108.444 77.543C104.113 77.5765 99.7842 77.869 95.5 78.4778" stroke="#9063CD" stroke-width="20" stroke-linecap="round" stroke-linejoin="round"/>
<path d="M185.759 113.477C185.485 113.084 185.23 112.679 184.939 112.295L184.069 111.145C183.485 110.379 182.914 109.607 182.32 108.848L180.461 106.628L179.529 105.52L178.541 104.453L176.566 102.32L174.483 100.276L173.44 99.2564C173.092 98.9163 172.714 98.6043 172.352 98.2767L170.16 96.3345C164.195 91.2691 157.522 86.9358 150.413 83.375" stroke="#FF7F41" stroke-width="10.199" stroke-linecap="round" stroke-linejoin="round"/>
<path d="M77.0397 293.634C34.8948 265.611 1.96688 294.4 1.51553 305.391C-1.48511 325.482 6.20183 358.997 78.9249 371.31C151.648 383.622 173.178 373.571 225.526 358.986C299.124 338.481 299.888 364.355 342.357 352.141C368.492 344.624 365.492 316.624 352.492 300.624C341.643 287.272 318.693 279.543 295.966 285.666C273.238 291.789 281.127 309.341 235.476 297.668C189.825 285.994 167.744 288.558 144.718 305.202C122.488 321.27 113.298 317.742 77.0397 293.634Z" fill="#59CBE8"/>
<path d="M195.49 255.556L187.514 249.637H59.1414C55.6887 249.637 52.5486 251.639 51.0919 254.769C49.6352 257.9 50.1247 261.591 52.3485 264.233L93.7663 313.445C95.4532 315.45 97.9393 316.607 100.56 316.607H187.514L195.49 310.688V255.556H195.49Z" fill="#FDDA24"/>
<path d="M311.413 249.637H187.514V316.607H269.995C272.614 316.607 275.1 315.45 276.788 313.446L318.206 264.233C320.43 261.591 320.92 257.9 319.463 254.769C318.005 251.639 314.866 249.637 311.413 249.637Z" fill="#FDDA24"/>
<path d="M209.071 294.885C209.242 296.056 209.674 297.193 210.33 298.199C210.987 299.206 211.85 300.052 212.846 300.669C213.843 301.285 214.944 301.653 216.058 301.742C217.171 301.831 218.265 301.638 219.246 301.179C224.018 298.951 228.537 296.232 232.745 293.058C247.35 281.969 257.716 265.849 262.293 247.109C262.527 246.195 262.582 245.224 262.454 244.252C262.326 243.281 262.017 242.329 261.546 241.452C261.076 240.574 260.452 239.788 259.712 239.14C258.972 238.492 258.129 237.994 257.234 237.676C256.339 237.358 255.408 237.225 254.496 237.286C253.584 237.346 252.709 237.599 251.922 238.029C251.135 238.46 250.451 239.059 249.91 239.793C249.37 240.526 248.983 241.379 248.772 242.302C244.932 258.028 236.232 271.556 223.975 280.862C220.45 283.52 216.664 285.797 212.667 287.663C211.396 288.257 210.368 289.271 209.724 290.565C209.079 291.858 208.852 293.368 209.071 294.885Z" fill="#F5B6CD"/>
<path d="M234.932 286.696C235.045 287.47 235.354 288.216 235.826 288.854C236.298 289.491 236.915 289.996 237.61 290.313C238.306 290.631 239.054 290.75 239.774 290.656C240.493 290.563 241.157 290.261 241.694 289.784C253.784 279.045 262.39 263.27 265.31 246.508C265.414 245.966 265.411 245.396 265.303 244.834C265.195 244.272 264.984 243.729 264.681 243.235C264.378 242.741 263.99 242.307 263.54 241.958C263.09 241.609 262.586 241.352 262.058 241.202C261.53 241.052 260.988 241.012 260.464 241.084C259.94 241.157 259.445 241.34 259.007 241.623C258.568 241.907 258.196 242.285 257.911 242.735C257.627 243.185 257.435 243.699 257.348 244.247C254.725 259.281 246.997 273.433 236.162 283.061C235.681 283.489 235.318 284.043 235.104 284.677C234.889 285.31 234.83 286.003 234.932 286.696Z" fill="#FF7F41"/>
</svg>
