<svg width="512" height="512.00006" xmlns="http://www.w3.org/2000/svg">

 <g>
  <title>background</title>
  <rect fill="none" id="canvas_background" height="602" width="802" y="-1" x="-1"/>
 </g>
 <g>
  <title>Layer 1</title>
  <path fill="#fdda24" id="svg_1" d="m261.03906,512c-1.69531,0 -3.39062,0 -5.09765,-0.00781c-40.13282,0.09765 -77.21485,-0.92188 -113.27735,-3.11719c-33.0625,-2.01172 -63.24218,-13.4375 -87.28125,-33.03906c-23.19531,-18.91406 -39.03515,-44.48828 -47.07812,-76.00391c-7,-27.4375 -7.3711,-54.37109 -7.72657,-80.42187c-0.25781,-18.69141 -0.52343,-40.83985 -0.57812,-63.36328c0.05469,-22.61719 0.32031,-44.76563 0.57812,-63.45704c0.35547,-26.04687 0.72657,-52.98046 7.72657,-80.42187c8.04297,-31.51563 23.88281,-57.08984 47.07812,-76.00391c24.03907,-19.60156 54.21875,-31.02734 87.28516,-33.03906c36.0625,-2.19141 73.15234,-3.21484 113.37109,-3.11719c40.14453,-0.08594 77.21485,0.92578 113.27735,3.11719c33.0625,2.01172 63.24218,13.4375 87.28125,33.03906c23.19922,18.91407 39.03515,44.48828 47.07812,76.00391c7,27.4375 7.3711,54.375 7.72656,80.42187c0.25782,18.69141 0.52735,40.83985 0.57813,63.36329l0,0.09375c-0.05078,22.52343 -0.32031,44.67187 -0.57813,63.36328c-0.35546,26.04687 -0.72265,52.98047 -7.72656,80.42187c-8.04297,31.51563 -23.8789,57.08985 -47.07812,76.00391c-24.03907,19.60156 -54.21875,31.02734 -87.28125,33.03906c-34.53516,2.10156 -70.01172,3.125 -108.27735,3.125zm-5.09765,-40.00781c39.48047,0.09375 75.73047,-0.90235 110.94531,-3.04297c25,-1.51953 46.67578,-9.63281 64.43359,-24.11328c16.41406,-13.38672 27.71875,-31.85547 33.59766,-54.89453c5.82812,-22.83985 6.16406,-47.36329 6.48828,-71.07813c0.25391,-18.56641 0.51953,-40.55859 0.57422,-62.86328c-0.05469,-22.30859 -0.32031,-44.29688 -0.57422,-62.86328c-0.32422,-23.71485 -0.66016,-48.23828 -6.48828,-71.08203c-5.87891,-23.03907 -17.18359,-41.50782 -33.59766,-54.89453c-17.75781,-14.47657 -39.43359,-22.58985 -64.43359,-24.10938c-35.21484,-2.14453 -71.46484,-3.13281 -110.85156,-3.04687c-39.47266,-0.09375 -75.72657,0.90234 -110.94141,3.04687c-25,1.51953 -46.67578,9.63281 -64.43359,24.10938c-16.41407,13.38671 -27.71875,31.85546 -33.59766,54.89453c-5.82813,22.84375 -6.16406,47.36328 -6.48828,71.08203c-0.25391,18.58203 -0.51953,40.58594 -0.57422,62.91015c0.05469,22.22657 0.32031,44.23438 0.57422,62.81641c0.32422,23.71484 0.66015,48.23828 6.48828,71.07813c5.87891,23.03906 17.18359,41.50781 33.59766,54.89453c17.75781,14.47656 39.43359,22.58984 64.43359,24.10937c35.21484,2.14453 71.47656,3.14453 110.84766,3.04688zm-0.95313,-90.99219c-68.92187,0 -125,-56.07422 -125,-125s56.07813,-125 125,-125c68.92578,0 125,56.07422 125,125s-56.07422,125 -125,125zm0,-210c-46.86719,0 -85,38.13281 -85,85s38.13281,85 85,85c46.8711,0 85,-38.13281 85,-85s-38.1289,-85 -85,-85zm139,-80c-16.5664,0 -30,13.42969 -30,30s13.4336,30 30,30c16.57031,0 30,-13.42969 30,-30s-13.42969,-30 -30,-30zm0,0"/>
 </g>
</svg>