<?xml version="1.0" encoding="UTF-8"?>
<svg width="48px" height="48px" viewBox="0 0 48 48" version="1.1" xmlns="http://www.w3.org/2000/svg" xmlns:xlink="http://www.w3.org/1999/xlink">
    <!-- Generator: Sketch 62 (91390) - https://sketch.com -->
    <title>iconografia/marca/on/notificacion</title>
    <desc>Created with Sketch.</desc>
    <g id="iconografia/marca/on/notificacion" stroke="none" stroke-width="1" fill="none" fill-rule="evenodd">
        <g id="Group-17" transform="translate(9.000000, 4.000000)">
            <path d="M19.8718719,35.8482062 C19.8718719,37.5658 18.4797781,38.9578937 16.7621844,38.9578937 C15.0465281,38.9578937 13.6524969,37.5658 13.6524969,35.8482062" id="Fill-1" fill="#B5B5B5"></path>
            <path d="M19.9050031,5.31979375 L13.5345031,5.31979375 C13.2884406,5.31979375 13.0869406,5.11829375 13.0869406,4.87223125 L13.0869406,2.68091875 C13.0869406,2.43485625 13.2884406,2.23335625 13.5345031,2.23335625 L19.9050031,2.23335625 C20.1510656,2.23335625 20.3525656,2.43485625 20.3525656,2.68091875 L20.3525656,4.87223125 C20.3525656,5.11829375 20.1510656,5.31979375 19.9050031,5.31979375" id="Fill-3" fill="#B5B5B5"></path>
            <path d="M5.16372812,20.6282719 C5.40979062,19.1470531 5.57835312,17.6551781 5.76144687,16.1652406 C6.43763437,10.6298031 11.1631969,6.36439688 16.8904469,6.36439688 C22.6612906,6.36439688 27.4130094,10.6801781 28.0349469,16.2737406 C28.1918844,17.6852094 28.3643219,19.0947406 28.5977906,20.4955531 L30.7997594,33.7528969 C30.8559469,34.0900219 30.5953531,34.3951781 30.2543531,34.3951781 L3.52750937,34.3951781 C3.18554062,34.3951781 2.92591562,34.0900219 2.98210312,33.7528969 L5.16372812,20.6282719 Z" id="Fill-5" fill="#FCD603"></path>
            <path d="M12.6615625,4.0435625 L18.208625,4.0435625 L18.208625,1.9685 L12.6615625,1.9685 L12.6615625,4.0435625 Z M30.0942187,32.1518437 L27.89225,18.8945 C27.6471562,17.4190937 27.47375,15.9553125 27.3361875,14.7191875 C26.8334062,10.1980312 23.8545,6.50709375 19.8303125,4.90575 C19.8913437,4.75075 19.9281562,4.584125 19.9281562,4.4078125 L19.9281562,1.60425 C19.9281562,0.856375 19.3197812,0.248 18.5709375,0.248 L12.29925,0.248 C11.5504062,0.248 10.9410625,0.856375 10.9410625,1.60425 L10.9410625,4.4078125 C10.9410625,4.55990625 10.9720625,4.70425 11.0175937,4.839875 C6.95271875,6.39375 3.906,10.078875 3.35284375,14.601 L3.2685625,15.2955937 C3.12034375,16.5239687 2.9663125,17.7949687 2.7609375,19.0310937 L1.73696875,25.3395937 C1.66140625,25.8084687 1.980125,26.2502187 2.449,26.32675 C2.92853125,26.4052187 3.359625,26.0835937 3.43615625,25.6156875 L4.45915625,19.309125 C4.67034375,18.0390937 4.8263125,16.7496875 4.9774375,15.5019375 L5.06171875,14.81025 C5.69140625,9.65359375 10.109875,5.76503125 15.33725,5.76503125 C20.6237187,5.76503125 25.0470312,9.69621875 25.625375,14.9090625 C25.7658437,16.1684375 25.943125,17.6603125 26.195,19.1764062 L28.3369062,32.0753125 L2.33565625,32.0753125 L2.607875,30.4429687 C2.685375,29.9750625 2.3695625,29.531375 1.89971875,29.453875 C1.43084375,29.38025 0.988125,29.6931562 0.910625,30.1610625 L0.5793125,32.1537812 C0.51246875,32.5645312 0.62775,32.9810937 0.8970625,33.297875 C1.16540625,33.6136875 1.55871875,33.7948437 1.97334375,33.7948437 L28.7011562,33.7948437 C29.1177187,33.7948437 29.5110312,33.6127187 29.779375,33.2949687 C30.0486875,32.9772187 30.163,32.5596875 30.0942187,32.1518437 L30.0942187,32.1518437 Z" id="Fill-66" fill="#5C5C60"></path>
            <path d="M8.3300875,28.1889781 C8.7544,28.1889781 9.1244625,27.8741344 9.18161875,27.4420719 L10.5000875,17.4503844 C10.56015,17.0008844 10.5901813,16.5416969 10.5901813,16.0873531 C10.5901813,13.4862594 12.7194938,11.3705094 15.3360875,11.3705094 C15.8117438,11.3705094 16.1963375,10.9849469 16.1963375,10.5092906 C16.1963375,10.0346031 15.8117438,9.64904062 15.3360875,9.64904062 C11.7710875,9.64904062 8.87065,12.5378531 8.87065,16.0873531 C8.87065,16.4661344 8.84449375,16.8487906 8.7950875,17.2256344 L7.47661875,27.2163531 C7.41461875,27.6871656 7.7449625,28.1201969 8.21674375,28.1812281 C8.254525,28.1870406 8.29230625,28.1889781 8.3300875,28.1889781" id="Fill-67" fill="#5C5C60"></path>
            <path d="M18.13965,35.5075938 C17.6649625,35.5075938 17.2794,35.8921875 17.2794,36.3678438 C17.2794,37.4383125 16.4084937,38.3101875 15.3370562,38.3101875 C14.2656188,38.3101875 13.3937437,37.4383125 13.3937437,36.3678438 C13.3937437,35.8921875 13.0081812,35.5075938 12.5334937,35.5075938 C12.0588062,35.5075938 11.6732437,35.8921875 11.6732437,36.3678438 C11.6732437,38.3876875 13.3162437,40.0297188 15.3370562,40.0297188 C17.3569,40.0297188 18.9999,38.3876875 18.9999,36.3678438 C18.9999,35.8921875 18.6143375,35.5075938 18.13965,35.5075938" id="Fill-68" fill="#5C5C60"></path>
            <path d="M1.51289687,28.3092 C1.58070937,28.3770125 1.66789687,28.4351375 1.76477187,28.4738875 C1.86164687,28.5126375 1.96820937,28.5320125 2.06508437,28.5320125 C2.17164687,28.5320125 2.27820937,28.5126375 2.36539687,28.4738875 C2.46227187,28.4351375 2.54945937,28.3770125 2.62695937,28.3092 C2.69477187,28.2317 2.75289687,28.1445125 2.79164687,28.0476375 C2.83039687,27.9507625 2.85945937,27.8538875 2.85945937,27.747325 C2.85945937,27.5438875 2.77227187,27.34045 2.62695937,27.18545 C2.32664687,26.894825 1.80352187,26.894825 1.51289687,27.18545 C1.43539687,27.26295 1.37727187,27.3501375 1.33852187,27.4470125 C1.29977187,27.5438875 1.28039687,27.6417312 1.28039687,27.747325 C1.28039687,27.8538875 1.29977187,27.9507625 1.33852187,28.0476375 C1.37727187,28.1445125 1.43539687,28.2317 1.51289687,28.3092" id="Fill-69" fill="#5C5C60"></path>
        </g>
    </g>
</svg>