<?xml version="1.0" encoding="UTF-8"?>
<svg width="48px" height="48px" viewBox="0 0 48 48" version="1.1" xmlns="http://www.w3.org/2000/svg" xmlns:xlink="http://www.w3.org/1999/xlink">
    <!-- Generator: Sketch 62 (91390) - https://sketch.com -->
    <title>iconografia/marca/off/notificacion</title>
    <desc>Created with Sketch.</desc>
    <g id="iconografia/marca/off/notificacion" stroke="none" stroke-width="1" fill="none" fill-rule="evenodd">
        <g id="Group-16" transform="translate(9.000000, 4.000000)" fill="#5C5C60">
            <path d="M12.4596774,4.03935484 L18,4.03935484 L18,1.96645161 L12.4596774,1.96645161 L12.4596774,4.03935484 Z M29.8741935,32.1183871 L27.6745161,18.8748387 C27.4296774,17.4009677 27.2554839,15.9387097 27.1190323,14.703871 C26.6167742,10.1864516 23.6419355,6.50032258 19.6209677,4.90064516 C19.6819355,4.74580645 19.7177419,4.57935484 19.7177419,4.40322581 L19.7177419,1.60258065 C19.7177419,0.855483871 19.11,0.247741935 18.363871,0.247741935 L12.0967742,0.247741935 C11.3496774,0.247741935 10.7419355,0.855483871 10.7419355,1.60258065 L10.7419355,4.40322581 C10.7419355,4.55516129 10.7719355,4.6983871 10.8183871,4.83483871 C6.75774194,6.38709677 3.71322581,10.0683871 3.16064516,14.5858065 L3.08225806,15.2341935 C2.93225806,16.4767742 2.77741935,17.7609677 2.5683871,19.0112903 L1.54645161,25.3132258 C1.47096774,25.7816129 1.78935484,26.2229032 2.25677419,26.2993548 C2.73290323,26.3777419 3.16741935,26.0564516 3.24387097,25.5890323 L4.26483871,19.29 C4.47870968,18.0058065 4.63645161,16.7012903 4.7883871,15.4403226 L4.86774194,14.7948387 C5.49677419,9.64354839 9.90967742,5.75903226 15.1325806,5.75903226 C20.4145161,5.75903226 24.8322581,9.68612903 25.41,14.8935484 C25.5503226,16.1516129 25.7274194,17.6419355 25.9790323,19.1564516 L28.1196774,32.0419355 L2.14451613,32.0419355 L2.41645161,30.4122581 C2.49483871,29.943871 2.1783871,29.5016129 1.71096774,29.4232258 C1.24354839,29.3506452 0.799354839,29.6612903 0.720967742,30.1287097 L0.39,32.1203226 C0.322258065,32.5306452 0.437419355,32.9467742 0.707419355,33.2632258 C0.975483871,33.5787097 1.36741935,33.7596774 1.78258065,33.7596774 L28.4825806,33.7596774 C28.8987097,33.7596774 29.2906452,33.5787097 29.5587097,33.2622581 C29.8277419,32.9448387 29.9429032,32.5277419 29.8741935,32.1183871 L29.8741935,32.1183871 Z" id="Fill-61"></path>
            <path d="M8.13241935,28.1596452 C8.55629032,28.1596452 8.92596774,27.8460968 8.98306452,27.4135161 L10.301129,17.4322258 C10.361129,16.9831935 10.391129,16.5244839 10.391129,16.0706129 C10.391129,13.4722258 12.5182258,11.3586774 15.1320968,11.3586774 C15.6072581,11.3586774 15.9914516,10.9735161 15.9914516,10.4983548 C15.9914516,10.0241613 15.6072581,9.639 15.1320968,9.639 C11.5708065,9.639 8.6733871,12.5248065 8.6733871,16.0706129 C8.6733871,16.449 8.64725806,16.8312581 8.59790323,17.2077097 L7.27983871,27.1880323 C7.21790323,27.6583548 7.54790323,28.0909355 8.01919355,28.1519032 C8.05693548,28.1577097 8.09467742,28.1596452 8.13241935,28.1596452" id="Fill-63"></path>
            <path d="M17.9327419,35.4706452 C17.4585484,35.4706452 17.0733871,35.8548387 17.0733871,36.33 C17.0733871,37.3993548 16.2024194,38.2703226 15.1320968,38.2703226 C14.0627419,38.2703226 13.1917742,37.3993548 13.1917742,36.33 C13.1917742,35.8548387 12.8066129,35.4706452 12.3324194,35.4706452 C11.8582258,35.4706452 11.4730645,35.8548387 11.4730645,36.33 C11.4730645,38.3477419 13.1143548,39.9880645 15.1320968,39.9880645 C17.1498387,39.9880645 18.7920968,38.3477419 18.7920968,36.33 C18.7920968,35.8548387 18.4069355,35.4706452 17.9327419,35.4706452" id="Fill-64"></path>
            <path d="M1.31758065,28.2702581 C1.46274194,28.4250968 1.66596774,28.5025161 1.87887097,28.5025161 C2.09177419,28.5025161 2.28532258,28.4250968 2.43048387,28.2702581 C2.50790323,28.2025161 2.56596774,28.1154194 2.60467742,28.0186452 C2.6433871,27.921871 2.66370968,27.8250968 2.66370968,27.7186452 C2.66370968,27.6121935 2.6433871,27.5154194 2.60467742,27.4186452 C2.56596774,27.321871 2.50790323,27.2347742 2.43048387,27.1573548 C2.21854839,26.9444516 1.86048387,26.8767097 1.57983871,26.9928387 C1.48209677,27.0315484 1.395,27.0896129 1.31758065,27.1573548 C1.25080645,27.2347742 1.19177419,27.321871 1.15306452,27.4186452 C1.10467742,27.5154194 1.08532258,27.6121935 1.08532258,27.7186452 C1.08532258,27.8250968 1.10467742,27.921871 1.15306452,28.0186452 C1.19177419,28.1154194 1.25080645,28.2025161 1.31758065,28.2702581" id="Fill-65"></path>
        </g>
    </g>
</svg>