<?xml version="1.0" encoding="UTF-8"?>
<svg width="48px" height="48px" viewBox="0 0 48 48" version="1.1" xmlns="http://www.w3.org/2000/svg" xmlns:xlink="http://www.w3.org/1999/xlink">
    <!-- Generator: Sketch 62 (91390) - https://sketch.com -->
    <title>iconografia/marca/on/objetivo</title>
    <desc>Created with Sketch.</desc>
    <g id="iconografia/marca/on/objetivo" stroke="none" stroke-width="1" fill="none" fill-rule="evenodd">
        <g id="Page-1" transform="translate(2.000000, 2.000000)">
            <path d="M6.8862,37.0716 C4.2002,33.7086 2.5932,29.4456 2.5932,24.8066 C2.5932,13.9466 11.3972,5.1436 22.2572,5.1436 C33.1172,5.1436 41.9212,13.9466 41.9212,24.8066 C41.9212,35.6666 33.1172,44.4706 22.2572,44.4706 C17.7822,44.4706 13.6552,42.9756 10.3512,40.4576" id="Fill-1" fill="#FCD603"></path>
            <path d="M12.9438,30.1097 C9.0768,25.9327 9.3278,19.4117 13.5048,15.5447 C17.6818,11.6777 24.2028,11.9287 28.0698,16.1057 C31.9368,20.2827 31.6858,26.8037 27.5088,30.6707 C23.3318,34.5377 16.8108,34.2867 12.9438,30.1097" id="Fill-3" fill="#FFFFFF"></path>
            <path d="M24.0854,23.1078 C24.0854,25.0848 22.4834,26.6868 20.5064,26.6868 C18.5304,26.6868 16.9274,25.0848 16.9274,23.1078 C16.9274,21.1308 18.5304,19.5288 20.5064,19.5288 C22.4834,19.5288 24.0854,21.1308 24.0854,23.1078" id="Fill-5" fill="#B5B5B5"></path>
            <path d="M6.8691,36.1751 C6.5691,36.0451 6.2091,36.1251 5.9791,36.3451 C5.8291,36.5051 5.7491,36.7051 5.7491,36.9251 C5.7491,37.0351 5.7691,37.1351 5.8091,37.2351 C5.8491,37.3351 5.9091,37.4251 5.9791,37.4951 C6.0591,37.5751 6.1491,37.6351 6.2491,37.6751 C6.3491,37.7151 6.4491,37.7351 6.5591,37.7351 C6.7791,37.7351 6.9791,37.6541 7.1291,37.4951 C7.2891,37.3451 7.3691,37.1451 7.3691,36.9251 C7.3691,36.7051 7.2891,36.4951 7.1391,36.3451 C7.0591,36.2751 6.9691,36.2151 6.8691,36.1751" id="Fill-7" fill="#5C5C60"></path>
            <path d="M23.272,23.1078 C23.272,24.6328 22.032,25.8738 20.507,25.8738 C18.982,25.8738 17.741,24.6328 17.741,23.1078 C17.741,21.5828 18.982,20.3418 20.507,20.3418 C20.988,20.3418 21.434,20.4768 21.829,20.6938 L19.885,22.6968 C19.573,23.0188 19.58,23.5338 19.903,23.8468 C20.061,24.0008 20.265,24.0768 20.469,24.0768 C20.682,24.0768 20.894,23.9938 21.053,23.8298 L22.962,21.8628 C23.154,22.2388 23.272,22.6578 23.272,23.1078 M29.993,23.4728 C29.896,26.0068 28.817,28.3508 26.956,30.0738 C25.095,31.7958 22.672,32.6868 20.142,32.5928 C17.608,32.4968 15.264,31.4178 13.541,29.5568 C9.985,25.7158 10.217,19.6978 14.058,16.1408 C17.591,12.8718 22.96,12.8128 26.566,15.8118 L22.994,19.4938 C22.286,19.0048 21.43,18.7148 20.507,18.7148 C18.085,18.7148 16.114,20.6858 16.114,23.1078 C16.114,25.5298 18.085,27.5008 20.507,27.5008 C22.929,27.5008 24.899,25.5298 24.899,23.1078 C24.899,22.1968 24.619,21.3488 24.142,20.6468 L27.723,16.9568 C29.276,18.7748 30.086,21.0708 29.993,23.4728 M42.44,5.2828 L39.053,5.2828 L42.202,2.0378 C42.514,1.7148 42.507,1.2008 42.184,0.8868 C41.862,0.5748 41.346,0.5838 41.034,0.9048 L37.805,4.2318 L37.805,0.6618 C37.805,0.2968 37.508,0.0008 37.144,0.0008 C36.781,0.0008 36.484,0.2968 36.484,0.6618 L36.484,4.9978 C36.484,5.1608 36.55,5.3058 36.65,5.4218 L34.23,7.9148 C30.592,4.6258 25.787,2.6018 20.507,2.6018 C9.199,2.6018 0,11.8008 0,23.1078 C0,27.8078 1.548,32.2308 4.477,35.8988 C4.767,36.2618 5.298,36.3228 5.662,36.0318 C6.025,35.7408 6.085,35.2108 5.794,34.8458 C3.106,31.4808 1.686,27.4208 1.686,23.1078 C1.686,12.7308 10.129,4.2878 20.507,4.2878 C25.332,4.2878 29.723,6.1288 33.058,9.1238 L27.704,14.6398 C23.48,11.0458 17.124,11.0868 12.952,14.9478 C8.453,19.1138 8.182,26.1628 12.347,30.6628 L12.347,30.6628 C14.535,33.0258 17.519,34.2218 20.511,34.2218 C23.215,34.2218 25.925,33.2448 28.062,31.2668 C30.241,29.2498 31.504,26.5038 31.619,23.5358 C31.73,20.6698 30.746,17.9318 28.861,15.7848 L34.222,10.2598 C37.378,13.6278 39.328,18.1388 39.328,23.1078 C39.328,33.4858 30.885,41.9288 20.507,41.9288 C16.349,41.9288 12.408,40.6008 9.112,38.0868 C8.741,37.8048 8.212,37.8768 7.93,38.2478 C7.648,38.6178 7.719,39.1468 8.089,39.4288 C11.683,42.1678 15.977,43.6148 20.507,43.6148 C31.814,43.6148 41.014,34.4158 41.014,23.1078 C41.014,17.6658 38.868,12.7248 35.396,9.0498 L37.832,6.5408 C37.916,6.5788 38.006,6.6028 38.104,6.6028 L42.44,6.6028 C42.804,6.6028 43.101,6.3058 43.101,5.9428 C43.101,5.5798 42.804,5.2828 42.44,5.2828" id="Fill-9" fill="#5C5C60"></path>
        </g>
    </g>
</svg>