<?xml version="1.0" encoding="UTF-8"?>
<svg width="48px" height="48px" viewBox="0 0 48 48" version="1.1" xmlns="http://www.w3.org/2000/svg" xmlns:xlink="http://www.w3.org/1999/xlink">
    <!-- Generator: Sketch 62 (91390) - https://sketch.com -->
    <title>iconografia/marca/off/objetivo</title>
    <desc>Created with Sketch.</desc>
    <defs>
        <polygon id="path-1" points="0.0005 0.3862 43.1005 0.3862 43.1005 44 0.0005 44"></polygon>
    </defs>
    <g id="iconografia/marca/off/objetivo" stroke="none" stroke-width="1" fill="none" fill-rule="evenodd">
        <g id="Page-1" transform="translate(2.000000, 2.000000)">
            <path d="M7.1289,37.3501 C6.8289,37.0401 6.2789,37.0501 5.9789,37.3501 C5.8289,37.5001 5.7489,37.7101 5.7489,37.9201 C5.7489,38.0301 5.7689,38.1401 5.8089,38.2401 C5.8489,38.3301 5.9089,38.4201 5.9789,38.5001 C6.1389,38.6501 6.3389,38.7401 6.5589,38.7401 C6.6689,38.7401 6.7689,38.7201 6.8689,38.6801 C6.9689,38.6401 7.0589,38.5801 7.1289,38.5001 C7.2889,38.3501 7.3689,38.1401 7.3689,37.9201 C7.3689,37.8201 7.3489,37.7101 7.3089,37.6101 C7.2689,37.5101 7.2089,37.4201 7.1289,37.3501" id="Fill-1" fill="#5C5C60"></path>
            <g id="Group-5" transform="translate(0.000000, 0.614700)">
                <mask id="mask-2" fill="white">
                    <use xlink:href="#path-1"></use>
                </mask>
                <g id="Clip-4"></g>
                <path d="M23.2725,23.4932 C23.2725,25.0182 22.0315,26.2592 20.5065,26.2592 C18.9815,26.2592 17.7415,25.0182 17.7415,23.4932 C17.7415,21.9682 18.9815,20.7272 20.5065,20.7272 C20.9885,20.7272 21.4345,20.8622 21.8295,21.0792 L19.8855,23.0822 C19.5725,23.4042 19.5805,23.9192 19.9025,24.2322 C20.0605,24.3862 20.2655,24.4622 20.4695,24.4622 C20.6815,24.4622 20.8935,24.3792 21.0535,24.2152 L22.9625,22.2472 C23.1535,22.6232 23.2725,23.0432 23.2725,23.4932 M29.9935,23.8582 C29.8955,26.3922 28.8165,28.7362 26.9565,30.4592 C25.0955,32.1812 22.6715,33.0742 20.1415,32.9782 C17.6075,32.8822 15.2635,31.8032 13.5415,29.9422 C9.9845,26.1012 10.2165,20.0832 14.0575,16.5262 C17.5905,13.2582 22.9605,13.1982 26.5665,16.1972 L22.9935,19.8792 C22.2855,19.3902 21.4305,19.1002 20.5065,19.1002 C18.0855,19.1002 16.1145,21.0712 16.1145,23.4932 C16.1145,25.9152 18.0855,27.8862 20.5065,27.8862 C22.9285,27.8862 24.8995,25.9152 24.8995,23.4932 C24.8995,22.5822 24.6195,21.7342 24.1425,21.0322 L27.7235,17.3422 C29.2755,19.1602 30.0855,21.4562 29.9935,23.8582 M42.4405,5.6672 L39.0525,5.6672 L42.2015,2.4232 C42.5135,2.1002 42.5065,1.5862 42.1835,1.2722 C41.8615,0.9592 41.3465,0.9682 41.0335,1.2902 L37.8055,4.6162 L37.8055,1.0462 C37.8055,0.6822 37.5085,0.3862 37.1445,0.3862 C36.7815,0.3862 36.4845,0.6822 36.4845,1.0462 L36.4845,5.3832 C36.4845,5.5462 36.5505,5.6912 36.6495,5.8062 L34.2305,8.3002 C30.5915,5.0112 25.7875,2.9872 20.5065,2.9872 C9.1995,2.9872 0.0005,12.1862 0.0005,23.4932 C0.0005,28.1932 1.5475,32.6162 4.4775,36.2842 C4.7675,36.6472 5.2985,36.7072 5.6615,36.4172 C6.0255,36.1262 6.0855,35.5962 5.7945,35.2312 C3.1065,31.8662 1.6855,27.8062 1.6855,23.4932 C1.6855,13.1162 10.1285,4.6732 20.5065,4.6732 C25.3315,4.6732 29.7235,6.5132 33.0575,9.5092 L27.7035,15.0252 C23.4795,11.4302 17.1235,11.4722 12.9525,15.3332 C8.4535,19.4992 8.1815,26.5482 12.3465,31.0482 L12.3475,31.0482 C14.5355,33.4112 17.5195,34.6072 20.5105,34.6072 C23.2145,34.6072 25.9255,33.6302 28.0615,31.6522 C30.2415,29.6352 31.5045,26.8892 31.6185,23.9212 C31.7295,21.0552 30.7455,18.3172 28.8605,16.1702 L34.2215,10.6452 C37.3785,14.0132 39.3285,18.5242 39.3285,23.4932 C39.3285,33.8712 30.8845,42.3142 20.5065,42.3142 C16.3495,42.3142 12.4085,40.9862 9.1115,38.4722 C8.7415,38.1902 8.2115,38.2632 7.9295,38.6332 C7.6475,39.0032 7.7185,39.5322 8.0895,39.8142 C11.6825,42.5532 15.9765,44.0002 20.5065,44.0002 C31.8145,44.0002 41.0135,34.8012 41.0135,23.4932 C41.0135,18.0512 38.8685,13.1102 35.3965,9.4352 L37.8315,6.9262 C37.9155,6.9642 38.0065,6.9882 38.1045,6.9882 L42.4405,6.9882 C42.8035,6.9882 43.1005,6.6912 43.1005,6.3282 C43.1005,5.9652 42.8035,5.6672 42.4405,5.6672" id="Fill-3" fill="#5C5C60" mask="url(#mask-2)"></path>
            </g>
        </g>
    </g>
</svg>