<?xml version="1.0" encoding="UTF-8"?>
<svg width="48px" height="48px" viewBox="0 0 48 48" version="1.1" xmlns="http://www.w3.org/2000/svg" xmlns:xlink="http://www.w3.org/1999/xlink">
    <!-- Generator: Sketch 62 (91390) - https://sketch.com -->
    <title>iconografia/marca/on/pagos</title>
    <desc>Created with Sketch.</desc>
    <defs>
        <polygon id="path-1" points="0 40.668 36.56 40.668 36.56 0 0 0"></polygon>
    </defs>
    <g id="iconografia/marca/on/pagos" stroke="none" stroke-width="1" fill="none" fill-rule="evenodd">
        <g id="Page-1" transform="translate(6.000000, 3.000000)">
            <path d="M2.8291,31.586 L2.8291,39.332 C2.8291,40.07 3.4271,40.668 4.1651,40.668 L26.1291,40.668 C26.8671,40.668 27.4661,40.07 27.4661,39.332 L27.4661,4.005 C27.4661,3.267 26.8671,2.668 26.1291,2.668 L4.1651,2.668 C3.4271,2.668 2.8291,3.267 2.8291,4.005 L2.8291,25.264 L2.8291,31.586 Z" id="Fill-1" fill="#FCD603"></path>
            <mask id="mask-2" fill="white">
                <use xlink:href="#path-1"></use>
            </mask>
            <g id="Clip-4"></g>
            <polygon id="Fill-3" fill="#FFFFFF" mask="url(#mask-2)" points="4.948 29.934 21.315 29.934 21.315 5.898 4.948 5.898"></polygon>
            <path d="M15.1099,34.4483 C15.1099,35.5423 14.2239,36.4273 13.1319,36.4273 C12.0389,36.4273 11.1539,35.5423 11.1539,34.4483 C11.1539,33.3563 12.0389,32.4703 13.1319,32.4703 C14.2239,32.4703 15.1099,33.3563 15.1099,34.4483" id="Fill-5" fill="#B5B5B5" mask="url(#mask-2)"></path>
            <path d="M13.1318,33.2842 C12.4898,33.2842 11.9668,33.8062 11.9668,34.4482 C11.9668,35.0912 12.4898,35.6132 13.1318,35.6132 C13.7738,35.6132 14.2968,35.0912 14.2968,34.4482 C14.2968,33.8062 13.7738,33.2842 13.1318,33.2842 M13.1318,37.2402 C11.5928,37.2402 10.3398,35.9872 10.3398,34.4482 C10.3398,32.9092 11.5928,31.6572 13.1318,31.6572 C14.6708,31.6572 15.9238,32.9092 15.9238,34.4482 C15.9238,35.9872 14.6708,37.2402 13.1318,37.2402" id="Fill-6" fill="#5C5C60" mask="url(#mask-2)"></path>
            <polygon id="Fill-7" fill="#5C5C60" mask="url(#mask-2)" points="9.242 25.372 10.539 25.372 10.539 24.074 9.242 24.074"></polygon>
            <polygon id="Fill-8" fill="#5C5C60" mask="url(#mask-2)" points="12.483 25.372 13.78 25.372 13.78 24.074 12.483 24.074"></polygon>
            <polygon id="Fill-9" fill="#5C5C60" mask="url(#mask-2)" points="15.725 25.372 17.022 25.372 17.022 24.074 15.725 24.074"></polygon>
            <path d="M24.1133,0 L2.1493,0 C0.9643,0 0.0003,0.964 0.0003,2.149 L0.0003,23.41 C0.0003,23.859 0.3643,24.224 0.8133,24.224 C1.2623,24.224 1.6273,23.859 1.6273,23.41 L1.6273,2.149 C1.6273,1.861 1.8613,1.627 2.1493,1.627 L24.1133,1.627 C24.4023,1.627 24.6363,1.861 24.6363,2.149 L24.6363,37.477 C24.6363,37.766 24.4023,38 24.1133,38 L2.1493,38 C1.8613,38 1.6273,37.766 1.6273,37.477 L1.6273,29.731 C1.6273,29.282 1.2623,28.918 0.8133,28.918 C0.3643,28.918 0.0003,29.282 0.0003,29.731 L0.0003,37.477 C0.0003,38.662 0.9643,39.627 2.1493,39.627 L24.1133,39.627 C25.2993,39.627 26.2633,38.662 26.2633,37.477 L26.2633,2.149 C26.2633,0.964 25.2993,0 24.1133,0" id="Fill-10" fill="#5C5C60" mask="url(#mask-2)"></path>
            <path d="M5.762,29.12 L20.502,29.12 L20.502,6.711 L5.762,6.711 L5.762,29.12 Z M4.135,30.747 L22.129,30.747 L22.129,5.084 L4.135,5.084 L4.135,30.747 Z" id="Fill-11" fill="#5C5C60" mask="url(#mask-2)"></path>
            <polygon id="Fill-12" fill="#5C5C60" mask="url(#mask-2)" points="10.539 3.977 15.725 3.977 15.725 2.68 10.539 2.68"></polygon>
            <path d="M0.5537,26.6778 C0.6537,26.7178 0.7537,26.7468 0.8637,26.7468 C0.9737,26.7468 1.0737,26.7178 1.1737,26.6778 C1.2737,26.6378 1.3637,26.5768 1.4337,26.5078 C1.5137,26.4278 1.5737,26.3378 1.6137,26.2378 C1.6537,26.1378 1.6737,26.0368 1.6737,25.9278 C1.6737,25.8178 1.6537,25.7178 1.6137,25.6168 C1.5737,25.5178 1.5137,25.4278 1.4337,25.3578 C1.3637,25.2778 1.2737,25.2178 1.1737,25.1778 C0.9737,25.0978 0.7537,25.0978 0.5537,25.1778 C0.4537,25.2178 0.3637,25.2778 0.2837,25.3578 C0.1337,25.5078 0.0437,25.7178 0.0437,25.9278 C0.0437,26.1478 0.1337,26.3478 0.2837,26.5078 C0.3637,26.5768 0.4537,26.6378 0.5537,26.6778" id="Fill-13" fill="#5C5C60" mask="url(#mask-2)"></path>
            <polyline id="Fill-14" fill="#FFFFFF" mask="url(#mask-2)" points="14.3691 26.919 4.9851 26.919 4.9851 8.25 35.7461 8.25 35.7461 26.919 18.6201 26.919"></polyline>
            <path d="M23.7886,17.5801 C23.7886,19.5571 22.1866,21.1591 20.2096,21.1591 C18.2336,21.1591 16.6306,19.5571 16.6306,17.5801 C16.6306,15.6031 18.2336,14.0011 20.2096,14.0011 C22.1866,14.0011 23.7886,15.6031 23.7886,17.5801" id="Fill-15" fill="#B5B5B5" mask="url(#mask-2)"></path>
            <path d="M20.21,14.8145 C21.735,14.8145 22.975,16.0545 22.975,17.5805 C22.975,19.1055 21.735,20.3455 20.21,20.3455 C18.685,20.3455 17.444,19.1055 17.444,17.5805 C17.444,16.0545 18.685,14.8145 20.21,14.8145 M20.21,21.9725 C22.632,21.9725 24.602,20.0015 24.602,17.5805 C24.602,15.1585 22.632,13.1875 20.21,13.1875 C17.788,13.1875 15.817,15.1585 15.817,17.5805 C15.817,20.0015 17.788,21.9725 20.21,21.9725" id="Fill-16" fill="#5C5C60" mask="url(#mask-2)"></path>
            <path d="M34.9331,12.6729 C33.9301,12.4309 32.0881,11.6329 31.2391,9.0639 L34.9331,9.0639 L34.9331,12.6729 Z M34.9331,26.1059 L31.2631,26.1059 C32.1221,23.5959 33.9401,22.8139 34.9331,22.5729 L34.9331,26.1059 Z M5.7991,12.6559 L5.7991,9.0639 L9.4291,9.0639 C8.5971,11.5799 6.8141,12.3959 5.7991,12.6559 L5.7991,12.6559 Z M9.4051,26.1059 L5.7991,26.1059 L5.7991,22.5899 C6.8041,22.8479 8.5621,23.6479 9.4051,26.1059 L9.4051,26.1059 Z M35.7461,7.4369 L4.9851,7.4369 C4.5361,7.4369 4.1721,7.8009 4.1721,8.2499 L4.1721,26.9189 C4.1721,27.3679 4.5361,27.7329 4.9851,27.7329 L14.3691,27.7329 C14.8181,27.7329 15.1831,27.3679 15.1831,26.9189 C15.1831,26.4699 14.8181,26.1059 14.3691,26.1059 L11.1071,26.1059 C10.1291,22.5709 7.5141,21.2299 5.7991,20.9139 L5.7991,14.3319 C7.5271,14.0149 10.1701,12.6569 11.1301,9.0639 L29.5371,9.0639 C30.5101,12.7029 33.2061,14.0469 34.9331,14.3419 L34.9331,20.9039 C33.2191,21.1959 30.5511,22.5259 29.5611,26.1059 L18.6201,26.1059 C18.1711,26.1059 17.8071,26.4699 17.8071,26.9189 C17.8071,27.3679 18.1711,27.7329 18.6201,27.7329 L35.7461,27.7329 C36.1961,27.7329 36.5601,27.3679 36.5601,26.9189 L36.5601,8.2499 C36.5601,7.8009 36.1961,7.4369 35.7461,7.4369 L35.7461,7.4369 Z" id="Fill-17" fill="#5C5C60" mask="url(#mask-2)"></path>
            <path d="M16.9639,26.4678 C16.6639,26.1668 16.1239,26.1568 15.8139,26.4678 C15.6639,26.6168 15.5739,26.8268 15.5739,27.0368 C15.5739,27.2578 15.6539,27.4568 15.8139,27.6168 C15.8939,27.6968 15.9739,27.7468 16.0739,27.7978 C16.1739,27.8378 16.2839,27.8578 16.3839,27.8578 C16.6039,27.8578 16.8139,27.7678 16.9639,27.6168 C17.1139,27.4568 17.2039,27.2578 17.2039,27.0368 C17.2039,26.9378 17.1839,26.8268 17.1439,26.7278 C17.0939,26.6278 17.0439,26.5368 16.9639,26.4678" id="Fill-18" fill="#5C5C60" mask="url(#mask-2)"></path>
            <path d="M13.4219,18.334 L9.0849,18.334 C8.7219,18.334 8.4249,18.037 8.4249,17.674 C8.4249,17.311 8.7219,17.014 9.0849,17.014 L13.4219,17.014 C13.7849,17.014 14.0819,17.311 14.0819,17.674 C14.0819,18.037 13.7849,18.334 13.4219,18.334" id="Fill-19" fill="#FEFEFF" mask="url(#mask-2)"></path>
            <path d="M31.314,18.334 L26.977,18.334 C26.614,18.334 26.317,18.037 26.317,17.674 C26.317,17.311 26.614,17.014 26.977,17.014 L31.314,17.014 C31.677,17.014 31.974,17.311 31.974,17.674 C31.974,18.037 31.677,18.334 31.314,18.334" id="Fill-20" fill="#FEFEFF" mask="url(#mask-2)"></path>
        </g>
    </g>
</svg>