<?xml version="1.0" encoding="UTF-8"?>
<svg width="48px" height="48px" viewBox="0 0 48 48" version="1.1" xmlns="http://www.w3.org/2000/svg" xmlns:xlink="http://www.w3.org/1999/xlink">
    <!-- Generator: Sketch 62 (91390) - https://sketch.com -->
    <title>iconografia/marca/off/persona</title>
    <desc>Created with Sketch.</desc>
    <defs>
        <polygon id="path-1" points="0 0.79083358 33.1228694 0.79083358 33.1228694 16.9453 0 16.9453"></polygon>
    </defs>
    <g id="iconografia/marca/off/persona" stroke="none" stroke-width="1" fill="none" fill-rule="evenodd">
        <g id="Group-15" transform="translate(7.000000, 3.000000)">
            <path d="M1.2619,36.1325 C1.4819,36.1325 1.6819,36.0525 1.8419,35.9025 C1.9909,35.7425 2.0809,35.5325 2.0809,35.3225 C2.0809,35.1125 1.9909,34.9025 1.8419,34.7425 C1.7619,34.6725 1.6719,34.6125 1.5719,34.5725 C1.3709,34.4925 1.1519,34.4925 0.9509,34.5725 C0.8519,34.6125 0.7619,34.6725 0.6919,34.7425 C0.5319,34.9025 0.4509,35.1125 0.4509,35.3225 C0.4509,35.5325 0.5319,35.7425 0.6919,35.9025 C0.8419,36.0525 1.0519,36.1325 1.2619,36.1325" id="Fill-44" fill="#5C5C60"></path>
            <path d="M16.2688,1.6467 C21.6458,1.6467 26.0198,6.0217 26.0198,11.3977 C26.0198,16.7747 21.6458,21.1497 16.2688,21.1497 C10.8918,21.1497 6.5178,16.7747 6.5178,11.3977 C6.5178,6.0217 10.8918,1.6467 16.2688,1.6467 M16.2688,22.7767 C22.5418,22.7767 27.6468,17.6717 27.6468,11.3977 C27.6468,5.1247 22.5418,0.0197 16.2688,0.0197 C9.9958,0.0197 4.8908,5.1247 4.8908,11.3977 C4.8908,17.6717 9.9958,22.7767 16.2688,22.7767" id="Fill-46" fill="#5C5C60"></path>
            <path d="M1.4709,33.6379 C1.5009,33.6409 1.5319,33.6429 1.5619,33.6429 C1.9709,33.6429 2.3239,33.3349 2.3689,32.9189 L2.8119,29.1319 L8.9399,26.6799 C9.3579,26.5129 9.5599,26.0399 9.3929,25.6229 C9.2269,25.2059 8.7509,25.0029 8.3359,25.1699 L2.2069,27.6209 C1.6359,27.8509 1.2379,28.3729 1.1689,28.9869 L0.7519,32.7399 C0.7019,33.1859 1.0249,33.5879 1.4709,33.6379" id="Fill-48" fill="#5C5C60"></path>
            <g id="Group-52" transform="translate(0.000000, 24.321000)">
                <mask id="mask-2" fill="white">
                    <use xlink:href="#path-1"></use>
                </mask>
                <g id="Clip-51"></g>
                <path d="M33.1125,15.0923 L31.9545,4.6653 C31.8855,4.0513 31.4875,3.5293 30.9145,3.3003 L24.7875,0.8493 C24.3725,0.6823 23.8975,0.8853 23.7305,1.3023 C23.5635,1.7193 23.7655,2.1933 24.1835,2.3603 L30.3375,4.8453 L31.4535,15.3183 L1.6305,15.2353 L1.7315,13.6803 C1.7605,13.2323 1.4215,12.8443 0.9725,12.8163 C0.5375,12.7793 0.1375,13.1263 0.1085,13.5743 L0.0095,15.0933 C-0.0415,15.5643 0.1095,16.0363 0.4255,16.3893 C0.7425,16.7423 1.1955,16.9453 1.6695,16.9453 L31.4535,16.9453 C31.9275,16.9453 32.3825,16.7423 32.6985,16.3883 C33.0135,16.0353 33.1655,15.5623 33.1125,15.0923" id="Fill-50" fill="#5C5C60" mask="url(#mask-2)"></path>
            </g>
        </g>
    </g>
</svg>