<?xml version="1.0" encoding="UTF-8"?>
<svg width="48px" height="48px" viewBox="0 0 48 48" version="1.1" xmlns="http://www.w3.org/2000/svg" xmlns:xlink="http://www.w3.org/1999/xlink">
    <!-- Generator: Sketch 62 (91390) - https://sketch.com -->
    <!-- <title>iconografia/marca/on/persona</title>
    <desc>Created with Sketch.</desc> -->
    <defs>
        <polygon id="path-1" points="0.509901592 0.221977992 32.005 0.221977992 32.005 39.8426 0.509901592 39.8426"></polygon>
    </defs>
    <g id="iconografia/marca/on/persona" stroke="none" stroke-width="1" fill="none" fill-rule="evenodd">
        <g id="Group-18" transform="translate(6.000000, 3.000000)">
            <g id="Group-9" transform="translate(3.000000, 2.321000)">
                <mask id="mask-2" fill="white">
                    <use xlink:href="#path-1"></use>
                </mask>
                <g id="Clip-8"></g>
                <path d="M32.0002,38.8926 L30.8412,28.4656 C30.8062,28.1526 30.6022,27.8836 30.3092,27.7666 L26.8752,26.3926 C25.1652,25.7086 23.8382,24.3126 23.2402,22.5696 L22.1412,19.3566 C24.7982,17.4376 26.5282,14.3166 26.5282,10.7876 C26.5282,4.6986 21.3812,-0.1834 15.2022,0.2486 C10.0342,0.6116 5.8382,4.7716 5.4332,9.9366 C5.1422,13.6456 6.7702,16.9876 9.4272,19.0846 L8.5872,23.8696 C8.4302,24.7676 7.8172,25.5216 6.9712,25.8596 L2.2062,27.7666 C1.9122,27.8836 1.7092,28.1526 1.6742,28.4656 L1.2572,32.2186 L0.6152,37.3376 L0.5152,38.8926 C0.4592,39.3996 0.8542,39.8426 1.3642,39.8426 L31.1492,39.8426 C31.6592,39.8426 32.0562,39.3996 32.0002,38.8926" id="Fill-7" fill="#FCD603" mask="url(#mask-2)"></path>
            </g>
            <path d="M1.6721,35.9025 C1.8211,36.0525 2.0421,36.1325 2.2521,36.1325 C2.4621,36.1325 2.6721,36.0525 2.8211,35.9025 C2.9721,35.7425 3.0621,35.5325 3.0621,35.3225 C3.0621,35.1125 2.9721,34.9025 2.8211,34.7425 C2.5921,34.5225 2.2411,34.4425 1.9421,34.5725 C1.8421,34.6125 1.7521,34.6725 1.6721,34.7425 C1.5221,34.9025 1.4321,35.1125 1.4321,35.3225 C1.4321,35.4325 1.4511,35.5325 1.4911,35.6325 C1.5421,35.7325 1.6021,35.8225 1.6721,35.9025" id="Fill-53" fill="#5C5C60"></path>
            <path d="M17.2541,1.6467 C22.6301,1.6467 27.0041,6.0217 27.0041,11.3977 C27.0041,16.7747 22.6301,21.1497 17.2541,21.1497 C11.8771,21.1497 7.5021,16.7747 7.5021,11.3977 C7.5021,6.0217 11.8771,1.6467 17.2541,1.6467 M17.2541,22.7767 C23.5271,22.7767 28.6311,17.6717 28.6311,11.3977 C28.6311,5.1247 23.5271,0.0197 17.2541,0.0197 C10.9801,0.0197 5.8751,5.1247 5.8751,11.3977 C5.8751,17.6717 10.9801,22.7767 17.2541,22.7767" id="Fill-55" fill="#5C5C60"></path>
            <path d="M2.4553,33.6379 C2.4853,33.6409 2.5163,33.6429 2.5463,33.6429 C2.9553,33.6429 3.3073,33.3349 3.3533,32.9189 L3.7963,29.1319 L9.9243,26.6799 C10.3423,26.5129 10.5443,26.0399 10.3773,25.6229 C10.2103,25.2059 9.7343,25.0029 9.3203,25.1699 L3.1913,27.6209 C2.6183,27.8509 2.2213,28.3749 2.1543,28.9869 L1.7363,32.7399 C1.6863,33.1859 2.0093,33.5879 2.4553,33.6379" id="Fill-57" fill="#5C5C60"></path>
            <path d="M34.0969,39.4133 L32.9399,28.9863 C32.8709,28.3723 32.4729,27.8503 31.8999,27.6213 L25.7729,25.1703 C25.3579,25.0033 24.8829,25.2063 24.7159,25.6233 C24.5489,26.0403 24.7509,26.5143 25.1689,26.6813 L31.3229,29.1663 L32.4389,39.6393 L2.6159,39.5563 L2.7169,38.0013 C2.7459,37.5533 2.4069,37.1653 1.9579,37.1373 C1.5259,37.1003 1.1229,37.4473 1.0939,37.8953 L0.9949,39.4133 C0.9429,39.8833 1.0939,40.3563 1.4089,40.7093 C1.7259,41.0633 2.1799,41.2663 2.6549,41.2663 L32.4389,41.2663 C32.9139,41.2663 33.3679,41.0623 33.6839,40.7083 C33.9999,40.3543 34.1509,39.8823 34.0969,39.4133" id="Fill-59" fill="#5C5C60"></path>
        </g>
    </g>
</svg>