<?xml version="1.0" encoding="UTF-8"?>
<svg width="48px" height="48px" viewBox="0 0 48 48" version="1.1" xmlns="http://www.w3.org/2000/svg" xmlns:xlink="http://www.w3.org/1999/xlink">
    <!-- Generator: Sketch 62 (91390) - https://sketch.com -->
    <title>iconografia/marca/off/pin</title>
    <desc>Created with Sketch.</desc>
    <defs>
        <polygon id="path-1" points="0.0003 0.644 31.069 0.644 31.069 39.9997 0.0003 39.9997"></polygon>
    </defs>
    <g id="iconografia/marca/off/pin" stroke="none" stroke-width="1" fill="none" fill-rule="evenodd">
        <g id="Page-1" transform="translate(8.000000, 4.000000)">
            <path d="M6.9434,23.4043 C7.0444,23.4043 7.1534,23.3843 7.2544,23.3443 C7.3534,23.2953 7.4334,23.2343 7.5134,23.1653 C7.6634,23.0053 7.7544,22.8043 7.7544,22.5853 C7.7544,22.4843 7.7334,22.3753 7.6934,22.2743 C7.6534,22.1753 7.5844,22.0853 7.5134,22.0143 C7.2834,21.7853 6.9234,21.7153 6.6234,21.8353 C6.5334,21.8753 6.4434,21.9343 6.3634,22.0143 C6.2144,22.1653 6.1234,22.3753 6.1234,22.5853 C6.1234,22.6943 6.1434,22.8043 6.1834,22.8943 C6.2234,22.9953 6.2834,23.0853 6.3634,23.1653 C6.5134,23.3143 6.7234,23.4043 6.9434,23.4043" id="Fill-1" fill="#5C5C60"></path>
            <g id="Group-5" transform="translate(0.000000, 0.356400)">
                <mask id="mask-2" fill="white">
                    <use xlink:href="#path-1"></use>
                </mask>
                <g id="Clip-4"></g>
                <path d="M30.1133,23.5547 L25.6103,23.5547 L20.5763,2.5557 L24.2783,2.5557 C24.8063,2.5557 25.2343,2.1277 25.2343,1.5997 C25.2343,1.0717 24.8063,0.6437 24.2783,0.6437 L6.8313,0.6437 C6.3023,0.6437 5.8753,1.0717 5.8753,1.5997 C5.8753,2.1277 6.3023,2.5557 6.8313,2.5557 L10.7463,2.5557 L6.6283,19.8557 C6.5063,20.3687 6.8233,20.8857 7.3373,21.0077 C7.8503,21.1307 8.3673,20.8127 8.4893,20.2987 L12.6573,2.7897 L18.6663,2.7897 L23.6433,23.5547 L0.9563,23.5547 C0.4273,23.5547 0.0003,23.9827 0.0003,24.5107 C0.0003,25.0387 0.4273,25.4667 0.9563,25.4667 L14.8563,25.4667 L14.8563,39.0437 C14.8563,39.5727 15.2843,39.9997 15.8123,39.9997 C16.3413,39.9997 16.7683,39.5727 16.7683,39.0437 L16.7683,25.4667 L24.8433,25.4667 C24.8473,25.4667 24.8513,25.4687 24.8553,25.4687 C24.8603,25.4687 24.8663,25.4667 24.8713,25.4667 L30.1133,25.4667 C30.6413,25.4667 31.0693,25.0387 31.0693,24.5107 C31.0693,23.9827 30.6413,23.5547 30.1133,23.5547" id="Fill-3" fill="#5C5C60" mask="url(#mask-2)"></path>
            </g>
        </g>
    </g>
</svg>