<?xml version="1.0" encoding="UTF-8"?>
<svg width="48px" height="48px" viewBox="0 0 48 48" version="1.1" xmlns="http://www.w3.org/2000/svg" xmlns:xlink="http://www.w3.org/1999/xlink">
    <!-- Generator: Sketch 62 (91390) - https://sketch.com -->
    <title>iconografia/marca/on/pin</title>
    <desc>Created with Sketch.</desc>
    <defs>
        <polygon id="path-1" points="0.0002 0.644 31.069 0.644 31.069 40 0.0002 40"></polygon>
    </defs>
    <g id="iconografia/marca/on/pin" stroke="none" stroke-width="1" fill="none" fill-rule="evenodd">
        <g id="Page-1" transform="translate(8.000000, 4.000000)">
            <path d="M8.4111,25.8154 L13.5361,4.2804 C13.5971,4.0224 13.8271,3.8414 14.0911,3.8414 L20.7101,3.8414 C20.9741,3.8414 21.2031,4.0214 21.2641,4.2794 L26.3681,25.5644 C26.4841,26.0504 26.1161,26.5174 25.6161,26.5174 L8.9661,26.5174 C8.5971,26.5174 8.3251,26.1734 8.4111,25.8154" id="Fill-1" fill="#FCD603"></path>
            <g id="Group-5" transform="translate(0.000000, 0.356400)">
                <mask id="mask-2" fill="white">
                    <use xlink:href="#path-1"></use>
                </mask>
                <g id="Clip-4"></g>
                <path d="M12.6562,2.79 L18.6662,2.79 L23.6442,23.555 L7.7152,23.555 L12.6562,2.79 Z M30.1132,23.555 L25.6102,23.555 L20.5762,2.556 L24.2772,2.556 C24.8052,2.556 25.2332,2.128 25.2332,1.6 C25.2332,1.071 24.8052,0.644 24.2772,0.644 L6.8312,0.644 C6.3022,0.644 5.8752,1.071 5.8752,1.6 C5.8752,2.128 6.3022,2.556 6.8312,2.556 L10.7452,2.556 L5.7482,23.555 L0.9562,23.555 C0.4272,23.555 0.0002,23.982 0.0002,24.511 C0.0002,25.039 0.4272,25.467 0.9562,25.467 L6.4972,25.467 C6.4992,25.467 6.5022,25.468 6.5052,25.468 C6.5072,25.468 6.5092,25.467 6.5102,25.467 L14.8552,25.467 L14.8552,39.044 C14.8552,39.572 15.2832,40 15.8112,40 C16.3402,40 16.7672,39.572 16.7672,39.044 L16.7672,25.467 L30.1132,25.467 C30.6412,25.467 31.0692,25.039 31.0692,24.511 C31.0692,23.982 30.6412,23.555 30.1132,23.555 L30.1132,23.555 Z" id="Fill-3" fill="#5C5C60" mask="url(#mask-2)"></path>
            </g>
        </g>
    </g>
</svg>