<?xml version="1.0" encoding="UTF-8"?>
<svg width="48px" height="48px" viewBox="0 0 48 48" version="1.1" xmlns="http://www.w3.org/2000/svg" xmlns:xlink="http://www.w3.org/1999/xlink">
    <!-- Generator: Sketch 62 (91390) - https://sketch.com -->
    <title>iconografia/marca/off/premio</title>
    <desc>Created with Sketch.</desc>
    <defs>
        <polygon id="path-1" points="0 0.249 34.0936 0.249 34.0936 41 0 41"></polygon>
    </defs>
    <g id="iconografia/marca/off/premio" stroke="none" stroke-width="1" fill="none" fill-rule="evenodd">
        <g id="Page-1" transform="translate(7.000000, 3.000000)">
            <path d="M16.9048,19.6582 C17.3988,19.6582 17.7988,19.2582 17.7988,18.7642 C17.7988,18.2712 17.3988,17.8712 16.9048,17.8712 C14.5348,17.8712 12.6078,15.9432 12.6078,13.5742 L12.6078,7.0852 C12.6078,6.5922 12.2078,6.1912 11.7138,6.1912 C11.2198,6.1912 10.8208,6.5922 10.8208,7.0852 L10.8208,13.5742 C10.8208,16.9292 13.5498,19.6582 16.9048,19.6582" id="Fill-1" fill="#5C5C60"></path>
            <g id="Group-5" transform="translate(0.000000, 0.751000)">
                <mask id="mask-2" fill="white">
                    <use xlink:href="#path-1"></use>
                </mask>
                <g id="Clip-4"></g>
                <path d="M32.3066,6.334 C32.3066,8.646 30.4696,10.522 28.1806,10.614 L28.1806,4.63 L32.3066,4.586 L32.3066,6.334 Z M26.3936,12.823 C26.3936,17.955 22.2216,22.211 17.0926,22.31 C14.5576,22.34 12.1906,21.395 10.3576,19.598 C8.4886,17.764 7.4156,15.22 7.4156,12.618 L7.4156,2.049 L7.4286,2.036 L26.3936,2.049 L26.3936,12.823 Z M16.9046,26.304 C15.3806,26.304 14.1326,25.157 13.9436,23.684 C14.9016,23.952 15.8956,24.099 16.9106,24.099 C16.9826,24.099 17.0546,24.098 17.1266,24.097 C18.0736,24.078 18.9886,23.929 19.8666,23.687 C19.6756,25.158 18.4276,26.304 16.9046,26.304 L16.9046,26.304 Z M17.6726,34.336 L15.7626,34.336 L15.7626,27.938 C16.1306,28.028 16.5086,28.091 16.9046,28.091 C17.1676,28.091 17.4206,28.054 17.6726,28.013 L17.6726,34.336 Z M1.7866,6.334 L1.7866,4.632 L5.6286,4.632 L5.6286,10.586 C3.4756,10.355 1.7866,8.548 1.7866,6.334 L1.7866,6.334 Z M32.3526,2.845 L28.1806,2.845 L28.1806,2.049 C28.1806,1.057 27.3736,0.249 26.3816,0.249 L7.4286,0.249 C6.4356,0.249 5.6286,1.057 5.6286,2.049 L5.6286,2.845 L1.6236,2.845 C0.7286,2.845 -0.0004,3.573 -0.0004,4.469 L-0.0004,6.334 C-0.0004,9.536 2.4866,12.161 5.6286,12.396 L5.6286,12.618 C5.6286,15.696 6.8966,18.705 9.1066,20.873 C10.0226,21.772 11.0616,22.482 12.1756,23.015 C12.1436,23.106 12.1176,23.201 12.1176,23.304 C12.1176,24.846 12.8636,26.205 13.9986,27.081 C13.9936,27.121 13.9756,27.156 13.9756,27.197 L13.9756,34.336 L5.3406,34.336 C4.7846,34.336 4.3316,34.789 4.3316,35.347 L4.3316,39.989 C4.3316,40.547 4.7846,41 5.3406,41 L6.3336,41 C6.8276,41 7.2276,40.6 7.2276,40.106 C7.2276,39.613 6.8276,39.213 6.3336,39.213 L6.1186,39.213 L6.1186,36.123 L27.6916,36.123 L27.6916,39.213 L11.3566,39.213 C10.8636,39.213 10.4636,39.613 10.4636,40.106 C10.4636,40.6 10.8636,41 11.3566,41 L28.4686,41 C29.0256,41 29.4786,40.547 29.4786,39.989 L29.4786,35.347 C29.4786,34.789 29.0256,34.336 28.4686,34.336 L19.4596,34.336 L19.4596,27.337 C20.7966,26.487 21.6916,25.002 21.6916,23.304 C21.6916,23.209 21.6646,23.122 21.6376,23.036 C25.4886,21.231 28.1806,17.313 28.1806,12.823 L28.1806,12.41 C31.4556,12.318 34.0936,9.632 34.0936,6.334 L34.0936,4.586 C34.0936,3.626 33.3126,2.845 32.3526,2.845 L32.3526,2.845 Z" id="Fill-3" fill="#5C5C60" mask="url(#mask-2)"></path>
            </g>
            <path d="M8.3696,40.2842 C8.2196,40.4332 8.1296,40.6432 8.1296,40.8532 C8.1296,40.9642 8.1496,41.0742 8.1896,41.1642 C8.2296,41.2632 8.2896,41.3532 8.3696,41.4332 C8.5196,41.5842 8.7296,41.6742 8.9396,41.6742 C9.0496,41.6742 9.1596,41.6542 9.2596,41.6142 C9.3496,41.5632 9.4396,41.5132 9.5196,41.4332 C9.5996,41.3532 9.6496,41.2632 9.6996,41.1642 C9.7396,41.0742 9.7596,40.9642 9.7596,40.8532 C9.7596,40.6432 9.6696,40.4332 9.5196,40.2842 C9.2096,39.9732 8.6696,39.9732 8.3696,40.2842" id="Fill-6" fill="#5C5C60"></path>
        </g>
    </g>
</svg>