<?xml version="1.0" encoding="UTF-8"?>
<svg width="48px" height="48px" viewBox="0 0 48 48" version="1.1" xmlns="http://www.w3.org/2000/svg" xmlns:xlink="http://www.w3.org/1999/xlink">
    <!-- Generator: Sketch 62 (91390) - https://sketch.com -->
    <title>iconografia/marca/on/premio</title>
    <desc>Created with Sketch.</desc>
    <defs>
        <polygon id="path-1" points="0.9393 0.1232 24.3003 0.1232 24.3003 5 0.9393 5"></polygon>
        <polygon id="path-3" points="0 0.07 34.0936 0.07 34.0936 40.8205 0 40.8205"></polygon>
    </defs>
    <g id="iconografia/marca/on/premio" stroke="none" stroke-width="1" fill="none" fill-rule="evenodd">
        <g id="Page-1" transform="translate(7.000000, 3.000000)">
            <path d="M28.2383,3.583 L9.2853,3.583 C8.7853,3.583 8.3793,3.989 8.3793,4.489 L8.3793,15.059 C8.3793,19.431 11.0663,23.268 14.8683,24.86 L14.8683,25.744 C14.8683,27.146 15.6153,28.364 16.7253,29.049 L16.7253,36.813 L20.4233,36.813 L20.4233,29.253 C21.7383,28.629 22.6553,27.299 22.6553,25.744 L22.6553,24.88 C26.4583,23.34 29.1443,19.62 29.1443,15.264 L29.1443,4.489 C29.1443,3.989 28.7383,3.583 28.2383,3.583" id="Fill-1" fill="#FCD603"></path>
            <g id="Group-5" transform="translate(6.000000, 36.930400)">
                <mask id="mask-2" fill="white">
                    <use xlink:href="#path-1"></use>
                </mask>
                <g id="Clip-4"></g>
                <path d="M2.0493,5.0002 L1.0563,5.0002 C0.9913,5.0002 0.9393,4.9482 0.9393,4.8832 L0.9393,0.2402 C0.9393,0.1752 0.9913,0.1232 1.0563,0.1232 L24.1833,0.1232 C24.2473,0.1232 24.3003,0.1752 24.3003,0.2402 L24.3003,4.8832 C24.3003,4.9482 24.2473,5.0002 24.1833,5.0002 L7.0723,5.0002 L2.0493,5.0002 Z" id="Fill-3" fill="#B5B5B5" mask="url(#mask-2)"></path>
            </g>
            <path d="M16.5366,19.4619 C13.1816,19.4619 10.4526,16.7329 10.4526,13.3769 L10.4526,6.8889 C10.4526,6.3959 10.8516,5.9949 11.3456,5.9949 C11.8396,5.9949 12.2396,6.3959 12.2396,6.8889 L12.2396,13.3769 C12.2396,15.7469 14.1666,17.6749 16.5366,17.6749 C17.0306,17.6749 17.4306,18.0749 17.4306,18.5679 C17.4306,19.0619 17.0306,19.4619 16.5366,19.4619" id="Fill-6" fill="#FFFFFF"></path>
            <g id="Group-10" transform="translate(0.000000, 0.930400)">
                <mask id="mask-4" fill="white">
                    <use xlink:href="#path-3"></use>
                </mask>
                <g id="Clip-9"></g>
                <path d="M32.3066,6.1545 C32.3066,8.4665 30.4696,10.3425 28.1806,10.4345 L28.1806,4.4505 L32.3066,4.4065 L32.3066,6.1545 Z M26.3936,12.6435 C26.3936,17.7755 22.2216,22.0315 17.0926,22.1305 C14.5556,22.1605 12.1906,21.2155 10.3576,19.4185 C8.4876,17.5845 7.4156,15.0405 7.4156,12.4385 L7.4156,1.8695 L7.4286,1.8565 L26.3936,1.8695 L26.3936,12.6435 Z M16.9046,26.1245 C15.3806,26.1245 14.1326,24.9775 13.9436,23.5045 C14.9016,23.7725 15.8956,23.9195 16.9106,23.9195 C16.9826,23.9195 17.0546,23.9185 17.1266,23.9175 C18.0736,23.8985 18.9886,23.7495 19.8666,23.5075 C19.6756,24.9785 18.4276,26.1245 16.9046,26.1245 L16.9046,26.1245 Z M17.6726,34.1565 L15.7626,34.1565 L15.7626,27.7585 C16.1306,27.8485 16.5086,27.9115 16.9046,27.9115 C17.1676,27.9115 17.4206,27.8745 17.6726,27.8335 L17.6726,34.1565 Z M1.7866,6.1545 L1.7866,4.4525 L5.6286,4.4525 L5.6286,10.4065 C3.4756,10.1755 1.7866,8.3685 1.7866,6.1545 L1.7866,6.1545 Z M32.3516,2.6655 L28.1806,2.6655 L28.1806,1.8695 C28.1806,0.8775 27.3736,0.0695 26.3816,0.0695 L7.4286,0.0695 C6.4356,0.0695 5.6286,0.8775 5.6286,1.8695 L5.6286,2.6655 L1.6246,2.6655 C0.7286,2.6655 -0.0004,3.3935 -0.0004,4.2895 L-0.0004,6.1545 C-0.0004,9.3555 2.4866,11.9815 5.6286,12.2165 L5.6286,12.4385 C5.6286,15.5165 6.8956,18.5255 9.1066,20.6935 C10.0226,21.5925 11.0616,22.3025 12.1766,22.8355 C12.1436,22.9265 12.1176,23.0215 12.1176,23.1245 C12.1176,24.6665 12.8636,26.0255 13.9986,26.9015 C13.9936,26.9415 13.9756,26.9765 13.9756,27.0175 L13.9756,34.1565 L5.3406,34.1565 C4.7846,34.1565 4.3316,34.6095 4.3316,35.1675 L4.3316,39.8095 C4.3316,40.3675 4.7846,40.8205 5.3406,40.8205 L6.3336,40.8205 C6.8276,40.8205 7.2276,40.4205 7.2276,39.9265 C7.2276,39.4335 6.8276,39.0335 6.3336,39.0335 L6.1186,39.0335 L6.1186,35.9435 L27.6916,35.9435 L27.6916,39.0335 L11.3566,39.0335 C10.8636,39.0335 10.4636,39.4335 10.4636,39.9265 C10.4636,40.4205 10.8636,40.8205 11.3566,40.8205 L28.4676,40.8205 C29.0246,40.8205 29.4786,40.3675 29.4786,39.8095 L29.4786,35.1675 C29.4786,34.6095 29.0246,34.1565 28.4676,34.1565 L19.4596,34.1565 L19.4596,27.1575 C20.7966,26.3075 21.6916,24.8225 21.6916,23.1245 C21.6916,23.0295 21.6656,22.9425 21.6386,22.8565 C25.4886,21.0515 28.1806,17.1335 28.1806,12.6435 L28.1806,12.2305 C31.4556,12.1385 34.0936,9.4525 34.0936,6.1545 L34.0936,4.4065 C34.0936,3.4465 33.3126,2.6655 32.3516,2.6655 L32.3516,2.6655 Z" id="Fill-8" fill="#5C5C60" mask="url(#mask-4)"></path>
            </g>
            <path d="M8.3667,40.2841 C8.2167,40.4331 8.1267,40.6431 8.1267,40.8531 C8.1267,40.9641 8.1467,41.0741 8.1867,41.1641 C8.2367,41.2631 8.2967,41.3531 8.3667,41.4331 C8.5167,41.5841 8.7267,41.6741 8.9467,41.6741 C9.0567,41.6741 9.1567,41.6541 9.2567,41.6141 C9.3567,41.5631 9.4467,41.5131 9.5167,41.4331 C9.5967,41.3531 9.6567,41.2631 9.6967,41.1641 C9.7367,41.0741 9.7567,40.9641 9.7567,40.8531 C9.7567,40.6431 9.6667,40.4331 9.5167,40.2841 C9.2167,39.9731 8.6767,39.9731 8.3667,40.2841" id="Fill-11" fill="#5C5C60"></path>
        </g>
    </g>
</svg>