<?xml version="1.0" encoding="UTF-8"?>
<svg width="48px" height="48px" viewBox="0 0 48 48" version="1.1" xmlns="http://www.w3.org/2000/svg" xmlns:xlink="http://www.w3.org/1999/xlink">
    <!-- Generator: Sketch 62 (91390) - https://sketch.com -->
    <title>iconografia/marca/off/retiro-dinero</title>
    <desc>Created with Sketch.</desc>
    <defs>
        <polygon id="path-1" points="25.5949707 12.3237305 31.1798988 12.3237305 31.1798988 0 0 0 0 43.6755371 32.220459 43.6755371 32.220459 31.253418 9.10839844 31.253418 9.10839844 10.1918945 20.9379883 10.1918945 21.4350586 13.4265137 25.5949707 13.1416016"></polygon>
    </defs>
    <g id="iconografia/marca/off/retiro-dinero" stroke="none" stroke-width="1" fill="none" fill-rule="evenodd">
        <g id="Page-1" transform="translate(23.500000, 23.500000) rotate(90.000000) translate(-23.500000, -23.500000) translate(2.500000, 1.500000)">
            <g id="Group-15">
                <mask id="mask-2" fill="white">
                    <use xlink:href="#path-1"></use>
                </mask>
                <g id="Mask"></g>
                <g mask="url(#mask-2)" fill="#5C5C60">
                    <g transform="translate(2.000000, 1.627000)">
                        <path d="M2.1498,0.373 C0.9648,0.373 -0.0002,1.337 -0.0002,2.522 L-0.0002,23.783 C-0.0002,24.232 0.3638,24.597 0.8138,24.597 C1.2628,24.597 1.6268,24.232 1.6268,23.783 L1.6268,2.522 C1.6268,2.234 1.8618,2 2.1498,2 L12.1138,2 C12.4028,2 12.6368,2.234 12.6368,2.522 C12.6368,15.7891111 12.6368,25.7394444 12.6368,32.373 C12.6368,33.5901111 12.6368,35.4157778 12.6368,37.85 C12.6368,38.139 12.4028,38.373 12.1138,38.373 L2.1498,38.373 C1.8618,38.373 1.6268,38.139 1.6268,37.85 L1.6268,30.104 C1.6268,29.655 1.2628,29.291 0.8138,29.291 C0.3638,29.291 -0.0002,29.655 -0.0002,30.104 L-0.0002,37.85 C-0.0002,39.035 0.9648,40 2.1498,40 L12.1138,40 C13.2998,40 14.2638,39.035 14.2638,37.85 L14.2638,2.522 C14.2638,1.337 13.2998,0.373 12.1138,0.373 L2.1498,0.373 Z" id="Fill-2"></path>
                        <path d="M0.8604,27.1201 C0.9704,27.1201 1.0804,27.0911 1.1704,27.0511 C1.2704,27.0111 1.3604,26.9501 1.4404,26.8811 C1.5104,26.8011 1.5704,26.7111 1.6104,26.6101 C1.6604,26.5111 1.6804,26.4101 1.6804,26.3011 C1.6804,26.1901 1.6604,26.0911 1.6104,25.9901 C1.5704,25.8911 1.5104,25.8011 1.4404,25.7301 C1.3604,25.6501 1.2704,25.5911 1.1704,25.5511 C0.9804,25.4711 0.7504,25.4711 0.5504,25.5511 C0.4504,25.5911 0.3604,25.6501 0.2904,25.7301 C0.1404,25.8811 0.0504,26.0911 0.0504,26.3011 C0.0504,26.5201 0.1304,26.7211 0.2904,26.8811 C0.4404,27.0301 0.6504,27.1201 0.8604,27.1201" id="Fill-8"></path>
                    </g>
                </g>
            </g>
            <path d="M-4.87925781,22.0930859 L24.0097422,22.0930859 C24.3678988,22.0930859 24.6582422,21.8027426 24.6582422,21.4445859 C24.6582422,21.0864293 24.3678988,20.7960859 24.0097422,20.7960859 L-4.87925781,20.7960859 C-5.23741447,20.7960859 -5.52775781,21.0864293 -5.52775781,21.4445859 C-5.52775781,21.8027426 -5.23741447,22.0930859 -4.87925781,22.0930859 Z" id="Fill-1" fill="#5C5C60" transform="translate(9.565242, 21.444586) rotate(90.000000) translate(-9.565242, -21.444586) "></path>
            <g id="Group" transform="translate(9.000000, 10.627000)">
                <polyline id="Fill-9" points="10.4639 20.4629 1.0799 20.4629 1.0799 1.7939 31.8409 1.7939 31.8409 20.4629 14.7149 20.4629"></polyline>
                <path d="M27.3569,19.6494 C28.2169,17.1394 30.0339,16.3574 31.0269,16.1174 L31.0269,19.6494 L27.3569,19.6494 Z M27.3339,2.6074 L31.0269,2.6074 L31.0269,6.2134 C30.0279,5.9684 28.1819,5.1684 27.3339,2.6074 L27.3339,2.6074 Z M1.8929,6.2004 L1.8929,2.6074 L5.5239,2.6074 C4.6909,5.1254 2.9079,5.9404 1.8929,6.2004 L1.8929,6.2004 Z M5.4989,19.6494 L1.8929,19.6494 L1.8929,16.1334 C2.8989,16.3914 4.6569,17.1914 5.4989,19.6494 L5.4989,19.6494 Z M31.8409,0.9804 L1.0799,0.9804 C0.6299,0.9804 0.2659,1.3444 0.2659,1.7944 L0.2659,20.4624 C0.2659,20.9124 0.6299,21.2764 1.0799,21.2764 L10.4639,21.2764 C10.9129,21.2764 11.2769,20.9124 11.2769,20.4624 C11.2769,20.0134 10.9129,19.6494 10.4639,19.6494 L7.2009,19.6494 C6.2229,16.1154 3.6079,14.7734 1.8929,14.4584 L1.8929,7.8764 C3.6219,7.5584 6.2649,6.2014 7.2249,2.6074 L25.6309,2.6074 C26.6039,6.2484 29.3009,7.5914 31.0269,7.8854 L31.0269,14.4484 C29.3139,14.7404 26.6459,16.0694 25.6549,19.6494 L14.7149,19.6494 C14.2659,19.6494 13.9009,20.0134 13.9009,20.4624 C13.9009,20.9124 14.2659,21.2764 14.7149,21.2764 L31.8409,21.2764 C32.2899,21.2764 32.6539,20.9124 32.6539,20.4624 L32.6539,1.7944 C32.6539,1.3444 32.2899,0.9804 31.8409,0.9804 L31.8409,0.9804 Z" id="Fill-10" fill="#5C5C60"></path>
                <path d="M13.0605,20.0107 C12.8305,19.7807 12.4705,19.7107 12.1705,19.8297 C12.0705,19.8807 11.9805,19.9407 11.9105,20.0107 C11.7505,20.1597 11.6705,20.3697 11.6705,20.5907 C11.6705,20.8007 11.7505,21.0107 11.9105,21.1597 C11.9805,21.2397 12.0705,21.3007 12.1705,21.3407 C12.2705,21.3807 12.3705,21.4007 12.4805,21.4007 C12.7005,21.4007 12.9005,21.3207 13.0605,21.1597 C13.2105,21.0107 13.2905,20.8007 13.2905,20.5907 C13.2905,20.4807 13.2705,20.3697 13.2305,20.2707 C13.1905,20.1707 13.1305,20.0907 13.0605,20.0107" id="Fill-11" fill="#5C5C60"></path>
                <path d="M16.3042,8.3594 C17.8292,8.3594 19.0702,9.5994 19.0702,11.1254 C19.0702,12.6504 17.8292,13.8904 16.3042,13.8904 C14.7792,13.8904 13.5382,12.6504 13.5382,11.1254 C13.5382,9.5994 14.7792,8.3594 16.3042,8.3594 M16.3042,15.5174 C18.7262,15.5174 20.6972,13.5464 20.6972,11.1254 C20.6972,8.7034 18.7262,6.7324 16.3042,6.7324 C13.8822,6.7324 11.9112,8.7034 11.9112,11.1254 C11.9112,13.5464 13.8822,15.5174 16.3042,15.5174" id="Fill-12" fill="#5C5C60"></path>
                <path d="M5.1792,10.5576 C4.8162,10.5576 4.5192,10.8546 4.5192,11.2176 C4.5192,11.5816 4.8162,11.8786 5.1792,11.8786 L9.5162,11.8786 C9.8792,11.8786 10.1762,11.5816 10.1762,11.2176 C10.1762,10.8546 9.8792,10.5576 9.5162,10.5576 L5.1792,10.5576 Z" id="Fill-13" fill="#5C5C60"></path>
                <path d="M27.4082,11.8789 C27.7712,11.8789 28.0682,11.5819 28.0682,11.2179 C28.0682,10.8549 27.7712,10.5579 27.4082,10.5579 L23.0712,10.5579 C22.7082,10.5579 22.4112,10.8549 22.4112,11.2179 C22.4112,11.5819 22.7082,11.8789 23.0712,11.8789 L27.4082,11.8789 Z" id="Fill-14" fill="#5C5C60"></path>
            </g>
        </g>
    </g>
</svg>