<?xml version="1.0" encoding="UTF-8"?>
<svg width="48px" height="48px" viewBox="0 0 48 48" version="1.1" xmlns="http://www.w3.org/2000/svg" xmlns:xlink="http://www.w3.org/1999/xlink">
    <!-- Generator: Sketch 62 (91390) - https://sketch.com -->
    <title>iconografia/marca/off/salir</title>
    <desc>Created with Sketch.</desc>
    <g id="iconografia/marca/off/salir" stroke="none" stroke-width="1" fill="none" fill-rule="evenodd">
        <g id="Group" transform="translate(6.000000, 5.000000)" fill="#58595B" fill-rule="nonzero">
            <path d="M20.9193959,33.728931 L30.4877163,24.8186642 C30.8716828,24.4611047 31.4728085,24.4825118 31.8303681,24.8664783 C32.1879276,25.2504449 32.1665205,25.8515705 31.782554,26.2091301 L21.566847,35.72226 C21.2020837,36.061937 20.6368241,36.061951 20.2720439,35.7222922 L10.0553184,26.2091623 C9.6713341,25.8516218 9.64989711,25.2504972 10.0074376,24.8665129 C10.364978,24.4825286 10.9661027,24.4610916 11.350087,24.818632 L20.9193959,33.728931 Z M21.8691226,33.3853932 C21.8691226,33.9100638 21.4437931,34.3353932 20.9191226,34.3353932 C20.3944521,34.3353932 19.9691226,33.9100638 19.9691226,33.3853932 L19.9691226,4.86486486 C19.9691226,4.34019435 20.3944521,3.91486486 20.9191226,3.91486486 C21.4437931,3.91486486 21.8691226,4.34019435 21.8691226,4.86486486 L21.8691226,33.3853932 Z" id="Stroke-57" transform="translate(20.918919, 19.945946) rotate(-90.000000) translate(-20.918919, -19.945946) "></path>
            <path d="M3.89189189,0.947297297 C4.4165624,0.947297297 4.84189189,1.37262678 4.84189189,1.8972973 C4.84189189,2.42196781 4.4165624,2.8472973 3.89189189,2.8472973 C1.81666022,2.8472973 0.95,3.69229101 0.95,5.69189189 L0.95,34.1513514 C0.95,36.1509522 1.81666022,36.9959459 3.89189189,36.9959459 L17.5135135,36.9959459 C18.038184,36.9959459 18.4635135,37.4212754 18.4635135,37.9459459 C18.4635135,38.4706165 18.038184,38.8959459 17.5135135,38.8959459 L3.89189189,38.8959459 C0.777934379,38.8959459 -0.95,37.2112099 -0.95,34.1513514 L-0.95,5.69189189 C-0.95,2.63203332 0.777934379,0.947297297 3.89189189,0.947297297 Z M3.89189189,2.8472973 C3.36722138,2.8472973 2.94189189,2.42196781 2.94189189,1.8972973 C2.94189189,1.37262678 3.36722138,0.947297297 3.89189189,0.947297297 L17.5135135,0.947297297 C18.038184,0.947297297 18.4635135,1.37262678 18.4635135,1.8972973 C18.4635135,2.42196781 18.038184,2.8472973 17.5135135,2.8472973 L3.89189189,2.8472973 Z" id="Path-9"></path>
        </g>
    </g>
</svg>