<?xml version="1.0" encoding="UTF-8"?>
<svg width="48px" height="48px" viewBox="0 0 48 48" version="1.1" xmlns="http://www.w3.org/2000/svg" xmlns:xlink="http://www.w3.org/1999/xlink">
    <!-- Generator: Sketch 62 (91390) - https://sketch.com -->
    <title>iconografia/marca/on/salir</title>
    <desc>Created with Sketch.</desc>
    <g id="iconografia/marca/on/salir" stroke="none" stroke-width="1" fill="none" fill-rule="evenodd">
        <g id="Group" transform="translate(9.000000, 8.000000)" fill="#FCD600" fill-rule="nonzero">
            <path d="M3.77777778,0.6 C4.46813372,0.6 5.02777778,1.15964406 5.02777778,1.85 C5.02777778,2.54035594 4.46813372,3.1 3.77777778,3.1 C1.94386189,3.1 1.25,3.77957649 1.25,5.55 L1.25,33.3 C1.25,35.0704235 1.94386189,35.75 3.77777778,35.75 L17,35.75 C17.6903559,35.75 18.25,36.3096441 18.25,37 C18.25,37.6903559 17.6903559,38.25 17,38.25 L3.77777778,38.25 C0.574656633,38.25 -1.25,36.4629098 -1.25,33.3 L-1.25,5.55 C-1.25,2.38709017 0.574656633,0.6 3.77777778,0.6 Z M3.77777778,3.1 C3.08742184,3.1 2.52777778,2.54035594 2.52777778,1.85 C2.52777778,1.15964406 3.08742184,0.6 3.77777778,0.6 L17,0.6 C17.6903559,0.6 18.25,1.15964406 18.25,1.85 C18.25,2.54035594 17.6903559,3.1 17,3.1 L3.77777778,3.1 Z" id="Path-9"></path>
        </g>
        <g id="Group-Copy" transform="translate(6.000000, 5.000000)" fill="#58595B" fill-rule="nonzero">
            <path d="M30.4536416,24.782073 C30.8578169,24.4056945 31.4905808,24.4282283 31.8669593,24.8324036 C32.2433378,25.236579 32.220804,25.8693428 31.8166287,26.2457213 L21.6009217,35.7588512 C21.2169603,36.1164059 20.6219502,36.1164207 20.237971,35.7588851 L10.0212456,26.2457552 C9.61705154,25.8693968 9.59448629,25.2366341 9.97084467,24.83244 C10.3472031,24.428246 10.9799658,24.4056807 11.3841598,24.7820391 L20.9193942,33.6606102 L30.4536416,24.782073 Z M21.9191226,33.3853932 C21.9191226,33.937678 21.4714074,34.3853932 20.9191226,34.3853932 C20.3668379,34.3853932 19.9191226,33.937678 19.9191226,33.3853932 L19.9191226,4.86486486 C19.9191226,4.31258012 20.3668379,3.86486486 20.9191226,3.86486486 C21.4714074,3.86486486 21.9191226,4.31258012 21.9191226,4.86486486 L21.9191226,33.3853932 Z" id="Stroke-57" transform="translate(20.918919, 19.945946) rotate(-90.000000) translate(-20.918919, -19.945946) "></path>
            <path d="M3.89189189,0.897297297 C4.44417664,0.897297297 4.89189189,1.34501255 4.89189189,1.8972973 C4.89189189,2.44958205 4.44417664,2.8972973 3.89189189,2.8972973 C1.84399511,2.8972973 1,3.72019253 1,5.69189189 L1,34.1513514 C1,36.1230507 1.84399511,36.9459459 3.89189189,36.9459459 L17.5135135,36.9459459 C18.0657983,36.9459459 18.5135135,37.3936612 18.5135135,37.9459459 C18.5135135,38.4982307 18.0657983,38.9459459 17.5135135,38.9459459 L3.89189189,38.9459459 C0.750599489,38.9459459 -1,37.2391114 -1,34.1513514 L-1,5.69189189 C-1,2.6041318 0.750599489,0.897297297 3.89189189,0.897297297 Z M3.89189189,2.8972973 C3.33960714,2.8972973 2.89189189,2.44958205 2.89189189,1.8972973 C2.89189189,1.34501255 3.33960714,0.897297297 3.89189189,0.897297297 L17.5135135,0.897297297 C18.0657983,0.897297297 18.5135135,1.34501255 18.5135135,1.8972973 C18.5135135,2.44958205 18.0657983,2.8972973 17.5135135,2.8972973 L3.89189189,2.8972973 Z" id="Path-9"></path>
        </g>
    </g>
</svg>