<?xml version="1.0" encoding="UTF-8"?>
<svg width="48px" height="48px" viewBox="0 0 48 48" version="1.1" xmlns="http://www.w3.org/2000/svg" xmlns:xlink="http://www.w3.org/1999/xlink">
    <!-- Generator: Sketch 62 (91390) - https://sketch.com -->
    <title>iconografia/marca/off/seguridad</title>
    <desc>Created with Sketch.</desc>
    <defs>
        <polygon id="path-1" points="0.3398 0.597 20.4688 0.597 20.4688 16.7617 0.3398 16.7617"></polygon>
        <polygon id="path-3" points="0 0.261680224 1.6297 0.261680224 1.6297 1.8865 0 1.8865"></polygon>
    </defs>
    <g id="iconografia/marca/off/seguridad" stroke="none" stroke-width="1" fill="none" fill-rule="evenodd">
        <g id="Group-7" transform="translate(9.000000, 3.000000)">
            <path d="M13.5737,32.2109 L13.5737,29.5679 C13.5737,28.5599 14.3947,27.7389 15.4047,27.7389 C16.4127,27.7389 17.2337,28.5599 17.2337,29.5679 L17.2337,32.2109 C17.2337,33.2199 16.4127,34.0409 15.4047,34.0409 C14.3947,34.0409 13.5737,33.2199 13.5737,32.2109 M18.8607,32.2449 L18.8607,29.5679 C18.8607,27.6629 17.3097,26.1119 15.4047,26.1119 C13.4977,26.1119 11.9467,27.6629 11.9467,29.5679 L11.9467,32.2449 C11.9657,34.1349 13.5097,35.6679 15.4047,35.6679 C17.2987,35.6679 18.8427,34.1349 18.8607,32.2449" id="Fill-15" fill="#5C5C60"></path>
            <g id="Group-19" transform="translate(5.000000, 0.403300)">
                <mask id="mask-2" fill="white">
                    <use xlink:href="#path-1"></use>
                </mask>
                <g id="Clip-18"></g>
                <path d="M1.1528,16.7617 C1.6018,16.7617 1.9658,16.3977 1.9658,15.9487 L1.9658,10.2457 C1.9658,5.8227 5.7518,2.2237 10.4038,2.2237 C15.0568,2.2237 18.8418,5.8227 18.8418,10.2457 L18.8418,15.9487 C18.8418,16.3977 19.2068,16.7617 19.6558,16.7617 C20.1048,16.7617 20.4688,16.3977 20.4688,15.9487 L20.4688,10.2457 C20.4688,4.9257 15.9538,0.5967 10.4038,0.5967 C4.8538,0.5967 0.3398,4.9257 0.3398,10.2457 L0.3398,15.9487 C0.3398,16.3977 0.7038,16.7617 1.1528,16.7617" id="Fill-17" fill="#5C5C60" mask="url(#mask-2)"></path>
            </g>
            <path d="M29.1494,19.5034 L1.6584,19.5034 C0.7734,19.5034 0.0524,20.2234 0.0524,21.1084 L0.0524,34.0624 C0.0524,34.5114 0.4174,34.8754 0.8664,34.8754 C1.3154,34.8754 1.6794,34.5114 1.6794,34.0624 L1.6584,21.1304 L29.1284,21.1084 L29.1494,40.6154 L1.6794,40.6374 L1.6794,38.9204 C1.6794,38.4714 1.3154,38.1074 0.8664,38.1074 C0.4174,38.1074 0.0524,38.4714 0.0524,38.9204 L0.0524,40.6374 C0.0524,41.5224 0.7734,42.2424 1.6584,42.2424 L29.1494,42.2424 C30.0354,42.2424 30.7554,41.5224 30.7554,40.6374 L30.7554,21.1084 C30.7554,20.2234 30.0354,19.5034 29.1494,19.5034" id="Fill-20" fill="#5C5C60"></path>
            <g id="Group-24" transform="translate(0.000000, 35.403300)">
                <mask id="mask-4" fill="white">
                    <use xlink:href="#path-3"></use>
                </mask>
                <g id="Clip-23"></g>
                <path d="M0.2397,1.6465 C0.3897,1.7965 0.5997,1.8865 0.8097,1.8865 C1.0297,1.8865 1.2297,1.7965 1.3897,1.6465 C1.4597,1.5765 1.5197,1.4865 1.5597,1.3865 C1.6097,1.2865 1.6297,1.1765 1.6297,1.0765 C1.6297,0.8565 1.5397,0.6465 1.3897,0.4965 C1.1597,0.2665 0.7997,0.1965 0.4997,0.3265 C0.3997,0.3665 0.3097,0.4265 0.2397,0.4965 C0.0897,0.6465 -0.0003,0.8565 -0.0003,1.0765 C-0.0003,1.1765 0.0197,1.2865 0.0597,1.3865 C0.0997,1.4865 0.1597,1.5765 0.2397,1.6465" id="Fill-22" fill="#5C5C60" mask="url(#mask-4)"></path>
            </g>
        </g>
    </g>
</svg>