<?xml version="1.0" encoding="UTF-8"?>
<svg width="48px" height="48px" viewBox="0 0 48 48" version="1.1" xmlns="http://www.w3.org/2000/svg" xmlns:xlink="http://www.w3.org/1999/xlink">
    <!-- Generator: Sketch 62 (91390) - https://sketch.com -->
    <title>iconografia/marca/on/seguridad-abierto</title>
    <desc>Created with Sketch.</desc>
    <defs>
        <polygon id="path-1" points="0.771514471 0.602 22.01805 0.602 22.01805 16.728 0.771514471 16.728"></polygon>
    </defs>
    <g id="iconografia/marca/on/seguridad-abierto" stroke="none" stroke-width="1" fill="none" fill-rule="evenodd">
        <g id="Group-11" transform="translate(8.000000, 2.000000)">
            <path d="M3.0371,36.0299 L3.0371,23.0769 C3.0371,22.6389 3.3911,22.2849 3.8291,22.2849 L31.3191,22.2849 C31.7581,22.2849 32.1121,22.6389 32.1121,23.0769 L32.1121,42.6049 C32.1121,43.0429 31.7581,43.3979 31.3191,43.3979 L3.8291,43.3979 C3.3911,43.3979 3.0371,43.0429 3.0371,42.6049 L3.0371,40.8889" id="Fill-1" fill="#FCD603"></path>
            <path d="M18.249,32.2057 C18.249,33.6667 17.066,34.8487 15.605,34.8487 C14.146,34.8487 12.963,33.6667 12.963,32.2057 L12.963,32.2397 L12.963,29.5627 C12.963,28.1017 14.146,26.9197 15.605,26.9197 C17.066,26.9197 18.249,28.1017 18.249,29.5627 L18.249,32.2397 L18.249,32.2057 Z" id="Fill-3" fill="#B5B5B5"></path>
            <path d="M13.7764,32.2057 L13.7764,29.5627 C13.7764,28.5547 14.5964,27.7337 15.6054,27.7337 C16.6144,27.7337 17.4354,28.5547 17.4354,29.5627 L17.4354,32.2057 C17.4354,33.2147 16.6144,34.0357 15.6054,34.0357 C14.5964,34.0357 13.7764,33.2147 13.7764,32.2057 M19.0624,32.2397 L19.0624,29.5627 C19.0624,27.6577 17.5114,26.1067 15.6054,26.1067 C13.7004,26.1067 12.1494,27.6577 12.1494,29.5627 L12.1494,32.2397 C12.1684,34.1297 13.7114,35.6627 15.6054,35.6627 C17.5004,35.6627 19.0444,34.1297 19.0624,32.2397" id="Fill-14" fill="#5C5C60"></path>
            <path d="M29.3506,19.4982 L1.8596,19.4982 C0.9736,19.4982 0.2536,20.2182 0.2536,21.1032 L0.2536,34.0572 C0.2536,34.5062 0.6186,34.8702 1.0676,34.8702 C1.5166,34.8702 1.8806,34.5062 1.8806,34.0572 L1.8596,21.1252 L29.3296,21.1032 L29.3506,40.6102 L1.8806,40.6322 L1.8806,38.9152 C1.8806,38.4662 1.5166,38.1022 1.0676,38.1022 C0.6186,38.1022 0.2536,38.4662 0.2536,38.9152 L0.2536,40.6322 C0.2536,41.5172 0.9736,42.2372 1.8596,42.2372 L29.3506,42.2372 C30.2366,42.2372 30.9566,41.5172 30.9566,40.6322 L30.9566,21.1032 C30.9566,20.2182 30.2366,19.4982 29.3506,19.4982" id="Fill-16" fill="#5C5C60"></path>
            <path d="M0.7002,37.2248 C0.8002,37.2648 0.9102,37.2848 1.0102,37.2848 C1.2292,37.2848 1.4392,37.1948 1.5902,37.0448 C1.7392,36.8948 1.8302,36.6848 1.8302,36.4748 C1.8302,36.2548 1.7392,36.0448 1.5902,35.8948 C1.3592,35.6648 1.0002,35.5948 0.7002,35.7248 C0.5992,35.7648 0.5102,35.8248 0.4392,35.8948 C0.2902,36.0448 0.2002,36.2548 0.2002,36.4748 C0.2002,36.6848 0.2902,36.8948 0.4392,37.0448 C0.5102,37.1248 0.5992,37.1848 0.7002,37.2248" id="Fill-18" fill="#5C5C60"></path>
            <g id="Group-22" transform="translate(4.000000, 0.398100)">
                <mask id="mask-2" fill="white">
                    <use xlink:href="#path-1"></use>
                </mask>
                <g id="Clip-21"></g>
                <path d="M3.1953,16.728 C3.3583,16.728 3.5233,16.679 3.6673,16.577 C4.0323,16.316 4.1173,15.808 3.8563,15.442 C1.5533,12.214 2.0223,7.73 4.9713,4.781 C8.2583,1.495 13.4753,1.363 16.6003,4.487 L20.6303,8.516 C20.9483,8.833 21.4623,8.833 21.7803,8.516 C22.0973,8.198 22.0973,7.684 21.7803,7.366 L17.7513,3.336 C13.9913,-0.421 7.7433,-0.291 3.8213,3.63 C0.3073,7.145 -0.2347,12.51 2.5323,16.387 C2.6903,16.609 2.9413,16.728 3.1953,16.728" id="Fill-20" fill="#5C5C60" mask="url(#mask-2)"></path>
            </g>
        </g>
    </g>
</svg>