<?xml version="1.0" encoding="UTF-8"?>
<svg width="48px" height="48px" viewBox="0 0 48 48" version="1.1" xmlns="http://www.w3.org/2000/svg" xmlns:xlink="http://www.w3.org/1999/xlink">
    <!-- Generator: Sketch 62 (91390) - https://sketch.com -->
    <title>iconografia/marca/on/seguridad</title>
    <desc>Created with Sketch.</desc>
    <defs>
        <polygon id="path-1" points="0.8613 0.8868 29.937 0.8868 29.937 21.9998 0.8613 21.9998"></polygon>
        <polygon id="path-3" points="0.3657 0.597 20.4947 0.597 20.4947 16.7617 0.3657 16.7617"></polygon>
    </defs>
    <g id="iconografia/marca/on/seguridad" stroke="none" stroke-width="1" fill="none" fill-rule="evenodd">
        <g id="Group-5" transform="translate(8.000000, 2.000000)">
            <g id="Group-3" transform="translate(2.000000, 21.403300)">
                <mask id="mask-2" fill="white">
                    <use xlink:href="#path-1"></use>
                </mask>
                <g id="Clip-2"></g>
                <path d="M0.8613,14.6318 L0.8613,1.6788 C0.8613,1.2408 1.2163,0.8868 1.6533,0.8868 L29.1443,0.8868 C29.5823,0.8868 29.9373,1.2408 29.9373,1.6788 L29.9373,21.2068 C29.9373,21.6448 29.5823,21.9998 29.1443,21.9998 L1.6533,21.9998 C1.2163,21.9998 0.8613,21.6448 0.8613,21.2068 L0.8613,19.4908" id="Fill-1" fill="#FCD603" mask="url(#mask-2)"></path>
            </g>
            <path d="M18.0732,32.2109 C18.0732,33.6719 16.8912,34.8539 15.4302,34.8539 C13.9712,34.8539 12.7872,33.6719 12.7872,32.2109 L12.7872,32.2449 L12.7872,29.5679 C12.7872,28.1069 13.9712,26.9249 15.4302,26.9249 C16.8912,26.9249 18.0732,28.1069 18.0732,29.5679 L18.0732,32.2449 L18.0732,32.2109 Z" id="Fill-4" fill="#B5B5B5"></path>
            <path d="M13.6011,32.2109 L13.6011,29.5679 C13.6011,28.5599 14.4221,27.7389 15.4311,27.7389 C16.4391,27.7389 17.2601,28.5599 17.2601,29.5679 L17.2601,32.2109 C17.2601,33.2199 16.4391,34.0409 15.4311,34.0409 C14.4221,34.0409 13.6011,33.2199 13.6011,32.2109 M18.8871,32.2449 L18.8871,29.5679 C18.8871,27.6629 17.3361,26.1119 15.4311,26.1119 C13.5251,26.1119 11.9741,27.6629 11.9741,29.5679 L11.9741,32.2449 C11.9931,34.1349 13.5361,35.6679 15.4311,35.6679 C17.3251,35.6679 18.8681,34.1349 18.8871,32.2449" id="Fill-6" fill="#5C5C60"></path>
            <g id="Group-10" transform="translate(5.000000, 0.403300)">
                <mask id="mask-4" fill="white">
                    <use xlink:href="#path-3"></use>
                </mask>
                <g id="Clip-9"></g>
                <path d="M1.1787,16.7617 C1.6277,16.7617 1.9917,16.3977 1.9917,15.9487 L1.9917,10.2457 C1.9917,5.8227 5.7777,2.2237 10.4297,2.2237 C15.0827,2.2237 18.8677,5.8227 18.8677,10.2457 L18.8677,15.9487 C18.8677,16.3977 19.2327,16.7617 19.6817,16.7617 C20.1307,16.7617 20.4947,16.3977 20.4947,15.9487 L20.4947,10.2457 C20.4947,4.9257 15.9797,0.5967 10.4297,0.5967 C4.8797,0.5967 0.3657,4.9257 0.3657,10.2457 L0.3657,15.9487 C0.3657,16.3977 0.7297,16.7617 1.1787,16.7617" id="Fill-8" fill="#5C5C60" mask="url(#mask-4)"></path>
            </g>
            <path d="M29.1753,19.5034 L1.6843,19.5034 C0.7993,19.5034 0.0783,20.2234 0.0783,21.1084 L0.0783,34.0624 C0.0783,34.5114 0.4433,34.8754 0.8923,34.8754 C1.3413,34.8754 1.7053,34.5114 1.7053,34.0624 L1.6843,21.1304 L29.1543,21.1084 L29.1753,40.6154 L1.7053,40.6374 L1.7053,38.9204 C1.7053,38.4714 1.3413,38.1074 0.8923,38.1074 C0.4433,38.1074 0.0783,38.4714 0.0783,38.9204 L0.0783,40.6374 C0.0783,41.5224 0.7993,42.2424 1.6843,42.2424 L29.1753,42.2424 C30.0613,42.2424 30.7813,41.5224 30.7813,40.6374 L30.7813,21.1084 C30.7813,20.2234 30.0613,19.5034 29.1753,19.5034" id="Fill-11" fill="#5C5C60"></path>
            <path d="M0.2598,37.0498 C0.4098,37.1998 0.6198,37.2898 0.8398,37.2898 C0.9398,37.2898 1.0498,37.2698 1.1498,37.2298 C1.2498,37.1898 1.3398,37.1298 1.4098,37.0498 C1.4898,36.9798 1.5498,36.8898 1.5898,36.7898 C1.6298,36.6898 1.6498,36.5798 1.6498,36.4798 C1.6498,36.3698 1.6298,36.2698 1.5898,36.1698 C1.5498,36.0698 1.4898,35.9798 1.4098,35.8998 C1.3398,35.8298 1.2498,35.7698 1.1498,35.7298 C0.8498,35.5998 0.4898,35.6798 0.2598,35.8998 C0.1898,35.9798 0.1298,36.0698 0.0898,36.1698 C0.0498,36.2698 0.0198,36.3698 0.0198,36.4798 C0.0198,36.5798 0.0498,36.6898 0.0898,36.7898 C0.1298,36.8898 0.1898,36.9798 0.2598,37.0498" id="Fill-13" fill="#5C5C60"></path>
        </g>
    </g>
</svg>