<?xml version="1.0" encoding="UTF-8"?>
<svg width="48px" height="48px" viewBox="0 0 48 48" version="1.1" xmlns="http://www.w3.org/2000/svg" xmlns:xlink="http://www.w3.org/1999/xlink">
    <!-- Generator: Sketch 62 (91390) - https://sketch.com -->
    <title>iconografia/marca/off/seguridad-abierto</title>
    <desc>Created with Sketch.</desc>
    <defs>
        <polygon id="path-1" points="0.745988314 0.602 21.99265 0.602 21.99265 16.728 0.745988314 16.728"></polygon>
    </defs>
    <g id="iconografia/marca/off/seguridad-abierto" stroke="none" stroke-width="1" fill="none" fill-rule="evenodd">
        <g id="Group-12" transform="translate(9.000000, 3.000000)">
            <path d="M13.5742,32.2057 L13.5742,29.5627 C13.5742,28.5547 14.3952,27.7337 15.4042,27.7337 C16.4132,27.7337 17.2342,28.5547 17.2342,29.5627 L17.2342,32.2057 C17.2342,33.2147 16.4132,34.0357 15.4042,34.0357 C14.3952,34.0357 13.5742,33.2147 13.5742,32.2057 M18.8612,32.2397 L18.8612,29.5627 C18.8612,27.6577 17.3102,26.1067 15.4042,26.1067 C13.4982,26.1067 11.9472,27.6577 11.9472,29.5627 L11.9472,32.2397 C11.9662,34.1297 13.5102,35.6627 15.4042,35.6627 C17.2992,35.6627 18.8432,34.1297 18.8612,32.2397" id="Fill-5" fill="#5C5C60"></path>
            <path d="M29.1494,19.4982 L1.6584,19.4982 C0.7724,19.4982 0.0524,20.2182 0.0524,21.1032 L0.0524,34.0572 C0.0524,34.5062 0.4174,34.8702 0.8664,34.8702 C1.3154,34.8702 1.6794,34.5062 1.6794,34.0572 L1.6584,21.1252 L29.1284,21.1032 L29.1494,40.6102 L1.6794,40.6322 L1.6794,38.9152 C1.6794,38.4662 1.3154,38.1022 0.8664,38.1022 C0.4174,38.1022 0.0524,38.4662 0.0524,38.9152 L0.0524,40.6322 C0.0524,41.5172 0.7724,42.2372 1.6584,42.2372 L29.1494,42.2372 C30.0354,42.2372 30.7554,41.5172 30.7554,40.6322 L30.7554,21.1032 C30.7554,20.2182 30.0354,19.4982 29.1494,19.4982" id="Fill-7" fill="#5C5C60"></path>
            <path d="M0.2393,37.0446 C0.3093,37.1246 0.3993,37.1846 0.5003,37.2246 C0.5993,37.2646 0.7103,37.2846 0.8093,37.2846 C0.9203,37.2846 1.0193,37.2646 1.1203,37.2246 C1.2193,37.1846 1.3093,37.1246 1.3893,37.0446 C1.4603,36.9746 1.5193,36.8846 1.5593,36.7846 C1.6093,36.6846 1.6303,36.5746 1.6303,36.4746 C1.6303,36.2646 1.5403,36.0546 1.3893,35.8946 C1.3093,35.8246 1.2193,35.7646 1.1203,35.7246 C0.9293,35.6346 0.7003,35.6346 0.5003,35.7246 C0.3993,35.7646 0.3093,35.8246 0.2393,35.8946 C0.1603,35.9746 0.0993,36.0646 0.0593,36.1646 C0.0193,36.2646 0.0003,36.3646 0.0003,36.4746 C0.0003,36.5746 0.0193,36.6846 0.0593,36.7846 C0.0993,36.8846 0.1603,36.9746 0.2393,37.0446" id="Fill-9" fill="#5C5C60"></path>
            <g id="Group-13" transform="translate(4.000000, 0.398100)">
                <mask id="mask-2" fill="white">
                    <use xlink:href="#path-1"></use>
                </mask>
                <g id="Clip-12"></g>
                <path d="M3.1709,16.728 C3.3339,16.728 3.4989,16.679 3.6429,16.577 C4.0079,16.315 4.0929,15.808 3.8319,15.442 C1.5279,12.214 1.9969,7.731 4.9459,4.781 C8.2329,1.495 13.4489,1.363 16.5749,4.487 L20.6049,8.516 C20.9229,8.833 21.4369,8.833 21.7549,8.516 C22.0719,8.198 22.0719,7.684 21.7549,7.366 L17.7259,3.336 C13.9669,-0.421 7.7169,-0.291 3.7959,3.63 C0.2809,7.145 -0.2601,12.51 2.5079,16.387 C2.6669,16.609 2.9169,16.728 3.1709,16.728" id="Fill-11" fill="#5C5C60" mask="url(#mask-2)"></path>
            </g>
        </g>
    </g>
</svg>