<?xml version="1.0" encoding="UTF-8"?>
<svg width="48px" height="48px" viewBox="0 0 48 48" version="1.1" xmlns="http://www.w3.org/2000/svg" xmlns:xlink="http://www.w3.org/1999/xlink">
    <!-- Generator: Sketch 62 (91390) - https://sketch.com -->
    <title>iconografia/marca/off/servicio-cliente</title>
    <desc>Created with Sketch.</desc>
    <defs>
        <polygon id="path-1" points="0 0.0080624488 13.9537 0.0080624488 13.9537 25.9336 0 25.9336"></polygon>
        <polygon id="path-3" points="0.753193851 0.125 32.8306 0.125 32.8306 40 0.753193851 40"></polygon>
        <polygon id="path-5" points="0 40.8751 39.831 40.8751 39.831 1.0001 0 1.0001"></polygon>
    </defs>
    <g id="iconografia/marca/off/servicio-cliente" stroke="none" stroke-width="1" fill="none" fill-rule="evenodd">
        <g id="Page-1" transform="translate(4.000000, 4.000000)">
            <path d="M6.4375,9.6821 C6.6475,9.6821 6.8575,9.5921 7.0175,9.4421 C7.1675,9.2921 7.2485,9.0821 7.2485,8.8721 C7.2485,8.7621 7.2275,8.6621 7.1875,8.5621 C7.1475,8.4621 7.0875,8.3721 7.0175,8.2921 C6.7085,7.9921 6.1675,7.9921 5.8575,8.2921 C5.7885,8.3721 5.7275,8.4621 5.6875,8.5621 C5.6475,8.6621 5.6275,8.7621 5.6275,8.8721 C5.6275,9.0821 5.7085,9.2921 5.8575,9.4421 C6.0175,9.5921 6.2275,9.6821 6.4375,9.6821" id="Fill-1" fill="#5C5C60"></path>
            <g id="Group-5" transform="translate(0.000000, 10.875100)">
                <mask id="mask-2" fill="white">
                    <use xlink:href="#path-1"></use>
                </mask>
                <g id="Clip-4"></g>
                <path d="M12.1787,21.2396 C12.1787,22.8486 10.8687,24.1586 9.2607,24.1586 C7.6527,24.1586 6.3427,22.8486 6.3427,21.2396 L6.3427,12.1066 C6.3427,10.4986 7.6527,9.1906 9.2607,9.1906 C10.8687,9.1906 12.1787,10.4986 12.1787,12.1066 L12.1787,21.2396 Z M1.7757,16.6736 C1.7757,14.9536 2.9677,13.5156 4.5677,13.1156 L4.5677,20.2326 C2.9677,19.8326 1.7757,18.3946 1.7757,16.6736 L1.7757,16.6736 Z M13.9537,12.1066 C13.9537,9.5196 11.8487,7.4136 9.2607,7.4136 C6.9537,7.4136 5.0407,9.0906 4.6507,11.2866 C4.5077,11.3066 4.3667,11.3326 4.2277,11.3646 L4.2277,8.2216 C4.2277,5.7916 4.7347,3.4506 5.7337,1.2656 C5.9377,0.8196 5.7417,0.2926 5.2947,0.0886 C4.8457,-0.1154 4.3227,0.0816 4.1177,0.5276 C3.0127,2.9466 2.4517,5.5346 2.4517,8.2216 L2.4517,12.1256 C0.9767,13.1016 -0.0003,14.7746 -0.0003,16.6736 C-0.0003,19.4066 2.0237,21.6716 4.6507,22.0616 C5.0417,24.2586 6.9537,25.9336 9.2607,25.9336 C11.8487,25.9336 13.9537,23.8286 13.9537,21.2396 L13.9537,12.1066 Z" id="Fill-3" fill="#5C5C60" mask="url(#mask-2)"></path>
            </g>
            <g id="Group-8" transform="translate(7.000000, 0.875100)">
                <mask id="mask-4" fill="white">
                    <use xlink:href="#path-3"></use>
                </mask>
                <g id="Clip-7"></g>
                <path d="M28.2646,30.2318 L28.2646,23.1168 C29.8636,23.5158 31.0556,24.9538 31.0556,26.6738 C31.0556,28.3948 29.8636,29.8328 28.2646,30.2318 M25.0266,33.7538 C25.1906,33.3078 25.2196,32.9538 25.2196,32.7628 L25.2196,30.4788 C25.2196,29.9888 24.8226,29.5908 24.3316,29.5908 L22.8096,29.5908 C22.3196,29.5908 21.9216,29.9888 21.9216,30.4788 C21.9216,30.9688 22.3196,31.3668 22.8096,31.3668 L23.4446,31.3668 L23.4446,32.7628 C23.4446,32.7778 23.4226,33.3238 22.7716,34.0328 C21.5526,33.6828 20.6536,32.5698 20.6536,31.2398 L20.6536,22.1068 C20.6536,20.4988 21.9626,19.1898 23.5716,19.1898 C25.1796,19.1898 26.4896,20.4988 26.4896,22.1068 L26.4896,31.2398 C26.4896,32.3168 25.8966,33.2488 25.0266,33.7538 M32.8306,26.6738 C32.8306,24.8498 31.9276,23.2358 30.5476,22.2458 L30.5476,18.2208 C30.5476,8.2428 22.6756,0.1248 12.9996,0.1248 C8.5426,0.1248 4.2896,1.8578 1.0256,5.0028 C0.6716,5.3438 0.6616,5.9058 1.0016,6.2588 C1.3426,6.6118 1.9056,6.6228 2.2576,6.2828 C5.1896,3.4568 9.0046,1.9008 12.9996,1.9008 C21.6976,1.9008 28.7726,9.2218 28.7726,18.2208 L28.7726,21.4078 C28.5786,21.3568 28.3826,21.3158 28.1816,21.2868 C27.7906,19.0898 25.8776,17.4138 23.5716,17.4138 C20.9836,17.4138 18.8776,19.5198 18.8776,22.1068 L18.8776,31.2398 C18.8776,32.9328 19.7866,34.4058 21.1336,35.2318 C19.5826,36.0478 16.9846,36.8308 12.6466,37.1648 C12.3246,36.1608 11.1486,35.4328 9.6986,35.4328 C7.9916,35.4328 6.6546,36.4358 6.6546,37.7168 C6.6546,38.9978 7.9916,40.0008 9.6986,40.0008 C10.7806,40.0008 11.7106,39.5948 12.2486,38.9748 C12.2536,38.9738 12.2586,38.9748 12.2636,38.9738 C18.4066,38.5648 21.6426,37.2448 23.3456,35.9118 C23.4216,35.9148 23.4936,35.9338 23.5716,35.9338 C25.8776,35.9338 27.7896,34.2578 28.1816,32.0618 C30.8086,31.6708 32.8306,29.4078 32.8306,26.6738" id="Fill-6" fill="#5C5C60" mask="url(#mask-4)"></path>
            </g>
            <mask id="mask-6" fill="white">
                <use xlink:href="#path-5"></use>
            </mask>
            <g id="Clip-10"></g>
            <polygon id="Fill-9" fill="#5C5C60" mask="url(#mask-6)" points="15.094 26.6391 16.913 26.6391 16.913 24.8211 15.094 24.8211"></polygon>
            <polygon id="Fill-11" fill="#5C5C60" mask="url(#mask-6)" points="18.733 26.6391 20.551 26.6391 20.551 24.8211 18.733 24.8211"></polygon>
            <polygon id="Fill-12" fill="#5C5C60" mask="url(#mask-6)" points="22.37 26.6391 24.189 26.6391 24.189 24.8211 22.37 24.8211"></polygon>
        </g>
    </g>
</svg>