<?xml version="1.0" encoding="UTF-8"?>
<svg width="48px" height="48px" viewBox="0 0 48 48" version="1.1" xmlns="http://www.w3.org/2000/svg" xmlns:xlink="http://www.w3.org/1999/xlink">
    <!-- Generator: Sketch 62 (91390) - https://sketch.com -->
    <title>iconografia/marca/on/servicio-cliente</title>
    <desc>Created with Sketch.</desc>
    <defs>
        <polygon id="path-1" points="0 0.0080624488 13.9537 0.0080624488 13.9537 25.9336 0 25.9336"></polygon>
        <polygon id="path-3" points="0.753193851 0.125 32.8306 0.125 32.8306 40 0.753193851 40"></polygon>
        <polygon id="path-5" points="0 40.8751 39.831 40.8751 39.831 1.0001 0 1.0001"></polygon>
    </defs>
    <g id="iconografia/marca/on/servicio-cliente" stroke="none" stroke-width="1" fill="none" fill-rule="evenodd">
        <g id="Page-1" transform="translate(4.000000, 4.000000)">
            <path d="M10.7295,37.5512 C8.6305,37.5512 6.9225,35.8442 6.9225,33.7452 L6.9225,24.6132 C6.9225,22.5142 8.6305,20.8072 10.7295,20.8072 C12.8275,20.8072 14.5355,22.5142 14.5355,24.6132 L14.5355,33.7452 C14.5355,35.8442 12.8275,37.5512 10.7295,37.5512" id="Fill-1" fill="#FCD600"></path>
            <path d="M31.8564,37.5512 C29.7574,37.5512 28.0494,35.8442 28.0494,33.7452 L28.0494,24.6132 C28.0494,22.5142 29.7574,20.8072 31.8564,20.8072 C33.9544,20.8072 35.6614,22.5142 35.6614,24.6132 L35.6614,33.7452 C35.6614,35.8442 33.9544,37.5512 31.8564,37.5512" id="Fill-3" fill="#FCD600"></path>
            <path d="M5.1826,32.4809 C2.6636,32.4809 0.6156,30.4319 0.6156,27.9139 C0.6156,25.3959 2.6636,23.3479 5.1826,23.3479" id="Fill-5" fill="#B4B4B4"></path>
            <path d="M34.6641,22.9829 C37.1821,22.9829 39.2301,25.0319 39.2301,27.5489 C39.2301,30.0679 37.1821,32.1159 34.6641,32.1159" id="Fill-7" fill="#B4B4B4"></path>
            <path d="M5.8633,9.4424 C6.0133,9.5924 6.2233,9.6824 6.4433,9.6824 C6.6533,9.6824 6.8633,9.5924 7.0133,9.4424 C7.0843,9.3724 7.1433,9.2824 7.1933,9.1824 C7.2333,9.0824 7.2543,8.9724 7.2543,8.8724 C7.2543,8.6524 7.1643,8.4424 7.0133,8.2924 C6.7843,8.0724 6.4243,7.9924 6.1243,8.1224 C6.0233,8.1624 5.9333,8.2224 5.8633,8.2924 C5.7143,8.4424 5.6243,8.6524 5.6243,8.8724 C5.6243,8.9724 5.6433,9.0824 5.6833,9.1824 C5.7233,9.2824 5.7843,9.3724 5.8633,9.4424" id="Fill-9" fill="#5C5C60"></path>
            <g id="Group-13" transform="translate(0.000000, 10.875100)">
                <mask id="mask-2" fill="white">
                    <use xlink:href="#path-1"></use>
                </mask>
                <g id="Clip-12"></g>
                <path d="M12.1787,21.2396 C12.1787,22.8486 10.8687,24.1586 9.2607,24.1586 C7.6527,24.1586 6.3427,22.8486 6.3427,21.2396 L6.3427,12.1066 C6.3427,10.4986 7.6527,9.1906 9.2607,9.1906 C10.8687,9.1906 12.1787,10.4986 12.1787,12.1066 L12.1787,21.2396 Z M1.7757,16.6736 C1.7757,14.9536 2.9677,13.5156 4.5677,13.1156 L4.5677,20.2326 C2.9677,19.8326 1.7757,18.3946 1.7757,16.6736 L1.7757,16.6736 Z M13.9537,12.1066 C13.9537,9.5196 11.8487,7.4136 9.2607,7.4136 C6.9537,7.4136 5.0407,9.0906 4.6507,11.2866 C4.5077,11.3066 4.3667,11.3326 4.2277,11.3646 L4.2277,8.2216 C4.2277,5.7916 4.7347,3.4506 5.7337,1.2656 C5.9377,0.8196 5.7417,0.2926 5.2947,0.0886 C4.8467,-0.1154 4.3227,0.0816 4.1177,0.5276 C3.0127,2.9466 2.4517,5.5346 2.4517,8.2216 L2.4517,12.1256 C0.9767,13.1016 -0.0003,14.7746 -0.0003,16.6736 C-0.0003,19.4066 2.0237,21.6716 4.6507,22.0616 C5.0417,24.2586 6.9537,25.9336 9.2607,25.9336 C11.8487,25.9336 13.9537,23.8286 13.9537,21.2396 L13.9537,12.1066 Z" id="Fill-11" fill="#5C5C60" mask="url(#mask-2)"></path>
            </g>
            <g id="Group-16" transform="translate(7.000000, 0.875100)">
                <mask id="mask-4" fill="white">
                    <use xlink:href="#path-3"></use>
                </mask>
                <g id="Clip-15"></g>
                <path d="M28.2646,30.2318 L28.2646,23.1168 C29.8636,23.5158 31.0556,24.9538 31.0556,26.6738 C31.0556,28.3948 29.8636,29.8328 28.2646,30.2318 M25.0266,33.7538 C25.1906,33.3078 25.2196,32.9538 25.2196,32.7628 L25.2196,30.4788 C25.2196,29.9888 24.8226,29.5908 24.3316,29.5908 L22.8096,29.5908 C22.3196,29.5908 21.9216,29.9888 21.9216,30.4788 C21.9216,30.9688 22.3196,31.3668 22.8096,31.3668 L23.4446,31.3668 L23.4446,32.7628 C23.4446,32.7778 23.4226,33.3238 22.7716,34.0328 C21.5526,33.6828 20.6536,32.5698 20.6536,31.2398 L20.6536,22.1068 C20.6536,20.4988 21.9626,19.1898 23.5716,19.1898 C25.1786,19.1898 26.4876,20.4968 26.4896,22.1038 C26.4896,22.1058 26.4886,22.1068 26.4886,22.1078 C26.4886,22.1098 26.4896,22.1108 26.4896,22.1128 L26.4896,31.2358 C26.4896,31.2378 26.4886,31.2388 26.4886,31.2408 C26.4886,31.2418 26.4896,31.2428 26.4896,31.2438 C26.4876,32.3188 25.8956,33.2498 25.0266,33.7538 M32.8306,26.6738 C32.8306,24.8498 31.9276,23.2358 30.5476,22.2458 L30.5476,18.2208 C30.5476,8.2428 22.6756,0.1248 12.9996,0.1248 C8.5426,0.1248 4.2896,1.8578 1.0256,5.0028 C0.6716,5.3438 0.6616,5.9058 1.0016,6.2588 C1.3426,6.6118 1.9056,6.6228 2.2576,6.2828 C5.1896,3.4568 9.0046,1.9008 12.9996,1.9008 C21.6976,1.9008 28.7726,9.2218 28.7726,18.2208 L28.7726,21.4078 C28.5786,21.3568 28.3826,21.3158 28.1816,21.2868 C27.7906,19.0898 25.8776,17.4138 23.5716,17.4138 C20.9836,17.4138 18.8776,19.5198 18.8776,22.1068 L18.8776,31.2398 C18.8776,32.9328 19.7866,34.4058 21.1336,35.2318 C19.5826,36.0478 16.9846,36.8308 12.6466,37.1648 C12.3246,36.1608 11.1486,35.4328 9.6986,35.4328 C7.9916,35.4328 6.6546,36.4358 6.6546,37.7168 C6.6546,38.9978 7.9916,40.0008 9.6986,40.0008 C10.7806,40.0008 11.7106,39.5948 12.2486,38.9748 C12.2536,38.9738 12.2586,38.9748 12.2636,38.9738 C18.4066,38.5648 21.6426,37.2448 23.3456,35.9118 C23.4216,35.9148 23.4936,35.9338 23.5716,35.9338 C25.8776,35.9338 27.7896,34.2578 28.1816,32.0618 C30.8076,31.6698 32.8306,29.4078 32.8306,26.6738" id="Fill-14" fill="#5C5C60" mask="url(#mask-4)"></path>
            </g>
            <mask id="mask-6" fill="white">
                <use xlink:href="#path-5"></use>
            </mask>
            <g id="Clip-18"></g>
            <polygon id="Fill-17" fill="#5C5C60" mask="url(#mask-6)" points="15.685 26.6391 17.504 26.6391 17.504 24.8211 15.685 24.8211"></polygon>
            <polygon id="Fill-19" fill="#5C5C60" mask="url(#mask-6)" points="19.323 26.6391 21.141 26.6391 21.141 24.8211 19.323 24.8211"></polygon>
            <polygon id="Fill-20" fill="#5C5C60" mask="url(#mask-6)" points="22.96 26.6391 24.779 26.6391 24.779 24.8211 22.96 24.8211"></polygon>
        </g>
    </g>
</svg>