<?xml version="1.0" encoding="UTF-8"?>
<svg width="48px" height="48px" viewBox="0 0 48 48" version="1.1" xmlns="http://www.w3.org/2000/svg" xmlns:xlink="http://www.w3.org/1999/xlink">
    <!-- Generator: Sketch 62 (91390) - https://sketch.com -->
    <title>iconografia/marca/on/tarjeta-credito</title>
    <desc>Created with Sketch.</desc>
    <defs>
        <polygon id="path-1" points="0.1738 0.9271 38.9378 0.9271 38.9378 30 0.1738 30"></polygon>
        <polygon id="path-3" points="0 31.8727 41.938 31.8727 41.938 -0.0003 0 -0.0003"></polygon>
    </defs>
    <g id="iconografia/marca/on/tarjeta-credito" stroke="none" stroke-width="1" fill="none" fill-rule="evenodd">
        <g id="Page-1" transform="translate(3.000000, 8.000000)">
            <g id="Group-3" transform="translate(3.000000, 1.872700)">
                <mask id="mask-2" fill="white">
                    <use xlink:href="#path-1"></use>
                </mask>
                <g id="Clip-2"></g>
                <path d="M34.0918,0.9271 L5.0198,0.9271 C2.3548,0.9271 0.1738,3.1081 0.1738,5.7721 L0.1738,25.1551 C0.1738,27.8181 2.3548,30.0001 5.0198,30.0001 L34.0918,30.0001 C36.7548,30.0001 38.9378,27.8181 38.9378,25.1551 L38.9378,5.7711 C38.9368,3.1081 36.7558,0.9271 34.0918,0.9271" id="Fill-1" fill="#FCD603" mask="url(#mask-2)"></path>
            </g>
            <path d="M6.208,25.3594 L11.402,25.3594 C11.856,25.3594 12.224,24.9914 12.224,24.5364 L12.224,19.3424 C12.224,18.8884 11.856,18.5204 11.402,18.5204 L6.208,18.5204 C5.754,18.5204 5.38599797,18.8884 5.38599797,19.3424 L5.38599797,24.5364 C5.385,24.9914 5.754,25.3594 6.208,25.3594" id="Fill-4" fill="#B5B5B5"></path>
            <mask id="mask-4" fill="white">
                <use xlink:href="#path-3"></use>
            </mask>
            <g id="Clip-7"></g>
            <polygon id="Fill-6" fill="#B5B5B5" mask="url(#mask-4)" points="0.814 12.9277 39.578 12.9277 39.578 8.0807 0.814 8.0807"></polygon>
            <polygon id="Fill-8" fill="#5C5C60" mask="url(#mask-4)" points="14.368 21.0947 28.904 21.0947 28.904 18.6707 14.368 18.6707"></polygon>
            <polygon id="Fill-9" fill="#5C5C60" mask="url(#mask-4)" points="14.368 24.8167 19.214 24.8167 19.214 22.3947 14.368 22.3947"></polygon>
            <path d="M6.208,19.334 L11.411,19.343 L11.402,24.546 L6.208,24.546 L6.2,24.536 L6.208,19.334 Z M6.208,26.173 L11.402,26.173 C12.304,26.173 13.038,25.438 13.038,24.536 L13.038,19.343 C13.038,18.44 12.304,17.707 11.402,17.707 L6.208,17.707 C5.306,17.707 4.57298255,18.44 4.57298255,19.343 L4.57298255,24.533 C4.571,24.971 4.741,25.382 5.049,25.691 C5.358,26.002 5.77,26.173 6.208,26.173 L6.208,26.173 Z" id="Fill-10" fill="#5C5C60" mask="url(#mask-4)"></path>
            <path d="M38.7637,25.041 C38.7637,27.265 36.9547,29.073 34.7317,29.073 L5.6597,29.073 C3.4357,29.073 1.6277,27.265 1.6277,25.041 L1.6277,13.74 L38.7637,13.74 L38.7637,25.041 Z M1.6277,5.659 C1.6277,3.436 3.4357,1.627 5.6597,1.627 L34.7317,1.627 C36.9547,1.627 38.7637,3.436 38.7637,5.658 L38.7637,7.268 L1.6277,7.268 L1.6277,5.659 Z M1.6277,12.114 L38.7637,12.114 L38.7637,8.895 L1.6277,8.895 L1.6277,12.114 Z M40.3907,7.268 L40.3907,7.268 L40.3907,5.658 C40.3907,2.538 37.8517,-3.6e-15 34.7317,-3.6e-15 L5.6597,-3.6e-15 C2.5387,-3.6e-15 0.0007,2.539 0.0007,5.659 L0.0007,7.268 L-0.0003,7.268 L-0.0003,13.74 L0.0007,13.74 L0.0007,25.041 C0.0007,28.161 2.5387,30.7 5.6597,30.7 L34.7317,30.7 C37.8517,30.7 40.3907,28.161 40.3907,25.041 L40.3907,13.74 L40.3907,13.74 L40.3907,7.268 Z" id="Fill-11" fill="#5C5C60" mask="url(#mask-4)"></path>
        </g>
    </g>
</svg>