<?xml version="1.0" encoding="UTF-8"?>
<svg width="48px" height="48px" viewBox="0 0 48 48" version="1.1" xmlns="http://www.w3.org/2000/svg" xmlns:xlink="http://www.w3.org/1999/xlink">
    <!-- Generator: Sketch 62 (91390) - https://sketch.com -->
    <title>iconografia/marca/on/tiempo</title>
    <desc>Created with Sketch.</desc>
    <g id="iconografia/marca/on/tiempo" stroke="none" stroke-width="1" fill="none" fill-rule="evenodd">
        <g id="Group-26" transform="translate(3.000000, 3.000000)">
            <path d="M6.9316,34.4815 C4.2446,31.1205 2.6386,26.8555 2.6386,22.2165 C2.6386,11.3565 11.4426,2.5535 22.3026,2.5535 C33.1616,2.5535 41.9666,11.3565 41.9666,22.2165 C41.9666,33.0775 33.1616,41.8805 22.3026,41.8805 C17.8276,41.8805 13.7006,40.3855 10.3966,37.8685" id="Fill-1" fill="#FCD603"></path>
            <path d="M7.3164,34.0557 C7.2364,33.9867 7.1464,33.9257 7.0454,33.8857 C6.8454,33.7957 6.6264,33.7957 6.4254,33.8857 C6.3264,33.9257 6.2364,33.9867 6.1664,34.0557 C6.0864,34.1357 6.0264,34.2267 5.9864,34.3267 C5.9464,34.4257 5.9254,34.5267 5.9254,34.6357 C5.9254,34.8457 6.0054,35.0557 6.1664,35.2057 C6.3164,35.3567 6.5264,35.4467 6.7364,35.4467 C6.9564,35.4467 7.1564,35.3567 7.3164,35.2057 C7.4654,35.0557 7.5554,34.8457 7.5554,34.6357 C7.5554,34.5267 7.5364,34.4257 7.4864,34.3267 C7.4464,34.2267 7.3854,34.1357 7.3164,34.0557" id="Fill-10" fill="#5C5C60"></path>
            <path d="M20.4482,6.1231 C19.9992,6.1231 19.6352,6.4871 19.6352,6.9361 L19.6352,20.6191 L29.3152,30.0151 C29.4732,30.1681 29.6772,30.2441 29.8822,30.2441 C30.0942,30.2441 30.3052,30.1611 30.4662,29.9971 C30.7782,29.6751 30.7702,29.1601 30.4482,28.8471 L21.2612,19.9321 L21.2612,6.9361 C21.2612,6.4871 20.8972,6.1231 20.4482,6.1231" id="Fill-12" fill="#5C5C60"></path>
            <path d="M20.5918,0 C9.2838,0 0.0848,9.199 0.0848,20.506 C0.0848,25.141 1.6748,29.683 4.5628,33.297 C4.8518,33.659 5.3828,33.724 5.7468,33.429 C6.1108,33.139 6.1698,32.608 5.8788,32.244 C3.1918,28.88 1.7708,24.821 1.7708,20.506 C1.7708,10.129 10.2138,1.686 20.5918,1.686 C30.9698,1.686 39.4128,10.129 39.4128,20.506 C39.4128,30.884 30.9698,39.327 20.5918,39.327 C16.4348,39.327 12.4938,37.999 9.1958,35.486 C8.8258,35.203 8.2968,35.276 8.0148,35.646 C7.7328,36.017 7.8048,36.546 8.1748,36.828 C11.7688,39.565 16.0628,41.013 20.5918,41.013 C31.8998,41.013 41.0988,31.813 41.0988,20.506 C41.0988,9.199 31.8998,0 20.5918,0" id="Fill-14" fill="#5C5C60"></path>
        </g>
    </g>
</svg>