<?xml version="1.0" encoding="UTF-8"?>
<svg width="48px" height="48px" viewBox="0 0 48 48" version="1.1" xmlns="http://www.w3.org/2000/svg" xmlns:xlink="http://www.w3.org/1999/xlink">
    <!-- Generator: Sketch 62 (91390) - https://sketch.com -->
    <title>iconografia/marca/off/tiempo</title>
    <desc>Created with Sketch.</desc>
    <defs>
        <polygon id="path-1" points="0 0.1193 41.0138 0.1193 41.0138 41.1323 0 41.1323"></polygon>
    </defs>
    <g id="iconografia/marca/off/tiempo" stroke="none" stroke-width="1" fill="none" fill-rule="evenodd">
        <g id="Group-25" transform="translate(3.000000, 3.000000)">
            <path d="M6.9658,34.8858 C6.6658,34.7558 6.3058,34.8258 6.0758,35.0558 C6.0058,35.1358 5.9458,35.2268 5.9058,35.3168 C5.8658,35.4258 5.8358,35.5268 5.8358,35.6358 C5.8358,35.7368 5.8658,35.8458 5.9058,35.9468 C5.9458,36.0458 6.0058,36.1258 6.0758,36.2058 C6.1558,36.2858 6.2458,36.3458 6.3458,36.3858 C6.4368,36.4258 6.5458,36.4468 6.6558,36.4468 C6.7658,36.4468 6.8658,36.4258 6.9658,36.3858 C7.0668,36.3458 7.1558,36.2858 7.2258,36.2058 C7.3058,36.1358 7.3658,36.0458 7.4058,35.9468 C7.4458,35.8458 7.4658,35.7368 7.4658,35.6358 C7.4658,35.4158 7.3858,35.2058 7.2258,35.0558 C7.1558,34.9868 7.0668,34.9258 6.9658,34.8858" id="Fill-3" fill="#5C5C60"></path>
            <path d="M20.3623,7.1231 C19.9133,7.1231 19.5493,7.4871 19.5493,7.9361 L19.5493,21.6191 L29.2303,31.0151 C29.3883,31.1681 29.5923,31.2441 29.7973,31.2441 C30.0083,31.2441 30.2203,31.1611 30.3813,30.9971 C30.6933,30.6751 30.6853,30.1601 30.3633,29.8471 L21.1753,20.9321 L21.1753,7.9361 C21.1753,7.4871 20.8113,7.1231 20.3623,7.1231" id="Fill-5" fill="#5C5C60"></path>
            <g id="Group-9" transform="translate(0.000000, 0.880700)">
                <mask id="mask-2" fill="white">
                    <use xlink:href="#path-1"></use>
                </mask>
                <g id="Clip-8"></g>
                <path d="M20.5068,0.1193 C9.1988,0.1193 -0.0002,9.3183 -0.0002,20.6253 C-0.0002,25.2613 1.5898,29.8043 4.4778,33.4163 C4.7678,33.7793 5.2988,33.8393 5.6618,33.5483 C6.0258,33.2583 6.0848,32.7263 5.7938,32.3633 C3.1068,29.0003 1.6858,24.9413 1.6858,20.6253 C1.6858,10.2483 10.1288,1.8053 20.5068,1.8053 C30.8848,1.8053 39.3278,10.2483 39.3278,20.6253 C39.3278,31.0033 30.8848,39.4463 20.5068,39.4463 C16.3488,39.4463 12.4078,38.1183 9.1108,35.6053 C8.7398,35.3223 8.2108,35.3953 7.9288,35.7653 C7.6468,36.1363 7.7188,36.6653 8.0888,36.9473 C11.6828,39.6843 15.9768,41.1323 20.5068,41.1323 C31.8148,41.1323 41.0138,31.9323 41.0138,20.6253 C41.0138,9.3183 31.8148,0.1193 20.5068,0.1193" id="Fill-7" fill="#5C5C60" mask="url(#mask-2)"></path>
            </g>
        </g>
    </g>
</svg>