<?xml version="1.0" encoding="UTF-8"?>
<svg width="48px" height="48px" viewBox="0 0 48 48" version="1.1" xmlns="http://www.w3.org/2000/svg" xmlns:xlink="http://www.w3.org/1999/xlink">
    <!-- Generator: Sketch 62 (91390) - https://sketch.com -->
    <title>iconografia/marca/on/token</title>
    <desc>Created with Sketch.</desc>
    <defs>
        <polygon id="path-1" points="0.8296 0.0003 25.4666 0.0003 25.4666 38 0.8296 38"></polygon>
        <polygon id="path-3" points="0 0.3323 26.2638 0.3323 26.2638 39.9593 0 39.9593"></polygon>
        <polygon id="path-5" points="0 41.6676 32.092 41.6676 32.092 0.9996 0 0.9996"></polygon>
    </defs>
    <g id="iconografia/marca/on/token" stroke="none" stroke-width="1" fill="none" fill-rule="evenodd">
        <g id="Page-1" transform="translate(8.000000, 3.000000)">
            <g id="Group-3" transform="translate(2.000000, 3.667600)">
                <mask id="mask-2" fill="white">
                    <use xlink:href="#path-1"></use>
                </mask>
                <g id="Clip-2"></g>
                <path d="M0.8296,28.9183 L0.8296,36.6643 C0.8296,37.4013 1.4276,38.0003 2.1656,38.0003 L24.1296,38.0003 C24.8676,38.0003 25.4666,37.4013 25.4666,36.6643 L25.4666,1.3373 C25.4666,0.5993 24.8676,0.0003 24.1296,0.0003 L2.1656,0.0003 C1.4276,0.0003 0.8296,0.5993 0.8296,1.3373 L0.8296,22.5963 L0.8296,28.9183 Z" id="Fill-1" fill="#FCD603" mask="url(#mask-2)"></path>
            </g>
            <g id="Group-6" transform="translate(0.000000, 0.667600)">
                <mask id="mask-4" fill="white">
                    <use xlink:href="#path-3"></use>
                </mask>
                <g id="Clip-5"></g>
                <path d="M24.1138,39.9593 L2.1498,39.9593 C0.9648,39.9593 -0.0002,38.9943 -0.0002,37.8093 L-0.0002,30.0633 C-0.0002,29.6143 0.3638,29.2503 0.8138,29.2503 C1.2628,29.2503 1.6268,29.6143 1.6268,30.0633 L1.6268,37.8093 C1.6268,38.0983 1.8618,38.3323 2.1498,38.3323 L24.1138,38.3323 C24.4028,38.3323 24.6368,38.0983 24.6368,37.8093 L24.6368,2.4813 C24.6368,2.1933 24.4028,1.9593 24.1138,1.9593 L2.1498,1.9593 C1.8618,1.9593 1.6268,2.1933 1.6268,2.4813 L1.6268,23.7413 C1.6268,24.1903 1.2628,24.5553 0.8138,24.5553 C0.3638,24.5553 -0.0002,24.1903 -0.0002,23.7413 L-0.0002,2.4813 C-0.0002,1.2963 0.9648,0.3323 2.1498,0.3323 L24.1138,0.3323 C25.2998,0.3323 26.2638,1.2963 26.2638,2.4813 L26.2638,37.8093 C26.2638,38.9943 25.2998,39.9593 24.1138,39.9593" id="Fill-4" fill="#5C5C60" mask="url(#mask-4)"></path>
            </g>
            <mask id="mask-6" fill="white">
                <use xlink:href="#path-5"></use>
            </mask>
            <g id="Clip-8"></g>
            <polygon id="Fill-7" fill="#FFFFFF" mask="url(#mask-6)" points="4.948 30.9336 21.315 30.9336 21.315 6.8976 4.948 6.8976"></polygon>
            <path d="M5.762,30.1196 L20.502,30.1196 L20.502,7.7106 L5.762,7.7106 L5.762,30.1196 Z M4.135,31.7466 L22.129,31.7466 L22.129,6.0836 L4.135,6.0836 L4.135,31.7466 Z" id="Fill-9" fill="#5C5C60" mask="url(#mask-6)"></path>
            <polygon id="Fill-10" fill="#5C5C60" mask="url(#mask-6)" points="10.54 4.9766 15.726 4.9766 15.726 3.6796 10.54 3.6796"></polygon>
            <path d="M15.1104,35.4482 C15.1104,36.5412 14.2244,37.4272 13.1324,37.4272 C12.0394,37.4272 11.1544,36.5412 11.1544,35.4482 C11.1544,34.3562 12.0394,33.4702 13.1324,33.4702 C14.2244,33.4702 15.1104,34.3562 15.1104,35.4482" id="Fill-11" fill="#B5B5B5" mask="url(#mask-6)"></path>
            <path d="M13.1323,34.2842 C12.4903,34.2842 11.9673,34.8062 11.9673,35.4482 C11.9673,36.0912 12.4903,36.6132 13.1323,36.6132 C13.7743,36.6132 14.2973,36.0912 14.2973,35.4482 C14.2973,34.8062 13.7743,34.2842 13.1323,34.2842 M13.1323,38.2402 C11.5933,38.2402 10.3403,36.9872 10.3403,35.4482 C10.3403,33.9092 11.5933,32.6572 13.1323,32.6572 C14.6713,32.6572 15.9243,33.9092 15.9243,35.4482 C15.9243,36.9872 14.6713,38.2402 13.1323,38.2402" id="Fill-12" fill="#5C5C60" mask="url(#mask-6)"></path>
            <path d="M0.8643,27.7441 C0.7543,27.7441 0.6543,27.7241 0.5543,27.6841 C0.4543,27.6341 0.3643,27.5741 0.2843,27.5041 C0.1343,27.3441 0.0443,27.1441 0.0443,26.9241 C0.0443,26.8241 0.0743,26.7141 0.1143,26.6141 C0.1543,26.5151 0.2143,26.4241 0.2843,26.3541 C0.3643,26.2741 0.4543,26.2141 0.5543,26.1741 C0.7543,26.0941 0.9743,26.0941 1.1743,26.1741 C1.2743,26.2141 1.3643,26.2741 1.4343,26.3541 C1.5143,26.4241 1.5743,26.5151 1.6143,26.6141 C1.6543,26.7141 1.6743,26.8241 1.6743,26.9241 C1.6743,27.1441 1.5943,27.3441 1.4343,27.5041 C1.2843,27.6541 1.0843,27.7441 0.8643,27.7441" id="Fill-13" fill="#5C5C60" mask="url(#mask-6)"></path>
            <path d="M13.4219,19.334 L9.0849,19.334 C8.7219,19.334 8.4249,19.037 8.4249,18.673 C8.4249,18.31 8.7219,18.013 9.0849,18.013 L13.4219,18.013 C13.7849,18.013 14.0819,18.31 14.0819,18.673 C14.0819,19.037 13.7849,19.334 13.4219,19.334" id="Fill-14" fill="#FEFEFF" mask="url(#mask-6)"></path>
            <polyline id="Fill-15" fill="#FFFFFF" mask="url(#mask-6)" points="14.9272 25.6465 7.8592 25.6465 7.8592 9.6185 31.0292 9.6185 31.0292 25.6465 18.1292 25.6465"></polyline>
            <path d="M15.0356,29.1992 L15.0136,29.1992 C14.7416,29.1912 14.4906,29.0492 14.3466,28.8172 L11.8586,24.8462 L7.8596,24.8462 C7.4106,24.8462 7.0456,24.4822 7.0456,24.0332 L7.0456,9.9712 C7.0456,9.5222 7.4106,9.1582 7.8596,9.1582 L31.2786,9.1582 C31.7276,9.1582 32.0926,9.5222 32.0926,9.9712 L32.0926,24.0332 C32.0926,24.4822 31.7276,24.8462 31.2786,24.8462 L25.5706,24.8462 C25.1216,24.8462 24.7576,24.4822 24.7576,24.0332 C24.7576,23.5842 25.1216,23.2202 25.5706,23.2202 L30.4656,23.2202 L30.4656,10.7852 L8.6726,10.7852 L8.6726,23.2202 L12.3086,23.2202 C12.5886,23.2202 12.8486,23.3642 12.9976,23.6012 L15.0756,26.9172 L17.4376,23.5642 C17.6976,23.1982 18.2046,23.1102 18.5716,23.3682 C18.9386,23.6272 19.0266,24.1352 18.7676,24.5022 L15.7006,28.8542 C15.5476,29.0712 15.2996,29.1992 15.0356,29.1992" id="Fill-16" fill="#5C5C60" mask="url(#mask-6)"></path>
            <path d="M21.1538,24.9394 L18.1458,24.9394 C17.6968,24.9394 17.3328,24.5754 17.3328,24.1264 C17.3328,23.6764 17.6968,23.3124 18.1458,23.3124 L21.1538,23.3124 C21.6028,23.3124 21.9668,23.6764 21.9668,24.1264 C21.9668,24.5754 21.6028,24.9394 21.1538,24.9394" id="Fill-17" fill="#5C5C60" mask="url(#mask-6)"></path>
            <path d="M23.5708,24.9394 L22.9878,24.9394 C22.5378,24.9394 22.1738,24.5754 22.1738,24.1264 C22.1738,23.6764 22.5378,23.3124 22.9878,23.3124 L23.5708,23.3124 C24.0198,23.3124 24.3838,23.6764 24.3838,24.1264 C24.3838,24.5754 24.0198,24.9394 23.5708,24.9394" id="Fill-18" fill="#5C5C60" mask="url(#mask-6)"></path>
            <path d="M14.8711,17.0137 C14.9511,17.1107 14.9921,17.2227 14.9921,17.3517 C14.9921,17.4867 14.9511,17.6027 14.8711,17.6987 C14.7901,17.7947 14.6801,17.8397 14.5381,17.8337 L13.7381,17.7847 L14.1811,18.4507 C14.2331,18.5347 14.2581,18.6117 14.2581,18.6827 C14.2581,18.8117 14.2011,18.9237 14.0851,19.0197 C13.9691,19.1167 13.8441,19.1647 13.7091,19.1647 C13.5411,19.1647 13.4221,19.0877 13.3521,18.9337 L12.9951,18.2097 L12.6381,18.9337 C12.5671,19.0877 12.4451,19.1647 12.2711,19.1647 C12.1371,19.1647 12.0131,19.1167 11.9001,19.0197 C11.7881,18.9237 11.7311,18.8117 11.7311,18.6827 C11.7311,18.6117 11.7571,18.5347 11.8081,18.4507 L12.2521,17.7847 L11.4521,17.8337 C11.3101,17.8397 11.1991,17.7947 11.1191,17.6987 C11.0381,17.6027 10.9981,17.4897 10.9981,17.3617 C10.9981,17.2257 11.0381,17.1107 11.1191,17.0137 C11.1991,16.9167 11.3101,16.8717 11.4521,16.8787 L12.2521,16.9267 L11.8081,16.2617 C11.7571,16.1907 11.7311,16.1137 11.7311,16.0307 C11.7311,15.9017 11.7881,15.7917 11.9001,15.7017 C12.0131,15.6127 12.1371,15.5677 12.2711,15.5677 C12.4391,15.5677 12.5611,15.6407 12.6381,15.7887 L12.9951,16.5127 L13.3521,15.7887 C13.4351,15.6347 13.5601,15.5577 13.7281,15.5577 C13.8561,15.5577 13.9771,15.6047 14.0901,15.6977 C14.2021,15.7907 14.2581,15.9017 14.2581,16.0307 C14.2581,16.1007 14.2331,16.1777 14.1811,16.2617 L13.7381,16.9267 L14.5381,16.8787 C14.6801,16.8717 14.7901,16.9167 14.8711,17.0137" id="Fill-19" fill="#5C5C60" mask="url(#mask-6)"></path>
            <path d="M19.25,17.0137 C19.33,17.1107 19.371,17.2227 19.371,17.3517 C19.371,17.4867 19.33,17.6027 19.25,17.6987 C19.169,17.7947 19.059,17.8397 18.917,17.8337 L18.117,17.7847 L18.56,18.4507 C18.612,18.5347 18.637,18.6117 18.637,18.6827 C18.637,18.8117 18.58,18.9237 18.464,19.0197 C18.348,19.1167 18.223,19.1647 18.088,19.1647 C17.92,19.1647 17.801,19.0877 17.731,18.9337 L17.374,18.2097 L17.017,18.9337 C16.946,19.0877 16.824,19.1647 16.65,19.1647 C16.516,19.1647 16.392,19.1167 16.279,19.0197 C16.167,18.9237 16.11,18.8117 16.11,18.6827 C16.11,18.6117 16.136,18.5347 16.187,18.4507 L16.631,17.7847 L15.831,17.8337 C15.689,17.8397 15.578,17.7947 15.498,17.6987 C15.417,17.6027 15.377,17.4897 15.377,17.3617 C15.377,17.2257 15.417,17.1107 15.498,17.0137 C15.578,16.9167 15.689,16.8717 15.831,16.8787 L16.631,16.9267 L16.187,16.2617 C16.136,16.1907 16.11,16.1137 16.11,16.0307 C16.11,15.9017 16.167,15.7917 16.279,15.7017 C16.392,15.6127 16.516,15.5677 16.65,15.5677 C16.818,15.5677 16.94,15.6407 17.017,15.7887 L17.374,16.5127 L17.731,15.7887 C17.814,15.6347 17.939,15.5577 18.107,15.5577 C18.235,15.5577 18.356,15.6047 18.469,15.6977 C18.581,15.7907 18.637,15.9017 18.637,16.0307 C18.637,16.1007 18.612,16.1777 18.56,16.2617 L18.117,16.9267 L18.917,16.8787 C19.059,16.8717 19.169,16.9167 19.25,17.0137" id="Fill-20" fill="#5C5C60" mask="url(#mask-6)"></path>
            <path d="M23.6284,17.0137 C23.7084,17.1107 23.7494,17.2227 23.7494,17.3517 C23.7494,17.4867 23.7084,17.6027 23.6284,17.6987 C23.5474,17.7947 23.4374,17.8397 23.2954,17.8337 L22.4954,17.7847 L22.9384,18.4507 C22.9904,18.5347 23.0154,18.6117 23.0154,18.6827 C23.0154,18.8117 22.9584,18.9237 22.8424,19.0197 C22.7264,19.1167 22.6014,19.1647 22.4664,19.1647 C22.2984,19.1647 22.1794,19.0877 22.1094,18.9337 L21.7524,18.2097 L21.3954,18.9337 C21.3244,19.0877 21.2024,19.1647 21.0284,19.1647 C20.8944,19.1647 20.7704,19.1167 20.6574,19.0197 C20.5454,18.9237 20.4884,18.8117 20.4884,18.6827 C20.4884,18.6117 20.5144,18.5347 20.5654,18.4507 L21.0094,17.7847 L20.2094,17.8337 C20.0674,17.8397 19.9564,17.7947 19.8764,17.6987 C19.7954,17.6027 19.7554,17.4897 19.7554,17.3617 C19.7554,17.2257 19.7954,17.1107 19.8764,17.0137 C19.9564,16.9167 20.0674,16.8717 20.2094,16.8787 L21.0094,16.9267 L20.5654,16.2617 C20.5144,16.1907 20.4884,16.1137 20.4884,16.0307 C20.4884,15.9017 20.5454,15.7917 20.6574,15.7017 C20.7704,15.6127 20.8944,15.5677 21.0284,15.5677 C21.1964,15.5677 21.3184,15.6407 21.3954,15.7887 L21.7524,16.5127 L22.1094,15.7887 C22.1924,15.6347 22.3174,15.5577 22.4854,15.5577 C22.6134,15.5577 22.7344,15.6047 22.8474,15.6977 C22.9594,15.7907 23.0154,15.9017 23.0154,16.0307 C23.0154,16.1007 22.9904,16.1777 22.9384,16.2617 L22.4954,16.9267 L23.2954,16.8787 C23.4374,16.8717 23.5474,16.9167 23.6284,17.0137" id="Fill-21" fill="#5C5C60" mask="url(#mask-6)"></path>
            <path d="M28.0073,17.0137 C28.0873,17.1107 28.1283,17.2227 28.1283,17.3517 C28.1283,17.4867 28.0873,17.6027 28.0073,17.6987 C27.9263,17.7947 27.8163,17.8397 27.6743,17.8337 L26.8743,17.7847 L27.3173,18.4507 C27.3693,18.5347 27.3943,18.6117 27.3943,18.6827 C27.3943,18.8117 27.3373,18.9237 27.2213,19.0197 C27.1053,19.1167 26.9803,19.1647 26.8453,19.1647 C26.6773,19.1647 26.5583,19.0877 26.4883,18.9337 L26.1313,18.2097 L25.7743,18.9337 C25.7033,19.0877 25.5813,19.1647 25.4073,19.1647 C25.2733,19.1647 25.1493,19.1167 25.0363,19.0197 C24.9243,18.9237 24.8673,18.8117 24.8673,18.6827 C24.8673,18.6117 24.8933,18.5347 24.9443,18.4507 L25.3883,17.7847 L24.5883,17.8337 C24.4463,17.8397 24.3353,17.7947 24.2553,17.6987 C24.1743,17.6027 24.1343,17.4897 24.1343,17.3617 C24.1343,17.2257 24.1743,17.1107 24.2553,17.0137 C24.3353,16.9167 24.4463,16.8717 24.5883,16.8787 L25.3883,16.9267 L24.9443,16.2617 C24.8933,16.1907 24.8673,16.1137 24.8673,16.0307 C24.8673,15.9017 24.9243,15.7917 25.0363,15.7017 C25.1493,15.6127 25.2733,15.5677 25.4073,15.5677 C25.5753,15.5677 25.6973,15.6407 25.7743,15.7887 L26.1313,16.5127 L26.4883,15.7887 C26.5713,15.6347 26.6963,15.5577 26.8643,15.5577 C26.9923,15.5577 27.1133,15.6047 27.2263,15.6977 C27.3383,15.7907 27.3943,15.9017 27.3943,16.0307 C27.3943,16.1007 27.3693,16.1777 27.3173,16.2617 L26.8743,16.9267 L27.6743,16.8787 C27.8163,16.8717 27.9263,16.9167 28.0073,17.0137" id="Fill-22" fill="#5C5C60" mask="url(#mask-6)"></path>
        </g>
    </g>
</svg>