<?xml version="1.0" encoding="UTF-8"?>
<svg width="48px" height="48px" viewBox="0 0 48 48" version="1.1" xmlns="http://www.w3.org/2000/svg" xmlns:xlink="http://www.w3.org/1999/xlink">
    <!-- Generator: Sketch 62 (91390) - https://sketch.com -->
    <title>iconografia/marca/on/transacciones</title>
    <desc>Created with Sketch.</desc>
    <defs>
        <polygon id="path-1" points="0.0151 0.7457 35.715 0.7457 35.715 29.9997 0.0151 29.9997"></polygon>
    </defs>
    <g id="iconografia/marca/on/transacciones" stroke="none" stroke-width="1" fill="none" fill-rule="evenodd">
        <g id="Page-1" transform="translate(5.000000, 7.000000)">
            <g id="Group-3" transform="translate(3.000000, 3.560900)">
                <mask id="mask-2" fill="white">
                    <use xlink:href="#path-1"></use>
                </mask>
                <g id="Clip-2"></g>
                <path d="M33.3831,29.9997 L2.3471,29.9997 C1.0591,29.9997 0.0151,28.9557 0.0151,27.6677 L0.0151,3.0777 C0.0151,1.7897 1.0591,0.7457 2.3471,0.7457 L33.3831,0.7457 C34.6711,0.7457 35.7151,1.7897 35.7151,3.0777 L35.7151,27.6677 C35.7151,28.9557 34.6711,29.9997 33.3831,29.9997" id="Fill-1" fill="#FCD603" mask="url(#mask-2)"></path>
            </g>
            <g id="Group-16" transform="translate(0.000000, 5.560900)" fill="#FFFFFF">
                <path d="M6.2747,11.3151 C5.9087,11.3151 5.5447,11.1631 5.2877,10.8641 L0.8957,5.7821 L5.2717,0.5221 C5.7317,-0.0319 6.5527,-0.1079 7.1067,0.3531 C7.6607,0.8141 7.7357,1.6351 7.2757,2.1881 L4.3137,5.7501 L7.2587,9.1601 C7.7307,9.7051 7.6707,10.5281 7.1257,10.9981 C6.8787,11.2111 6.5757,11.3151 6.2747,11.3151" id="Fill-4"></path>
                <path d="M20.7816,7.1325 L3.0146,7.1325 C2.2956,7.1325 1.7116,6.5485 1.7116,5.8285 C1.7116,5.1095 2.2956,4.5265 3.0146,4.5265 L20.7816,4.5265 C21.5016,4.5265 22.0856,5.1095 22.0856,5.8285 C22.0856,6.5485 21.5016,7.1325 20.7816,7.1325" id="Fill-6"></path>
                <path d="M28.7806,7.1325 L24.1316,7.1325 C23.4116,7.1325 22.8276,6.5485 22.8276,5.8285 C22.8276,5.1095 23.4116,4.5265 24.1316,4.5265 L28.7806,4.5265 C29.5006,4.5265 30.0836,5.1095 30.0836,5.8285 C30.0836,6.5485 29.5006,7.1325 28.7806,7.1325" id="Fill-8"></path>
                <path d="M32.2376,22.7692 C31.9436,22.7692 31.6486,22.6702 31.4046,22.4672 C30.8516,22.0072 30.7756,21.1852 31.2356,20.6322 L34.1976,17.0722 L31.2526,13.6622 C30.7816,13.1172 30.8416,12.2932 31.3856,11.8232 C31.9316,11.3522 32.7566,11.4132 33.2236,11.9572 L37.6156,17.0402 L33.2406,22.2992 C32.9826,22.6092 32.6116,22.7692 32.2376,22.7692" id="Fill-10"></path>
                <path d="M35.4964,18.2956 L17.7294,18.2956 C17.0104,18.2956 16.4274,17.7116 16.4274,16.9916 C16.4274,16.2726 17.0104,15.6886 17.7294,15.6886 L35.4964,15.6886 C36.2164,15.6886 36.8004,16.2726 36.8004,16.9916 C36.8004,17.7116 36.2164,18.2956 35.4964,18.2956" id="Fill-12"></path>
                <path d="M14.3812,18.2956 L9.7322,18.2956 C9.0122,18.2956 8.4282,17.7116 8.4282,16.9916 C8.4282,16.2726 9.0122,15.6886 9.7322,15.6886 L14.3812,15.6886 C15.1002,15.6886 15.6842,16.2726 15.6842,16.9916 C15.6842,17.7116 15.1002,18.2956 14.3812,18.2956" id="Fill-14"></path>
            </g>
            <path d="M4.7474,16.6651 C4.5044,16.6651 4.2624,16.5631 4.0904,16.3641 L0.4224,12.1181 C0.1434,11.7961 0.1394,11.3211 0.4114,10.9941 L4.0804,6.5841 C4.3854,6.2171 4.9344,6.1651 5.3044,6.4731 C5.6734,6.7781 5.7234,7.3271 5.4154,7.6961 L2.2184,11.5391 L5.4054,15.2281 C5.7194,15.5921 5.6794,16.1411 5.3154,16.4541 C5.1514,16.5961 4.9494,16.6651 4.7474,16.6651" id="Fill-17" fill="#58595B"></path>
            <path d="M19.2562,12.4825 L1.4892,12.4825 C1.0092,12.4825 0.6202,12.0935 0.6202,11.6145 C0.6202,11.1335 1.0092,10.7455 1.4892,10.7455 L19.2562,10.7455 C19.7362,10.7455 20.1242,11.1335 20.1242,11.6145 C20.1242,12.0935 19.7362,12.4825 19.2562,12.4825" id="Fill-19" fill="#58595B"></path>
            <path d="M27.2542,12.4825 L22.6052,12.4825 C22.1252,12.4825 21.7362,12.0935 21.7362,11.6145 C21.7362,11.1335 22.1252,10.7455 22.6052,10.7455 L27.2542,10.7455 C27.7342,10.7455 28.1232,11.1335 28.1232,11.6145 C28.1232,12.0935 27.7342,12.4825 27.2542,12.4825" id="Fill-21" fill="#58595B"></path>
            <path d="M30.7113,28.1201 C30.5173,28.1201 30.3183,28.0541 30.1563,27.9191 C29.7873,27.6131 29.7373,27.0641 30.0443,26.6951 L33.2423,22.8521 L30.0553,19.1631 C29.7403,18.8001 29.7813,18.2511 30.1453,17.9371 C30.5063,17.6251 31.0553,17.6621 31.3703,18.0271 L35.0383,22.2731 C35.3153,22.5961 35.3203,23.0701 35.0493,23.3971 L31.3803,27.8081 C31.2093,28.0141 30.9613,28.1201 30.7113,28.1201" id="Fill-23" fill="#58595B"></path>
            <path d="M33.971,23.6465 L16.204,23.6465 C15.724,23.6465 15.335,23.2575 15.335,22.7775 C15.335,22.2975 15.724,21.9095 16.204,21.9095 L33.971,21.9095 C34.451,21.9095 34.84,22.2975 34.84,22.7775 C34.84,23.2575 34.451,23.6465 33.971,23.6465" id="Fill-25" fill="#58595B"></path>
            <path d="M12.8548,23.6465 L8.2058,23.6465 C7.7258,23.6465 7.3368,23.2575 7.3368,22.7775 C7.3368,22.2975 7.7258,21.9095 8.2058,21.9095 L12.8548,21.9095 C13.3348,21.9095 13.7238,22.2975 13.7238,22.7775 C13.7238,23.2575 13.3348,23.6465 12.8548,23.6465" id="Fill-27" fill="#58595B"></path>
            <g id="Group-31" transform="translate(0.000000, 0.560900)" fill="#5C5C60">
                <path d="M36.6868,17.4059 C36.2608,17.4059 35.9158,17.0609 35.9158,16.6349 L35.9158,4.2559 C35.9158,3.0019 34.8948,1.9819 33.6408,1.9819 L3.8168,1.9819 C2.5628,1.9819 1.5418,3.0019 1.5418,4.2559 L1.5418,6.3549 C1.5418,6.7809 1.1978,7.1269 0.7718,7.1269 C0.3448,7.1269 -0.0002,6.7809 -0.0002,6.3549 L-0.0002,4.2559 C-0.0002,2.1509 1.7118,0.4389 3.8168,0.4389 L33.6408,0.4389 C35.7468,0.4389 37.4578,2.1509 37.4578,4.2559 L37.4578,16.6349 C37.4578,17.0609 37.1138,17.4059 36.6868,17.4059" id="Fill-29"></path>
            </g>
            <g id="Group-34" transform="translate(0.000000, 14.560900)" fill="#5C5C60">
                <path d="M33.6409,17.4469 L3.8169,17.4469 C1.7119,17.4469 -0.0001,15.7339 -0.0001,13.6299 L-0.0001,1.0109 C-0.0001,0.5859 0.3449,0.2399 0.7719,0.2399 C1.1979,0.2399 1.5419,0.5859 1.5419,1.0109 L1.5419,13.6299 C1.5419,14.8839 2.5629,15.9039 3.8169,15.9039 L33.6409,15.9039 C34.8949,15.9039 35.9159,14.8839 35.9159,13.6299 L35.9159,11.9039 C35.9159,11.4779 36.2609,11.1329 36.6869,11.1329 C37.1139,11.1329 37.4579,11.4779 37.4579,11.9039 L37.4579,13.6299 C37.4579,15.7339 35.7459,17.4469 33.6409,17.4469" id="Fill-32"></path>
            </g>
        </g>
    </g>
</svg>