<?xml version="1.0" encoding="UTF-8"?>
<svg width="48px" height="48px" viewBox="0 0 48 48" version="1.1" xmlns="http://www.w3.org/2000/svg" xmlns:xlink="http://www.w3.org/1999/xlink">
    <!-- Generator: Sketch 62 (91390) - https://sketch.com -->
    <title>iconografia/marca/off/transacciones</title>
    <desc>Created with Sketch.</desc>
    <g id="iconografia/marca/off/transacciones" stroke="none" stroke-width="1" fill="none" fill-rule="evenodd">
        <g id="Group" transform="translate(5.000000, 8.000000)">
            <path d="M4.7474,15.6651 C4.5044,15.6651 4.2624,15.5631 4.0904,15.3641 L0.4224,11.1181 C0.1434,10.7961 0.1394,10.3211 0.4114,9.9941 L4.0804,5.5841 C4.3854,5.2171 4.9344,5.1651 5.3044,5.4731 C5.6734,5.7781 5.7234,6.3271 5.4154,6.6961 L2.2184,10.5391 L5.4054,14.2281 C5.7194,14.5921 5.6794,15.1411 5.3154,15.4541 C5.1514,15.5961 4.9494,15.6651 4.7474,15.6651" id="Fill-17" fill="#58595B"></path>
            <path d="M19.2562,11.4825 L1.4892,11.4825 C1.0092,11.4825 0.6202,11.0935 0.6202,10.6145 C0.6202,10.1335 1.0092,9.7455 1.4892,9.7455 L19.2562,9.7455 C19.7362,9.7455 20.1242,10.1335 20.1242,10.6145 C20.1242,11.0935 19.7362,11.4825 19.2562,11.4825" id="Fill-19" fill="#58595B"></path>
            <path d="M27.2542,11.4825 L22.6052,11.4825 C22.1252,11.4825 21.7362,11.0935 21.7362,10.6145 C21.7362,10.1335 22.1252,9.7455 22.6052,9.7455 L27.2542,9.7455 C27.7342,9.7455 28.1232,10.1335 28.1232,10.6145 C28.1232,11.0935 27.7342,11.4825 27.2542,11.4825" id="Fill-21" fill="#58595B"></path>
            <path d="M30.7113,27.1201 C30.5173,27.1201 30.3183,27.0541 30.1563,26.9191 C29.7873,26.6131 29.7373,26.0641 30.0443,25.6951 L33.2423,21.8521 L30.0553,18.1631 C29.7403,17.8001 29.7813,17.2511 30.1453,16.9371 C30.5063,16.6251 31.0553,16.6621 31.3703,17.0271 L35.0383,21.2731 C35.3153,21.5961 35.3203,22.0701 35.0493,22.3971 L31.3803,26.8081 C31.2093,27.0141 30.9613,27.1201 30.7113,27.1201" id="Fill-23" fill="#58595B"></path>
            <path d="M33.971,22.6465 L16.204,22.6465 C15.724,22.6465 15.335,22.2575 15.335,21.7775 C15.335,21.2975 15.724,20.9095 16.204,20.9095 L33.971,20.9095 C34.451,20.9095 34.84,21.2975 34.84,21.7775 C34.84,22.2575 34.451,22.6465 33.971,22.6465" id="Fill-25" fill="#58595B"></path>
            <path d="M12.8548,22.6465 L8.2058,22.6465 C7.7258,22.6465 7.3368,22.2575 7.3368,21.7775 C7.3368,21.2975 7.7258,20.9095 8.2058,20.9095 L12.8548,20.9095 C13.3348,20.9095 13.7238,21.2975 13.7238,21.7775 C13.7238,22.2575 13.3348,22.6465 12.8548,22.6465" id="Fill-27" fill="#58595B"></path>
            <path d="M36.6868,16.9668 C36.2608,16.9668 35.9158,16.6218 35.9158,16.1958 L35.9158,3.8168 C35.9158,2.5628 34.8948,1.5428 33.6408,1.5428 L3.8168,1.5428 C2.5628,1.5428 1.5418,2.5628 1.5418,3.8168 L1.5418,5.9158 C1.5418,6.3418 1.1978,6.6878 0.7718,6.6878 C0.3448,6.6878 -0.0002,6.3418 -0.0002,5.9158 L-0.0002,3.8168 C-0.0002,1.7118 1.7118,-0.0002 3.8168,-0.0002 L33.6408,-0.0002 C35.7468,-0.0002 37.4578,1.7118 37.4578,3.8168 L37.4578,16.1958 C37.4578,16.6218 37.1138,16.9668 36.6868,16.9668" id="Fill-29" fill="#5C5C60"></path>
            <path d="M33.6409,31.0078 L3.8169,31.0078 C1.7119,31.0078 -0.000100000001,29.2948 -0.000100000001,27.1908 L-0.000100000001,14.5718 C-0.000100000001,14.1468 0.3449,13.8008 0.7719,13.8008 C1.1979,13.8008 1.5419,14.1468 1.5419,14.5718 L1.5419,27.1908 C1.5419,28.4448 2.5629,29.4648 3.8169,29.4648 L33.6409,29.4648 C34.8949,29.4648 35.9159,28.4448 35.9159,27.1908 L35.9159,25.4648 C35.9159,25.0388 36.2609,24.6938 36.6869,24.6938 C37.1139,24.6938 37.4579,25.0388 37.4579,25.4648 L37.4579,27.1908 C37.4579,29.2948 35.7459,31.0078 33.6409,31.0078" id="Fill-32" fill="#5C5C60"></path>
        </g>
    </g>
</svg>