<?xml version="1.0" encoding="UTF-8"?>
<svg width="32px" height="26px" viewBox="0 0 32 26" version="1.1" xmlns="http://www.w3.org/2000/svg" xmlns:xlink="http://www.w3.org/1999/xlink">
    <!-- Generator: Sketch 62 (91390) - https://sketch.com -->
    <title>Group 15 Copy</title>
    <desc>Created with Sketch.</desc>
    <g id="MARKETPLACE-DESK" stroke="none" stroke-width="1" fill="none" fill-rule="evenodd">
        <g id="22---Compartir" transform="translate(-847.000000, -469.000000)">
            <g id="Group-10" transform="translate(605.000000, 134.000000)">
                <g id="Group-4" transform="translate(72.000000, 332.000000)">
                    <g id="Group-15-Copy" transform="translate(170.000000, 3.000000)">
                        <path d="M5.90533516,17.362182 C6.09509723,17.3941771 6.30376902,17.390813 6.49146283,17.3500139 C6.83486643,17.2755018 7.04243023,17.0457384 7.0970173,16.7061753 C7.15492833,16.3462127 6.99146261,16.0816626 6.68004304,15.9002856 C5.71210139,15.3365421 4.82740685,14.6687967 4.13217892,13.8054303 C3.62361068,13.1736883 3.19031201,12.4851138 2.72340426,11.8219494 C2.75531442,11.7917437 2.78715072,11.7616097 2.81898702,11.7315472 C3.11651975,11.8507235 3.41035918,11.9797059 3.71269322,12.0860699 C3.9543093,12.1710323 4.2030904,12.2431823 4.45438294,12.2947896 C4.85584531,12.3771752 5.18528821,12.2328036 5.36936258,11.920082 C5.55122098,11.6110824 5.48141749,11.2836159 5.22532365,10.9661702 C4.74984743,10.3770883 4.22251719,9.81141226 3.84801595,9.1647106 C2.92446784,7.56982334 2.90659224,5.89913563 3.60233723,4.17562381 C4.10588258,4.5776024 4.58150654,4.9697033 5.07042639,5.34548457 C7.58143132,7.27521083 10.4739548,8.33555819 13.6069124,8.84067979 C14.1764202,8.93251357 14.7476269,9.01783381 15.3206064,9.08490182 C16.0301644,9.16786001 16.4060691,8.81154779 16.3659598,8.10822842 C16.2915027,6.80337272 16.6150363,5.5925697 17.3608626,4.51253855 C18.5481127,2.79303507 20.1901566,1.80304827 22.3712016,1.87462566 C23.4886483,1.91127328 24.5249161,2.34367225 25.5287567,2.79818864 C25.9784536,3.0018263 26.3833138,3.03145933 26.829022,2.8217376 C27.7348422,2.39556586 28.6490832,1.98614322 29.5597786,1.56963443 C29.676561,1.5162377 29.792974,1.46219677 30.0111006,1.36170213 C29.7462906,1.87469724 29.5520966,2.29743326 29.3149863,2.69619087 C29.1118545,3.03754341 29.0395395,3.35949848 29.2950425,3.69319224 C29.5526875,4.02960595 29.9078358,4.0522244 30.292309,3.96017588 C30.3958693,3.93541011 30.500316,3.91386532 30.6382979,3.88330177 C30.3138779,4.93226833 29.7978491,5.81023652 28.872085,6.40239621 C28.4834754,6.65098447 28.3583462,6.95275472 28.3819095,7.39259774 C28.6242642,11.9250208 27.4133769,16.0309143 24.441669,19.5808662 C21.9729155,22.5299976 18.8155081,24.4365327 14.9062914,24.9276968 C11.5498148,25.3494307 8.175832,25.3248797 4.87674942,24.4148448 C4.22894354,24.2361161 3.61799685,23.9323417 2.98998709,23.6862586 C3.00091927,23.6566972 3.01192532,23.6272073 3.02278364,23.5977174 C3.75775155,23.4838378 4.4963389,23.3880672 5.22702257,23.2522849 C6.65197391,22.9875918 7.99087123,22.4934931 9.23300392,21.7634754 C9.6287786,21.5308489 9.79844908,21.2116137 9.72465683,20.8836462 C9.63897213,20.5027829 9.3492692,20.2789604 8.86847462,20.2221996 C6.6088361,19.9553591 5.24260832,19.0195564 4.22369904,17.0342145 C4.80399129,17.1493825 5.35229951,17.2689167 5.90533516,17.362182 Z" id="Fill-1" fill="#FCD505"></path>
                        <path d="M7.4893617,24.5105987 C7.4893617,24.8866425 7.7942263,25.1914894 8.17021277,25.1914894 C8.54619923,25.1914894 8.85106383,24.8866425 8.85106383,24.5105987 C8.85106383,24.1346341 8.54619923,23.8297872 8.17021277,23.8297872 C7.7942263,23.8297872 7.4893617,24.1346341 7.4893617,24.5105987" id="Fill-35" fill="#5C5C60"></path>
                        <path d="M31.2466557,2.63255081 C31.1718401,2.59552648 31.1008479,2.55147039 31.0214594,2.50698379 C31.1472515,2.21574006 31.2734933,1.94458705 31.3806189,1.66654579 C31.4402914,1.51163196 31.4967404,1.34681628 31.5052115,1.18408142 C31.5492912,0.341060318 30.668747,-0.219183851 29.8121168,0.104563804 C28.757203,0.503364661 27.7095608,0.920247169 26.6484998,1.30326246 C26.4784782,1.36468267 26.2348405,1.33741669 26.0597212,1.26946699 C25.5520551,1.0724344 25.0703272,0.814196851 24.5631859,0.615729206 C23.5035492,0.201142781 22.4156506,-0.106819306 21.249713,0.0350355507 C17.8562519,0.447971667 15.2865862,2.79987784 14.6931597,6.02773954 C14.6507293,6.25799358 14.6127218,6.4890369 14.5696166,6.73730084 C14.2264248,6.66490248 13.9231896,6.60319526 13.6210038,6.53696763 C10.5522181,5.86356963 7.75623173,4.6683151 5.42675532,2.59222586 C4.87868291,2.10380603 4.35452448,1.5905598 3.82346923,1.08470409 C3.30613265,0.591907349 2.68976672,0.676718902 2.35729494,1.29379112 C2.23727526,1.51658289 2.12040412,1.74109672 2.00953022,1.96819365 C1.25267903,3.51847996 1.05979293,5.1251638 1.53529878,6.78178744 C1.68560451,7.30543779 1.91762258,7.80756237 2.12205336,8.34570674 C2.01950062,8.36249685 1.92279519,8.3985884 1.83043776,8.39048035 C0.947194819,8.31298756 0.2476922,9.16583877 0.600704506,10.1250273 C0.986326784,11.172328 1.51385866,12.1374002 2.22820444,13.0099834 C2.4320355,13.2589649 2.64516227,13.5009146 2.86818449,13.7628115 C2.66577777,13.8306177 2.49688061,13.8759653 2.33772896,13.9425517 C1.74445239,14.1904569 1.42352529,14.7884429 1.62143408,15.3544273 C2.04416426,16.5628843 2.66817667,17.6691656 3.73141165,18.4669826 C4.37319087,18.9485142 5.10290457,19.3228474 5.79266168,19.7451831 C5.75825254,19.7568788 5.67743978,19.7870149 5.59490282,19.8122718 C4.26449097,20.2185349 2.89794577,20.3997102 1.50433805,20.4269044 C0.75850678,20.4414702 0.259011983,20.7784921 0.066725602,21.3639932 C-0.118214165,21.9270357 0.0778204886,22.5203578 0.698159592,22.8721607 C1.43394549,23.2896172 2.19866805,23.6859785 2.99787472,23.9704057 C4.03179821,24.338353 5.09203458,24.5858277 6.16711411,24.7586079 C6.56458093,24.8224677 6.92643916,24.5277798 6.92643916,24.1420379 C6.92643916,23.8404618 6.70109301,23.5831571 6.3912608,23.5282663 C5.27352594,23.3300857 4.16673602,23.0504659 3.07546396,22.672545 C2.44013177,22.4525516 1.85015367,22.1127314 1.2401598,21.8261516 C1.24960545,21.7753507 1.24870586,21.7805169 1.25822647,21.7297878 C2.0106547,21.6657128 2.76533189,21.6199346 3.5149864,21.533688 C4.97696261,21.3655 6.3686962,20.9621787 7.67954207,20.3163337 C8.0971746,20.1105473 8.29230966,19.8028722 8.24148309,19.4697967 C8.18256024,19.083122 7.90563787,18.8396655 7.4230103,18.7503336 C5.15485563,18.3303657 3.84003659,17.3020077 2.95357014,15.2475877 C3.53267824,15.4021428 4.07902645,15.5587787 4.63204658,15.6895119 C4.82193406,15.7343572 5.0334116,15.7451201 5.22637267,15.7170649 C5.57945994,15.6658335 5.80645532,15.450217 5.88651843,15.1142714 C5.97145428,14.7582351 5.82519669,14.4825617 5.52316089,14.2801476 C4.58451848,13.6508057 3.73748385,12.923091 3.09675415,12.0125508 C2.63106877,11.3507767 2.2447718,10.6379148 1.8238408,9.94729615 C1.87316806,9.89663883 1.86949476,9.90036996 1.91874706,9.84964089 C2.21133721,9.98905615 2.49935447,10.1380145 2.79771697,10.2648013 C3.0361071,10.3661877 3.28274343,10.4550892 3.53335293,10.5237564 C3.9337434,10.6333944 4.27775986,10.5113432 4.48698843,10.2110586 C4.69366818,9.91443347 4.64703967,9.58214726 4.4108985,9.24742145 C3.97257551,8.62604408 3.47997753,8.02468569 3.14818045,7.35257924 C2.32970766,5.69516632 2.43353481,4.02318763 3.2639271,2.34683203 C3.74438068,2.78294423 4.197172,3.207289 4.66465655,3.61613522 C7.06587489,5.71604632 9.91688594,6.9723623 13.0518661,7.68981638 C13.6217535,7.82026258 14.1936649,7.94432279 14.7689498,8.05015785 C15.4811965,8.18124982 15.8878091,7.85032691 15.8986041,7.14435324 C15.9185449,5.83443808 16.3345282,4.64556953 17.1685189,3.61599172 C18.496157,1.97694746 20.2310075,1.09819358 22.4337173,1.31754122 C23.5623971,1.42997752 24.5799781,1.93260436 25.5630751,2.45510668 C26.0034221,2.68923535 26.4111592,2.74635041 26.8777442,2.56682545 C27.8259072,2.20203531 28.7814168,1.85453755 29.7338529,1.49972103 C29.8559716,1.45430165 29.9777904,1.40809298 30.2059853,1.32234865 C29.9004261,1.81744147 29.6729809,2.22700521 29.403705,2.60966174 C29.1731113,2.93728403 29.0764059,3.2543587 29.3107479,3.60537234 C29.546964,3.95925608 29.904924,4.00589526 30.3008166,3.93988288 C30.4075674,3.92215999 30.514768,3.90766597 30.6567525,3.88649896 C30.2517142,4.91349368 29.6650346,5.75651478 28.6845615,6.28597709 C28.2730011,6.50819484 28.1243446,6.80144765 28.1159485,7.24294129 C28.030188,11.7917681 26.5042663,15.8155812 23.2362974,19.1642742 C20.5214986,21.9461219 17.185686,23.6386936 13.1920515,23.8650012 C12.3073093,23.9150845 11.4236165,23.935247 10.5429974,23.9182416 C10.1797898,23.9112816 9.88105246,24.1898969 9.88105246,24.5376817 C9.88105246,24.8681741 10.1516777,25.1416949 10.4965188,25.1572652 C11.7711564,25.2148108 13.0473682,25.2162458 14.3164583,25.0306219 C18.8570407,24.3662647 22.4922653,22.2197145 25.2987469,18.7807567 C27.9501999,15.5315844 29.2704914,11.8110695 29.4055792,7.70029226 C29.4142752,7.43509471 29.5031842,7.27580397 29.733628,7.12067489 C30.8254248,6.38571318 31.5220787,5.36897908 31.9257677,4.16489898 C32.1428676,3.51733192 31.8740415,2.94316775 31.2466557,2.63255081" id="Fill-37" fill="#5C5C60"></path>
                    </g>
                </g>
            </g>
        </g>
    </g>
</svg>