<?xml version="1.0" encoding="UTF-8"?>
<svg width="48px" height="48px" viewBox="0 0 48 48" version="1.1" xmlns="http://www.w3.org/2000/svg" xmlns:xlink="http://www.w3.org/1999/xlink">
    <!-- Generator: Sketch 62 (91390) - https://sketch.com -->
    <title>iconografia/marca/off/viaje</title>
    <desc>Created with Sketch.</desc>
    <defs>
        <polygon id="path-1" points="0.0002 0.0832 39.911 0.0832 39.911 40 0.0002 40"></polygon>
    </defs>
    <g id="iconografia/marca/off/viaje" stroke="none" stroke-width="1" fill="none" fill-rule="evenodd">
        <g id="Page-1" transform="translate(4.000000, 4.000000)">
            <path d="M8.4727,25.6353 C8.3927,25.5653 8.3027,25.5043 8.2127,25.4643 C7.9027,25.3343 7.5527,25.4143 7.3227,25.6353 C7.2427,25.7143 7.1827,25.8053 7.1427,25.9053 C7.1027,26.0043 7.0827,26.1053 7.0827,26.2143 C7.0827,26.4353 7.1727,26.6353 7.3227,26.7943 C7.4727,26.9453 7.6827,27.0253 7.8927,27.0253 C8.1127,27.0253 8.3227,26.9453 8.4727,26.7943 C8.6227,26.6353 8.7127,26.4353 8.7127,26.2143 C8.7127,26.1053 8.6927,26.0043 8.6527,25.9053 C8.6027,25.8053 8.5427,25.7143 8.4727,25.6353" id="Fill-1" fill="#5C5C60"></path>
            <g id="Group-5" transform="translate(0.000000, 0.916500)">
                <mask id="mask-2" fill="white">
                    <use xlink:href="#path-1"></use>
                </mask>
                <g id="Clip-4"></g>
                <path d="M26.8882,35.3252 L26.8882,37.4572 L20.8962,35.2572 L20.8962,29.7032 C20.8962,29.3882 20.6402,29.1332 20.3262,29.1332 L19.6342,29.1332 C19.3212,29.1332 19.0642,29.3882 19.0642,29.7032 L19.0642,35.2572 L13.0732,37.4572 L13.0732,35.3252 L17.5062,31.6542 L15.7172,6.4152 C15.6382,5.2212 16.0442,4.0832 16.8602,3.2122 C17.6662,2.3522 18.8032,1.8602 19.9802,1.8602 C21.1582,1.8602 22.2952,2.3522 23.1002,3.2122 C23.9162,4.0832 24.3232,5.2202 24.2452,6.4072 L22.4532,31.6542 L26.8882,35.3252 Z M38.1352,22.8532 L38.1352,25.7842 L24.8542,22.9122 L25.5512,13.1022 L38.1352,22.8532 Z M30.2232,11.9752 L32.0532,11.9752 L32.0532,15.8932 L30.2232,14.4762 L30.2232,11.9752 Z M7.9082,11.9752 L9.7382,11.9752 L9.7382,14.4372 L7.9082,15.8552 L7.9082,11.9752 Z M39.9112,27.9852 L39.9112,21.9822 L33.8292,17.2702 L33.8292,11.6582 C33.8292,10.8532 33.1752,10.1992 32.3702,10.1992 L29.9062,10.1992 C29.1012,10.1992 28.4472,10.8532 28.4472,11.6582 L28.4472,13.0992 L25.7152,10.9822 C25.7112,10.9792 25.7052,10.9792 25.7012,10.9762 L26.0172,6.5282 C26.1282,4.8412 25.5522,3.2322 24.3962,1.9982 C23.2572,0.7812 21.6482,0.0832 19.9802,0.0832 C18.3142,0.0832 16.7042,0.7812 15.5642,1.9972 C14.4082,3.2312 13.8332,4.8422 13.9452,6.5372 L14.2572,10.9362 L11.5142,13.0612 L11.5142,11.6572 C11.5142,10.8532 10.8592,10.1992 10.0552,10.1992 L7.5902,10.1992 C6.7862,10.1992 6.1322,10.8532 6.1322,11.6572 L6.1322,17.2312 L0.0002,21.9812 L0.0002,27.9852 L5.7092,26.7512 C6.1892,26.6472 6.4932,26.1752 6.3902,25.6952 C6.2862,25.2162 5.8082,24.9132 5.3342,25.0142 L1.7762,25.7842 L1.7762,22.8522 L14.4082,13.0662 L15.1052,22.9022 L10.4432,23.9092 C9.9632,24.0122 9.6592,24.4852 9.7622,24.9652 C9.8522,25.3812 10.2202,25.6652 10.6292,25.6652 C10.6912,25.6652 10.7552,25.6592 10.8182,25.6452 L15.2322,24.6922 L15.6702,30.8692 L11.2962,34.4892 L11.2962,40.0002 L19.0642,37.1492 L19.0642,37.7252 C19.0642,38.0392 19.3212,38.2962 19.6342,38.2962 L20.3262,38.2962 C20.6402,38.2962 20.8962,38.0392 20.8962,37.7252 L20.8962,37.1492 L28.6642,40.0002 L28.6642,34.4892 L24.2892,30.8692 L24.7272,24.7022 L39.9112,27.9852 Z" id="Fill-3" fill="#5C5C60" mask="url(#mask-2)"></path>
            </g>
            <path d="M21.749,6.1758 L18.211,6.1758 C17.898,6.1758 17.641,6.4318 17.641,6.7458 L17.641,7.9448 C17.641,8.2588 17.898,8.5148 18.211,8.5148 L21.749,8.5148 C22.063,8.5148 22.32,8.2588 22.32,7.9448 L22.32,6.7458 C22.32,6.4318 22.063,6.1758 21.749,6.1758" id="Fill-6" fill="#5C5C60"></path>
        </g>
    </g>
</svg>