<?xml version="1.0" encoding="UTF-8"?>
<svg width="48px" height="48px" viewBox="0 0 48 48" version="1.1" xmlns="http://www.w3.org/2000/svg" xmlns:xlink="http://www.w3.org/1999/xlink">
    <!-- Generator: Sketch 62 (91390) - https://sketch.com -->
    <title>iconografia/marca/on/viaje</title>
    <desc>Created with Sketch.</desc>
    <g id="iconografia/marca/on/viaje" stroke="none" stroke-width="1" fill="none" fill-rule="evenodd">
        <g id="Page-1" transform="translate(4.000000, 4.000000)">
            <polygon id="Fill-1" fill="#B5B5B5" points="0.6021 23.3985 0.6021 27.8645 5.2371 26.8625 10.3451 25.7585 15.4551 24.6545 14.6201 12.5375"></polygon>
            <g id="Group-12" transform="translate(0.000000, 0.956600)">
                <path d="M13.6216,39.9999 L13.6216,36.1779 L18.0256,32.5329 L16.2676,7.7449 C16.1726,6.3009 16.6636,4.9289 17.6496,3.8759 C18.6216,2.8379 19.9956,2.2429 21.4176,2.2429 C22.8396,2.2429 24.2126,2.8379 25.1856,3.8759 C26.1706,4.9289 26.6616,6.3009 26.5686,7.7409 L24.8086,32.5329 L29.2136,36.1779 L29.2136,39.9999 L21.8296,37.2899 C21.5436,37.3289 21.2606,37.3309 20.9846,37.2959 L13.6216,39.9999 Z" id="Fill-2" fill="#FCD600"></path>
                <polygon id="Fill-4" fill="#B5B5B5" points="25.1519 11.6444 39.0039 22.3774 39.0039 26.8444 24.1119 23.6244"></polygon>
                <path d="M8.4761,24.6786 C8.3961,24.6086 8.3061,24.5476 8.2061,24.5076 C7.9061,24.3776 7.5461,24.4576 7.3161,24.6786 C7.2461,24.7576 7.1861,24.8486 7.1461,24.9486 C7.1061,25.0476 7.0861,25.1486 7.0861,25.2576 C7.0861,25.4786 7.1661,25.6786 7.3161,25.8376 C7.3961,25.9076 7.4861,25.9686 7.5861,26.0076 C7.6861,26.0476 7.7861,26.0686 7.8961,26.0686 C8.1161,26.0686 8.3161,25.9886 8.4761,25.8376 C8.6261,25.6786 8.7061,25.4786 8.7061,25.2576 C8.7061,25.1486 8.6861,25.0476 8.6461,24.9486 C8.6061,24.8486 8.5461,24.7576 8.4761,24.6786" id="Fill-6" fill="#5C5C60"></path>
                <path d="M26.6953,35.2851 L26.6953,37.4171 L20.7043,35.2181 L20.7043,29.6631 C20.7043,29.3481 20.4463,29.0931 20.1343,29.0931 L19.4413,29.0931 C19.1283,29.0931 18.8713,29.3481 18.8713,29.6631 L18.8713,35.2181 L12.8803,37.4171 L12.8803,35.2851 L17.3133,31.6141 L15.5233,6.3761 C15.4453,5.1811 15.8513,4.0431 16.6673,3.1721 C17.4723,2.3121 18.6103,1.8201 19.7873,1.8201 C20.9653,1.8201 22.1023,2.3121 22.9073,3.1721 C23.7233,4.0431 24.1293,5.1791 24.0523,6.3671 L22.2603,31.6141 L26.6953,35.2851 Z M37.9423,22.8131 L37.9423,25.7441 L24.6613,22.8721 L25.3583,13.0631 L37.9423,22.8131 Z M30.0303,11.9351 L31.8603,11.9351 L31.8603,15.8531 L30.0303,14.4351 L30.0303,11.9351 Z M7.7153,11.9351 L9.5443,11.9351 L9.5443,14.5471 L7.7153,15.9651 L7.7153,11.9351 Z M39.7183,27.9451 L39.7183,21.9421 L33.6363,17.2301 L33.6363,11.6181 C33.6363,10.8131 32.9823,10.1591 32.1773,10.1591 L29.7123,10.1591 C28.9083,10.1591 28.2543,10.8131 28.2543,11.6181 L28.2543,13.0591 L25.5213,10.9421 C25.5173,10.9391 25.5123,10.9391 25.5083,10.9361 L25.8243,6.4871 C25.9343,4.7991 25.3583,3.1911 24.2033,1.9571 C23.0633,0.7411 21.4533,0.0431 19.7873,0.0431 C18.1203,0.0431 16.5103,0.7411 15.3713,1.9571 C14.2163,3.1901 13.6403,4.8011 13.7513,6.4971 L14.0733,11.0381 L11.3203,13.1711 L11.3203,11.6171 C11.3203,10.8131 10.6663,10.1591 9.8623,10.1591 L7.3963,10.1591 C6.5923,10.1591 5.9383,10.8131 5.9383,11.6171 L5.9383,17.3161 C5.9383,17.3241 5.9423,17.3301 5.9433,17.3371 L0.0003,21.9411 L0.0003,27.9451 L5.7103,26.7111 C6.1893,26.6071 6.4943,26.1351 6.3903,25.6551 C6.2863,25.1761 5.8123,24.8731 5.3353,24.9741 L1.7763,25.7441 L1.7763,22.8121 L14.2243,13.1681 L14.9153,22.9031 L10.4433,23.8691 C9.9633,23.9721 9.6583,24.4451 9.7623,24.9251 C9.8523,25.3411 10.2203,25.6251 10.6293,25.6251 C10.6913,25.6251 10.7553,25.6191 10.8183,25.6051 L15.0423,24.6931 L15.4773,30.8291 L11.1033,34.4491 L11.1033,39.9601 L18.8713,37.1091 L18.8713,37.6851 C18.8713,37.9991 19.1283,38.2561 19.4413,38.2561 L20.1343,38.2561 C20.4463,38.2561 20.7043,37.9991 20.7043,37.6851 L20.7043,37.1091 L28.4713,39.9601 L28.4713,34.4491 L24.0963,30.8291 L24.5343,24.6621 L39.7183,27.9451 Z" id="Fill-8" fill="#5C5C60"></path>
                <path d="M21.5562,5.2191 L18.0182,5.2191 C17.7052,5.2191 17.4482,5.4751 17.4482,5.7891 L17.4482,6.9881 C17.4482,7.3021 17.7052,7.5581 18.0182,7.5581 L21.5562,7.5581 C21.8702,7.5581 22.1262,7.3021 22.1262,6.9881 L22.1262,5.7891 C22.1262,5.4751 21.8702,5.2191 21.5562,5.2191" id="Fill-10" fill="#5C5C60"></path>
            </g>
        </g>
    </g>
</svg>