<?xml version="1.0" encoding="UTF-8"?>
<svg width="48px" height="48px" viewBox="0 0 48 48" version="1.1" xmlns="http://www.w3.org/2000/svg" xmlns:xlink="http://www.w3.org/1999/xlink">
    <!-- Generator: Sketch 62 (91390) - https://sketch.com -->
    <title>iconografia/marca/off/web</title>
    <desc>Created with Sketch.</desc>
    <defs>
        <polygon id="path-1" points="0.0002 0.496 39.967 0.496 39.967 34 0.0002 34"></polygon>
        <polygon id="path-3" points="0 34.5044 39.967 34.5044 39.967 1.0004 0 1.0004"></polygon>
    </defs>
    <g id="iconografia/marca/off/web" stroke="none" stroke-width="1" fill="none" fill-rule="evenodd">
        <g id="Page-1" transform="translate(4.000000, 7.000000)">
            <g id="Group-3" transform="translate(0.000000, 0.504400)">
                <mask id="mask-2" fill="white">
                    <use xlink:href="#path-1"></use>
                </mask>
                <g id="Clip-2"></g>
                <path d="M36.0342,34 L14.5982,34 C14.1492,34 13.7852,33.636 13.7852,33.187 C13.7852,32.737 14.1492,32.373 14.5982,32.373 L36.0342,32.373 C37.3052,32.373 38.3402,31.339 38.3402,30.068 L38.3402,4.428 C38.3402,3.157 37.3052,2.123 36.0342,2.123 L3.9322,2.123 C2.6612,2.123 1.6272,3.157 1.6272,4.428 L1.6272,30.068 C1.6272,31.339 2.6612,32.373 3.9322,32.373 L7.8962,32.373 C8.3462,32.373 8.7102,32.737 8.7102,33.187 C8.7102,33.636 8.3462,34 7.8962,34 L3.9322,34 C1.7632,34 0.0002,32.236 0.0002,30.068 L0.0002,4.428 C0.0002,2.26 1.7632,0.496 3.9322,0.496 L36.0342,0.496 C38.2032,0.496 39.9672,2.26 39.9672,4.428 L39.9672,30.068 C39.9672,32.236 38.2032,34 36.0342,34" id="Fill-1" fill="#5C5C60" mask="url(#mask-2)"></path>
            </g>
            <mask id="mask-4" fill="white">
                <use xlink:href="#path-3"></use>
            </mask>
            <g id="Clip-5"></g>
            <polygon id="Fill-4" fill="#5C5C60" mask="url(#mask-4)" points="0.706 14.3654 39.152 14.3654 39.152 12.7384 0.706 12.7384"></polygon>
            <path d="M6.665,6.5034 C5.832,6.5034 5.154,7.1814 5.154,8.0154 C5.154,8.8484 5.832,9.5264 6.665,9.5264 C7.498,9.5264 8.176,8.8484 8.176,8.0154 C8.176,7.1814 7.498,6.5034 6.665,6.5034 M6.665,11.1534 C4.935,11.1534 3.527,9.7454 3.527,8.0154 C3.527,6.2844 4.935,4.8764 6.665,4.8764 C8.395,4.8764 9.803,6.2844 9.803,8.0154 C9.803,9.7454 8.395,11.1534 6.665,11.1534" id="Fill-6" fill="#5C5C60" mask="url(#mask-4)"></path>
            <path d="M13.9219,6.5034 C13.0889,6.5034 12.4109,7.1814 12.4109,8.0154 C12.4109,8.8484 13.0889,9.5264 13.9219,9.5264 C14.7559,9.5264 15.4339,8.8484 15.4339,8.0154 C15.4339,7.1814 14.7559,6.5034 13.9219,6.5034 M13.9219,11.1534 C12.1919,11.1534 10.7839,9.7454 10.7839,8.0154 C10.7839,6.2844 12.1919,4.8764 13.9219,4.8764 C15.6519,4.8764 17.0609,6.2844 17.0609,8.0154 C17.0609,9.7454 15.6519,11.1534 13.9219,11.1534" id="Fill-7" fill="#5C5C60" mask="url(#mask-4)"></path>
            <path d="M22.1777,6.5034 C21.2977,6.5034 20.5817,7.2194 20.5817,8.1004 C20.5817,8.9794 21.2977,9.6954 22.1777,9.6954 L33.2977,9.6954 C34.1767,9.6954 34.8927,8.9794 34.8927,8.1004 C34.8927,7.2194 34.1767,6.5034 33.2977,6.5034 L22.1777,6.5034 Z M33.2977,11.3224 L22.1777,11.3224 C20.4007,11.3224 18.9547,9.8774 18.9547,8.1004 C18.9547,6.3224 20.4007,4.8764 22.1777,4.8764 L33.2977,4.8764 C35.0737,4.8764 36.5197,6.3224 36.5197,8.1004 C36.5197,9.8774 35.0737,11.3224 33.2977,11.3224 L33.2977,11.3224 Z" id="Fill-8" fill="#5C5C60" mask="url(#mask-4)"></path>
            <path d="M11.4609,34.4399 C11.2399,34.4399 11.0399,34.3599 10.8809,34.2109 C10.7309,34.0499 10.6409,33.8499 10.6409,33.6299 C10.6409,33.4199 10.7309,33.2109 10.8809,33.0499 C11.1099,32.8299 11.4709,32.7599 11.7709,32.8799 C11.8699,32.9199 11.9609,32.9799 12.0299,33.0499 C12.1899,33.2109 12.2709,33.4199 12.2709,33.6299 C12.2709,33.7399 12.2499,33.8399 12.2109,33.9399 C12.1709,34.0409 12.1099,34.1299 12.0299,34.2109 C11.8809,34.3599 11.6809,34.4399 11.4609,34.4399" id="Fill-9" fill="#5C5C60" mask="url(#mask-4)"></path>
        </g>
    </g>
</svg>