<?xml version="1.0" encoding="UTF-8"?>
<svg width="48px" height="48px" viewBox="0 0 48 48" version="1.1" xmlns="http://www.w3.org/2000/svg" xmlns:xlink="http://www.w3.org/1999/xlink">
    <!-- Generator: Sketch 62 (91390) - https://sketch.com -->
    <title>iconografia/marca/on/web</title>
    <desc>Created with Sketch.</desc>
    <defs>
        <polygon id="path-1" points="0.6945 0.122 39.034 0.122 39.034 32 0.6945 32"></polygon>
        <polygon id="path-3" points="0 0.328 39.966 0.328 39.966 33.8324 0 33.8324"></polygon>
    </defs>
    <g id="iconografia/marca/on/web" stroke="none" stroke-width="1" fill="none" fill-rule="evenodd">
        <g id="Page-1" transform="translate(3.000000, 6.000000)">
            <g id="Group-3" transform="translate(2.000000, 3.672400)">
                <mask id="mask-2" fill="white">
                    <use xlink:href="#path-1"></use>
                </mask>
                <g id="Clip-2"></g>
                <path d="M14.4795,32 L35.9165,32 C37.6385,32 39.0345,30.604 39.0345,28.881 L39.0345,3.241 C39.0345,1.518 37.6385,0.122 35.9165,0.122 L3.8135,0.122 C2.0905,0.122 0.6945,1.518 0.6945,3.241 L0.6945,28.881 C0.6945,30.604 2.0905,32 3.8135,32 L7.7775,32 L14.4795,32 Z" id="Fill-1" fill="#FCD603" mask="url(#mask-2)"></path>
            </g>
            <path d="M8.9893,8.0152 C8.9893,9.2992 7.9493,10.3402 6.6653,10.3402 C5.3813,10.3402 4.3403,9.2992 4.3403,8.0152 C4.3403,6.7312 5.3813,5.6902 6.6653,5.6902 C7.9493,5.6902 8.9893,6.7312 8.9893,8.0152" id="Fill-4" fill="#FFFFFF"></path>
            <path d="M15.5654,6.3716 C16.4734,7.2796 16.4734,8.7516 15.5654,9.6586 C14.6574,10.5666 13.1854,10.5666 12.2774,9.6586 C11.3704,8.7516 11.3704,7.2796 12.2774,6.3716 C13.1854,5.4636 14.6574,5.4636 15.5654,6.3716" id="Fill-6" fill="#FFFFFF"></path>
            <path d="M33.2969,10.5088 L22.1769,10.5088 C20.8519,10.5088 19.7669,9.4248 19.7669,8.0998 C19.7669,6.7748 20.8519,5.6898 22.1769,5.6898 L33.2969,5.6898 C34.6219,5.6898 35.7059,6.7748 35.7059,8.0998 C35.7059,9.4248 34.6219,10.5088 33.2969,10.5088" id="Fill-8" fill="#B5B5B5"></path>
            <g id="Group-12" transform="translate(0.000000, 0.672400)">
                <mask id="mask-4" fill="white">
                    <use xlink:href="#path-3"></use>
                </mask>
                <g id="Clip-11"></g>
                <path d="M1.627,12.0664 L1.627,4.2594 C1.627,2.9884 2.66,1.9544 3.931,1.9544 L36.034,1.9544 C37.305,1.9544 38.339,2.9884 38.339,4.2594 L38.339,12.0664 L1.627,12.0664 Z M36.034,0.3274 L3.931,0.3274 C1.764,0.3274 0,2.0914 0,4.2594 L0,29.9004 C0,32.0684 1.764,33.8324 3.931,33.8324 L7.896,33.8324 C8.345,33.8324 8.709,33.4674 8.709,33.0184 C8.709,32.5694 8.345,32.2054 7.896,32.2054 L3.931,32.2054 C2.66,32.2054 1.627,31.1704 1.627,29.9004 L1.627,13.6934 L38.339,13.6934 L38.339,29.9004 C38.339,31.1704 37.305,32.2054 36.034,32.2054 L14.598,32.2054 C14.148,32.2054 13.784,32.5694 13.784,33.0184 C13.784,33.4674 14.148,33.8324 14.598,33.8324 L36.034,33.8324 C38.202,33.8324 39.966,32.0684 39.966,29.9004 L39.966,4.2594 C39.966,2.0914 38.202,0.3274 36.034,0.3274 L36.034,0.3274 Z" id="Fill-10" fill="#5C5C60" mask="url(#mask-4)"></path>
            </g>
            <path d="M6.665,9.5269 C5.831,9.5269 5.153,8.8489 5.153,8.0149 C5.153,7.1819 5.831,6.5039 6.665,6.5039 C7.498,6.5039 8.176,7.1819 8.176,8.0149 C8.176,8.8489 7.498,9.5269 6.665,9.5269 M6.665,4.8769 C4.935,4.8769 3.526,6.2849 3.526,8.0149 C3.526,9.7459 4.935,11.1539 6.665,11.1539 C8.395,11.1539 9.803,9.7459 9.803,8.0149 C9.803,6.2849 8.395,4.8769 6.665,4.8769" id="Fill-13" fill="#5C5C60"></path>
            <path d="M14.9902,9.083 C14.4212,9.654 13.4242,9.655 12.8522,9.083 C12.5672,8.798 12.4102,8.419 12.4102,8.015 C12.4102,7.611 12.5672,7.232 12.8522,6.947 C13.1472,6.652 13.5342,6.505 13.9212,6.505 C14.3082,6.505 14.6952,6.652 14.9902,6.947 C15.2762,7.232 15.4332,7.612 15.4322047,8.016 C15.4322047,8.419 15.2752,8.798 14.9902,9.083 M11.7022,5.796 C11.1092,6.389 10.7832,7.177 10.7832,8.015 C10.7832,8.854 11.1092,9.642 11.7022,10.233 C12.2952,10.826 13.0832,11.153 13.9212,11.153 C14.7602,11.153 15.5482,10.826 16.1402,10.234 C16.7332,9.642 17.0592,8.854 17.0602,8.016 C17.0602,7.178 16.7332,6.389 16.1402,5.796 C14.9552,4.611 12.8872,4.609 11.7022,5.796" id="Fill-15" fill="#5C5C60"></path>
            <path d="M33.2969,9.6953 L22.1769,9.6953 C21.2959,9.6953 20.5799,8.9793 20.5799,8.1003 C20.5799,7.2193 21.2959,6.5033 22.1769,6.5033 L33.2969,6.5033 C34.1769,6.5033 34.8929,7.2193 34.8929,8.1003 C34.8929,8.9793 34.1769,9.6953 33.2969,9.6953 M33.2969,4.8763 L22.1769,4.8763 C20.3999,4.8763 18.9529,6.3223 18.9529,8.1003 C18.9529,9.8773 20.3999,11.3223 22.1769,11.3223 L33.2969,11.3223 C35.0739,11.3223 36.5199,9.8773 36.5199,8.1003 C36.5199,6.3223 35.0739,4.8763 33.2969,4.8763" id="Fill-17" fill="#5C5C60"></path>
            <path d="M12.0361,33.0601 C11.9561,32.9801 11.8661,32.9201 11.7651,32.8801 C11.4661,32.7501 11.1061,32.8301 10.8861,33.0601 C10.8061,33.1301 10.7461,33.2201 10.7061,33.3201 C10.6661,33.4201 10.6461,33.5201 10.6461,33.6301 C10.6461,33.8501 10.7261,34.0501 10.8861,34.2001 C10.9561,34.2801 11.0461,34.3401 11.1461,34.3801 C11.2461,34.4201 11.3461,34.4401 11.4561,34.4401 C11.6761,34.4401 11.8861,34.3601 12.0361,34.2001 C12.1861,34.0501 12.2761,33.8501 12.2761,33.6301 C12.2761,33.5201 12.2561,33.4201 12.2061,33.3201 C12.1661,33.2201 12.1061,33.1301 12.0361,33.0601" id="Fill-19" fill="#5C5C60"></path>
        </g>
    </g>
</svg>