<?xml version="1.0" encoding="UTF-8"?>
<svg width="32px" height="32px" viewBox="0 0 32 32" version="1.1" xmlns="http://www.w3.org/2000/svg" xmlns:xlink="http://www.w3.org/1999/xlink">
    <!-- Generator: Sketch 62 (91390) - https://sketch.com -->
    <title>Group 2 Copy</title>
    <desc>Created with Sketch.</desc>
    <g id="MARKETPLACE-DESK" stroke="none" stroke-width="1" fill="none" fill-rule="evenodd">
        <g id="22---Compartir" transform="translate(-735.000000, -466.000000)">
            <g id="Group-10" transform="translate(605.000000, 134.000000)">
                <g id="Group-4" transform="translate(72.000000, 332.000000)">
                    <g id="Group-2-Copy" transform="translate(58.000000, 0.000000)">
                        <g id="Group-7">
                            <path d="M4.50885404,20.8695652 L2.10649776,27.3962894 C2.01292844,27.6505082 2.27132002,27.8947292 2.54254351,27.8083771 L8.34782609,25.9601504 L4.50885404,20.8695652 Z" id="Fill-17" fill="#D1D3D4"></path>
                            <path d="M3.47826087,15.9999627 C3.47826087,8.31597265 9.8630552,2.08695652 17.7390563,2.08695652 C25.6151315,2.08695652 32,8.31597265 32,15.9999627 C32,23.6839527 25.6151315,29.9130435 17.7390563,29.9130435 C9.8630552,29.9130435 3.47826087,23.6839527 3.47826087,15.9999627" id="Fill-15" fill="#D1D3D4"></path>
                            <path d="M31.1112972,13.0430353 C30.6251539,9.59540253 29.1188354,6.6587716 26.6152385,4.24760126 C23.9995525,1.7284021 20.8707858,0.326874218 17.2492912,0.0490109029 C14.3259962,-0.175212581 11.5386598,0.363433209 8.98552817,1.79889802 C3.94488713,4.6330439 1.24300177,8.97007897 0.976547047,14.7687994 C0.858322259,17.3409642 1.46351345,19.7744595 2.60917151,22.0767769 C2.65735933,22.1735684 2.66880768,22.3360611 2.6334899,22.4383214 C2.46483251,22.925425 2.29542686,23.4122289 2.12579674,23.8990329 C1.98265496,24.3100968 2.2874205,24.7397398 2.72230814,24.7397398 C2.99070834,24.7397398 3.22970199,24.5697555 3.31829576,24.31609 C3.5082785,23.77235 3.69885985,23.2288346 3.8911622,22.6858437 C4.01933882,22.3239247 3.9969659,21.9868028 3.81970354,21.6481827 C2.74198733,19.5890425 2.20039808,17.3943793 2.22748502,15.0713101 C2.26946231,11.4801384 3.50251691,8.34655339 5.94011749,5.70981107 C8.03785922,3.4406814 10.6173295,1.99135713 13.6646857,1.48964492 C18.2571949,0.733443162 22.3063191,1.92932672 25.7119412,5.13153474 C27.8844339,7.17419345 29.3293204,9.88660088 29.7983286,12.8332705 C30.5116431,17.3142941 29.3495234,21.2883613 26.258469,24.6616025 C24.2087654,26.8982935 21.6610961,28.2916556 18.6765936,28.8416886 C15.5384738,29.4200398 12.5398292,28.9676223 9.6995161,27.5082593 C9.3209723,27.3137026 8.960686,27.2831368 8.56051754,27.424728 C6.2433117,28.2445334 3.92296317,29.0551991 1.60343773,29.8684119 C1.53609449,29.8920104 1.46643166,29.909316 1.35411811,29.942354 C1.53025808,29.4382444 1.70355467,28.9423756 1.87527991,28.4510767 C2.01894548,28.039863 1.71403028,27.6098454 1.27891817,27.6098454 C1.01059279,27.6098454 0.771449487,27.7796049 0.682706071,28.0331955 C0.483669402,28.6019575 0.28470756,29.1706446 0.0850722852,29.7391819 C-0.0796193338,30.2082307 -0.0105551065,30.629633 0.339255579,30.9770183 C0.689889349,31.3250779 1.11115869,31.3797666 1.57777247,31.2155508 C3.98626581,30.3680265 6.39790183,29.5292673 8.80557208,28.6792708 C8.98058966,28.6174651 9.1146027,28.6287025 9.27645094,28.7107355 C11.2936801,29.7332635 13.4354942,30.2796256 15.6945604,30.3393337 C18.3940513,30.4105787 20.965216,29.8577738 23.3152704,28.5173025 C28.4686739,25.5776 31.0638577,21.0797203 31.3043478,15.1690754 C31.241569,14.4582728 31.2104414,13.7458219 31.1112972,13.0430353" id="Fill-19" fill="#5C5C60"></path>
                            <path d="M11.1411888,8.13807303 C10.5116015,8.73633607 9.8603519,9.34505621 9.22492652,9.96857827 C9.11607765,10.075432 9.03165641,10.2402415 9.01176096,10.3875981 C8.97266141,10.677598 8.94815697,10.9787915 8.98610428,11.2670241 C9.10079119,12.1377605 9.47358125,12.9266076 9.9071331,13.6882073 C10.8939936,15.4217268 12.2113951,16.9048654 13.7097761,18.2461705 C15.0136579,19.4133873 16.427925,20.4334685 18.0596593,21.1490424 C18.7734374,21.4620185 19.5082632,21.7134304 20.3095353,21.7149804 C20.7346373,21.7157133 21.1016661,21.6021582 21.3965644,21.284469 C21.6462945,21.0153832 21.9251381,20.7711882 22.1915374,20.5163152 C22.5098647,20.2117342 22.828576,19.9074477 23.1286209,19.6207616 C22.2794922,18.8063609 21.4458037,18.0066149 20.5979041,17.1933189 C20.2075999,17.5679329 19.8062341,17.9569806 19.4002593,18.3416835 C19.0399904,18.6830115 18.5351529,18.7732959 18.0910772,18.5552436 C15.5201086,17.2930294 13.5729661,15.4290909 12.2525687,12.9655639 C12.0879511,12.6584055 12.0764287,12.3380652 12.232366,12.0280347 C12.3024226,11.8886315 12.4083524,11.7593171 12.5215798,11.6473821 C12.902282,11.271148 13.2935848,10.9047082 13.6632254,10.5513766 C12.8081818,9.73322023 11.9739556,8.93502068 11.1411888,8.13807303 M13.4400737,12.4711353 C14.6357212,14.6370773 16.3273723,16.2612392 18.56273,17.3956119 C18.8471043,17.122034 19.127177,16.8514017 19.4085555,16.5820213 C20.1801764,15.8433977 21.0753181,15.8429558 21.8443272,16.5801066 C22.5094806,17.2177678 23.1753253,17.8548399 23.8396336,18.4933848 C24.515234,19.142755 24.5174617,20.0404442 23.8448571,20.6878261 C23.3031478,21.2093547 22.7549858,21.7245502 22.2181159,22.2504237 C21.7625178,22.6968381 21.2031406,22.9091464 20.5662557,22.9478082 C19.5161753,23.0116553 18.5450622,22.7170159 17.604522,22.3136081 C15.8627866,21.5664421 14.3477364,20.4953273 12.9514445,19.2646316 C11.2573352,17.7714042 9.78530227,16.1036465 8.69566141,14.1480245 C8.1794551,13.2216888 7.77017724,12.2561023 7.67000863,11.1960338 C7.58681646,10.3140303 7.78369693,9.52753969 8.49309653,8.89540158 C9.02190073,8.42409637 9.51759706,7.91884246 10.0292712,7.42993695 C10.6915055,6.797357 11.6398042,6.79882983 12.3034212,7.43369267 C12.995998,8.09609741 13.6879603,8.75909128 14.3786166,9.42333705 C15.0247963,10.0447972 15.0551388,10.9079485 14.4317736,11.5551094 C14.1215121,11.8772907 13.7730728,12.1657442 13.4400737,12.4711353" id="Fill-21" fill="#5C5C60"></path>
                        </g>
                        <path d="M1.39130435,25.7391304 C1.39130435,26.1233349 1.70275203,26.4347826 2.08695652,26.4347826 C2.47116101,26.4347826 2.7826087,26.1233349 2.7826087,25.7391304 C2.7826087,25.3549259 2.47116101,25.0434783 2.08695652,25.0434783 C1.70275203,25.0434783 1.39130435,25.3549259 1.39130435,25.7391304" id="Fill-31" fill="#5C5C60"></path>
                    </g>
                </g>
            </g>
        </g>
    </g>
</svg>